<svg width="28" height="27" viewBox="0 0 28 27" fill="none" xmlns="http://www.w3.org/2000/svg">
<path fill-rule="evenodd" clip-rule="evenodd" d="M14 27C21.4558 27 27.5 20.9558 27.5 13.5C27.5 6.04416 21.4558 0 14 0C6.54416 0 0.5 6.04416 0.5 13.5C0.5 20.9558 6.54416 27 14 27ZM14.9917 9.46226C15.3437 9.78226 15.5197 10.1876 15.5197 10.6783C15.5197 11.1476 15.397 11.5636 15.1517 11.9263C14.917 12.2889 14.5277 12.7209 13.9837 13.2223L9.72769 17.1423V18.7263H17.6797V17.0303H12.3357L15.3117 14.3423C16.0157 13.7129 16.549 13.1263 16.9117 12.5823C17.2744 12.0383 17.4557 11.3929 17.4557 10.6463C17.4557 9.68626 17.109 8.88626 16.4157 8.24626C15.733 7.5956 14.821 7.27026 13.6797 7.27026C12.549 7.27026 11.6264 7.58493 10.9117 8.21426C10.197 8.83293 9.78635 9.63826 9.67969 10.6303H11.5197C11.6264 10.1183 11.861 9.71293 12.2237 9.41426C12.5864 9.1156 13.0557 8.96626 13.6317 8.96626C14.197 8.96626 14.6504 9.1316 14.9917 9.46226Z" fill="black"/>
</svg>
