<svg width="332" height="33" viewBox="0 0 332 33" fill="none" xmlns="http://www.w3.org/2000/svg">
<g clip-path="url(#clip0_402_217)">
<path fill-rule="evenodd" clip-rule="evenodd" d="M244.344 2.01697C242.327 4.03394 242.327 7.28018 242.327 13.7727V19.2624C242.327 25.7549 242.327 29.0012 244.344 31.0181C246.361 33.0351 249.607 33.0351 256.099 33.0351H318.066C324.559 33.0351 327.805 33.0351 329.822 31.0181C331.839 29.0012 331.839 25.7549 331.839 19.2624V13.7727C331.839 7.28021 331.839 4.03394 329.822 2.01697C327.805 0 324.559 0 318.066 0H256.099C249.607 0 246.361 0 244.344 2.01697ZM285.748 4.27223V26.1027H283.736V4.27223H285.748ZM249.07 26.1027H251.141V16.1934H263.271V26.1027H265.343V4.96286H263.271V14.2416H251.141V4.96286H249.07V26.1027ZM270.077 19.0761H281.457V17.9951C281.457 15.733 280.856 13.9513 279.655 12.6501C278.474 11.3288 276.903 10.6682 274.941 10.6682C272.9 10.6682 271.228 11.3789 269.927 12.8002C268.626 14.2216 267.976 16.1333 267.976 18.5356C267.976 20.9579 268.636 22.8797 269.957 24.301C271.298 25.7023 273.02 26.403 275.121 26.403C276.843 26.403 278.224 25.9826 279.265 25.1418C280.326 24.281 280.986 23.3101 281.246 22.229H279.235C279.015 22.8496 278.544 23.4002 277.823 23.8806C277.123 24.341 276.222 24.5713 275.121 24.5713C273.64 24.5713 272.429 24.0708 271.488 23.0698C270.548 22.0689 270.077 20.7677 270.077 19.1662V19.0761ZM271.518 13.8212C272.399 12.9203 273.53 12.4699 274.911 12.4699C276.272 12.4699 277.353 12.9003 278.154 13.7611C278.975 14.6219 279.405 15.823 279.445 17.3645H270.077C270.177 15.8831 270.658 14.702 271.518 13.8212ZM300.9 12.7702C299.579 11.3689 297.978 10.6682 296.096 10.6682C294.855 10.6682 293.784 10.9385 292.883 11.479C291.983 11.9995 291.302 12.6801 290.842 13.5209V10.9685H288.92V31.8381H290.932V23.7605C291.372 24.5412 292.033 25.1818 292.913 25.6823C293.794 26.1627 294.835 26.403 296.036 26.403C297.958 26.403 299.579 25.7123 300.9 24.331C302.221 22.9297 302.882 20.9979 302.882 18.5356C302.882 16.0733 302.221 14.1515 300.9 12.7702ZM299.459 22.9197C298.558 24.0207 297.367 24.5713 295.886 24.5713C294.385 24.5713 293.163 24.0307 292.223 22.9497C291.302 21.8487 290.842 20.4274 290.842 18.6857V18.3854C290.842 16.6038 291.302 15.1824 292.223 14.1214C293.163 13.0404 294.385 12.4999 295.886 12.4999C297.367 12.4999 298.558 13.0605 299.459 14.1815C300.38 15.2825 300.84 16.7339 300.84 18.5356C300.84 20.3373 300.38 21.7986 299.459 22.9197ZM317.738 19.0761H306.359V19.1662C306.359 20.7677 306.83 22.0689 307.77 23.0698C308.711 24.0708 309.922 24.5713 311.403 24.5713C312.504 24.5713 313.405 24.341 314.105 23.8806C314.826 23.4002 315.297 22.8496 315.517 22.229H317.528C317.268 23.3101 316.608 24.281 315.547 25.1418C314.506 25.9826 313.125 26.403 311.403 26.403C309.302 26.403 307.58 25.7023 306.239 24.301C304.918 22.8797 304.257 20.9579 304.257 18.5356C304.257 16.1333 304.908 14.2216 306.209 12.8002C307.51 11.3789 309.181 10.6682 311.223 10.6682C313.185 10.6682 314.756 11.3288 315.937 12.6501C317.138 13.9513 317.738 15.733 317.738 17.9951V19.0761ZM311.193 12.4699C309.812 12.4699 308.681 12.9203 307.8 13.8212C306.94 14.702 306.459 15.8831 306.359 17.3645H315.727C315.687 15.823 315.257 14.6219 314.436 13.7611C313.635 12.9003 312.554 12.4699 311.193 12.4699ZM327.554 10.9084H326.834C324.592 10.9084 322.961 11.7692 321.94 13.4909V10.9685H320.018V26.1027H322.03V17.6648C322.03 16.1033 322.48 14.9022 323.381 14.0614C324.281 13.2206 325.433 12.8002 326.834 12.8002H327.554V10.9084Z" fill="white"/>
<path d="M34.8195 25.9301C35.2196 26.3239 35.7585 26.5446 36.3199 26.5446C36.8813 26.5446 37.4202 26.3239 37.8204 25.9301L45.2766 18.5778C45.4728 18.3849 45.6287 18.1548 45.7353 17.9011C45.8419 17.6474 45.897 17.375 45.8975 17.0998C45.8975 16.545 45.6732 16.0137 45.2766 15.6206L37.8204 8.26949C37.4202 7.87665 36.8818 7.65663 36.3211 7.6568C35.758 7.6568 35.2185 7.87756 34.8195 8.26949L32.2105 10.8454C32.5234 11.3908 32.6296 12.0295 32.5104 12.6457C32.498 12.7101 32.5069 12.7768 32.5356 12.8357C32.5643 12.8947 32.6114 12.9427 32.6698 12.9727C33.0145 13.151 33.3167 13.4012 33.5551 13.707C33.7917 14.0108 33.9593 14.3625 34.0461 14.7376C34.133 15.1127 34.137 15.5023 34.058 15.8791C33.9778 16.2557 33.816 16.6111 33.5835 16.9192C33.5436 16.9712 33.5219 17.0349 33.5219 17.1004C33.5219 17.1659 33.5436 17.2296 33.5835 17.2816C33.815 17.5895 33.9765 17.9443 34.0566 18.3211C34.1367 18.6979 34.1336 19.0877 34.0474 19.4632C33.9603 19.8389 33.7923 20.191 33.5551 20.495C33.3167 20.7996 33.0145 21.0498 32.6698 21.2293C32.6118 21.2597 32.5651 21.3078 32.5364 21.3666C32.5077 21.4254 32.4986 21.4919 32.5104 21.5563C32.6284 22.1713 32.5222 22.8076 32.2105 23.3542L34.8195 25.9325V25.9301Z" fill="#C6F4C6"/>
<path d="M9.57876 26.544C14.8699 26.544 19.1587 22.3154 19.1587 17.0998C19.1587 11.8819 14.8699 7.65449 9.57876 7.65449C4.28884 7.65449 0 11.8831 0 17.0987C0 22.3166 4.28884 26.544 9.57876 26.544Z" fill="#1BA463"/>
<path d="M17.9451 23.7818C18.2639 23.9802 18.4929 24.2894 18.5897 24.6471C18.6457 24.8554 18.7466 25.0489 18.8852 25.2141C19.0239 25.3793 19.197 25.5121 19.3924 25.6034C19.5885 25.6966 19.8021 25.7469 20.0191 25.7509C20.2361 25.755 20.4515 25.7127 20.6509 25.627C20.9466 25.4986 21.2755 25.4676 21.59 25.5385C21.9045 25.6093 22.1883 25.7784 22.4004 26.0213C22.5422 26.185 22.7178 26.316 22.9151 26.4055C23.1123 26.4949 23.3266 26.5407 23.5431 26.5395C23.7596 26.5391 23.9735 26.4926 24.1705 26.403C24.3676 26.3135 24.5433 26.1829 24.6859 26.0201C24.8978 25.7771 25.1817 25.6079 25.4962 25.537C25.8108 25.4661 26.1397 25.4972 26.4354 25.6258C26.7353 25.755 27.0686 25.7846 27.3866 25.7102C27.7045 25.6359 27.9901 25.4614 28.2015 25.2126C28.3396 25.0473 28.4411 24.8549 28.4966 24.6471C28.5793 24.3402 28.7587 24.0652 29.0113 23.8668C29.264 23.6673 29.5756 23.5552 29.8979 23.5457C30.1137 23.5377 30.3252 23.4838 30.5186 23.3877C30.7119 23.2917 30.8826 23.1556 31.0194 22.9885C31.1544 22.8223 31.2517 22.6288 31.3045 22.4213C31.3573 22.2138 31.3644 21.9972 31.3252 21.7867C31.2628 21.4725 31.3055 21.1464 31.4468 20.8588C31.5884 20.5708 31.821 20.3359 32.109 20.1883C32.3001 20.0889 32.4675 19.9495 32.5999 19.7796C32.7323 19.6097 32.8266 19.4133 32.8764 19.2038C32.9248 18.9946 32.9266 18.7774 32.8817 18.5675C32.8369 18.3575 32.7464 18.16 32.6166 17.989C32.4238 17.7346 32.3194 17.424 32.3194 17.1048C32.3194 16.7855 32.4238 16.475 32.6166 16.2206C32.7459 16.0487 32.836 15.8506 32.8806 15.6402C32.9253 15.4299 32.9233 15.2123 32.875 15.0027C32.8266 14.7932 32.733 14.5967 32.6007 14.4272C32.4683 14.2576 32.3005 14.1191 32.109 14.0213C31.8234 13.8749 31.5927 13.6401 31.4515 13.3519C31.3109 13.0654 31.2682 12.7407 31.3299 12.4276C31.3703 12.2172 31.3641 12.0006 31.3117 11.793C31.2592 11.5853 31.1619 11.3917 31.0265 11.2258C30.8904 11.0578 30.7196 10.9213 30.5259 10.8255C30.3321 10.7298 30.1199 10.677 29.9038 10.6709C29.5814 10.661 29.2707 10.5481 29.0172 10.3487C28.7654 10.151 28.5847 9.87663 28.5025 9.56715C28.4473 9.35824 28.3469 9.164 28.2084 8.99816C28.0699 8.83232 27.8967 8.69892 27.701 8.60738C27.5047 8.51363 27.2906 8.46302 27.0731 8.45895C26.8556 8.45487 26.6398 8.49744 26.4402 8.58377C26.1447 8.71222 25.8161 8.74336 25.5018 8.67269C25.1875 8.60202 24.9038 8.43321 24.6918 8.19066C24.5498 8.02673 24.3741 7.89543 24.1767 7.80578C23.9792 7.71612 23.7647 7.67022 23.5479 7.67123C23.3314 7.67162 23.1175 7.71816 22.9205 7.80773C22.7234 7.89729 22.5477 8.02784 22.4051 8.19066C22.1928 8.4332 21.909 8.60207 21.5946 8.67293C21.2802 8.74379 20.9514 8.71299 20.6556 8.58495C20.3558 8.45535 20.0223 8.42555 19.7043 8.49995C19.3863 8.57435 19.1007 8.749 18.8895 8.99814C18.751 9.1632 18.6502 9.35662 18.5944 9.56479C18.4952 9.91894 18.2639 10.2259 17.9451 10.4218C19.4986 12.3022 20.3492 14.6646 20.351 17.1036C20.351 19.5355 19.501 21.8965 17.9451 23.7854V23.7818Z" fill="#44D370"/>
<path d="M67.6181 14.5061H59.2541V10.1689H68.5779V7.18217H56.0077V25.3622H68.8636V22.3755H59.2541V17.4929H67.6169V14.5061H67.6181ZM72.7239 7.18217V25.3622H78.9039C84.8254 25.3622 88.9809 22.5573 88.9809 15.9086C88.9809 10.3247 85.7085 7.18217 78.9818 7.18217H72.7239ZM75.9703 22.3755V10.1689H78.9299C83.5269 10.1689 85.5786 12.1687 85.5786 16.2203C85.5786 20.1679 83.397 22.3755 78.9039 22.3755H75.9703ZM95.521 7.18217H92.2745V18.1162C92.2745 22.7391 94.7678 25.6739 100.066 25.6739C104.819 25.6739 107.754 23.2585 107.754 17.9084V7.18217H104.507V18.246C104.507 21.3886 102.923 22.6872 100.196 22.6872C97.5208 22.6872 95.521 21.2587 95.521 17.9344V7.18217ZM125.766 7.18217H110.365V10.1689H116.39V25.3622H119.637V10.1689H125.766V7.18217ZM126.563 16.2462C126.563 22.1418 130.459 25.6479 136.302 25.6479C142.224 25.6479 146.041 21.7782 146.041 16.2982C146.041 10.4286 142.146 6.92246 136.302 6.89648C130.381 6.89648 126.563 10.7662 126.563 16.2462ZM129.991 16.2722C129.991 12.4804 132.38 9.90918 136.276 9.88321C140.432 9.90918 142.613 12.7141 142.613 16.2722C142.613 20.09 140.198 22.6612 136.328 22.6612C132.173 22.6352 129.991 19.8303 129.991 16.2722ZM160.691 25.3622H164.586L159.937 18.8953C162.197 17.9084 163.366 16.0644 163.366 13.3374C163.366 9.23392 160.924 7.18217 155.185 7.18217H149.445V25.3622H152.691V19.7004H155.185C155.756 19.7004 156.275 19.6745 156.795 19.6225L160.691 25.3622ZM155.47 10.1689C158.639 10.1689 159.989 11.026 159.989 13.2595C159.989 15.7268 158.431 16.7137 155.418 16.7137H152.691V10.1689H155.47ZM170.979 7.18217H167.732V25.3622H170.979V7.18217ZM184.603 7.18217H180.915L173.539 25.3622H176.838L178.552 21.051H186.889L188.629 25.3622H192.083L184.603 7.18217ZM179.721 18.0642L182.707 10.6104L185.694 18.0642H179.721Z" fill="white"/>
<path opacity="0.34" d="M226.979 7.21692L226.393 6.63086L216.721 16.3027L207.049 6.63088L206.463 7.21694L216.135 16.8887L206.467 26.557L207.053 27.1431L216.721 17.4748L226.39 27.1431L226.976 26.5571L217.307 16.8887L226.979 7.21692Z" fill="white"/>
</g>
<defs>
<clipPath id="clip0_402_217">
<rect width="332" height="33" fill="white"/>
</clipPath>
</defs>
</svg>
