<svg width="492" height="360" viewBox="0 0 492 360" fill="none" xmlns="http://www.w3.org/2000/svg">
<g opacity="0.5" filter="url(#filter0_f_109_10309)">
<g filter="url(#filter1_b_109_10309)">
<path fill-rule="evenodd" clip-rule="evenodd" d="M384.403 142.467C400.648 146.334 410.682 162.638 406.815 178.883L389.353 252.237C385.486 268.482 369.183 278.516 352.938 274.649L174.542 232.183C158.297 228.316 148.263 212.013 152.13 195.768L169.591 122.414C173.458 106.169 189.762 96.1348 206.006 100.002L384.403 142.467Z" fill="url(#paint0_linear_109_10309)" fill-opacity="0.43"/>
<path fill-rule="evenodd" clip-rule="evenodd" d="M384.403 142.467C400.648 146.334 410.682 162.638 406.815 178.883L389.353 252.237C385.486 268.482 369.183 278.516 352.938 274.649L174.542 232.183C158.297 228.316 148.263 212.013 152.13 195.768L169.591 122.414C173.458 106.169 189.762 96.1348 206.006 100.002L384.403 142.467Z" fill="url(#paint1_linear_109_10309)" fill-opacity="0.6"/>
<path fill-rule="evenodd" clip-rule="evenodd" d="M384.403 142.467C400.648 146.334 410.682 162.638 406.815 178.883L389.353 252.237C385.486 268.482 369.183 278.516 352.938 274.649L174.542 232.183C158.297 228.316 148.263 212.013 152.13 195.768L169.591 122.414C173.458 106.169 189.762 96.1348 206.006 100.002L384.403 142.467Z" fill="url(#paint2_linear_109_10309)" fill-opacity="0.2"/>
</g>
<path d="M105.384 112.364L111.978 85.018L122.105 87.5082C124.666 88.1378 126.509 89.3041 127.632 91.0068C128.763 92.6837 129.081 94.545 128.588 96.5908C128.213 98.1446 127.552 99.3535 126.603 100.218C125.661 101.056 124.652 101.548 123.576 101.695C124.684 102.324 125.57 103.31 126.233 104.653C126.921 106.001 127.047 107.582 126.61 109.395C126.054 111.7 124.79 113.364 122.817 114.387C120.844 115.411 118.486 115.586 115.744 114.911L105.384 112.364ZM118.731 102.355L111.824 100.657L109.548 110.096L116.261 111.747C117.994 112.173 119.478 112.099 120.712 111.525C121.947 110.95 122.742 109.925 123.098 108.449C123.447 106.999 123.221 105.723 122.418 104.62C121.641 103.524 120.412 102.769 118.731 102.355ZM120.929 90.5107L114.643 88.9651L112.564 97.5885L119.083 99.1913C120.661 99.5793 121.96 99.4736 122.982 98.8744C124.029 98.2815 124.705 97.3506 125.011 96.0817C125.336 94.7352 125.136 93.5751 124.412 92.6015C123.694 91.602 122.533 90.9051 120.929 90.5107ZM136.791 99.3485L135.264 105.68L139.649 106.758C141.693 107.261 143.198 108.289 144.166 109.844C145.14 111.373 145.396 113.095 144.934 115.011C144.466 116.954 143.445 118.403 141.871 119.361C140.304 120.292 138.486 120.503 136.416 119.994L128.734 118.105L133.454 98.528L136.791 99.3485ZM154.213 103.632L149.492 123.21L146.155 122.389L150.876 102.812L154.213 103.632ZM138.51 109.605L134.553 108.632L132.782 115.974L136.74 116.947C137.982 117.252 139.036 117.141 139.903 116.614C140.77 116.086 141.335 115.279 141.597 114.191C141.859 113.103 141.719 112.15 141.177 111.331C140.641 110.486 139.752 109.911 138.51 109.605ZM166.781 127.461L163.332 118.753L156.421 124.913L152.58 123.969L161.886 115.888L157.378 104.411L161.297 105.374L164.65 114.14L171.502 107.883L175.343 108.828L166.087 117.044L170.7 128.424L166.781 127.461ZM178.407 112.173C180.602 110.683 183.109 110.285 185.929 110.978C188.748 111.671 190.781 113.186 192.026 115.522C193.303 117.839 193.58 120.499 192.855 123.503C192.131 126.507 190.671 128.754 188.476 130.244C186.313 131.715 183.822 132.103 181.002 131.41C178.183 130.717 176.134 129.212 174.857 126.895C173.612 124.559 173.351 121.889 174.076 118.885C174.8 115.881 176.244 113.644 178.407 112.173ZM177.826 125.321C178.594 126.909 179.896 127.929 181.733 128.38C183.569 128.832 185.177 128.528 186.556 127.468C187.961 126.414 188.923 124.813 189.441 122.663C189.959 120.514 189.834 118.645 189.066 117.058C188.324 115.476 187.035 114.46 185.198 114.008C183.362 113.556 181.741 113.857 180.336 114.911C178.957 115.971 178.008 117.575 177.49 119.725C176.972 121.874 177.084 123.74 177.826 125.321ZM214.135 135.895L212.206 143.897L208.985 143.105L210.184 138.133L194.935 134.383L193.736 139.355L190.516 138.563L192.445 130.562L194.075 130.962C195.517 130.549 196.846 128.503 198.062 124.824L201.208 115.188L215.254 118.641L211.264 135.189L214.135 135.895ZM201.264 125.694C200.879 126.834 200.573 127.705 200.346 128.307C200.119 128.91 199.779 129.58 199.326 130.32C198.88 131.033 198.41 131.562 197.916 131.907L207.927 134.368L211.196 120.812L203.474 118.913L201.264 125.694ZM227.77 142.457L224.434 141.636L229.154 122.059L232.491 122.88L230.59 130.765L240.251 133.141L242.153 125.255L245.49 126.076L240.769 145.653L237.432 144.833L239.521 136.17L229.859 133.795L227.77 142.457ZM260.632 136.794C260.95 135.473 260.78 134.362 260.121 133.459C259.488 132.563 258.511 131.952 257.192 131.628C254.838 131.049 253.129 131.548 252.064 133.124L248.843 132.332C249.567 130.809 250.726 129.695 252.321 128.99C253.948 128.265 255.835 128.167 257.982 128.695C260.284 129.261 261.98 130.35 263.071 131.962C264.168 133.549 264.455 135.43 263.93 137.605L260.802 150.579L257.659 149.806L258.221 147.475C256.303 148.951 253.986 149.356 251.27 148.688C249.33 148.211 247.844 147.269 246.813 145.864C245.814 144.439 245.533 142.82 245.97 141.007C246.426 139.116 247.468 137.809 249.095 137.084C250.728 136.334 252.734 136.251 255.114 136.836L260.314 138.115L260.632 136.794ZM252.399 145.879C254.003 146.274 255.457 146.151 256.762 145.512C258.093 144.879 258.934 143.838 259.283 142.388L259.63 140.95L254.624 139.72C253.253 139.382 252.088 139.384 251.13 139.724C250.197 140.071 249.605 140.762 249.355 141.798C249.112 142.808 249.274 143.671 249.841 144.386C250.408 145.102 251.261 145.6 252.399 145.879ZM98.8401 151.946L95.5032 151.126L100.224 131.548L103.561 132.369L101.659 140.254L111.321 142.63L113.222 134.744L116.559 135.565L111.839 155.142L108.502 154.322L110.59 145.659L100.929 143.284L98.8401 151.946ZM122.421 139.599C124.617 138.108 127.124 137.71 129.944 138.403C132.763 139.097 134.796 140.611 136.041 142.947C137.318 145.264 137.595 147.924 136.87 150.928C136.146 153.932 134.686 156.179 132.491 157.669C130.328 159.14 127.836 159.528 125.017 158.835C122.197 158.142 120.149 156.637 118.872 154.32C117.626 151.984 117.366 149.314 118.09 146.31C118.815 143.306 120.258 141.069 122.421 139.599ZM121.841 152.746C122.609 154.334 123.911 155.354 125.747 155.805C127.584 156.257 129.192 155.953 130.571 154.893C131.976 153.839 132.937 152.238 133.456 150.088C133.974 147.939 133.849 146.07 133.081 144.483C132.339 142.901 131.05 141.885 129.213 141.433C127.376 140.981 125.756 141.282 124.351 142.336C122.972 143.396 122.023 145.001 121.505 147.15C120.987 149.299 121.098 151.165 121.841 152.746ZM138.398 161.673L143.119 142.096L151.423 144.137C153.414 144.627 154.812 145.478 155.616 146.691C156.452 147.884 156.692 149.218 156.336 150.694C156.08 151.756 155.618 152.589 154.952 153.193C154.286 153.798 153.556 154.153 152.763 154.26C153.658 154.754 154.329 155.495 154.775 156.483C155.248 157.477 155.332 158.608 155.026 159.877C154.632 161.509 153.729 162.699 152.315 163.449C150.927 164.205 149.211 164.331 147.168 163.829L138.398 161.673ZM148.859 155.11L143.776 153.86L142.39 159.609L147.473 160.859C149.852 161.444 151.28 160.753 151.754 158.785C152.204 156.92 151.239 155.695 148.859 155.11ZM150.419 146.935L145.724 145.781L144.46 151.025L149.155 152.179C150.163 152.427 150.996 152.385 151.651 152.053C152.313 151.694 152.744 151.1 152.944 150.272C153.356 148.563 152.514 147.451 150.419 146.935ZM175.198 149.983L178.806 150.87L161.588 175.234L157.979 174.346L162.851 167.438L159.833 146.205L163.441 147.092L165.658 163.808L175.198 149.983ZM180.121 171.932L176.785 171.111L181.505 151.534L184.842 152.355L182.941 160.24L186.666 161.156C187.627 158.759 189.107 156.997 191.105 155.87C193.129 154.749 195.357 154.487 197.789 155.085C200.582 155.772 202.589 157.28 203.808 159.61C205.034 161.914 205.284 164.568 204.56 167.572C203.836 170.576 202.402 172.829 200.258 174.332C198.121 175.809 195.655 176.204 192.862 175.517C190.327 174.894 188.408 173.531 187.107 171.428C185.832 169.331 185.415 166.911 185.858 164.166L182.21 163.27L180.121 171.932ZM189.802 169.457C190.544 171.038 191.807 172.048 193.592 172.487C195.377 172.926 196.946 172.612 198.299 171.546C199.678 170.486 200.627 168.882 201.145 166.732C201.664 164.583 201.552 162.717 200.81 161.136C200.093 159.561 198.843 158.554 197.058 158.115C195.273 157.676 193.691 157.987 192.312 159.047C190.959 160.113 190.023 161.721 189.505 163.87C188.987 166.019 189.086 167.882 189.802 169.457ZM100.573 172.373C102.979 172.964 104.833 174.366 106.135 176.579C107.437 178.792 107.698 181.517 106.918 184.754C106.131 188.017 104.643 190.326 102.453 191.68C100.269 193.008 97.9615 193.374 95.5299 192.776C94.0555 192.413 92.8535 191.83 91.9241 191.025C90.9946 190.22 90.368 189.353 90.0443 188.423L87.6745 198.251L84.3376 197.43L90.8473 170.434L94.0679 171.226L93.3935 174.022C94.1294 173.243 95.1155 172.676 96.3518 172.322C97.5881 171.968 98.9952 171.985 100.573 172.373ZM95.9501 189.67C97.6832 190.096 99.2393 189.779 100.618 188.719C102.023 187.665 102.985 186.064 103.503 183.915C104.021 181.765 103.897 179.897 103.129 178.309C102.386 176.727 101.149 175.724 99.4157 175.297C97.605 174.852 96.0003 175.143 94.6016 176.171C93.2092 177.173 92.2507 178.761 91.7262 180.937L91.6888 181.092C91.1642 183.267 91.2891 185.136 92.0633 186.698C92.8438 188.234 94.1394 189.224 95.9501 189.67ZM123.234 185.392C123.553 184.071 123.383 182.96 122.723 182.057C122.09 181.161 121.114 180.55 119.795 180.226C117.441 179.647 115.731 180.146 114.666 181.722L111.446 180.93C112.169 179.407 113.328 178.293 114.923 177.588C116.55 176.863 118.437 176.765 120.584 177.293C122.886 177.859 124.583 178.948 125.674 180.561C126.771 182.147 127.057 184.028 126.533 186.203L123.404 199.177L120.261 198.404L120.823 196.074C118.905 197.55 116.588 197.954 113.872 197.286C111.932 196.809 110.447 195.868 109.416 194.462C108.417 193.037 108.136 191.418 108.573 189.605C109.029 187.715 110.07 186.407 111.697 185.682C113.33 184.932 115.337 184.849 117.717 185.434L122.916 186.713L123.234 185.392ZM115.002 194.478C116.605 194.872 118.06 194.749 119.365 194.11C120.696 193.477 121.536 192.436 121.886 190.986L122.232 189.548L117.227 188.318C115.856 187.981 114.691 187.982 113.732 188.322C112.799 188.669 112.208 189.36 111.958 190.396C111.714 191.406 111.876 192.269 112.443 192.984C113.011 193.7 113.864 194.198 115.002 194.478ZM142.258 183.075C144.871 183.717 146.806 185.126 148.062 187.3C149.319 189.474 149.573 192.115 148.824 195.223C148.13 198.097 146.699 200.283 144.53 201.779C142.386 203.282 139.918 203.69 137.124 203.003C134.098 202.259 131.942 200.632 130.656 198.121C129.403 195.591 129.229 192.448 130.135 188.694C131.309 183.825 132.907 180.378 134.93 178.352C136.979 176.332 139.74 175.392 143.214 175.533L151.436 175.868L150.658 179.092L143.2 178.657C140.934 178.511 139.133 178.932 137.799 179.921C136.464 180.91 135.422 182.505 134.672 184.707C136.703 182.875 139.232 182.331 142.258 183.075ZM137.7 199.935C139.51 200.38 141.115 200.089 142.514 199.061C143.944 198.014 144.91 196.455 145.409 194.383C145.902 192.337 145.749 190.53 144.949 188.962C144.175 187.4 142.895 186.4 141.11 185.961C139.325 185.522 137.691 185.765 136.208 186.689C134.757 187.594 133.775 189.109 133.263 191.232C132.732 193.433 132.867 195.318 133.667 196.886C134.493 198.461 135.837 199.477 137.7 199.935ZM155.902 189.022C158.097 187.532 160.605 187.133 163.424 187.827C166.244 188.52 168.276 190.035 169.522 192.371C170.799 194.687 171.075 197.348 170.351 200.351C169.627 203.355 168.167 205.602 165.972 207.093C163.809 208.563 161.317 208.952 158.498 208.259C155.678 207.565 153.63 206.06 152.352 203.744C151.107 201.408 150.847 198.738 151.571 195.734C152.295 192.73 153.739 190.493 155.902 189.022ZM155.321 202.17C156.089 203.757 157.392 204.777 159.228 205.229C161.065 205.68 162.673 205.376 164.052 204.316C165.457 203.263 166.418 201.661 166.936 199.512C167.455 197.363 167.33 195.494 166.562 193.906C165.82 192.325 164.53 191.308 162.694 190.856C160.857 190.405 159.237 190.706 157.832 191.759C156.453 192.819 155.504 194.424 154.986 196.573C154.467 198.723 154.579 200.588 155.321 202.17ZM173.225 193.857L173.946 190.866L190.437 194.921L189.716 197.912L183.119 196.29L179.12 212.877L175.783 212.056L179.783 195.47L173.225 193.857ZM206.86 198.959L210.468 199.847L193.25 224.21L189.641 223.323L194.513 216.415L191.495 195.181L195.103 196.069L197.32 212.784L206.86 198.959Z" fill="white"/>
</g>
<path fill-rule="evenodd" clip-rule="evenodd" d="M335.307 141.727C351.552 145.594 361.586 161.897 357.719 178.142L340.258 251.497C336.391 267.741 320.087 277.775 303.843 273.909L203.333 249.983C203.174 249.945 203.049 250.118 203.134 250.257V250.257C203.187 250.343 203.161 250.456 203.075 250.509L183.856 262.337C181.757 263.629 179.009 262.975 177.718 260.876L165.889 241.657C165.836 241.571 165.863 241.459 165.949 241.406V241.406C166.088 241.32 166.054 241.109 165.896 241.072L65.5432 217.184C49.2986 213.317 39.2644 197.013 43.1313 180.768L60.5927 107.414C64.4596 91.1692 80.7632 81.135 97.0078 85.0019L335.307 141.727Z" fill="#C2F3E0"/>
<path fill-rule="evenodd" clip-rule="evenodd" d="M335.307 141.727C351.552 145.594 361.586 161.897 357.719 178.142L340.258 251.497C336.391 267.741 320.087 277.775 303.843 273.909L203.333 249.983C203.174 249.945 203.049 250.118 203.134 250.257V250.257C203.187 250.343 203.161 250.456 203.075 250.509L183.856 262.337C181.757 263.629 179.009 262.975 177.718 260.876L165.889 241.657C165.836 241.571 165.863 241.459 165.949 241.406V241.406C166.088 241.32 166.054 241.109 165.896 241.072L65.5432 217.184C49.2986 213.317 39.2644 197.013 43.1313 180.768L60.5927 107.414C64.4596 91.1692 80.7632 81.135 97.0078 85.0019L335.307 141.727Z" fill="url(#paint3_linear_109_10309)" fill-opacity="0.43"/>
<path fill-rule="evenodd" clip-rule="evenodd" d="M335.307 141.727C351.552 145.594 361.586 161.897 357.719 178.142L340.258 251.497C336.391 267.741 320.087 277.775 303.843 273.909L203.333 249.983C203.174 249.945 203.049 250.118 203.134 250.257V250.257C203.187 250.343 203.161 250.456 203.075 250.509L183.856 262.337C181.757 263.629 179.009 262.975 177.718 260.876L165.889 241.657C165.836 241.571 165.863 241.459 165.949 241.406V241.406C166.088 241.32 166.054 241.109 165.896 241.072L65.5432 217.184C49.2986 213.317 39.2644 197.013 43.1313 180.768L60.5927 107.414C64.4596 91.1692 80.7632 81.135 97.0078 85.0019L335.307 141.727Z" fill="url(#paint4_linear_109_10309)" fill-opacity="0.6"/>
<path fill-rule="evenodd" clip-rule="evenodd" d="M335.307 141.727C351.552 145.594 361.586 161.897 357.719 178.142L340.258 251.497C336.391 267.741 320.087 277.775 303.843 273.909L203.333 249.983C203.174 249.945 203.049 250.118 203.134 250.257V250.257C203.187 250.343 203.161 250.456 203.075 250.509L183.856 262.337C181.757 263.629 179.009 262.975 177.718 260.876L165.889 241.657C165.836 241.571 165.863 241.459 165.949 241.406V241.406C166.088 241.32 166.054 241.109 165.896 241.072L65.5432 217.184C49.2986 213.317 39.2644 197.013 43.1313 180.768L60.5927 107.414C64.4596 91.1692 80.7632 81.135 97.0078 85.0019L335.307 141.727Z" fill="url(#paint5_linear_109_10309)" fill-opacity="0.2"/>
<path d="M81.0599 141.359L87.6815 114.02L97.8118 116.497C100.374 117.124 102.216 118.287 103.339 119.988C104.468 121.662 104.785 123.522 104.29 125.568C103.913 127.121 103.251 128.33 102.301 129.195C101.358 130.034 100.348 130.527 99.2703 130.675C100.379 131.303 101.264 132.287 101.926 133.628C102.614 134.975 102.739 136.555 102.3 138.367C101.741 140.672 100.475 142.336 98.4999 143.362C96.5248 144.387 94.1659 144.564 91.4231 143.894L81.0599 141.359ZM94.4223 131.341L87.5135 129.651L85.2279 139.088L91.9427 140.73C93.6763 141.154 95.161 141.078 96.3967 140.503C97.6324 139.927 98.4289 138.902 98.7864 137.426C99.1375 135.976 98.912 134.701 98.1097 133.6C97.3334 132.505 96.1042 131.752 94.4223 131.341ZM96.6324 119.5L90.3446 117.962L88.2566 126.583L94.7772 128.178C96.3557 128.564 97.6561 128.457 98.6785 127.857C99.7268 127.263 100.405 126.332 100.712 125.063C101.038 123.717 100.839 122.558 100.115 121.585C99.3976 120.587 98.2367 119.892 96.6324 119.5ZM112.495 128.315L110.962 134.645L115.348 135.717C117.392 136.217 118.898 137.243 119.864 138.796C120.838 140.323 121.092 142.044 120.628 143.96C120.158 145.902 119.135 147.352 117.56 148.31C115.991 149.243 114.172 149.456 112.102 148.95L104.417 147.071L109.157 127.498L112.495 128.315ZM129.922 132.576L125.182 152.149L121.844 151.332L126.584 131.76L129.922 132.576ZM114.206 138.564L110.247 137.596L108.469 144.936L112.428 145.904C113.67 146.208 114.725 146.095 115.593 145.567C116.461 145.039 117.027 144.231 117.29 143.144C117.554 142.056 117.414 141.104 116.872 140.286C116.337 139.442 115.448 138.868 114.206 138.564ZM142.476 156.378L139.033 147.679L132.113 153.843L128.27 152.904L137.588 144.817L133.088 133.35L137.008 134.309L140.355 143.066L147.216 136.805L151.059 137.745L141.791 145.968L146.396 157.336L142.476 156.378ZM154.121 141.085C156.319 139.593 158.828 139.192 161.648 139.882C164.469 140.571 166.501 142.083 167.745 144.416C169.021 146.73 169.295 149.389 168.568 152.392C167.84 155.395 166.378 157.643 164.18 159.135C162.015 160.607 159.522 160.998 156.701 160.309C153.881 159.619 151.832 158.117 150.556 155.803C149.313 153.47 149.055 150.801 149.782 147.798C150.509 144.795 151.956 142.557 154.121 141.085ZM153.528 154.226C154.295 155.813 155.598 156.83 157.435 157.28C159.272 157.729 160.881 157.423 162.262 156.362C163.668 155.307 164.632 153.706 165.152 151.557C165.673 149.408 165.549 147.54 164.782 145.954C164.041 144.375 162.752 143.36 160.915 142.911C159.078 142.462 157.456 142.764 156.049 143.819C154.669 144.88 153.718 146.485 153.197 148.634C152.677 150.782 152.787 152.647 153.528 154.226ZM189.848 164.753L187.91 172.753L184.689 171.965L185.893 166.994L170.639 163.264L169.435 168.235L166.213 167.447L168.151 159.447L169.781 159.846C171.225 159.431 172.556 157.385 173.776 153.707L176.932 144.071L190.982 147.507L186.976 164.051L189.848 164.753ZM176.979 154.572C176.593 155.712 176.286 156.583 176.058 157.185C175.83 157.788 175.489 158.458 175.036 159.198C174.589 159.911 174.118 160.441 173.624 160.786L183.638 163.234L186.92 149.681L179.196 147.793L176.979 154.572ZM203.484 171.296L200.147 170.48L204.887 150.907L208.225 151.724L206.316 159.607L215.98 161.97L217.89 154.087L221.228 154.903L216.487 174.476L213.149 173.659L215.247 164.999L205.582 162.636L203.484 171.296ZM236.368 165.598C236.688 164.278 236.519 163.167 235.86 162.266C235.227 161.37 234.251 160.762 232.931 160.439C230.577 159.863 228.866 160.363 227.799 161.94L224.577 161.152C225.302 159.629 226.463 158.514 228.059 157.808C229.688 157.082 231.576 156.981 233.724 157.506C236.027 158.07 237.723 159.156 238.813 160.767C239.91 162.351 240.194 164.23 239.668 166.405L236.526 179.376L233.382 178.607L233.947 176.277C232.026 177.754 229.708 178.161 226.991 177.497C225.05 177.022 223.565 176.083 222.534 174.679C221.536 173.256 221.256 171.638 221.695 169.826C222.153 167.936 223.196 166.628 224.825 165.902C226.459 165.15 228.467 165.065 230.848 165.647L236.049 166.919L236.368 165.598ZM228.123 174.688C229.728 175.081 231.183 174.957 232.489 174.316C233.821 173.682 234.663 172.64 235.014 171.191L235.362 169.754L230.355 168.529C228.984 168.194 227.818 168.197 226.858 168.538C225.925 168.886 225.332 169.577 225.081 170.613C224.837 171.622 224.998 172.485 225.565 173.199C226.132 173.914 226.985 174.41 228.123 174.688ZM74.4774 180.928L71.1395 180.112L75.88 160.54L79.2179 161.356L77.3086 169.239L86.9731 171.602L88.8825 163.719L92.2205 164.535L87.48 184.108L84.142 183.292L86.2395 174.632L76.5749 172.268L74.4774 180.928ZM98.0822 168.56C100.28 167.068 102.789 166.667 105.609 167.357C108.43 168.047 110.462 169.558 111.706 171.892C112.982 174.205 113.256 176.864 112.529 179.867C111.801 182.87 110.339 185.118 108.141 186.61C105.975 188.082 103.482 188.473 100.662 187.784C97.8415 187.094 95.7933 185.592 94.5174 183.278C93.2736 180.945 93.0154 178.277 93.7428 175.273C94.4702 172.27 95.9166 170.032 98.0822 168.56ZM97.4894 181.702C98.2564 183.288 99.5584 184.305 101.396 184.755C103.233 185.204 104.842 184.898 106.222 183.837C107.629 182.782 108.593 181.181 109.113 179.032C109.633 176.883 109.51 175.016 108.743 173.429C108.002 171.85 106.713 170.835 104.876 170.386C103.039 169.937 101.417 170.239 100.01 171.294C98.6294 172.355 97.6788 173.96 97.1584 176.109C96.6379 178.257 96.7483 180.122 97.4894 181.702ZM114.048 190.605L118.789 171.032L127.095 173.063C129.087 173.55 130.485 174.399 131.288 175.611C132.123 176.802 132.362 178.136 132.005 179.611C131.747 180.673 131.285 181.506 130.618 182.11C129.951 182.715 129.221 183.071 128.427 183.179C129.322 183.672 129.992 184.412 130.438 185.398C130.911 186.391 130.993 187.522 130.686 188.791C130.291 190.422 129.386 191.613 127.97 192.364C126.581 193.121 124.864 193.249 122.82 192.75L114.048 190.605ZM124.52 184.033L119.435 182.79L118.043 188.538L123.128 189.781C125.508 190.363 126.937 189.67 127.414 187.703C127.865 185.839 126.901 184.616 124.52 184.033ZM126.088 175.861L121.392 174.713L120.122 179.955L124.818 181.104C125.828 181.35 126.66 181.307 127.317 180.974C127.979 180.615 128.411 180.021 128.611 179.193C129.025 177.484 128.184 176.373 126.088 175.861ZM150.877 178.879L154.487 179.761L137.238 204.132L133.628 203.249L138.508 196.339L135.507 175.12L139.117 176.003L141.32 192.708L150.877 178.879ZM155.784 200.81L152.446 199.994L157.187 180.422L160.525 181.238L158.615 189.121L162.341 190.032C163.306 187.636 164.788 185.873 166.788 184.744C168.814 183.621 171.043 183.357 173.475 183.952C176.27 184.636 178.276 186.141 179.494 188.468C180.718 190.769 180.967 193.421 180.239 196.425C179.512 199.428 178.075 201.682 175.929 203.186C173.79 204.665 171.323 205.062 168.528 204.379C165.992 203.759 164.074 202.399 162.774 200.298C161.5 198.204 161.085 195.786 161.53 193.042L157.882 192.15L155.784 200.81ZM165.472 198.325C166.213 199.905 167.476 200.913 169.262 201.35C171.047 201.787 172.617 201.471 173.972 200.404C175.353 199.343 176.303 197.738 176.824 195.589C177.344 193.441 177.234 191.576 176.493 189.996C175.778 188.423 174.527 187.418 172.742 186.981C170.956 186.545 169.373 186.857 167.993 187.918C166.638 188.985 165.7 190.593 165.18 192.742C164.659 194.891 164.757 196.752 165.472 198.325ZM203.987 191.413C206.394 192.002 208.248 193.401 209.549 195.612C210.85 197.822 211.108 200.545 210.324 203.781C209.534 207.043 208.043 209.352 205.851 210.709C203.665 212.039 201.356 212.407 198.924 211.812C197.449 211.451 196.247 210.869 195.317 210.066C194.388 209.263 193.762 208.397 193.439 207.468L191.059 217.293L187.721 216.477L194.258 189.487L197.48 190.275L196.803 193.071C197.54 192.291 198.527 191.723 199.764 191.368C201.001 191.012 202.409 191.027 203.987 191.413ZM199.347 208.707C201.08 209.131 202.638 208.812 204.018 207.751C205.425 206.697 206.388 205.095 206.909 202.946C207.429 200.797 207.306 198.93 206.539 197.344C205.798 195.764 204.561 194.762 202.827 194.338C201.016 193.895 199.41 194.188 198.009 195.217C196.615 196.22 195.655 197.808 195.128 199.983L195.091 200.138C194.564 202.313 194.687 204.181 195.461 205.741C196.24 207.275 197.535 208.264 199.347 208.707ZM226.649 204.4C226.969 203.08 226.8 201.969 226.141 201.067C225.508 200.172 224.532 199.563 223.212 199.241C220.858 198.665 219.147 199.165 218.08 200.742L214.858 199.954C215.583 198.431 216.744 197.316 218.34 196.61C219.969 195.884 221.857 195.783 224.005 196.308C226.308 196.871 228.004 197.958 229.094 199.568C230.19 201.153 230.475 203.032 229.949 205.207L226.807 218.178L223.663 217.409L224.227 215.079C222.307 216.556 219.989 216.963 217.272 216.298C215.331 215.824 213.846 214.885 212.815 213.481C211.817 212.058 211.537 210.44 211.976 208.628C212.434 206.738 213.477 205.43 215.106 204.704C216.74 203.952 218.748 203.867 221.129 204.449L226.33 205.721L226.649 204.4ZM218.404 213.49C220.009 213.883 221.464 213.759 222.77 213.118C224.102 212.484 224.944 211.442 225.295 209.992L225.643 208.556L220.636 207.331C219.265 206.996 218.099 206.999 217.139 207.34C216.206 207.687 215.613 208.379 215.362 209.415C215.118 210.424 215.279 211.286 215.846 212.001C216.413 212.715 217.266 213.212 218.404 213.49ZM245.685 202.062C248.299 202.701 250.233 204.107 251.489 206.279C252.744 208.45 252.996 211.09 252.243 214.196C251.547 217.07 250.113 219.256 247.942 220.754C245.796 222.259 243.325 222.669 240.531 221.986C237.503 221.246 235.348 219.622 234.064 217.114C232.812 214.587 232.641 211.446 233.55 207.692C234.729 202.825 236.332 199.377 238.358 197.35C240.409 195.329 243.173 194.387 246.648 194.523L254.874 194.848L254.093 198.072L246.632 197.646C244.364 197.502 242.562 197.926 241.226 198.915C239.89 199.905 238.846 201.5 238.093 203.702C240.127 201.869 242.658 201.322 245.685 202.062ZM241.109 218.919C242.921 219.362 244.526 219.069 245.927 218.04C247.359 216.992 248.326 215.432 248.828 213.361C249.323 211.316 249.171 209.51 248.372 207.943C247.599 206.383 246.32 205.385 244.534 204.948C242.749 204.512 241.113 204.756 239.629 205.682C238.176 206.588 237.192 208.103 236.678 210.226C236.145 212.426 236.278 214.31 237.077 215.876C237.902 217.449 239.246 218.463 241.109 218.919ZM259.331 207.991C261.529 206.499 264.038 206.098 266.858 206.787C269.679 207.477 271.711 208.989 272.955 211.322C274.231 213.636 274.505 216.294 273.778 219.298C273.05 222.301 271.588 224.548 269.39 226.04C267.225 227.513 264.732 227.904 261.911 227.214C259.091 226.525 257.042 225.023 255.766 222.709C254.523 220.375 254.265 217.707 254.992 214.704C255.719 211.701 257.166 209.463 259.331 207.991ZM258.738 221.132C259.505 222.718 260.808 223.736 262.645 224.185C264.482 224.634 266.091 224.329 267.472 223.268C268.878 222.213 269.842 220.611 270.362 218.462C270.883 216.314 270.759 214.446 269.992 212.86C269.251 211.28 267.962 210.266 266.125 209.816C264.288 209.367 262.666 209.67 261.259 210.724C259.879 211.785 258.928 213.39 258.407 215.539C257.887 217.688 257.997 219.552 258.738 221.132ZM276.659 212.804L277.383 209.813L293.879 213.847L293.155 216.837L286.556 215.224L282.54 231.806L279.202 230.99L283.219 214.408L276.659 212.804ZM310.307 217.864L313.917 218.747L296.667 243.117L293.058 242.235L297.938 235.325L294.937 214.106L298.547 214.989L300.75 231.693L310.307 217.864Z" fill="white"/>
<defs>
<filter id="filter0_f_109_10309" x="0.337402" y="0.894043" width="491.306" height="358.584" filterUnits="userSpaceOnUse" color-interpolation-filters="sRGB">
<feFlood flood-opacity="0" result="BackgroundImageFix"/>
<feBlend mode="normal" in="SourceGraphic" in2="BackgroundImageFix" result="shape"/>
<feGaussianBlur stdDeviation="42" result="effect1_foregroundBlur_109_10309"/>
</filter>
<filter id="filter1_b_109_10309" x="83.0618" y="30.9334" width="392.821" height="312.784" filterUnits="userSpaceOnUse" color-interpolation-filters="sRGB">
<feFlood flood-opacity="0" result="BackgroundImageFix"/>
<feGaussianBlur in="BackgroundImageFix" stdDeviation="34.1197"/>
<feComposite in2="SourceAlpha" operator="in" result="effect1_backgroundBlur_109_10309"/>
<feBlend mode="normal" in="SourceGraphic" in2="effect1_backgroundBlur_109_10309" result="shape"/>
</filter>
<linearGradient id="paint0_linear_109_10309" x1="207.272" y1="121.98" x2="186.316" y2="229.267" gradientUnits="userSpaceOnUse">
<stop stop-color="#43FF24"/>
<stop offset="1" stop-color="#A524FF" stop-opacity="0"/>
</linearGradient>
<linearGradient id="paint1_linear_109_10309" x1="262.396" y1="44.9956" x2="183.705" y2="152.109" gradientUnits="userSpaceOnUse">
<stop stop-color="#C5FF1F"/>
<stop offset="1" stop-color="#04F046"/>
</linearGradient>
<linearGradient id="paint2_linear_109_10309" x1="143.822" y1="199.019" x2="242.809" y2="194.795" gradientUnits="userSpaceOnUse">
<stop stop-color="#FFF500"/>
<stop offset="1" stop-color="#FF6B00" stop-opacity="0"/>
</linearGradient>
<linearGradient id="paint3_linear_109_10309" x1="196.201" y1="153.876" x2="174.257" y2="261.612" gradientUnits="userSpaceOnUse">
<stop stop-color="#43FF24"/>
<stop offset="1" stop-color="#A524FF" stop-opacity="0"/>
</linearGradient>
<linearGradient id="paint4_linear_109_10309" x1="260.231" y1="78.5161" x2="187.151" y2="194.865" gradientUnits="userSpaceOnUse">
<stop stop-color="#C5FF1F"/>
<stop offset="1" stop-color="#04F046"/>
</linearGradient>
<linearGradient id="paint5_linear_109_10309" x1="121.857" y1="228.829" x2="242.799" y2="215.975" gradientUnits="userSpaceOnUse">
<stop stop-color="#FFF500"/>
<stop offset="1" stop-color="#FF6B00" stop-opacity="0"/>
</linearGradient>
</defs>
</svg>
