<svg width="375" height="227" viewBox="0 0 375 227" fill="none" xmlns="http://www.w3.org/2000/svg">
<path fill-rule="evenodd" clip-rule="evenodd" d="M354 32.1116C354 16.9741 354 9.40528 349.297 4.70264C344.595 0 337.026 0 321.888 0H53.1116C37.9741 0 30.4053 0 25.7026 4.70264C21 9.40528 21 16.9741 21 32.1116V60C21 63.3137 23.6863 66 27 66C30.3137 66 33 68.6863 33 72V118C33 121.866 36.134 125 40 125C43.866 125 47 128.134 47 132V165C47 168.314 49.6863 171 53 171C56.3137 171 59 173.686 59 177V199C59 210.182 59 215.773 61.6634 219.8C62.8549 221.602 64.3978 223.145 66.1996 224.337C70.2272 227 75.8181 227 87 227H288C299.182 227 304.773 227 308.8 224.337C310.602 223.145 312.145 221.602 313.337 219.8C316 215.773 316 210.182 316 199V177C316 173.686 318.686 171 322 171C325.314 171 328 168.314 328 165V132C328 128.134 331.134 125 335 125C338.866 125 342 121.866 342 118V72C342 68.6863 344.686 66 348 66C351.314 66 354 63.3137 354 60V32.1116Z" fill="white"/>
<path d="M44.9969 13.6065L79.1009 13.6065L79.1009 54.4385L70.2269 54.4385L70.2269 21.4945L53.8709 21.4945L53.8709 54.4385L44.9969 54.4385L44.9969 13.6065ZM97.0999 23.7565C105.974 23.7565 112.18 30.0205 112.18 39.4745C112.18 48.9285 105.974 55.1345 97.0999 55.1345C88.1679 55.1345 81.9619 48.9285 81.9619 39.4745C81.9619 30.0205 88.1679 23.7565 97.0999 23.7565ZM90.4299 39.4745C90.4299 44.3465 92.9239 47.8265 97.0999 47.8265C101.218 47.8265 103.712 44.3465 103.712 39.4745C103.712 34.5445 101.218 31.0645 97.0999 31.0645C92.9239 31.0645 90.4299 34.5445 90.4299 39.4745ZM111.435 31.7605L111.435 24.4525L137.883 24.4525L137.883 31.7605L128.893 31.7605L128.893 54.4385L120.425 54.4385L120.425 31.7605L111.435 31.7605ZM152.275 23.7565C161.149 23.7565 167.355 30.0205 167.355 39.4745C167.355 48.9285 161.149 55.1345 152.275 55.1345C143.343 55.1345 137.137 48.9285 137.137 39.4745C137.137 30.0205 143.343 23.7565 152.275 23.7565ZM145.605 39.4745C145.605 44.3465 148.099 47.8265 152.275 47.8265C156.393 47.8265 158.887 44.3465 158.887 39.4745C158.887 34.5445 156.393 31.0645 152.275 31.0645C148.099 31.0645 145.605 34.5445 145.605 39.4745ZM169.548 24.4525L180.394 24.4525L188.456 43.7665L196.518 24.4525L207.132 24.4525L207.132 54.4385L199.07 54.4385L199.07 35.3565L191.182 54.2065L185.498 54.2065L177.61 35.4725L177.61 54.4385L169.548 54.4385L169.548 24.4525ZM229.95 24.4525L238.998 24.4525L223.222 65.5165L214.232 65.5165L218.756 53.6265L207.562 24.4525L216.668 24.4525L223.338 43.7085L229.95 24.4525ZM265.773 24.4525L274.241 24.4525L274.241 54.4385L265.773 54.4385L265.773 43.1285C264.033 43.9985 261.771 44.5785 259.045 44.5785C252.839 44.5785 247.619 40.9245 247.619 32.5145L247.619 24.4525L256.029 24.4525L256.029 31.6445C256.029 35.4725 258.059 37.3285 261.597 37.3285C263.221 37.3285 264.613 36.9805 265.773 36.4005L265.773 24.4525ZM275.939 31.7605L275.939 24.4525L302.387 24.4525L302.387 31.7605L293.397 31.7605L293.397 54.4385L284.929 54.4385L284.929 31.7605L275.939 31.7605ZM316.779 23.7565C325.653 23.7565 331.859 30.0205 331.859 39.4745C331.859 48.9285 325.653 55.1345 316.779 55.1345C307.847 55.1345 301.641 48.9285 301.641 39.4745C301.641 30.0205 307.847 23.7565 316.779 23.7565ZM310.109 39.4745C310.109 44.3465 312.603 47.8265 316.779 47.8265C320.897 47.8265 323.391 44.3465 323.391 39.4745C323.391 34.5445 320.897 31.0645 316.779 31.0645C312.603 31.0645 310.109 34.5445 310.109 39.4745ZM56.8198 106.438L56.8198 76.4525L71.0878 76.4525C78.0478 76.4525 81.4698 79.7585 81.4698 84.2245C81.4698 87.6465 79.4398 89.7925 77.0618 90.6625C79.9618 91.4745 82.5718 93.7945 82.5718 97.9125C82.5718 102.726 78.8018 106.438 71.4358 106.438L56.8198 106.438ZM65.1138 100.464L70.3918 100.464C72.8278 100.464 74.1618 99.2465 74.1618 97.2165C74.1618 95.1865 72.8278 94.0845 70.3918 94.0845L65.1138 94.0845L65.1138 100.464ZM65.1138 88.2845L69.8118 88.2845C71.9578 88.2845 73.1758 87.1245 73.1758 85.3265C73.1758 83.4705 72.0158 82.4265 69.8118 82.4265L65.1138 82.4265L65.1138 88.2845ZM121.257 76.4525L121.257 106.438L112.963 106.438L112.963 76.4525L121.257 76.4525ZM84.7754 106.438L84.7754 76.4525L93.1274 76.4525L93.1274 84.9785L98.2894 84.9785C105.423 84.9785 109.773 89.5025 109.773 95.6505C109.773 101.798 105.365 106.438 98.2894 106.438L84.7754 106.438ZM93.1274 99.6525L97.2454 99.6525C99.8554 99.6525 101.479 97.9125 101.479 95.6505C101.479 93.3305 99.8554 91.7645 97.2454 91.7645L93.1274 91.7645L93.1274 99.6525ZM147.456 99.8265C150.936 99.8265 152.502 97.6805 153.024 95.6505L161.086 95.6505C160.564 102.146 155.402 107.134 147.398 107.134C138.234 107.134 132.492 100.522 132.492 91.4745C132.492 82.4845 138.234 75.7565 147.398 75.7565C155.692 75.7565 160.39 81.1505 161.028 87.1825L152.908 87.1825C152.328 85.2685 150.704 83.0645 147.398 83.0645C143.454 83.0645 140.96 86.4285 140.96 91.4745C140.96 96.5785 143.512 99.8265 147.456 99.8265ZM180.597 106.438L172.129 106.438L172.129 76.4525L180.597 76.4525L180.597 87.4145L191.211 87.4145L191.211 76.4525L199.679 76.4525L199.679 106.438L191.211 106.438L191.211 94.7225L180.597 94.7225L180.597 106.438ZM220.651 86.5445C220.651 83.7605 218.563 82.3105 215.721 82.3105C212.821 82.3105 211.313 83.6445 210.849 85.2105L202.961 85.2105C203.773 80.0485 208.239 75.7565 216.069 75.7565C223.783 75.7565 228.945 79.5265 228.945 86.8345L228.945 106.438L221.115 106.438L221.115 103.19C219.259 105.626 216.127 107.134 212.241 107.134C206.441 107.134 201.801 103.654 201.801 97.6225C201.801 91.4745 206.441 87.9365 214.097 87.9365L220.651 87.9365L220.651 86.5445ZM210.269 97.2165C210.269 99.3045 211.951 100.58 214.561 100.58C217.809 100.58 220.651 98.6085 220.651 95.1285L220.651 93.7945L214.735 93.7945C212.125 93.7945 210.269 95.0705 210.269 97.2165ZM232.458 76.4525L243.304 76.4525L251.366 95.7665L259.428 76.4525L270.042 76.4525L270.042 106.438L261.98 106.438L261.98 87.3565L254.092 106.206L248.408 106.206L240.52 87.4725L240.52 106.438L232.458 106.438L232.458 76.4525ZM301.792 76.4525L301.792 106.438L293.498 106.438L293.498 88.9225L281.898 106.438L273.894 106.438L273.894 76.4525L282.188 76.4525L282.188 93.8525L293.788 76.4525L301.792 76.4525ZM307.906 92.9245L307.268 65.6065L316.026 65.6065L315.388 92.9245L307.906 92.9245ZM306.572 102.088C306.572 99.2465 308.834 97.0425 311.734 97.0425C314.576 97.0425 316.78 99.2465 316.78 102.088C316.78 104.93 314.576 107.134 311.734 107.134C308.834 107.134 306.572 104.93 306.572 102.088ZM64.9222 146.432L64.9222 138.776L93.9222 138.776L93.9222 146.432L64.9222 146.432ZM114.164 129.612C114.164 126.654 111.844 124.566 108.48 124.566C104.884 124.566 102.738 126.596 102.216 129.496L93.6902 129.496C94.3282 122.304 99.8382 116.91 108.654 116.91C117.702 116.91 123.038 122.42 123.038 129.322C123.038 135.064 119.79 138.66 115.73 142.198L105.87 150.782L123.734 150.782L123.734 158.438L93.9802 158.438L93.9802 151.246L109.408 137.326C112.366 134.658 114.164 132.628 114.164 129.612ZM142.004 151.536C145.89 151.536 148.558 148.868 148.558 144.924C148.558 140.922 145.542 138.486 142.062 138.486C139.336 138.486 137.074 139.588 135.682 141.792L126.982 141.792L128.954 117.606L155.054 117.606L155.054 125.262L136.378 125.262L135.508 135.064C137.306 132.976 140.322 131.468 144.266 131.468C151.052 131.468 157.432 135.992 157.432 144.75C157.432 153.856 150.646 159.134 142.178 159.134C133.478 159.134 127.446 153.972 126.692 147.128L135.45 147.128C135.972 149.216 138.176 151.536 142.004 151.536ZM185.186 116.91C195.278 116.91 201.716 125.436 201.716 138.022C201.716 150.608 195.278 159.134 185.186 159.134C175.094 159.134 168.656 150.608 168.656 138.022C168.656 125.436 175.094 116.91 185.186 116.91ZM177.53 138.022C177.53 145.62 179.966 151.42 185.186 151.42C190.406 151.42 192.9 145.62 192.9 138.022C192.9 130.424 190.406 124.624 185.186 124.624C179.966 124.624 177.53 130.424 177.53 138.022ZM220.562 116.91C230.654 116.91 237.092 125.436 237.092 138.022C237.092 150.608 230.654 159.134 220.562 159.134C210.47 159.134 204.032 150.608 204.032 138.022C204.032 125.436 210.47 116.91 220.562 116.91ZM212.906 138.022C212.906 145.62 215.342 151.42 220.562 151.42C225.782 151.42 228.276 145.62 228.276 138.022C228.276 130.424 225.782 124.624 220.562 124.624C215.342 124.624 212.906 130.424 212.906 138.022ZM255.937 116.91C266.029 116.91 272.467 125.436 272.467 138.022C272.467 150.608 266.029 159.134 255.937 159.134C245.845 159.134 239.407 150.608 239.407 138.022C239.407 125.436 245.845 116.91 255.937 116.91ZM248.281 138.022C248.281 145.62 250.717 151.42 255.937 151.42C261.157 151.42 263.651 145.62 263.651 138.022C263.651 130.424 261.157 124.624 255.937 124.624C250.717 124.624 248.281 130.424 248.281 138.022ZM293.807 117.606C302.391 117.606 307.553 122.768 307.553 130.134C307.553 137.5 302.391 142.546 294.213 142.546L287.543 142.546L287.543 146.548L299.027 146.548L299.027 152.29L287.543 152.29L287.543 158.438L279.017 158.438L279.017 152.29L273.449 152.29L273.449 146.548L279.017 146.548L279.017 142.546L273.449 142.546L273.449 136.166L279.017 136.166L279.017 117.606L293.807 117.606ZM287.543 135.876L292.763 135.876C296.707 135.876 298.911 133.556 298.911 130.25C298.911 126.944 296.765 124.682 292.763 124.682L287.543 124.682L287.543 135.876ZM81.7295 210.439L73.2615 210.439L73.2615 180.452L81.7295 180.452L81.7295 191.414L92.3435 191.414L92.3435 180.452L100.811 180.452L100.811 210.439L92.3435 210.439L92.3435 198.722L81.7295 198.722L81.7295 210.439ZM121.783 190.544C121.783 187.76 119.695 186.31 116.853 186.31C113.953 186.31 112.445 187.644 111.981 189.21L104.093 189.21C104.905 184.048 109.371 179.756 117.201 179.756C124.915 179.756 130.077 183.526 130.077 190.834L130.077 210.439L122.247 210.439L122.247 207.191C120.391 209.627 117.259 211.135 113.373 211.135C107.573 211.135 102.933 207.655 102.933 201.622C102.933 195.474 107.573 191.936 115.229 191.936L121.783 191.936L121.783 190.544ZM111.401 201.216C111.401 203.304 113.083 204.58 115.693 204.58C118.941 204.58 121.783 202.608 121.783 199.128L121.783 197.794L115.867 197.794C113.257 197.794 111.401 199.07 111.401 201.216ZM152.14 210.439L143.266 210.439L143.266 169.606L152.14 169.606L152.14 185.556L168.67 185.556L168.67 169.606L177.544 169.606L177.544 210.439L168.67 210.439L168.67 193.502L152.14 193.502L152.14 210.439ZM180.401 195.59C180.401 185.788 186.375 179.756 195.075 179.756C203.659 179.756 209.169 185.672 209.169 194.952L209.169 197.852L188.927 197.852L188.927 197.968C188.927 201.622 191.653 204.464 195.713 204.464C198.613 204.464 200.295 203.014 200.701 201.854L208.879 201.854C208.067 206.031 204.065 211.135 195.539 211.135C186.433 211.135 180.401 205.334 180.401 195.59ZM188.985 191.936L200.933 191.936C200.701 188.514 198.497 186.368 195.133 186.368C191.769 186.368 189.449 188.456 188.985 191.936ZM219.865 168.272L219.865 210.439L211.397 210.439L211.397 168.272L219.865 168.272ZM240.597 179.756C247.731 179.756 253.589 185.44 253.589 195.474C253.589 205.334 247.731 211.135 240.365 211.135C236.537 211.135 233.695 209.627 232.187 207.539L232.187 221.517L223.719 221.517L223.719 180.452L231.839 180.452L231.839 183.932C233.347 181.67 236.189 179.756 240.597 179.756ZM232.013 195.59C232.013 200.636 234.623 203.826 238.567 203.826C242.511 203.826 245.063 200.578 245.063 195.474C245.063 190.37 242.511 187.064 238.567 187.064C234.623 187.064 232.013 190.312 232.013 195.358L232.013 195.59ZM254.186 195.59C254.186 185.788 260.16 179.756 268.86 179.756C277.444 179.756 282.954 185.672 282.954 194.952L282.954 197.852L262.712 197.852L262.712 197.968C262.712 201.622 265.438 204.464 269.498 204.464C272.398 204.464 274.08 203.014 274.486 201.854L282.664 201.854C281.852 206.031 277.85 211.135 269.324 211.135C260.218 211.135 254.186 205.334 254.186 195.59ZM262.77 191.936L274.718 191.936C274.486 188.514 272.282 186.368 268.918 186.368C265.554 186.368 263.234 188.456 262.77 191.936ZM302.001 180.336L303.509 180.336L303.509 188.34L301.537 188.34C296.433 188.34 293.649 190.95 293.649 195.242L293.649 210.439L285.181 210.439L285.181 180.452L293.301 180.452L293.301 185.092C295.273 181.612 298.579 180.336 302.001 180.336Z" fill="url(#paint0_linear_12_23037)"/>
<path d="M44.9969 13.6065L79.1009 13.6065L79.1009 54.4385L70.2269 54.4385L70.2269 21.4945L53.8709 21.4945L53.8709 54.4385L44.9969 54.4385L44.9969 13.6065ZM97.0999 23.7565C105.974 23.7565 112.18 30.0205 112.18 39.4745C112.18 48.9285 105.974 55.1345 97.0999 55.1345C88.1679 55.1345 81.9619 48.9285 81.9619 39.4745C81.9619 30.0205 88.1679 23.7565 97.0999 23.7565ZM90.4299 39.4745C90.4299 44.3465 92.9239 47.8265 97.0999 47.8265C101.218 47.8265 103.712 44.3465 103.712 39.4745C103.712 34.5445 101.218 31.0645 97.0999 31.0645C92.9239 31.0645 90.4299 34.5445 90.4299 39.4745ZM111.435 31.7605L111.435 24.4525L137.883 24.4525L137.883 31.7605L128.893 31.7605L128.893 54.4385L120.425 54.4385L120.425 31.7605L111.435 31.7605ZM152.275 23.7565C161.149 23.7565 167.355 30.0205 167.355 39.4745C167.355 48.9285 161.149 55.1345 152.275 55.1345C143.343 55.1345 137.137 48.9285 137.137 39.4745C137.137 30.0205 143.343 23.7565 152.275 23.7565ZM145.605 39.4745C145.605 44.3465 148.099 47.8265 152.275 47.8265C156.393 47.8265 158.887 44.3465 158.887 39.4745C158.887 34.5445 156.393 31.0645 152.275 31.0645C148.099 31.0645 145.605 34.5445 145.605 39.4745ZM169.548 24.4525L180.394 24.4525L188.456 43.7665L196.518 24.4525L207.132 24.4525L207.132 54.4385L199.07 54.4385L199.07 35.3565L191.182 54.2065L185.498 54.2065L177.61 35.4725L177.61 54.4385L169.548 54.4385L169.548 24.4525ZM229.95 24.4525L238.998 24.4525L223.222 65.5165L214.232 65.5165L218.756 53.6265L207.562 24.4525L216.668 24.4525L223.338 43.7085L229.95 24.4525ZM265.773 24.4525L274.241 24.4525L274.241 54.4385L265.773 54.4385L265.773 43.1285C264.033 43.9985 261.771 44.5785 259.045 44.5785C252.839 44.5785 247.619 40.9245 247.619 32.5145L247.619 24.4525L256.029 24.4525L256.029 31.6445C256.029 35.4725 258.059 37.3285 261.597 37.3285C263.221 37.3285 264.613 36.9805 265.773 36.4005L265.773 24.4525ZM275.939 31.7605L275.939 24.4525L302.387 24.4525L302.387 31.7605L293.397 31.7605L293.397 54.4385L284.929 54.4385L284.929 31.7605L275.939 31.7605ZM316.779 23.7565C325.653 23.7565 331.859 30.0205 331.859 39.4745C331.859 48.9285 325.653 55.1345 316.779 55.1345C307.847 55.1345 301.641 48.9285 301.641 39.4745C301.641 30.0205 307.847 23.7565 316.779 23.7565ZM310.109 39.4745C310.109 44.3465 312.603 47.8265 316.779 47.8265C320.897 47.8265 323.391 44.3465 323.391 39.4745C323.391 34.5445 320.897 31.0645 316.779 31.0645C312.603 31.0645 310.109 34.5445 310.109 39.4745ZM56.8198 106.438L56.8198 76.4525L71.0878 76.4525C78.0478 76.4525 81.4698 79.7585 81.4698 84.2245C81.4698 87.6465 79.4398 89.7925 77.0618 90.6625C79.9618 91.4745 82.5718 93.7945 82.5718 97.9125C82.5718 102.726 78.8018 106.438 71.4358 106.438L56.8198 106.438ZM65.1138 100.464L70.3918 100.464C72.8278 100.464 74.1618 99.2465 74.1618 97.2165C74.1618 95.1865 72.8278 94.0845 70.3918 94.0845L65.1138 94.0845L65.1138 100.464ZM65.1138 88.2845L69.8118 88.2845C71.9578 88.2845 73.1758 87.1245 73.1758 85.3265C73.1758 83.4705 72.0158 82.4265 69.8118 82.4265L65.1138 82.4265L65.1138 88.2845ZM121.257 76.4525L121.257 106.438L112.963 106.438L112.963 76.4525L121.257 76.4525ZM84.7754 106.438L84.7754 76.4525L93.1274 76.4525L93.1274 84.9785L98.2894 84.9785C105.423 84.9785 109.773 89.5025 109.773 95.6505C109.773 101.798 105.365 106.438 98.2894 106.438L84.7754 106.438ZM93.1274 99.6525L97.2454 99.6525C99.8554 99.6525 101.479 97.9125 101.479 95.6505C101.479 93.3305 99.8554 91.7645 97.2454 91.7645L93.1274 91.7645L93.1274 99.6525ZM147.456 99.8265C150.936 99.8265 152.502 97.6805 153.024 95.6505L161.086 95.6505C160.564 102.146 155.402 107.134 147.398 107.134C138.234 107.134 132.492 100.522 132.492 91.4745C132.492 82.4845 138.234 75.7565 147.398 75.7565C155.692 75.7565 160.39 81.1505 161.028 87.1825L152.908 87.1825C152.328 85.2685 150.704 83.0645 147.398 83.0645C143.454 83.0645 140.96 86.4285 140.96 91.4745C140.96 96.5785 143.512 99.8265 147.456 99.8265ZM180.597 106.438L172.129 106.438L172.129 76.4525L180.597 76.4525L180.597 87.4145L191.211 87.4145L191.211 76.4525L199.679 76.4525L199.679 106.438L191.211 106.438L191.211 94.7225L180.597 94.7225L180.597 106.438ZM220.651 86.5445C220.651 83.7605 218.563 82.3105 215.721 82.3105C212.821 82.3105 211.313 83.6445 210.849 85.2105L202.961 85.2105C203.773 80.0485 208.239 75.7565 216.069 75.7565C223.783 75.7565 228.945 79.5265 228.945 86.8345L228.945 106.438L221.115 106.438L221.115 103.19C219.259 105.626 216.127 107.134 212.241 107.134C206.441 107.134 201.801 103.654 201.801 97.6225C201.801 91.4745 206.441 87.9365 214.097 87.9365L220.651 87.9365L220.651 86.5445ZM210.269 97.2165C210.269 99.3045 211.951 100.58 214.561 100.58C217.809 100.58 220.651 98.6085 220.651 95.1285L220.651 93.7945L214.735 93.7945C212.125 93.7945 210.269 95.0705 210.269 97.2165ZM232.458 76.4525L243.304 76.4525L251.366 95.7665L259.428 76.4525L270.042 76.4525L270.042 106.438L261.98 106.438L261.98 87.3565L254.092 106.206L248.408 106.206L240.52 87.4725L240.52 106.438L232.458 106.438L232.458 76.4525ZM301.792 76.4525L301.792 106.438L293.498 106.438L293.498 88.9225L281.898 106.438L273.894 106.438L273.894 76.4525L282.188 76.4525L282.188 93.8525L293.788 76.4525L301.792 76.4525ZM307.906 92.9245L307.268 65.6065L316.026 65.6065L315.388 92.9245L307.906 92.9245ZM306.572 102.088C306.572 99.2465 308.834 97.0425 311.734 97.0425C314.576 97.0425 316.78 99.2465 316.78 102.088C316.78 104.93 314.576 107.134 311.734 107.134C308.834 107.134 306.572 104.93 306.572 102.088ZM64.9222 146.432L64.9222 138.776L93.9222 138.776L93.9222 146.432L64.9222 146.432ZM114.164 129.612C114.164 126.654 111.844 124.566 108.48 124.566C104.884 124.566 102.738 126.596 102.216 129.496L93.6902 129.496C94.3282 122.304 99.8382 116.91 108.654 116.91C117.702 116.91 123.038 122.42 123.038 129.322C123.038 135.064 119.79 138.66 115.73 142.198L105.87 150.782L123.734 150.782L123.734 158.438L93.9802 158.438L93.9802 151.246L109.408 137.326C112.366 134.658 114.164 132.628 114.164 129.612ZM142.004 151.536C145.89 151.536 148.558 148.868 148.558 144.924C148.558 140.922 145.542 138.486 142.062 138.486C139.336 138.486 137.074 139.588 135.682 141.792L126.982 141.792L128.954 117.606L155.054 117.606L155.054 125.262L136.378 125.262L135.508 135.064C137.306 132.976 140.322 131.468 144.266 131.468C151.052 131.468 157.432 135.992 157.432 144.75C157.432 153.856 150.646 159.134 142.178 159.134C133.478 159.134 127.446 153.972 126.692 147.128L135.45 147.128C135.972 149.216 138.176 151.536 142.004 151.536ZM185.186 116.91C195.278 116.91 201.716 125.436 201.716 138.022C201.716 150.608 195.278 159.134 185.186 159.134C175.094 159.134 168.656 150.608 168.656 138.022C168.656 125.436 175.094 116.91 185.186 116.91ZM177.53 138.022C177.53 145.62 179.966 151.42 185.186 151.42C190.406 151.42 192.9 145.62 192.9 138.022C192.9 130.424 190.406 124.624 185.186 124.624C179.966 124.624 177.53 130.424 177.53 138.022ZM220.562 116.91C230.654 116.91 237.092 125.436 237.092 138.022C237.092 150.608 230.654 159.134 220.562 159.134C210.47 159.134 204.032 150.608 204.032 138.022C204.032 125.436 210.47 116.91 220.562 116.91ZM212.906 138.022C212.906 145.62 215.342 151.42 220.562 151.42C225.782 151.42 228.276 145.62 228.276 138.022C228.276 130.424 225.782 124.624 220.562 124.624C215.342 124.624 212.906 130.424 212.906 138.022ZM255.937 116.91C266.029 116.91 272.467 125.436 272.467 138.022C272.467 150.608 266.029 159.134 255.937 159.134C245.845 159.134 239.407 150.608 239.407 138.022C239.407 125.436 245.845 116.91 255.937 116.91ZM248.281 138.022C248.281 145.62 250.717 151.42 255.937 151.42C261.157 151.42 263.651 145.62 263.651 138.022C263.651 130.424 261.157 124.624 255.937 124.624C250.717 124.624 248.281 130.424 248.281 138.022ZM293.807 117.606C302.391 117.606 307.553 122.768 307.553 130.134C307.553 137.5 302.391 142.546 294.213 142.546L287.543 142.546L287.543 146.548L299.027 146.548L299.027 152.29L287.543 152.29L287.543 158.438L279.017 158.438L279.017 152.29L273.449 152.29L273.449 146.548L279.017 146.548L279.017 142.546L273.449 142.546L273.449 136.166L279.017 136.166L279.017 117.606L293.807 117.606ZM287.543 135.876L292.763 135.876C296.707 135.876 298.911 133.556 298.911 130.25C298.911 126.944 296.765 124.682 292.763 124.682L287.543 124.682L287.543 135.876ZM81.7295 210.439L73.2615 210.439L73.2615 180.452L81.7295 180.452L81.7295 191.414L92.3435 191.414L92.3435 180.452L100.811 180.452L100.811 210.439L92.3435 210.439L92.3435 198.722L81.7295 198.722L81.7295 210.439ZM121.783 190.544C121.783 187.76 119.695 186.31 116.853 186.31C113.953 186.31 112.445 187.644 111.981 189.21L104.093 189.21C104.905 184.048 109.371 179.756 117.201 179.756C124.915 179.756 130.077 183.526 130.077 190.834L130.077 210.439L122.247 210.439L122.247 207.191C120.391 209.627 117.259 211.135 113.373 211.135C107.573 211.135 102.933 207.655 102.933 201.622C102.933 195.474 107.573 191.936 115.229 191.936L121.783 191.936L121.783 190.544ZM111.401 201.216C111.401 203.304 113.083 204.58 115.693 204.58C118.941 204.58 121.783 202.608 121.783 199.128L121.783 197.794L115.867 197.794C113.257 197.794 111.401 199.07 111.401 201.216ZM152.14 210.439L143.266 210.439L143.266 169.606L152.14 169.606L152.14 185.556L168.67 185.556L168.67 169.606L177.544 169.606L177.544 210.439L168.67 210.439L168.67 193.502L152.14 193.502L152.14 210.439ZM180.401 195.59C180.401 185.788 186.375 179.756 195.075 179.756C203.659 179.756 209.169 185.672 209.169 194.952L209.169 197.852L188.927 197.852L188.927 197.968C188.927 201.622 191.653 204.464 195.713 204.464C198.613 204.464 200.295 203.014 200.701 201.854L208.879 201.854C208.067 206.031 204.065 211.135 195.539 211.135C186.433 211.135 180.401 205.334 180.401 195.59ZM188.985 191.936L200.933 191.936C200.701 188.514 198.497 186.368 195.133 186.368C191.769 186.368 189.449 188.456 188.985 191.936ZM219.865 168.272L219.865 210.439L211.397 210.439L211.397 168.272L219.865 168.272ZM240.597 179.756C247.731 179.756 253.589 185.44 253.589 195.474C253.589 205.334 247.731 211.135 240.365 211.135C236.537 211.135 233.695 209.627 232.187 207.539L232.187 221.517L223.719 221.517L223.719 180.452L231.839 180.452L231.839 183.932C233.347 181.67 236.189 179.756 240.597 179.756ZM232.013 195.59C232.013 200.636 234.623 203.826 238.567 203.826C242.511 203.826 245.063 200.578 245.063 195.474C245.063 190.37 242.511 187.064 238.567 187.064C234.623 187.064 232.013 190.312 232.013 195.358L232.013 195.59ZM254.186 195.59C254.186 185.788 260.16 179.756 268.86 179.756C277.444 179.756 282.954 185.672 282.954 194.952L282.954 197.852L262.712 197.852L262.712 197.968C262.712 201.622 265.438 204.464 269.498 204.464C272.398 204.464 274.08 203.014 274.486 201.854L282.664 201.854C281.852 206.031 277.85 211.135 269.324 211.135C260.218 211.135 254.186 205.334 254.186 195.59ZM262.77 191.936L274.718 191.936C274.486 188.514 272.282 186.368 268.918 186.368C265.554 186.368 263.234 188.456 262.77 191.936ZM302.001 180.336L303.509 180.336L303.509 188.34L301.537 188.34C296.433 188.34 293.649 190.95 293.649 195.242L293.649 210.439L285.181 210.439L285.181 180.452L293.301 180.452L293.301 185.092C295.273 181.612 298.579 180.336 302.001 180.336Z" fill="#FF00E6" fill-opacity="0.2"/>
<defs>
<linearGradient id="paint0_linear_12_23037" x1="37.0834" y1="-17.3234" x2="360.236" y2="101.494" gradientUnits="userSpaceOnUse">
<stop stop-color="#C6617F"/>
<stop offset="0.340122" stop-color="#E39BB5"/>
<stop offset="0.505208" stop-color="#FBB9C8"/>
<stop offset="0.961248" stop-color="#E38BA7"/>
</linearGradient>
</defs>
</svg>
