<svg width="284" height="48" viewBox="0 0 284 48" fill="none" xmlns="http://www.w3.org/2000/svg">
<path d="M1.944 20V3.104H8.472C11.904 3.104 13.68 5.048 13.68 7.496C13.68 9.512 12.552 10.712 11.472 11.168C12.72 11.528 14.328 12.752 14.328 15.2C14.328 18.008 12.168 20 8.688 20H1.944ZM4.8 17.552H8.376C10.2 17.552 11.424 16.64 11.424 15.032C11.424 13.472 10.272 12.512 8.472 12.512H4.8V17.552ZM4.8 10.16H8.184C9.96 10.16 10.8 9.152 10.8 7.856C10.8 6.416 9.792 5.552 8.064 5.552H4.8V10.16ZM18.5436 20H15.8076V7.76H18.5436V12.848L23.2476 7.76H26.4876L21.2076 13.472L26.5596 20H23.2476L18.5436 14.288V20ZM25.9678 20.048V17.648H26.3518C27.7198 17.648 28.1758 16.952 28.3198 15.104L28.9198 7.76H37.9198V20H35.1838V10.16H31.3438L30.9118 15.296C30.6478 18.68 29.3998 20.048 26.7118 20.048H25.9678ZM42.792 20H40.056V7.76H42.792V12.464H44.88C45.408 9.464 47.64 7.472 50.688 7.472C54.264 7.472 56.616 10.112 56.616 13.88C56.616 17.672 54.264 20.288 50.688 20.288C47.496 20.288 45.216 18.128 44.808 14.888H42.792V20ZM47.52 13.88C47.52 16.232 48.696 17.864 50.688 17.864C52.68 17.864 53.856 16.232 53.856 13.88C53.856 11.528 52.68 9.896 50.688 9.896C48.696 9.896 47.52 11.528 47.52 13.88ZM65.0147 7.76H67.7507V20H65.0147V15.176C64.3427 15.56 63.4307 15.8 62.2787 15.8C59.5907 15.8 57.5027 14.264 57.5027 10.88V7.76H60.2387V10.688C60.2387 12.512 61.2227 13.4 62.9027 13.4C63.7907 13.4 64.4867 13.184 65.0147 12.896V7.76ZM77.0351 11.888C77.0351 10.448 76.0031 9.728 74.6351 9.728C73.2191 9.728 72.4751 10.376 72.2111 11.144H69.6191C69.9791 9.152 71.7311 7.472 74.7311 7.472C77.7311 7.472 79.7231 9.08 79.7231 11.936V20H77.1791V18.608C76.3391 19.688 74.9711 20.288 73.3871 20.288C71.0111 20.288 69.1391 18.848 69.1391 16.448C69.1391 14.024 71.0111 12.584 74.0591 12.584H77.0351V11.888ZM71.8991 16.352C71.8991 17.456 72.7631 18.056 73.9871 18.056C75.6191 18.056 77.0351 17.048 77.0351 15.392V14.648H74.2511C72.8591 14.648 71.8991 15.248 71.8991 16.352ZM81.0413 13.904C81.0413 9.92 83.4653 7.472 86.9213 7.472C90.2813 7.472 92.4653 9.848 92.4653 13.544V14.672H83.8493V14.72C83.8493 16.568 85.1693 18.008 87.1373 18.008C88.6013 18.008 89.4413 17.24 89.6333 16.688H92.3213C92.0093 18.248 90.4253 20.288 87.0893 20.288C83.4653 20.288 81.0413 17.864 81.0413 13.904ZM83.8733 12.608H89.7533C89.6573 10.832 88.6013 9.752 86.8973 9.752C85.1693 9.752 84.0413 10.856 83.8733 12.608ZM92.5147 10.16V7.76H103.075V10.16H99.1627V20H96.4267V10.16H92.5147ZM108.254 20V7.76H113.75C116.486 7.76 117.782 9.152 117.782 10.928C117.782 12.344 116.966 13.208 116.078 13.544C117.23 13.856 118.286 14.84 118.286 16.52C118.286 18.488 116.774 20 113.99 20H108.254ZM110.942 17.888H113.654C114.902 17.888 115.55 17.288 115.55 16.304C115.55 15.32 114.902 14.768 113.654 14.768H110.942V17.888ZM110.942 12.704H113.414C114.494 12.704 115.094 12.152 115.094 11.264C115.094 10.352 114.518 9.872 113.414 9.872H110.942V12.704ZM124.967 17.864C126.719 17.864 127.463 16.76 127.703 15.824H130.367C130.103 18.224 128.087 20.288 124.943 20.288C121.343 20.288 119.015 17.6 119.015 13.88C119.015 10.208 121.319 7.472 124.943 7.472C128.255 7.472 130.055 9.704 130.343 11.888H127.679C127.391 10.976 126.623 9.896 124.943 9.896C122.999 9.896 121.799 11.528 121.799 13.88C121.799 16.28 123.047 17.864 124.967 17.864ZM130.987 13.904C130.987 9.92 133.411 7.472 136.867 7.472C140.227 7.472 142.411 9.848 142.411 13.544V14.672H133.795V14.72C133.795 16.568 135.115 18.008 137.083 18.008C138.547 18.008 139.387 17.24 139.579 16.688H142.267C141.955 18.248 140.371 20.288 137.035 20.288C133.411 20.288 130.987 17.864 130.987 13.904ZM133.819 12.608H139.699C139.603 10.832 138.547 9.752 136.843 9.752C135.115 9.752 133.987 10.856 133.819 12.608ZM153.173 7.472C156.773 7.472 159.197 10.088 159.197 13.88C159.197 17.672 156.773 20.288 153.173 20.288C149.573 20.288 147.149 17.672 147.149 13.88C147.149 10.088 149.573 7.472 153.173 7.472ZM149.933 13.88C149.933 16.232 151.157 17.864 153.173 17.864C155.189 17.864 156.413 16.232 156.413 13.88C156.413 11.528 155.189 9.896 153.173 9.896C151.157 9.896 149.933 11.528 149.933 13.88ZM160.614 7.76H171.27V20H168.534V10.16H163.35V20H160.614V7.76ZM185.743 17.6V23.072H183.127V20H173.383V7.76H176.119V17.6H181.255V7.76H183.991V17.6H185.743ZM197.75 7.76V20H195.062V11.864L189.518 20H186.878V7.76H189.566V15.896L195.11 7.76H197.75ZM210.73 7.76V20H208.042V11.864L202.498 20H199.858V7.76H202.546V15.896L208.09 7.76H210.73ZM0.696 32.16V29.76H11.256V32.16H7.344V42H4.608V32.16H0.696ZM19.3508 33.888C19.3508 32.448 18.3188 31.728 16.9508 31.728C15.5348 31.728 14.7908 32.376 14.5268 33.144H11.9348C12.2948 31.152 14.0468 29.472 17.0468 29.472C20.0468 29.472 22.0388 31.08 22.0388 33.936V42H19.4948V40.608C18.6548 41.688 17.2868 42.288 15.7028 42.288C13.3268 42.288 11.4548 40.848 11.4548 38.448C11.4548 36.024 13.3268 34.584 16.3748 34.584H19.3508V33.888ZM14.2148 38.352C14.2148 39.456 15.0788 40.056 16.3028 40.056C17.9348 40.056 19.3508 39.048 19.3508 37.392V36.648H16.5668C15.1748 36.648 14.2148 37.248 14.2148 38.352ZM30.4849 29.472C33.3409 29.472 35.9089 31.68 35.9089 35.88C35.9089 40.08 33.3169 42.288 30.4129 42.288C28.6369 42.288 27.3889 41.52 26.7889 40.632V46.584H24.0529V29.76H26.6929V31.344C27.2929 30.36 28.5409 29.472 30.4849 29.472ZM26.7169 35.928C26.7169 38.328 28.0129 39.864 29.9569 39.864C31.8769 39.864 33.1489 38.28 33.1489 35.88C33.1489 33.504 31.8769 31.896 29.9569 31.896C28.0129 31.896 26.7169 33.432 26.7169 35.832V35.928ZM48.1858 29.76V42H45.4978V33.864L39.9538 42H37.3138V29.76H40.0018V37.896L45.5458 29.76H48.1858ZM58.7175 29.496C62.4375 29.616 65.1255 32.136 65.1255 35.88C65.1255 39.624 62.4375 42.144 58.7175 42.264V46.584H56.0295V42.264C52.2855 42.144 49.5975 39.624 49.5975 35.88C49.5975 32.136 52.2855 29.616 56.0295 29.496V24.96H58.7175V29.496ZM52.3575 35.88C52.3575 38.376 54.0135 39.84 56.0295 39.888V31.872C54.0135 31.92 52.3575 33.384 52.3575 35.88ZM58.7175 39.888C60.7095 39.84 62.3895 38.376 62.3895 35.88C62.3895 33.384 60.7335 31.92 58.7175 31.872V39.888ZM73.707 33.888C73.707 32.448 72.675 31.728 71.307 31.728C69.891 31.728 69.147 32.376 68.883 33.144H66.291C66.651 31.152 68.403 29.472 71.403 29.472C74.403 29.472 76.395 31.08 76.395 33.936V42H73.851V40.608C73.011 41.688 71.643 42.288 70.059 42.288C67.683 42.288 65.811 40.848 65.811 38.448C65.811 36.024 67.683 34.584 70.731 34.584H73.707V33.888ZM68.571 38.352C68.571 39.456 69.435 40.056 70.659 40.056C72.291 40.056 73.707 39.048 73.707 37.392V36.648H70.923C69.531 36.648 68.571 37.248 68.571 38.352ZM89.8277 24.816C94.5797 24.816 97.7477 28.44 97.7477 33.552C97.7477 38.664 94.5797 42.288 89.8277 42.288C85.0757 42.288 81.9077 38.664 81.9077 33.552C81.9077 28.44 85.0757 24.816 89.8277 24.816ZM84.8357 33.552C84.8357 37.128 86.7077 39.672 89.8277 39.672C92.9477 39.672 94.8437 37.128 94.8437 33.552C94.8437 29.976 92.9477 27.432 89.8277 27.432C86.7077 27.432 84.8357 29.976 84.8357 33.552ZM105.713 29.712H106.337V32.304H105.617C103.505 32.304 102.089 33.408 102.089 35.52V42H99.3529V29.76H101.993V31.656C102.833 30.264 104.177 29.712 105.713 29.712ZM110.147 29.76V42H107.411V29.76H110.147ZM107.099 26.112C107.099 25.176 107.843 24.456 108.779 24.456C109.739 24.456 110.483 25.176 110.483 26.112C110.483 27.072 109.739 27.792 108.779 27.792C107.843 27.792 107.099 27.072 107.099 26.112ZM120.801 29.76H123.441V41.184C123.441 44.76 121.209 47.016 117.561 47.016C114.057 47.016 112.305 45.024 112.113 43.128H114.801C115.089 43.92 115.785 44.712 117.585 44.712C119.577 44.712 120.705 43.392 120.705 41.184V40.176C120.057 41.136 118.881 41.928 116.985 41.928C114.153 41.928 111.585 39.768 111.585 35.712C111.585 31.728 114.153 29.472 117.081 29.472C119.001 29.472 120.273 30.336 120.801 31.272V29.76ZM114.369 35.712C114.369 37.92 115.617 39.552 117.537 39.552C119.505 39.552 120.777 37.968 120.777 35.76V35.664C120.777 33.456 119.529 31.872 117.537 31.872C115.617 31.872 114.369 33.504 114.369 35.712ZM128.278 29.76V42H125.542V29.76H128.278ZM125.23 26.112C125.23 25.176 125.974 24.456 126.91 24.456C127.87 24.456 128.614 25.176 128.614 26.112C128.614 27.072 127.87 27.792 126.91 27.792C125.974 27.792 125.23 27.072 125.23 26.112ZM130.412 29.76H133.052V31.176C133.628 30.336 134.9 29.472 136.7 29.472C139.028 29.472 141.188 30.864 141.188 34.248V42H138.452V34.752C138.452 32.832 137.396 31.944 135.932 31.944C134.564 31.944 133.148 32.784 133.148 34.896V42H130.412V29.76ZM150.357 33.888C150.357 32.448 149.325 31.728 147.957 31.728C146.541 31.728 145.797 32.376 145.533 33.144H142.941C143.301 31.152 145.053 29.472 148.053 29.472C151.053 29.472 153.045 31.08 153.045 33.936V42H150.501V40.608C149.661 41.688 148.293 42.288 146.709 42.288C144.333 42.288 142.461 40.848 142.461 38.448C142.461 36.024 144.333 34.584 147.381 34.584H150.357V33.888ZM145.221 38.352C145.221 39.456 146.085 40.056 147.309 40.056C148.941 40.056 150.357 39.048 150.357 37.392V36.648H147.573C146.181 36.648 145.221 37.248 145.221 38.352ZM157.795 24.552V42H155.059V24.552H157.795ZM174.828 29.76V42H172.14V33.864L166.596 42H163.956V29.76H166.644V37.896L172.188 29.76H174.828Z" fill="#6D7191"/>
<path d="M271.368 28.707C273.659 28.707 276.002 30.1328 276.002 33.6973V42.1756H272.284V34.4611C272.284 32.7552 271.342 32.0423 270.171 32.0423C268.975 32.0423 267.931 32.8825 267.931 34.4865V42.1756H264.213V34.4611C264.213 32.7552 263.271 32.0423 262.1 32.0423C260.904 32.0423 259.885 32.8825 259.885 34.4865V42.1756H256.168V29.0126H259.732V30.5147C260.598 29.3181 261.998 28.707 263.399 28.707C264.85 28.707 266.327 29.3181 267.192 30.7439C268.16 29.3945 269.789 28.707 271.368 28.707Z" fill="#F5F5F5"/>
<path d="M271.368 28.707C273.659 28.707 276.002 30.1328 276.002 33.6973V42.1756H272.284V34.4611C272.284 32.7552 271.342 32.0423 270.171 32.0423C268.975 32.0423 267.931 32.8825 267.931 34.4865V42.1756H264.213V34.4611C264.213 32.7552 263.271 32.0423 262.1 32.0423C260.904 32.0423 259.885 32.8825 259.885 34.4865V42.1756H256.168V29.0126H259.732V30.5147C260.598 29.3181 261.998 28.707 263.399 28.707C264.85 28.707 266.327 29.3181 267.192 30.7439C268.16 29.3945 269.789 28.707 271.368 28.707Z" fill="url(#paint0_linear_2456_7820)"/>
<path d="M254.69 42.1757H251.126V40.6481C250.489 41.5901 249.166 42.4813 247.281 42.4813C244.837 42.4813 242.571 41.0555 242.571 37.4146V29.0127H246.263V36.5999C246.263 38.3312 247.205 39.1459 248.554 39.1459C249.777 39.1459 250.973 38.3821 250.973 36.549V29.0127H254.69V42.1757Z" fill="#F5F5F5"/>
<path d="M254.69 42.1757H251.126V40.6481C250.489 41.5901 249.166 42.4813 247.281 42.4813C244.837 42.4813 242.571 41.0555 242.571 37.4146V29.0127H246.263V36.5999C246.263 38.3312 247.205 39.1459 248.554 39.1459C249.777 39.1459 250.973 38.3821 250.973 36.549V29.0127H254.69V42.1757Z" fill="url(#paint1_linear_2456_7820)"/>
<path d="M241.151 29.0127V42.1757H237.434V29.0127H241.151Z" fill="#F5F5F5"/>
<path d="M241.151 29.0127V42.1757H237.434V29.0127H241.151Z" fill="url(#paint2_linear_2456_7820)"/>
<path d="M231.406 28.707C233.697 28.707 236.04 30.1328 236.04 33.6973V42.1756H232.322V34.4611C232.322 32.7552 231.38 32.0423 230.209 32.0423C229.013 32.0423 227.969 32.8825 227.969 34.4865V42.1756H224.252V34.4611C224.252 32.7552 223.31 32.0423 222.138 32.0423C220.942 32.0423 219.923 32.8825 219.923 34.4865V42.1756H216.206V29.0126H219.771V30.5147C220.636 29.3181 222.036 28.707 223.437 28.707C224.888 28.707 226.365 29.3181 227.23 30.7439C228.198 29.3945 229.827 28.707 231.406 28.707Z" fill="#F5F5F5"/>
<path d="M231.406 28.707C233.697 28.707 236.04 30.1328 236.04 33.6973V42.1756H232.322V34.4611C232.322 32.7552 231.38 32.0423 230.209 32.0423C229.013 32.0423 227.969 32.8825 227.969 34.4865V42.1756H224.252V34.4611C224.252 32.7552 223.31 32.0423 222.138 32.0423C220.942 32.0423 219.923 32.8825 219.923 34.4865V42.1756H216.206V29.0126H219.771V30.5147C220.636 29.3181 222.036 28.707 223.437 28.707C224.888 28.707 226.365 29.3181 227.23 30.7439C228.198 29.3945 229.827 28.707 231.406 28.707Z" fill="url(#paint3_linear_2456_7820)"/>
<path d="M202.77 35.6577C202.77 31.3549 205.392 28.707 209.211 28.707C212.979 28.707 215.398 31.304 215.398 35.3777V36.6507H206.512V36.7016C206.512 38.3056 207.709 39.5532 209.491 39.5532C210.764 39.5532 211.502 38.9167 211.681 38.4075H215.271C214.914 40.2406 213.157 42.4811 209.415 42.4811C205.417 42.4811 202.77 39.9351 202.77 35.6577ZM206.538 34.0537H211.783C211.681 32.5516 210.713 31.6095 209.236 31.6095C207.76 31.6095 206.741 32.5261 206.538 34.0537Z" fill="#F5F5F5"/>
<path d="M202.77 35.6577C202.77 31.3549 205.392 28.707 209.211 28.707C212.979 28.707 215.398 31.304 215.398 35.3777V36.6507H206.512V36.7016C206.512 38.3056 207.709 39.5532 209.491 39.5532C210.764 39.5532 211.502 38.9167 211.681 38.4075H215.271C214.914 40.2406 213.157 42.4811 209.415 42.4811C205.417 42.4811 202.77 39.9351 202.77 35.6577ZM206.538 34.0537H211.783C211.681 32.5516 210.713 31.6095 209.236 31.6095C207.76 31.6095 206.741 32.5261 206.538 34.0537Z" fill="url(#paint4_linear_2456_7820)"/>
<path d="M202.468 28.9619H203.129V32.4755H202.264C200.023 32.4755 198.801 33.6212 198.801 35.5052V42.1759H195.084V29.0128H198.648V31.0497C199.514 29.522 200.965 28.9619 202.468 28.9619Z" fill="#F5F5F5"/>
<path d="M202.468 28.9619H203.129V32.4755H202.264C200.023 32.4755 198.801 33.6212 198.801 35.5052V42.1759H195.084V29.0128H198.648V31.0497C199.514 29.522 200.965 28.9619 202.468 28.9619Z" fill="url(#paint5_linear_2456_7820)"/>
<path d="M187.823 24.251C191.948 24.251 194.265 26.8479 194.265 30.3106C194.265 33.6968 191.821 36.3447 187.925 36.3447H184.895V42.1751H181V24.251H187.823ZM184.895 33.0094H187.467C189.249 33.0094 190.319 31.8636 190.319 30.3106C190.319 28.7066 189.3 27.5863 187.467 27.5863H184.895V33.0094Z" fill="#F5F5F5"/>
<path d="M187.823 24.251C191.948 24.251 194.265 26.8479 194.265 30.3106C194.265 33.6968 191.821 36.3447 187.925 36.3447H184.895V42.1751H181V24.251H187.823ZM184.895 33.0094H187.467C189.249 33.0094 190.319 31.8636 190.319 30.3106C190.319 28.7066 189.3 27.5863 187.467 27.5863H184.895V33.0094Z" fill="url(#paint6_linear_2456_7820)"/>
<path opacity="0.8" fill-rule="evenodd" clip-rule="evenodd" d="M257.35 12.8186L259.269 17.536L264.349 17.1683L260.455 20.4515L262.375 25.1688L258.049 22.4806L254.156 25.7638L255.376 20.8192L251.05 18.131L256.13 17.7633L257.35 12.8186ZM239.276 20.3932L240.383 23.1147L243.314 22.9026L241.067 24.7967L242.175 27.5183L239.679 25.9674L237.433 27.8615L238.137 25.0089L235.641 23.458L238.572 23.2458L239.276 20.3932ZM248.745 20.7168L247.416 17.4509L246.571 20.8741L243.054 21.1287L246.049 22.9898L245.205 26.413L247.9 24.14L250.895 26.001L249.566 22.7352L252.261 20.4622L248.745 20.7168Z" fill="url(#paint7_linear_2456_7820)"/>
<defs>
<linearGradient id="paint0_linear_2456_7820" x1="175.096" y1="44.6323" x2="285.951" y2="38.5246" gradientUnits="userSpaceOnUse">
<stop stop-color="#8369D1"/>
<stop offset="0.451199" stop-color="#CF78C7"/>
<stop offset="1" stop-color="#BE2994"/>
</linearGradient>
<linearGradient id="paint1_linear_2456_7820" x1="175.095" y1="44.6325" x2="285.951" y2="38.5247" gradientUnits="userSpaceOnUse">
<stop stop-color="#8369D1"/>
<stop offset="0.451199" stop-color="#CF78C7"/>
<stop offset="1" stop-color="#BE2994"/>
</linearGradient>
<linearGradient id="paint2_linear_2456_7820" x1="175.095" y1="44.6323" x2="285.951" y2="38.5246" gradientUnits="userSpaceOnUse">
<stop stop-color="#8369D1"/>
<stop offset="0.451199" stop-color="#CF78C7"/>
<stop offset="1" stop-color="#BE2994"/>
</linearGradient>
<linearGradient id="paint3_linear_2456_7820" x1="175.095" y1="44.6323" x2="285.95" y2="38.5246" gradientUnits="userSpaceOnUse">
<stop stop-color="#8369D1"/>
<stop offset="0.451199" stop-color="#CF78C7"/>
<stop offset="1" stop-color="#BE2994"/>
</linearGradient>
<linearGradient id="paint4_linear_2456_7820" x1="175.095" y1="44.6323" x2="285.95" y2="38.5246" gradientUnits="userSpaceOnUse">
<stop stop-color="#8369D1"/>
<stop offset="0.451199" stop-color="#CF78C7"/>
<stop offset="1" stop-color="#BE2994"/>
</linearGradient>
<linearGradient id="paint5_linear_2456_7820" x1="175.094" y1="44.6326" x2="285.949" y2="38.5249" gradientUnits="userSpaceOnUse">
<stop stop-color="#8369D1"/>
<stop offset="0.451199" stop-color="#CF78C7"/>
<stop offset="1" stop-color="#BE2994"/>
</linearGradient>
<linearGradient id="paint6_linear_2456_7820" x1="175.094" y1="44.6318" x2="285.949" y2="38.5241" gradientUnits="userSpaceOnUse">
<stop stop-color="#8369D1"/>
<stop offset="0.451199" stop-color="#CF78C7"/>
<stop offset="1" stop-color="#BE2994"/>
</linearGradient>
<linearGradient id="paint7_linear_2456_7820" x1="248.694" y1="24.5682" x2="266.208" y2="25.0375" gradientUnits="userSpaceOnUse">
<stop stop-color="#CA67AF"/>
<stop offset="1" stop-color="#CA66AF" stop-opacity="0"/>
</linearGradient>
</defs>
</svg>
