<svg width="28" height="28" viewBox="0 0 28 28" fill="none" xmlns="http://www.w3.org/2000/svg">
<path fill-rule="evenodd" clip-rule="evenodd" d="M14 27.7263C21.4558 27.7263 27.5 21.6822 27.5 14.2263C27.5 6.77047 21.4558 0.726318 14 0.726318C6.54416 0.726318 0.5 6.77047 0.5 14.2263C0.5 21.6822 6.54416 27.7263 14 27.7263ZM10.9591 8.84464C10.2231 9.3993 9.79113 10.178 9.66313 11.1806H11.5191C11.6258 10.722 11.8605 10.3593 12.2231 10.0926C12.5858 9.8153 13.0498 9.67664 13.6151 9.67664C14.2018 9.67664 14.6605 9.82597 14.9911 10.1246C15.3325 10.4126 15.5031 10.7913 15.5031 11.2606C15.5031 11.73 15.3271 12.114 14.9751 12.4126C14.6231 12.7113 14.1431 12.8606 13.5351 12.8606H12.3511V14.4926H13.6791C14.3298 14.4926 14.8631 14.6366 15.2791 14.9246C15.6951 15.202 15.9031 15.618 15.9031 16.1726C15.9031 16.706 15.7005 17.138 15.2951 17.4686C14.9005 17.7993 14.3938 17.9646 13.7751 17.9646C13.1458 17.9646 12.6178 17.8153 12.1911 17.5166C11.7751 17.218 11.5191 16.8286 11.4231 16.3486H9.53512C9.64179 17.3726 10.0845 18.178 10.8631 18.7646C11.6525 19.3513 12.6231 19.6446 13.7751 19.6446C14.9485 19.6446 15.9138 19.3246 16.6711 18.6846C17.4391 18.034 17.8231 17.2233 17.8231 16.2526C17.8231 15.4846 17.6045 14.8713 17.1671 14.4126C16.7405 13.954 16.2711 13.666 15.7591 13.5486C16.1965 13.378 16.5805 13.0846 16.9111 12.6686C17.2525 12.2526 17.4231 11.7353 17.4231 11.1166C17.4231 10.2206 17.0765 9.4793 16.3831 8.89264C15.7005 8.2953 14.7885 7.99664 13.6471 7.99664C12.6018 7.99664 11.7058 8.2793 10.9591 8.84464Z" fill="black"/>
</svg>
