<svg width="200" height="105" viewBox="0 0 200 105" fill="none" xmlns="http://www.w3.org/2000/svg">
<path d="M12.258 44H3.996V5.984H12.258V20.834H27.648V5.984H35.91V44H27.648V28.232H12.258V44ZM38.2831 30.176C38.2831 21.05 43.8451 15.434 51.9451 15.434C59.9371 15.434 65.0671 20.942 65.0671 29.582V32.282H46.2211V32.39C46.2211 35.792 48.7591 38.438 52.5391 38.438C55.2391 38.438 56.8051 37.088 57.1831 36.008H64.7971C64.0411 39.896 60.3151 44.648 52.3771 44.648C43.8991 44.648 38.2831 39.248 38.2831 30.176ZM46.2751 26.774H57.3991C57.1831 23.588 55.1311 21.59 51.9991 21.59C48.8671 21.59 46.7071 23.534 46.2751 26.774ZM74.7383 4.742V44H66.8543V4.742H74.7383ZM93.7544 15.434C100.396 15.434 105.85 20.726 105.85 30.068C105.85 39.248 100.396 44.648 93.5384 44.648C89.9744 44.648 87.3284 43.244 85.9244 41.3V54.314H78.0404V16.082H85.6004V19.322C87.0044 17.216 89.6504 15.434 93.7544 15.434ZM85.7624 30.176C85.7624 34.874 88.1924 37.844 91.8644 37.844C95.5364 37.844 97.9124 34.82 97.9124 30.068C97.9124 25.316 95.5364 22.238 91.8644 22.238C88.1924 22.238 85.7624 25.262 85.7624 29.96V30.176ZM106.119 30.176C106.119 21.05 111.681 15.434 119.781 15.434C127.773 15.434 132.903 20.942 132.903 29.582V32.282H114.057V32.39C114.057 35.792 116.595 38.438 120.375 38.438C123.075 38.438 124.641 37.088 125.019 36.008H132.633C131.877 39.896 128.151 44.648 120.213 44.648C111.735 44.648 106.119 39.248 106.119 30.176ZM114.111 26.774H125.235C125.019 23.588 122.967 21.59 119.835 21.59C116.703 21.59 114.543 23.534 114.111 26.774ZM150.35 15.974H151.754V23.426H149.918C145.166 23.426 142.574 25.856 142.574 29.852V44H134.69V16.082H142.25V20.402C144.086 17.162 147.164 15.974 150.35 15.974Z" fill="#F5F5F5"/>
<path d="M12.258 44H3.996V5.984H12.258V20.834H27.648V5.984H35.91V44H27.648V28.232H12.258V44ZM38.2831 30.176C38.2831 21.05 43.8451 15.434 51.9451 15.434C59.9371 15.434 65.0671 20.942 65.0671 29.582V32.282H46.2211V32.39C46.2211 35.792 48.7591 38.438 52.5391 38.438C55.2391 38.438 56.8051 37.088 57.1831 36.008H64.7971C64.0411 39.896 60.3151 44.648 52.3771 44.648C43.8991 44.648 38.2831 39.248 38.2831 30.176ZM46.2751 26.774H57.3991C57.1831 23.588 55.1311 21.59 51.9991 21.59C48.8671 21.59 46.7071 23.534 46.2751 26.774ZM74.7383 4.742V44H66.8543V4.742H74.7383ZM93.7544 15.434C100.396 15.434 105.85 20.726 105.85 30.068C105.85 39.248 100.396 44.648 93.5384 44.648C89.9744 44.648 87.3284 43.244 85.9244 41.3V54.314H78.0404V16.082H85.6004V19.322C87.0044 17.216 89.6504 15.434 93.7544 15.434ZM85.7624 30.176C85.7624 34.874 88.1924 37.844 91.8644 37.844C95.5364 37.844 97.9124 34.82 97.9124 30.068C97.9124 25.316 95.5364 22.238 91.8644 22.238C88.1924 22.238 85.7624 25.262 85.7624 29.96V30.176ZM106.119 30.176C106.119 21.05 111.681 15.434 119.781 15.434C127.773 15.434 132.903 20.942 132.903 29.582V32.282H114.057V32.39C114.057 35.792 116.595 38.438 120.375 38.438C123.075 38.438 124.641 37.088 125.019 36.008H132.633C131.877 39.896 128.151 44.648 120.213 44.648C111.735 44.648 106.119 39.248 106.119 30.176ZM114.111 26.774H125.235C125.019 23.588 122.967 21.59 119.835 21.59C116.703 21.59 114.543 23.534 114.111 26.774ZM150.35 15.974H151.754V23.426H149.918C145.166 23.426 142.574 25.856 142.574 29.852V44H134.69V16.082H142.25V20.402C144.086 17.162 147.164 15.974 150.35 15.974Z" fill="white"/>
<path d="M3.996 54.984H14.256L24.786 81.66L35.262 54.984H45.468V93H37.746V67.458L27.756 92.676H21.708L11.772 67.674V93H3.996V54.984ZM47.8281 79.176C47.8281 70.05 53.3901 64.434 61.4901 64.434C69.4821 64.434 74.6121 69.942 74.6121 78.582V81.282H55.7661V81.39C55.7661 84.792 58.3041 87.438 62.0841 87.438C64.7841 87.438 66.3501 86.088 66.7281 85.008H74.3421C73.5861 88.896 69.8601 93.648 61.9221 93.648C53.4441 93.648 47.8281 88.248 47.8281 79.176ZM55.8201 75.774H66.9441C66.7281 72.588 64.6761 70.59 61.5441 70.59C58.4121 70.59 56.2521 72.534 55.8201 75.774ZM95.0832 65.082H102.643V91.002C102.643 99.21 97.4592 104.34 88.8732 104.34C80.5572 104.34 76.3992 99.642 75.9132 94.998H83.6352C84.1752 96.618 85.5792 98.076 88.9272 98.076C92.7072 98.076 94.7592 95.484 94.7592 90.948V89.058C93.3012 91.056 90.8712 92.568 86.9292 92.568C80.2332 92.568 74.8872 87.438 74.8872 78.528C74.8872 69.996 80.1792 64.434 87.1452 64.434C91.2492 64.434 93.8952 66.216 95.0832 68.214V65.082ZM82.7712 78.528C82.7712 82.74 85.0932 85.926 88.8732 85.926C92.6532 85.926 94.9212 82.74 94.9212 78.636V78.42C94.9212 74.37 92.7612 71.076 88.8732 71.076C85.0932 71.076 82.7712 74.316 82.7712 78.528ZM121.921 74.478C121.921 71.886 119.977 70.536 117.331 70.536C114.631 70.536 113.227 71.778 112.795 73.236H105.451C106.207 68.43 110.365 64.434 117.655 64.434C124.837 64.434 129.643 67.944 129.643 74.748V93H122.353V89.976C120.625 92.244 117.709 93.648 114.091 93.648C108.691 93.648 104.371 90.408 104.371 84.792C104.371 79.068 108.691 75.774 115.819 75.774H121.921V74.478ZM112.255 84.414C112.255 86.358 113.821 87.546 116.251 87.546C119.275 87.546 121.921 85.71 121.921 82.47V81.228H116.413C113.983 81.228 112.255 82.416 112.255 84.414Z" fill="#F5F5F5"/>
<path d="M3.996 54.984H14.256L24.786 81.66L35.262 54.984H45.468V93H37.746V67.458L27.756 92.676H21.708L11.772 67.674V93H3.996V54.984ZM47.8281 79.176C47.8281 70.05 53.3901 64.434 61.4901 64.434C69.4821 64.434 74.6121 69.942 74.6121 78.582V81.282H55.7661V81.39C55.7661 84.792 58.3041 87.438 62.0841 87.438C64.7841 87.438 66.3501 86.088 66.7281 85.008H74.3421C73.5861 88.896 69.8601 93.648 61.9221 93.648C53.4441 93.648 47.8281 88.248 47.8281 79.176ZM55.8201 75.774H66.9441C66.7281 72.588 64.6761 70.59 61.5441 70.59C58.4121 70.59 56.2521 72.534 55.8201 75.774ZM95.0832 65.082H102.643V91.002C102.643 99.21 97.4592 104.34 88.8732 104.34C80.5572 104.34 76.3992 99.642 75.9132 94.998H83.6352C84.1752 96.618 85.5792 98.076 88.9272 98.076C92.7072 98.076 94.7592 95.484 94.7592 90.948V89.058C93.3012 91.056 90.8712 92.568 86.9292 92.568C80.2332 92.568 74.8872 87.438 74.8872 78.528C74.8872 69.996 80.1792 64.434 87.1452 64.434C91.2492 64.434 93.8952 66.216 95.0832 68.214V65.082ZM82.7712 78.528C82.7712 82.74 85.0932 85.926 88.8732 85.926C92.6532 85.926 94.9212 82.74 94.9212 78.636V78.42C94.9212 74.37 92.7612 71.076 88.8732 71.076C85.0932 71.076 82.7712 74.316 82.7712 78.528ZM121.921 74.478C121.921 71.886 119.977 70.536 117.331 70.536C114.631 70.536 113.227 71.778 112.795 73.236H105.451C106.207 68.43 110.365 64.434 117.655 64.434C124.837 64.434 129.643 67.944 129.643 74.748V93H122.353V89.976C120.625 92.244 117.709 93.648 114.091 93.648C108.691 93.648 104.371 90.408 104.371 84.792C104.371 79.068 108.691 75.774 115.819 75.774H121.921V74.478ZM112.255 84.414C112.255 86.358 113.821 87.546 116.251 87.546C119.275 87.546 121.921 85.71 121.921 82.47V81.228H116.413C113.983 81.228 112.255 82.416 112.255 84.414Z" fill="url(#paint0_linear_2454_7807)"/>
<path fill-rule="evenodd" clip-rule="evenodd" d="M165.595 57.0228C165.055 56.6422 164.519 56.2645 163.98 55.9274C163.038 55.3373 161.927 55 160.748 55H150.357C149.218 55 148.143 55.3147 147.221 55.868C146.625 56.2261 146.033 56.6353 145.437 57.0474C143.657 58.2773 141.839 59.5331 139.764 59.5331C136.216 59.5331 133.379 62.5633 134.118 66.0336C136.052 75.1245 140.549 83.2149 146.78 89.4446C150.014 92.6772 151.63 94.2934 155.417 94.2934C159.203 94.2933 160.82 92.677 164.053 89.4444C170.32 83.1791 174.832 75.0322 176.748 65.8782C177.457 62.4893 174.69 59.5331 171.228 59.5331C169.159 59.5331 167.355 58.2625 165.595 57.0228ZM167.978 68.9474C168.756 68.156 168.745 66.884 167.953 66.1062C167.162 65.3283 165.89 65.3393 165.112 66.1307L155.805 75.6004C155.133 76.2835 154.798 76.6251 154.378 76.6251C153.959 76.6251 153.623 76.2835 152.952 75.6004L148.622 71.1948C147.844 70.4034 146.572 70.3924 145.781 71.1702C144.989 71.948 144.978 73.2201 145.756 74.0115L152.945 81.3262V81.3262C153.621 82.0138 153.959 82.3575 154.378 82.3575C154.798 82.3575 155.136 82.0138 155.811 81.3262V81.3262L167.978 68.9474Z" fill="#F5F5F5"/>
<path fill-rule="evenodd" clip-rule="evenodd" d="M165.595 57.0228C165.055 56.6422 164.519 56.2645 163.98 55.9274C163.038 55.3373 161.927 55 160.748 55H150.357C149.218 55 148.143 55.3147 147.221 55.868C146.625 56.2261 146.033 56.6353 145.437 57.0474C143.657 58.2773 141.839 59.5331 139.764 59.5331C136.216 59.5331 133.379 62.5633 134.118 66.0336C136.052 75.1245 140.549 83.2149 146.78 89.4446C150.014 92.6772 151.63 94.2934 155.417 94.2934C159.203 94.2933 160.82 92.677 164.053 89.4444C170.32 83.1791 174.832 75.0322 176.748 65.8782C177.457 62.4893 174.69 59.5331 171.228 59.5331C169.159 59.5331 167.355 58.2625 165.595 57.0228ZM167.978 68.9474C168.756 68.156 168.745 66.884 167.953 66.1062C167.162 65.3283 165.89 65.3393 165.112 66.1307L155.805 75.6004C155.133 76.2835 154.798 76.6251 154.378 76.6251C153.959 76.6251 153.623 76.2835 152.952 75.6004L148.622 71.1948C147.844 70.4034 146.572 70.3924 145.781 71.1702C144.989 71.948 144.978 73.2201 145.756 74.0115L152.945 81.3262V81.3262C153.621 82.0138 153.959 82.3575 154.378 82.3575C154.798 82.3575 155.136 82.0138 155.811 81.3262V81.3262L167.978 68.9474Z" fill="#35DAB2"/>
<defs>
<linearGradient id="paint0_linear_2454_7807" x1="-8.15794" y1="98.1068" x2="116.853" y2="91.8282" gradientUnits="userSpaceOnUse">
<stop stop-color="#0AF4BC"/>
<stop offset="0.595318" stop-color="#47CDAD"/>
<stop offset="0.727363" stop-color="#21E179"/>
</linearGradient>
</defs>
</svg>
