<svg width="1052" height="369" viewBox="0 0 1052 369" fill="none" xmlns="http://www.w3.org/2000/svg">
<path fill-rule="evenodd" clip-rule="evenodd" d="M70 58.5C70 37.8013 70 27.452 74.0938 19.5752C77.5395 12.9456 82.9456 7.53954 89.5752 4.09385C97.452 0 107.801 0 128.5 0H922.5C943.199 0 953.548 0 961.425 4.09385C968.054 7.53954 973.46 12.9456 976.906 19.5752C981 27.452 981 37.8013 981 58.5V84.5C981 102.449 995.551 117 1013.5 117C1031.45 117 1046 131.551 1046 149.5V190.342C1046 224.593 1046 241.719 1035.36 252.359C1024.72 263 1007.59 263 973.342 263H883C867.474 263 859.711 263 853.517 265.334C843.738 269.02 836.02 276.738 832.334 286.517C830 292.711 830 300.474 830 316C830 331.526 830 339.289 827.666 345.483C823.98 355.262 816.262 362.98 806.483 366.666C800.289 369 792.526 369 777 369H274C258.474 369 250.711 369 244.517 366.666C234.738 362.98 227.02 355.262 223.334 345.483C221 339.289 221 331.526 221 316C221 300.474 221 292.711 218.666 286.517C214.98 276.738 207.262 269.02 197.483 265.334C191.289 263 183.526 263 168 263H82.6582C48.4068 263 31.2811 263 20.6405 252.359C10 241.719 10 224.593 10 190.342V147C10 130.431 23.4315 117 40 117C56.5685 117 70 103.569 70 87V58.5Z" fill="white"/>
<path d="M122.746 26.0667L198.696 26.0667L198.696 117L178.933 117L178.933 43.6333L142.508 43.6333L142.508 117L122.746 117L122.746 26.0667ZM238.78 48.6708C258.542 48.6708 272.363 62.6208 272.363 83.675C272.363 104.729 258.542 118.55 238.78 118.55C218.888 118.55 205.067 104.729 205.067 83.675C205.067 62.6208 218.888 48.6708 238.78 48.6708ZM223.925 83.675C223.925 94.525 229.48 102.275 238.78 102.275C247.95 102.275 253.505 94.525 253.505 83.675C253.505 72.6958 247.95 64.9458 238.78 64.9458C229.48 64.9458 223.925 72.6958 223.925 83.675ZM270.703 66.4958L270.703 50.2208L329.603 50.2208L329.603 66.4958L309.582 66.4958L309.582 117L290.724 117L290.724 66.4958L270.703 66.4958ZM361.654 48.6708C381.417 48.6708 395.238 62.6208 395.238 83.675C395.238 104.729 381.417 118.55 361.654 118.55C341.763 118.55 327.942 104.729 327.942 83.675C327.942 62.6208 341.763 48.6708 361.654 48.6708ZM346.8 83.675C346.8 94.525 352.354 102.275 361.654 102.275C370.825 102.275 376.379 94.525 376.379 83.675C376.379 72.6958 370.825 64.9458 361.654 64.9458C352.354 64.9458 346.8 72.6958 346.8 83.675ZM400.123 50.2208L424.277 50.2208L442.231 93.2333L460.185 50.2208L483.823 50.2208L483.823 117L465.869 117L465.869 74.5042L448.302 116.483L435.644 116.483L418.077 74.7625L418.077 117L400.123 117L400.123 50.2208ZM534.639 50.2208L554.789 50.2208L519.656 141.671L499.635 141.671L509.71 115.192L484.781 50.2208L505.06 50.2208L519.914 93.1042L534.639 50.2208ZM614.415 50.2208L633.274 50.2208L633.274 117L614.415 117L614.415 91.8125C610.54 93.75 605.503 95.0417 599.432 95.0417C585.611 95.0417 573.986 86.9042 573.986 68.175L573.986 50.2208L592.715 50.2208L592.715 66.2375C592.715 74.7625 597.236 78.8958 605.115 78.8958C608.732 78.8958 611.832 78.1208 614.415 76.8292L614.415 50.2208ZM637.057 66.4958L637.057 50.2208L695.957 50.2208L695.957 66.4958L675.936 66.4958L675.936 117L657.078 117L657.078 66.4958L637.057 66.4958ZM728.008 48.6708C747.771 48.6708 761.592 62.6208 761.592 83.675C761.592 104.729 747.771 118.55 728.008 118.55C708.117 118.55 694.296 104.729 694.296 83.675C694.296 62.6208 708.117 48.6708 728.008 48.6708ZM713.154 83.675C713.154 94.525 718.708 102.275 728.008 102.275C737.179 102.275 742.733 94.525 742.733 83.675C742.733 72.6958 737.179 64.9458 728.008 64.9458C718.708 64.9458 713.154 72.6958 713.154 83.675ZM786.604 117L786.604 50.2208L818.379 50.2208C833.879 50.2208 841.499 57.5833 841.499 67.5292C841.499 75.15 836.979 79.9292 831.683 81.8667C838.141 83.675 843.954 88.8417 843.954 98.0125C843.954 108.733 835.558 117 819.154 117L786.604 117ZM805.074 103.696L816.829 103.696C822.254 103.696 825.224 100.983 825.224 96.4625C825.224 91.9417 822.254 89.4875 816.829 89.4875L805.074 89.4875L805.074 103.696ZM805.074 76.5708L815.537 76.5708C820.316 76.5708 823.029 73.9875 823.029 69.9833C823.029 65.85 820.445 63.525 815.537 63.525L805.074 63.525L805.074 76.5708ZM930.107 50.2208L930.107 117L911.636 117L911.636 50.2208L930.107 50.2208ZM848.861 117L848.861 50.2208L867.461 50.2208L867.461 69.2083L878.957 69.2083C894.844 69.2083 904.532 79.2833 904.532 92.975C904.532 106.667 894.715 117 878.957 117L848.861 117ZM867.461 101.888L876.632 101.888C882.444 101.888 886.061 98.0125 886.061 92.975C886.061 87.8083 882.444 84.3208 876.632 84.3208L867.461 84.3208L867.461 101.888ZM76.0912 205.275C83.8412 205.275 87.3287 200.496 88.4912 195.975L106.445 195.975C105.283 210.442 93.787 221.55 75.962 221.55C55.5537 221.55 42.7662 206.825 42.7662 186.675C42.7662 166.654 55.5537 151.671 75.962 151.671C94.4328 151.671 104.895 163.683 106.316 177.117L88.2328 177.117C86.9412 172.854 83.3245 167.946 75.962 167.946C67.1787 167.946 61.6245 175.438 61.6245 186.675C61.6245 198.042 67.3078 205.275 76.0912 205.275ZM149.896 220L131.037 220L131.037 153.221L149.896 153.221L149.896 177.633L173.533 177.633L173.533 153.221L192.392 153.221L192.392 220L173.533 220L173.533 193.908L149.896 193.908L149.896 220ZM239.096 175.696C239.096 169.496 234.446 166.267 228.117 166.267C221.659 166.267 218.301 169.238 217.267 172.725L199.701 172.725C201.509 161.229 211.455 151.671 228.892 151.671C246.071 151.671 257.567 160.067 257.567 176.342L257.567 220L240.13 220L240.13 212.767C235.996 218.192 229.021 221.55 220.367 221.55C207.451 221.55 197.117 213.8 197.117 200.367C197.117 186.675 207.451 178.796 224.501 178.796L239.096 178.796L239.096 175.696ZM215.976 199.463C215.976 204.113 219.721 206.954 225.534 206.954C232.767 206.954 239.096 202.563 239.096 194.813L239.096 191.842L225.921 191.842C220.109 191.842 215.976 194.683 215.976 199.463ZM265.391 153.221L289.545 153.221L307.499 196.233L325.453 153.221L349.091 153.221L349.091 220L331.137 220L331.137 177.504L313.57 219.483L300.912 219.483L283.345 177.763L283.345 220L265.391 220L265.391 153.221ZM419.799 153.221L419.799 220L401.328 220L401.328 180.992L375.494 220L357.669 220L357.669 153.221L376.14 153.221L376.14 191.971L401.974 153.221L419.799 153.221ZM433.416 189.904L431.995 129.067L451.499 129.067L450.078 189.904L433.416 189.904ZM430.445 210.313C430.445 203.983 435.482 199.075 441.941 199.075C448.27 199.075 453.178 203.983 453.178 210.313C453.178 216.642 448.27 221.55 441.941 221.55C435.482 221.55 430.445 216.642 430.445 210.313ZM475.883 193.263L475.883 176.213L540.466 176.213L540.466 193.263L475.883 193.263ZM585.546 155.804C585.546 149.217 580.379 144.567 572.887 144.567C564.879 144.567 560.1 149.088 558.937 155.546L539.95 155.546C541.371 139.529 553.641 127.517 573.275 127.517C593.425 127.517 605.308 139.788 605.308 155.158C605.308 167.946 598.075 175.954 589.033 183.833L567.075 202.95L606.858 202.95L606.858 220L540.596 220L540.596 203.983L574.954 172.983C581.541 167.042 585.546 162.521 585.546 155.804ZM647.546 204.629C656.2 204.629 662.141 198.688 662.141 189.904C662.141 180.992 655.425 175.567 647.675 175.567C641.604 175.567 636.566 178.021 633.466 182.929L614.091 182.929L618.483 129.067L676.608 129.067L676.608 146.117L635.016 146.117L633.079 167.946C637.083 163.296 643.8 159.938 652.583 159.938C667.696 159.938 681.904 170.013 681.904 189.517C681.904 209.796 666.791 221.55 647.933 221.55C628.558 221.55 615.125 210.054 613.446 194.813L632.95 194.813C634.112 199.463 639.021 204.629 647.546 204.629ZM743.712 127.517C766.187 127.517 780.525 146.504 780.525 174.533C780.525 202.563 766.187 221.55 743.712 221.55C721.237 221.55 706.9 202.563 706.9 174.533C706.9 146.504 721.237 127.517 743.712 127.517ZM726.662 174.533C726.662 191.454 732.087 204.371 743.712 204.371C755.337 204.371 760.891 191.454 760.891 174.533C760.891 157.613 755.337 144.696 743.712 144.696C732.087 144.696 726.662 157.613 726.662 174.533ZM822.494 127.517C844.969 127.517 859.306 146.504 859.306 174.533C859.306 202.563 844.969 221.55 822.494 221.55C800.019 221.55 785.681 202.563 785.681 174.533C785.681 146.504 800.019 127.517 822.494 127.517ZM805.444 174.533C805.444 191.454 810.869 204.371 822.494 204.371C834.119 204.371 839.673 191.454 839.673 174.533C839.673 157.613 834.119 144.696 822.494 144.696C810.869 144.696 805.444 157.613 805.444 174.533ZM901.275 127.517C923.75 127.517 938.088 146.504 938.088 174.533C938.088 202.563 923.75 221.55 901.275 221.55C878.8 221.55 864.463 202.563 864.463 174.533C864.463 146.504 878.8 127.517 901.275 127.517ZM884.225 174.533C884.225 191.454 889.65 204.371 901.275 204.371C912.9 204.371 918.454 191.454 918.454 174.533C918.454 157.613 912.9 144.696 901.275 144.696C889.65 144.696 884.225 157.613 884.225 174.533ZM985.611 129.067C1004.73 129.067 1016.22 140.563 1016.22 156.967C1016.22 173.371 1004.73 184.608 986.515 184.608L971.661 184.608L971.661 193.521L997.236 193.521L997.236 206.308L971.661 206.308L971.661 220L952.674 220L952.674 206.308L940.274 206.308L940.274 193.521L952.674 193.521L952.674 184.608L940.274 184.608L940.274 170.4L952.674 170.4L952.674 129.067L985.611 129.067ZM971.661 169.754L983.286 169.754C992.069 169.754 996.978 164.588 996.978 157.225C996.978 149.863 992.199 144.825 983.286 144.825L971.661 144.825L971.661 169.754ZM290.619 323L271.761 323L271.761 256.221L290.619 256.221L290.619 280.633L314.257 280.633L314.257 256.221L333.115 256.221L333.115 323L314.257 323L314.257 296.908L290.619 296.908L290.619 323ZM379.82 278.696C379.82 272.496 375.17 269.267 368.841 269.267C362.383 269.267 359.024 272.238 357.991 275.725L340.424 275.725C342.233 264.229 352.178 254.671 369.616 254.671C386.795 254.671 398.291 263.067 398.291 279.342L398.291 323L380.853 323L380.853 315.767C376.72 321.192 369.745 324.55 361.091 324.55C348.174 324.55 337.841 316.8 337.841 303.367C337.841 289.675 348.174 281.796 365.224 281.796L379.82 281.796L379.82 278.696ZM356.699 302.463C356.699 307.113 360.445 309.954 366.258 309.954C373.491 309.954 379.82 305.563 379.82 297.813L379.82 294.842L366.645 294.842C360.833 294.842 356.699 297.683 356.699 302.463ZM447.425 323L427.662 323L427.662 232.067L447.425 232.067L447.425 267.588L484.237 267.588L484.237 232.067L504 232.067L504 323L484.237 323L484.237 285.283L447.425 285.283L447.425 323ZM510.362 289.933C510.362 268.104 523.666 254.671 543.041 254.671C562.158 254.671 574.429 267.846 574.429 288.513L574.429 294.971L529.35 294.971L529.35 295.229C529.35 303.367 535.42 309.696 544.462 309.696C550.92 309.696 554.666 306.467 555.57 303.883L573.783 303.883C571.975 313.183 563.062 324.55 544.075 324.55C523.795 324.55 510.362 311.633 510.362 289.933ZM529.479 281.796L556.087 281.796C555.57 274.175 550.662 269.396 543.17 269.396C535.679 269.396 530.512 274.046 529.479 281.796ZM598.248 229.096L598.248 323L579.39 323L579.39 229.096L598.248 229.096ZM644.42 254.671C660.307 254.671 673.353 267.329 673.353 289.675C673.353 311.633 660.307 324.55 643.903 324.55C635.378 324.55 629.049 321.192 625.691 316.542L625.691 347.671L606.832 347.671L606.832 256.221L624.916 256.221L624.916 263.971C628.274 258.933 634.603 254.671 644.42 254.671ZM625.303 289.933C625.303 301.171 631.116 308.275 639.899 308.275C648.682 308.275 654.366 301.042 654.366 289.675C654.366 278.308 648.682 270.946 639.899 270.946C631.116 270.946 625.303 278.179 625.303 289.417L625.303 289.933ZM674.681 289.933C674.681 268.104 687.985 254.671 707.36 254.671C726.477 254.671 738.748 267.846 738.748 288.513L738.748 294.971L693.669 294.971L693.669 295.229C693.669 303.367 699.74 309.696 708.781 309.696C715.24 309.696 718.985 306.467 719.89 303.883L738.102 303.883C736.294 313.183 727.381 324.55 708.394 324.55C688.115 324.55 674.681 311.633 674.681 289.933ZM693.798 281.796L720.406 281.796C719.89 274.175 714.981 269.396 707.49 269.396C699.998 269.396 694.831 274.046 693.798 281.796ZM781.167 255.963L784.525 255.963L784.525 273.788L780.134 273.788C768.767 273.788 762.567 279.6 762.567 289.158L762.567 323L743.709 323L743.709 256.221L761.792 256.221L761.792 266.554C766.184 258.804 773.546 255.963 781.167 255.963Z" fill="url(#paint0_linear_9_18361)"/>
<path d="M122.746 26.0667L198.696 26.0667L198.696 117L178.933 117L178.933 43.6333L142.508 43.6333L142.508 117L122.746 117L122.746 26.0667ZM238.78 48.6708C258.542 48.6708 272.363 62.6208 272.363 83.675C272.363 104.729 258.542 118.55 238.78 118.55C218.888 118.55 205.067 104.729 205.067 83.675C205.067 62.6208 218.888 48.6708 238.78 48.6708ZM223.925 83.675C223.925 94.525 229.48 102.275 238.78 102.275C247.95 102.275 253.505 94.525 253.505 83.675C253.505 72.6958 247.95 64.9458 238.78 64.9458C229.48 64.9458 223.925 72.6958 223.925 83.675ZM270.703 66.4958L270.703 50.2208L329.603 50.2208L329.603 66.4958L309.582 66.4958L309.582 117L290.724 117L290.724 66.4958L270.703 66.4958ZM361.654 48.6708C381.417 48.6708 395.238 62.6208 395.238 83.675C395.238 104.729 381.417 118.55 361.654 118.55C341.763 118.55 327.942 104.729 327.942 83.675C327.942 62.6208 341.763 48.6708 361.654 48.6708ZM346.8 83.675C346.8 94.525 352.354 102.275 361.654 102.275C370.825 102.275 376.379 94.525 376.379 83.675C376.379 72.6958 370.825 64.9458 361.654 64.9458C352.354 64.9458 346.8 72.6958 346.8 83.675ZM400.123 50.2208L424.277 50.2208L442.231 93.2333L460.185 50.2208L483.823 50.2208L483.823 117L465.869 117L465.869 74.5042L448.302 116.483L435.644 116.483L418.077 74.7625L418.077 117L400.123 117L400.123 50.2208ZM534.639 50.2208L554.789 50.2208L519.656 141.671L499.635 141.671L509.71 115.192L484.781 50.2208L505.06 50.2208L519.914 93.1042L534.639 50.2208ZM614.415 50.2208L633.274 50.2208L633.274 117L614.415 117L614.415 91.8125C610.54 93.75 605.503 95.0417 599.432 95.0417C585.611 95.0417 573.986 86.9042 573.986 68.175L573.986 50.2208L592.715 50.2208L592.715 66.2375C592.715 74.7625 597.236 78.8958 605.115 78.8958C608.732 78.8958 611.832 78.1208 614.415 76.8292L614.415 50.2208ZM637.057 66.4958L637.057 50.2208L695.957 50.2208L695.957 66.4958L675.936 66.4958L675.936 117L657.078 117L657.078 66.4958L637.057 66.4958ZM728.008 48.6708C747.771 48.6708 761.592 62.6208 761.592 83.675C761.592 104.729 747.771 118.55 728.008 118.55C708.117 118.55 694.296 104.729 694.296 83.675C694.296 62.6208 708.117 48.6708 728.008 48.6708ZM713.154 83.675C713.154 94.525 718.708 102.275 728.008 102.275C737.179 102.275 742.733 94.525 742.733 83.675C742.733 72.6958 737.179 64.9458 728.008 64.9458C718.708 64.9458 713.154 72.6958 713.154 83.675ZM786.604 117L786.604 50.2208L818.379 50.2208C833.879 50.2208 841.499 57.5833 841.499 67.5292C841.499 75.15 836.979 79.9292 831.683 81.8667C838.141 83.675 843.954 88.8417 843.954 98.0125C843.954 108.733 835.558 117 819.154 117L786.604 117ZM805.074 103.696L816.829 103.696C822.254 103.696 825.224 100.983 825.224 96.4625C825.224 91.9417 822.254 89.4875 816.829 89.4875L805.074 89.4875L805.074 103.696ZM805.074 76.5708L815.537 76.5708C820.316 76.5708 823.029 73.9875 823.029 69.9833C823.029 65.85 820.445 63.525 815.537 63.525L805.074 63.525L805.074 76.5708ZM930.107 50.2208L930.107 117L911.636 117L911.636 50.2208L930.107 50.2208ZM848.861 117L848.861 50.2208L867.461 50.2208L867.461 69.2083L878.957 69.2083C894.844 69.2083 904.532 79.2833 904.532 92.975C904.532 106.667 894.715 117 878.957 117L848.861 117ZM867.461 101.888L876.632 101.888C882.444 101.888 886.061 98.0125 886.061 92.975C886.061 87.8083 882.444 84.3208 876.632 84.3208L867.461 84.3208L867.461 101.888ZM76.0912 205.275C83.8412 205.275 87.3287 200.496 88.4912 195.975L106.445 195.975C105.283 210.442 93.787 221.55 75.962 221.55C55.5537 221.55 42.7662 206.825 42.7662 186.675C42.7662 166.654 55.5537 151.671 75.962 151.671C94.4328 151.671 104.895 163.683 106.316 177.117L88.2328 177.117C86.9412 172.854 83.3245 167.946 75.962 167.946C67.1787 167.946 61.6245 175.438 61.6245 186.675C61.6245 198.042 67.3078 205.275 76.0912 205.275ZM149.896 220L131.037 220L131.037 153.221L149.896 153.221L149.896 177.633L173.533 177.633L173.533 153.221L192.392 153.221L192.392 220L173.533 220L173.533 193.908L149.896 193.908L149.896 220ZM239.096 175.696C239.096 169.496 234.446 166.267 228.117 166.267C221.659 166.267 218.301 169.238 217.267 172.725L199.701 172.725C201.509 161.229 211.455 151.671 228.892 151.671C246.071 151.671 257.567 160.067 257.567 176.342L257.567 220L240.13 220L240.13 212.767C235.996 218.192 229.021 221.55 220.367 221.55C207.451 221.55 197.117 213.8 197.117 200.367C197.117 186.675 207.451 178.796 224.501 178.796L239.096 178.796L239.096 175.696ZM215.976 199.463C215.976 204.113 219.721 206.954 225.534 206.954C232.767 206.954 239.096 202.563 239.096 194.813L239.096 191.842L225.921 191.842C220.109 191.842 215.976 194.683 215.976 199.463ZM265.391 153.221L289.545 153.221L307.499 196.233L325.453 153.221L349.091 153.221L349.091 220L331.137 220L331.137 177.504L313.57 219.483L300.912 219.483L283.345 177.763L283.345 220L265.391 220L265.391 153.221ZM419.799 153.221L419.799 220L401.328 220L401.328 180.992L375.494 220L357.669 220L357.669 153.221L376.14 153.221L376.14 191.971L401.974 153.221L419.799 153.221ZM433.416 189.904L431.995 129.067L451.499 129.067L450.078 189.904L433.416 189.904ZM430.445 210.313C430.445 203.983 435.482 199.075 441.941 199.075C448.27 199.075 453.178 203.983 453.178 210.313C453.178 216.642 448.27 221.55 441.941 221.55C435.482 221.55 430.445 216.642 430.445 210.313ZM475.883 193.263L475.883 176.213L540.466 176.213L540.466 193.263L475.883 193.263ZM585.546 155.804C585.546 149.217 580.379 144.567 572.887 144.567C564.879 144.567 560.1 149.088 558.937 155.546L539.95 155.546C541.371 139.529 553.641 127.517 573.275 127.517C593.425 127.517 605.308 139.788 605.308 155.158C605.308 167.946 598.075 175.954 589.033 183.833L567.075 202.95L606.858 202.95L606.858 220L540.596 220L540.596 203.983L574.954 172.983C581.541 167.042 585.546 162.521 585.546 155.804ZM647.546 204.629C656.2 204.629 662.141 198.688 662.141 189.904C662.141 180.992 655.425 175.567 647.675 175.567C641.604 175.567 636.566 178.021 633.466 182.929L614.091 182.929L618.483 129.067L676.608 129.067L676.608 146.117L635.016 146.117L633.079 167.946C637.083 163.296 643.8 159.938 652.583 159.938C667.696 159.938 681.904 170.013 681.904 189.517C681.904 209.796 666.791 221.55 647.933 221.55C628.558 221.55 615.125 210.054 613.446 194.813L632.95 194.813C634.112 199.463 639.021 204.629 647.546 204.629ZM743.712 127.517C766.187 127.517 780.525 146.504 780.525 174.533C780.525 202.563 766.187 221.55 743.712 221.55C721.237 221.55 706.9 202.563 706.9 174.533C706.9 146.504 721.237 127.517 743.712 127.517ZM726.662 174.533C726.662 191.454 732.087 204.371 743.712 204.371C755.337 204.371 760.891 191.454 760.891 174.533C760.891 157.613 755.337 144.696 743.712 144.696C732.087 144.696 726.662 157.613 726.662 174.533ZM822.494 127.517C844.969 127.517 859.306 146.504 859.306 174.533C859.306 202.563 844.969 221.55 822.494 221.55C800.019 221.55 785.681 202.563 785.681 174.533C785.681 146.504 800.019 127.517 822.494 127.517ZM805.444 174.533C805.444 191.454 810.869 204.371 822.494 204.371C834.119 204.371 839.673 191.454 839.673 174.533C839.673 157.613 834.119 144.696 822.494 144.696C810.869 144.696 805.444 157.613 805.444 174.533ZM901.275 127.517C923.75 127.517 938.088 146.504 938.088 174.533C938.088 202.563 923.75 221.55 901.275 221.55C878.8 221.55 864.463 202.563 864.463 174.533C864.463 146.504 878.8 127.517 901.275 127.517ZM884.225 174.533C884.225 191.454 889.65 204.371 901.275 204.371C912.9 204.371 918.454 191.454 918.454 174.533C918.454 157.613 912.9 144.696 901.275 144.696C889.65 144.696 884.225 157.613 884.225 174.533ZM985.611 129.067C1004.73 129.067 1016.22 140.563 1016.22 156.967C1016.22 173.371 1004.73 184.608 986.515 184.608L971.661 184.608L971.661 193.521L997.236 193.521L997.236 206.308L971.661 206.308L971.661 220L952.674 220L952.674 206.308L940.274 206.308L940.274 193.521L952.674 193.521L952.674 184.608L940.274 184.608L940.274 170.4L952.674 170.4L952.674 129.067L985.611 129.067ZM971.661 169.754L983.286 169.754C992.069 169.754 996.978 164.588 996.978 157.225C996.978 149.863 992.199 144.825 983.286 144.825L971.661 144.825L971.661 169.754ZM290.619 323L271.761 323L271.761 256.221L290.619 256.221L290.619 280.633L314.257 280.633L314.257 256.221L333.115 256.221L333.115 323L314.257 323L314.257 296.908L290.619 296.908L290.619 323ZM379.82 278.696C379.82 272.496 375.17 269.267 368.841 269.267C362.383 269.267 359.024 272.238 357.991 275.725L340.424 275.725C342.233 264.229 352.178 254.671 369.616 254.671C386.795 254.671 398.291 263.067 398.291 279.342L398.291 323L380.853 323L380.853 315.767C376.72 321.192 369.745 324.55 361.091 324.55C348.174 324.55 337.841 316.8 337.841 303.367C337.841 289.675 348.174 281.796 365.224 281.796L379.82 281.796L379.82 278.696ZM356.699 302.463C356.699 307.113 360.445 309.954 366.258 309.954C373.491 309.954 379.82 305.563 379.82 297.813L379.82 294.842L366.645 294.842C360.833 294.842 356.699 297.683 356.699 302.463ZM447.425 323L427.662 323L427.662 232.067L447.425 232.067L447.425 267.588L484.237 267.588L484.237 232.067L504 232.067L504 323L484.237 323L484.237 285.283L447.425 285.283L447.425 323ZM510.362 289.933C510.362 268.104 523.666 254.671 543.041 254.671C562.158 254.671 574.429 267.846 574.429 288.513L574.429 294.971L529.35 294.971L529.35 295.229C529.35 303.367 535.42 309.696 544.462 309.696C550.92 309.696 554.666 306.467 555.57 303.883L573.783 303.883C571.975 313.183 563.062 324.55 544.075 324.55C523.795 324.55 510.362 311.633 510.362 289.933ZM529.479 281.796L556.087 281.796C555.57 274.175 550.662 269.396 543.17 269.396C535.679 269.396 530.512 274.046 529.479 281.796ZM598.248 229.096L598.248 323L579.39 323L579.39 229.096L598.248 229.096ZM644.42 254.671C660.307 254.671 673.353 267.329 673.353 289.675C673.353 311.633 660.307 324.55 643.903 324.55C635.378 324.55 629.049 321.192 625.691 316.542L625.691 347.671L606.832 347.671L606.832 256.221L624.916 256.221L624.916 263.971C628.274 258.933 634.603 254.671 644.42 254.671ZM625.303 289.933C625.303 301.171 631.116 308.275 639.899 308.275C648.682 308.275 654.366 301.042 654.366 289.675C654.366 278.308 648.682 270.946 639.899 270.946C631.116 270.946 625.303 278.179 625.303 289.417L625.303 289.933ZM674.681 289.933C674.681 268.104 687.985 254.671 707.36 254.671C726.477 254.671 738.748 267.846 738.748 288.513L738.748 294.971L693.669 294.971L693.669 295.229C693.669 303.367 699.74 309.696 708.781 309.696C715.24 309.696 718.985 306.467 719.89 303.883L738.102 303.883C736.294 313.183 727.381 324.55 708.394 324.55C688.115 324.55 674.681 311.633 674.681 289.933ZM693.798 281.796L720.406 281.796C719.89 274.175 714.981 269.396 707.49 269.396C699.998 269.396 694.831 274.046 693.798 281.796ZM781.167 255.963L784.525 255.963L784.525 273.788L780.134 273.788C768.767 273.788 762.567 279.6 762.567 289.158L762.567 323L743.709 323L743.709 256.221L761.792 256.221L761.792 266.554C766.184 258.804 773.546 255.963 781.167 255.963Z" fill="#FF00E6" fill-opacity="0.2"/>
<defs>
<linearGradient id="paint0_linear_9_18361" x1="162.299" y1="-18.7856" x2="815.58" y2="372.396" gradientUnits="userSpaceOnUse">
<stop stop-color="#C6617F"/>
<stop offset="0.340122" stop-color="#E39BB5"/>
<stop offset="0.505208" stop-color="#FBB9C8"/>
<stop offset="0.961248" stop-color="#E38BA7"/>
</linearGradient>
</defs>
</svg>
