<svg width="40" height="40" viewBox="0 0 40 40" fill="none" xmlns="http://www.w3.org/2000/svg">
<rect width="40" height="40" rx="20" fill="#5DFF22"/>
<path fill-rule="evenodd" clip-rule="evenodd" d="M7.54998 25.705C7.19748 25.4583 7.17485 24.9599 7.16605 24.5297C7.13744 23.1318 7.09793 21.7394 7.04748 20.3523C7.00377 18.7356 6.98193 17.1189 6.98193 15.5022V13.9291C6.99649 13.5941 7.00377 13.281 7.00377 12.9897L7.00376 12.9567C7.00356 12.5594 7.00334 12.1272 7.26596 11.8317C7.38246 11.6861 7.56454 11.6133 7.81214 11.6133C8.05977 11.6133 8.27825 11.6934 8.46757 11.8536C8.65693 11.9992 8.80987 12.174 8.92637 12.3779L12.0724 18.4516C12.087 18.4807 12.138 18.5681 12.2254 18.7138C12.2864 18.8155 12.3368 18.8959 12.3765 18.955C12.4059 18.9987 12.4405 19.0398 12.4875 19.0633C12.5008 19.07 12.5515 19.0615 12.5575 19.048L12.6186 18.9104L14.2739 13.0878C14.3346 12.8742 14.4173 12.6668 14.4998 12.4594C14.5992 12.21 14.6985 11.9607 14.7597 11.7007C14.8325 11.4385 14.9054 11.1836 14.9782 10.936C15.0656 10.6884 15.1675 10.4553 15.284 10.2369C15.388 10.0637 15.5285 9.91339 15.7056 9.78595C15.7985 9.71914 15.9124 9.69067 16.0269 9.69067C16.4201 9.69067 16.7114 9.80721 16.9008 10.0402C17.0901 10.2587 17.2212 10.5354 17.294 10.8705C17.3668 11.1909 17.396 11.5332 17.3814 11.8973C17.3814 12.2469 17.3887 12.5527 17.4033 12.8149C17.4033 12.9169 17.4106 13.1135 17.4251 13.4048C17.4543 13.6961 17.4834 14.0384 17.5125 14.4316C17.5417 14.8249 17.5708 15.2473 17.5999 15.6988C17.629 16.1357 17.6509 16.5509 17.6654 16.9441C17.6946 17.3373 17.7164 17.6796 17.731 17.9709C17.7601 18.2623 17.7747 18.4516 17.7747 18.539V18.6264C17.7892 18.7575 17.8184 18.976 17.8621 19.2818C17.9058 19.5877 17.9495 19.9154 17.9932 20.265C18.0514 20.6 18.1024 20.9204 18.1461 21.2262C18.1898 21.5321 18.2262 21.7433 18.2553 21.8598L18.3209 22.1875C18.3646 22.3332 18.4083 22.4934 18.452 22.6682C18.4795 22.7439 18.5054 22.818 18.5297 22.8905C18.5794 21.9032 18.676 20.9843 18.8195 20.1339C19.0234 18.9105 19.3438 17.8399 19.7808 16.9224C20.2177 15.9902 20.7785 15.2182 21.463 14.6065C22.1263 14.0138 22.9263 13.5851 23.8631 13.3206C23.9231 13.3036 23.9698 13.2956 24.0322 13.2956C24.0714 13.2956 24.1261 13.2922 24.1648 13.2864C24.2204 13.278 24.2593 13.2738 24.2814 13.2738C24.7183 13.2592 25.0315 13.4631 25.2208 13.8855C25.4248 14.2933 25.5704 14.9488 25.6578 15.8518C25.7597 16.7403 25.8253 17.8909 25.8544 19.3037C25.895 20.6012 25.9669 22.1431 26.0701 23.9296C26.0772 24.0524 26.0954 24.1745 26.1137 24.2965C26.137 24.4524 26.1603 24.6084 26.1603 24.7657C26.1749 24.8822 26.1821 25.0205 26.1821 25.1808C26.1821 25.3992 26.1166 25.5668 25.9855 25.6833C25.8544 25.7852 25.6869 25.8362 25.483 25.8362C25.0606 25.8362 24.7621 25.7197 24.5872 25.4867C24.467 25.3263 24.3743 25.1281 24.3093 24.8919C24.2585 24.7077 24.2345 24.5171 24.2106 24.3271C24.2052 24.2839 24.1997 24.2406 24.194 24.1976C24.1794 23.9791 24.1503 23.7315 24.1066 23.4548L24.0192 22.5809C23.9901 22.2896 23.9682 22.0493 23.9537 21.8599C23.9537 21.8018 23.9475 21.7439 23.938 21.6865C23.9166 21.5572 23.9 21.4038 23.8881 21.2263C23.8881 21.0079 23.8736 20.7967 23.8444 20.5927C23.8163 20.3534 23.7949 20.114 23.7804 19.8746C23.7794 19.8585 23.7735 19.8432 23.7635 19.8306C23.7291 19.7876 23.6621 19.793 23.6354 19.8412C23.5173 20.054 23.3831 20.3045 23.2327 20.5927L22.7084 21.6415C22.519 22.0056 22.3078 22.377 22.0748 22.7557C21.8563 23.1198 21.6232 23.4548 21.3757 23.7607C21.1426 24.0665 20.895 24.3287 20.6328 24.5472C20.4912 24.6574 20.3474 24.7442 20.2014 24.8076C19.9608 24.9121 19.6922 24.9228 19.4312 24.8968C19.2856 24.8676 19.1399 24.8312 18.9943 24.7875L18.9858 24.7841C18.7244 24.6779 18.4918 24.4578 18.4918 24.1758L18.492 24.1492C18.4791 24.1736 18.4657 24.197 18.452 24.2194C18.35 24.3942 18.117 24.4816 17.7529 24.4816H17.5894C17.5673 24.4816 17.5268 24.4767 17.505 24.4732C17.4268 24.4607 17.3683 24.4359 17.3075 24.3853C17.2633 24.3486 17.2079 24.3006 17.1411 24.2412C17.0246 24.1247 16.959 24.0446 16.9445 24.0009C16.7956 23.4892 16.7212 23.2334 16.6614 22.974C16.6337 22.854 16.6085 22.7335 16.5855 22.6126C16.5361 22.3517 16.5014 22.0882 16.4322 21.5627L15.9395 17.818V17.6214C15.9249 17.3592 15.9176 17.0825 15.9176 16.7912C15.9176 16.4853 15.9104 16.1794 15.8958 15.8736C15.8958 15.5677 15.8812 15.2618 15.8521 14.956C15.8282 14.7055 15.7848 14.4696 15.7219 14.2484C15.7038 14.1849 15.6227 14.1694 15.5805 14.2201C15.5723 14.2299 15.5665 14.2414 15.5634 14.2538L14.1218 20.0602C14.0374 20.4001 13.9782 20.7459 13.9513 21.0952C13.9368 21.27 13.9004 21.4447 13.8421 21.6195C13.7838 21.7797 13.6965 21.9181 13.5799 22.0346C13.4634 22.1512 13.2959 22.2167 13.0774 22.2313C12.99 22.2458 12.8954 22.2313 12.7934 22.1875C12.6915 22.1438 12.5895 22.0856 12.4875 22.0128C12.4109 21.958 12.3384 21.8992 12.27 21.8362C12.2249 21.7947 12.1776 21.7382 12.1472 21.685C12.114 21.6269 12.0872 21.5678 12.0605 21.5089C12.0284 21.4381 11.9964 21.3675 11.9536 21.2993L9.29778 17.0752C9.18349 16.8466 8.83898 16.9279 8.83898 17.1835V18.0365C8.83898 18.925 8.85354 19.7989 8.88269 20.6582C8.92637 21.503 8.94824 22.3696 8.94824 23.2581V23.6513C8.94824 23.8261 8.94092 24.0155 8.92637 24.2194V24.8093C8.92637 25.0553 8.90181 25.3098 8.76304 25.5129C8.73284 25.5571 8.69988 25.5993 8.66421 25.6395C8.56224 25.7706 8.4093 25.8361 8.20542 25.8361C7.92867 25.8361 7.7102 25.7924 7.54998 25.705ZM23.0217 17.0612C23.1435 16.4095 22.4557 16.068 22.0529 16.5946C21.6742 17.0898 21.4048 17.5705 21.2446 18.0366C21.1717 18.2551 21.0916 18.5536 21.0042 18.9323C20.9169 19.311 20.8368 19.6897 20.7639 20.0684C20.7057 20.4325 20.6547 20.7748 20.611 21.0952C20.5749 21.3479 20.5537 21.5261 20.5474 21.6297C20.5456 21.6603 20.5676 21.6793 20.583 21.6528C20.586 21.6476 20.5913 21.6393 20.5955 21.6351L20.6547 21.5759C21.5577 20.702 22.1913 19.7625 22.5554 18.7576C22.7556 18.2186 22.9111 17.6531 23.0217 17.0612ZM27.1162 27.3435C27.002 27.7433 26.9622 28.2437 27.3132 28.4664C27.3203 28.4708 27.3274 28.4752 27.3347 28.4796C27.7229 28.6979 28.2296 28.664 28.5428 28.3474C28.5946 28.295 28.6434 28.2371 28.6892 28.1737C28.8786 27.9115 29.0388 27.5984 29.1699 27.2343C29.3155 26.8847 29.4393 26.4987 29.5413 26.0764C29.6432 25.654 29.7452 25.2461 29.8472 24.8529C29.9491 24.445 30.0656 24.0736 30.1967 23.7387C30.3142 23.4384 30.461 23.1966 30.637 23.0134C30.6758 22.9729 30.7304 22.9521 30.7866 22.9521C30.9177 22.9521 31.1143 23.0687 31.3765 23.3017C31.6532 23.5347 31.9518 23.7896 32.2723 24.0664C32.5927 24.3431 32.9058 24.598 33.2117 24.831C33.5321 25.0641 33.8016 25.1806 34.0201 25.1806C34.224 25.1806 34.4133 25.1223 34.5881 25.0058C34.7775 24.8893 34.8721 24.7072 34.8721 24.4596C34.8721 24.4307 34.8675 24.4019 34.8583 24.3745L34.8398 24.3189C34.8038 24.2108 34.7391 24.1146 34.6526 24.0403L31.2236 21.0951L32.7162 15.9775C32.7405 15.894 32.7529 15.8075 32.7529 15.7206C32.7529 15.4729 32.6582 15.2763 32.4689 15.1307C32.2941 14.985 32.0975 14.9122 31.879 14.9122C31.7625 14.9122 31.6241 14.934 31.4639 14.9777C31.3037 15.0069 31.209 15.087 31.1799 15.2181C30.9177 16.0337 30.6992 16.7037 30.5244 17.228C30.3497 17.7524 30.2113 18.1748 30.1093 18.4952C30.0074 18.8156 29.9273 19.056 29.869 19.2162C29.8399 19.3132 29.8173 19.394 29.8011 19.4587C29.7888 19.508 29.745 19.5439 29.6942 19.5439C29.5631 19.5439 29.4029 19.4274 29.2136 19.1944C29.0388 18.9467 28.8349 18.6846 28.6018 18.4078C28.3834 18.1165 28.1285 17.8543 27.8372 17.6213C27.5604 17.3737 27.2546 17.2499 26.9196 17.2499C26.7011 17.2499 26.5045 17.3154 26.3297 17.4465C26.1695 17.5776 26.0894 17.7597 26.0894 17.9927C26.0894 18.0489 26.1108 18.1028 26.1489 18.1441C26.35 18.3621 26.5632 18.6102 26.7885 18.8885C27.0361 19.1944 27.291 19.5002 27.5532 19.8061C27.8153 20.0974 28.0775 20.3814 28.3397 20.6581C28.5898 20.8951 28.834 21.0904 29.0722 21.2441C29.1189 21.2742 29.1481 21.316 29.1481 21.3716C29.1481 21.3847 29.1497 21.4073 29.1527 21.4201C29.1581 21.443 29.1622 21.4634 29.165 21.4813C29.1704 21.5148 29.1675 21.5489 29.1613 21.5823C29.1268 21.7691 29.0495 22.0291 28.9296 22.3622C28.813 22.7118 28.6674 23.1123 28.4926 23.5639C28.3324 24.0008 28.1649 24.4596 27.9901 24.9403C27.8153 25.4209 27.6478 25.8652 27.4876 26.273C27.342 26.6954 27.2181 27.0522 27.1162 27.3435Z" fill="black"/>
</svg>
