<svg width="528" height="258" viewBox="0 0 528 258" fill="none" xmlns="http://www.w3.org/2000/svg">
<path d="M22.6685 104.594H0.65625V3.30904H22.6685V42.8736H63.6718V3.30904H85.6841V104.594H63.6718V62.5839H22.6685V104.594Z" fill="white"/>
<path d="M163.172 73.3743H112.961V73.662C112.961 78.2659 114.495 82.1024 117.565 85.1717C120.73 88.2409 124.806 89.7756 129.794 89.7756C133.055 89.7756 135.788 89.1042 137.994 87.7614C140.2 86.4186 141.591 84.9319 142.167 83.3014H162.452C161.301 89.344 157.896 94.7151 152.238 99.4149C146.675 104.019 139.049 106.321 129.362 106.321C117.948 106.321 108.836 102.916 102.027 96.1059C95.2167 89.2001 91.8117 79.7525 91.8117 67.7633C91.8117 55.774 95.1207 46.2306 101.739 39.1329C108.453 32.0353 117.277 28.4865 128.211 28.4865C138.858 28.4865 147.346 31.8914 153.676 38.7013C160.007 45.5112 163.172 54.671 163.172 66.1807V73.3743ZM128.355 44.8878C124.135 44.8878 120.682 46.1347 117.996 48.6284C115.311 51.0263 113.68 54.3833 113.105 58.6994H142.742C142.454 54.4792 141.016 51.1222 138.426 48.6284C135.836 46.1347 132.479 44.8878 128.355 44.8878Z" fill="white"/>
<path d="M188.743 0V104.594H167.738V0H188.743Z" fill="white"/>
<path d="M239.213 28.4865C248.42 28.4865 256.093 31.9873 262.232 38.9891C268.37 45.8949 271.44 55.3904 271.44 67.4755C271.44 79.3689 268.322 88.8164 262.088 95.8182C255.854 102.82 248.037 106.321 238.637 106.321C229.237 106.321 222.476 103.347 218.351 97.4007V132.074H197.346V30.2129H217.488V38.8452C222.092 31.9394 229.333 28.4865 239.213 28.4865ZM222.38 82.7259C225.353 86.3706 229.285 88.193 234.177 88.193C239.069 88.193 242.953 86.3227 245.831 82.582C248.804 78.8414 250.291 73.8059 250.291 67.4755C250.291 61.1452 248.804 56.1097 245.831 52.3691C242.953 48.5325 239.069 46.6142 234.177 46.6142C229.285 46.6142 225.353 48.4846 222.38 52.2252C219.406 55.9659 217.92 60.9534 217.92 67.1878V67.7633C217.92 73.9977 219.406 78.9852 222.38 82.7259Z" fill="white"/>
<path d="M343.32 73.3743H293.109V73.662C293.109 78.2659 294.643 82.1024 297.713 85.1717C300.878 88.2409 304.954 89.7756 309.942 89.7756C313.203 89.7756 315.936 89.1042 318.142 87.7614C320.348 86.4186 321.739 84.9319 322.315 83.3014H342.6C341.449 89.344 338.044 94.7151 332.386 99.4149C326.823 104.019 319.197 106.321 309.51 106.321C298.096 106.321 288.984 102.916 282.175 96.1059C275.365 89.2001 271.96 79.7525 271.96 67.7633C271.96 55.774 275.269 46.2306 281.887 39.1329C288.601 32.0353 297.425 28.4865 308.359 28.4865C319.006 28.4865 327.494 31.8914 333.824 38.7013C340.155 45.5112 343.32 54.671 343.32 66.1807V73.3743ZM308.503 44.8878C304.283 44.8878 300.83 46.1347 298.144 48.6284C295.459 51.0263 293.828 54.3833 293.253 58.6994H322.89C322.602 54.4792 321.164 51.1222 318.574 48.6284C315.984 46.1347 312.627 44.8878 308.503 44.8878Z" fill="white"/>
<path d="M389.609 29.9252H393.349V49.7794H388.458C382.223 49.7794 377.38 51.314 373.927 54.3833C370.57 57.3566 368.891 61.5289 368.891 66.9001V104.594H347.886V30.2129H368.028V41.8665C372.44 33.9056 379.634 29.9252 389.609 29.9252Z" fill="white"/>
<path opacity="0.8" fill-rule="evenodd" clip-rule="evenodd" d="M415.739 68.5347L425.846 93.3735L452.592 91.4372L432.092 108.725L442.199 133.564L419.422 119.409L398.922 136.697L405.346 110.661L382.569 96.5065L409.316 94.5702L415.739 68.5347ZM320.575 108.421L326.406 122.751L341.836 121.634L330.009 131.607L335.84 145.937L322.7 137.771L310.873 147.745L314.579 132.724L301.439 124.558L316.869 123.441L320.575 108.421ZM370.424 110.126L363.427 92.9294L358.98 110.954L340.464 112.295L356.232 122.094L351.785 140.118L365.977 128.15L381.745 137.949L374.749 120.753L388.941 108.785L370.424 110.126Z" fill="url(#paint0_linear_368_15355)"/>
<path fill-rule="evenodd" clip-rule="evenodd" d="M63.8224 166.33C57.7845 159.443 50.2371 156 41.1803 156C31.4631 156 24.3402 159.396 19.8118 166.189V157.698H0V257.889H20.6609V223.785C24.7176 229.634 31.3687 232.559 40.6142 232.559C49.8597 232.559 57.5486 229.115 63.6808 222.228C69.8131 215.341 72.8792 206.048 72.8792 194.35C72.8792 182.463 69.8602 173.123 63.8224 166.33ZM36.2273 214.728C31.4159 214.728 27.5479 212.935 24.6233 209.35C21.6987 205.671 20.2364 200.765 20.2364 194.633V194.067C20.2364 187.935 21.6987 183.029 24.6233 179.35C27.5479 175.67 31.4159 173.831 36.2273 173.831C41.0388 173.831 44.8596 175.717 47.6899 179.491C50.6145 183.17 52.0768 188.123 52.0768 194.35C52.0768 200.577 50.6145 205.53 47.6899 209.209C44.8596 212.888 41.0388 214.728 36.2273 214.728ZM140.867 200.152H190.255V193.076C190.255 181.755 187.142 172.746 180.915 166.047C174.688 159.349 166.339 156 155.867 156C145.112 156 136.433 159.491 129.829 166.472C123.319 173.453 120.064 182.84 120.064 194.633C120.064 206.426 123.414 215.719 130.112 222.511C136.81 229.209 145.773 232.559 156.999 232.559C166.528 232.559 174.028 230.294 179.5 225.766C185.066 221.143 188.415 215.86 189.547 209.917H169.594C169.028 211.52 167.66 212.983 165.49 214.303C163.32 215.624 160.632 216.285 157.424 216.285C152.518 216.285 148.509 214.775 145.395 211.756C142.376 208.737 140.867 204.964 140.867 200.435V200.152ZM145.82 175.812C148.461 173.359 151.858 172.132 156.009 172.132C160.065 172.132 163.367 173.359 165.915 175.812C168.462 178.265 169.877 181.567 170.16 185.718H141.008C141.574 181.472 143.178 178.17 145.82 175.812ZM279.229 156C286.305 156 292.343 158.311 297.343 162.934C302.438 167.557 304.985 174.491 304.985 183.736V230.86H284.324V187.982C284.324 183.453 283.239 180.104 281.069 177.934C278.899 175.67 276.069 174.538 272.578 174.538C269.088 174.538 266.116 175.765 263.663 178.218C261.304 180.576 260.125 183.878 260.125 188.124V230.86H239.464V187.982C239.464 183.453 238.379 180.104 236.209 177.934C234.04 175.67 231.209 174.538 227.719 174.538C224.228 174.538 221.303 175.765 218.945 178.218C216.586 180.576 215.407 183.878 215.407 188.124V230.86H194.746V157.698H214.558V166.189C219.275 159.396 226.068 156 234.936 156C244.464 156 251.446 159.774 255.88 167.321C261.446 159.774 269.229 156 279.229 156ZM501.339 156C508.414 156 514.452 158.311 519.452 162.934C524.547 167.557 527.094 174.491 527.094 183.736V230.86H506.433V187.982C506.433 183.453 505.348 180.104 503.178 177.934C501.009 175.67 498.178 174.538 494.688 174.538C491.197 174.538 488.225 175.765 485.772 178.218C483.414 180.576 482.234 183.878 482.234 188.124V230.86H461.574V187.982C461.574 183.453 460.489 180.104 458.319 177.934C456.149 175.67 453.319 174.538 449.828 174.538C446.337 174.538 443.413 175.765 441.054 178.218C438.696 180.576 437.516 183.878 437.516 188.124V230.86H416.855V157.698H436.667V166.189C441.384 159.396 448.177 156 457.045 156C466.574 156 473.555 159.774 477.989 167.321C483.555 159.774 491.338 156 501.339 156ZM408.645 230.86H388.834V222.37C386.852 225.294 384.022 227.747 380.343 229.728C376.663 231.615 372.371 232.559 367.465 232.559C360.012 232.559 353.785 230.247 348.785 225.624C343.785 221.002 341.285 213.926 341.285 204.397V157.698H361.805V199.869C361.805 204.492 362.937 208.03 365.201 210.482C367.559 212.841 370.673 214.02 374.541 214.02C378.314 214.02 381.475 212.841 384.022 210.482C386.664 208.03 387.984 204.397 387.984 199.586V157.698H408.645V230.86ZM333.389 230.86V157.698H312.729V230.86H333.389ZM118.392 157.415H122.072V176.944H117.26C111.128 176.944 106.364 178.453 102.967 181.472C99.6654 184.397 98.0144 188.501 98.0144 193.784V230.86H77.3535V157.698H97.1653V169.161C101.505 161.33 108.581 157.415 118.392 157.415Z" fill="url(#paint1_linear_368_15355)"/>
<defs>
<linearGradient id="paint0_linear_368_15355" x1="370.168" y1="130.403" x2="462.383" y2="132.874" gradientUnits="userSpaceOnUse">
<stop stop-color="#CA67AF"/>
<stop offset="1" stop-color="#CA66AF" stop-opacity="0"/>
</linearGradient>
<linearGradient id="paint1_linear_368_15355" x1="-21.5" y1="258" x2="562.5" y2="180" gradientUnits="userSpaceOnUse">
<stop stop-color="#8369D1"/>
<stop offset="0.451199" stop-color="#CF78C7"/>
<stop offset="1" stop-color="#BE2994"/>
</linearGradient>
</defs>
</svg>
