<svg width="528" height="190" viewBox="0 0 528 190" fill="none" xmlns="http://www.w3.org/2000/svg">
<path opacity="0.8" fill-rule="evenodd" clip-rule="evenodd" d="M415.739 0.534668L425.846 25.3735L452.592 23.4372L432.092 40.725L442.199 65.564L419.422 51.409L398.922 68.697L405.346 42.661L382.569 28.5065L409.316 26.5702L415.739 0.534668ZM320.575 40.421L326.406 54.751L341.836 53.634L330.009 63.607L335.84 77.937L322.7 69.771L310.873 79.745L314.579 64.724L301.439 56.558L316.869 55.441L320.575 40.421ZM370.424 42.126L363.427 24.9294L358.98 42.954L340.464 44.295L356.232 54.094L351.785 72.118L365.977 60.15L381.745 69.949L374.749 52.753L388.941 40.785L370.424 42.126Z" fill="url(#paint0_linear_166_227)"/>
<path fill-rule="evenodd" clip-rule="evenodd" d="M63.8224 98.33C57.7845 91.443 50.2371 88 41.1803 88C31.4631 88 24.3402 91.396 19.8118 98.189V89.698H0V189.889H20.6609V155.785C24.7176 161.634 31.3687 164.559 40.6142 164.559C49.8597 164.559 57.5486 161.115 63.6808 154.228C69.8131 147.341 72.8792 138.048 72.8792 126.35C72.8792 114.463 69.8602 105.123 63.8224 98.33ZM36.2273 146.728C31.4159 146.728 27.5479 144.935 24.6233 141.35C21.6987 137.671 20.2364 132.765 20.2364 126.633V126.067C20.2364 119.935 21.6987 115.029 24.6233 111.35C27.5479 107.67 31.4159 105.831 36.2273 105.831C41.0388 105.831 44.8596 107.717 47.6899 111.491C50.6145 115.17 52.0768 120.123 52.0768 126.35C52.0768 132.577 50.6145 137.53 47.6899 141.209C44.8596 144.888 41.0388 146.728 36.2273 146.728ZM140.867 132.152H190.255V125.076C190.255 113.755 187.142 104.746 180.915 98.047C174.688 91.349 166.339 88 155.867 88C145.112 88 136.433 91.491 129.829 98.472C123.319 105.453 120.064 114.84 120.064 126.633C120.064 138.426 123.414 147.719 130.112 154.511C136.81 161.209 145.773 164.559 156.999 164.559C166.528 164.559 174.028 162.294 179.5 157.766C185.066 153.143 188.415 147.86 189.547 141.917H169.594C169.028 143.52 167.66 144.983 165.49 146.303C163.32 147.624 160.632 148.285 157.424 148.285C152.518 148.285 148.509 146.775 145.395 143.756C142.376 140.737 140.867 136.964 140.867 132.435V132.152ZM145.82 107.812C148.461 105.359 151.858 104.132 156.009 104.132C160.065 104.132 163.367 105.359 165.915 107.812C168.462 110.265 169.877 113.567 170.16 117.718H141.008C141.574 113.472 143.178 110.17 145.82 107.812ZM279.229 88C286.305 88 292.343 90.311 297.343 94.934C302.438 99.557 304.985 106.491 304.985 115.736V162.86H284.324V119.982C284.324 115.453 283.239 112.104 281.069 109.934C278.899 107.67 276.069 106.538 272.578 106.538C269.088 106.538 266.116 107.765 263.663 110.218C261.304 112.576 260.125 115.878 260.125 120.124V162.86H239.464V119.982C239.464 115.453 238.379 112.104 236.209 109.934C234.04 107.67 231.209 106.538 227.719 106.538C224.228 106.538 221.303 107.765 218.945 110.218C216.586 112.576 215.407 115.878 215.407 120.124V162.86H194.746V89.698H214.558V98.189C219.275 91.396 226.068 88 234.936 88C244.464 88 251.446 91.774 255.88 99.321C261.446 91.774 269.229 88 279.229 88ZM501.339 88C508.414 88 514.452 90.311 519.452 94.934C524.547 99.557 527.094 106.491 527.094 115.736V162.86H506.433V119.982C506.433 115.453 505.348 112.104 503.178 109.934C501.009 107.67 498.178 106.538 494.688 106.538C491.197 106.538 488.225 107.765 485.772 110.218C483.414 112.576 482.234 115.878 482.234 120.124V162.86H461.574V119.982C461.574 115.453 460.489 112.104 458.319 109.934C456.149 107.67 453.319 106.538 449.828 106.538C446.337 106.538 443.413 107.765 441.054 110.218C438.696 112.576 437.516 115.878 437.516 120.124V162.86H416.855V89.698H436.667V98.189C441.384 91.396 448.177 88 457.045 88C466.574 88 473.555 91.774 477.989 99.321C483.555 91.774 491.338 88 501.339 88ZM408.645 162.86H388.834V154.37C386.852 157.294 384.022 159.747 380.343 161.728C376.663 163.615 372.371 164.559 367.465 164.559C360.012 164.559 353.785 162.247 348.785 157.624C343.785 153.002 341.285 145.926 341.285 136.397V89.698H361.805V131.869C361.805 136.492 362.937 140.03 365.201 142.482C367.559 144.841 370.673 146.02 374.541 146.02C378.314 146.02 381.475 144.841 384.022 142.482C386.664 140.03 387.984 136.397 387.984 131.586V89.698H408.645V162.86ZM333.389 162.86V89.698H312.729V162.86H333.389ZM118.392 89.415H122.072V108.944H117.26C111.128 108.944 106.364 110.453 102.967 113.472C99.6654 116.397 98.0144 120.501 98.0144 125.784V162.86H77.3535V89.698H97.1653V101.161C101.505 93.33 108.581 89.415 118.392 89.415Z" fill="url(#paint1_linear_166_227)"/>
<defs>
<linearGradient id="paint0_linear_166_227" x1="370.168" y1="62.403" x2="462.383" y2="64.874" gradientUnits="userSpaceOnUse">
<stop stop-color="#CA67AF"/>
<stop offset="1" stop-color="#CA66AF" stop-opacity="0"/>
</linearGradient>
<linearGradient id="paint1_linear_166_227" x1="-21.5" y1="190" x2="562.5" y2="112" gradientUnits="userSpaceOnUse">
<stop stop-color="#8369D1"/>
<stop offset="0.451199" stop-color="#CF78C7"/>
<stop offset="1" stop-color="#BE2994"/>
</linearGradient>
</defs>
</svg>
