<svg width="40" height="40" viewBox="0 0 40 40" fill="none" xmlns="http://www.w3.org/2000/svg">
<g clip-path="url(#clip0_110_1786)">
<path d="M0 10C0 4.47715 4.47715 0 10 0H30C35.5228 0 40 4.47715 40 10V24C40 32.8366 32.8366 40 24 40H10C4.47715 40 0 35.5228 0 30V10Z" fill="url(#paint0_linear_110_1786)"/>
<path d="M22.785 4.80439C22.5611 4.73876 22.3218 4.74929 22.1045 4.83433C21.8873 4.91937 21.7045 5.07409 21.5848 5.2742L12.629 20.2697C12.4614 20.5503 12.3756 20.8721 12.3814 21.1988C12.3871 21.5255 12.4841 21.8441 12.6615 22.1187C12.8389 22.3932 13.0895 22.6128 13.3851 22.7526C13.6807 22.8923 14.0096 22.9468 14.3345 22.9098L17.6684 22.5311L16.2647 33.095C16.2333 33.3306 16.2826 33.5698 16.4048 33.7738C16.5269 33.9778 16.7146 34.1344 16.9372 34.2182C17.1598 34.3019 17.4043 34.3079 17.6308 34.2351C17.8572 34.1623 18.0523 34.015 18.1843 33.8172L28.2771 18.6604C28.4626 18.3823 28.5647 18.0569 28.5712 17.7227C28.5778 17.3885 28.4886 17.0595 28.3141 16.7742C28.1397 16.489 27.8872 16.2596 27.5866 16.113C27.2859 15.9664 26.9496 15.9087 26.6172 15.9467L23.2342 16.3324L23.543 5.85621C23.5524 5.6215 23.4828 5.39042 23.3454 5.1998C23.2081 5.00917 23.0108 4.86997 22.785 4.80439Z" fill="white"/>
<path d="M31.3169 21.1109H34.4706C37.5257 21.0955 39.9976 18.6141 39.9976 15.5554V40H18.8687C20.1172 39.079 20.9664 37.6479 21.1086 36.0142V31.3192C21.1086 25.6813 25.679 21.1109 31.3169 21.1109Z" fill="#A0F773"/>
</g>
<defs>
<linearGradient id="paint0_linear_110_1786" x1="6.11111" y1="3.33333" x2="20" y2="40" gradientUnits="userSpaceOnUse">
<stop stop-color="#9FF672"/>
<stop offset="1" stop-color="#4ECA67"/>
</linearGradient>
<clipPath id="clip0_110_1786">
<path d="M0 10C0 4.47715 4.47715 0 10 0H30C35.5228 0 40 4.47715 40 10V24C40 32.8366 32.8366 40 24 40H10C4.47715 40 0 35.5228 0 30V10Z" fill="white"/>
</clipPath>
</defs>
</svg>
