<svg width="190" height="120" viewBox="0 0 190 120" fill="none" xmlns="http://www.w3.org/2000/svg">
<path fill-rule="evenodd" clip-rule="evenodd" d="M138.162 34.5044C148.74 37.6836 154.738 48.8362 151.559 59.4145L144.593 82.5937C141.414 93.172 130.261 99.1703 119.683 95.9911L103.975 91.2704C102.959 90.9651 101.863 91.0758 100.929 91.5783L92.0137 96.3733C89.5817 97.6813 86.5499 96.7701 85.2419 94.3381L80.447 85.4229C79.9445 84.4885 79.0914 83.7921 78.0754 83.4868L53.9726 76.2431C43.3943 73.064 37.396 61.9114 40.5752 51.3331L47.5412 28.1539C50.7204 17.5756 61.873 11.5773 72.4513 14.7564L138.162 34.5044Z" fill="url(#paint0_linear_201_810)"/>
<path d="M62.6962 22.7022C63.6311 22.135 64.6646 22.0246 65.7968 22.3711C66.929 22.7175 67.7237 23.3874 68.1811 24.3807C68.6408 25.3664 68.6822 26.475 68.3053 27.7067C67.9284 28.9383 67.2724 29.8377 66.3375 30.405C65.4049 30.9646 64.3726 31.0711 63.2404 30.7246C62.1082 30.3782 61.3123 29.7121 60.8526 28.7264C60.3953 27.7331 60.355 26.6207 60.732 25.389C61.1089 24.1574 61.7636 23.2618 62.6962 22.7022ZM62.1248 28.1369C62.3893 28.8035 62.8888 29.2492 63.6232 29.4739C64.3575 29.6986 65.022 29.605 65.6166 29.1929C66.2189 28.7833 66.6523 28.1462 66.9168 27.2818C67.1814 26.4173 67.1787 25.6468 66.9089 24.9703C66.6467 24.296 66.1484 23.8465 65.4141 23.6218C64.6797 23.3971 64.0152 23.4907 63.4206 23.9027C62.8283 24.3071 62.3987 24.9454 62.1319 25.8174C61.865 26.6895 61.8626 27.4627 62.1248 28.1369ZM74.4415 32.7469L73.6409 35.3632L72.3901 34.9804L72.8396 33.5117L68.1809 32.086L69.9718 26.2339L71.2799 26.6342L69.8402 31.3388L72.2958 32.0903L73.7355 27.3857L75.0436 27.786L73.6039 32.4906L74.4415 32.7469ZM80.875 33.1847L76.7556 31.9241L76.7485 31.947C76.6104 32.3984 76.641 32.8177 76.8404 33.205C77.0398 33.5923 77.3728 33.8573 77.8395 34.0001C78.1608 34.0985 78.4446 34.1142 78.6909 34.0474C78.9473 33.9752 79.1256 33.8708 79.226 33.7342L80.5112 34.1275C80.2836 34.5431 79.9018 34.8613 79.3657 35.0821C78.8372 35.3053 78.2097 35.3056 77.4829 35.0832C76.6109 34.8163 75.994 34.3306 75.6324 33.6259C75.2731 32.9136 75.2374 32.087 75.5254 31.146C75.8133 30.2051 76.3017 29.5388 76.9904 29.1473C77.6815 28.748 78.444 28.676 79.2778 28.9311C80.081 29.177 80.6428 29.6375 80.9632 30.3128C81.2836 30.9882 81.3092 31.7657 81.04 32.6454L80.875 33.1847ZM78.9327 30.0177C78.5196 29.8913 78.1456 29.9107 77.8106 30.0759C77.4832 30.2434 77.236 30.5317 77.069 30.9408L79.8689 31.7976C79.9846 31.3645 79.9564 30.9919 79.7842 30.6799C79.622 30.3625 79.3381 30.1418 78.9327 30.0177ZM82.4209 36.4438L81.1128 36.0435L82.9037 30.1914L84.2118 30.5917L83.5235 32.8407L86.0365 33.6097L86.7248 31.3607L88.0329 31.761L86.242 37.6131L84.9339 37.2128L85.6818 34.7687L83.1689 33.9997L82.4209 36.4438ZM94.5845 33.766L92.7936 39.6181L91.5084 39.2248L92.6989 35.3349L88.8578 38.4136L87.5956 38.0274L89.3865 32.1752L90.6716 32.5685L89.4777 36.4699L93.3223 33.3797L94.5845 33.766ZM95.9365 34.1797L97.5888 34.6854L98.1484 39.4999L101.307 35.8231L102.936 36.3218L101.145 42.1739L99.8829 41.7876L101.108 37.7829L98.1343 41.2274L97.1704 40.9324L96.6298 36.4249L95.4078 40.4181L94.1456 40.0318L95.9365 34.1797ZM111.758 39.0215L109.967 44.8736L108.682 44.4803L109.872 40.5904L106.031 43.6692L104.769 43.2829L106.56 37.4308L107.845 37.8241L106.651 41.7255L110.496 38.6352L111.758 39.0215ZM117.706 45.987L116.905 48.6032L115.643 48.2169L116.093 46.7482L111.962 45.484L111.512 46.9528L110.25 46.5665L111.051 43.9503L111.521 44.0942C111.924 44.0083 112.328 43.4669 112.733 42.4699L113.833 39.6565L118.297 41.0225L116.857 45.7271L117.706 45.987ZM113.959 42.8951C113.614 43.7767 113.268 44.3192 112.921 44.5226L115.549 45.3268L116.637 41.7696L114.641 41.1586L113.959 42.8951ZM124.136 46.4238L120.017 45.1632L120.01 45.1861C119.872 45.6375 119.902 46.0568 120.102 46.4441C120.301 46.8314 120.634 47.0964 121.101 47.2393C121.422 47.3376 121.706 47.3533 121.952 47.2865C122.209 47.2143 122.387 47.11 122.487 46.9733L123.773 47.3666C123.545 47.7822 123.163 48.1004 122.627 48.3212C122.099 48.5444 121.471 48.5447 120.744 48.3223C119.872 48.0554 119.255 47.5697 118.894 46.865C118.535 46.1527 118.499 45.3261 118.787 44.3851C119.075 43.4442 119.563 42.778 120.252 42.3864C120.943 41.9871 121.705 41.9151 122.539 42.1702C123.342 42.4161 123.904 42.8766 124.225 43.5519C124.545 44.2273 124.571 45.0048 124.301 45.8845L124.136 46.4238ZM122.194 43.2568C121.781 43.1304 121.407 43.1498 121.072 43.315C120.745 43.4825 120.497 43.7708 120.33 44.1799L123.13 45.0367C123.246 44.6036 123.218 44.2311 123.046 43.919C122.883 43.6016 122.6 43.3809 122.194 43.2568ZM125.682 49.6829L124.374 49.2826L126.165 43.4305L127.473 43.8308L126.785 46.0798L127.783 46.3853C128.133 45.706 128.624 45.2245 129.254 44.9406C129.885 44.6567 130.564 44.626 131.291 44.8484C132.14 45.1082 132.737 45.6046 133.081 46.3376C133.428 47.0628 133.463 47.8768 133.187 48.7795C132.909 49.6898 132.423 50.3484 131.729 50.7553C131.036 51.1622 130.265 51.2357 129.415 50.9759C128.658 50.7441 128.095 50.3165 127.725 49.693C127.365 49.0642 127.255 48.3445 127.394 47.5337L126.43 47.2388L125.682 49.6829ZM128.815 48.96C128.985 49.3885 129.303 49.6741 129.77 49.8169C130.237 49.9597 130.657 49.9 131.03 49.6377C131.413 49.3701 131.692 48.9494 131.868 48.3757C132.043 47.8019 132.046 47.3008 131.876 46.8723C131.716 46.4384 131.403 46.1501 130.936 46.0073C130.469 45.8645 130.044 45.9269 129.661 46.1945C129.288 46.4569 129.014 46.8749 128.838 47.4486C128.663 48.0223 128.655 48.5261 128.815 48.96ZM56.2368 40.9801L58.0277 35.128L60.6554 35.9321C61.2827 36.1241 61.7175 36.4119 61.9598 36.7956C62.2021 37.1794 62.2554 37.5931 62.1196 38.0367C62.0213 38.358 61.859 38.6012 61.6328 38.7662C61.4166 38.926 61.1797 39.0166 60.9221 39.0382C61.1947 39.2136 61.393 39.4542 61.517 39.7598C61.6486 40.0678 61.6571 40.4093 61.5424 40.7841C61.3926 41.2737 61.0861 41.6191 60.6229 41.8204C60.1697 42.0163 59.6218 42.016 58.9792 41.8194L56.2368 40.9801ZM59.5841 39.2687L58.2875 38.8719L57.831 40.3636L59.1276 40.7604C59.4183 40.8494 59.66 40.8522 59.8528 40.769C60.0556 40.6805 60.1933 40.5176 60.2659 40.2805C60.4157 39.7909 60.1884 39.4537 59.5841 39.2687ZM60.1857 36.8928L59.0038 36.5311L58.5895 37.8851L59.7713 38.2468C60.0238 38.324 60.2376 38.3225 60.4127 38.2423C60.5955 38.1643 60.7197 38.0183 60.7853 37.8041C60.9211 37.3604 60.7212 37.0566 60.1857 36.8928ZM70.5884 44.1171L69.7878 46.7334L68.537 46.3506L68.9865 44.8818L64.3278 43.4562L66.1187 37.6041L67.4268 38.0044L65.9871 42.709L68.4426 43.4605L69.8824 38.7558L71.1905 39.1562L69.7508 43.8608L70.5884 44.1171ZM77.0219 44.5549L72.9024 43.2943L72.8954 43.3172C72.7573 43.7686 72.7879 44.1879 72.9873 44.5752C73.1867 44.9625 73.5197 45.2275 73.9864 45.3703C74.3077 45.4687 74.5915 45.4844 74.8378 45.4176C75.0942 45.3454 75.2725 45.241 75.3729 45.1044L76.658 45.4977C76.4305 45.9133 76.0486 46.2315 75.5126 46.4523C74.9841 46.6754 74.3566 46.6758 73.6298 46.4534C72.7578 46.1865 72.1409 45.7008 71.7793 44.9961C71.42 44.2838 71.3843 43.4571 71.6723 42.5162C71.9602 41.5753 72.4486 40.909 73.1373 40.5174C73.8284 40.1182 74.5908 40.0462 75.4247 40.3013C76.2279 40.5471 76.7897 41.0077 77.1101 41.683C77.4305 42.3583 77.4561 43.1359 77.1869 44.0156L77.0219 44.5549ZM75.0796 41.3879C74.6665 41.2615 74.2925 41.2809 73.9575 41.4461C73.6301 41.6136 73.3829 41.9019 73.2159 42.311L76.0157 43.1678C76.1315 42.7347 76.1033 42.3621 75.9311 42.0501C75.7689 41.7327 75.485 41.512 75.0796 41.3879ZM76.5882 47.2333L76.9394 46.0858L77.123 46.142C77.4443 46.2403 77.6969 46.2214 77.8807 46.0852C78.0746 45.9438 78.2597 45.6532 78.4361 45.2136L79.7975 41.7901L84.1005 43.107L82.3096 48.9591L81.0015 48.5587L82.4413 43.8541L80.5938 43.2888L79.6473 45.6846C79.3403 46.4691 78.9711 46.992 78.5398 47.2532C78.1185 47.5091 77.5865 47.5388 76.9439 47.3421L76.5882 47.2333ZM85.7074 44.3768C86.4161 43.9745 87.1989 43.9045 88.0556 44.1667C88.9124 44.4289 89.5181 44.9238 89.8727 45.6514C90.235 46.3814 90.2768 47.2015 89.9982 48.1119C89.7196 49.0222 89.226 49.6785 88.5173 50.0807C87.8162 50.4852 87.0373 50.5564 86.1805 50.2942C85.3237 50.032 84.7142 49.5359 84.3519 48.806C83.9973 48.0784 83.9593 47.2594 84.2379 46.3491C84.5165 45.4387 85.0063 44.7813 85.7074 44.3768ZM85.5607 48.2598C85.736 48.6983 86.0609 48.9901 86.5351 49.1353C87.0094 49.2804 87.4381 49.2192 87.8212 48.9516C88.2119 48.6863 88.4939 48.2706 88.6671 47.7045C88.8404 47.1384 88.8393 46.6362 88.664 46.1976C88.4963 45.7615 88.1753 45.4708 87.701 45.3257C87.2267 45.1805 86.7942 45.2406 86.4034 45.5059C86.0204 45.7735 85.7422 46.1903 85.569 46.7564C85.3957 47.3225 85.393 47.8236 85.5607 48.2598ZM91.9153 45.4985L93.5676 46.0041L94.1273 50.8186L97.2854 47.1419L98.9148 47.6405L97.1239 53.4926L95.8617 53.1063L97.0873 49.1017L94.1131 52.5461L93.1492 52.2512L92.6086 47.7436L91.3866 51.7368L90.1244 51.3506L91.9153 45.4985ZM107.737 50.3403L105.946 56.1924L104.661 55.7991L105.851 51.9091L102.01 54.9879L100.748 54.6016L102.539 48.7495L103.824 49.1428L102.63 53.0442L106.475 49.954L107.737 50.3403ZM54.5161 46.6027L59.6109 48.1618L57.82 54.0139L56.5119 53.6136L57.9516 48.909L55.4731 48.1505L54.0333 52.8551L52.7252 52.4548L54.5161 46.6027ZM61.2065 49.4282C61.9153 49.026 62.698 48.956 63.5548 49.2182C64.4116 49.4804 65.0172 49.9753 65.3718 50.7029C65.7341 51.4329 65.7759 52.253 65.4974 53.1633C65.2188 54.0737 64.7251 54.7299 64.0164 55.1321C63.3153 55.5367 62.5364 55.6079 61.6796 55.3457C60.8228 55.0835 60.2133 54.5874 59.8511 53.8574C59.4965 53.1298 59.4585 52.3109 59.737 51.4005C60.0156 50.4902 60.5055 49.8328 61.2065 49.4282ZM61.0598 53.3112C61.2352 53.7498 61.56 54.0416 62.0343 54.1867C62.5086 54.3319 62.9373 54.2706 63.3203 54.003C63.7111 53.7377 63.993 53.3221 64.1663 52.756C64.3395 52.1899 64.3385 51.6876 64.1631 51.2491C63.9954 50.8129 63.6744 50.5223 63.2001 50.3771C62.7258 50.232 62.2933 50.292 61.9026 50.5573C61.5195 50.8249 61.2413 51.2418 61.0681 51.8079C60.8949 52.3739 60.8921 52.8751 61.0598 53.3112ZM71.9319 57.0776L71.1313 59.6938L69.8691 59.3076L70.3186 57.8388L66.1877 56.5747L65.7382 58.0434L64.476 57.6571L65.2766 55.0409L65.7471 55.1849C66.1498 55.099 66.554 54.5575 66.9595 53.5606L68.0589 50.7471L72.5225 52.1131L71.0828 56.8178L71.9319 57.0776ZM68.1847 53.9857C67.8396 54.8673 67.4937 55.4098 67.147 55.6133L69.7747 56.4174L70.8633 52.8603L68.8667 52.2493L68.1847 53.9857ZM75.2791 58.24C75.6616 58.357 75.9854 58.3516 76.2505 58.2235C76.5232 58.0978 76.735 57.9116 76.8857 57.665L78.1594 58.0547C77.908 58.6304 77.4857 59.0533 76.8927 59.3236C76.2996 59.5939 75.6397 59.6178 74.913 59.3954C74.0639 59.1356 73.4658 58.643 73.1189 57.9177C72.7743 57.1848 72.7401 56.367 73.0163 55.4643C73.2902 54.5693 73.7712 53.9133 74.4594 53.4965C75.1551 53.0819 75.9314 53.0057 76.7882 53.2679C77.5302 53.495 78.0625 53.888 78.3851 54.4468C78.71 54.9981 78.8229 55.5722 78.7239 56.1694L77.4502 55.7796C77.4456 55.4937 77.3643 55.2263 77.2063 54.9771C77.0583 54.7227 76.8007 54.5392 76.4335 54.4269C75.9745 54.2864 75.5535 54.35 75.1704 54.6176C74.795 54.8876 74.5206 55.3056 74.3474 55.8717C74.1718 56.4454 74.1679 56.9504 74.3356 57.3865C74.5056 57.815 74.8202 58.0995 75.2791 58.24ZM79.8299 60.7495L78.5218 60.3492L80.3127 54.4971L81.6208 54.8974L80.8764 57.3301L83.8699 55.5857L85.4189 56.0598L82.0552 58.0297L83.6625 61.9224L82.079 61.4378L80.6657 58.0186L79.8299 60.7495ZM88.8716 59.2749C88.9723 58.9459 88.9424 58.6607 88.7821 58.4192C88.6317 58.1724 88.3844 57.9963 88.0402 57.891C87.4206 57.7013 86.9652 57.8088 86.6741 58.2133L85.4348 57.8341C85.6811 57.3573 86.065 57.0188 86.5864 56.8186C87.1178 56.6131 87.7277 56.6157 88.4162 56.8264C89.1429 57.0488 89.6631 57.413 89.9768 57.9189C90.2981 58.4272 90.3558 59.0179 90.1498 59.6911L88.9699 63.5466L87.7536 63.1744L87.9572 62.5088C87.365 62.9132 86.6787 62.996 85.8984 62.7572C85.317 62.5793 84.8816 62.2662 84.5921 61.8179C84.3126 61.3642 84.2584 60.8582 84.4292 60.2997C84.6072 59.7184 84.9518 59.3302 85.4632 59.1354C85.9846 58.9352 86.6125 58.9474 87.3469 59.1722L88.7698 59.6076L88.8716 59.2749ZM86.5119 61.7779C86.9173 61.902 87.2967 61.8926 87.6499 61.7497C88.0056 61.5992 88.2419 61.3326 88.3589 60.9502L88.4678 60.5944L87.1367 60.1871C86.7925 60.0818 86.4949 60.0702 86.2438 60.1523C86.0028 60.2291 85.8425 60.3976 85.7629 60.6577C85.6833 60.9178 85.713 61.1486 85.8522 61.3501C85.9936 61.544 86.2135 61.6866 86.5119 61.7779ZM96.2792 59.3833L95.5207 61.8618L98.3217 60.0083L99.8249 60.4683L96.7101 62.527L98.0684 66.331L96.5308 65.8604L95.3311 62.4815L94.4883 65.2354L93.2032 64.8421L94.0459 62.0882L91.1607 64.217L89.6345 63.75L92.8671 61.3886L91.4484 57.9049L92.9516 58.3649L94.2356 61.4685L94.9941 58.99L96.2792 59.3833ZM104.406 65.4843L100.286 64.2237L100.279 64.2466C100.141 64.698 100.172 65.1173 100.371 65.5046C100.57 65.8919 100.903 66.157 101.37 66.2998C101.691 66.3981 101.975 66.4138 102.221 66.347C102.478 66.2748 102.656 66.1705 102.757 66.0339L104.042 66.4272C103.814 66.8427 103.432 67.1609 102.896 67.3817C102.368 67.6049 101.74 67.6052 101.013 67.3828C100.141 67.116 99.5246 66.6302 99.1629 65.9255C98.8037 65.2132 98.768 64.3866 99.0559 63.4457C99.3439 62.5047 99.8322 61.8385 100.521 61.4469C101.212 61.0476 101.975 60.9756 102.808 61.2308C103.612 61.4766 104.173 61.9371 104.494 62.6125C104.814 63.2878 104.84 64.0653 104.571 64.945L104.406 65.4843ZM102.463 62.3173C102.05 62.1909 101.676 62.2103 101.341 62.3755C101.014 62.5431 100.767 62.8313 100.6 63.2404L103.399 64.0972C103.515 63.6641 103.487 63.2916 103.315 62.9795C103.153 62.6621 102.869 62.4414 102.463 62.3173ZM106.434 62.491L108.087 62.9966L108.646 67.8112L111.804 64.1344L113.434 64.633L111.643 70.4851L110.381 70.0989L111.606 66.0942L108.632 69.5386L107.668 69.2437L107.128 64.7362L105.906 68.7293L104.643 68.3431L106.434 62.491ZM50.5218 64.3298L49.2137 63.9295L51.0046 58.0774L52.3127 58.4777L51.6244 60.7268L54.1374 61.4958L54.8256 59.2468L56.1338 59.6471L54.3429 65.4992L53.0347 65.0989L53.7827 62.6548L51.2697 61.8857L50.5218 64.3298ZM60.3143 63.0849C60.4149 62.756 60.3851 62.4708 60.2247 62.2293C60.0744 61.9825 59.8271 61.8064 59.4828 61.701C58.8632 61.5114 58.4078 61.6189 58.1167 62.0234L56.8774 61.6441C57.1238 61.1673 57.5076 60.8288 58.029 60.6287C58.5604 60.4232 59.1703 60.4258 59.8588 60.6365C60.5856 60.8589 61.1058 61.223 61.4194 61.729C61.7408 62.2372 61.7984 62.828 61.5924 63.5012L60.4125 67.3567L59.1962 66.9844L59.3999 66.3189C58.8076 66.7233 58.1214 66.8061 57.3411 66.5673C56.7597 66.3894 56.3243 66.0763 56.0348 65.6279C55.7553 65.1743 55.701 64.6682 55.8719 64.1098C56.0498 63.5284 56.3945 63.1403 56.9059 62.9454C57.4273 62.7452 58.0552 62.7575 58.7896 62.9822L60.2124 63.4177L60.3143 63.0849ZM57.9545 65.5879C58.36 65.712 58.7393 65.7026 59.0926 65.5597C59.4482 65.4092 59.6845 65.1427 59.8016 64.7602L59.9104 64.4045L58.5794 63.9972C58.2351 63.8918 57.9375 63.8802 57.6865 63.9623C57.4454 64.0392 57.2851 64.2076 57.2055 64.4677C57.1259 64.7278 57.1557 64.9586 57.2948 65.1602C57.4363 65.3541 57.6562 65.4966 57.9545 65.5879ZM63.5106 61.9046L68.6054 63.4637L66.8145 69.3158L65.5064 68.9155L66.9461 64.2109L64.4676 63.4524L63.0279 68.157L61.7198 67.7567L63.5106 61.9046ZM73.0772 64.6816C73.8039 64.904 74.3328 65.3628 74.6638 66.0582C75.0025 66.7558 75.0255 67.5827 74.7329 68.539C74.4402 69.4952 73.9545 70.1664 73.2758 70.5527C72.6047 70.9414 71.9019 71.0233 71.1676 70.7986C70.7621 70.6745 70.4286 70.493 70.1671 70.254C69.9156 70.0097 69.7523 69.7505 69.6772 69.4766L68.8063 72.3223L67.4982 71.922L69.9598 63.8782L71.222 64.2645L70.9902 65.0218C71.54 64.5375 72.2357 64.4241 73.0772 64.6816ZM71.3042 69.5729C71.7632 69.7134 72.1831 69.6536 72.5638 69.3936C72.9545 69.1284 73.2377 68.7089 73.4133 68.1351C73.5865 67.569 73.5854 67.0667 73.4101 66.6282C73.2424 66.1921 72.929 65.9038 72.47 65.7633C72.0034 65.6205 71.5759 65.6779 71.1875 65.9355C70.8015 66.1855 70.5206 66.5973 70.3451 67.1711L70.331 67.217C70.1554 67.7907 70.1565 68.293 70.3342 68.7239C70.5142 69.1471 70.8376 69.4301 71.3042 69.5729ZM79.4712 68.9474C79.5719 68.6185 79.542 68.3333 79.3817 68.0918C79.2313 67.845 78.984 67.6689 78.6398 67.5635C78.0201 67.3739 77.5648 67.4814 77.2737 67.8859L76.0344 67.5066C76.2807 67.0298 76.6645 66.6914 77.186 66.4912C77.7173 66.2857 78.3273 66.2883 79.0158 66.499C79.7425 66.7214 80.2627 67.0855 80.5764 67.5915C80.8977 68.0998 80.9554 68.6905 80.7494 69.3637L79.5695 73.2192L78.3532 72.8469L78.5568 72.1814C77.9646 72.5858 77.2783 72.6686 76.498 72.4298C75.9166 72.2519 75.4812 71.9388 75.1917 71.4904C74.9122 71.0368 74.8579 70.5308 75.0288 69.9723C75.2068 69.3909 75.5514 69.0028 76.0628 68.8079C76.5842 68.6077 77.2121 68.62 77.9465 68.8448L79.3694 69.2802L79.4712 68.9474ZM77.1115 71.4505C77.5169 71.5745 77.8963 71.5651 78.2495 71.4223C78.6051 71.2717 78.8415 71.0052 78.9585 70.6227L79.0674 70.267L77.7363 69.8597C77.3921 69.7543 77.0944 69.7427 76.8434 69.8249C76.6024 69.9017 76.4421 70.0702 76.3625 70.3302C76.2829 70.5903 76.3126 70.8212 76.4518 71.0227C76.5932 71.2166 76.8131 71.3592 77.1115 71.4505ZM80.8767 73.6192L82.6676 67.7671L85.2953 68.5713C85.9226 68.7632 86.3574 69.0511 86.5997 69.4348C86.842 69.8185 86.8953 70.2322 86.7595 70.6759C86.6612 70.9971 86.4989 71.2403 86.2727 71.4053C86.0565 71.5651 85.8196 71.6557 85.5621 71.6773C85.8346 71.8527 86.0329 72.0933 86.1569 72.3989C86.2885 72.7069 86.297 73.0484 86.1823 73.4232C86.0325 73.9128 85.726 74.2582 85.2628 74.4595C84.8096 74.6555 84.2617 74.6551 83.6191 74.4585L80.8767 73.6192ZM84.224 71.9078L82.9274 71.511L82.4709 73.0027L83.7675 73.3995C84.0582 73.4885 84.3 73.4914 84.4928 73.4081C84.6955 73.3196 84.8332 73.1568 84.9058 72.9196C85.0556 72.43 84.8284 72.0928 84.224 71.9078ZM84.8256 69.5319L83.6437 69.1702L83.2294 70.5242L84.4113 70.8859C84.6637 70.9631 84.8775 70.9616 85.0527 70.8814C85.2355 70.8035 85.3596 70.6574 85.4252 70.4432C85.561 69.9995 85.3611 69.6957 84.8256 69.5319ZM86.0717 75.2341L86.4228 74.0866L86.6064 74.1428C86.9277 74.2411 87.1803 74.2222 87.3642 74.0861C87.5581 73.9446 87.7432 73.6541 87.9196 73.2144L89.281 69.791L93.584 71.1078L91.7931 76.9599L90.485 76.5596L91.9247 71.855L90.0773 71.2896L89.1307 73.6855C88.8237 74.47 88.4546 74.9928 88.0232 75.2541C87.6019 75.51 87.07 75.5396 86.4274 75.343L86.0717 75.2341ZM99.0674 76.4001L94.948 75.1394L94.941 75.1624C94.8029 75.6137 94.8335 76.033 95.0329 76.4203C95.2323 76.8077 95.5653 77.0727 96.0319 77.2155C96.3532 77.3138 96.637 77.3296 96.8834 77.2627C97.1397 77.1906 97.3181 77.0862 97.4184 76.9496L98.7036 77.3429C98.476 77.7585 98.0942 78.0767 97.5581 78.2975C97.0297 78.5206 96.4021 78.521 95.6754 78.2986C94.8033 78.0317 94.1865 77.5459 93.8248 76.8413C93.4656 76.1289 93.4299 75.3023 93.7178 74.3614C94.0058 73.4205 94.4941 72.7542 95.1829 72.3626C95.874 71.9634 96.6364 71.8913 97.4702 72.1465C98.2735 72.3923 98.8353 72.8529 99.1557 73.5282C99.4761 74.2035 99.5017 74.981 99.2325 75.8608L99.0674 76.4001ZM97.1252 73.2331C96.7121 73.1067 96.338 73.1261 96.003 73.2913C95.6757 73.4588 95.4285 73.7471 95.2615 74.1561L98.0613 75.0129C98.1771 74.5799 98.1489 74.2073 97.9767 73.8953C97.8144 73.5779 97.5306 73.3572 97.1252 73.2331ZM100.613 79.6591L99.3053 79.2588L101.096 73.4067L102.404 73.807L101.716 76.0561L104.229 76.8251L104.917 74.5761L106.225 74.9764L104.434 80.8285L103.126 80.4282L103.874 77.9841L101.361 77.215L100.613 79.6591ZM112.777 76.9813L110.986 82.8334L109.701 82.4402L110.891 78.5502L107.05 81.629L105.788 81.2427L107.579 75.3906L108.864 75.7839L107.67 79.6853L111.515 76.5951L112.777 76.9813ZM118.247 82.2695L114.127 81.0088L114.12 81.0318C113.982 81.4831 114.013 81.9024 114.212 82.2897C114.412 82.677 114.745 82.9421 115.211 83.0849C115.533 83.1832 115.816 83.1989 116.063 83.1321C116.319 83.06 116.497 82.9556 116.598 82.819L117.883 83.2123C117.655 83.6279 117.274 83.9461 116.737 84.1668C116.209 84.39 115.581 84.3903 114.855 84.168C113.983 83.9011 113.366 83.4153 113.004 82.7106C112.645 81.9983 112.609 81.1717 112.897 80.2308C113.185 79.2898 113.673 78.6236 114.362 78.232C115.053 77.8327 115.816 77.7607 116.65 78.0159C117.453 78.2617 118.015 78.7222 118.335 79.3976C118.655 80.0729 118.681 80.8504 118.412 81.7301L118.247 82.2695ZM116.305 79.1025C115.891 78.976 115.517 78.9954 115.182 79.1606C114.855 79.3282 114.608 79.6165 114.441 80.0255L117.241 80.8823C117.356 80.4492 117.328 80.0767 117.156 79.7646C116.994 79.4473 116.71 79.2265 116.305 79.1025Z" fill="white"/>
<defs>
<linearGradient id="paint0_linear_201_810" x1="122.054" y1="24.9941" x2="90.3098" y2="130.623" gradientUnits="userSpaceOnUse">
<stop stop-color="#66BEBE"/>
<stop offset="1" stop-color="#65DEA3"/>
</linearGradient>
</defs>
</svg>
