<svg width="190" height="120" viewBox="0 0 190 120" fill="none" xmlns="http://www.w3.org/2000/svg">
<path fill-rule="evenodd" clip-rule="evenodd" d="M143.203 41.9819C151.666 44.5252 156.464 53.4472 153.921 61.9099L147.808 82.2515C145.264 90.7141 136.342 95.5127 127.88 92.9694L92.95 82.472C91.426 82.014 89.7825 82.1801 88.3811 82.9339L80.0381 87.421C78.0925 88.4674 75.667 87.7385 74.6206 85.7929L70.1335 77.4499C69.3797 76.0485 68.1001 75.0038 66.5761 74.5458L50.0939 69.5924C41.6313 67.0491 36.8327 58.127 39.376 49.6644L45.4893 29.3228C48.0326 20.8602 56.9547 16.0616 65.4173 18.6049L143.203 41.9819Z" fill="url(#paint0_linear_201_834)"/>
<path d="M58.66 32.856L65.1891 34.8541L62.717 42.9323L61.3515 42.5144L63.4479 35.664L59.6498 34.5017L57.5534 41.3521L56.1879 40.9342L58.66 32.856ZM66.246 38.3902C66.9547 37.988 67.7375 37.918 68.5943 38.1801C69.451 38.4423 70.0567 38.9373 70.4113 39.6649C70.7736 40.3948 70.8154 41.215 70.5368 42.1253C70.2582 43.0356 69.7646 43.6919 69.0559 44.0941C68.3548 44.4987 67.5759 44.5698 66.7191 44.3076C65.8623 44.0454 65.2528 43.5494 64.8905 42.8194C64.5359 42.0918 64.4979 41.2728 64.7765 40.3625C65.0551 39.4522 65.5449 38.7947 66.246 38.3902ZM66.0993 42.2732C66.2746 42.7117 66.5995 43.0036 67.0737 43.1487C67.548 43.2938 67.9767 43.2326 68.3598 42.965C68.7505 42.6997 69.0325 42.284 69.2058 41.718C69.379 41.1519 69.3779 40.6496 69.2026 40.2111C69.0349 39.7749 68.7139 39.4842 68.2396 39.3391C67.7653 39.1939 67.3328 39.254 66.9421 39.5193C66.559 39.7869 66.2808 40.2038 66.1076 40.7698C65.9343 41.3359 65.9316 41.837 66.0993 42.2732ZM76.9714 46.0396L76.1708 48.6558L74.9085 48.2696L75.358 46.8008L71.2271 45.5366L70.7776 47.0054L69.5154 46.6191L70.3161 44.0029L70.7865 44.1469C71.1893 44.061 71.5934 43.5195 71.9989 42.5225L73.0983 39.7091L77.562 41.0751L76.1223 45.7797L76.9714 46.0396ZM73.2241 42.9477C72.8791 43.8293 72.5332 44.3718 72.1864 44.5753L74.8141 45.3794L75.9027 41.8223L73.9061 41.2112L73.2241 42.9477ZM80.3186 47.202C80.7011 47.319 81.0249 47.3135 81.29 47.1855C81.5627 47.0598 81.7744 46.8736 81.9252 46.6269L83.1989 47.0167C82.9475 47.5923 82.5252 48.0153 81.9322 48.2856C81.3391 48.5559 80.6792 48.5798 79.9525 48.3574C79.1033 48.0975 78.5053 47.605 78.1584 46.8797C77.8137 46.1468 77.7796 45.329 78.0558 44.4263C78.3297 43.5313 78.8107 42.8753 79.4988 42.4584C80.1946 42.0439 80.9709 41.9677 81.8276 42.2299C82.5697 42.457 83.102 42.85 83.4246 43.4088C83.7495 43.96 83.8624 44.5342 83.7633 45.1313L82.4896 44.7416C82.4851 44.4557 82.4038 44.1882 82.2458 43.9391C82.0978 43.6846 81.8402 43.5012 81.473 43.3888C81.014 43.2484 80.593 43.312 80.2099 43.5796C79.8344 43.8495 79.5601 44.2676 79.3869 44.8336C79.2113 45.4074 79.2074 45.9123 79.3751 46.3485C79.5451 46.777 79.8596 47.0615 80.3186 47.202ZM84.8694 49.7115L83.5613 49.3112L85.3522 43.4591L86.6603 43.8594L85.9158 46.292L88.9093 44.5477L90.4584 45.0217L87.0947 46.9916L88.7019 50.8844L87.1184 50.3998L85.7051 46.9805L84.8694 49.7115ZM93.9111 48.2368C94.0118 47.9079 93.9819 47.6227 93.8216 47.3812C93.6712 47.1344 93.4239 46.9583 93.0797 46.8529C92.46 46.6633 92.0047 46.7708 91.7135 47.1753L90.4743 46.796C90.7206 46.3192 91.1044 45.9808 91.6258 45.7806C92.1572 45.5751 92.7672 45.5777 93.4556 45.7884C94.1824 46.0108 94.7026 46.3749 95.0163 46.8809C95.3376 47.3892 95.3952 47.9799 95.1892 48.6531L94.0094 52.5086L92.793 52.1363L92.9967 51.4708C92.4044 51.8752 91.7182 51.958 90.9379 51.7192C90.3565 51.5413 89.9211 51.2282 89.6316 50.7798C89.3521 50.3262 89.2978 49.8202 89.4687 49.2617C89.6466 48.6803 89.9913 48.2922 90.5027 48.0973C91.0241 47.8971 91.652 47.9094 92.3864 48.1342L93.8093 48.5696L93.9111 48.2368ZM91.5513 50.7399C91.9568 50.8639 92.3361 50.8545 92.6894 50.7117C93.045 50.5611 93.2814 50.2946 93.3984 49.9121L93.5073 49.5564L92.1762 49.1491C91.832 49.0437 91.5343 49.0321 91.2833 49.1143C91.0423 49.1911 90.882 49.3596 90.8024 49.6196C90.7228 49.8797 90.7525 50.1106 90.8916 50.3121C91.0331 50.506 91.253 50.6486 91.5513 50.7399ZM101.319 48.3453L100.56 50.8238L103.361 48.9703L104.864 49.4303L101.75 51.489L103.108 55.293L101.57 54.8224L100.371 51.4434L99.5278 54.1974L98.2426 53.8041L99.0854 51.0501L96.2001 53.179L94.674 52.712L97.9065 50.3505L96.4878 46.8669L97.991 47.3269L99.275 50.4305L100.034 47.952L101.319 48.3453ZM109.445 54.4463L105.326 53.1857L105.319 53.2086C105.18 53.66 105.211 54.0793 105.41 54.4666C105.61 54.8539 105.943 55.1189 106.41 55.2617C106.731 55.3601 107.015 55.3758 107.261 55.309C107.517 55.2368 107.696 55.1324 107.796 54.9958L109.081 55.3891C108.854 55.8047 108.472 56.1229 107.936 56.3437C107.407 56.5668 106.78 56.5672 106.053 56.3448C105.181 56.0779 104.564 55.5922 104.202 54.8875C103.843 54.1752 103.807 53.3486 104.095 52.4076C104.383 51.4667 104.872 50.8004 105.56 50.4088C106.252 50.0096 107.014 49.9376 107.848 50.1927C108.651 50.4385 109.213 50.8991 109.533 51.5744C109.854 52.2498 109.879 53.0273 109.61 53.907L109.445 54.4463ZM107.503 51.2793C107.09 51.1529 106.716 51.1723 106.381 51.3375C106.053 51.505 105.806 51.7933 105.639 52.2024L108.439 53.0592C108.555 52.6261 108.526 52.2535 108.354 51.9415C108.192 51.6241 107.908 51.4034 107.503 51.2793ZM111.474 51.4529L113.126 51.9586L113.686 56.7731L116.844 53.0964L118.473 53.595L116.682 59.4471L115.42 59.0608L116.646 55.0562L113.672 58.5006L112.708 58.2056L112.167 53.6981L110.945 57.6913L109.683 57.3051L111.474 51.4529ZM119.893 59.7018C119.837 59.8854 119.738 60.0725 119.596 60.2633L118.29 61.9469L117.292 61.6414L118.497 60.04C118.179 59.7923 118.076 59.4887 118.186 59.1291C118.258 58.892 118.398 58.7215 118.606 58.6177C118.813 58.5138 119.039 58.4994 119.284 58.5743C119.529 58.6492 119.71 58.7965 119.827 59.0163C119.946 59.2285 119.968 59.457 119.893 59.7018ZM128.054 56.5271L129.363 56.9274L127.572 62.7795L126.264 62.3792L126.969 60.0728C126.564 60.1663 126.098 60.1323 125.57 59.9708C124.889 59.7624 124.399 59.395 124.1 58.8685C123.801 58.3419 123.77 57.6923 124.006 56.9197L124.463 55.428L125.771 55.8283L125.343 57.2282C125.078 58.0926 125.37 58.6548 126.22 58.9146C126.602 59.0317 126.962 59.0582 127.3 58.9942L128.054 56.5271ZM129.905 58.3483L130.256 57.2008L135.305 58.7459L134.954 59.8933L133.083 59.321L131.644 64.0256L130.335 63.6253L131.775 58.9206L129.905 58.3483ZM136.218 59.8032C136.926 59.401 137.709 59.331 138.566 59.5932C139.423 59.8554 140.028 60.3503 140.383 61.0779C140.745 61.8079 140.787 62.628 140.508 63.5384C140.23 64.4487 139.736 65.105 139.027 65.5072C138.326 65.9117 137.547 65.9829 136.691 65.7207C135.834 65.4585 135.224 64.9624 134.862 64.2325C134.507 63.5049 134.469 62.6859 134.748 61.7756C135.027 60.8652 135.516 60.2078 136.218 59.8032ZM136.071 63.6863C136.246 64.1248 136.571 64.4166 137.045 64.5618C137.52 64.7069 137.948 64.6457 138.331 64.3781C138.722 64.1128 139.004 63.6971 139.177 63.131C139.351 62.5649 139.349 62.0626 139.174 61.6241C139.006 61.188 138.685 60.8973 138.211 60.7522C137.737 60.607 137.304 60.6671 136.914 60.9324C136.531 61.2 136.252 61.6168 136.079 62.1829C135.906 62.749 135.903 63.2501 136.071 63.6863ZM54.3295 46.5147L59.4243 48.0738L57.6334 53.9259L56.3253 53.5256L57.765 48.821L55.2865 48.0625L53.8468 52.7671L52.5387 52.3668L54.3295 46.5147ZM61.02 49.3402C61.7287 48.938 62.5114 48.868 63.3682 49.1302C64.225 49.3924 64.8307 49.8873 65.1853 50.6149C65.5475 51.3449 65.5894 52.165 65.3108 53.0753C65.0322 53.9857 64.5385 54.6419 63.8298 55.0441C63.1288 55.4487 62.3498 55.5199 61.493 55.2577C60.6363 54.9955 60.0268 54.4994 59.6645 53.7694C59.3099 53.0418 59.2719 52.2229 59.5505 51.3125C59.8291 50.4022 60.3189 49.7448 61.02 49.3402ZM60.8732 53.2233C61.0486 53.6618 61.3734 53.9536 61.8477 54.0987C62.322 54.2439 62.7507 54.1826 63.1338 53.915C63.5245 53.6498 63.8065 53.2341 63.9797 52.668C64.153 52.1019 64.1519 51.5996 63.9765 51.1611C63.8088 50.7249 63.4878 50.4343 63.0135 50.2891C62.5393 50.144 62.1068 50.204 61.716 50.4693C61.3329 50.7369 61.0548 51.1538 60.8815 51.7199C60.7083 52.286 60.7055 52.7871 60.8732 53.2233ZM67.2278 50.4619L68.8802 50.9676L69.4398 55.7821L72.598 52.1053L74.2274 52.604L72.4365 58.4561L71.1743 58.0698L72.3998 54.0651L69.4257 57.5096L68.4618 57.2146L67.9212 52.7071L66.6992 56.7003L65.4369 56.314L67.2278 50.4619ZM75.8232 53.8704C76.532 53.4682 77.3147 53.3982 78.1715 53.6604C79.0283 53.9226 79.634 54.4175 79.9886 55.1451C80.3508 55.875 80.3926 56.6952 80.1141 57.6055C79.8355 58.5158 79.3418 59.1721 78.6331 59.5743C77.932 59.9789 77.1531 60.0501 76.2963 59.7879C75.4395 59.5257 74.83 59.0296 74.4678 58.2996C74.1132 57.572 74.0752 56.753 74.3538 55.8427C74.6323 54.9324 75.1222 54.2749 75.8232 53.8704ZM75.6765 57.7534C75.8519 58.1919 76.1767 58.4838 76.651 58.6289C77.1253 58.7741 77.554 58.7128 77.937 58.4452C78.3278 58.1799 78.6098 57.7643 78.783 57.1982C78.9562 56.6321 78.9552 56.1298 78.7798 55.6913C78.6121 55.2551 78.2911 54.9645 77.8168 54.8193C77.3425 54.6742 76.91 54.7342 76.5193 54.9995C76.1362 55.2671 75.8581 55.684 75.6848 56.2501C75.5116 56.8161 75.5088 57.3173 75.6765 57.7534ZM85.6961 57.3686L82.9881 56.5399L81.5483 61.2445L80.2402 60.8442L82.0311 54.9921L86.0473 56.2211L85.6961 57.3686ZM84.1577 62.0682L84.5089 60.9207L84.6925 60.9769C85.0138 61.0752 85.2664 61.0563 85.4502 60.9201C85.6441 60.7787 85.8293 60.4881 86.0056 60.0485L87.367 56.625L91.67 57.9419L89.8792 63.794L88.571 63.3936L90.0108 58.689L88.1633 58.1237L87.2168 60.5195C86.9098 61.304 86.5406 61.8269 86.1093 62.0881C85.688 62.344 85.156 62.3737 84.5134 62.177L84.1577 62.0682ZM93.2769 59.2117C93.9856 58.8094 94.7684 58.7394 95.6252 59.0016C96.4819 59.2638 97.0876 59.7587 97.4422 60.4863C97.8045 61.2163 97.8463 62.0364 97.5677 62.9468C97.2891 63.8571 96.7955 64.5134 96.0868 64.9156C95.3857 65.3201 94.6068 65.3913 93.75 65.1291C92.8932 64.8669 92.2837 64.3709 91.9214 63.6409C91.5668 62.9133 91.5288 62.0943 91.8074 61.184C92.086 60.2736 92.5758 59.6162 93.2769 59.2117ZM93.1302 63.0947C93.3055 63.5332 93.6304 63.825 94.1046 63.9702C94.5789 64.1153 95.0076 64.0541 95.3907 63.7865C95.7814 63.5212 96.0634 63.1055 96.2367 62.5394C96.4099 61.9733 96.4088 61.4711 96.2335 61.0325C96.0658 60.5964 95.7448 60.3057 95.2705 60.1606C94.7962 60.0154 94.3637 60.0755 93.973 60.3408C93.5899 60.6084 93.3117 61.0252 93.1385 61.5913C92.9652 62.1574 92.9625 62.6585 93.1302 63.0947ZM101.271 67.2803L99.9633 66.88L101.754 61.0279L103.062 61.4282L102.374 63.6772L104.887 64.4462L105.575 62.1972L106.883 62.5975L105.092 68.4496L103.784 68.0493L104.532 65.6052L102.019 64.8362L101.271 67.2803ZM111.064 66.0353C111.165 65.7064 111.135 65.4212 110.974 65.1797C110.824 64.9329 110.577 64.7568 110.232 64.6515C109.613 64.4618 109.157 64.5693 108.866 64.9738L107.627 64.5946C107.873 64.1178 108.257 63.7793 108.779 63.5791C109.31 63.3736 109.92 63.3762 110.608 63.5869C111.335 63.8093 111.855 64.1735 112.169 64.6794C112.49 65.1877 112.548 65.7784 112.342 66.4516L111.162 70.3071L109.946 69.9349L110.149 69.2693C109.557 69.6737 108.871 69.7565 108.091 69.5177C107.509 69.3398 107.074 69.0267 106.784 68.5784C106.505 68.1247 106.451 67.6187 106.622 67.0602C106.799 66.4789 107.144 66.0907 107.656 65.8959C108.177 65.6957 108.805 65.7079 109.539 65.9327L110.962 66.3681L111.064 66.0353ZM108.704 68.5384C109.11 68.6625 109.489 68.6531 109.842 68.5102C110.198 68.3597 110.434 68.0931 110.551 67.7107L110.66 67.3549L109.329 66.9476C108.985 66.8423 108.687 66.8307 108.436 66.9128C108.195 66.9896 108.035 67.1581 107.955 67.4182C107.876 67.6783 107.905 67.9091 108.044 68.1106C108.186 68.3045 108.406 68.4471 108.704 68.5384ZM114.26 64.855L115.913 65.3607L116.472 70.1752L119.63 66.4984L121.26 66.9971L119.469 72.8492L118.207 72.4629L119.432 68.4582L116.458 71.9027L115.494 71.6077L114.954 67.1002L113.732 71.0934L112.469 70.7071L114.26 64.855Z" fill="white"/>
<defs>
<linearGradient id="paint0_linear_201_834" x1="98.9593" y1="12.5683" x2="67.2147" y2="118.197" gradientUnits="userSpaceOnUse">
<stop stop-color="#66BEBE"/>
<stop offset="1" stop-color="#65DEA3"/>
</linearGradient>
</defs>
</svg>
