<svg width="190" height="120" viewBox="0 0 190 120" fill="none" xmlns="http://www.w3.org/2000/svg">
<path fill-rule="evenodd" clip-rule="evenodd" d="M154.061 36.2769C164.639 39.456 170.638 50.6086 167.459 61.1869L159.205 88.649C156.026 99.2273 144.874 105.226 134.295 102.046L104.457 93.0792L91.8853 99.8407C89.9397 100.887 87.5142 100.158 86.4678 98.2126L79.7063 85.6407L39.3961 73.5263C28.8178 70.3472 22.8196 59.1946 25.9987 48.6163L34.2519 21.1542C37.431 10.5758 48.5836 4.57761 59.1619 7.75672L154.061 36.2769Z" fill="url(#paint0_linear_201_762)"/>
<path d="M48.1567 17.856L49.8435 18.3722L50.5115 25.4161L54.9957 19.9489L56.6595 20.4581L54.1874 28.5363L52.8907 28.1395L54.6781 22.2989L50.503 27.3712L49.4015 27.0341L48.7801 20.4939L46.9927 26.3346L45.6846 25.9342L48.1567 17.856ZM61.6027 28.0196L57.4833 26.759L57.4763 26.7819C57.3382 27.2333 57.3688 27.6526 57.5682 28.0399C57.7676 28.4272 58.1006 28.6923 58.5672 28.8351C58.8885 28.9334 59.1723 28.9491 59.4187 28.8823C59.675 28.8101 59.8534 28.7058 59.9537 28.5692L61.2389 28.9624C61.0113 29.378 60.6295 29.6962 60.0934 29.917C59.565 30.1402 58.9374 30.1405 58.2107 29.9181C57.3386 29.6513 56.7218 29.1655 56.3601 28.4608C56.0008 27.7485 55.9652 26.9219 56.2531 25.9809C56.5411 25.04 57.0294 24.3738 57.7182 23.9822C58.4092 23.5829 59.1717 23.5109 60.0055 23.7661C60.8088 24.0119 61.3706 24.4724 61.691 25.1478C62.0114 25.8231 62.037 26.6006 61.7678 27.4803L61.6027 28.0196ZM59.6605 24.8526C59.2474 24.7262 58.8733 24.7456 58.5383 24.9108C58.211 25.0784 57.9638 25.3666 57.7968 25.7757L60.5966 26.6325C60.7124 26.1994 60.6842 25.8269 60.512 25.5148C60.3497 25.1974 60.0659 24.9767 59.6605 24.8526ZM63.1487 31.2787L61.8406 30.8784L63.6314 25.0263L64.9396 25.4266L64.2513 27.6756L66.7643 28.4447L67.4525 26.1956L68.7606 26.5959L66.9697 32.448L65.6616 32.0477L66.4096 29.6036L63.8966 28.8346L63.1487 31.2787ZM69.3041 28.0172L69.6552 26.8697L74.7041 28.4148L74.3529 29.5623L72.4826 28.9899L71.0428 33.6945L69.7347 33.2942L71.1744 28.5896L69.3041 28.0172ZM75.6168 29.4722C76.3255 29.0699 77.1083 28.9999 77.9651 29.2621C78.8218 29.5243 79.4275 30.0192 79.7821 30.7469C80.1444 31.4768 80.1862 32.297 79.9076 33.2073C79.6291 34.1176 79.1354 34.7739 78.4267 35.1761C77.7256 35.5806 76.9467 35.6518 76.0899 35.3896C75.2331 35.1274 74.6236 34.6314 74.2614 33.9014C73.9068 33.1738 73.8687 32.3548 74.1473 31.4445C74.4259 30.5342 74.9157 29.8767 75.6168 29.4722ZM75.4701 33.3552C75.6455 33.7937 75.9703 34.0855 76.4446 34.2307C76.9189 34.3758 77.3475 34.3146 77.7306 34.047C78.1213 33.7817 78.4033 33.366 78.5766 32.7999C78.7498 32.2339 78.7487 31.7316 78.5734 31.293C78.4057 30.8569 78.0847 30.5662 77.6104 30.4211C77.1361 30.2759 76.7036 30.336 76.3129 30.6013C75.9298 30.8689 75.6516 31.2857 75.4784 31.8518C75.3052 32.4179 75.3024 32.919 75.4701 33.3552ZM84.942 31.3973C85.6688 31.6197 86.1977 32.0785 86.5287 32.7738C86.8674 33.4715 86.8904 34.2984 86.5977 35.2546C86.3051 36.2109 85.8194 36.8821 85.1407 37.2684C84.4696 37.657 83.7668 37.739 83.0325 37.5142C82.627 37.3902 82.2935 37.2086 82.032 36.9696C81.7805 36.7253 81.6172 36.4662 81.5421 36.1922L80.6712 39.038L79.3631 38.6376L81.8247 30.5939L83.0869 30.9801L82.8551 31.7375C83.4049 31.2532 84.1006 31.1398 84.942 31.3973ZM83.1691 36.2886C83.6281 36.429 84.048 36.3693 84.4287 36.1093C84.8194 35.844 85.1026 35.4245 85.2782 34.8508C85.4514 34.2847 85.4503 33.7824 85.275 33.3439C85.1073 32.9077 84.7939 32.6194 84.3349 32.479C83.8683 32.3362 83.4408 32.3936 83.0524 32.6512C82.6663 32.9012 82.3855 33.313 82.21 33.8868L82.1959 33.9326C82.0203 34.5064 82.0214 35.0087 82.1991 35.4395C82.3791 35.8628 82.7025 36.1458 83.1691 36.2886ZM89.8058 33.0363L89.2615 34.8149L90.4319 35.173C91.0822 35.372 91.5438 35.7225 91.8169 36.2244C92.0923 36.7186 92.1399 37.2602 91.9597 37.8493C91.7771 38.4459 91.4272 38.8785 90.91 39.1469C90.4028 39.41 89.8279 39.4432 89.1853 39.2466L86.7183 38.4916L88.5092 32.6395L89.8058 33.0363ZM95.1645 34.6762L93.3736 40.5283L92.077 40.1315L93.8678 34.2794L95.1645 34.6762ZM89.9342 36.2255L88.9244 35.9164L88.3485 37.7983L89.3583 38.1073C89.6719 38.2033 89.9448 38.1864 90.1769 38.0567C90.4167 37.9292 90.5787 37.7278 90.663 37.4525C90.7473 37.1771 90.7234 36.9271 90.5913 36.7026C90.4669 36.4805 90.2478 36.3214 89.9342 36.2255ZM97.9752 36.7913L98.3263 35.6438L103.375 37.1889L103.024 38.3363L101.154 37.764L99.7139 42.4686L98.4058 42.0683L99.8455 37.3636L97.9752 36.7913ZM104.288 38.2462C104.997 37.844 105.779 37.774 106.636 38.0362C107.493 38.2984 108.099 38.7933 108.453 39.5209C108.815 40.2509 108.857 41.071 108.579 41.9814C108.3 42.8917 107.806 43.548 107.098 43.9502C106.397 44.3547 105.618 44.4259 104.761 44.1637C103.904 43.9015 103.295 43.4054 102.932 42.6755C102.578 41.9479 102.54 41.1289 102.818 40.2186C103.097 39.3082 103.587 38.6508 104.288 38.2462ZM104.141 42.1293C104.317 42.5678 104.641 42.8596 105.116 43.0048C105.59 43.1499 106.019 43.0887 106.402 42.8211C106.792 42.5558 107.074 42.1401 107.248 41.574C107.421 41.0079 107.42 40.5056 107.244 40.0671C107.077 39.631 106.756 39.3403 106.281 39.1952C105.807 39.05 105.375 39.1101 104.984 39.3754C104.601 39.643 104.323 40.0598 104.149 40.6259C103.976 41.192 103.973 41.6931 104.141 42.1293ZM114.494 40.5915L113.736 43.0701L116.537 41.2166L118.04 41.6766L114.925 43.7352L116.283 47.5392L114.746 47.0687L113.546 43.6897L112.703 46.4436L111.418 46.0503L112.261 43.2964L109.376 45.4253L107.849 44.9582L111.082 42.5968L109.663 39.1132L111.166 39.5732L112.45 42.6768L113.209 40.1982L114.494 40.5915ZM122.62 46.6926L118.501 45.432L118.494 45.4549C118.356 45.9062 118.386 46.3256 118.586 46.7129C118.785 47.1002 119.118 47.3652 119.585 47.508C119.906 47.6063 120.19 47.6221 120.436 47.5552C120.693 47.4831 120.871 47.3787 120.971 47.2421L122.257 47.6354C122.029 48.051 121.647 48.3692 121.111 48.59C120.583 48.8131 119.955 48.8135 119.228 48.5911C118.356 48.3242 117.739 47.8384 117.378 47.1338C117.019 46.4215 116.983 45.5948 117.271 44.6539C117.559 43.713 118.047 43.0467 118.736 42.6551C119.427 42.2559 120.189 42.1838 121.023 42.439C121.826 42.6848 122.388 43.1454 122.709 43.8207C123.029 44.496 123.055 45.2736 122.785 46.1533L122.62 46.6926ZM120.678 43.5256C120.265 43.3992 119.891 43.4186 119.556 43.5838C119.229 43.7513 118.981 44.0396 118.814 44.4486L121.614 45.3055C121.73 44.8724 121.702 44.4998 121.53 44.1878C121.367 43.8704 121.084 43.6497 120.678 43.5256ZM130.315 45.4331L131.623 45.8335L129.832 51.6856L128.524 51.2852L129.23 48.9788C128.825 49.0724 128.358 49.0384 127.831 48.8769C127.15 48.6685 126.66 48.3011 126.361 47.7745C126.062 47.248 126.03 46.5984 126.267 45.8257L126.723 44.334L128.032 44.7343L127.603 46.1343C127.339 46.9987 127.631 47.5608 128.48 47.8207C128.863 47.9377 129.223 47.9642 129.56 47.9002L130.315 45.4331ZM137.093 51.1217L132.974 49.861L132.967 49.884C132.829 50.3353 132.859 50.7546 133.059 51.1419C133.258 51.5292 133.591 51.7943 134.058 51.9371C134.379 52.0354 134.663 52.0512 134.909 51.9843C135.166 51.9122 135.344 51.8078 135.444 51.6712L136.729 52.0645C136.502 52.4801 136.12 52.7983 135.584 53.0191C135.056 53.2422 134.428 53.2426 133.701 53.0202C132.829 52.7533 132.212 52.2675 131.851 51.5629C131.491 50.8505 131.456 50.0239 131.744 49.083C132.032 48.1421 132.52 47.4758 133.209 47.0842C133.9 46.685 134.662 46.6129 135.496 46.8681C136.299 47.1139 136.861 47.5745 137.182 48.2498C137.502 48.9251 137.528 49.7026 137.258 50.5824L137.093 51.1217ZM135.151 47.9547C134.738 47.8283 134.364 47.8477 134.029 48.0129C133.702 48.1804 133.454 48.4687 133.287 48.8777L136.087 49.7345C136.203 49.3015 136.175 48.9289 136.003 48.6168C135.84 48.2995 135.556 48.0788 135.151 47.9547ZM142.239 48.9317C142.966 49.1541 143.495 49.613 143.826 50.3083C144.165 51.0059 144.188 51.8328 143.895 52.7891C143.602 53.7453 143.117 54.4166 142.438 54.8028C141.767 55.1915 141.064 55.2734 140.33 55.0487C139.924 54.9246 139.591 54.7431 139.329 54.5041C139.078 54.2598 138.915 54.0007 138.839 53.7267L137.969 56.5724L136.66 56.1721L139.122 48.1283L140.384 48.5146L140.152 49.2719C140.702 48.7876 141.398 48.6742 142.239 48.9317ZM140.466 53.823C140.925 53.9635 141.345 53.9037 141.726 53.6438C142.117 53.3785 142.4 52.959 142.576 52.3852C142.749 51.8192 142.748 51.3169 142.572 50.8784C142.405 50.4422 142.091 50.1539 141.632 50.0134C141.166 49.8706 140.738 49.928 140.35 50.1856C139.964 50.4356 139.683 50.8475 139.507 51.4212L139.493 51.4671C139.318 52.0408 139.319 52.5431 139.496 52.974C139.676 53.3972 140 53.6802 140.466 53.823ZM149.924 55.0483L145.805 53.7877L145.798 53.8106C145.66 54.262 145.69 54.6813 145.89 55.0686C146.089 55.4559 146.422 55.7209 146.889 55.8637C147.21 55.9621 147.494 55.9778 147.74 55.911C147.997 55.8388 148.175 55.7344 148.275 55.5978L149.561 55.9911C149.333 56.4067 148.951 56.7249 148.415 56.9457C147.887 57.1688 147.259 57.1692 146.532 56.9468C145.66 56.6799 145.043 56.1942 144.682 55.4895C144.323 54.7772 144.287 53.9506 144.575 53.0096C144.863 52.0687 145.351 51.4024 146.04 51.0108C146.731 50.6116 147.493 50.5396 148.327 50.7947C149.13 51.0405 149.692 51.5011 150.013 52.1764C150.333 52.8518 150.359 53.6293 150.089 54.509L149.924 55.0483ZM147.982 51.8813C147.569 51.7549 147.195 51.7743 146.86 51.9395C146.533 52.107 146.285 52.3953 146.118 52.8044L148.918 53.6612C149.034 53.2281 149.006 52.8555 148.834 52.5435C148.671 52.2261 148.388 52.0054 147.982 51.8813ZM151.12 53.5944C151.352 53.0547 151.741 52.6971 152.289 52.5216C152.844 52.3484 153.442 52.3601 154.085 52.5568C154.712 52.7487 155.182 53.0597 155.494 53.4898C155.805 53.9199 155.884 54.3874 155.73 54.8922C155.542 55.5042 155.129 55.8422 154.491 55.9061C154.755 56.0539 154.959 56.2753 155.103 56.5704C155.257 56.8601 155.274 57.2 155.155 57.5902C154.989 58.1333 154.628 58.5041 154.074 58.7026C153.527 58.9034 152.898 58.895 152.187 58.6772C151.498 58.4665 150.979 58.1277 150.628 57.6606C150.277 57.1935 150.153 56.6576 150.254 56.0528L151.528 56.4426C151.512 56.7138 151.59 56.951 151.762 57.1542C151.944 57.3522 152.196 57.5003 152.517 57.5986C152.854 57.7016 153.142 57.7147 153.383 57.6379C153.627 57.5534 153.787 57.3849 153.864 57.1325C154.009 56.6582 153.719 56.3099 152.992 56.0875L152.131 55.8241L152.447 54.7914L153.239 55.0337C153.545 55.1273 153.797 55.1375 153.995 55.0643C154.203 54.9857 154.343 54.8317 154.413 54.6022C154.481 54.3804 154.445 54.1813 154.307 54.0051C154.176 53.8312 153.969 53.7009 153.686 53.6143C153.388 53.523 153.123 53.5131 152.892 53.5846C152.661 53.6562 152.487 53.787 152.37 53.9772L151.12 53.5944ZM44.5098 34.284L46.7933 34.9828C46.8579 34.5257 46.7964 34.1387 46.6089 33.822C46.4214 33.5053 46.1325 33.2872 45.7424 33.1678C45.3675 33.0531 45.0461 33.0509 44.7781 33.1613C44.5124 33.2641 44.31 33.4197 44.1709 33.6281L42.9202 33.2453C43.1605 32.7332 43.5623 32.35 44.1253 32.0957C44.6884 31.8413 45.341 31.8277 46.083 32.0547C46.9321 32.3146 47.5264 32.806 47.8657 33.5289C48.2073 34.2442 48.2377 35.0608 47.9567 35.9788C47.6758 36.8968 47.1886 37.5592 46.4952 37.9661C45.8118 38.3677 45.0417 38.4374 44.1849 38.1752C43.4505 37.9505 42.9135 37.5728 42.5739 37.0422C42.2343 36.5116 42.1217 35.9501 42.2361 35.3576L43.4754 35.7369C43.4593 36.008 43.5303 36.2682 43.6883 36.5173C43.8563 36.7612 44.1392 36.9439 44.537 37.0657C44.9577 37.1944 45.3391 37.1647 45.6811 36.9766C46.0308 36.7908 46.3012 36.4678 46.4922 36.0075L44.1973 35.3052L44.5098 34.284ZM48.8377 34.3033L49.1889 33.1558L54.2378 34.7009L53.8866 35.8484L52.0162 35.276L50.5765 39.9806L49.2684 39.5803L50.7081 34.8757L48.8377 34.3033ZM55.1505 35.7583C55.8592 35.3561 56.642 35.2861 57.4987 35.5482C58.3555 35.8104 58.9612 36.3054 59.3158 37.033C59.678 37.7629 59.7199 38.5831 59.4413 39.4934C59.1627 40.4037 58.6691 41.06 57.9603 41.4622C57.2593 41.8668 56.4803 41.9379 55.6236 41.6757C54.7668 41.4135 54.1573 40.9175 53.795 40.1875C53.4404 39.4599 53.4024 38.6409 53.681 37.7306C53.9596 36.8203 54.4494 36.1628 55.1505 35.7583ZM55.0038 39.6413C55.1791 40.0798 55.5039 40.3717 55.9782 40.5168C56.4525 40.6619 56.8812 40.6007 57.2643 40.3331C57.655 40.0678 57.937 39.6521 58.1102 39.0861C58.2835 38.52 58.2824 38.0177 58.1071 37.5792C57.9393 37.143 57.6184 36.8523 57.1441 36.7072C56.6698 36.562 56.2373 36.6221 55.8465 36.8874C55.4635 37.155 55.1853 37.5718 55.0121 38.1379C54.8388 38.704 54.8361 39.2051 55.0038 39.6413ZM63.6277 37.5745L68.7225 39.1336L66.9316 44.9857L65.6235 44.5854L67.0632 39.8808L64.5847 39.1223L63.145 43.8269L61.8369 43.4266L63.6277 37.5745ZM73.1943 40.3515C73.921 40.5739 74.4499 41.0327 74.7809 41.728C75.1196 42.4257 75.1426 43.2526 74.85 44.2088C74.5573 45.1651 74.0716 45.8363 73.3929 46.2226C72.7218 46.6112 72.019 46.6932 71.2847 46.4684C70.8792 46.3444 70.5457 46.1628 70.2842 45.9238C70.0327 45.6795 69.8694 45.4204 69.7943 45.1464L68.9234 47.9922L67.6153 47.5918L70.0769 39.5481L71.3391 39.9343L71.1073 40.6917C71.6571 40.2074 72.3528 40.094 73.1943 40.3515ZM71.4213 45.2428C71.8803 45.3832 72.3002 45.3235 72.6809 45.0635C73.0716 44.7982 73.3548 44.3787 73.5304 43.805C73.7036 43.2389 73.7025 42.7366 73.5272 42.2981C73.3595 41.8619 73.0461 41.5736 72.5871 41.4332C72.1205 41.2904 71.693 41.3478 71.3046 41.6054C70.9186 41.8554 70.6377 42.2672 70.4622 42.841L70.4481 42.8869C70.2725 43.4606 70.2736 43.9629 70.4513 44.3938C70.6313 44.817 70.9547 45.1 71.4213 45.2428ZM77.0026 42.4456C77.7114 42.0434 78.4941 41.9734 79.3509 42.2356C80.2077 42.4978 80.8134 42.9927 81.168 43.7203C81.5302 44.4502 81.572 45.2704 81.2935 46.1807C81.0149 47.091 80.5212 47.7473 79.8125 48.1495C79.1114 48.5541 78.3325 48.6253 77.4757 48.3631C76.6189 48.1009 76.0094 47.6048 75.6472 46.8748C75.2926 46.1472 75.2546 45.3282 75.5331 44.4179C75.8117 43.5076 76.3016 42.8501 77.0026 42.4456ZM76.8559 46.3286C77.0313 46.7671 77.3561 47.059 77.8304 47.2041C78.3047 47.3493 78.7334 47.288 79.1164 47.0204C79.5072 46.7551 79.7891 46.3395 79.9624 45.7734C80.1356 45.2073 80.1346 44.705 79.9592 44.2665C79.7915 43.8303 79.4705 43.5397 78.9962 43.3945C78.5219 43.2494 78.0894 43.3094 77.6987 43.5747C77.3156 43.8423 77.0374 44.2592 76.8642 44.8253C76.691 45.3913 76.6882 45.8925 76.8559 46.3286ZM84.7649 50.4432L84.006 48.0022L82.034 49.6074L80.5767 49.1614L83.5031 46.8569L82.3905 43.3164L83.8937 43.7764L84.6306 46.2482L86.6017 44.6051L88.0475 45.0476L85.122 47.39L86.2796 50.9067L84.7649 50.4432ZM88.8252 46.0636C89.5339 45.6614 90.3166 45.5914 91.1734 45.8536C92.0302 46.1158 92.6359 46.6107 92.9905 47.3383C93.3527 48.0682 93.3946 48.8884 93.116 49.7987C92.8374 50.709 92.3438 51.3653 91.635 51.7675C90.934 52.1721 90.155 52.2433 89.2983 51.9811C88.4415 51.7189 87.832 51.2228 87.4697 50.4928C87.1151 49.7652 87.0771 48.9462 87.3557 48.0359C87.6343 47.1256 88.1241 46.4681 88.8252 46.0636ZM88.6785 49.9466C88.8538 50.3851 89.1786 50.677 89.6529 50.8221C90.1272 50.9673 90.5559 50.906 90.939 50.6384C91.3297 50.3731 91.6117 49.9575 91.7849 49.3914C91.9582 48.8253 91.9571 48.323 91.7817 47.8845C91.614 47.4483 91.293 47.1577 90.8188 47.0125C90.3445 46.8674 89.912 46.9274 89.5212 47.1927C89.1381 47.4603 88.86 47.8772 88.6868 48.4432C88.5135 49.0093 88.5107 49.5105 88.6785 49.9466ZM99.5506 53.713L98.7499 56.3292L97.4877 55.943L97.9372 54.4742L93.8063 53.21L93.3568 54.6788L92.0946 54.2925L92.8952 51.6763L93.3657 51.8203C93.7685 51.7344 94.1726 51.1929 94.5781 50.196L95.6775 47.3825L100.141 48.7485L98.7014 53.4531L99.5506 53.713ZM95.8033 50.6211C95.4582 51.5027 95.1123 52.0452 94.7656 52.2487L97.3933 53.0528L98.4819 49.4957L96.4853 48.8847L95.8033 50.6211ZM107.072 50.8697L105.282 56.7218L103.996 56.3285L105.187 52.4385L101.346 55.5173L100.083 55.131L101.874 49.2789L103.16 49.6722L101.966 53.5736L105.81 50.4834L107.072 50.8697ZM106.007 56.9688L106.358 55.8213L106.542 55.8775C106.863 55.9759 107.115 55.9569 107.299 55.8208C107.493 55.6793 107.678 55.3888 107.855 54.9492L109.216 51.5257L113.519 52.8425L111.728 58.6946L110.42 58.2943L111.86 53.5897L110.012 53.0243L109.066 55.4202C108.759 56.2047 108.39 56.7276 107.958 56.9888C107.537 57.2447 107.005 57.2743 106.363 57.0777L106.007 56.9688ZM120.083 54.8512L118.292 60.7033L117.007 60.31L118.197 56.42L114.356 59.4988L113.094 59.1125L114.885 53.2604L116.17 53.6537L114.976 57.5551L118.821 54.4649L120.083 54.8512ZM128.902 57.5501L127.111 63.4022L125.826 63.0089L127.017 59.119L123.175 62.1978L121.913 61.8115L123.704 55.9594L124.989 56.3527L123.795 60.2541L127.64 57.1638L128.902 57.5501ZM43.9797 45.3659L41.2717 44.5372L39.8319 49.2418L38.5238 48.8415L40.3147 42.9894L44.3308 44.2185L43.9797 45.3659ZM45.2794 45.2868C45.9881 44.8846 46.7709 44.8146 47.6277 45.0768C48.4845 45.339 49.0901 45.8339 49.4447 46.5615C49.807 47.2915 49.8488 48.1116 49.5702 49.0219C49.2917 49.9323 48.798 50.5885 48.0893 50.9907C47.3882 51.3953 46.6093 51.4665 45.7525 51.2043C44.8957 50.9421 44.2862 50.446 43.924 49.7161C43.5694 48.9884 43.5314 48.1695 43.8099 47.2591C44.0885 46.3488 44.5784 45.6914 45.2794 45.2868ZM45.1327 49.1699C45.3081 49.6084 45.6329 49.9002 46.1072 50.0453C46.5815 50.1905 47.0101 50.1292 47.3932 49.8616C47.784 49.5964 48.0659 49.1807 48.2392 48.6146C48.4124 48.0485 48.4114 47.5462 48.236 47.1077C48.0683 46.6715 47.7473 46.3809 47.273 46.2357C46.7987 46.0906 46.3662 46.1507 45.9755 46.4159C45.5924 46.6835 45.3142 47.1004 45.141 47.6665C44.9678 48.2326 44.965 48.7337 45.1327 49.1699ZM50.453 47.3469L50.8042 46.1995L55.8531 47.7446L55.5019 48.892L53.6315 48.3196L52.1918 53.0243L50.8837 52.624L52.3234 47.9193L50.453 47.3469ZM56.7658 48.8019C57.4745 48.3997 58.2573 48.3297 59.114 48.5919C59.9708 48.8541 60.5765 49.349 60.9311 50.0766C61.2934 50.8066 61.3352 51.6267 61.0566 52.5371C60.778 53.4474 60.2844 54.1037 59.5757 54.5059C58.8746 54.9104 58.0957 54.9816 57.2389 54.7194C56.3821 54.4572 55.7726 53.9611 55.4103 53.2312C55.0557 52.5036 55.0177 51.6846 55.2963 50.7743C55.5749 49.8639 56.0647 49.2065 56.7658 48.8019ZM56.6191 52.685C56.7944 53.1235 57.1193 53.4153 57.5935 53.5605C58.0678 53.7056 58.4965 53.6444 58.8796 53.3768C59.2703 53.1115 59.5523 52.6958 59.7255 52.1297C59.8988 51.5636 59.8977 51.0613 59.7224 50.6228C59.5547 50.1867 59.2337 49.896 58.7594 49.7509C58.2851 49.6057 57.8526 49.6658 57.4618 49.931C57.0788 50.1987 56.8006 50.6155 56.6274 51.1816C56.4541 51.7477 56.4514 52.2488 56.6191 52.685ZM61.1828 55.7757L62.9737 49.9236L65.6014 50.7278C66.2287 50.9198 66.6635 51.2076 66.9058 51.5913C67.1481 51.975 67.2014 52.3887 67.0656 52.8324C66.9673 53.1537 66.805 53.3968 66.5788 53.5619C66.3626 53.7216 66.1257 53.8122 65.8681 53.8338C66.1407 54.0093 66.339 54.2498 66.463 54.5555C66.5946 54.8635 66.6031 55.2049 66.4884 55.5797C66.3385 56.0693 66.032 56.4148 65.5689 56.616C65.1157 56.812 64.5678 56.8117 63.9252 56.615L61.1828 55.7757ZM64.5301 54.0644L63.2335 53.6676L62.777 55.1593L64.0736 55.5561C64.3643 55.645 64.606 55.6479 64.7988 55.5647C65.0016 55.4761 65.1393 55.3133 65.2119 55.0762C65.3617 54.5866 65.1344 54.2493 64.5301 54.0644ZM65.1317 51.6884L63.9498 51.3267L63.5355 52.6807L64.7173 53.0424C64.9698 53.1197 65.1836 53.1182 65.3587 53.0379C65.5415 52.96 65.6657 52.8139 65.7313 52.5997C65.867 52.1561 65.6672 51.8523 65.1317 51.6884ZM70.0919 52.102L69.5476 53.8806L70.7181 54.2388C71.3683 54.4378 71.83 54.7882 72.103 55.2901C72.3785 55.7843 72.4261 56.3259 72.2458 56.915C72.0632 57.5117 71.7133 57.9442 71.1961 58.2126C70.6889 58.4757 70.114 58.5089 69.4715 58.3123L67.0044 57.5573L68.7953 51.7052L70.0919 52.102ZM75.4506 53.7419L73.6597 59.594L72.3631 59.1972L74.154 53.3451L75.4506 53.7419ZM70.2203 55.2912L69.2105 54.9822L68.6346 56.864L69.6444 57.173C69.958 57.269 70.2309 57.2521 70.4631 57.1224C70.7028 56.995 70.8649 56.7936 70.9492 56.5182C71.0334 56.2428 71.0095 55.9928 70.8774 55.7684C70.753 55.5462 70.5339 55.3872 70.2203 55.2912ZM79.0714 54.85L84.1662 56.4091L82.3753 62.2612L81.0672 61.8609L82.5069 57.1563L80.0284 56.3978L78.5887 61.1024L77.2805 60.7021L79.0714 54.85ZM85.7618 57.6755C86.4706 57.2733 87.2533 57.2032 88.1101 57.4654C88.9669 57.7276 89.5726 58.2225 89.9272 58.9502C90.2894 59.6801 90.3312 60.5003 90.0527 61.4106C89.7741 62.3209 89.2804 62.9772 88.5717 63.3794C87.8706 63.784 87.0917 63.8551 86.2349 63.5929C85.3782 63.3307 84.7686 62.8347 84.4064 62.1047C84.0518 61.3771 84.0138 60.5581 84.2924 59.6478C84.5709 58.7375 85.0608 58.08 85.7618 57.6755ZM85.6151 61.5585C85.7905 61.997 86.1153 62.2888 86.5896 62.434C87.0639 62.5791 87.4926 62.5179 87.8756 62.2503C88.2664 61.985 88.5484 61.5693 88.7216 61.0032C88.8948 60.4372 88.8938 59.9349 88.7184 59.4964C88.5507 59.0602 88.2297 58.7695 87.7554 58.6244C87.2811 58.4792 86.8486 58.5393 86.4579 58.8046C86.0748 59.0722 85.7967 59.489 85.6234 60.0551C85.4502 60.6212 85.4474 61.1223 85.6151 61.5585ZM96.4872 65.3249L95.6866 67.9411L94.4244 67.5548L94.8739 66.0861L90.743 64.8219L90.2935 66.2907L89.0313 65.9044L89.8319 63.2882L90.3024 63.4322C90.7051 63.3463 91.1093 62.8048 91.5148 61.8078L92.6142 58.9944L97.0778 60.3604L95.6381 65.065L96.4872 65.3249ZM92.74 62.233C92.3949 63.1146 92.049 63.6571 91.7023 63.8606L94.33 64.6647L95.4186 61.1075L93.422 60.4965L92.74 62.233ZM99.8345 66.4873C100.217 66.6043 100.541 66.5988 100.806 66.4708C101.079 66.3451 101.29 66.1589 101.441 65.9122L102.715 66.302C102.463 66.8776 102.041 67.3006 101.448 67.5709C100.855 67.8411 100.195 67.8651 99.4683 67.6427C98.6192 67.3828 98.0211 66.8903 97.6742 66.165C97.3296 65.4321 97.2954 64.6143 97.5716 63.7116C97.8455 62.8166 98.3266 62.1606 99.0147 61.7437C99.7104 61.3292 100.487 61.253 101.343 61.5152C102.086 61.7423 102.618 62.1352 102.94 62.6941C103.265 63.2453 103.378 63.8195 103.279 64.4166L102.005 64.0269C102.001 63.741 101.92 63.4735 101.762 63.2244C101.614 62.9699 101.356 62.7865 100.989 62.6741C100.53 62.5337 100.109 62.5973 99.7257 62.8649C99.3503 63.1348 99.0759 63.5528 98.9027 64.1189C98.7271 64.6927 98.7232 65.1976 98.8909 65.6338C99.061 66.0623 99.3755 66.3468 99.8345 66.4873ZM104.385 68.9968L103.077 68.5965L104.868 62.7444L106.176 63.1447L105.432 65.5773L108.425 63.833L109.974 64.307L106.611 66.2769L108.218 70.1697L106.634 69.6851L105.221 66.2658L104.385 68.9968ZM113.427 67.5221C113.528 67.1932 113.498 66.908 113.337 66.6665C113.187 66.4197 112.94 66.2436 112.596 66.1382C111.976 65.9486 111.52 66.0561 111.229 66.4606L109.99 66.0813C110.236 65.6045 110.62 65.266 111.142 65.0659C111.673 64.8604 112.283 64.863 112.971 65.0737C113.698 65.2961 114.218 65.6602 114.532 66.1662C114.853 66.6744 114.911 67.2652 114.705 67.9384L113.525 71.7939L112.309 71.4216L112.513 70.7561C111.92 71.1605 111.234 71.2433 110.454 71.0045C109.872 70.8266 109.437 70.5135 109.147 70.0651C108.868 69.6115 108.814 69.1054 108.985 68.547C109.162 67.9656 109.507 67.5775 110.019 67.3826C110.54 67.1824 111.168 67.1947 111.902 67.4195L113.325 67.8549L113.427 67.5221ZM111.067 70.0252C111.473 70.1492 111.852 70.1398 112.205 69.9969C112.561 69.8464 112.797 69.5799 112.914 69.1974L113.023 68.8417L111.692 68.4344C111.348 68.329 111.05 68.3174 110.799 68.3996C110.558 68.4764 110.398 68.6448 110.318 68.9049C110.239 69.165 110.268 69.3958 110.407 69.5974C110.549 69.7913 110.769 69.9339 111.067 70.0252ZM115.846 67.8984C116.078 67.3587 116.468 67.0011 117.015 66.8256C117.57 66.6524 118.169 66.6641 118.811 66.8608C119.439 67.0527 119.908 67.3637 120.22 67.7938C120.532 68.2239 120.61 68.6914 120.456 69.1962C120.268 69.8082 119.856 70.1462 119.217 70.2101C119.481 70.3579 119.685 70.5793 119.829 70.8744C119.983 71.1641 120.001 71.504 119.881 71.8942C119.715 72.4373 119.355 72.8081 118.8 73.0066C118.254 73.2074 117.625 73.199 116.913 72.9812C116.225 72.7705 115.705 72.4317 115.354 71.9646C115.004 71.4975 114.879 70.9616 114.98 70.3568L116.254 70.7466C116.238 71.0178 116.316 71.255 116.488 71.4582C116.67 71.6562 116.922 71.8043 117.243 71.9026C117.58 72.0056 117.869 72.0187 118.11 71.9419C118.353 71.8574 118.513 71.6889 118.591 71.4365C118.736 70.9622 118.445 70.6139 117.718 70.3915L116.858 70.1281L117.174 69.0954L117.965 69.3377C118.271 69.4313 118.523 69.4415 118.722 69.3683C118.93 69.2897 119.069 69.1357 119.139 68.9062C119.207 68.6844 119.172 68.4853 119.033 68.3091C118.902 68.1352 118.695 68.0049 118.412 67.9183C118.114 67.827 117.849 67.8171 117.618 67.8887C117.387 67.9602 117.213 68.091 117.097 68.2812L115.846 67.8984ZM125.014 71.0681C125.115 70.7392 125.085 70.4539 124.925 70.2124C124.774 69.9656 124.527 69.7896 124.183 69.6842C123.563 69.4946 123.108 69.602 122.817 70.0066L121.577 69.6273C121.824 69.1505 122.207 68.812 122.729 68.6118C123.26 68.4064 123.87 68.409 124.559 68.6196C125.285 68.842 125.806 69.2062 126.119 69.7121C126.441 70.2204 126.498 70.8112 126.292 71.4843L125.112 75.3398L123.896 74.9676L124.1 74.3021C123.508 74.7065 122.821 74.7893 122.041 74.5505C121.46 74.3726 121.024 74.0594 120.735 73.6111C120.455 73.1575 120.401 72.6514 120.572 72.093C120.75 71.5116 121.094 71.1235 121.606 70.9286C122.127 70.7284 122.755 70.7407 123.489 70.9654L124.912 71.4009L125.014 71.0681ZM122.654 73.5711C123.06 73.6952 123.439 73.6858 123.792 73.5429C124.148 73.3924 124.384 73.1259 124.501 72.7434L124.61 72.3877L123.279 71.9804C122.935 71.875 122.637 71.8634 122.386 71.9455C122.145 72.0224 121.985 72.1908 121.905 72.4509C121.826 72.711 121.856 72.9418 121.995 73.1434C122.136 73.3372 122.356 73.4798 122.654 73.5711ZM127.3 70.8639L127.651 69.7165L132.7 71.2615L132.348 72.409L130.478 71.8366L129.038 76.5413L127.73 76.1409L129.17 71.4363L127.3 70.8639ZM134.892 71.9324L134.347 73.711L135.518 74.0692C136.168 74.2682 136.63 74.6186 136.903 75.1205C137.178 75.6147 137.226 76.1564 137.046 76.7454C136.863 77.3421 136.513 77.7746 135.996 78.043C135.489 78.3061 134.914 78.3393 134.271 78.1427L131.804 77.3877L133.595 71.5356L134.892 71.9324ZM135.02 75.1216L134.01 74.8126L133.434 76.6944L134.444 77.0034C134.758 77.0994 135.031 77.0825 135.263 76.9528C135.503 76.8254 135.665 76.624 135.749 76.3486C135.833 76.0732 135.809 75.8233 135.677 75.5988C135.553 75.3766 135.334 75.2176 135.02 75.1216ZM139.258 78.9408C139.202 79.1244 139.102 79.3116 138.96 79.5024L137.655 81.186L136.656 80.8805L137.862 79.2791C137.544 79.0314 137.441 78.7277 137.551 78.3682C137.623 78.131 137.763 77.9606 137.971 77.8567C138.178 77.7529 138.404 77.7384 138.649 77.8133C138.894 77.8883 139.075 78.0356 139.191 78.2554C139.311 78.4676 139.333 78.696 139.258 78.9408ZM36.3204 60.7166L35.0122 60.3162L36.8031 54.4641L38.1113 54.8644L37.3668 57.2971L40.3603 55.5527L41.9094 56.0268L38.5457 57.9967L40.1529 61.8894L38.5694 61.4048L37.1561 57.9856L36.3204 60.7166ZM45.3621 59.2419C45.4627 58.9129 45.4329 58.6277 45.2725 58.3862C45.1222 58.1394 44.8749 57.9633 44.5306 57.858C43.911 57.6684 43.4556 57.7758 43.1645 58.1803L41.9252 57.8011C42.1715 57.3243 42.5554 56.9858 43.0768 56.7856C43.6082 56.5801 44.2181 56.5827 44.9066 56.7934C45.6334 57.0158 46.1536 57.38 46.4672 57.8859C46.7886 58.3942 46.8462 58.9849 46.6402 59.6581L45.4603 63.5136L44.244 63.1414L44.4477 62.4759C43.8554 62.8802 43.1692 62.963 42.3889 62.7243C41.8075 62.5463 41.3721 62.2332 41.0826 61.7849C40.8031 61.3312 40.7488 60.8252 40.9197 60.2668C41.0976 59.6854 41.4423 59.2972 41.9537 59.1024C42.4751 58.9022 43.103 58.9145 43.8374 59.1392L45.2602 59.5746L45.3621 59.2419ZM43.0023 61.7449C43.4078 61.869 43.7871 61.8596 44.1404 61.7167C44.496 61.5662 44.7323 61.2997 44.8494 60.9172L44.9582 60.5615L43.6272 60.1541C43.2829 60.0488 42.9853 60.0372 42.7343 60.1193C42.4932 60.1961 42.3329 60.3646 42.2533 60.6247C42.1737 60.8848 42.2035 61.1156 42.3426 61.3171C42.4841 61.511 42.704 61.6536 43.0023 61.7449ZM48.0757 64.314L46.7676 63.9137L48.5584 58.0616L49.8666 58.4619L49.1221 60.8945L52.1156 59.1501L53.6647 59.6242L50.301 61.5941L51.9082 65.4868L50.3247 65.0022L48.9114 61.583L48.0757 64.314ZM57.6841 66.1375C58.0665 66.2545 58.3903 66.2491 58.6554 66.121C58.9281 65.9953 59.1399 65.8091 59.2907 65.5625L60.5644 65.9522C60.3129 66.5279 59.8907 66.9508 59.2976 67.2211C58.7045 67.4914 58.0446 67.5153 57.3179 67.2929C56.4688 67.0331 55.8707 66.5405 55.5238 65.8152C55.1792 65.0823 55.145 64.2645 55.4212 63.3618C55.6951 62.4668 56.1762 61.8108 56.8643 61.394C57.56 60.9794 58.3363 60.9032 59.1931 61.1654C59.9351 61.3925 60.4674 61.7855 60.79 62.3443C61.1149 62.8956 61.2279 63.4697 61.1288 64.0669L59.8551 63.6771C59.8505 63.3913 59.7692 63.1238 59.6112 62.8746C59.4632 62.6202 59.2056 62.4367 58.8384 62.3244C58.3794 62.1839 57.9584 62.2475 57.5753 62.5151C57.1999 62.7851 56.9256 63.2031 56.7523 63.7692C56.5767 64.3429 56.5728 64.8479 56.7405 65.284C56.9106 65.7125 57.2251 65.997 57.6841 66.1375ZM65.6706 65.8584L67.954 66.5572C68.0186 66.1001 67.9572 65.7131 67.7696 65.3964C67.5821 65.0797 67.2933 64.8616 66.9031 64.7422C66.5283 64.6275 66.2069 64.6253 65.9388 64.7357C65.6731 64.8385 65.4707 64.9941 65.3317 65.2025L64.0809 64.8197C64.3213 64.3076 64.723 63.9244 65.2861 63.6701C65.8492 63.4157 66.5017 63.4021 67.2438 63.6291C68.0929 63.889 68.6871 64.3804 69.0264 65.1033C69.368 65.8186 69.3984 66.6352 69.1175 67.5532C68.8366 68.4712 68.3494 69.1336 67.656 69.5405C66.9725 69.9421 66.2024 70.0118 65.3456 69.7496C64.6113 69.5249 64.0743 69.1472 63.7347 68.6166C63.3951 68.086 63.2825 67.5245 63.3969 66.932L64.6361 67.3113C64.6201 67.5824 64.691 67.8426 64.8491 68.0917C65.0171 68.3356 65.2999 68.5183 65.6977 68.6401C66.1185 68.7688 66.4999 68.7391 66.8419 68.551C67.1916 68.3652 67.4619 68.0422 67.653 67.5819L65.358 66.8796L65.6706 65.8584ZM69.9985 65.8777L70.3496 64.7302L75.3985 66.2753L75.0474 67.4228L73.177 66.8504L71.7372 71.555L70.4291 71.1547L71.8689 66.4501L69.9985 65.8777ZM81.4921 68.1401L79.7012 73.9922L78.4161 73.5989L79.6065 69.709L75.7654 72.7877L74.5032 72.4015L76.2941 66.5494L77.5792 66.9427L76.3853 70.8441L80.2299 67.7538L81.4921 68.1401ZM82.8441 68.5538L84.4964 69.0595L85.0561 73.874L88.2142 70.1972L89.8436 70.6959L88.0528 76.548L86.7905 76.1617L88.0161 72.157L85.0419 75.6015L84.0781 75.3065L83.5374 70.799L82.3154 74.7922L81.0532 74.4059L82.8441 68.5538ZM96.585 72.6083C97.3117 72.8307 97.8406 73.2895 98.1716 73.9849C98.5103 74.6825 98.5333 75.5094 98.2407 76.4657C97.948 77.4219 97.4623 78.0931 96.7836 78.4794C96.1125 78.8681 95.4097 78.95 94.6754 78.7253C94.2699 78.6012 93.9364 78.4197 93.6749 78.1807C93.4234 77.9364 93.2601 77.6772 93.185 77.4033L92.3141 80.249L91.006 79.8487L93.4676 71.8049L94.7298 72.1912L94.498 72.9485C95.0478 72.4642 95.7435 72.3508 96.585 72.6083ZM94.812 77.4996C95.271 77.6401 95.6909 77.5803 96.0716 77.3203C96.4623 77.0551 96.7455 76.6356 96.9211 76.0618C97.0943 75.4957 97.0932 74.9934 96.9179 74.5549C96.7502 74.1188 96.4368 73.8305 95.9778 73.69C95.5112 73.5472 95.0837 73.6046 94.6953 73.8622C94.3093 74.1122 94.0284 74.524 93.8529 75.0978L93.8388 75.1437C93.6632 75.7174 93.6643 76.2197 93.842 76.6506C94.022 77.0738 94.3454 77.3568 94.812 77.4996ZM102.979 76.8741C103.08 76.5452 103.05 76.26 102.889 76.0185C102.739 75.7717 102.492 75.5956 102.148 75.4902C101.528 75.3006 101.073 75.4081 100.781 75.8126L99.5422 75.4333C99.7885 74.9565 100.172 74.6181 100.694 74.4179C101.225 74.2124 101.835 74.215 102.524 74.4257C103.25 74.6481 103.771 75.0122 104.084 75.5182C104.406 76.0265 104.463 76.6172 104.257 77.2904L103.077 81.1459L101.861 80.7736L102.065 80.1081C101.472 80.5125 100.786 80.5953 100.006 80.3565C99.4244 80.1786 98.989 79.8655 98.6995 79.4171C98.42 78.9635 98.3657 78.4575 98.5366 77.899C98.7146 77.3176 99.0592 76.9295 99.5706 76.7346C100.092 76.5344 100.72 76.5467 101.454 76.7715L102.877 77.2069L102.979 76.8741ZM100.619 79.3772C101.025 79.5012 101.404 79.4918 101.757 79.349C102.113 79.1984 102.349 78.9319 102.466 78.5494L102.575 78.1937L101.244 77.7864C100.9 77.681 100.602 77.6694 100.351 77.7516C100.11 77.8284 99.9499 77.9969 99.8703 78.2569C99.7907 78.517 99.8204 78.7479 99.9596 78.9494C100.101 79.1433 100.321 79.2859 100.619 79.3772ZM109.156 76.6562C109.929 76.8927 110.475 77.3485 110.796 78.0239C111.124 78.7015 111.15 79.4917 110.874 80.3944C110.614 81.2435 110.135 81.8792 109.437 82.3014C108.748 82.7183 107.98 82.7968 107.131 82.5369C106.182 82.2466 105.537 81.7021 105.196 80.9033C104.857 80.0968 104.862 79.1237 105.211 77.9839C105.639 76.5839 106.186 75.5923 106.849 75.009C107.515 74.4181 108.402 74.1873 109.508 74.3168L112.017 74.6077L111.652 75.801L109.363 75.4896C108.726 75.4117 108.215 75.494 107.831 75.7363C107.45 75.971 107.133 76.3926 106.88 77.0011C107.51 76.4996 108.269 76.3847 109.156 76.6562ZM107.41 81.3798C107.891 81.5273 108.323 81.4711 108.704 81.2111C109.094 80.9459 109.374 80.5378 109.542 79.987C109.706 79.4516 109.698 78.9722 109.518 78.549C109.348 78.1205 109.026 77.8336 108.552 77.6885C108.077 77.5434 107.641 77.5896 107.242 77.8272C106.845 78.0572 106.562 78.4476 106.394 78.9984C106.221 79.5645 106.222 80.0668 106.397 80.5053C106.582 80.9385 106.92 81.23 107.41 81.3798ZM113.045 78.5742C113.754 78.172 114.537 78.102 115.393 78.3641C116.25 78.6263 116.856 79.1212 117.21 79.8489C117.573 80.5788 117.614 81.399 117.336 82.3093C117.057 83.2196 116.564 83.8759 115.855 84.2781C115.154 84.6827 114.375 84.7538 113.518 84.4916C112.661 84.2294 112.052 83.7334 111.69 83.0034C111.335 82.2758 111.297 81.4568 111.576 80.5465C111.854 79.6362 112.344 78.9787 113.045 78.5742ZM112.898 82.4572C113.074 82.8957 113.399 83.1876 113.873 83.3327C114.347 83.4778 114.776 83.4166 115.159 83.149C115.55 82.8837 115.832 82.468 116.005 81.902C116.178 81.3359 116.177 80.8336 116.002 80.3951C115.834 79.9589 115.513 79.6682 115.039 79.5231C114.564 79.3779 114.132 79.438 113.741 79.7033C113.358 79.9709 113.08 80.3877 112.907 80.9538C112.733 81.5199 112.731 82.021 112.898 82.4572ZM118.219 80.6343L118.57 79.4868L123.619 81.0319L123.268 82.1794L121.397 81.607L119.957 86.3116L118.649 85.9113L120.089 81.2067L118.219 80.6343ZM127.229 84.2953C127.33 83.9664 127.3 83.6811 127.14 83.4396C126.989 83.1928 126.742 83.0168 126.398 82.9114C125.778 82.7218 125.323 82.8292 125.032 83.2338L123.792 82.8545C124.039 82.3777 124.423 82.0392 124.944 81.839C125.475 81.6335 126.085 81.6361 126.774 81.8468C127.5 82.0692 128.021 82.4334 128.334 82.9393C128.656 83.4476 128.713 84.0384 128.507 84.7115L127.327 88.567L126.111 88.1948L126.315 87.5293C125.723 87.9337 125.036 88.0165 124.256 87.7777C123.675 87.5998 123.239 87.2866 122.95 86.8383C122.67 86.3847 122.616 85.8786 122.787 85.3202C122.965 84.7388 123.309 84.3507 123.821 84.1558C124.342 83.9556 124.97 83.9679 125.705 84.1926L127.127 84.6281L127.229 84.2953ZM124.869 86.7983C125.275 86.9224 125.654 86.913 126.008 86.7701C126.363 86.6196 126.599 86.3531 126.717 85.9706L126.825 85.6149L125.494 85.2075C125.15 85.1022 124.852 85.0906 124.601 85.1727C124.36 85.2496 124.2 85.418 124.12 85.6781C124.041 85.9382 124.071 86.169 124.21 86.3706C124.351 86.5644 124.571 86.707 124.869 86.7983ZM129.515 84.0911L129.866 82.9437L134.915 84.4887L134.563 85.6362L132.693 85.0638L131.253 89.7685L129.945 89.3681L131.385 84.6635L129.515 84.0911ZM137.107 85.1596L136.563 86.9382L137.733 87.2964C138.383 87.4954 138.845 87.8458 139.118 88.3477C139.393 88.8419 139.441 89.3835 139.261 89.9726C139.078 90.5693 138.728 91.0018 138.211 91.2702C137.704 91.5333 137.129 91.5665 136.486 91.3699L134.019 90.6149L135.81 84.7628L137.107 85.1596ZM137.235 88.3488L136.225 88.0398L135.65 89.9216L136.659 90.2306C136.973 90.3266 137.246 90.3097 137.478 90.18C137.718 90.0526 137.88 89.8512 137.964 89.5758C138.048 89.3004 138.024 89.0504 137.892 88.826C137.768 88.6038 137.549 88.4448 137.235 88.3488Z" fill="white"/>
<defs>
<linearGradient id="paint0_linear_201_762" x1="129.807" y1="28.9877" x2="98.7066" y2="132.471" gradientUnits="userSpaceOnUse">
<stop stop-color="#66BEBE"/>
<stop offset="1" stop-color="#65DEA3"/>
</linearGradient>
</defs>
</svg>
