<svg width="180" height="100" viewBox="0 0 180 100" fill="none" xmlns="http://www.w3.org/2000/svg">
<path fill-rule="evenodd" clip-rule="evenodd" d="M48.3262 26.4871C37.6526 29.3301 31.3047 40.2874 34.1477 50.9609L39.2731 70.2034C42.1161 80.8769 53.0734 87.2248 63.747 84.3819L96.3684 75.6929C96.489 75.7907 96.6188 75.8803 96.7573 75.9606L104.44 80.4114C105.874 81.2419 107.709 80.753 108.54 79.3194L112.99 71.6368C113.071 71.4983 113.139 71.3559 113.195 71.2111L128.844 67.0426C139.518 64.1996 145.866 53.2423 143.023 42.5687L137.897 23.3263C135.054 12.6528 124.097 6.30483 113.424 9.14783L48.3262 26.4871Z" fill="url(#paint0_linear_201_756)"/>
<path d="M44.2868 34.8716L45.9914 34.4176L50.2837 40.0423L51.1979 33.0308L52.8793 32.5829L55.0536 40.7463L53.7433 41.0953L52.1712 35.1931L51.3106 41.7061L50.1974 42.0026L46.211 36.7807L47.7831 42.6829L46.4612 43.035L44.2868 34.8716ZM55.6562 35.0224C56.045 34.3062 56.6723 33.8328 57.5381 33.6022C58.4039 33.3715 59.1797 33.4712 59.8655 33.9012C60.559 34.3291 61.0283 35.003 61.2733 35.923C61.5183 36.8429 61.4465 37.661 61.0577 38.3771C60.6767 39.0913 60.0532 39.5636 59.1874 39.7943C58.3216 40.0249 57.542 39.9262 56.8485 39.4983C56.1627 39.0683 55.6973 38.3934 55.4522 37.4735C55.2072 36.5535 55.2752 35.7365 55.6562 35.0224ZM57.5854 38.3955C57.9662 38.6749 58.3962 38.7508 58.8755 38.6231C59.3548 38.4954 59.6862 38.2167 59.8698 37.787C60.0611 37.3552 60.0806 36.8533 59.9282 36.2812C59.7758 35.7092 59.5093 35.2835 59.1285 35.004C58.7555 34.7226 58.3293 34.6457 57.8501 34.7733C57.3708 34.901 57.0355 35.1807 56.8442 35.6125C56.6606 36.0422 56.645 36.5431 56.7974 37.1152C56.9497 37.6872 57.2124 38.114 57.5854 38.3955ZM65.5585 31.6149L66.2257 34.1195L67.6226 31.0651L69.1416 30.6605L67.5869 34.055L70.7516 36.565L69.1978 36.9789L66.3925 34.7457L67.1337 37.5287L65.835 37.8746L65.0938 35.0916L63.771 38.4244L62.2288 38.8352L63.7232 35.1214L60.6768 32.9152L62.1958 32.5106L64.927 34.4655L64.2598 31.9608L65.5585 31.6149ZM72.7895 36.0222L71.4675 36.3743L69.8924 30.4605L71.2143 30.1084L71.8196 32.3812L74.3591 31.7048L73.7537 29.432L75.0756 29.0799L76.6508 34.9937L75.3289 35.3458L74.671 32.8759L72.1316 33.5523L72.7895 36.0222ZM77.0988 29.311C77.4876 28.5948 78.1148 28.1214 78.9807 27.8907C79.8465 27.6601 80.6223 27.7598 81.308 28.1898C82.0015 28.6177 82.4708 29.2916 82.7158 30.2116C82.9609 31.1315 82.889 31.9495 82.5002 32.6657C82.1192 33.3799 81.4958 33.8522 80.63 34.0829C79.7642 34.3135 78.9845 34.2148 78.291 33.7869C77.6052 33.3569 77.1398 32.682 76.8948 31.762C76.6498 30.8421 76.7178 30.0251 77.0988 29.311ZM79.028 32.6841C79.4087 32.9635 79.8387 33.0394 80.318 32.9117C80.7973 32.784 81.1288 32.5053 81.3123 32.0756C81.5036 31.6438 81.5231 31.1419 81.3707 30.5698C81.2184 29.9978 80.9518 29.5721 80.5711 29.2926C80.1981 29.0112 79.7719 28.9343 79.2926 29.0619C78.8133 29.1896 78.478 29.4693 78.2867 29.9011C78.1031 30.3308 78.0875 30.8317 78.2399 31.4038C78.3923 31.9758 78.655 32.4026 79.028 32.6841ZM47.8355 48.7539L52.984 47.3826L54.5592 53.2964L53.2373 53.6485L51.9709 48.8943L49.4663 49.5614L50.7326 54.3157L49.4107 54.6678L47.8355 48.7539ZM57.4232 46.0511C58.1576 45.8555 58.8492 45.9652 59.4978 46.3803C60.1542 46.7932 60.6111 47.4829 60.8685 48.4492C61.1259 49.4155 61.0687 50.242 60.697 50.9289C60.333 51.6136 59.7799 52.0548 59.0378 52.2525C58.6281 52.3616 58.249 52.384 57.9007 52.3194C57.558 52.2451 57.2824 52.1116 57.0737 51.9188L57.8397 54.7945L56.5178 55.1466L54.3526 47.018L55.6282 46.6783L55.832 47.4436C56.0425 46.7418 56.5729 46.2776 57.4232 46.0511ZM58.5055 51.14C58.9693 51.0165 59.2941 50.7437 59.4797 50.3217C59.671 49.8899 59.6894 49.3841 59.535 48.8044C59.3826 48.2323 59.1161 47.8066 58.7353 47.5272C58.3623 47.2457 57.9439 47.1667 57.4801 47.2903C57.0085 47.4159 56.6761 47.6907 56.4827 48.1148C56.2873 48.5311 56.2668 49.0291 56.4212 49.6089L56.4335 49.6553C56.588 50.2351 56.8545 50.6608 57.2332 50.9325C57.6098 51.1965 58.0339 51.2656 58.5055 51.14ZM66.3605 43.8197L67.9356 49.7335L66.6369 50.0794L65.5899 46.1485L63.9583 50.7929L62.6828 51.1326L61.1076 45.2188L62.4063 44.8729L63.4564 48.8154L65.0849 44.1594L66.3605 43.8197ZM72.9429 48.3997L71.0078 46.7295L70.1831 49.1348L68.7105 49.5271L69.9753 46.0235L67.1585 43.6071L68.6775 43.2025L70.6103 44.9106L71.4141 42.4736L72.8752 42.0844L71.6312 45.6197L74.4735 47.992L72.9429 48.3997ZM74.0725 42.5354C74.4613 41.8192 75.0885 41.3458 75.9544 41.1152C76.8202 40.8846 77.596 40.9843 78.2817 41.4143C78.9752 41.8422 79.4445 42.5161 79.6895 43.436C79.9346 44.356 79.8627 45.174 79.4739 45.8902C79.0929 46.6043 78.4695 47.0767 77.6037 47.3073C76.7379 47.5379 75.9582 47.4393 75.2647 47.0114C74.5789 46.5814 74.1135 45.9064 73.8685 44.9865C73.6235 44.0666 73.6915 43.2496 74.0725 42.5354ZM76.0017 45.9085C76.3824 46.1879 76.8124 46.2638 77.2917 46.1362C77.771 46.0085 78.1024 45.7298 78.286 45.3001C78.4773 44.8683 78.4968 44.3664 78.3444 43.7943C78.1921 43.2223 77.9255 42.7965 77.5448 42.5171C77.1717 42.2356 76.7456 42.1587 76.2663 42.2864C75.787 42.414 75.4517 42.6938 75.2604 43.1256C75.0768 43.5553 75.0612 44.0562 75.2136 44.6282C75.366 45.2003 75.6287 45.6271 76.0017 45.9085ZM87.2207 43.3549L87.9249 45.9987L86.6494 46.3385L86.2541 44.8542L82.0796 45.9661L82.4749 47.4504L81.1994 47.7901L80.4952 45.1463L80.9706 45.0196C81.267 44.7337 81.3237 44.0605 81.1405 42.9999L80.5856 40.0307L85.0963 38.8292L86.3626 43.5834L87.2207 43.3549ZM82.4052 42.7127C82.5786 43.6434 82.572 44.2868 82.3853 44.6428L85.0407 43.9355L84.0833 40.3409L82.0656 40.8783L82.4052 42.7127ZM92.1007 36.9635L93.6759 42.8773L92.3771 43.2233L91.3301 39.2923L89.6985 43.9367L88.423 44.2765L86.8478 38.3627L88.1465 38.0168L89.1967 41.9593L90.8251 37.3033L92.1007 36.9635ZM93.3119 37.8827L93.003 36.7232L98.1052 35.3642L98.414 36.5238L96.5239 37.0272L97.7902 41.7814L96.4683 42.1335L95.202 37.3793L93.3119 37.8827ZM100.32 34.7741L100.799 36.5714L101.982 36.2564C102.639 36.0814 103.216 36.1346 103.713 36.4161C104.209 36.6899 104.535 37.1244 104.694 37.7197C104.855 38.3227 104.786 38.8748 104.489 39.3761C104.198 39.8677 103.728 40.1999 103.078 40.3729L100.585 41.0369L99.0102 35.1231L100.32 34.7741ZM102.116 37.4128L101.096 37.6846L101.602 39.5863L102.623 39.3145C102.94 39.2301 103.162 39.0715 103.291 38.8386C103.427 38.6036 103.458 38.347 103.384 38.0687C103.31 37.7904 103.157 37.5909 102.926 37.4703C102.703 37.3476 102.433 37.3284 102.116 37.4128ZM107.733 38.413C107.782 38.5985 107.797 38.8098 107.777 39.0468L107.559 41.1663L106.551 41.435L106.727 39.4384C106.326 39.3961 106.078 39.1932 105.981 38.8299C105.917 38.5902 105.946 38.3715 106.067 38.1736C106.188 37.9758 106.372 37.8439 106.62 37.778C106.867 37.7121 107.098 37.7416 107.314 37.8663C107.527 37.9834 107.667 38.1656 107.733 38.413ZM53.8212 65.9114L52.4993 66.2635L50.9241 60.3496L52.246 59.9975L52.9008 62.4558L54.5188 59.3922L56.0842 58.9752L54.2713 62.4261L57.6942 64.8798L56.094 65.306L53.0861 63.1516L53.8212 65.9114ZM57.1793 59.4535C57.5681 58.7373 58.1954 58.2639 59.0612 58.0332C59.927 57.8026 60.7028 57.9023 61.3886 58.3323C62.0821 58.7602 62.5514 59.4341 62.7964 60.3541C63.0414 61.274 62.9696 62.092 62.5808 62.8082C62.1998 63.5224 61.5763 63.9947 60.7105 64.2254C59.8447 64.456 59.0651 64.3573 58.3716 63.9294C57.6858 63.4994 57.2204 62.8245 56.9753 61.9045C56.7303 60.9846 56.7983 60.1676 57.1793 59.4535ZM59.1085 62.8266C59.4893 63.106 59.9193 63.1818 60.3986 63.0542C60.8779 62.9265 61.2093 62.6478 61.3929 62.2181C61.5842 61.7863 61.6037 61.2844 61.4513 60.7123C61.2989 60.1403 61.0324 59.7145 60.6516 59.4351C60.2786 59.1537 59.8524 59.0767 59.3732 59.2044C58.8939 59.3321 58.5586 59.6118 58.3673 60.0436C58.1837 60.4733 58.1681 60.9742 58.3204 61.5463C58.4728 62.1183 58.7355 62.5451 59.1085 62.8266ZM67.4085 57.2007L64.6719 57.9296L65.9383 62.6839L64.6164 63.036L63.0412 57.1222L67.0997 56.0411L67.4085 57.2007ZM75.0556 59.0136L75.7598 61.6574L74.4842 61.9971L74.0889 60.5129L69.9144 61.6248L70.3098 63.109L69.0342 63.4488L68.33 60.805L68.8055 60.6783C69.1019 60.3924 69.1585 59.7192 68.9753 58.6586L68.4204 55.6894L72.9311 54.4879L74.1975 59.2421L75.0556 59.0136ZM70.24 58.3714C70.4134 59.3021 70.4068 59.9455 70.2201 60.3015L72.8756 59.5942L71.9181 55.9996L69.9004 56.537L70.24 58.3714ZM78.681 55.0923C78.5925 54.7599 78.4163 54.5336 78.1525 54.4135C77.8943 54.2836 77.5913 54.2649 77.2434 54.3576C76.6173 54.5244 76.2876 54.8564 76.2545 55.3537L75.0022 55.6872C74.959 55.1523 75.1058 54.662 75.4424 54.2164C75.7847 53.7609 76.3038 53.4405 76.9995 53.2552C77.7339 53.0596 78.368 53.0935 78.9018 53.357C79.4433 53.6185 79.8047 54.0893 79.9859 54.7696L81.0237 58.6658L79.7945 58.9931L79.6154 58.3206C79.3266 58.977 78.788 59.4103 77.9995 59.6203C77.4119 59.7768 76.8768 59.7413 76.394 59.5139C75.9169 59.2767 75.6032 58.876 75.4528 58.3117C75.2963 57.7242 75.3836 57.2125 75.7146 56.7766C76.0512 56.3309 76.5906 56.0093 77.3327 55.8116L78.7706 55.4286L78.681 55.0923ZM78.0021 58.4647C78.4118 58.3555 78.7288 58.1469 78.9531 57.8388C79.1753 57.523 79.2349 57.1718 79.1319 56.7853L79.0362 56.4258L77.6911 56.7841C77.3432 56.8768 77.0845 57.0243 76.9149 57.2268C76.7509 57.4195 76.704 57.6473 76.774 57.9101C76.844 58.1729 76.9913 58.3531 77.216 58.4505C77.4386 58.5403 77.7006 58.545 78.0021 58.4647ZM85.9599 57.3509L84.638 57.703L83.0628 51.7892L84.3847 51.4371L84.9901 53.7099L87.5295 53.0335L86.9242 50.7607L88.2461 50.4086L89.8213 56.3224L88.4994 56.6745L87.8415 54.2046L85.302 54.8811L85.9599 57.3509ZM93.6123 51.1153C93.5237 50.7828 93.3476 50.5566 93.0837 50.4364C92.8256 50.3065 92.5226 50.2878 92.1747 50.3805C91.5486 50.5473 91.2189 50.8793 91.1858 51.3766L89.9335 51.7102C89.8903 51.1752 90.0371 50.685 90.3737 50.2393C90.716 49.7838 91.235 49.4635 91.9308 49.2781C92.6652 49.0825 93.2993 49.1165 93.8331 49.38C94.3746 49.6414 94.736 50.1122 94.9172 50.7925L95.9549 54.6887L94.7258 55.0161L94.5467 54.3435C94.2579 55 93.7193 55.4332 92.9307 55.6432C92.3432 55.7997 91.8081 55.7643 91.3253 55.5369C90.8482 55.2997 90.5344 54.8989 90.3841 54.3346C90.2276 53.7471 90.3149 53.2354 90.6458 52.7995C90.9825 52.3539 91.5219 52.0322 92.264 51.8345L93.7018 51.4515L93.6123 51.1153ZM92.9334 54.4876C93.3431 54.3785 93.6601 54.1699 93.8844 53.8618C94.1065 53.5459 94.1662 53.1947 94.0632 52.8082L93.9675 52.4488L92.6224 52.807C92.2745 52.8997 92.0158 53.0473 91.8462 53.2497C91.6822 53.4424 91.6353 53.6702 91.7053 53.933C91.7753 54.1959 91.9226 54.376 92.1473 54.4735C92.3699 54.5632 92.6319 54.5679 92.9334 54.4876ZM99.5405 52.6284C99.9271 52.5254 100.199 52.3495 100.356 52.1007C100.521 51.8498 100.602 51.5798 100.6 51.2907L101.887 50.9478C101.978 51.5693 101.843 52.1516 101.483 52.6947C101.123 53.2377 100.575 53.607 99.8409 53.8026C98.9828 54.0312 98.2147 53.9295 97.5367 53.4974C96.8566 53.0577 96.3951 52.3817 96.1521 51.4695C95.9112 50.565 95.9725 49.7539 96.336 49.0362C96.7072 48.3164 97.3257 47.8412 98.1916 47.6105C98.9414 47.4108 99.601 47.4628 100.17 47.7665C100.738 48.0624 101.137 48.49 101.369 49.0492L100.082 49.392C99.9267 49.1519 99.7163 48.9678 99.4504 48.8399C99.1902 48.7023 98.8746 48.6829 98.5035 48.7817C98.0397 48.9052 97.716 49.1819 97.5324 49.6116C97.3566 50.0393 97.3448 50.5391 97.4972 51.1112C97.6516 51.691 97.9153 52.1216 98.2884 52.4031C98.6593 52.6768 99.0767 52.7519 99.5405 52.6284ZM101.565 48.1029L101.256 46.9434L106.358 45.5844L106.667 46.7439L104.777 47.2474L106.043 52.0016L104.721 52.3537L103.455 47.5995L101.565 48.1029ZM111.113 44.3179L112.539 43.938L111.515 52.916L110.101 53.2928L110.399 50.7296L106.579 45.5255L108.005 45.1456L110.686 48.9642L111.113 44.3179ZM113.225 43.7552L118.374 42.3839L119.949 48.2977L118.627 48.6498L117.361 43.8955L114.856 44.5627L116.122 49.3169L114.8 49.669L113.225 43.7552ZM124.995 40.6202L126.57 46.534L125.272 46.8799L124.225 42.949L122.593 47.5934L121.318 47.9331L119.742 42.0193L121.041 41.6734L122.091 45.6159L123.72 40.9599L124.995 40.6202ZM127.317 46.3601L127.008 45.2005L127.193 45.1511C127.518 45.0646 127.722 44.9149 127.806 44.7021C127.896 44.4795 127.9 44.135 127.817 43.6687L127.162 40.0432L131.51 38.8849L133.085 44.7987L131.763 45.1508L130.497 40.3966L128.63 40.8939L129.094 43.4278C129.248 44.256 129.211 44.895 128.983 45.3448C128.761 45.7849 128.325 46.0913 127.676 46.2643L127.317 46.3601ZM57.8525 76.1507C58.239 76.0478 58.5109 75.8719 58.6682 75.623C58.8331 75.3721 58.9144 75.1021 58.9119 74.813L60.199 74.4702C60.29 75.0917 60.1554 75.674 59.795 76.217C59.4346 76.7601 58.8872 77.1294 58.1529 77.325C57.2948 77.5536 56.5267 77.4518 55.8487 77.0198C55.1686 76.58 54.707 75.904 54.4641 74.9918C54.2231 74.0874 54.2844 73.2763 54.6479 72.5585C55.0192 71.8387 55.6377 71.3635 56.5035 71.1329C57.2534 70.9332 57.913 70.9851 58.4823 71.2888C59.0496 71.5848 59.4491 72.0124 59.6809 72.5716L58.3937 72.9144C58.2387 72.6742 58.0282 72.4902 57.7624 72.3623C57.5022 72.2246 57.1865 72.2052 56.8155 72.3041C56.3517 72.4276 56.0279 72.7042 55.8444 73.134C55.6685 73.5616 55.6568 74.0615 55.8092 74.6336C55.9636 75.2133 56.2273 75.644 56.6003 75.9254C56.9713 76.1992 57.3887 76.2743 57.8525 76.1507ZM59.8767 71.6253L59.5678 70.4657L64.6699 69.1067L64.9788 70.2663L63.0887 70.7697L64.355 75.524L63.0331 75.8761L61.7668 71.1218L59.8767 71.6253ZM69.4247 67.8402L70.851 67.4603L69.8273 76.4383L68.4126 76.8151L68.7109 74.252L64.8908 69.0479L66.317 68.668L68.9982 72.4866L69.4247 67.8402ZM71.5372 67.2776L76.6857 65.9062L78.2609 71.82L76.939 72.1721L75.6726 67.4179L73.168 68.085L74.4343 72.8393L73.1124 73.1914L71.5372 67.2776ZM78.7097 66.1371C79.0984 65.4209 79.7257 64.9475 80.5915 64.7168C81.4573 64.4862 82.2331 64.5859 82.9189 65.0159C83.6124 65.4438 84.0817 66.1177 84.3267 67.0377C84.5717 67.9576 84.4999 68.7756 84.1111 69.4918C83.7301 70.206 83.1067 70.6783 82.2409 70.909C81.375 71.1396 80.5954 71.0409 79.9019 70.613C79.2161 70.183 78.7507 69.5081 78.5057 68.5881C78.2606 67.6682 78.3286 66.8512 78.7097 66.1371ZM80.6389 69.5102C81.0196 69.7896 81.4496 69.8654 81.9289 69.7378C82.4082 69.6101 82.7396 69.3314 82.9232 68.9017C83.1145 68.4699 83.134 67.968 82.9816 67.3959C82.8292 66.8239 82.5627 66.3981 82.1819 66.1187C81.8089 65.8373 81.3828 65.7603 80.9035 65.888C80.4242 66.0157 80.0889 66.2954 79.8976 66.7272C79.714 67.1569 79.6984 67.6578 79.8508 68.2299C80.0031 68.8019 80.2658 69.2287 80.6389 69.5102ZM87.6421 62.8389C88.3765 62.6433 89.068 62.753 89.7167 63.168C90.3731 63.5809 90.83 64.2706 91.0874 65.2369C91.3448 66.2032 91.2876 67.0298 90.9158 67.7166C90.5518 68.4014 89.9987 68.8426 89.2566 69.0402C88.8469 69.1494 88.4679 69.1717 88.1195 69.1072C87.7769 69.0329 87.5012 68.8993 87.2925 68.7065L88.0585 71.5823L86.7366 71.9344L84.5715 63.8058L85.847 63.466L86.0509 64.2313C86.2613 63.5295 86.7917 63.0654 87.6421 62.8389ZM88.7243 67.9278C89.1882 67.8042 89.5129 67.5314 89.6985 67.1094C89.8899 66.6777 89.9083 66.1719 89.7539 65.5921C89.6015 65.02 89.3349 64.5943 88.9542 64.3149C88.5812 64.0334 88.1628 63.9544 87.6989 64.078C87.2274 64.2036 86.8949 64.4784 86.7015 64.9025C86.5061 65.3188 86.4856 65.8169 86.64 66.3966L86.6524 66.443C86.8068 67.0228 87.0734 67.4485 87.4521 67.7202C87.8287 67.9842 88.2528 68.0534 88.7243 67.9278Z" fill="#0F1414"/>
<defs>
<linearGradient id="paint0_linear_201_756" x1="79.7018" y1="5.21015" x2="96.948" y2="69.9581" gradientUnits="userSpaceOnUse">
<stop stop-color="#F9F9F9"/>
<stop offset="1" stop-color="#F4F4F4"/>
</linearGradient>
</defs>
</svg>
