<svg width="180" height="100" viewBox="0 0 180 100" fill="none" xmlns="http://www.w3.org/2000/svg">
<path fill-rule="evenodd" clip-rule="evenodd" d="M41.1537 33.1197C30.5754 36.2988 24.5772 47.4514 27.7563 58.0297L32.0253 72.2347C35.2045 82.813 46.357 88.8112 56.9353 85.6321L94.1973 74.4337L100.982 78.0826C102.441 78.8674 104.26 78.3207 105.045 76.8615L108.694 70.0771L138.004 61.2683C148.583 58.0892 154.581 46.9366 151.402 36.3583L147.133 22.1533C143.954 11.575 132.801 5.57676 122.223 8.75587L41.1537 33.1197Z" fill="url(#paint0_linear_201_865)"/>
<path d="M41.1785 50.8605L47.7176 48.8953L50.1491 56.9859L48.7815 57.3969L46.7196 50.536L42.9156 51.6792L44.9776 58.5401L43.61 58.9511L41.1785 50.8605ZM52.9252 49.6108C53.6531 49.392 54.3477 49.4798 55.0092 49.8741C55.6783 50.2661 56.1568 50.941 56.4446 51.8987C56.7324 52.8563 56.7014 53.6843 56.3516 54.3825C56.0094 55.0785 55.4706 55.537 54.7351 55.758C54.329 55.88 53.9509 55.9143 53.6007 55.8608C53.2558 55.7974 52.9761 55.6727 52.7614 55.4866L53.618 58.3366L52.3078 58.7304L49.8867 50.6743L51.1509 50.2944L51.3788 51.0529C51.567 50.3448 52.0824 49.8641 52.9252 49.6108ZM54.1679 54.6629C54.6276 54.5248 54.9435 54.2418 55.1157 53.8142C55.2933 53.3766 55.2957 52.8705 55.123 52.2958C54.9526 51.7289 54.6727 51.3118 54.2833 51.0446C53.9016 50.775 53.4809 50.7093 53.0212 50.8475C52.5539 50.9879 52.2303 51.2731 52.0504 51.7031C51.8682 52.1254 51.8635 52.6239 52.0362 53.1985L52.05 53.2444C52.2227 53.819 52.5026 54.2361 52.8897 54.4957C53.2744 54.7476 53.7005 54.8034 54.1679 54.6629ZM61.7874 47.0978L63.5488 52.9588L62.2617 53.3456L61.0909 49.4498L59.607 54.1435L58.3428 54.5234L56.5814 48.6623L57.8685 48.2755L59.0428 52.1829L60.5232 47.4777L61.7874 47.0978ZM67.6923 45.3232L69.1084 50.035L71.0391 49.4547L69.623 44.7429L70.9331 44.3492L72.6946 50.2102L64.9028 52.5519L63.1414 46.6909L64.4515 46.2971L65.8676 51.0089L67.7983 50.4287L66.3822 45.7169L67.6923 45.3232ZM78.4256 45.7062L74.2999 46.9461L74.3068 46.9691C74.4427 47.4211 74.7011 47.7528 75.082 47.9641C75.4629 48.1754 75.8871 48.2108 76.3544 48.0703C76.6762 47.9736 76.9209 47.8291 77.0887 47.6367C77.2617 47.4343 77.3521 47.2484 77.3597 47.0791L78.6468 46.6922C78.6884 47.1642 78.5476 47.6409 78.2245 48.1223C77.909 48.6014 77.3874 48.9503 76.6595 49.169C75.7861 49.4315 75.0034 49.3702 74.3112 48.9851C73.6168 48.5923 73.128 47.9248 72.8448 46.9824C72.5616 46.0401 72.5976 45.2148 72.9528 44.5066C73.3057 43.7907 73.8997 43.3073 74.7348 43.0563C75.5392 42.8146 76.2622 42.8855 76.9038 43.2691C77.5453 43.6526 77.9985 44.285 78.2633 45.166L78.4256 45.7062ZM75.0514 44.1515C74.6377 44.2759 74.3374 44.4998 74.1506 44.8232C73.9715 45.1444 73.926 45.5214 74.0144 45.9543L76.8185 45.1116C76.6742 44.6871 76.4438 44.393 76.1273 44.2292C75.8161 44.0554 75.4575 44.0295 75.0514 44.1515ZM79.5527 48.1742L79.2074 47.025L79.3912 46.9697C79.713 46.873 79.9126 46.717 79.9898 46.5016C80.0725 46.2763 80.065 45.9319 79.9675 45.4683L79.1979 41.8654L83.5075 40.5702L85.269 46.4312L83.9588 46.825L82.5428 42.1132L80.6925 42.6692L81.2363 45.1873C81.4168 46.0101 81.4002 46.65 81.1867 47.1068C80.9784 47.5536 80.5526 47.8737 79.909 48.0671L79.5527 48.1742ZM90.5498 38.4538L91.8599 38.0601L93.6213 43.9211L92.3112 44.3148L91.617 42.0049C91.3321 42.3077 90.9253 42.5385 90.3967 42.6974C89.7148 42.9023 89.1033 42.8689 88.5622 42.5972C88.0211 42.3254 87.6342 41.8026 87.4017 41.0288L86.9527 39.5348L88.2628 39.1411L88.6842 40.5431C88.9444 41.4089 89.4997 41.714 90.3501 41.4584C90.7332 41.3433 91.0472 41.1653 91.2923 40.9246L90.5498 38.4538ZM99.346 39.4189L95.2203 40.6589L95.2272 40.6818C95.363 41.1339 95.6214 41.4655 96.0023 41.6768C96.3833 41.8881 96.8074 41.9236 97.2748 41.7831C97.5966 41.6864 97.8413 41.5418 98.009 41.3494C98.1821 41.1471 98.2724 40.9612 98.28 40.7918L99.5671 40.405C99.6087 40.877 99.468 41.3537 99.1449 41.8351C98.8294 42.3141 98.3077 42.663 97.5799 42.8818C96.7065 43.1443 95.9237 43.083 95.2316 42.6979C94.5372 42.3051 94.0484 41.6376 93.7651 40.6952C93.4819 39.7528 93.5179 38.9276 93.8731 38.2194C94.226 37.5035 94.82 37.0201 95.6551 36.7691C96.4596 36.5273 97.1826 36.5982 97.8241 36.9818C98.4657 37.3654 98.9189 37.9977 99.1836 38.8788L99.346 39.4189ZM95.9717 37.8643C95.558 37.9887 95.2578 38.2125 95.071 38.536C94.8918 38.8572 94.8464 39.2342 94.9347 39.6671L97.7388 38.8243C97.5946 38.3999 97.3642 38.1058 97.0476 37.942C96.7364 37.7682 96.3778 37.7423 95.9717 37.8643ZM100.473 41.887L100.128 40.7378L100.312 40.6825C100.633 40.5858 100.833 40.4298 100.91 40.2144C100.993 39.9891 100.985 39.6447 100.888 39.1811L100.118 35.5781L104.428 34.283L106.189 40.144L104.879 40.5377L103.463 35.8259L101.613 36.382L102.157 38.9C102.337 39.7229 102.321 40.3628 102.107 40.8195C101.899 41.2664 101.473 41.5865 100.829 41.7799L100.473 41.887ZM106.469 34.4463C106.835 33.7182 107.447 33.2252 108.305 32.9673C109.163 32.7094 109.942 32.7845 110.641 33.1926C111.348 33.5984 111.838 34.2571 112.112 35.1688C112.386 36.0806 112.34 36.9005 111.974 37.6286C111.616 38.3544 111.008 38.8463 110.15 39.1042C109.292 39.362 108.509 39.2881 107.803 38.8823C107.104 38.4742 106.617 37.8143 106.343 36.9026C106.069 35.9909 106.111 35.1721 106.469 34.4463ZM108.504 37.7567C108.894 38.024 109.326 38.0862 109.801 37.9434C110.276 37.8007 110.598 37.5116 110.768 37.0763C110.946 36.6387 110.949 36.1364 110.779 35.5695C110.609 35.0025 110.329 34.5854 109.939 34.3182C109.558 34.0487 109.129 33.9853 108.654 34.128C108.179 34.2708 107.853 34.561 107.675 34.9986C107.505 35.4339 107.506 35.935 107.676 36.502C107.846 37.0689 108.123 37.4872 108.504 37.7567ZM114.016 37.7919L112.255 31.9308L114.886 31.1399C115.515 30.9511 116.036 30.9489 116.451 31.1334C116.865 31.3179 117.139 31.6323 117.273 32.0766C117.37 32.3984 117.37 32.6908 117.273 32.9536C117.182 33.2065 117.036 33.4135 116.833 33.5745C117.158 33.569 117.456 33.6589 117.729 33.8442C118.009 34.0272 118.206 34.3064 118.319 34.6818C118.466 35.1721 118.403 35.6296 118.13 36.0543C117.862 36.4689 117.406 36.773 116.763 36.9664L114.016 37.7919ZM115.849 34.5095L114.55 34.8997L114.999 36.3937L116.298 36.0034C116.589 35.9159 116.792 35.7841 116.906 35.6078C117.025 35.4215 117.049 35.2096 116.978 34.9721C116.83 34.4818 116.454 34.3276 115.849 34.5095ZM115.029 32.1996L113.846 32.5553L114.253 33.9114L115.437 33.5557C115.69 33.4797 115.867 33.3597 115.968 33.1956C116.076 33.0293 116.099 32.8389 116.034 32.6244C115.901 32.18 115.566 32.0384 115.029 32.1996ZM124.217 31.9445L120.091 33.1844L120.098 33.2074C120.234 33.6594 120.492 33.9911 120.873 34.2024C121.254 34.4137 121.678 34.4491 122.146 34.3087C122.467 34.2119 122.712 34.0674 122.88 33.875C123.053 33.6726 123.143 33.4867 123.151 33.3174L124.438 32.9306C124.48 33.4026 124.339 33.8792 124.016 34.3606C123.7 34.8397 123.179 35.1886 122.451 35.4073C121.577 35.6698 120.795 35.6085 120.102 35.2234C119.408 34.8307 118.919 34.1631 118.636 33.2207C118.353 32.2784 118.389 31.4531 118.744 30.7449C119.097 30.029 119.691 29.5456 120.526 29.2946C121.33 29.0529 122.053 29.1238 122.695 29.5074C123.336 29.891 123.79 30.5233 124.054 31.4044L124.217 31.9445ZM120.843 30.3899C120.429 30.5142 120.129 30.7381 119.942 31.0615C119.763 31.3827 119.717 31.7597 119.806 32.1926L122.61 31.3499C122.465 30.9255 122.235 30.6313 121.918 30.4675C121.607 30.2937 121.249 30.2678 120.843 30.3899ZM127.313 33.7958L126.002 34.1895L124.241 28.3285L125.551 27.9348L126.283 30.3711L127.804 27.2578L129.355 26.7916L127.652 30.298L131.151 32.6423L129.565 33.1189L126.491 31.0607L127.313 33.7958ZM49.1353 68.7056C49.5183 68.5904 49.7845 68.406 49.9338 68.1523C50.0908 67.8963 50.1634 67.6239 50.1518 67.335L51.4274 66.9516C51.5381 67.5699 51.4219 68.1562 51.0789 68.7104C50.7359 69.2645 50.2004 69.651 49.4726 69.8697C48.6222 70.1253 47.8513 70.0479 47.1599 69.6375C46.4662 69.2195 45.9836 68.5584 45.7119 67.6544C45.4425 66.758 45.4781 65.9454 45.8187 65.2165C46.167 64.4853 46.7702 63.9908 47.6283 63.7329C48.3714 63.5095 49.0324 63.5406 49.611 63.8262C50.1874 64.104 50.6002 64.5188 50.8495 65.0703L49.5739 65.4537C49.4113 65.2186 49.1952 65.0413 48.9254 64.9219C48.661 64.7925 48.3449 64.7831 47.9771 64.8936C47.5174 65.0317 47.2026 65.3185 47.0327 65.7538C46.8705 66.1868 46.8746 66.6868 47.045 67.2537C47.2176 67.8284 47.4949 68.2504 47.8766 68.52C48.256 68.7819 48.6756 68.8437 49.1353 68.7056ZM55.2761 67.9752L53.5147 62.1142L56.1464 61.3233C56.7747 61.1345 57.2961 61.1323 57.7107 61.3168C58.1254 61.5012 58.3995 61.8156 58.533 62.26C58.6297 62.5818 58.6299 62.8741 58.5334 63.137C58.4424 63.3899 58.2957 63.5969 58.0935 63.7579C58.4176 63.7524 58.7162 63.8423 58.989 64.0276C59.2696 64.2106 59.4663 64.4898 59.5791 64.8652C59.7264 65.3555 59.6634 65.813 59.3901 66.2376C59.1221 66.6523 58.6663 66.9564 58.0228 67.1498L55.2761 67.9752ZM57.1089 64.6928L55.8103 65.0831L56.2593 66.5771L57.5579 66.1868C57.8491 66.0993 58.0517 65.9674 58.1658 65.7911C58.2852 65.6049 58.3093 65.393 58.2379 65.1555C58.0905 64.6651 57.7142 64.5109 57.1089 64.6928ZM56.2895 62.3829L55.1058 62.7387L55.5133 64.0948L56.697 63.739C56.9498 63.663 57.1268 63.543 57.2278 63.379C57.3366 63.2127 57.3587 63.0223 57.2942 62.8077C57.1607 62.3634 56.8258 62.2218 56.2895 62.3829ZM60.6438 59.9717L61.1792 61.753L62.3514 61.4007C63.0026 61.205 63.5811 61.2399 64.087 61.5056C64.5906 61.7636 64.931 62.1875 65.1083 62.7774C65.2879 63.375 65.2372 63.9291 64.9562 64.4395C64.6806 64.94 64.221 65.287 63.5775 65.4804L61.1066 66.223L59.3452 60.3619L60.6438 59.9717ZM66.0107 58.3587L67.7721 64.2198L66.4735 64.6101L64.7121 58.749L66.0107 58.3587ZM62.522 62.5523L61.5107 62.8562L62.0771 64.7409L63.0885 64.437C63.4026 64.3426 63.6201 64.177 63.7411 63.9402C63.8697 63.701 63.8926 63.4435 63.8097 63.1677C63.7268 62.8919 63.5681 62.6974 63.3335 62.5841C63.1067 62.4685 62.8362 62.4579 62.522 62.5523ZM71.7318 57.8924L69.0197 58.7075L70.4357 63.4193L69.1256 63.813L67.3642 57.952L71.3865 56.7432L71.7318 57.8924ZM72.7687 57.1046C73.1346 56.3765 73.7466 55.8835 74.6047 55.6256C75.4628 55.3677 76.2413 55.4428 76.9404 55.8509C77.647 56.2567 78.1374 56.9154 78.4114 57.8272C78.6854 58.7389 78.6394 59.5588 78.2735 60.2869C77.9153 61.0127 77.3071 61.5046 76.449 61.7625C75.5909 62.0204 74.8085 61.9464 74.1018 61.5406C73.4028 61.1326 72.9163 60.4727 72.6423 59.5609C72.3683 58.6492 72.4104 57.8305 72.7687 57.1046ZM74.8036 60.415C75.193 60.6823 75.6252 60.7445 76.1002 60.6018C76.5752 60.459 76.8976 60.17 77.0675 59.7346C77.2451 59.297 77.2487 58.7947 77.0783 58.2278C76.9079 57.6608 76.628 57.2437 76.2386 56.9765C75.8569 56.707 75.4285 56.6436 74.9535 56.7863C74.4785 56.9291 74.1522 57.2193 73.9747 57.6569C73.8048 58.0922 73.805 58.5934 73.9754 59.1603C74.1458 59.7273 74.4218 60.1455 74.8036 60.415ZM81.5923 53.5256C82.3202 53.3069 83.0148 53.3947 83.6763 53.789C84.3454 54.181 84.8239 54.8558 85.1117 55.8135C85.3995 56.7712 85.3685 57.5991 85.0187 58.2974C84.6765 58.9933 84.1377 59.4518 83.4022 59.6728C82.9961 59.7949 82.618 59.8292 82.2678 59.7757C81.9229 59.7123 81.6432 59.5875 81.4285 59.4014L82.2851 62.2515L80.9749 62.6452L78.5538 54.5891L79.818 54.2092L80.0459 54.9677C80.2341 54.2596 80.7496 53.7789 81.5923 53.5256ZM82.835 58.5777C83.2947 58.4396 83.6106 58.1567 83.7828 57.729C83.9604 57.2914 83.9628 56.7853 83.7901 56.2107C83.6197 55.6437 83.3398 55.2266 82.9505 54.9594C82.5687 54.6899 82.148 54.6242 81.6883 54.7623C81.221 54.9028 80.8974 55.188 80.7175 55.6179C80.5353 56.0402 80.5306 56.5387 80.7033 57.1133L80.7171 57.1593C80.8898 57.7339 81.1697 58.151 81.5568 58.4106C81.9416 58.6625 82.3676 58.7182 82.835 58.5777ZM89.2787 53.5212C89.1797 53.1917 88.9965 52.9711 88.729 52.8594C88.4669 52.7377 88.1635 52.7286 87.8187 52.8322C87.1981 53.0187 86.8791 53.361 86.8617 53.8591L85.6206 54.2321C85.5606 53.6988 85.6917 53.2041 86.0141 52.7481C86.3418 52.282 86.8505 51.9454 87.54 51.7382C88.2678 51.5194 88.9027 51.5333 89.4446 51.7798C89.9941 52.0239 90.3702 52.4831 90.5728 53.1573L91.7333 57.0187L90.5151 57.3848L90.3148 56.7183C90.0469 57.3835 89.5222 57.8336 88.7408 58.0684C88.1585 58.2434 87.6225 58.2249 87.1327 58.0129C86.6483 57.7909 86.3221 57.4003 86.154 56.841C85.979 56.2587 86.05 55.7445 86.3671 55.2984C86.6894 54.8423 87.2184 54.5037 87.9539 54.2827L89.3789 53.8544L89.2787 53.5212ZM88.7069 56.9133C89.1129 56.7913 89.4231 56.5727 89.6375 56.2577C89.8496 55.935 89.8981 55.5821 89.783 55.199L89.6759 54.8428L88.3428 55.2434C87.9981 55.347 87.7441 55.5027 87.581 55.7104C87.4233 55.9082 87.3835 56.1373 87.4618 56.3978C87.5401 56.6583 87.6931 56.8337 87.9207 56.924C88.146 57.0067 88.4081 57.0031 88.7069 56.9133ZM94.3526 56.2315L93.0425 56.6253L91.281 50.7642L92.5912 50.3705L93.2681 52.623L95.7849 51.8666L95.108 49.6141L96.4181 49.2204L98.1795 55.0814L96.8694 55.4751L96.1337 53.0273L93.6169 53.7837L94.3526 56.2315ZM102.98 47.2484L104.741 53.1094L103.454 53.4963L102.283 49.6004L100.799 54.2941L99.5351 54.674L97.7737 48.813L99.0608 48.4261L100.235 52.3335L101.716 47.6283L102.98 47.2484ZM110.465 48.6074L106.34 49.8473L106.347 49.8703C106.482 50.3223 106.741 50.654 107.122 50.8653C107.503 51.0766 107.927 51.112 108.394 50.9716C108.716 50.8749 108.961 50.7303 109.128 50.5379C109.302 50.3355 109.392 50.1496 109.399 49.9803L110.687 49.5935C110.728 50.0655 110.587 50.5422 110.264 51.0235C109.949 51.5026 109.427 51.8515 108.699 52.0702C107.826 52.3327 107.043 52.2714 106.351 51.8863C105.657 51.4936 105.168 50.826 104.885 49.8837C104.601 48.9413 104.637 48.116 104.993 47.4078C105.345 46.692 105.939 46.2085 106.775 45.9576C107.579 45.7158 108.302 45.7867 108.944 46.1703C109.585 46.5539 110.038 47.1862 110.303 48.0673L110.465 48.6074ZM107.091 47.0528C106.677 47.1771 106.377 47.401 106.19 47.7245C106.011 48.0456 105.966 48.4226 106.054 48.8555L108.858 48.0128C108.714 47.5884 108.484 47.2942 108.167 47.1304C107.856 46.9566 107.497 46.9307 107.091 47.0528ZM110.49 44.9914L112.145 44.4941L115.284 48.1867L115.868 43.375L117.5 42.8846L119.261 48.7457L117.997 49.1256L116.792 45.1148L116.232 49.631L115.267 49.9211L112.313 46.4732L113.515 50.4725L112.251 50.8525L110.49 44.9914Z" fill="#0F1414"/>
<defs>
<linearGradient id="paint0_linear_201_865" x1="80.7768" y1="9.38794" x2="98.2685" y2="67.5906" gradientUnits="userSpaceOnUse">
<stop stop-color="#F9F9F9"/>
<stop offset="1" stop-color="#F4F4F4"/>
</linearGradient>
</defs>
</svg>
