<svg width="180" height="100" viewBox="0 0 180 100" fill="none" xmlns="http://www.w3.org/2000/svg">
<path fill-rule="evenodd" clip-rule="evenodd" d="M41.504 27.1382C30.7323 29.5518 24.3706 40.0769 27.2948 50.6466L33.164 71.8611C36.0882 82.4308 47.1909 89.0426 57.9626 86.629L96.5934 77.9729L97.8565 78.7126C99.3837 79.607 101.219 79.2328 101.955 77.8768L102.639 76.6183L137.025 68.9134C147.797 66.4997 154.158 55.9747 151.234 45.405L145.365 24.1904C142.441 13.6208 131.338 7.00896 120.566 9.42259L41.504 27.1382Z" fill="url(#paint0_linear_201_884)"/>
<path d="M40.9393 47.2814L47.5635 45.6758L49.6763 53.8116L48.2909 54.1474L46.4993 47.2482L42.6458 48.1822L44.4375 55.0814L43.0521 55.4172L40.9393 47.2814ZM52.7483 46.6548C53.4856 46.4761 54.1775 46.5991 54.8241 47.0238C55.4784 47.4467 55.9306 48.1396 56.1806 49.1027C56.4307 50.0657 56.3668 50.8838 55.9889 51.5568C55.6187 52.228 55.061 52.6539 54.316 52.8344C53.9046 52.9342 53.5247 52.9484 53.1763 52.8773C52.8336 52.7966 52.5585 52.6585 52.351 52.4631L53.0953 55.3291L51.7681 55.6508L49.6643 47.5497L50.9449 47.2393L51.143 48.0021C51.3595 47.3108 51.8946 46.8617 52.7483 46.6548ZM53.7917 51.7209C54.2573 51.608 54.5849 51.3443 54.7742 50.9299C54.9694 50.5059 54.9919 50.005 54.8418 49.4272C54.6938 48.8571 54.4302 48.4296 54.051 48.1448C53.6795 47.8581 53.261 47.7712 52.7953 47.8841C52.3219 47.9988 51.9866 48.2644 51.7895 48.6807C51.5903 49.0893 51.5658 49.5825 51.7158 50.1603L51.7279 50.2065C51.8779 50.7843 52.1415 51.2118 52.5187 51.4889C52.8939 51.7583 53.3182 51.8356 53.7917 51.7209ZM57.0979 46.5096C57.4931 45.8078 58.1253 45.3515 58.9946 45.1408C59.8638 44.9301 60.6402 45.045 61.3238 45.4853C62.0152 45.9237 62.4799 46.6014 62.718 47.5182C62.956 48.435 62.8775 49.2443 62.4822 49.9461C62.0948 50.646 61.4664 51.1013 60.5972 51.312C59.7279 51.5227 58.9476 51.4088 58.2563 50.9704C57.5727 50.5301 57.1119 49.8515 56.8738 48.9347C56.6357 48.0179 56.7104 47.2095 57.0979 46.5096ZM59.0035 49.8926C59.3827 50.1774 59.8129 50.2614 60.2941 50.1448C60.7752 50.0282 61.1095 49.7588 61.2969 49.3367C61.492 48.9127 61.5156 48.4156 61.3675 47.8455C61.2195 47.2754 60.9558 46.8479 60.5766 46.5631C60.2052 46.2764 59.7789 46.1914 59.2977 46.308C58.8165 46.4247 58.4783 46.695 58.2832 47.119C58.0958 47.5411 58.0762 48.0372 58.2242 48.6074C58.3723 49.1775 58.632 49.6059 59.0035 49.8926ZM66.8022 48.5674C67.1902 48.4733 67.464 48.3046 67.6236 48.0612C67.7909 47.8159 67.8744 47.55 67.8742 47.2634L69.1665 46.9502C69.2527 47.568 69.1131 48.1424 68.7477 48.6732C68.3823 49.2039 67.8309 49.5587 67.0936 49.7374C66.2321 49.9462 65.4635 49.8295 64.7877 49.3873C64.1099 48.9374 63.6529 48.2579 63.4168 47.3488C63.1827 46.4474 63.2507 45.6447 63.6206 44.9409C63.9983 44.2351 64.6218 43.7769 65.4911 43.5662C66.2439 43.3837 66.9043 43.4489 67.4722 43.7616C68.0382 44.0667 68.435 44.4987 68.6627 45.0577L67.3704 45.3709C67.217 45.1297 67.0077 44.9429 66.7423 44.8107C66.4828 44.6689 66.1667 44.6431 65.7942 44.7334C65.3285 44.8463 65.002 45.1138 64.8146 45.5359C64.635 45.9562 64.6192 46.4513 64.7673 47.0215C64.9173 47.5993 65.1781 48.0315 65.5495 48.3182C65.9189 48.5972 66.3365 48.6802 66.8022 48.5674ZM68.8664 44.1239L68.5663 42.9682L73.6887 41.7267L73.9888 42.8823L72.0912 43.3423L73.3216 48.0804L71.9945 48.4021L70.764 43.664L68.8664 44.1239ZM75.0216 42.1652C75.4169 41.4634 76.0491 41.0072 76.9184 40.7965C77.7876 40.5858 78.564 40.7006 79.2476 41.1409C79.9389 41.5794 80.4036 42.257 80.6417 43.1738C80.8798 44.0906 80.8013 44.8999 80.406 45.6017C80.0186 46.3016 79.3902 46.7569 78.5209 46.9676C77.6517 47.1783 76.8714 47.0645 76.1801 46.626C75.4965 46.1857 75.0357 45.5071 74.7976 44.5903C74.5595 43.6735 74.6342 42.8651 75.0216 42.1652ZM76.9272 45.5482C77.3064 45.833 77.7366 45.9171 78.2178 45.8004C78.699 45.6838 79.0333 45.4144 79.2207 44.9923C79.4158 44.5683 79.4393 44.0712 79.2913 43.5011C79.1432 42.931 78.8796 42.5035 78.5004 42.2187C78.129 41.9321 77.7027 41.847 77.2215 41.9637C76.7403 42.0803 76.4021 42.3506 76.207 42.7746C76.0196 43.1967 76 43.6929 76.148 44.263C76.2961 44.8331 76.5558 45.2615 76.9272 45.5482ZM86.6613 38.5824L87.9885 38.2607L89.5191 44.1545L88.1919 44.4762L87.5887 42.1533C87.2914 42.4383 86.8751 42.6457 86.3395 42.7755C85.6488 42.9429 85.038 42.878 84.5071 42.5809C83.9762 42.2837 83.6097 41.7461 83.4076 40.9679L83.0175 39.4656L84.3446 39.1439L84.7108 40.5538C84.9368 41.4244 85.4806 41.7553 86.3421 41.5465C86.7302 41.4524 87.0517 41.2926 87.3066 41.067L86.6613 38.5824ZM89.1949 39.1967L88.8948 38.041L94.0172 36.7994L94.3173 37.9551L92.4197 38.415L93.6502 43.1532L92.323 43.4749L91.0925 38.7367L89.1949 39.1967ZM95.3502 37.238C95.7454 36.5362 96.3776 36.0799 97.2469 35.8692C98.1161 35.6585 98.8926 35.7734 99.5761 36.2137C100.267 36.6521 100.732 37.3297 100.97 38.2466C101.208 39.1634 101.13 39.9727 100.735 40.6745C100.347 41.3744 99.7187 41.8297 98.8495 42.0404C97.9802 42.2511 97.1999 42.1372 96.5086 41.6988C95.825 41.2585 95.3642 40.5799 95.1261 39.6631C94.888 38.7463 94.9627 37.9379 95.3502 37.238ZM97.2558 40.6209C97.635 40.9057 98.0652 40.9898 98.5464 40.8732C99.0276 40.7566 99.3618 40.4872 99.5492 40.0651C99.7443 39.6411 99.7679 39.144 99.6198 38.5739C99.4718 38.0038 99.2081 37.5763 98.8289 37.2915C98.4575 37.0048 98.0312 36.9198 97.55 37.0364C97.0688 37.1531 96.7306 37.4234 96.5355 37.8474C96.3481 38.2695 96.3285 38.7656 96.4765 39.3357C96.6246 39.9059 96.8843 40.3343 97.2558 40.6209ZM102.089 38.4177L101.774 37.2042L105.476 36.3069L105.791 37.5204L102.089 38.4177ZM105.482 35.2491L105.181 34.0934L110.304 32.8519L110.604 34.0075L108.706 34.4675L109.937 39.2056L108.61 39.5273L107.379 34.7891L105.482 35.2491ZM111.637 33.2904C112.032 32.5886 112.664 32.1323 113.534 31.9217C114.403 31.711 115.179 31.8258 115.863 32.2661C116.554 32.7045 117.019 33.3822 117.257 34.299C117.495 35.2158 117.416 36.0251 117.021 36.7269C116.634 37.4268 116.005 37.8821 115.136 38.0928C114.267 38.3035 113.487 38.1896 112.795 37.7512C112.112 37.3109 111.651 36.6323 111.413 35.7155C111.175 34.7987 111.249 33.9903 111.637 33.2904ZM113.542 36.6734C113.922 36.9582 114.352 37.0423 114.833 36.9256C115.314 36.809 115.648 36.5396 115.836 36.1175C116.031 35.6935 116.055 35.1964 115.906 34.6263C115.758 34.0562 115.495 33.6287 115.116 33.3439C114.744 33.0573 114.318 32.9722 113.837 33.0889C113.355 33.2055 113.017 33.4758 112.822 33.8998C112.635 34.3219 112.615 34.8181 112.763 35.3882C112.911 35.9583 113.171 36.3867 113.542 36.6734ZM122.688 36.1149L121.361 36.4366L119.831 30.5428L121.158 30.2211L121.746 32.4862L124.295 31.8682L123.707 29.6032L125.034 29.2815L126.565 35.1753L125.238 35.497L124.599 33.0354L122.049 33.6534L122.688 36.1149ZM132.476 31.0156L128.296 32.0286L128.302 32.0517C128.421 32.5063 128.666 32.848 129.039 33.077C129.412 33.306 129.835 33.3631 130.309 33.2484C130.635 33.1693 130.885 33.039 131.061 32.8572C131.242 32.6658 131.34 32.4865 131.354 32.3193L132.658 32.0033C132.681 32.4727 132.521 32.9373 132.179 33.397C131.844 33.8549 131.308 34.1732 130.57 34.3519C129.686 34.5663 128.904 34.4649 128.227 34.0477C127.547 33.6228 127.084 32.9366 126.838 31.9889C126.592 31.0413 126.661 30.2262 127.045 29.5435C127.427 28.8532 128.04 28.4055 128.886 28.2004C129.701 28.0029 130.422 28.1107 131.049 28.5238C131.676 28.9369 132.105 29.5864 132.335 30.4724L132.476 31.0156ZM129.16 29.3011C128.741 29.4027 128.431 29.6088 128.231 29.9193C128.039 30.2279 127.979 30.5988 128.05 31.0319L130.891 30.3434C130.763 29.9157 130.544 29.6126 130.234 29.4339C129.929 29.2457 129.571 29.2014 129.16 29.3011ZM44.3829 61.1137L49.5519 59.8609L51.0824 65.7547L49.7553 66.0764L48.5248 61.3382L46.0102 61.9477L47.2407 66.6859L45.9135 67.0076L44.3829 61.1137ZM51.5777 60.1315C51.973 59.4297 52.6052 58.9734 53.4744 58.7627C54.3437 58.552 55.1201 58.6668 55.8037 59.1072C56.495 59.5456 56.9597 60.2232 57.1978 61.1401C57.4359 62.0569 57.3573 62.8662 56.9621 63.568C56.5746 64.2679 55.9463 64.7232 55.077 64.9339C54.2078 65.1446 53.4275 65.0307 52.7361 64.5923C52.0526 64.152 51.5917 63.4734 51.3537 62.5566C51.1156 61.6398 51.1903 60.8314 51.5777 60.1315ZM53.4833 63.5144C53.8625 63.7992 54.2927 63.8833 54.7739 63.7667C55.2551 63.6501 55.5894 63.3807 55.7768 62.9586C55.9719 62.5346 55.9954 62.0375 55.8474 61.4674C55.6993 60.8973 55.4357 60.4698 55.0565 60.185C54.6851 59.8983 54.2587 59.8133 53.7776 59.9299C53.2964 60.0466 52.9582 60.3169 52.7631 60.7409C52.5757 61.163 52.556 61.6591 52.7041 62.2292C52.8522 62.7994 53.1119 63.2278 53.4833 63.5144ZM60.3267 63.5141L58.9996 63.8357L57.469 57.9419L58.7962 57.6202L59.3844 59.8853L61.9339 59.2674L61.3457 57.0023L62.6729 56.6806L64.2035 62.5744L62.8763 62.8961L62.2371 60.4346L59.6875 61.0525L60.3267 63.5141ZM69.3199 55.0695L70.8504 60.9633L69.5466 61.2794L68.5292 57.3617L66.8573 61.9312L65.5767 62.2416L64.0462 56.3478L65.35 56.0317L66.3704 59.9609L68.0393 55.3799L69.3199 55.0695ZM70.6915 54.737L72.3679 54.3307L75.3643 58.1495L76.1399 53.4165L77.793 53.0158L79.3236 58.9096L78.043 59.22L76.9956 55.1868L76.2558 59.6286L75.2779 59.8656L72.4583 56.2988L73.5027 60.3205L72.2221 60.6309L70.6915 54.737ZM83.1644 53.8267C83.0783 53.4954 82.9036 53.2675 82.6403 53.143C82.3827 53.0089 82.0793 52.9841 81.7301 53.0688C81.1014 53.2212 80.7685 53.5434 80.7313 54.0356L79.474 54.3404C79.4351 53.8093 79.5861 53.3264 79.9269 52.8917C80.2735 52.4473 80.796 52.1405 81.4945 51.9712C82.2319 51.7925 82.8668 51.8392 83.3995 52.1114C83.9399 52.3817 84.2982 52.8558 84.4742 53.5338L85.4826 57.4168L84.2486 57.7159L84.0745 57.0456C83.7799 57.6902 83.2368 58.1085 82.4452 58.3004C81.8553 58.4434 81.3195 58.3972 80.8376 58.1618C80.3615 57.9169 80.0505 57.5132 79.9044 56.9508C79.7524 56.3653 79.8439 55.8599 80.179 55.4348C80.5198 55 81.0627 54.6923 81.8078 54.5117L83.2514 54.1618L83.1644 53.8267ZM82.4571 57.1551C82.8685 57.0554 83.1877 56.8552 83.4149 56.5544C83.64 56.246 83.7026 55.8992 83.6025 55.514L83.5095 55.1557L82.159 55.483C81.8098 55.5677 81.5494 55.7086 81.3779 55.9058C81.2121 56.0934 81.1632 56.3181 81.2312 56.5801C81.2992 56.842 81.4454 57.0236 81.6697 57.1248C81.892 57.2184 82.1544 57.2285 82.4571 57.1551ZM91.3465 53.2685L87.1671 54.2815L87.1731 54.3046C87.2911 54.7591 87.5366 55.1009 87.9096 55.3299C88.2825 55.5589 88.7057 55.616 89.1792 55.5012C89.5051 55.4222 89.7559 55.2918 89.9314 55.1101C90.1127 54.9187 90.2105 54.7394 90.2249 54.5722L91.5287 54.2561C91.5516 54.7256 91.3918 55.1901 91.0492 55.6499C90.7144 56.1077 90.1783 56.426 89.441 56.6047C88.5562 56.8192 87.775 56.7178 87.0975 56.3006C86.4179 55.8757 85.9551 55.1894 85.709 54.2418C85.4629 53.2942 85.5317 52.479 85.9154 51.7964C86.2971 51.1061 86.9109 50.6584 87.7569 50.4533C88.5718 50.2558 89.2928 50.3636 89.9198 50.7767C90.5468 51.1898 90.9754 51.8393 91.2054 52.7253L91.3465 53.2685ZM88.0304 51.554C87.6113 51.6556 87.3018 51.8616 87.1019 52.1721C86.9098 52.4808 86.8494 52.8516 86.9206 53.2848L89.7612 52.5963C89.6337 52.1686 89.4147 51.8654 89.1043 51.6868C88.7997 51.4986 88.4417 51.4543 88.0304 51.554ZM96.1245 48.5726L97.355 53.3108L99.3108 52.8367L98.0803 48.0985L99.4075 47.7769L100.938 53.6707L93.0449 55.5838L91.5144 49.69L92.8415 49.3683L94.072 54.1065L96.0278 53.6324L94.7974 48.8943L96.1245 48.5726ZM102.101 47.1239L102.567 48.9151L103.754 48.6273C104.414 48.4674 104.992 48.5321 105.487 48.8214C105.981 49.103 106.305 49.5404 106.459 50.1336C106.615 50.7345 106.543 51.2804 106.241 51.7711C105.945 52.2523 105.471 52.5719 104.819 52.7299L102.317 53.3366L100.786 47.4427L102.101 47.1239ZM103.879 49.7763L102.855 50.0246L103.347 51.9198L104.371 51.6715C104.69 51.5944 104.914 51.4417 105.044 51.2136C105.183 50.9835 105.216 50.7298 105.144 50.4525C105.072 50.1751 104.921 49.9743 104.69 49.8499C104.468 49.7237 104.197 49.6991 103.879 49.7763ZM109.693 45.1242C109.613 44.8161 109.431 44.5939 109.148 44.4577C108.873 44.3196 108.55 44.2958 108.177 44.3861C107.416 44.5704 107.035 45.0396 107.033 45.7935L105.741 46.1067C105.648 45.433 105.791 44.8251 106.17 44.2828C106.549 43.7406 107.123 43.3763 107.891 43.1901C108.675 43.0001 109.349 43.0538 109.913 43.3511C110.485 43.6466 110.851 44.1063 111.014 44.7304C111.074 44.9615 111.099 45.1848 111.088 45.4001C111.078 45.6155 111.057 45.7885 111.025 45.9191C111.001 46.0478 110.926 46.2051 110.801 46.391C110.682 46.5673 110.597 46.6861 110.547 46.7474C110.495 46.801 110.389 46.9167 110.229 47.0947C110.21 47.1158 110.168 47.1627 110.105 47.2354C110.041 47.3082 110 47.3551 109.981 47.3761C109.961 47.3972 109.924 47.4431 109.868 47.514C109.818 47.5753 109.784 47.6203 109.767 47.649C109.755 47.6682 109.733 47.7104 109.701 47.7756C109.666 47.8331 109.645 47.8792 109.638 47.9138C109.63 47.9483 109.618 47.9964 109.601 48.0578C109.584 48.1193 109.574 48.1788 109.573 48.2365C109.577 48.2846 109.583 48.3405 109.592 48.404C109.6 48.4675 109.613 48.5339 109.631 48.6033L109.691 48.8344L108.434 49.1391L108.344 48.7924C108.258 48.4612 108.238 48.1629 108.285 47.8978C108.337 47.623 108.417 47.4071 108.525 47.2499C108.63 47.0851 108.806 46.8706 109.051 46.6065C109.236 46.3979 109.369 46.2428 109.45 46.1413C109.536 46.0302 109.609 45.8816 109.668 45.6953C109.734 45.5072 109.743 45.3168 109.693 45.1242ZM108.801 50.3644C108.93 50.1612 109.115 50.0305 109.355 49.9722C109.596 49.9138 109.819 49.9458 110.024 50.0681C110.237 50.1885 110.374 50.3681 110.436 50.607C110.498 50.8458 110.466 51.0707 110.339 51.2815C110.218 51.4828 110.037 51.6126 109.797 51.671C109.556 51.7293 109.329 51.6982 109.116 51.5778C108.909 51.4478 108.775 51.2634 108.713 51.0246C108.651 50.7858 108.68 50.5657 108.801 50.3644Z" fill="#0F1414"/>
<defs>
<linearGradient id="paint0_linear_201_884" x1="76.7165" y1="6.35335" x2="90.3987" y2="70.271" gradientUnits="userSpaceOnUse">
<stop stop-color="#F9F9F9"/>
<stop offset="1" stop-color="#F4F4F4"/>
</linearGradient>
</defs>
</svg>
