<svg width="180" height="100" viewBox="0 0 180 100" fill="none" xmlns="http://www.w3.org/2000/svg">
<path fill-rule="evenodd" clip-rule="evenodd" d="M45.1448 32.5599C36.7806 35.4101 32.3106 44.5013 35.1608 52.8655L42.4717 74.32C45.322 82.6843 54.4131 87.1543 62.7774 84.304L106.567 69.3821C106.739 69.5214 106.928 69.6437 107.135 69.7454L115.103 73.663C116.59 74.3941 118.388 73.7814 119.119 72.2945L123.036 64.3269C123.138 64.1201 123.214 63.9072 123.265 63.6921L131.443 60.9051C139.808 58.0548 144.278 48.9637 141.427 40.5994L134.117 19.1449C131.266 10.7807 122.175 6.31068 113.811 9.16093L45.1448 32.5599Z" fill="url(#paint0_linear_163_799)"/>
<path d="M52.9414 47.9512L49.0795 49.2672L49.7955 51.3685L53.4416 50.1261L53.8442 51.3074L50.1981 52.5498L50.9761 54.8329L54.838 53.5169L55.2522 54.7323L50.0385 56.5089L47.3136 48.5124L52.5272 46.7358L52.9414 47.9512ZM58.5734 52.4722C58.952 52.3432 59.2113 52.1492 59.3512 51.8902C59.4988 51.6287 59.5614 51.3537 59.5393 51.0655L60.8001 50.6358C60.9332 51.2497 60.8385 51.8398 60.5159 52.4061C60.1933 52.9724 59.6724 53.3782 58.953 53.6233C58.1124 53.9097 57.3392 53.8605 56.6334 53.4756C55.9249 53.0831 55.4184 52.4401 55.1139 51.5466C54.812 50.6606 54.818 49.8472 55.1318 49.1064C55.4532 48.363 56.038 47.8468 56.8861 47.5578C57.6206 47.3075 58.2822 47.3145 58.8709 47.5787C59.457 47.8354 59.8847 48.2348 60.1539 48.7769L58.8931 49.2065C58.7221 48.9775 58.4996 48.8082 58.2257 48.6987C57.9567 48.5791 57.6405 48.5812 57.277 48.705C56.8227 48.8598 56.5185 49.1579 56.3646 49.5991C56.2183 50.0377 56.2406 50.5372 56.4315 51.0976C56.6251 51.6655 56.9175 52.0772 57.3088 52.3327C57.6975 52.5805 58.1191 52.627 58.5734 52.4722ZM60.2849 47.8195L59.8978 46.6836L64.8956 44.9806L65.2827 46.1164L63.4312 46.7473L65.0182 51.4044L63.7233 51.8456L62.1363 47.1886L60.2849 47.8195ZM67.0656 44.2411L67.6656 46.0017L68.8242 45.6069C69.4678 45.3875 70.0473 45.4014 70.5625 45.6484C71.0751 45.8879 71.4308 46.2991 71.6295 46.8822C71.8307 47.4728 71.8003 48.0283 71.5381 48.5487C71.281 49.0589 70.8343 49.4224 70.1982 49.6392L67.7561 50.4714L65.7821 44.6785L67.0656 44.2411ZM69.0367 46.7515L68.0372 47.0921L68.672 48.9549L69.6715 48.6143C69.982 48.5085 70.1933 48.3351 70.3056 48.094C70.4254 47.8503 70.4388 47.5922 70.3459 47.3196C70.253 47.047 70.0873 46.8583 69.8488 46.7537C69.6179 46.6464 69.3472 46.6457 69.0367 46.7515ZM75.5434 47.8177L73.5694 42.0248L76.1706 41.1385C76.7915 40.9269 77.3125 40.9057 77.7336 41.0749C78.1547 41.2441 78.4401 41.5483 78.5897 41.9875C78.6981 42.3056 78.7089 42.5977 78.6221 42.8639C78.5404 43.12 78.4014 43.3322 78.2052 43.5004C78.5289 43.4831 78.8305 43.562 79.1099 43.7373C79.3969 43.9099 79.6037 44.1818 79.7301 44.5528C79.8953 45.0374 79.849 45.4969 79.5913 45.9313C79.3386 46.3554 78.8942 46.6759 78.2582 46.8927L75.5434 47.8177ZM77.2553 44.4707L75.9718 44.908L76.475 46.3847L77.7585 45.9473C78.0463 45.8492 78.2439 45.71 78.3515 45.5297C78.4641 45.3392 78.4804 45.1266 78.4004 44.8918C78.2352 44.4072 77.8536 44.2668 77.2553 44.4707ZM76.3522 42.1922L75.1822 42.5909L75.6389 43.9312L76.8089 43.5325C77.0588 43.4474 77.2312 43.321 77.3262 43.1534C77.4288 42.9832 77.444 42.7921 77.3717 42.5801C77.2221 42.1409 76.8822 42.0116 76.3522 42.1922ZM80.0265 40.6105C80.3656 39.8695 80.9592 39.3545 81.8073 39.0655C82.6554 38.7765 83.4362 38.8232 84.1497 39.2055C84.8707 39.5852 85.3847 40.2256 85.6918 41.1267C85.9989 42.0279 85.9828 42.8489 85.6437 43.5899C85.3122 44.3283 84.7223 44.842 83.8742 45.131C83.0261 45.42 82.2416 45.3747 81.5205 44.9949C80.8071 44.6126 80.2968 43.9709 79.9898 43.0698C79.6827 42.1687 79.6949 41.3489 80.0265 40.6105ZM82.1808 43.8445C82.5796 44.0974 83.0138 44.1438 83.4833 43.9838C83.9528 43.8238 84.2645 43.5232 84.4184 43.082C84.5799 42.6382 84.5651 42.1361 84.3742 41.5757C84.1832 41.0154 83.8883 40.6088 83.4895 40.3559C83.0981 40.1005 82.6678 40.0528 82.1983 40.2127C81.7288 40.3727 81.4133 40.6746 81.2518 41.1184C81.0979 41.5597 81.1164 42.0604 81.3074 42.6208C81.4983 43.1812 81.7894 43.5891 82.1808 43.8445ZM85.7161 37.8857L90.7593 36.1671L92.7333 41.96L91.4384 42.4013L89.8515 37.7443L87.398 38.5803L88.985 43.2373L87.6901 43.6786L85.7161 37.8857ZM95.0976 34.5367C95.817 34.2915 96.5144 34.3539 97.1898 34.7238C97.8728 35.0912 98.3756 35.7481 98.6981 36.6947C99.0207 37.6412 99.0199 38.4697 98.6957 39.1803C98.3792 39.8882 97.8574 40.3661 97.1305 40.6138C96.7291 40.7505 96.3525 40.7986 96.0006 40.7579C95.6536 40.7071 95.3695 40.5926 95.1482 40.4145L96.1081 43.2314L94.8133 43.6727L92.1 35.7103L93.3494 35.2845L93.6049 36.0342C93.7671 35.3197 94.2647 34.8205 95.0976 34.5367ZM96.5237 39.5401C96.9781 39.3853 97.2835 39.091 97.44 38.6574C97.6014 38.2136 97.5854 37.7077 97.3919 37.1398C97.2009 36.5794 96.906 36.1728 96.5071 35.92C96.1158 35.6645 95.693 35.6142 95.2387 35.769C94.7768 35.9264 94.4638 36.2233 94.2997 36.6595C94.1331 37.0882 94.1465 37.5864 94.34 38.1544L94.3555 38.1998C94.5491 38.7677 94.844 39.1744 95.2403 39.4196C95.634 39.6573 96.0618 39.6975 96.5237 39.5401ZM99.4111 34.0049C99.7502 33.2639 100.344 32.7489 101.192 32.4599C102.04 32.1709 102.821 32.2176 103.534 32.5999C104.255 32.9796 104.769 33.62 105.076 34.5212C105.384 35.4223 105.367 36.2433 105.028 36.9843C104.697 37.7227 104.107 38.2364 103.259 38.5254C102.411 38.8144 101.626 38.7691 100.905 38.3893C100.192 38.007 99.6815 37.3653 99.3744 36.4642C99.0673 35.5631 99.0796 34.7433 99.4111 34.0049ZM101.565 37.2389C101.964 37.4918 102.398 37.5382 102.868 37.3782C103.337 37.2182 103.649 36.9176 103.803 36.4764C103.965 36.0326 103.95 35.5305 103.759 34.9701C103.568 34.4098 103.273 34.0032 102.874 33.7503C102.483 33.4949 102.052 33.4472 101.583 33.6071C101.113 33.7671 100.798 34.069 100.636 34.5128C100.483 34.9541 100.501 35.4548 100.692 36.0152C100.883 36.5756 101.174 36.9835 101.565 37.2389ZM109.218 35.2144C109.596 35.0854 109.856 34.8914 109.996 34.6324C110.143 34.3708 110.206 34.0959 110.184 33.8077L111.444 33.378C111.578 33.9919 111.483 34.582 111.16 35.1483C110.838 35.7146 110.317 36.1204 109.597 36.3655C108.757 36.6519 107.984 36.6027 107.278 36.2178C106.569 35.8253 106.063 35.1823 105.758 34.2888C105.456 33.4028 105.462 32.5894 105.776 31.8486C106.098 31.1052 106.682 30.589 107.53 30.3C108.265 30.0497 108.927 30.0567 109.515 30.3209C110.101 30.5776 110.529 30.977 110.798 31.5191L109.538 31.9487C109.366 31.7197 109.144 31.5504 108.87 31.4409C108.601 31.3212 108.285 31.3234 107.921 31.4472C107.467 31.602 107.163 31.9001 107.009 32.3413C106.863 32.7799 106.885 33.2794 107.076 33.8398C107.269 34.4077 107.562 34.8194 107.953 35.0749C108.342 35.3227 108.763 35.3692 109.218 35.2144ZM112.391 28.7958L112.991 30.5564L114.15 30.1616C114.793 29.9423 115.373 29.9561 115.888 30.2031C116.4 30.4426 116.756 30.8538 116.955 31.4369C117.156 32.0276 117.126 32.5831 116.863 33.1035C116.606 33.6137 116.16 33.9772 115.524 34.1939L113.081 35.0261L111.107 29.2332L112.391 28.7958ZM117.695 26.9882L119.669 32.7811L118.386 33.2185L116.412 27.4256L117.695 26.9882ZM114.362 31.3062L113.363 31.6468L113.997 33.5097L114.997 33.169C115.307 33.0632 115.519 32.8898 115.631 32.6487C115.751 32.405 115.764 32.1469 115.671 31.8743C115.578 31.6017 115.413 31.4131 115.174 31.3084C114.943 31.2012 114.673 31.2004 114.362 31.3062ZM51.7988 62.1211L56.8421 60.4025L58.8161 66.1954L57.5212 66.6367L55.9343 61.9796L53.4808 62.8157L55.0677 67.4727L53.7729 67.914L51.7988 62.1211ZM58.8771 60.4951C59.2162 59.7541 59.8098 59.2391 60.6579 58.9501C61.506 58.6611 62.2868 58.7077 63.0002 59.09C63.7213 59.4698 64.2353 60.1102 64.5424 61.0113C64.8494 61.9124 64.8334 62.7335 64.4943 63.4745C64.1628 64.2129 63.5729 64.7266 62.7248 65.0156C61.8767 65.3046 61.0921 65.2592 60.3711 64.8795C59.6577 64.4972 59.1474 63.8555 58.8404 62.9544C58.5333 62.0532 58.5455 61.2335 58.8771 60.4951ZM61.0313 63.7291C61.4302 63.9819 61.8644 64.0284 62.3339 63.8684C62.8034 63.7084 63.1151 63.4078 63.269 62.9665C63.4305 62.5227 63.4157 62.0207 63.2248 61.4603C63.0338 60.8999 62.7389 60.4933 62.34 60.2405C61.9487 59.985 61.5183 59.9373 61.0488 60.0973C60.5794 60.2573 60.2639 60.5592 60.1024 61.003C59.9485 61.4442 59.967 61.945 60.158 62.5054C60.3489 63.0657 60.64 63.4736 61.0313 63.7291ZM70.9301 60.9391C71.3088 60.81 71.5681 60.616 71.708 60.3571C71.8555 60.0955 71.9182 59.8206 71.896 59.5323L73.1568 59.1027C73.29 59.7166 73.1952 60.3067 72.8727 60.873C72.5501 61.4393 72.0291 61.845 71.3097 62.0902C70.4692 62.3766 69.696 62.3274 68.9901 61.9425C68.2816 61.55 67.7752 60.907 67.4707 60.0134C67.1688 59.1275 67.1747 58.3141 67.4886 57.5733C67.8099 56.8299 68.3947 56.3137 69.2428 56.0247C69.9773 55.7744 70.6389 55.7813 71.2276 56.0456C71.8138 56.3022 72.2414 56.7016 72.5107 57.2438L71.2499 57.6734C71.0789 57.4443 70.8564 57.275 70.5824 57.1655C70.3134 57.0459 69.9972 57.048 69.6337 57.1719C69.1794 57.3267 68.8753 57.6247 68.7214 58.0659C68.575 58.5046 68.5973 59.0041 68.7883 59.5645C68.9818 60.1324 69.2742 60.5441 69.6655 60.7995C70.0543 61.0474 70.4758 61.0939 70.9301 60.9391ZM73.5142 55.5073C73.8533 54.7663 74.4469 54.2513 75.295 53.9623C76.1431 53.6733 76.9239 53.7199 77.6373 54.1022C78.3584 54.482 78.8724 55.1224 79.1795 56.0235C79.4865 56.9246 79.4705 57.7457 79.1314 58.4867C78.7999 59.2251 78.21 59.7388 77.3619 60.0278C76.5138 60.3168 75.7292 60.2714 75.0082 59.8917C74.2948 59.5094 73.7845 58.8677 73.4774 57.9666C73.1704 57.0654 73.1826 56.2457 73.5142 55.5073ZM75.6684 58.7413C76.0673 58.9941 76.5015 59.0405 76.971 58.8806C77.4405 58.7206 77.7522 58.42 77.9061 57.9787C78.0676 57.5349 78.0528 57.0329 77.8619 56.4725C77.6709 55.9121 77.376 55.5055 76.9771 55.2527C76.5858 54.9972 76.1554 54.9495 75.6859 55.1095C75.2164 55.2695 74.901 55.5714 74.7395 56.0152C74.5856 56.4564 74.6041 56.9572 74.795 57.5176C74.986 58.0779 75.2771 58.4858 75.6684 58.7413ZM82.1838 51.8177C82.9486 51.557 83.6586 51.6067 84.3137 51.9666C84.9764 52.324 85.46 52.9494 85.7645 53.843C86.0509 54.6835 86.0347 55.4793 85.7159 56.2302C85.4021 56.971 84.8249 57.4847 83.9843 57.7711C83.0454 58.0911 82.2038 58.0271 81.4595 57.5792C80.7127 57.1238 80.147 56.3319 79.7626 55.2036C79.2903 53.8179 79.1526 52.6942 79.3492 51.8328C79.5433 50.9637 80.1267 50.2578 81.0997 49.715L83.3038 48.4821L83.7063 49.6634L81.6682 50.751C81.1061 51.0608 80.7404 51.4263 80.5712 51.8474C80.3994 52.2609 80.389 52.7885 80.54 53.43C80.7575 52.6544 81.3054 52.117 82.1838 51.8177ZM83.533 56.6698C84.0101 56.5072 84.3268 56.2091 84.4833 55.7755C84.6448 55.3317 84.6327 54.8372 84.4469 54.292C84.2662 53.7619 83.9791 53.378 83.5853 53.1403C83.1966 52.8924 82.7675 52.8485 82.298 53.0085C81.8285 53.1685 81.5016 53.4616 81.3172 53.8878C81.1303 54.3065 81.1297 54.7884 81.3155 55.3337C81.5065 55.894 81.8014 56.3006 82.2002 56.5535C82.6041 56.7962 83.0484 56.835 83.533 56.6698ZM91.9572 52.0877L87.8794 53.4772L87.8872 53.5C88.0394 53.9467 88.3097 54.2687 88.6981 54.466C89.0865 54.6633 89.5116 54.6832 89.9736 54.5258C90.2916 54.4174 90.5309 54.264 90.6915 54.0656C90.8571 53.8571 90.9406 53.6681 90.942 53.4985L92.2141 53.065C92.2729 53.5352 92.1497 54.0167 91.8443 54.5095C91.5465 54.9998 91.0379 55.3675 90.3186 55.6126C89.4553 55.9068 88.6708 55.8741 87.9651 55.5145C87.2568 55.1473 86.744 54.498 86.4266 53.5666C86.1092 52.6352 86.1151 51.8092 86.4442 51.0885C86.7708 50.3602 87.3467 49.8555 88.1721 49.5742C88.9672 49.3033 89.6923 49.3478 90.3475 49.7077C91.0026 50.0676 91.4785 50.683 91.7752 51.5538L91.9572 52.0877ZM88.5285 50.6572C88.1196 50.7965 87.8277 51.0312 87.6528 51.3612C87.4855 51.6887 87.4538 52.0671 87.5579 52.4965L90.3294 51.5521C90.1698 51.1332 89.9288 50.8477 89.6065 50.6955C89.2892 50.5332 88.9298 50.5204 88.5285 50.6572ZM95.9666 52.4075C96.3452 52.2785 96.6045 52.0845 96.7444 51.8255C96.892 51.564 96.9546 51.2891 96.9325 51.0008L98.1933 50.5712C98.3264 51.185 98.2317 51.7751 97.9091 52.3414C97.5865 52.9078 97.0655 53.3135 96.3462 53.5586C95.5056 53.8451 94.7324 53.7958 94.0265 53.4109C93.3181 53.0185 92.8116 52.3755 92.5071 51.4819C92.2052 50.5959 92.2112 49.7825 92.525 49.0417C92.8464 48.2983 93.4311 47.7821 94.2793 47.4931C95.0138 47.2428 95.6754 47.2498 96.2641 47.514C96.8502 47.7707 97.2779 48.1701 97.5471 48.7122L96.2863 49.1419C96.1153 48.9128 95.8928 48.7435 95.6189 48.634C95.3499 48.5144 95.0337 48.5165 94.6702 48.6403C94.2158 48.7952 93.9117 49.0932 93.7578 49.5344C93.6115 49.9731 93.6338 50.4726 93.8247 51.0329C94.0183 51.6009 94.3107 52.0125 94.702 52.268C95.0907 52.5158 95.5123 52.5624 95.9666 52.4075ZM101.918 47.2227C101.807 46.8971 101.616 46.6833 101.345 46.5814C101.078 46.4693 100.775 46.4714 100.434 46.5875C99.8207 46.7965 99.5144 47.1502 99.5152 47.6486L98.2885 48.0666C98.209 47.5359 98.3221 47.0367 98.6276 46.5692C98.9381 46.0915 99.4341 45.7365 100.116 45.5043C100.835 45.2592 101.47 45.2499 102.02 45.4764C102.579 45.7004 102.971 46.1455 103.198 46.8119L104.499 50.6284L103.295 51.0387L103.07 50.3799C102.827 51.0545 102.319 51.5233 101.546 51.7865C100.971 51.9827 100.435 51.9837 99.9375 51.7897C99.4453 51.5855 99.1051 51.2071 98.9167 50.6543C98.7206 50.0788 98.7728 49.5623 99.0733 49.1049C99.3789 48.6374 99.8951 48.2798 100.622 48.0321L102.031 47.5521L101.918 47.2227ZM101.47 50.6334C101.872 50.4967 102.174 50.267 102.377 49.9443C102.577 49.6141 102.612 49.2597 102.483 48.8811L102.363 48.5289L101.046 48.9779C100.705 49.094 100.457 49.2589 100.302 49.4724C100.151 49.6758 100.12 49.9063 100.207 50.1637C100.295 50.4212 100.454 50.5909 100.685 50.6728C100.913 50.7472 101.175 50.7341 101.47 50.6334ZM103.819 44.3946L105.454 43.8372L108.727 47.4128L109.135 42.5831L110.747 42.0335L112.721 47.8264L111.472 48.2521L110.121 44.288L109.726 48.8216L108.772 49.1468L105.695 45.8089L107.042 49.7617L105.793 50.1875L103.819 44.3946ZM115.514 40.2445C115.41 39.9416 115.213 39.7342 114.921 39.6223C114.637 39.5078 114.313 39.5125 113.95 39.6364C113.208 39.8893 112.865 40.395 112.92 41.1536L111.66 41.5832C111.516 40.9138 111.612 40.2895 111.947 39.7105C112.282 39.1314 112.824 38.7142 113.574 38.4587C114.339 38.1981 115.013 38.1923 115.597 38.4414C116.188 38.6879 116.588 39.1179 116.797 39.7312C116.874 39.9584 116.916 40.1807 116.923 40.3983C116.929 40.6158 116.921 40.7917 116.9 40.9259C116.885 41.0576 116.823 41.2224 116.713 41.4205C116.608 41.6084 116.533 41.7354 116.488 41.8015C116.44 41.86 116.344 41.9858 116.198 42.1791C116.181 42.202 116.143 42.2528 116.085 42.3316C116.028 42.4104 115.99 42.4613 115.973 42.4842C115.955 42.5071 115.921 42.5566 115.871 42.6328C115.826 42.6989 115.796 42.7472 115.781 42.7777C115.771 42.798 115.752 42.8424 115.725 42.9108C115.695 42.9718 115.678 43.0199 115.673 43.0554C115.668 43.0908 115.66 43.1402 115.647 43.2036C115.635 43.2669 115.63 43.3276 115.633 43.3858C115.641 43.4338 115.652 43.4894 115.665 43.5526C115.678 43.6157 115.696 43.6814 115.719 43.7495L115.797 43.9767L114.57 44.3947L114.454 44.054C114.343 43.7284 114.3 43.4301 114.326 43.1593C114.357 42.8782 114.42 42.6539 114.515 42.4863C114.608 42.3111 114.766 42.0799 114.989 41.7925C115.157 41.5662 115.277 41.3984 115.35 41.2892C115.428 41.1697 115.488 41.0137 115.533 40.8212C115.585 40.626 115.578 40.4338 115.514 40.2445ZM115.03 45.5946C115.142 45.3788 115.315 45.2309 115.55 45.151C115.785 45.071 116.009 45.0834 116.222 45.1882C116.443 45.2905 116.593 45.459 116.673 45.6937C116.753 45.9285 116.738 46.1575 116.629 46.3809C116.524 46.5941 116.354 46.7407 116.119 46.8207C115.884 46.9007 115.657 46.8895 115.436 46.7873C115.22 46.6749 115.072 46.5013 114.992 46.2666C114.912 46.0318 114.925 45.8078 115.03 45.5946Z" fill="#0F1414"/>
<defs>
<linearGradient id="paint0_linear_163_799" x1="77.5348" y1="8.78458" x2="98.4077" y2="70.0378" gradientUnits="userSpaceOnUse">
<stop stop-color="#F9F9F9"/>
<stop offset="1" stop-color="#F4F4F4"/>
</linearGradient>
</defs>
</svg>
