<svg width="180" height="100" viewBox="0 0 180 100" fill="none" xmlns="http://www.w3.org/2000/svg">
<path fill-rule="evenodd" clip-rule="evenodd" d="M36.931 29.6183C26.4757 33.1811 20.8882 44.5451 24.451 55.0004L32.6832 79.1583C36.246 89.6136 47.6099 95.2011 58.0653 91.6383L107.498 74.7933L114.605 78.2874C116.091 79.0185 117.889 78.4058 118.62 76.9189L122.115 69.8126L140.723 63.4715C151.178 59.9087 156.766 48.5447 153.203 38.0894L144.971 13.9315C141.408 3.4762 130.044 -2.11129 119.589 1.45151L36.931 29.6183Z" fill="url(#paint0_linear_163_803)"/>
<path d="M41.4472 51.4618L38.4071 49.1255L37.4489 52.8242L35.9042 53.3507L37.2335 48.3971L33.202 45.3464L34.7581 44.8162L37.7677 47.1375L38.745 43.4576L40.267 42.9389L38.9527 47.862L43.0147 50.9276L41.4472 51.4618ZM42.2181 45.5195C42.5572 44.7785 43.1508 44.2636 43.9989 43.9745C44.847 43.6855 45.6278 43.7322 46.3413 44.1145C47.0623 44.4942 47.5763 45.1347 47.8834 46.0358C48.1905 46.9369 48.1744 47.7579 47.8353 48.4989C47.5038 49.2373 46.9139 49.751 46.0658 50.04C45.2177 50.3291 44.4332 50.2837 43.7121 49.904C42.9987 49.5217 42.4884 48.8799 42.1814 47.9788C41.8743 47.0777 41.8865 46.2579 42.2181 45.5195ZM44.3723 48.7535C44.7712 49.0064 45.2054 49.0528 45.6749 48.8928C46.1444 48.7328 46.4561 48.4322 46.61 47.991C46.7715 47.5472 46.7567 47.0451 46.5658 46.4848C46.3748 45.9244 46.0799 45.5178 45.681 45.2649C45.2897 45.0095 44.8593 44.9618 44.3899 45.1218C43.9204 45.2818 43.6049 45.5836 43.4434 46.0275C43.2895 46.4687 43.308 46.9695 43.499 47.5298C43.6899 48.0902 43.981 48.4981 44.3723 48.7535ZM51.2143 41.6679L52.5092 41.2267L54.4832 47.0196L53.1884 47.4608L52.4104 45.1777C52.1367 45.4907 51.7386 45.7363 51.2161 45.9143C50.5422 46.144 49.9299 46.1329 49.3792 45.881C48.8285 45.6292 48.4229 45.1209 48.1623 44.356L47.6591 42.8794L48.954 42.4382L49.4262 43.8239C49.7178 44.6796 50.2838 44.9642 51.1244 44.6778C51.503 44.5488 51.8104 44.3595 52.0465 44.11L51.2143 41.6679ZM60.0399 42.3116L55.9622 43.7012L55.9699 43.7239C56.1221 44.1707 56.3925 44.4927 56.7808 44.69C57.1692 44.8872 57.5944 44.9072 58.0563 44.7498C58.3743 44.6414 58.6137 44.488 58.7742 44.2896C58.9398 44.081 59.0233 43.892 59.0247 43.7225L60.2969 43.289C60.3557 43.7591 60.2324 44.2406 59.927 44.7335C59.6293 45.2237 59.1207 45.5914 58.4013 45.8366C57.538 46.1307 56.7536 46.098 56.0479 45.7384C55.3396 45.3713 54.8267 44.722 54.5093 43.7906C54.1919 42.8592 54.1978 42.0331 54.527 41.3124C54.8535 40.5842 55.4295 40.0794 56.2549 39.7982C57.05 39.5272 57.7751 39.5717 58.4302 39.9316C59.0853 40.2916 59.5612 40.9069 59.858 41.7778L60.0399 42.3116ZM56.6112 40.8811C56.2023 41.0204 55.9104 41.2551 55.7355 41.5852C55.5682 41.9127 55.5366 42.2911 55.6406 42.7205L58.4121 41.776C58.2525 41.3571 58.0115 41.0716 57.6892 40.9194C57.3719 40.7571 57.0126 40.7443 56.6112 40.8811ZM64.4303 37.1644L66.0172 41.8214L67.9255 41.1712L66.3385 36.5141L67.6334 36.0729L69.6074 41.8658L61.9063 44.4901L59.9323 38.6972L61.2271 38.2559L62.8141 42.9129L64.7224 42.2627L63.1354 37.6056L64.4303 37.1644ZM70.2619 35.1772L70.8618 36.9378L72.0204 36.543C72.664 36.3236 73.2435 36.3375 73.7587 36.5845C74.2713 36.824 74.627 37.2352 74.8257 37.8183C75.027 38.4089 74.9965 38.9645 74.7343 39.4848C74.4772 39.995 74.0305 40.3585 73.3945 40.5753L70.9524 41.4075L68.9783 35.6146L70.2619 35.1772ZM72.233 37.6876L71.2334 38.0282L71.8682 39.891L72.8677 39.5504C73.1782 39.4446 73.3896 39.2712 73.5018 39.0301C73.6216 38.7864 73.6351 38.5283 73.5422 38.2557C73.4493 37.9831 73.2836 37.7944 73.0451 37.6898C72.8141 37.5825 72.5434 37.5818 72.233 37.6876ZM42.0716 57.461L43.4687 56.9849L43.0584 66.0118L41.6727 66.484L41.7959 63.9065L37.6304 58.9744L39.0275 58.4983L41.9623 62.1256L42.0716 57.461ZM48.136 60.7318C48.5146 60.6028 48.7739 60.4088 48.9138 60.1498C49.0613 59.8882 49.124 59.6133 49.1019 59.325L50.3627 58.8954C50.4958 59.5093 50.4011 60.0994 50.0785 60.6657C49.7559 61.232 49.2349 61.6377 48.5156 61.8829C47.675 62.1693 46.9018 62.1201 46.1959 61.7352C45.4875 61.3427 44.981 60.6997 44.6765 59.8062C44.3746 58.9202 44.3806 58.1068 44.6944 57.366C45.0158 56.6226 45.6005 56.1064 46.4486 55.8174C47.1832 55.5671 47.8448 55.574 48.4335 55.8383C49.0196 56.0949 49.4473 56.4943 49.7165 57.0365L48.4557 57.4661C48.2847 57.237 48.0622 57.0677 47.7882 56.9582C47.5193 56.8386 47.203 56.8407 46.8396 56.9646C46.3852 57.1194 46.0811 57.4174 45.9272 57.8587C45.7809 58.2973 45.8032 58.7968 45.9941 59.3572C46.1876 59.9251 46.4801 60.3368 46.8714 60.5922C47.2601 60.8401 47.6816 60.8866 48.136 60.7318ZM49.8475 56.0791L49.4604 54.9432L54.4582 53.2401L54.8453 54.376L52.9938 55.0069L54.5808 59.6639L53.2859 60.1052L51.6989 55.4481L49.8475 56.0791ZM58.3424 51.7644C59.0617 51.5193 59.7591 51.5816 60.4346 51.9516C61.1175 52.3189 61.6203 52.9758 61.9429 53.9224C62.2654 54.8689 62.2646 55.6975 61.9405 56.408C61.6239 57.116 61.1021 57.5938 60.3752 57.8415C59.9739 57.9783 59.5972 58.0263 59.2453 57.9857C58.8984 57.9349 58.6143 57.8204 58.393 57.6422L59.3529 60.4592L58.058 60.9004L55.3447 52.938L56.5941 52.5123L56.8496 53.2619C57.0118 52.5474 57.5094 52.0482 58.3424 51.7644ZM59.7685 56.7678C60.2228 56.613 60.5282 56.3188 60.6847 55.8851C60.8462 55.4413 60.8302 54.9354 60.6366 54.3675C60.4457 53.8072 60.1508 53.4005 59.7519 53.1477C59.3606 52.8923 58.9378 52.842 58.4834 52.9968C58.0215 53.1542 57.7085 53.451 57.5444 53.8872C57.3778 54.3159 57.3912 54.8142 57.5848 55.3821L57.6003 55.4276C57.7938 55.9955 58.0887 56.4021 58.485 56.6474C58.8787 56.8851 59.3065 56.9252 59.7685 56.7678ZM62.6559 51.2327C62.995 50.4917 63.5886 49.9767 64.4367 49.6877C65.2848 49.3987 66.0656 49.4453 66.779 49.8276C67.5001 50.2074 68.0141 50.8478 68.3212 51.7489C68.6282 52.65 68.6122 53.4711 68.2731 54.212C67.9416 54.9505 67.3517 55.4642 66.5036 55.7532C65.6555 56.0422 64.8709 55.9968 64.1499 55.6171C63.4365 55.2348 62.9262 54.5931 62.6191 53.6919C62.3121 52.7908 62.3243 51.9711 62.6559 51.2327ZM64.8101 54.4666C65.209 54.7195 65.6432 54.7659 66.1127 54.6059C66.5822 54.446 66.8939 54.1454 67.0478 53.7041C67.2093 53.2603 67.1945 52.7582 67.0036 52.1979C66.8126 51.6375 66.5177 51.2309 66.1188 50.9781C65.7275 50.7226 65.2971 50.6749 64.8276 50.8349C64.3582 50.9949 64.0427 51.2968 63.8812 51.7406C63.7273 52.1818 63.7458 52.6826 63.9367 53.2429C64.1277 53.8033 64.4188 54.2112 64.8101 54.4666ZM73.4909 46.7544L75.4649 52.5473L74.1927 52.9809L72.8806 49.1303L71.5689 53.875L70.3195 54.3007L68.3454 48.5078L69.6176 48.0743L70.9336 51.9363L72.2414 47.1802L73.4909 46.7544ZM74.7619 47.5891L74.3748 46.4532L79.3726 44.7502L79.7597 45.886L77.9082 46.5169L79.4952 51.174L78.2003 51.6152L76.6133 46.9582L74.7619 47.5891ZM81.5427 44.0107L82.1426 45.7713L83.3012 45.3765C83.9448 45.1571 84.5243 45.171 85.0395 45.418C85.5521 45.6575 85.9078 46.0687 86.1065 46.6518C86.3077 47.2424 86.2773 47.798 86.0151 48.3183C85.758 48.8285 85.3113 49.192 84.6752 49.4088L82.2331 50.241L80.2591 44.4481L81.5427 44.0107ZM83.5137 46.5211L82.5142 46.8617L83.149 48.7245L84.1485 48.3839C84.459 48.2781 84.6703 48.1047 84.7826 47.8636C84.9024 47.6199 84.9158 47.3618 84.8229 47.0892C84.7301 46.8166 84.5644 46.6279 84.3258 46.5233C84.0949 46.416 83.8242 46.4153 83.5137 46.5211ZM89.9171 46.4943C90.2957 46.3652 90.555 46.1712 90.6949 45.9123C90.8424 45.6507 90.9051 45.3758 90.883 45.0875L92.1438 44.6579C92.2769 45.2718 92.1822 45.8619 91.8596 46.4282C91.537 46.9945 91.016 47.4002 90.2967 47.6453C89.4561 47.9318 88.6829 47.8825 87.977 47.4977C87.2686 47.1052 86.7621 46.4622 86.4576 45.5686C86.1557 44.6827 86.1617 43.8693 86.4755 43.1285C86.7969 42.3851 87.3816 41.8688 88.2297 41.5798C88.9643 41.3295 89.6259 41.3365 90.2146 41.6008C90.8007 41.8574 91.2284 42.2568 91.4976 42.7989L90.2368 43.2286C90.0658 42.9995 89.8433 42.8302 89.5693 42.7207C89.3004 42.6011 88.9842 42.6032 88.6207 42.7271C88.1663 42.8819 87.8622 43.1799 87.7083 43.6211C87.562 44.0598 87.5843 44.5593 87.7752 45.1196C87.9687 45.6876 88.2612 46.0993 88.6525 46.3547C89.0412 46.6026 89.4627 46.6491 89.9171 46.4943ZM98.1766 44.808L96.893 45.2454L96.2544 43.3712L95.3798 43.6693L94.6895 45.9963L93.2356 46.4917L93.9964 43.9252C93.5863 43.8874 93.2261 43.7481 92.9159 43.5074C92.6106 43.2564 92.3909 42.934 92.2567 42.5403C92.0632 41.9723 92.09 41.4434 92.3372 40.9535C92.5894 40.4534 93.0524 40.0886 93.7264 39.8589L96.2026 39.0151L98.1766 44.808ZM93.5922 41.3626C93.4672 41.5911 93.4512 41.8416 93.5441 42.1143C93.637 42.3869 93.8027 42.5755 94.0412 42.6802C94.2797 42.7848 94.5542 42.7843 94.8647 42.6785L95.8983 42.3262L95.279 40.5089L94.2454 40.8611C93.9349 40.9669 93.7172 41.134 93.5922 41.3626ZM101.768 43.5843L99.7937 37.7914L102.395 36.905C103.016 36.6934 103.537 36.6722 103.958 36.8414C104.379 37.0107 104.664 37.3149 104.814 37.7541C104.922 38.0721 104.933 38.3642 104.846 38.6305C104.765 38.8865 104.626 39.0987 104.429 39.267C104.753 39.2496 105.055 39.3286 105.334 39.5038C105.621 39.6765 105.828 39.9483 105.954 40.3194C106.12 40.804 106.073 41.2635 105.816 41.6978C105.563 42.122 105.119 42.4424 104.482 42.6592L101.768 43.5843ZM103.48 40.2372L102.196 40.6746L102.699 42.1512L103.983 41.7138C104.271 41.6158 104.468 41.4766 104.576 41.2962C104.688 41.1057 104.705 40.8931 104.625 40.6584C104.46 40.1737 104.078 40.0334 103.48 40.2372ZM102.576 37.9588L101.407 38.3574L101.863 39.6977L103.033 39.2991C103.283 39.2139 103.456 39.0875 103.551 38.9199C103.653 38.7497 103.668 38.5586 103.596 38.3466C103.446 37.9074 103.107 37.7781 102.576 37.9588ZM45.4401 75.4563L44.1452 75.8976L42.1712 70.1047L43.4661 69.6634L44.2866 72.0715L45.6923 68.9048L47.2258 68.3823L45.6519 71.9485L49.2338 74.1636L47.6664 74.6977L44.5189 72.753L45.4401 75.4563ZM50.9316 66.9673C51.6509 66.7222 52.3483 66.7846 53.0238 67.1545C53.7067 67.5218 54.2095 68.1788 54.5321 69.1253C54.8546 70.0719 54.8538 70.9004 54.5297 71.6109C54.2131 72.3189 53.6913 72.7967 52.9644 73.0444C52.5631 73.1812 52.1864 73.2293 51.8345 73.1886C51.4876 73.1378 51.2035 73.0233 50.9822 72.8452L51.9421 75.6621L50.6472 76.1034L47.9339 68.141L49.1833 67.7152L49.4388 68.4649C49.601 67.7504 50.0986 67.2512 50.9316 66.9673ZM52.3576 71.9708C52.812 71.8159 53.1174 71.5217 53.2739 71.0881C53.4354 70.6442 53.4194 70.1384 53.2258 69.5704C53.0349 69.0101 52.74 68.6035 52.3411 68.3506C51.9498 68.0952 51.5269 68.0449 51.0726 68.1997C50.6107 68.3571 50.2977 68.6539 50.1336 69.0902C49.967 69.5188 49.9804 70.0171 50.174 70.5851L50.1894 70.6305C50.383 71.1984 50.6779 71.605 51.0742 71.8503C51.4679 72.088 51.8957 72.1282 52.3576 71.9708ZM58.2109 64.6389L59.608 64.1628L59.1977 73.1897L57.8119 73.6619L57.9351 71.0844L53.7697 66.1523L55.1668 65.6763L58.1016 69.3035L58.2109 64.6389ZM60.2129 65.2245L59.8258 64.0886L64.8236 62.3855L65.2107 63.5214L63.3592 64.1523L64.9462 68.8093L63.6513 69.2506L62.0644 64.5936L60.2129 65.2245ZM69.4812 60.7984L70.8783 60.3223L70.468 69.3491L69.0822 69.8213L69.2055 67.2438L65.04 62.3118L66.4371 61.8357L69.3719 65.463L69.4812 60.7984ZM74.8194 65.4449L73.5245 65.8862L71.5505 60.0933L72.8454 59.652L73.604 61.8783L74.5922 61.5416C74.4784 60.7859 74.5941 60.1084 74.9392 59.509C75.2843 58.9097 75.8166 58.4874 76.5359 58.2423C77.3765 57.9558 78.151 58.0089 78.8594 58.4013C79.5653 58.7862 80.0705 59.4254 80.375 60.319C80.682 61.2201 80.6736 62.0386 80.3496 62.7744C80.0256 63.5102 79.4434 64.0213 78.6028 64.3078C77.8532 64.5632 77.146 64.5465 76.4812 64.2574C75.8214 63.9582 75.3107 63.4392 74.9491 62.7004L73.995 63.0255L74.8194 65.4449ZM76.9359 63.0249C77.3247 63.2727 77.75 63.318 78.2119 63.1606C78.6738 63.0031 78.9792 62.7089 79.1282 62.2778C79.2821 61.8366 79.2623 61.332 79.0687 60.7641C78.8752 60.1962 78.5841 59.7883 78.1953 59.5404C77.8116 59.2824 77.3888 59.2321 76.9269 59.3895C76.465 59.5469 76.157 59.8462 76.0031 60.2874C75.8542 60.7185 75.8765 61.218 76.0701 61.7859C76.2636 62.3539 76.5522 62.7668 76.9359 63.0249ZM85.9123 61.6649L84.6174 62.1061L82.6434 56.3132L83.9382 55.872L84.7588 58.28L86.1645 55.1133L87.698 54.5908L86.1241 58.157L89.706 60.3721L88.1386 60.9062L84.9911 58.9615L85.9123 61.6649ZM88.8231 54.9934C89.1622 54.2524 89.7558 53.7374 90.6039 53.4484C91.4521 53.1594 92.2328 53.206 92.9463 53.5883C93.6673 53.9681 94.1813 54.6085 94.4884 55.5096C94.7955 56.4107 94.7795 57.2318 94.4403 57.9728C94.1088 58.7112 93.519 59.2249 92.6709 59.5139C91.8227 59.8029 91.0382 59.7575 90.3172 59.3778C89.6037 58.9955 89.0935 58.3538 88.7864 57.4527C88.4793 56.5515 88.4916 55.7318 88.8231 54.9934ZM90.9774 58.2274C91.3763 58.4802 91.8104 58.5267 92.2799 58.3667C92.7494 58.2067 93.0611 57.9061 93.215 57.4649C93.3765 57.0211 93.3618 56.519 93.1708 55.9586C92.9799 55.3983 92.685 54.9916 92.2861 54.7388C91.8948 54.4834 91.4644 54.4356 90.9949 54.5956C90.5254 54.7556 90.2099 55.0575 90.0484 55.5013C89.8945 55.9425 89.913 56.4433 90.104 57.0037C90.2949 57.564 90.5861 57.9719 90.9774 58.2274ZM94.5127 52.2686L96.1483 51.7112L99.4205 55.2868L99.8285 50.4571L101.441 49.9075L103.415 55.7004L102.166 56.1262L100.815 52.162L100.42 56.6956L99.4663 57.0208L96.3892 53.6829L97.7361 57.6357L96.4867 58.0615L94.5127 52.2686ZM102.782 49.4506L107.826 47.732L109.8 53.5249L108.505 53.9662L106.918 49.3091L104.464 50.1452L106.051 54.8022L104.756 55.2435L102.782 49.4506ZM113.228 48.0715C113.117 47.7459 112.926 47.5322 112.655 47.4302C112.388 47.3182 112.085 47.3202 111.744 47.4363C111.131 47.6453 110.824 47.999 110.825 48.4974L109.598 48.9154C109.519 48.3847 109.632 47.8856 109.937 47.418C110.248 46.9403 110.744 46.5854 111.426 46.3531C112.145 46.108 112.78 46.0987 113.33 46.3252C113.888 46.5492 114.281 46.9944 114.508 47.6607L115.809 51.4772L114.605 51.8875L114.38 51.2287C114.137 51.9033 113.629 52.3722 112.856 52.6354C112.281 52.8315 111.745 52.8325 111.247 52.6385C110.755 52.4344 110.415 52.0559 110.227 51.5031C110.03 50.9276 110.083 50.4112 110.383 49.9538C110.689 49.4862 111.205 49.1286 111.932 48.8809L113.34 48.4009L113.228 48.0715ZM112.78 51.4823C113.182 51.3455 113.484 51.1158 113.687 50.7932C113.887 50.4629 113.922 50.1085 113.793 49.7299L113.673 49.3778L112.356 49.8268C112.015 49.9429 111.767 50.1077 111.611 50.3213C111.461 50.5247 111.43 50.7551 111.517 51.0126C111.605 51.27 111.764 51.4397 111.995 51.5217C112.223 51.596 112.485 51.5829 112.78 51.4823ZM118.397 50.595L117.103 51.0363L115.129 45.2434L116.423 44.8021L117.182 47.0284L119.67 46.1808L118.911 43.9545L120.206 43.5132L122.18 49.3061L120.885 49.7474L120.061 47.328L117.573 48.1757L118.397 50.595ZM126.691 41.3033L128.665 47.0962L127.393 47.5297L126.081 43.6791L124.769 48.4238L123.52 48.8496L121.546 43.0567L122.818 42.6231L124.134 46.4851L125.442 41.729L126.691 41.3033ZM131.298 46.1989L130.004 46.6401L128.029 40.8472L129.324 40.406L130.083 42.6323L131.071 42.2955C130.957 41.5398 131.073 40.8623 131.418 40.263C131.763 39.6636 132.296 39.2414 133.015 38.9962C133.855 38.7098 134.63 38.7628 135.338 39.1553C136.044 39.5402 136.549 40.1794 136.854 41.0729C137.161 41.9741 137.153 42.7925 136.829 43.5284C136.505 44.2642 135.922 44.7753 135.082 45.0617C134.332 45.3172 133.625 45.3004 132.96 45.0114C132.3 44.7122 131.79 44.1932 131.428 43.4544L130.474 43.7795L131.298 46.1989ZM133.415 43.7788C133.804 44.0267 134.229 44.0719 134.691 43.9145C135.153 43.7571 135.458 43.4629 135.607 43.0318C135.761 42.5906 135.741 42.086 135.548 41.5181C135.354 40.9501 135.063 40.5422 134.674 40.2944C134.291 40.0364 133.868 39.9861 133.406 40.1435C132.944 40.3009 132.636 40.6002 132.482 41.0414C132.333 41.4725 132.356 41.972 132.549 42.5399C132.743 43.1078 133.031 43.5208 133.415 43.7788ZM140.013 36.5989C139.91 36.296 139.712 36.0886 139.421 35.9767C139.136 35.8622 138.813 35.8669 138.449 35.9908C137.707 36.2436 137.364 36.7494 137.42 37.508L136.159 37.9376C136.015 37.2682 136.111 36.6439 136.446 36.0649C136.781 35.4858 137.324 35.0685 138.073 34.8131C138.838 34.5525 139.512 34.5467 140.096 34.7958C140.687 35.0423 141.087 35.4722 141.296 36.0856C141.373 36.3128 141.415 36.5351 141.422 36.7527C141.428 36.9702 141.421 37.1461 141.399 37.2803C141.384 37.4119 141.322 37.5768 141.212 37.7749C141.107 37.9628 141.032 38.0898 140.987 38.1559C140.94 38.2144 140.843 38.3402 140.698 38.5335C140.68 38.5564 140.642 38.6072 140.585 38.686C140.527 38.7648 140.489 38.8157 140.472 38.8386C140.454 38.8614 140.42 38.911 140.37 38.9872C140.325 39.0533 140.295 39.1016 140.28 39.132C140.27 39.1523 140.252 39.1967 140.224 39.2652C140.194 39.3262 140.177 39.3743 140.172 39.4098C140.167 39.4452 140.159 39.4946 140.147 39.558C140.134 39.6213 140.13 39.682 140.133 39.7402C140.14 39.7882 140.151 39.8438 140.164 39.907C140.177 39.9701 140.195 40.0358 140.218 40.1039L140.296 40.3311L139.069 40.7491L138.953 40.4084C138.842 40.0828 138.8 39.7845 138.826 39.5136C138.857 39.2326 138.92 39.0083 139.015 38.8407C139.107 38.6655 139.265 38.4342 139.488 38.1469C139.656 37.9206 139.776 37.7528 139.849 37.6436C139.927 37.5241 139.988 37.3681 140.032 37.1756C140.084 36.9804 140.077 36.7882 140.013 36.5989ZM139.529 41.949C139.641 41.7332 139.815 41.5853 140.049 41.5053C140.284 41.4254 140.508 41.4378 140.721 41.5426C140.942 41.6449 141.093 41.8134 141.173 42.0481C141.253 42.2828 141.238 42.5119 141.128 42.7353C141.023 42.9485 140.853 43.0951 140.618 43.1751C140.384 43.2551 140.156 43.2439 139.935 43.1417C139.719 43.0293 139.571 42.8557 139.491 42.6209C139.411 42.3862 139.424 42.1622 139.529 41.949Z" fill="#0F1414"/>
<defs>
<linearGradient id="paint0_linear_163_803" x1="76.33" y1="2.10896" x2="99.4079" y2="69.8328" gradientUnits="userSpaceOnUse">
<stop stop-color="#F9F9F9"/>
<stop offset="1" stop-color="#F4F4F4"/>
</linearGradient>
</defs>
</svg>
