<svg width="190" height="120" viewBox="0 0 190 120" fill="none" xmlns="http://www.w3.org/2000/svg">
<path fill-rule="evenodd" clip-rule="evenodd" d="M153.251 47.0985C160.656 49.3239 164.855 57.1307 162.629 64.5355L156.14 86.13C153.914 93.5348 146.107 97.7336 138.703 95.5082L84.6812 79.273C83.4112 78.8914 82.0416 79.0298 80.8737 79.658L74.8266 82.9103C72.3946 84.2183 69.3627 83.3072 68.0547 80.8752L64.8023 74.828C64.1742 73.6601 63.1079 72.7896 61.8379 72.4079L38.648 65.4386C31.2432 63.2133 27.0445 55.4065 29.2698 48.0016L35.7596 26.4072C37.985 19.0024 45.7918 14.8036 53.1967 17.029L153.251 47.0985Z" fill="url(#paint0_linear_163_798)"/>
<path d="M47.8727 29.856L54.4018 31.8541L51.9297 39.9323L50.5642 39.5144L52.6606 32.664L48.8624 31.5017L46.766 38.3521L45.4005 37.9342L47.8727 29.856ZM55.4586 35.3902C56.1674 34.988 56.9501 34.918 57.8069 35.1801C58.6637 35.4423 59.2694 35.9373 59.624 36.6649C59.9862 37.3948 60.0281 38.215 59.7495 39.1253C59.4709 40.0356 58.9772 40.6919 58.2685 41.0941C57.5674 41.4987 56.7885 41.5698 55.9317 41.3076C55.075 41.0454 54.4654 40.5494 54.1032 39.8194C53.7486 39.0918 53.7106 38.2728 53.9892 37.3625C54.2677 36.4522 54.7576 35.7947 55.4586 35.3902ZM55.3119 39.2732C55.4873 39.7117 55.8121 40.0036 56.2864 40.1487C56.7607 40.2938 57.1894 40.2326 57.5724 39.965C57.9632 39.6997 58.2452 39.284 58.4184 38.718C58.5916 38.1519 58.5906 37.6496 58.4152 37.2111C58.2475 36.7749 57.9265 36.4842 57.4522 36.3391C56.9779 36.1939 56.5454 36.254 56.1547 36.5193C55.7716 36.7869 55.4935 37.2038 55.3202 37.7698C55.147 38.3359 55.1442 38.837 55.3119 39.2732ZM66.184 43.0396L65.3834 45.6558L64.1212 45.2696L64.5707 43.8008L60.4398 42.5366L59.9903 44.0054L58.7281 43.6191L59.5287 41.0029L59.9992 41.1469C60.4019 41.061 60.8061 40.5195 61.2116 39.5225L62.311 36.7091L66.7746 38.0751L65.3349 42.7797L66.184 43.0396ZM62.4368 39.9477C62.0917 40.8293 61.7458 41.3718 61.3991 41.5753L64.0268 42.3794L65.1154 38.8223L63.1188 38.2112L62.4368 39.9477ZM72.1729 40.982L69.4648 40.1533L68.0251 44.8579L66.717 44.4576L68.5079 38.6055L72.524 39.8346L72.1729 40.982ZM73.4726 40.9029C74.1813 40.5007 74.9641 40.4307 75.8209 40.6929C76.6776 40.9551 77.2833 41.45 77.6379 42.1776C78.0002 42.9076 78.042 43.7277 77.7634 44.638C77.4848 45.5484 76.9912 46.2046 76.2825 46.6068C75.5814 47.0114 74.8025 47.0826 73.9457 46.8204C73.0889 46.5582 72.4794 46.0621 72.1171 45.3321C71.7625 44.6045 71.7245 43.7856 72.0031 42.8752C72.2817 41.9649 72.7715 41.3075 73.4726 40.9029ZM73.3259 44.7859C73.5012 45.2245 73.8261 45.5163 74.3003 45.6614C74.7746 45.8066 75.2033 45.7453 75.5864 45.4777C75.9771 45.2124 76.2591 44.7968 76.4324 44.2307C76.6056 43.6646 76.6045 43.1623 76.4292 42.7238C76.2615 42.2876 75.9405 41.997 75.4662 41.8518C74.9919 41.7067 74.5594 41.7667 74.1687 42.032C73.7856 42.2996 73.5074 42.7165 73.3342 43.2826C73.1609 43.8487 73.1582 44.3498 73.3259 44.7859ZM78.6462 42.963L78.9974 41.8156L84.0462 43.3606L83.6951 44.5081L81.8247 43.9357L80.385 48.6404L79.0769 48.24L80.5166 43.5354L78.6462 42.963ZM84.959 44.418C85.6677 44.0158 86.4504 43.9458 87.3072 44.208C88.164 44.4702 88.7697 44.9651 89.1243 45.6927C89.4865 46.4227 89.5284 47.2428 89.2498 48.1531C88.9712 49.0635 88.4775 49.7197 87.7688 50.122C87.0678 50.5265 86.2888 50.5977 85.432 50.3355C84.5753 50.0733 83.9658 49.5772 83.6035 48.8473C83.2489 48.1196 83.2109 47.3007 83.4895 46.3903C83.7681 45.48 84.2579 44.8226 84.959 44.418ZM84.8122 48.3011C84.9876 48.7396 85.3124 49.0314 85.7867 49.1765C86.261 49.3217 86.6897 49.2605 87.0728 48.9928C87.4635 48.7276 87.7455 48.3119 87.9187 47.7458C88.092 47.1797 88.0909 46.6774 87.9155 46.2389C87.7478 45.8027 87.4268 45.5121 86.9525 45.3669C86.4783 45.2218 86.0458 45.2819 85.655 45.5471C85.2719 45.8147 84.9938 46.2316 84.8205 46.7977C84.6473 47.3638 84.6445 47.8649 84.8122 48.3011ZM89.3759 51.3918L91.1668 45.5397L93.7945 46.3439C94.4218 46.5358 94.8566 46.8237 95.099 47.2074C95.3413 47.5911 95.3946 48.0048 95.2588 48.4485C95.1604 48.7698 94.9982 49.0129 94.772 49.178C94.5558 49.3377 94.3189 49.4283 94.0613 49.4499C94.3339 49.6254 94.5322 49.8659 94.6562 50.1716C94.7878 50.4796 94.7963 50.821 94.6815 51.1958C94.5317 51.6854 94.2252 52.0308 93.762 52.2321C93.3089 52.4281 92.761 52.4277 92.1184 52.2311L89.3759 51.3918ZM92.7233 49.6804L91.4266 49.2836L90.9701 50.7754L92.2668 51.1722C92.5575 51.2611 92.7992 51.264 92.992 51.1808C93.1948 51.0922 93.3325 50.9294 93.405 50.6922C93.5549 50.2027 93.3276 49.8654 92.7233 49.6804ZM93.3249 47.3045L92.143 46.9428L91.7286 48.2968L92.9105 48.6585C93.163 48.7358 93.3768 48.7343 93.5519 48.654C93.7347 48.5761 93.8589 48.43 93.9244 48.2158C94.0602 47.7721 93.8604 47.4684 93.3249 47.3045ZM102.187 48.912L100.396 54.7641L99.1104 54.3708L100.301 50.4809L96.4598 53.5597L95.1976 53.1734L96.9885 47.3213L98.2736 47.7146L97.0797 51.616L100.924 48.5258L102.187 48.912ZM103.538 49.3258L105.191 49.8314L105.75 54.6459L108.909 50.9692L110.538 51.4678L108.747 57.3199L107.485 56.9336L108.71 52.929L105.736 56.3734L104.772 56.0785L104.232 51.5709L103.01 55.5641L101.748 55.1779L103.538 49.3258ZM119.36 54.1676L117.569 60.0197L116.284 59.6264L117.474 55.7364L113.633 58.8152L112.371 58.4289L114.162 52.5768L115.447 52.9701L114.253 56.8715L118.098 53.7813L119.36 54.1676ZM48.1382 50.0664L47.3375 52.6827L46.0753 52.2964L46.5248 50.8276L42.3939 49.5635L41.9444 51.0322L40.6822 50.646L41.4828 48.0297L41.9533 48.1737C42.3561 48.0878 42.7602 47.5464 43.1657 46.5494L44.2651 43.7359L48.7288 45.1019L47.289 49.8066L48.1382 50.0664ZM44.3909 46.9745C44.0458 47.8561 43.6999 48.3987 43.3532 48.6021L45.9809 49.4062L47.0695 45.8491L45.0729 45.2381L44.3909 46.9745ZM50.692 46.4808C51.4008 46.0786 52.1835 46.0086 53.0403 46.2708C53.8971 46.533 54.5028 47.0279 54.8574 47.7555C55.2196 48.4855 55.2615 49.3056 54.9829 50.2159C54.7043 51.1263 54.2106 51.7825 53.5019 52.1847C52.8008 52.5893 52.0219 52.6605 51.1651 52.3983C50.3084 52.1361 49.6988 51.64 49.3366 50.91C48.982 50.1824 48.944 49.3635 49.2226 48.4531C49.5011 47.5428 49.991 46.8854 50.692 46.4808ZM50.5453 50.3639C50.7207 50.8024 51.0455 51.0942 51.5198 51.2393C51.9941 51.3845 52.4228 51.3232 52.8058 51.0556C53.1966 50.7904 53.4786 50.3747 53.6518 49.8086C53.825 49.2425 53.824 48.7402 53.6486 48.3017C53.4809 47.8655 53.1599 47.5749 52.6856 47.4297C52.2113 47.2846 51.7788 47.3446 51.3881 47.6099C51.005 47.8775 50.7269 48.2944 50.5536 48.8605C50.3804 49.4266 50.3776 49.9277 50.5453 50.3639ZM55.109 53.4546L56.8999 47.6025L59.5276 48.4067C60.1549 48.5986 60.5897 48.8865 60.832 49.2702C61.0744 49.6539 61.1276 50.0676 60.9919 50.5113C60.8935 50.8326 60.7313 51.0757 60.5051 51.2408C60.2889 51.4005 60.052 51.4911 59.7944 51.5127C60.067 51.6881 60.2653 51.9287 60.3893 52.2344C60.5209 52.5424 60.5293 52.8838 60.4146 53.2586C60.2648 53.7482 59.9583 54.0936 59.4951 54.2949C59.042 54.4909 58.4941 54.4905 57.8515 54.2939L55.109 53.4546ZM58.4564 51.7432L57.1597 51.3464L56.7032 52.8381L57.9999 53.2349C58.2905 53.3239 58.5323 53.3268 58.7251 53.2435C58.9279 53.155 59.0655 52.9922 59.1381 52.755C59.2879 52.2654 59.0607 51.9282 58.4564 51.7432ZM59.058 49.3673L57.8761 49.0056L57.4617 50.3596L58.6436 50.7213C58.896 50.7985 59.1098 50.797 59.285 50.7168C59.4678 50.6389 59.592 50.4928 59.6575 50.2786C59.7933 49.8349 59.5935 49.5311 59.058 49.3673ZM66.8394 54.2585L62.72 52.9978L62.713 53.0208C62.5748 53.4721 62.6055 53.8914 62.8049 54.2787C63.0043 54.666 63.3373 54.9311 63.8039 55.0739C64.1252 55.1722 64.409 55.1879 64.6554 55.1211C64.9117 55.049 65.0901 54.9446 65.1904 54.808L66.4756 55.2013C66.248 55.6169 65.8662 55.9351 65.3301 56.1559C64.8017 56.379 64.1741 56.3794 63.4474 56.157C62.5753 55.8901 61.9584 55.4043 61.5968 54.6996C61.2375 53.9873 61.2019 53.1607 61.4898 52.2198C61.7778 51.2788 62.2661 50.6126 62.9549 50.221C63.6459 49.8217 64.4084 49.7497 65.2422 50.0049C66.0454 50.2507 66.6073 50.7113 66.9277 51.3866C67.2481 52.0619 67.2737 52.8394 67.0045 53.7192L66.8394 54.2585ZM64.8971 51.0915C64.4841 50.9651 64.11 50.9844 63.775 51.1496C63.4476 51.3172 63.2005 51.6055 63.0335 52.0145L65.8333 52.8713C65.9491 52.4382 65.9209 52.0657 65.7487 51.7536C65.5864 51.4363 65.3026 51.2155 64.8971 51.0915ZM73.4305 57.8065L72.6298 60.4228L71.3676 60.0365L71.8171 58.5677L67.6862 57.3036L67.2367 58.7723L65.9745 58.386L66.7751 55.7698L67.2456 55.9138C67.6484 55.8279 68.0525 55.2865 68.458 54.2895L69.5574 51.476L74.0211 52.842L72.5813 57.5467L73.4305 57.8065ZM69.6832 54.7146C69.3381 55.5962 68.9922 56.1388 68.6455 56.3422L71.2732 57.1463L72.3618 53.5892L70.3652 52.9782L69.6832 54.7146ZM79.861 58.2434L75.7415 56.9827L75.7345 57.0057C75.5964 57.457 75.627 57.8764 75.8264 58.2637C76.0258 58.651 76.3588 58.916 76.8255 59.0588C77.1468 59.1571 77.4306 59.1729 77.6769 59.106C77.9333 59.0339 78.1116 58.9295 78.212 58.7929L79.4971 59.1862C79.2696 59.6018 78.8877 59.92 78.3517 60.1408C77.8232 60.3639 77.1957 60.3643 76.4689 60.1419C75.5968 59.875 74.98 59.3892 74.6184 58.6846C74.2591 57.9722 74.2234 57.1456 74.5114 56.2047C74.7993 55.2638 75.2877 54.5975 75.9764 54.2059C76.6675 53.8067 77.4299 53.7346 78.2638 53.9898C79.067 54.2356 79.6288 54.6962 79.9492 55.3715C80.2696 56.0468 80.2952 56.8244 80.026 57.7041L79.861 58.2434ZM77.9187 55.0764C77.5056 54.95 77.1316 54.9694 76.7966 55.1346C76.4692 55.3021 76.222 55.5904 76.055 55.9994L78.8548 56.8562C78.9706 56.4232 78.9424 56.0506 78.7702 55.7386C78.608 55.4212 78.3241 55.2005 77.9187 55.0764ZM81.8897 55.25L83.542 55.7557L84.1017 60.5702L87.2599 56.8934L88.8893 57.3921L87.0984 63.2442L85.8362 62.8579L87.0617 58.8532L84.0875 62.2977L83.1237 62.0027L82.583 57.4952L81.361 61.4884L80.0988 61.1021L81.8897 55.25ZM97.1092 65.0528L96.3085 67.669L95.0463 67.2828L95.4958 65.814L91.3649 64.5498L90.9154 66.0186L89.6532 65.6323L90.4538 63.0161L90.9243 63.1601C91.3271 63.0742 91.7312 62.5327 92.1367 61.5358L93.2361 58.7223L97.6998 60.0883L96.26 64.7929L97.1092 65.0528ZM93.3619 61.9609C93.0168 62.8425 92.6709 63.385 92.3242 63.5885L94.9519 64.3926L96.0405 60.8355L94.0439 60.2245L93.3619 61.9609ZM99.6631 61.4672C100.372 61.065 101.155 60.995 102.011 61.2572C102.868 61.5194 103.474 62.0143 103.828 62.7419C104.191 63.4718 104.232 64.292 103.954 65.2023C103.675 66.1126 103.182 66.7689 102.473 67.1711C101.772 67.5757 100.993 67.6469 100.136 67.3847C99.2794 67.1225 98.6699 66.6264 98.3076 65.8964C97.953 65.1688 97.915 64.3498 98.1936 63.4395C98.4722 62.5292 98.962 61.8717 99.6631 61.4672ZM99.5163 65.3502C99.6917 65.7887 100.017 66.0806 100.491 66.2257C100.965 66.3709 101.394 66.3096 101.777 66.042C102.168 65.7767 102.45 65.3611 102.623 64.795C102.796 64.2289 102.795 63.7266 102.62 63.2881C102.452 62.8519 102.131 62.5613 101.657 62.4161C101.182 62.271 100.75 62.331 100.359 62.5963C99.976 62.8639 99.6979 63.2808 99.5246 63.8468C99.3514 64.4129 99.3486 64.9141 99.5163 65.3502ZM108.382 64.1353C109.09 63.7331 109.873 63.6631 110.73 63.9253C111.587 64.1875 112.192 64.6824 112.547 65.41C112.909 66.1399 112.951 66.9601 112.672 67.8704C112.394 68.7807 111.9 69.437 111.191 69.8392C110.49 70.2438 109.711 70.3149 108.855 70.0528C107.998 69.7906 107.388 69.2945 107.026 68.5645C106.672 67.8369 106.634 67.0179 106.912 66.1076C107.191 65.1973 107.681 64.5398 108.382 64.1353ZM108.235 68.0183C108.41 68.4568 108.735 68.7487 109.209 68.8938C109.684 69.039 110.112 68.9777 110.495 68.7101C110.886 68.4448 111.168 68.0291 111.341 67.4631C111.515 66.897 111.514 66.3947 111.338 65.9562C111.17 65.52 110.849 65.2293 110.375 65.0842C109.901 64.9391 109.468 64.9991 109.078 65.2644C108.695 65.532 108.416 65.9489 108.243 66.5149C108.07 67.081 108.067 67.5822 108.235 68.0183ZM118.656 66.3633C119.541 66.6678 120.186 67.1871 120.588 67.9211C120.991 68.6551 121.057 69.4658 120.785 70.3532C120.514 71.2406 120.006 71.8757 119.261 72.2585C118.516 72.6414 117.692 72.7112 116.788 72.4679L116.156 74.5333L114.87 74.14L115.502 72.0746C114.609 71.7677 113.961 71.2473 113.558 70.5133C113.155 69.7793 113.09 68.9686 113.361 68.0812C113.633 67.1938 114.141 66.5587 114.886 66.1759C115.63 65.793 116.459 65.7244 117.371 65.97L118.034 63.8013L119.319 64.1946L118.656 66.3633ZM115.85 70.9386L117.023 67.106C116.521 66.9692 116.049 67.0213 115.607 67.2626C115.168 67.4962 114.859 67.9037 114.681 68.485C114.503 69.0664 114.53 69.5807 114.761 70.028C114.994 70.4676 115.358 70.7711 115.85 70.9386ZM119.477 69.9529C119.655 69.3715 119.627 68.861 119.394 68.4214C119.163 67.9741 118.801 67.6668 118.308 67.4993L117.135 71.3319C117.637 71.4687 118.109 71.4166 118.551 71.1753C118.993 70.9341 119.302 70.5266 119.477 69.9529ZM126.763 68.8445C127.649 69.149 128.293 69.6682 128.696 70.4022C129.099 71.1362 129.165 71.9469 128.893 72.8343C128.621 73.7217 128.113 74.3568 127.369 74.7397C126.624 75.1225 125.8 75.1923 124.895 74.949L124.263 77.0145L122.978 76.6212L123.61 74.5557C122.717 74.2489 122.069 73.7284 121.666 72.9944C121.263 72.2604 121.197 71.4497 121.469 70.5623C121.74 69.675 122.249 69.0398 122.993 68.657C123.738 68.2741 124.566 68.2055 125.478 68.4512L126.142 66.2824L127.427 66.6757L126.763 68.8445ZM123.958 73.4197L125.131 69.5872C124.629 69.4503 124.157 69.5025 123.715 69.7437C123.275 69.9773 122.966 70.3848 122.788 70.9662C122.611 71.5476 122.637 72.0619 122.868 72.5091C123.102 72.9487 123.465 73.2522 123.958 73.4197ZM127.585 72.434C127.763 71.8526 127.735 71.3421 127.501 70.9025C127.27 70.4553 126.908 70.1479 126.416 69.9805L125.243 73.813C125.745 73.9499 126.217 73.8977 126.659 73.6565C127.101 73.4152 127.409 73.0077 127.585 72.434ZM134.923 75.0936L130.803 73.833L130.796 73.8559C130.658 74.3073 130.689 74.7266 130.888 75.1139C131.087 75.5012 131.42 75.7663 131.887 75.9091C132.208 76.0074 132.492 76.0231 132.739 75.9563C132.995 75.8841 133.173 75.7798 133.274 75.6431L134.559 76.0364C134.331 76.452 133.949 76.7702 133.413 76.991C132.885 77.2142 132.257 77.2145 131.531 76.9921C130.658 76.7253 130.042 76.2395 129.68 75.5348C129.321 74.8225 129.285 73.9959 129.573 73.0549C129.861 72.114 130.349 71.4478 131.038 71.0562C131.729 70.6569 132.492 70.5849 133.325 70.8401C134.129 71.0859 134.69 71.5464 135.011 72.2218C135.331 72.8971 135.357 73.6746 135.088 74.5543L134.923 75.0936ZM132.98 71.9266C132.567 71.8002 132.193 71.8196 131.858 71.9848C131.531 72.1524 131.284 72.4406 131.117 72.8497L133.916 73.7065C134.032 73.2734 134.004 72.9009 133.832 72.5888C133.67 72.2714 133.386 72.0507 132.98 71.9266ZM140.069 72.9037C140.795 73.1261 141.324 73.5849 141.655 74.2802C141.994 74.9779 142.017 75.8048 141.724 76.761C141.432 77.7173 140.946 78.3885 140.267 78.7748C139.596 79.1634 138.893 79.2454 138.159 79.0206C137.754 78.8966 137.42 78.715 137.159 78.476C136.907 78.2317 136.744 77.9726 136.669 77.6986L135.798 80.5444L134.49 80.144L136.951 72.1003L138.213 72.4865L137.982 73.2439C138.532 72.7596 139.227 72.6462 140.069 72.9037ZM138.296 77.795C138.755 77.9354 139.175 77.8757 139.555 77.6157C139.946 77.3504 140.229 76.9309 140.405 76.3572C140.578 75.7911 140.577 75.2888 140.402 74.8503C140.234 74.4141 139.921 74.1258 139.462 73.9854C138.995 73.8426 138.567 73.9 138.179 74.1576C137.793 74.4076 137.512 74.8194 137.337 75.3932L137.322 75.4391C137.147 76.0128 137.148 76.5151 137.326 76.9459C137.506 77.3692 137.829 77.6522 138.296 77.795ZM146.463 77.1695C146.563 76.8406 146.534 76.5553 146.373 76.3138C146.223 76.067 145.975 75.891 145.631 75.7856C145.012 75.596 144.556 75.7034 144.265 76.108L143.026 75.7287C143.272 75.2519 143.656 74.9134 144.177 74.7132C144.709 74.5077 145.319 74.5103 146.007 74.721C146.734 74.9434 147.254 75.3076 147.568 75.8135C147.889 76.3218 147.947 76.9126 147.741 77.5857L146.561 81.4412L145.345 81.069L145.548 80.4035C144.956 80.8079 144.27 80.8907 143.489 80.6519C142.908 80.474 142.473 80.1608 142.183 79.7125C141.904 79.2589 141.849 78.7528 142.02 78.1944C142.198 77.613 142.543 77.2249 143.054 77.03C143.576 76.8298 144.204 76.8421 144.938 77.0668L146.361 77.5023L146.463 77.1695ZM144.103 79.6725C144.508 79.7966 144.888 79.7872 145.241 79.6443C145.597 79.4938 145.833 79.2273 145.95 78.8448L146.059 78.4891L144.728 78.0817C144.384 77.9764 144.086 77.9648 143.835 78.0469C143.594 78.1238 143.434 78.2922 143.354 78.5523C143.274 78.8124 143.304 79.0432 143.443 79.2448C143.585 79.4386 143.805 79.5812 144.103 79.6725Z" fill="white"/>
<defs>
<linearGradient id="paint0_linear_163_798" x1="107.688" y1="15.1265" x2="77.032" y2="117.133" gradientUnits="userSpaceOnUse">
<stop stop-color="#66BEBE"/>
<stop offset="1" stop-color="#65DEA3"/>
</linearGradient>
</defs>
</svg>
