<svg width="180" height="100" viewBox="0 0 180 100" fill="none" xmlns="http://www.w3.org/2000/svg">
<g clip-path="url(#clip0_201_853)">
<path fill-rule="evenodd" clip-rule="evenodd" d="M36.931 30.6183C26.4757 34.1811 20.8882 45.5451 24.451 56.0004L32.6832 80.1583C36.246 90.6136 47.6099 96.2011 58.0653 92.6383L121.183 71.13L126.707 73.8462C128.69 74.8209 131.087 74.004 132.062 72.0216L134.778 66.4974L140.723 64.4715C151.178 60.9087 156.766 49.5447 153.203 39.0894L144.971 14.9315C141.408 4.4762 130.044 -1.11129 119.589 2.45151L36.931 30.6183Z" fill="url(#paint0_linear_201_853)"/>
<path d="M45.4031 45.4251L46.3398 48.1739L45.0449 48.6152L44.5262 47.0931L39.0287 48.9665L39.5473 50.4885L38.2525 50.9298L37.3158 48.181L37.9405 47.9681C38.1486 47.6859 38.246 47.3146 38.2328 46.8543C38.2171 46.3864 38.1015 45.7496 37.8862 44.944L36.7695 40.8113L42.1194 38.9883L44.4263 45.758L45.4031 45.4251ZM39.181 44.5028C39.3938 45.3008 39.5194 45.9172 39.5577 46.3521C39.601 46.7768 39.5579 47.1465 39.4285 47.4611L43.0746 46.2186L41.1819 40.6642L38.399 41.6125L39.181 44.5028ZM48.7726 41.3611C48.6617 41.0355 48.4705 40.8217 48.1991 40.7198C47.9327 40.6077 47.6292 40.6097 47.2884 40.7259C46.675 40.9349 46.3687 41.2886 46.3695 41.7869L45.1428 42.205C45.0634 41.6742 45.1764 41.1751 45.4819 40.7076C45.7925 40.2299 46.2885 39.8749 46.97 39.6427C47.6894 39.3975 48.3243 39.3882 48.8748 39.6148C49.4329 39.8387 49.8254 40.2839 50.0525 40.9503L51.353 44.7668L50.149 45.1771L49.9245 44.5183C49.6811 45.1928 49.1732 45.6617 48.4008 45.9249C47.8253 46.121 47.289 46.1221 46.7918 45.9281C46.2997 45.7239 45.9594 45.3454 45.771 44.7926C45.5749 44.2171 45.6271 43.7007 45.9277 43.2433C46.2332 42.7758 46.7494 42.4181 47.4764 42.1704L48.8849 41.6905L48.7726 41.3611ZM48.3248 44.7718C48.7262 44.635 49.0282 44.4053 49.231 44.0827C49.4312 43.7525 49.4667 43.398 49.3377 43.0194L49.2177 42.6673L47.9001 43.1163C47.5594 43.2324 47.3113 43.3973 47.1559 43.6108C47.0054 43.8142 46.9741 44.0446 47.0618 44.3021C47.1495 44.5595 47.3088 44.7293 47.5396 44.8112C47.7677 44.8856 48.0295 44.8724 48.3248 44.7718ZM54.8416 37.1124L55.6777 39.5659L56.8635 36.4234L58.3515 35.9164L57.0314 39.4088L60.3595 41.6977L58.8375 42.2163L55.8867 40.1792L56.8157 42.9053L55.5435 43.3388L54.6145 40.6127L53.5217 44.0278L52.011 44.5426L53.2492 40.7357L50.0597 38.7419L51.5476 38.2349L54.4055 39.9994L53.5695 37.5459L54.8416 37.1124ZM65.0016 37.3014L60.9238 38.691L60.9316 38.7137C61.0838 39.1605 61.3541 39.4825 61.7425 39.6797C62.1309 39.877 62.5561 39.8969 63.018 39.7395C63.336 39.6312 63.5753 39.4778 63.7359 39.2794C63.9015 39.0708 63.985 38.8818 63.9864 38.7123L65.2586 38.2788C65.3173 38.7489 65.1941 39.2304 64.8887 39.7233C64.5909 40.2135 64.0823 40.5812 63.363 40.8264C62.4997 41.1205 61.7152 41.0878 61.0095 40.7282C60.3012 40.361 59.7884 39.7118 59.471 38.7804C59.1536 37.8489 59.1595 37.0229 59.4886 36.3022C59.8152 35.574 60.3912 35.0692 61.2165 34.7879C62.0117 34.517 62.7368 34.5615 63.3919 34.9214C64.047 35.2814 64.5229 35.8967 64.8197 36.7676L65.0016 37.3014ZM61.5729 35.8709C61.164 36.0102 60.8721 36.2449 60.6972 36.575C60.5299 36.9024 60.4983 37.2809 60.6023 37.7103L63.3738 36.7658C63.2142 36.3469 62.9732 36.0614 62.6509 35.9092C62.3336 35.7469 61.9742 35.7341 61.5729 35.8709ZM71.2574 36.8558C71.6361 36.7267 71.8953 36.5327 72.0353 36.2738C72.1828 36.0122 72.2455 35.7373 72.2233 35.449L73.4841 35.0194C73.6172 35.6333 73.5225 36.2234 73.1999 36.7897C72.8774 37.356 72.3564 37.7617 71.637 38.0069C70.7965 38.2933 70.0233 38.244 69.3174 37.8592C68.6089 37.4667 68.1025 36.8237 67.798 35.9301C67.4961 35.0442 67.502 34.2308 67.8158 33.49C68.1372 32.7466 68.722 32.2304 69.5701 31.9413C70.3046 31.691 70.9662 31.698 71.5549 31.9623C72.141 32.2189 72.5687 32.6183 72.838 33.1604L71.5772 33.5901C71.4061 33.361 71.1837 33.1917 70.9097 33.0822C70.6407 32.9626 70.3245 32.9647 69.961 33.0886C69.5067 33.2434 69.2026 33.5414 69.0487 33.9826C68.9023 34.4213 68.9246 34.9208 69.1156 35.4811C69.3091 36.0491 69.6015 36.4608 69.9928 36.7162C70.3816 36.9641 70.8031 37.0106 71.2574 36.8558ZM75.3936 30.109L77.0292 29.5517L80.3014 33.1273L80.7094 28.2976L82.3223 27.748L84.2963 33.5409L83.0469 33.9666L81.696 30.0025L81.3013 34.5361L80.3472 34.8613L77.2701 31.5234L78.617 35.4762L77.3676 35.9019L75.3936 30.109ZM89.8552 28.8322L85.7775 30.2217L85.7852 30.2444C85.9375 30.6912 86.2078 31.0132 86.5962 31.2105C86.9846 31.4078 87.4097 31.4277 87.8716 31.2703C88.1897 31.1619 88.429 31.0085 88.5896 30.8101C88.7551 30.6016 88.8386 30.4125 88.84 30.243L90.1122 29.8095C90.171 30.2797 90.0477 30.7612 89.7424 31.254C89.4446 31.7443 88.936 32.112 88.2166 32.3571C87.3534 32.6513 86.5689 32.6186 85.8632 32.259C85.1549 31.8918 84.642 31.2425 84.3247 30.3111C84.0073 29.3797 84.0131 28.5537 84.3423 27.833C84.6688 27.1047 85.2448 26.6 86.0702 26.3187C86.8653 26.0478 87.5904 26.0923 88.2455 26.4522C88.9006 26.8121 89.3766 27.4275 89.6733 28.2983L89.8552 28.8322ZM86.4265 27.4016C86.0176 27.541 85.7257 27.7757 85.5508 28.1057C85.3835 28.4332 85.3519 28.8116 85.456 29.241L88.2275 28.2966C88.0678 27.8777 87.8268 27.5922 87.5045 27.44C87.1872 27.2777 86.8279 27.2649 86.4265 27.4016ZM91.0716 31.2575L90.6845 30.1216L90.8663 30.0597C91.1843 29.9513 91.378 29.7881 91.4474 29.5701C91.5218 29.3419 91.5018 28.9979 91.3874 28.5383L90.487 24.9658L94.7464 23.5143L96.7205 29.3072L95.4256 29.7484L93.8386 25.0914L92.0099 25.7146L92.6451 28.2111C92.8555 29.0269 92.8623 29.6669 92.6655 30.1311C92.4737 30.5853 92.0598 30.9207 91.4237 31.1375L91.0716 31.2575ZM99.3671 28.4053L98.0722 28.8465L96.0982 23.0536L97.3931 22.6124L98.2137 25.0204L99.6194 21.8538L101.153 21.3312L99.579 24.8975L103.161 27.1125L101.593 27.6467L98.4459 25.7019L99.3671 28.4053ZM107.006 19.3365L108.98 25.1294L107.708 25.5629L106.396 21.7124L105.084 26.457L103.835 26.8828L101.861 21.0899L103.133 20.6564L104.449 24.5183L105.757 19.7623L107.006 19.3365ZM108.345 18.8805L109.98 18.3231L113.253 21.8988L113.661 17.069L115.273 16.5194L117.247 22.3123L115.998 22.7381L114.647 18.7739L114.252 23.3076L113.298 23.6327L110.221 20.2948L111.568 24.2476L110.319 24.6734L108.345 18.8805ZM121.76 14.3091L123.734 20.102L122.462 20.5355L121.149 16.6849L119.838 21.4296L118.588 21.8554L116.614 16.0625L117.886 15.629L119.202 19.4909L120.51 14.7349L121.76 14.3091ZM42.2746 60.538L40.3006 54.7451L42.9017 53.8587C43.5226 53.6471 44.0436 53.6259 44.4647 53.7952C44.8858 53.9644 45.1712 54.2686 45.3208 54.7078C45.4292 55.0258 45.44 55.318 45.3533 55.5842C45.2715 55.8402 45.1325 56.0524 44.9363 56.2207C45.26 56.2034 45.5616 56.2823 45.841 56.4575C46.1281 56.6302 46.3348 56.902 46.4612 57.2731C46.6264 57.7577 46.5801 58.2172 46.3224 58.6515C46.0697 59.0757 45.6254 59.3962 44.9893 59.6129L42.2746 60.538ZM43.9865 57.1909L42.7029 57.6283L43.2061 59.1049L44.4896 58.6675C44.7774 58.5695 44.9751 58.4303 45.0826 58.25C45.1952 58.0595 45.2115 57.8468 45.1315 57.6121C44.9664 57.1275 44.5847 56.9871 43.9865 57.1909ZM43.0833 54.9125L41.9133 55.3111L42.3701 56.6515L43.54 56.2528C43.7899 56.1676 43.9623 56.0413 44.0574 55.8736C44.16 55.7035 44.1751 55.5124 44.1029 55.3003C43.9532 54.8611 43.6133 54.7318 43.0833 54.9125ZM46.7576 53.3308C47.0967 52.5898 47.6903 52.0748 48.5384 51.7858C49.3866 51.4968 50.1673 51.5434 50.8808 51.9257C51.6018 52.3055 52.1158 52.9459 52.4229 53.847C52.73 54.7481 52.714 55.5692 52.3748 56.3102C52.0433 57.0486 51.4535 57.5623 50.6054 57.8513C49.7572 58.1403 48.9727 58.0949 48.2517 57.7152C47.5382 57.3329 47.028 56.6912 46.7209 55.7901C46.4138 54.8889 46.4261 54.0692 46.7576 53.3308ZM48.9119 56.5648C49.3107 56.8176 49.7449 56.864 50.2144 56.7041C50.6839 56.5441 50.9956 56.2435 51.1495 55.8022C51.311 55.3584 51.2963 54.8564 51.1053 54.296C50.9144 53.7356 50.6194 53.329 50.2206 53.0762C49.8293 52.8207 49.3989 52.773 48.9294 52.933C48.4599 53.093 48.1444 53.3949 47.9829 53.8387C47.829 54.2799 47.8475 54.7807 48.0385 55.3411C48.2294 55.9014 48.5206 56.3093 48.9119 56.5648ZM52.4472 50.606L57.4904 48.8874L59.4644 54.6803L58.1695 55.1215L56.5826 50.4645L54.1291 51.3006L55.7161 55.9576L54.4212 56.3989L52.4472 50.606ZM61.8287 47.2569C62.5481 47.0118 63.2455 47.0742 63.9209 47.4441C64.6039 47.8114 65.1067 48.4684 65.4292 49.4149C65.7518 50.3615 65.751 51.19 65.4269 51.9005C65.1103 52.6085 64.5885 53.0863 63.8616 53.334C63.4602 53.4708 63.0836 53.5188 62.7317 53.4782C62.3848 53.4274 62.1006 53.3129 61.8794 53.1348L62.8393 55.9517L61.5444 56.3929L58.8311 48.4305L60.0805 48.0048L60.336 48.7544C60.4982 48.0399 60.9958 47.5408 61.8287 47.2569ZM63.2548 52.2604C63.7092 52.1055 64.0146 51.8113 64.1711 51.3776C64.3326 50.9338 64.3165 50.428 64.123 49.86C63.9321 49.2997 63.6371 48.8931 63.2383 48.6402C62.847 48.3848 62.4241 48.3345 61.9698 48.4893C61.5079 48.6467 61.1949 48.9435 61.0308 49.3798C60.8642 49.8084 60.8776 50.3067 61.0712 50.8746L61.0866 50.9201C61.2802 51.488 61.5751 51.8946 61.9714 52.1399C62.3651 52.3776 62.7929 52.4178 63.2548 52.2604ZM66.1422 46.7252C66.4814 45.9842 67.075 45.4692 67.9231 45.1802C68.7712 44.8912 69.552 44.9378 70.2654 45.3201C70.9864 45.6999 71.5005 46.3403 71.8076 47.2414C72.1146 48.1425 72.0986 48.9636 71.7595 49.7046C71.4279 50.443 70.8381 50.9567 69.99 51.2457C69.1419 51.5347 68.3573 51.4893 67.6363 51.1096C66.9229 50.7273 66.4126 50.0856 66.1055 49.1845C65.7985 48.2833 65.8107 47.4636 66.1422 46.7252ZM68.2965 49.9592C68.6954 50.212 69.1296 50.2585 69.5991 50.0985C70.0686 49.9385 70.3803 49.6379 70.5342 49.1966C70.6956 48.7528 70.6809 48.2508 70.49 47.6904C70.299 47.13 70.0041 46.7234 69.6052 46.4706C69.2139 46.2151 68.7835 46.1674 68.314 46.3274C67.8445 46.4874 67.529 46.7893 67.3676 47.2331C67.2137 47.6743 67.2322 48.1751 67.4231 48.7355C67.6141 49.2958 67.9052 49.7037 68.2965 49.9592ZM75.9489 47.9347C76.3275 47.8057 76.5868 47.6116 76.7267 47.3527C76.8743 47.0911 76.9369 46.8162 76.9148 46.5279L78.1756 46.0983C78.3087 46.7122 78.214 47.3023 77.8914 47.8686C77.5688 48.4349 77.0478 48.8406 76.3285 49.0858C75.4879 49.3722 74.7147 49.323 74.0088 48.9381C73.3004 48.5456 72.7939 47.9026 72.4894 47.0091C72.1875 46.1231 72.1935 45.3097 72.5073 44.5689C72.8287 43.8255 73.4134 43.3093 74.2616 43.0203C74.9961 42.77 75.6577 42.7769 76.2464 43.0412C76.8325 43.2978 77.2602 43.6972 77.5294 44.2394L76.2686 44.669C76.0976 44.4399 75.8751 44.2706 75.6012 44.1611C75.3322 44.0415 75.016 44.0436 74.6525 44.1675C74.1981 44.3223 73.894 44.6203 73.7401 45.0616C73.5938 45.5002 73.6161 45.9997 73.807 46.5601C74.0006 47.128 74.293 47.5397 74.6843 47.7951C75.073 48.043 75.4945 48.0895 75.9489 47.9347ZM81.9006 42.7498C81.7896 42.4242 81.5984 42.2105 81.3271 42.1085C81.0607 41.9965 80.7571 41.9985 80.4163 42.1146C79.803 42.3236 79.4967 42.6773 79.4975 43.1757L78.2708 43.5937C78.1913 43.063 78.3044 42.5639 78.6099 42.0963C78.9204 41.6186 79.4164 41.2637 80.0979 41.0314C80.8173 40.7863 81.4523 40.777 82.0028 41.0035C82.5608 41.2275 82.9534 41.6727 83.1805 42.339L84.481 46.1555L83.277 46.5658L83.0525 45.907C82.8091 46.5816 82.3012 47.0505 81.5288 47.3137C80.9533 47.5098 80.4169 47.5108 79.9198 47.3168C79.4276 47.1127 79.0874 46.7342 78.899 46.1814C78.7029 45.6059 78.7551 45.0895 79.0556 44.6321C79.3611 44.1645 79.8774 43.8069 80.6043 43.5592L82.0128 43.0792L81.9006 42.7498ZM81.4528 46.1606C81.8541 46.0238 82.1562 45.7941 82.3589 45.4715C82.5591 45.1412 82.5947 44.7868 82.4657 44.4082L82.3457 44.0561L81.0281 44.5051C80.6873 44.6212 80.4392 44.786 80.2838 44.9996C80.1334 45.203 80.102 45.4334 80.1897 45.6908C80.2775 45.9483 80.4367 46.118 80.6675 46.2C80.8957 46.2743 81.1574 46.2612 81.4528 46.1606ZM83.801 39.9217L85.4366 39.3643L88.7088 42.94L89.1168 38.1102L90.7297 37.5606L92.7037 43.3535L91.4543 43.7793L90.1035 39.8151L89.7087 44.3488L88.7546 44.6739L85.6775 41.336L87.0244 45.2888L85.775 45.7146L83.801 39.9217ZM97.216 35.3503L99.1901 41.1432L97.9179 41.5767L96.6058 37.7261L95.294 42.4708L94.0446 42.8966L92.0706 37.1037L93.3428 36.6702L94.6588 40.5321L95.9666 35.7761L97.216 35.3503ZM100.801 34.1288L105.844 32.4102L107.818 38.2031L106.523 38.6444L104.936 33.9873L102.483 34.8234L104.07 39.4804L102.775 39.9217L100.801 34.1288ZM107.879 32.5028C108.218 31.7618 108.812 31.2468 109.66 30.9578C110.508 30.6688 111.289 30.7154 112.002 31.0977C112.723 31.4775 113.237 32.1179 113.544 33.019C113.851 33.9201 113.835 34.7412 113.496 35.4822C113.165 36.2206 112.575 36.7343 111.727 37.0233C110.879 37.3123 110.094 37.2669 109.373 36.8872C108.66 36.5049 108.149 35.8632 107.842 34.9621C107.535 34.0609 107.547 33.2412 107.879 32.5028ZM110.033 35.7368C110.432 35.9896 110.866 36.0361 111.336 35.8761C111.805 35.7161 112.117 35.4155 112.271 34.9743C112.432 34.5304 112.418 34.0284 112.227 33.468C112.036 32.9076 111.741 32.501 111.342 32.2482C110.951 31.9927 110.52 31.945 110.051 32.105C109.581 32.265 109.266 32.5669 109.104 33.0107C108.95 33.4519 108.969 33.9527 109.16 34.5131C109.351 35.0734 109.642 35.4813 110.033 35.7368ZM46.1452 71.8966L44.1712 66.1037L46.7723 65.2173C47.3932 65.0058 47.9142 64.9846 48.3353 65.1538C48.7564 65.323 49.0418 65.6272 49.1915 66.0664C49.2998 66.3845 49.3106 66.6766 49.2239 66.9428C49.1421 67.1989 49.0031 67.411 48.8069 67.5793C49.1306 67.562 49.4322 67.6409 49.7116 67.8162C49.9987 67.9888 50.2054 68.2606 50.3318 68.6317C50.497 69.1163 50.4507 69.5758 50.193 70.0101C49.9404 70.4343 49.496 70.7548 48.8599 70.9715L46.1452 71.8966ZM47.8571 68.5495L46.5736 68.9869L47.0767 70.4635L48.3603 70.0262C48.648 69.9281 48.8457 69.7889 48.9533 69.6086C49.0658 69.4181 49.0821 69.2055 49.0021 68.9707C48.837 68.4861 48.4553 68.3457 47.8571 68.5495ZM46.9539 66.2711L45.7839 66.6698L46.2407 68.0101L47.4106 67.6114C47.6605 67.5263 47.833 67.3999 47.928 67.2323C48.0306 67.0621 48.0457 66.871 47.9735 66.6589C47.8238 66.2197 47.484 66.0905 46.9539 66.2711ZM51.2174 63.7026L51.8174 65.4632L52.9759 65.0684C53.6196 64.8491 54.199 64.8629 54.7142 65.1099C55.2269 65.3494 55.5825 65.7606 55.7812 66.3437C55.9825 66.9343 55.9521 67.4899 55.6899 68.0102C55.4327 68.5205 54.9861 68.8839 54.35 69.1007L51.9079 69.9329L49.9339 64.14L51.2174 63.7026ZM56.5219 61.895L58.4959 67.6879L57.2124 68.1253L55.2384 62.3324L56.5219 61.895ZM53.1885 66.213L52.1889 66.5536L52.8237 68.4164L53.8233 68.0758C54.1338 67.97 54.3451 67.7966 54.4573 67.5555C54.5771 67.3118 54.5906 67.0537 54.4977 66.7811C54.4048 66.5085 54.2391 66.3198 54.0006 66.2152C53.7697 66.1079 53.499 66.1072 53.1885 66.213ZM60.8573 60.2655C61.5767 60.0204 62.2741 60.0828 62.9495 60.4527C63.6325 60.82 64.1353 61.477 64.4578 62.4235C64.7804 63.3701 64.7796 64.1986 64.4554 64.9092C64.1388 65.6171 63.6171 66.0949 62.8901 66.3427C62.4888 66.4794 62.1122 66.5275 61.7602 66.4868C61.4133 66.436 61.1292 66.3215 60.9079 66.1434L61.8678 68.9603L60.5729 69.4016L57.8596 61.4392L59.1091 61.0134L59.3645 61.7631C59.5268 61.0486 60.0243 60.5494 60.8573 60.2655ZM62.2834 65.269C62.7377 65.1142 63.0432 64.8199 63.1996 64.3863C63.3611 63.9425 63.3451 63.4366 63.1516 62.8687C62.9606 62.3083 62.6657 61.9017 62.2668 61.6488C61.8755 61.3934 61.4527 61.3431 60.9983 61.4979C60.5364 61.6553 60.2234 61.9521 60.0594 62.3884C59.8927 62.817 59.9062 63.3153 60.0997 63.8833L60.1152 63.9287C60.3087 64.4966 60.6036 64.9032 60.9999 65.1485C61.3937 65.3862 61.8215 65.4264 62.2834 65.269ZM68.5385 59.9808C68.4275 59.6551 68.2363 59.4414 67.965 59.3395C67.6986 59.2274 67.395 59.2294 67.0542 59.3455C66.4409 59.5546 66.1346 59.9083 66.1354 60.4066L64.9087 60.8247C64.8292 60.2939 64.9423 59.7948 65.2478 59.3272C65.5583 58.8495 66.0543 58.4946 66.7358 58.2623C67.4552 58.0172 68.0902 58.0079 68.6406 58.2345C69.1987 58.4584 69.5913 58.9036 69.8184 59.57L71.1189 63.3865L69.9149 63.7967L69.6904 63.1379C69.447 63.8125 68.939 64.2814 68.1667 64.5446C67.5912 64.7407 67.0548 64.7418 66.5577 64.5478C66.0655 64.3436 65.7253 63.9651 65.5369 63.4123C65.3408 62.8368 65.393 62.3204 65.6935 61.863C65.999 61.3955 66.5153 61.0378 67.2422 60.7901L68.6507 60.3102L68.5385 59.9808ZM68.0907 63.3915C68.492 63.2547 68.7941 63.025 68.9968 62.7024C69.197 62.3722 69.2326 62.0177 69.1036 61.6391L68.9836 61.287L67.666 61.736C67.3252 61.8521 67.0771 62.0169 66.9217 62.2305C66.7713 62.4339 66.7399 62.6643 66.8276 62.9218C66.9154 63.1792 67.0746 63.3489 67.3054 63.4309C67.5336 63.5053 67.7953 63.4921 68.0907 63.3915ZM72.4129 62.9455L70.4389 57.1526L73.04 56.2662C73.6609 56.0547 74.1819 56.0335 74.603 56.2027C75.0241 56.3719 75.3095 56.6761 75.4592 57.1153C75.5675 57.4334 75.5783 57.7255 75.4916 57.9917C75.4098 58.2478 75.2708 58.4599 75.0746 58.6282C75.3983 58.6109 75.6999 58.6898 75.9793 58.8651C76.2664 59.0377 76.4731 59.3095 76.5996 59.6806C76.7647 60.1652 76.7184 60.6247 76.4608 61.059C76.2081 61.4832 75.7637 61.8037 75.1276 62.0204L72.4129 62.9455ZM74.1248 59.5984L72.8413 60.0358L73.3444 61.5124L74.628 61.0751C74.9157 60.977 75.1134 60.8378 75.221 60.6575C75.3335 60.467 75.3498 60.2544 75.2698 60.0196C75.1047 59.535 74.723 59.3946 74.1248 59.5984ZM73.2216 57.32L72.0517 57.7187L72.5084 59.059L73.6783 58.6603C73.9282 58.5752 74.1007 58.4488 74.1957 58.2812C74.2983 58.111 74.3134 57.9199 74.2412 57.7078C74.0915 57.2686 73.7517 57.1394 73.2216 57.32ZM79.4705 60.5405L78.1756 60.9818L76.2016 55.1889L77.4965 54.7476L78.2551 56.9739L80.7427 56.1263L79.984 53.9L81.2789 53.4587L83.2529 59.2516L81.958 59.6929L81.1336 57.2735L78.6461 58.1211L79.4705 60.5405ZM87.7642 51.2487L89.7382 57.0416L88.4661 57.4752L87.1539 53.6246L85.8422 58.3693L84.5928 58.795L82.6188 53.0021L83.8909 52.5686L85.207 56.4306L86.5148 51.6745L87.7642 51.2487ZM91.0765 56.5856L89.1025 50.7927L91.7036 49.9063C92.3246 49.6947 92.8456 49.6736 93.2667 49.8428C93.6878 50.012 93.9731 50.3162 94.1228 50.7554C94.2312 51.0735 94.242 51.3656 94.1552 51.6318C94.0734 51.8879 93.9344 52.1 93.7382 52.2683C94.0619 52.251 94.3635 52.3299 94.643 52.5051C94.93 52.6778 95.1367 52.9496 95.2632 53.3207C95.4283 53.8053 95.3821 54.2648 95.1244 54.6991C94.8717 55.1233 94.4273 55.4438 93.7912 55.6605L91.0765 56.5856ZM92.7884 53.2385L91.5049 53.6759L92.0081 55.1525L93.2916 54.7152C93.5794 54.6171 93.777 54.4779 93.8846 54.2976C93.9972 54.1071 94.0135 53.8945 93.9335 53.6597C93.7683 53.1751 93.3866 53.0347 92.7884 53.2385ZM91.8852 50.9601L90.7153 51.3588L91.172 52.6991L92.342 52.3004C92.5919 52.2153 92.7643 52.0889 92.8593 51.9213C92.9619 51.7511 92.9771 51.56 92.9048 51.3479C92.7552 50.9087 92.4153 50.7795 91.8852 50.9601ZM98.9272 49.6253C98.8163 49.2997 98.6251 49.086 98.3537 48.9841C98.0873 48.872 97.7838 48.874 97.443 48.9901C96.8296 49.1991 96.5233 49.5528 96.5241 50.0512L95.2974 50.4692C95.218 49.9385 95.331 49.4394 95.6365 48.9718C95.9471 48.4941 96.4431 48.1392 97.1246 47.9069C97.844 47.6618 98.4789 47.6525 99.0294 47.879C99.5875 48.103 99.98 48.5482 100.207 49.2146L101.508 53.0311L100.304 53.4413L100.079 52.7825C99.8357 53.4571 99.3278 53.926 98.5554 54.1892C97.9799 54.3853 97.4436 54.3864 96.9464 54.1923C96.4543 53.9882 96.114 53.6097 95.9256 53.0569C95.7295 52.4814 95.7817 51.965 96.0823 51.5076C96.3878 51.0401 96.904 50.6824 97.631 50.4347L99.0395 49.9547L98.9272 49.6253ZM98.4794 53.0361C98.8808 52.8993 99.1828 52.6696 99.3856 52.347C99.5858 52.0167 99.6213 51.6623 99.4923 51.2837L99.3723 50.9316L98.0547 51.3806C97.714 51.4967 97.4659 51.6615 97.3105 51.8751C97.16 52.0785 97.1287 52.3089 97.2164 52.5664C97.3041 52.8238 97.4634 52.9935 97.6942 53.0755C97.9223 53.1498 98.1841 53.1367 98.4794 53.0361ZM104.097 52.1489L102.802 52.5901L100.828 46.7972L102.123 46.356L102.881 48.5822L105.369 47.7346L104.61 45.5083L105.905 45.067L107.879 50.8599L106.584 51.3012L105.76 48.8818L103.272 49.7295L104.097 52.1489ZM112.39 42.8571L114.364 48.65L113.092 49.0835L111.78 45.2329L110.468 49.9776L109.219 50.4034L107.245 44.6105L108.517 44.177L109.833 48.0389L111.141 43.2828L112.39 42.8571ZM116.997 47.7527L115.703 48.1939L113.729 42.401L115.023 41.9598L115.782 44.1861L116.77 43.8493C116.656 43.0937 116.772 42.4161 117.117 41.8168C117.462 41.2174 117.995 40.7952 118.714 40.55C119.555 40.2636 120.329 40.3166 121.037 40.7091C121.743 41.094 122.249 41.7332 122.553 42.6268C122.86 43.5279 122.852 44.3463 122.528 45.0822C122.204 45.818 121.621 46.3291 120.781 46.6156C120.031 46.871 119.324 46.8542 118.659 46.5652C117.999 46.266 117.489 45.747 117.127 45.0082L116.173 45.3333L116.997 47.7527ZM119.114 45.3326C119.503 45.5805 119.928 45.6257 120.39 45.4683C120.852 45.3109 121.157 45.0167 121.306 44.5856C121.46 44.1444 121.44 43.6398 121.247 43.0719C121.053 42.5039 120.762 42.0961 120.373 41.8482C119.99 41.5902 119.567 41.5399 119.105 41.6973C118.643 41.8547 118.335 42.154 118.181 42.5952C118.032 43.0263 118.055 43.5258 118.248 44.0937C118.442 44.6617 118.73 45.0746 119.114 45.3326ZM47.9745 78.753L47.5874 77.6172L52.5852 75.9141L52.9723 77.05L51.1208 77.6809L52.7078 82.3379L51.4129 82.7792L49.826 78.1221L47.9745 78.753ZM59.4419 77.2287L55.3642 78.6183L55.3719 78.641C55.5242 79.0878 55.7945 79.4098 56.1829 79.6071C56.5713 79.8043 56.9964 79.8243 57.4583 79.6668C57.7764 79.5585 58.0157 79.4051 58.1763 79.2067C58.3419 78.9981 58.4253 78.8091 58.4267 78.6396L59.6989 78.2061C59.7577 78.6762 59.6344 79.1577 59.3291 79.6506C59.0313 80.1408 58.5227 80.5085 57.8033 80.7537C56.9401 81.0478 56.1556 81.0151 55.4499 80.6555C54.7416 80.2884 54.2288 79.6391 53.9114 78.7077C53.594 77.7763 53.5998 76.9502 53.929 76.2295C54.2555 75.5013 54.8315 74.9965 55.6569 74.7152C56.452 74.4443 57.1771 74.4888 57.8322 74.8487C58.4873 75.2087 58.9633 75.824 59.26 76.6949L59.4419 77.2287ZM56.0133 75.7982C55.6043 75.9375 55.3124 76.1722 55.1376 76.5023C54.9702 76.8297 54.9386 77.2082 55.0427 77.6376L57.8142 76.6931C57.6545 76.2742 57.4135 75.9887 57.0912 75.8365C56.7739 75.6742 56.4146 75.6614 56.0133 75.7982ZM62.6032 78.9659L61.3083 79.4072L59.3343 73.6143L60.6292 73.173L61.4497 75.581L62.8555 72.4144L64.3889 71.8918L62.8151 75.4581L66.397 77.6731L64.8295 78.2073L61.682 76.2625L62.6032 78.9659ZM68.9368 75.6793C69.3154 75.5503 69.5747 75.3563 69.7146 75.0973C69.8621 74.8358 69.9248 74.5609 69.9027 74.2726L71.1635 73.843C71.2966 74.4568 71.2019 75.0469 70.8793 75.6132C70.5567 76.1796 70.0357 76.5853 69.3164 76.8304C68.4758 77.1169 67.7026 77.0676 66.9967 76.6827C66.2883 76.2903 65.7818 75.6473 65.4773 74.7537C65.1754 73.8677 65.1814 73.0543 65.4952 72.3135C65.8166 71.5701 66.4013 71.0539 67.2494 70.7649C67.984 70.5146 68.6456 70.5216 69.2343 70.7858C69.8204 71.0425 70.2481 71.4419 70.5173 71.984L69.2565 72.4137C69.0855 72.1846 68.863 72.0153 68.589 71.9058C68.3201 71.7862 68.0039 71.7883 67.6404 71.9121C67.186 72.067 66.8819 72.365 66.728 72.8062C66.5817 73.2449 66.604 73.7444 66.7949 74.3047C66.9885 74.8727 67.2809 75.2843 67.6722 75.5398C68.0609 75.7876 68.4824 75.8342 68.9368 75.6793ZM70.6483 71.0266L70.2612 69.8908L75.259 68.1877L75.6461 69.3235L73.7946 69.9545L75.3816 74.6115L74.0867 75.0527L72.4997 70.3957L70.6483 71.0266ZM80.0966 68.7198C79.9856 68.3941 79.7944 68.1804 79.523 68.0785C79.2567 67.9664 78.9531 67.9684 78.6123 68.0845C77.999 68.2936 77.6927 68.6473 77.6935 69.1456L76.4667 69.5637C76.3873 69.0329 76.5004 68.5338 76.8059 68.0662C77.1164 67.5886 77.6124 67.2336 78.2939 67.0014C79.0133 66.7562 79.6482 66.7469 80.1987 66.9735C80.7568 67.1974 81.1494 67.6426 81.3765 68.309L82.677 72.1255L81.473 72.5358L81.2485 71.877C81.005 72.5515 80.4971 73.0204 79.7248 73.2836C79.1493 73.4797 78.6129 73.4808 78.1158 73.2868C77.6236 73.0826 77.2834 72.7041 77.095 72.1513C76.8989 71.5758 76.9511 71.0594 77.2516 70.602C77.5571 70.1345 78.0734 69.7768 78.8003 69.5291L80.2088 69.0492L80.0966 68.7198ZM79.6488 72.1305C80.0501 71.9937 80.3521 71.764 80.5549 71.4414C80.7551 71.1112 80.7907 70.7567 80.6617 70.3781L80.5417 70.026L79.2241 70.475C78.8833 70.5911 78.6352 70.7559 78.4798 70.9695C78.3294 71.1729 78.298 71.4033 78.3857 71.6608C78.4735 71.9182 78.6327 72.0879 78.8635 72.1699C79.0917 72.2443 79.3534 72.2311 79.6488 72.1305Z" fill="#0F1414"/>
</g>
<defs>
<linearGradient id="paint0_linear_201_853" x1="76.0926" y1="2.41201" x2="100.445" y2="73.8765" gradientUnits="userSpaceOnUse">
<stop stop-color="white"/>
<stop offset="1" stop-color="#F4F4F4"/>
</linearGradient>
<clipPath id="clip0_201_853">
<rect width="180" height="100" fill="white"/>
</clipPath>
</defs>
</svg>
