<svg width="190" height="120" viewBox="0 0 190 120" fill="none" xmlns="http://www.w3.org/2000/svg">
<path fill-rule="evenodd" clip-rule="evenodd" d="M158.905 44.5263C166.31 46.7516 170.509 54.5585 168.283 61.9633L159.217 92.1297C156.992 99.5345 149.185 103.733 141.78 101.508L87.7589 85.2728C86.4889 84.8911 85.1193 85.0296 83.9514 85.6577L77.9043 88.9101C75.4723 90.2181 72.4404 89.3069 71.1324 86.8749L67.88 80.8277C67.2519 79.6598 66.1856 78.7893 64.9156 78.4076L33.6479 69.0107C26.2431 66.7854 22.0444 58.9785 24.2697 51.5737L33.3357 21.4073C35.5611 14.0025 43.3679 9.80369 50.7727 12.0291L158.905 44.5263Z" fill="url(#paint0_linear_163_812)"/>
<path d="M50.9864 33.6568L50.1366 36.4337L48.8285 36.0334L49.299 34.4958L43.7453 32.7962L43.2747 34.3338L41.9666 33.9335L42.8164 31.1566L43.4475 31.3497C43.7814 31.2428 44.0778 30.9988 44.3366 30.6179C44.5977 30.2293 44.8768 29.6454 45.1738 28.8662L46.6879 24.862L52.0925 26.5159L49.9996 33.3548L50.9864 33.6568ZM46.482 29.2665C46.1873 30.038 45.9282 30.6113 45.7047 30.9863C45.4911 31.356 45.2398 31.6305 44.9507 31.8097L48.6341 32.9369L50.3512 27.3258L47.5399 26.4655L46.482 29.2665ZM53.5117 30.1628C54.2204 29.7606 55.0031 29.6906 55.8599 29.9528C56.7167 30.215 57.3224 30.7099 57.677 31.4375C58.0392 32.1675 58.0811 32.9876 57.8025 33.898C57.5239 34.8083 57.0303 35.4646 56.3215 35.8668C55.6205 36.2713 54.8415 36.3425 53.9848 36.0803C53.128 35.8181 52.5185 35.322 52.1562 34.5921C51.8016 33.8645 51.7636 33.0455 52.0422 32.1352C52.3208 31.2248 52.8106 30.5674 53.5117 30.1628ZM53.365 34.0459C53.5403 34.4844 53.8651 34.7762 54.3394 34.9214C54.8137 35.0665 55.2424 35.0053 55.6255 34.7377C56.0162 34.4724 56.2982 34.0567 56.4714 33.4906C56.6447 32.9245 56.6436 32.4222 56.4682 31.9837C56.3005 31.5476 55.9795 31.2569 55.5053 31.1118C55.031 30.9666 54.5985 31.0267 54.2077 31.292C53.8246 31.5596 53.5465 31.9764 53.3733 32.5425C53.2 33.1086 53.1972 33.6097 53.365 34.0459ZM65.1063 32.7824C65.833 33.0048 66.3619 33.4637 66.6929 34.159C67.0316 34.8566 67.0546 35.6836 66.762 36.6398C66.4694 37.596 65.9837 38.2673 65.3049 38.6536C64.6338 39.0422 63.9311 39.1241 63.1967 38.8994C62.7913 38.7753 62.4578 38.5938 62.1963 38.3548C61.9448 38.1105 61.7814 37.8514 61.7063 37.5774L60.8355 40.4231L59.5273 40.0228L61.9889 31.979L63.2512 32.3653L63.0194 33.1226C63.5692 32.6383 64.2648 32.5249 65.1063 32.7824ZM63.3334 37.6737C63.7923 37.8142 64.2122 37.7544 64.5929 37.4945C64.9837 37.2292 65.2668 36.8097 65.4424 36.236C65.6156 35.6699 65.6146 35.1676 65.4392 34.7291C65.2715 34.2929 64.9582 34.0046 64.4992 33.8641C64.0325 33.7213 63.605 33.7787 63.2166 34.0364C62.8306 34.2863 62.5498 34.6982 62.3742 35.2719L62.3602 35.3178C62.1846 35.8916 62.1856 36.3939 62.3633 36.8247C62.5434 37.2479 62.8667 37.5309 63.3334 37.6737ZM71.5004 37.0483C71.601 36.7193 71.5712 36.4341 71.4108 36.1926C71.2605 35.9458 71.0132 35.7697 70.6689 35.6644C70.0493 35.4748 69.5939 35.5822 69.3028 35.9867L68.0635 35.6075C68.3098 35.1307 68.6937 34.7922 69.2151 34.592C69.7465 34.3865 70.3564 34.3891 71.0449 34.5998C71.7716 34.8222 72.2918 35.1864 72.6055 35.6923C72.9269 36.2006 72.9845 36.7913 72.7785 37.4645L71.5986 41.32L70.3823 40.9478L70.586 40.2822C69.9937 40.6866 69.3074 40.7694 68.5272 40.5307C67.9458 40.3527 67.5103 40.0396 67.2209 39.5913C66.9414 39.1376 66.8871 38.6316 67.058 38.0732C67.2359 37.4918 67.5806 37.1036 68.092 36.9088C68.6134 36.7086 69.2413 36.7209 69.9757 36.9456L71.3985 37.381L71.5004 37.0483ZM69.1406 39.5513C69.546 39.6754 69.9254 39.666 70.2787 39.5231C70.6343 39.3726 70.8706 39.1061 70.9877 38.7236L71.0965 38.3679L69.7655 37.9605C69.4212 37.8552 69.1236 37.8436 68.8726 37.9257C68.6315 38.0025 68.4712 38.171 68.3916 38.4311C68.312 38.6912 68.3418 38.922 68.4809 39.1235C68.6224 39.3174 68.8423 39.46 69.1406 39.5513ZM77.6776 36.8304C78.4502 37.0668 78.9967 37.5227 79.3171 38.198C79.6452 38.8757 79.6711 39.6658 79.3949 40.5685C79.135 41.4177 78.656 42.0533 77.9579 42.4755C77.2698 42.8924 76.5012 42.9709 75.6521 42.7111C74.7035 42.4208 74.0586 41.8762 73.7174 41.0774C73.3786 40.271 73.3836 39.2978 73.7324 38.158C74.1608 36.7581 74.7069 35.7665 75.3706 35.1832C76.0367 34.5922 76.923 34.3615 78.0296 34.491L80.5383 34.7818L80.1731 35.9752L77.884 35.6637C77.2469 35.5859 76.7365 35.6681 76.3528 35.9104C75.9714 36.1451 75.6542 36.5667 75.401 37.1753C76.0313 36.6738 76.7902 36.5588 77.6776 36.8304ZM75.9308 41.554C76.4128 41.7015 76.8441 41.6452 77.2249 41.3853C77.6156 41.12 77.8952 40.712 78.0638 40.1612C78.2277 39.6257 78.2196 39.1463 78.0395 38.7231C77.8695 38.2946 77.5473 38.0078 77.073 37.8626C76.5988 37.7175 76.1621 37.7637 75.7631 38.0014C75.3664 38.2314 75.0838 38.6218 74.9153 39.1726C74.742 39.7386 74.7431 40.2409 74.9184 40.6794C75.1038 41.1126 75.4413 41.4042 75.9308 41.554ZM81.5664 38.7483C82.2752 38.3461 83.0579 38.2761 83.9147 38.5383C84.7715 38.8005 85.3772 39.2954 85.7318 40.023C86.094 40.753 86.1358 41.5731 85.8573 42.4834C85.5787 43.3938 85.085 44.05 84.3763 44.4522C83.6752 44.8568 82.8963 44.928 82.0395 44.6658C81.1827 44.4036 80.5732 43.9075 80.211 43.1776C79.8564 42.4499 79.8184 41.631 80.097 40.7206C80.3755 39.8103 80.8654 39.1529 81.5664 38.7483ZM81.4197 42.6314C81.5951 43.0699 81.9199 43.3617 82.3942 43.5068C82.8685 43.652 83.2972 43.5907 83.6802 43.3231C84.071 43.0579 84.353 42.6422 84.5262 42.0761C84.6994 41.51 84.6984 41.0077 84.523 40.5692C84.3553 40.133 84.0343 39.8424 83.56 39.6972C83.0857 39.5521 82.6532 39.6122 82.2625 39.8774C81.8794 40.145 81.6013 40.5619 81.428 41.128C81.2548 41.6941 81.252 42.1952 81.4197 42.6314ZM86.7401 40.8084L87.0912 39.661L92.1401 41.2061L91.7889 42.3535L89.9185 41.7811L88.4788 46.4858L87.1707 46.0855L88.6104 41.3808L86.7401 40.8084ZM94.3323 41.8769L93.788 43.6555L94.9584 44.0137C95.6087 44.2127 96.0703 44.5631 96.3434 45.065C96.6188 45.5592 96.6664 46.1009 96.4862 46.6899C96.3036 47.2866 95.9537 47.7191 95.4365 47.9875C94.9293 48.2506 94.3544 48.2839 93.7118 48.0872L91.2448 47.3322L93.0356 41.4801L94.3323 41.8769ZM99.691 43.5168L97.9001 49.3689L96.6034 48.9721L98.3943 43.12L99.691 43.5168ZM94.4607 45.0661L93.4509 44.7571L92.875 46.6389L93.8848 46.948C94.1984 47.0439 94.4713 47.027 94.7034 46.8973C94.9432 46.7699 95.1052 46.5685 95.1895 46.2931C95.2738 46.0177 95.2499 45.7678 95.1178 45.5433C94.9934 45.3211 94.7743 45.1621 94.4607 45.0661ZM101.521 50.477L103.312 44.6249L105.939 45.429C106.567 45.621 107.002 45.9088 107.244 46.2925C107.486 46.6762 107.54 47.0899 107.404 47.5336C107.305 47.8549 107.143 48.0981 106.917 48.2631C106.701 48.4228 106.464 48.5135 106.206 48.5351C106.479 48.7105 106.677 48.9511 106.801 49.2567C106.933 49.5647 106.941 49.9061 106.826 50.281C106.677 50.7706 106.37 51.116 105.907 51.3173C105.454 51.5132 104.906 51.5129 104.263 51.3162L101.521 50.477ZM104.868 48.7656L103.572 48.3688L103.115 49.8605L104.412 50.2573C104.702 50.3463 104.944 50.3491 105.137 50.2659C105.34 50.1774 105.477 50.0145 105.55 49.7774C105.7 49.2878 105.473 48.9505 104.868 48.7656ZM105.47 46.3896L104.288 46.028L103.874 47.382L105.055 47.7437C105.308 47.8209 105.522 47.8194 105.697 47.7392C105.88 47.6612 106.004 47.5152 106.069 47.301C106.205 46.8573 106.005 46.5535 105.47 46.3896ZM110.92 53.3534L109.612 52.953L111.403 47.1009L112.711 47.5013L111.966 49.9339L114.96 48.1895L116.509 48.6636L113.145 50.6335L114.753 54.5262L113.169 54.0416L111.756 50.6224L110.92 53.3534ZM120.342 49.6859C121.069 49.9083 121.597 50.3672 121.928 51.0625C122.267 51.7601 122.29 52.587 121.997 53.5433C121.705 54.4995 121.219 55.1707 120.54 55.557C119.869 55.9457 119.167 56.0276 118.432 55.8029C118.027 55.6788 117.693 55.4973 117.432 55.2583C117.18 55.014 117.017 54.7548 116.942 54.4809L116.071 57.3266L114.763 56.9263L117.224 48.8825L118.487 49.2688L118.255 50.0261C118.805 49.5418 119.5 49.4284 120.342 49.6859ZM118.569 54.5772C119.028 54.7177 119.448 54.6579 119.828 54.3979C120.219 54.1327 120.502 53.7132 120.678 53.1394C120.851 52.5734 120.85 52.0711 120.675 51.6325C120.507 51.1964 120.194 50.9081 119.735 50.7676C119.268 50.6248 118.841 50.6822 118.452 50.9398C118.066 51.1898 117.785 51.6017 117.61 52.1754L117.596 52.2213C117.42 52.795 117.421 53.2973 117.599 53.7282C117.779 54.1514 118.102 54.4344 118.569 54.5772ZM127.606 52.0597L129.018 52.4916L123.401 59.5697L122.001 59.1413L123.61 57.1237L123.12 50.6866L124.531 51.1186L124.787 55.7774L127.606 52.0597ZM129.697 52.6994L134.792 54.2585L133.001 60.1106L131.693 59.7103L133.132 55.0057L130.654 54.2472L129.214 58.9518L127.906 58.5515L129.697 52.6994ZM135.663 60.9254L134.355 60.5251L136.146 54.673L137.454 55.0733L136.766 57.3224L139.279 58.0914L139.967 55.8424L141.275 56.2427L139.484 62.0948L138.176 61.6945L138.924 59.2503L136.411 58.4813L135.663 60.9254ZM142.87 57.5088C143.579 57.1066 144.362 57.0366 145.218 57.2988C146.075 57.561 146.681 58.0559 147.035 58.7835C147.398 59.5134 147.439 60.3336 147.161 61.2439C146.882 62.1542 146.389 62.8105 145.68 63.2127C144.979 63.6173 144.2 63.6885 143.343 63.4263C142.486 63.1641 141.877 62.668 141.515 61.938C141.16 61.2104 141.122 60.3914 141.401 59.4811C141.679 58.5708 142.169 57.9133 142.87 57.5088ZM142.723 61.3918C142.899 61.8303 143.224 62.1222 143.698 62.2673C144.172 62.4125 144.601 62.3512 144.984 62.0836C145.375 61.8183 145.657 61.4027 145.83 60.8366C146.003 60.2705 146.002 59.7682 145.827 59.3297C145.659 58.8935 145.338 58.6029 144.864 58.4577C144.389 58.3126 143.957 58.3726 143.566 58.6379C143.183 58.9055 142.905 59.3224 142.732 59.8885C142.558 60.4545 142.556 60.9557 142.723 61.3918ZM154.276 60.2212L152.485 66.0733L151.2 65.68L152.39 61.7901L148.549 64.8689L147.287 64.4826L149.078 58.6305L150.363 59.0238L149.169 62.9252L153.014 59.835L154.276 60.2212ZM151.61 56.5066C151.526 56.782 151.532 57.0349 151.629 57.2653C151.726 57.4957 151.916 57.6542 152.199 57.7408C152.482 57.8275 152.728 57.8024 152.937 57.6656C153.146 57.5288 153.293 57.3227 153.377 57.0474L154.433 57.3704C154.242 57.9395 153.918 58.3423 153.461 58.5788C153.011 58.8177 152.496 58.8482 151.914 58.6703C151.333 58.4924 150.919 58.1774 150.673 57.7255C150.434 57.2759 150.394 56.7619 150.555 56.1835L151.61 56.5066ZM45.9895 44.7774L45.1888 47.3936L43.9266 47.0073L44.3761 45.5386L40.2452 44.2744L39.7957 45.7432L38.5335 45.3569L39.3341 42.7407L39.8046 42.8846C40.2074 42.7987 40.6115 42.2573 41.017 41.2603L42.1164 38.4469L46.5801 39.8129L45.1403 44.5175L45.9895 44.7774ZM42.2422 41.6855C41.8971 42.5671 41.5512 43.1096 41.2045 43.313L43.8322 44.1172L44.9208 40.56L42.9242 39.949L42.2422 41.6855ZM53.5113 41.934L51.7205 47.7861L50.4353 47.3928L51.6257 43.5029L47.7846 46.5817L46.5224 46.1954L48.3133 40.3433L49.5985 40.7366L48.4045 44.638L52.2491 41.5477L53.5113 41.934ZM54.0858 43.9044C54.3178 43.3646 54.7076 43.007 55.2549 42.8315C55.8098 42.6583 56.4086 42.6701 57.0512 42.8667C57.6785 43.0587 58.148 43.3697 58.4598 43.7998C58.7716 44.2298 58.8503 44.6973 58.6958 45.2022C58.5085 45.8142 58.0955 46.1521 57.4569 46.216C57.7212 46.3638 57.9253 46.5853 58.0693 46.8803C58.2232 47.1701 58.2405 47.51 58.1211 47.9001C57.9549 48.4433 57.5946 48.8141 57.0403 49.0125C56.4936 49.2134 55.8645 49.2049 55.1531 48.9872C54.4646 48.7765 53.945 48.4376 53.5944 47.9705C53.2437 47.5035 53.1191 46.9676 53.2205 46.3628L54.4942 46.7525C54.4781 47.0237 54.5561 47.2609 54.7282 47.4642C54.9102 47.6621 55.1619 47.8102 55.4832 47.9086C55.8198 48.0116 56.1086 48.0247 56.3496 47.9478C56.593 47.8633 56.7533 47.6949 56.8306 47.4424C56.9757 46.9682 56.6849 46.6198 55.9582 46.3974L55.0976 46.134L55.4136 45.1013L56.2054 45.3436C56.5114 45.4373 56.7634 45.4475 56.9615 45.3742C57.1696 45.2957 57.3088 45.1417 57.379 44.9122C57.4469 44.6903 57.4116 44.4913 57.2731 44.315C57.1423 44.1411 56.9353 44.0109 56.6523 43.9243C56.3539 43.833 56.0892 43.8231 55.8582 43.8946C55.6272 43.9661 55.4533 44.097 55.3365 44.2871L54.0858 43.9044ZM63.2541 47.074C63.3548 46.7451 63.325 46.4599 63.1646 46.2184C63.0142 45.9716 62.7669 45.7955 62.4227 45.6902C61.8031 45.5005 61.3477 45.608 61.0566 46.0125L59.8173 45.6333C60.0636 45.1565 60.4475 44.818 60.9689 44.6178C61.5003 44.4123 62.1102 44.4149 62.7987 44.6256C63.5254 44.848 64.0456 45.2122 64.3593 45.7181C64.6806 46.2264 64.7383 46.8171 64.5323 47.4903L63.3524 51.3458L62.1361 50.9736L62.3398 50.308C61.7475 50.7124 61.0612 50.7952 60.2809 50.5564C59.6996 50.3785 59.2641 50.0654 58.9746 49.6171C58.6952 49.1634 58.6409 48.6574 58.8118 48.0989C58.9897 47.5176 59.3343 47.1294 59.8458 46.9345C60.3672 46.7344 60.9951 46.7466 61.7294 46.9714L63.1523 47.4068L63.2541 47.074ZM60.8944 49.5771C61.2998 49.7012 61.6792 49.6918 62.0325 49.5489C62.3881 49.3984 62.6244 49.1318 62.7415 48.7494L62.8503 48.3936L61.5192 47.9863C61.175 47.8809 60.8774 47.8693 60.6263 47.9515C60.3853 48.0283 60.225 48.1968 60.1454 48.4569C60.0658 48.717 60.0956 48.9478 60.2347 49.1493C60.3761 49.3432 60.596 49.4858 60.8944 49.5771ZM71.6486 47.4845L69.8577 53.3366L68.5725 52.9433L69.7629 49.0533L65.9218 52.1321L64.6596 51.7458L66.4505 45.8937L67.7357 46.287L66.5418 50.1884L70.3863 47.0982L71.6486 47.4845ZM68.9829 43.7698C68.8986 44.0452 68.9049 44.2981 69.0017 44.5285C69.0985 44.7589 69.2884 44.9175 69.5715 45.0041C69.8545 45.0907 70.1006 45.0656 70.3098 44.9288C70.519 44.7921 70.6657 44.586 70.75 44.3106L71.8057 44.6336C71.6148 45.2027 71.2907 45.6055 70.8335 45.8421C70.3839 46.081 69.8684 46.1114 69.287 45.9335C68.7057 45.7556 68.2917 45.4407 68.0451 44.9888C67.8062 44.5392 67.7669 44.0252 67.9272 43.4467L68.9829 43.7698ZM72.5177 54.1506L71.2096 53.7503L73.0005 47.8982L74.3086 48.2985L73.6204 50.5476L76.1333 51.3166L76.8216 49.0675L78.1297 49.4679L76.3388 55.32L75.0307 54.9196L75.7787 52.4755L73.2657 51.7065L72.5177 54.1506ZM78.3237 53.1791L78.6924 51.9742L82.3414 53.0909L81.9727 54.2958L78.3237 53.1791ZM85.3422 56.9583C85.7247 57.0754 86.0485 57.0699 86.3135 56.9419C86.5862 56.8162 86.798 56.63 86.9488 56.3833L88.2225 56.7731C87.971 57.3487 87.5488 57.7716 86.9557 58.0419C86.3627 58.3122 85.7028 58.3362 84.976 58.1138C84.1269 57.8539 83.5289 57.3613 83.1819 56.6361C82.8373 55.9031 82.8031 55.0853 83.0794 54.1827C83.3533 53.2876 83.8343 52.6317 84.5224 52.2148C85.2182 51.8002 85.9944 51.7241 86.8512 51.9863C87.5932 52.2134 88.1255 52.6063 88.4481 53.1652C88.7731 53.7164 88.886 54.2906 88.7869 54.8877L87.5132 54.4979C87.5086 54.2121 87.4274 53.9446 87.2694 53.6955C87.1213 53.441 86.8637 53.2576 86.4965 53.1452C86.0376 53.0048 85.6165 53.0683 85.2334 53.3359C84.858 53.6059 84.5837 54.0239 84.4104 54.59C84.2349 55.1637 84.2309 55.6687 84.3986 56.1049C84.5687 56.5334 84.8832 56.8179 85.3422 56.9583ZM89.4535 54.1882L89.8047 53.0407L94.8536 54.5858L94.5024 55.7333L92.632 55.1609L91.1923 59.8655L89.8842 59.4652L91.3239 54.7606L89.4535 54.1882ZM99.5587 56.0257L100.97 56.4576L95.353 63.5357L93.9531 63.1073L95.5619 61.0898L95.0721 54.6527L96.4835 55.0846L96.7394 59.7434L99.5587 56.0257ZM106.077 63.1657L105.276 65.7819L104.014 65.3957L104.464 63.9269L100.333 62.6627L99.8833 64.1315L98.6211 63.7452L99.4217 61.129L99.8922 61.273C100.295 61.1871 100.699 60.6456 101.105 59.6486L102.204 56.8352L106.668 58.2012L105.228 62.9058L106.077 63.1657ZM102.33 60.0738C101.985 60.9554 101.639 61.4979 101.292 61.7014L103.92 62.5055L105.008 58.9484L103.012 58.3373L102.33 60.0738ZM113.599 60.3223L111.808 66.1745L110.523 65.7812L111.713 61.8912L107.872 64.97L106.61 64.5837L108.401 58.7316L109.686 59.1249L108.492 63.0263L112.337 59.9361L113.599 60.3223ZM120.149 62.3268L118.358 68.1789L117.073 67.7856L118.263 63.8957L114.422 66.9745L113.16 66.5882L114.951 60.7361L116.236 61.1294L115.042 65.0308L118.887 61.9405L120.149 62.3268ZM37.882 49.7004L39.5343 50.206L40.0939 55.0205L43.2521 51.3438L44.8815 51.8424L43.0906 57.6945L41.8284 57.3082L43.054 53.3036L40.0798 56.748L39.1159 56.4531L38.5753 51.9455L37.3533 55.9387L36.0911 55.5525L37.882 49.7004ZM50.354 57.1313L46.2345 55.8707L46.2275 55.8936C46.0894 56.345 46.12 56.7643 46.3194 57.1516C46.5188 57.5389 46.8518 57.8039 47.3185 57.9467C47.6398 58.0451 47.9236 58.0608 48.1699 57.994C48.4262 57.9218 48.6046 57.8174 48.705 57.6808L49.9901 58.0741C49.7626 58.4897 49.3807 58.8079 48.8447 59.0287C48.3162 59.2518 47.6886 59.2522 46.9619 59.0298C46.0898 58.7629 45.473 58.2772 45.1114 57.5725C44.7521 56.8602 44.7164 56.0336 45.0044 55.0926C45.2923 54.1517 45.7807 53.4854 46.4694 53.0938C47.1605 52.6946 47.9229 52.6226 48.7568 52.8777C49.56 53.1235 50.1218 53.5841 50.4422 54.2594C50.7626 54.9348 50.7882 55.7123 50.519 56.592L50.354 57.1313ZM48.4117 53.9643C47.9986 53.8379 47.6245 53.8573 47.2895 54.0225C46.9622 54.19 46.715 54.4783 46.548 54.8874L49.3478 55.7442C49.4636 55.3111 49.4354 54.9385 49.2632 54.6265C49.101 54.3091 48.8171 54.0884 48.4117 53.9643ZM55.7232 55.1602L57.0313 55.5605L55.2404 61.4126L53.9323 61.0123L54.6381 58.7059C54.233 58.7995 53.7665 58.7655 53.2387 58.6039C52.5578 58.3956 52.0679 58.0281 51.7689 57.5016C51.4699 56.975 51.4386 56.3254 51.6751 55.5528L52.1316 54.0611L53.4397 54.4614L53.0113 55.8613C52.7467 56.7258 53.039 57.2879 53.8882 57.5478C54.2707 57.6648 54.6307 57.6913 54.9682 57.6273L55.7232 55.1602ZM57.5734 56.9814L57.9246 55.8339L62.9735 57.379L62.6223 58.5265L60.7519 57.9541L59.3122 62.6587L58.0041 62.2584L59.4438 57.5538L57.5734 56.9814ZM65.1657 58.0499L64.6214 59.8285L65.7918 60.1866C66.442 60.3856 66.9037 60.7361 67.1768 61.2379C67.4522 61.7322 67.4998 62.2738 67.3195 62.8628C67.1369 63.4595 66.7871 63.8921 66.2699 64.1605C65.7627 64.4236 65.1878 64.4568 64.5452 64.2602L62.0781 63.5052L63.869 57.6531L65.1657 58.0499ZM70.5244 59.6898L68.7335 65.5419L67.4368 65.1451L69.2277 59.293L70.5244 59.6898ZM65.2941 61.239L64.2843 60.93L63.7084 62.8119L64.7182 63.1209C65.0318 63.2169 65.3047 63.2 65.5368 63.0702C65.7766 62.9428 65.9386 62.7414 66.0229 62.466C66.1072 62.1906 66.0833 61.9407 65.9512 61.7162C65.8267 61.4941 65.6077 61.335 65.2941 61.239Z" fill="white"/>
<defs>
<linearGradient id="paint0_linear_163_812" x1="110.866" y1="20.7935" x2="80.0693" y2="123.268" gradientUnits="userSpaceOnUse">
<stop stop-color="#66BEBE"/>
<stop offset="1" stop-color="#65DEA3"/>
</linearGradient>
</defs>
</svg>
