<svg width="190" height="120" viewBox="0 0 190 120" fill="none" xmlns="http://www.w3.org/2000/svg">
<path fill-rule="evenodd" clip-rule="evenodd" d="M158.786 44.5263C166.191 46.7516 170.39 54.5585 168.164 61.9633L159.098 92.1297C156.873 99.5345 149.066 103.733 141.661 101.508L88.0364 85.392C86.5124 84.934 84.8689 85.1001 83.4675 85.8539L78.6658 88.4364C75.7474 90.006 72.1092 88.9126 70.5396 85.9942L67.9571 81.1925C67.2033 79.7911 65.9237 78.7464 64.3998 78.2884L33.5288 69.0107C26.124 66.7854 21.9252 58.9785 24.1506 51.5737L33.2166 21.4073C35.4419 14.0025 43.2488 9.80369 50.6536 12.0291L158.786 44.5263Z" fill="url(#paint0_linear_163_809)"/>
<path d="M50.8674 33.6568L50.0176 36.4337L48.7095 36.0334L49.18 34.4958L43.6263 32.7962L43.1557 34.3338L41.8476 33.9335L42.6974 31.1566L43.3285 31.3497C43.6624 31.2428 43.9588 30.9988 44.2176 30.6179C44.4787 30.2293 44.7578 29.6454 45.0548 28.8662L46.5689 24.862L51.9734 26.5159L49.8806 33.3548L50.8674 33.6568ZM46.3629 29.2665C46.0683 30.038 45.8092 30.6113 45.5856 30.9863C45.3721 31.356 45.1208 31.6305 44.8317 31.8097L48.5151 32.9369L50.2322 27.3258L47.4209 26.4655L46.3629 29.2665ZM53.3927 30.1628C54.1014 29.7606 54.8841 29.6906 55.7409 29.9528C56.5977 30.215 57.2034 30.7099 57.558 31.4375C57.9202 32.1675 57.9621 32.9876 57.6835 33.898C57.4049 34.8083 56.9112 35.4646 56.2025 35.8668C55.5014 36.2713 54.7225 36.3425 53.8657 36.0803C53.009 35.8181 52.3994 35.322 52.0372 34.5921C51.6826 33.8645 51.6446 33.0455 51.9232 32.1352C52.2017 31.2248 52.6916 30.5674 53.3927 30.1628ZM53.2459 34.0459C53.4213 34.4844 53.7461 34.7762 54.2204 34.9214C54.6947 35.0665 55.1234 35.0053 55.5065 34.7377C55.8972 34.4724 56.1792 34.0567 56.3524 33.4906C56.5256 32.9245 56.5246 32.4222 56.3492 31.9837C56.1815 31.5476 55.8605 31.2569 55.3862 31.1118C54.9119 30.9666 54.4794 31.0267 54.0887 31.292C53.7056 31.5596 53.4275 31.9764 53.2542 32.5425C53.081 33.1086 53.0782 33.6097 53.2459 34.0459ZM57.8096 37.1366L59.6005 31.2845L62.2282 32.0887C62.8555 32.2807 63.2903 32.5685 63.5326 32.9522C63.775 33.3359 63.8282 33.7496 63.6925 34.1933C63.5941 34.5146 63.4319 34.7578 63.2057 34.9228C62.9895 35.0825 62.7526 35.1732 62.495 35.1947C62.7676 35.3702 62.9659 35.6107 63.0899 35.9164C63.2215 36.2244 63.2299 36.5658 63.1152 36.9406C62.9654 37.4302 62.6589 37.7757 62.1957 37.9769C61.7426 38.1729 61.1947 38.1726 60.5521 37.9759L57.8096 37.1366ZM61.157 35.4253L59.8603 35.0285L59.4038 36.5202L60.7005 36.917C60.9912 37.0059 61.2329 37.0088 61.4257 36.9256C61.6285 36.837 61.7662 36.6742 61.8387 36.4371C61.9885 35.9475 61.7613 35.6102 61.157 35.4253ZM61.7586 33.0493L60.5767 32.6876L60.1623 34.0416L61.3442 34.4033C61.5967 34.4806 61.8104 34.4791 61.9856 34.3988C62.1684 34.3209 62.2926 34.1748 62.3581 33.9606C62.4939 33.517 62.2941 33.2132 61.7586 33.0493ZM69.54 37.9405L65.4206 36.6798L65.4136 36.7028C65.2755 37.1541 65.3061 37.5735 65.5055 37.9608C65.7049 38.3481 66.0379 38.6131 66.5045 38.7559C66.8258 38.8542 67.1096 38.87 67.356 38.8031C67.6123 38.731 67.7907 38.6266 67.891 38.49L69.1762 38.8833C68.9486 39.2989 68.5668 39.6171 68.0307 39.8379C67.5023 40.061 66.8747 40.0614 66.148 39.839C65.2759 39.5721 64.659 39.0863 64.2974 38.3817C63.9381 37.6694 63.9025 36.8427 64.1904 35.9018C64.4784 34.9609 64.9667 34.2946 65.6555 33.903C66.3465 33.5038 67.109 33.4317 67.9428 33.6869C68.7461 33.9327 69.3079 34.3933 69.6283 35.0686C69.9487 35.7439 69.9743 36.5215 69.7051 37.4012L69.54 37.9405ZM67.5978 34.7735C67.1847 34.6471 66.8106 34.6665 66.4756 34.8317C66.1483 34.9992 65.9011 35.2875 65.7341 35.6965L68.5339 36.5534C68.6497 36.1203 68.6215 35.7477 68.4493 35.4357C68.287 35.1183 68.0032 34.8976 67.5978 34.7735ZM76.1311 41.4885L75.3304 44.1048L74.0682 43.7185L74.5177 42.2497L70.3868 40.9856L69.9373 42.4544L68.6751 42.0681L69.4757 39.4518L69.9462 39.5958C70.349 39.5099 70.7531 38.9685 71.1586 37.9715L72.258 35.1581L76.7217 36.5241L75.282 41.2287L76.1311 41.4885ZM72.3838 38.3966C72.0387 39.2783 71.6928 39.8208 71.3461 40.0242L73.9738 40.8284L75.0624 37.2712L73.0658 36.6602L72.3838 38.3966ZM82.5616 41.9254L78.4421 40.6648L78.4351 40.6877C78.297 41.1391 78.3276 41.5584 78.527 41.9457C78.7264 42.333 79.0594 42.598 79.5261 42.7408C79.8474 42.8392 80.1312 42.8549 80.3775 42.7881C80.6339 42.7159 80.8122 42.6115 80.9126 42.4749L82.1978 42.8682C81.9702 43.2838 81.5883 43.602 81.0523 43.8228C80.5238 44.0459 79.8963 44.0463 79.1695 43.8239C78.2975 43.557 77.6806 43.0713 77.319 42.3666C76.9597 41.6543 76.924 40.8277 77.212 39.8867C77.4999 38.9458 77.9883 38.2795 78.677 37.8879C79.3681 37.4887 80.1305 37.4167 80.9644 37.6718C81.7676 37.9176 82.3294 38.3782 82.6498 39.0535C82.9702 39.7289 82.9958 40.5064 82.7266 41.3861L82.5616 41.9254ZM80.6193 38.7584C80.2062 38.632 79.8322 38.6514 79.4972 38.8166C79.1698 38.9841 78.9226 39.2724 78.7556 39.6815L81.5554 40.5383C81.6712 40.1052 81.643 39.7326 81.4708 39.4206C81.3086 39.1032 81.0247 38.8825 80.6193 38.7584ZM84.5903 38.9321L86.2427 39.4377L86.8023 44.2522L89.9605 40.5755L91.5899 41.0741L89.799 46.9262L88.5368 46.5399L89.7623 42.5353L86.7881 45.9797L85.8243 45.6847L85.2836 41.1772L84.0616 45.1704L82.7994 44.7842L84.5903 38.9321ZM99.8098 48.7348L99.0091 51.3511L97.7469 50.9648L98.1964 49.496L94.0655 48.2319L93.616 49.7006L92.3538 49.3144L93.1544 46.6981L93.6249 46.8421C94.0277 46.7562 94.4318 46.2148 94.8373 45.2178L95.9367 42.4043L100.4 43.7703L98.9606 48.475L99.8098 48.7348ZM96.0625 45.6429C95.7174 46.5245 95.3715 47.0671 95.0248 47.2705L97.6525 48.0747L98.7411 44.5175L96.7445 43.9065L96.0625 45.6429ZM102.364 45.1492C103.072 44.747 103.855 44.677 104.712 44.9392C105.569 45.2014 106.174 45.6963 106.529 46.4239C106.891 47.1539 106.933 47.974 106.654 48.8843C106.376 49.7947 105.882 50.4509 105.174 50.8531C104.472 51.2577 103.694 51.3289 102.837 51.0667C101.98 50.8045 101.37 50.3084 101.008 49.5785C100.654 48.8508 100.616 48.0319 100.894 47.1215C101.173 46.2112 101.663 45.5538 102.364 45.1492ZM102.217 49.0323C102.392 49.4708 102.717 49.7626 103.191 49.9077C103.666 50.0529 104.094 49.9917 104.477 49.724C104.868 49.4588 105.15 49.0431 105.323 48.477C105.497 47.9109 105.496 47.4086 105.32 46.9701C105.153 46.5339 104.832 46.2433 104.357 46.0981C103.883 45.953 103.45 46.0131 103.06 46.2783C102.677 46.5459 102.398 46.9628 102.225 47.5289C102.052 48.095 102.049 48.5961 102.217 49.0323ZM110.358 53.2178L109.05 52.8175L110.841 46.9654L112.149 47.3657L111.405 49.7984L114.398 48.054L115.947 48.5281L112.583 50.498L114.191 54.3907L112.607 53.9061L111.194 50.4869L110.358 53.2178ZM119.78 49.5504C120.507 49.7728 121.036 50.2316 121.367 50.9269C121.705 51.6246 121.728 52.4515 121.436 53.4077C121.143 54.364 120.657 55.0352 119.979 55.4215C119.307 55.8101 118.605 55.8921 117.87 55.6673C117.465 55.5433 117.131 55.3617 116.87 55.1228C116.618 54.8785 116.455 54.6193 116.38 54.3453L115.509 57.1911L114.201 56.7908L116.663 48.747L117.925 49.1333L117.693 49.8906C118.243 49.4063 118.938 49.2929 119.78 49.5504ZM118.007 54.4417C118.466 54.5821 118.886 54.5224 119.267 54.2624C119.657 53.9972 119.94 53.5776 120.116 53.0039C120.289 52.4378 120.288 51.9355 120.113 51.497C119.945 51.0609 119.632 50.7725 119.173 50.6321C118.706 50.4893 118.279 50.5467 117.89 50.8043C117.504 51.0543 117.223 51.4661 117.048 52.0399L117.034 52.0858C116.858 52.6595 116.859 53.1618 117.037 53.5927C117.217 54.0159 117.54 54.2989 118.007 54.4417ZM127.045 51.9241L128.456 52.3561L122.839 59.4342L121.439 59.0057L123.048 56.9882L122.558 50.5511L123.969 50.983L124.225 55.6419L127.045 51.9241ZM128.325 53.5709L128.676 52.4234L133.725 53.9685L133.374 55.116L131.503 54.5436L130.064 59.2482L128.756 58.8479L130.195 54.1433L128.325 53.5709ZM134.638 55.0259C135.346 54.6237 136.129 54.5537 136.986 54.8158C137.843 55.078 138.448 55.573 138.803 56.3006C139.165 57.0305 139.207 57.8507 138.928 58.761C138.65 59.6713 138.156 60.3276 137.447 60.7298C136.746 61.1344 135.967 61.2055 135.111 60.9433C134.254 60.6811 133.644 60.1851 133.282 59.4551C132.928 58.7275 132.89 57.9085 133.168 56.9982C133.447 56.0879 133.937 55.4304 134.638 55.0259ZM134.491 58.9089C134.666 59.3474 134.991 59.6393 135.465 59.7844C135.94 59.9295 136.368 59.8683 136.751 59.6007C137.142 59.3354 137.424 58.9197 137.597 58.3537C137.771 57.7876 137.77 57.2853 137.594 56.8468C137.427 56.4106 137.106 56.1199 136.631 55.9748C136.157 55.8296 135.724 55.8897 135.334 56.155C134.951 56.4226 134.672 56.8395 134.499 57.4055C134.326 57.9716 134.323 58.4727 134.491 58.9089ZM144.511 58.5241L141.802 57.6954L140.363 62.4L139.055 61.9997L140.846 56.1476L144.862 57.3766L144.511 58.5241ZM145.81 58.445C146.519 58.0428 147.302 57.9728 148.158 58.2349C149.015 58.4971 149.621 58.9921 149.976 59.7197C150.338 60.4496 150.38 61.2698 150.101 62.1801C149.822 63.0904 149.329 63.7467 148.62 64.1489C147.919 64.5535 147.14 64.6246 146.283 64.3624C145.427 64.1002 144.817 63.6042 144.455 62.8742C144.1 62.1466 144.062 61.3276 144.341 60.4173C144.619 59.507 145.109 58.8495 145.81 58.445ZM145.664 62.328C145.839 62.7665 146.164 63.0584 146.638 63.2035C147.112 63.3486 147.541 63.2874 147.924 63.0198C148.315 62.7545 148.597 62.3388 148.77 61.7728C148.943 61.2067 148.942 60.7044 148.767 60.2659C148.599 59.8297 148.278 59.539 147.804 59.3939C147.33 59.2487 146.897 59.3088 146.506 59.5741C146.123 59.8417 145.845 60.2586 145.672 60.8246C145.499 61.3907 145.496 61.8918 145.664 62.328ZM44.3919 39.029C45.1186 39.2514 45.6475 39.7103 45.9785 40.4056C46.3172 41.1032 46.3402 41.9302 46.0476 42.8864C45.7549 43.8426 45.2692 44.5139 44.5905 44.9002C43.9194 45.2888 43.2166 45.3707 42.4823 45.146C42.0768 45.0219 41.7433 44.8404 41.4818 44.6014C41.2303 44.3571 41.067 44.098 40.9919 43.824L40.121 46.6697L38.8129 46.2694L41.2745 38.2256L42.5367 38.6119L42.3049 39.3693C42.8547 38.8849 43.5504 38.7715 44.3919 39.029ZM42.6189 43.9203C43.0779 44.0608 43.4978 44.0011 43.8785 43.7411C44.2692 43.4758 44.5524 43.0563 44.728 42.4826C44.9012 41.9165 44.9001 41.4142 44.7248 40.9757C44.5571 40.5395 44.2437 40.2512 43.7847 40.1107C43.3181 39.9679 42.8906 40.0253 42.5022 40.283C42.1162 40.5329 41.8353 40.9448 41.6598 41.5185L41.6457 41.5644C41.4701 42.1382 41.4712 42.6405 41.6489 43.0713C41.8289 43.4945 42.1523 43.7775 42.6189 43.9203ZM52.0768 45.1456L47.9574 43.885L47.9504 43.9079C47.8123 44.3593 47.8429 44.7786 48.0423 45.1659C48.2417 45.5532 48.5747 45.8183 49.0413 45.9611C49.3626 46.0594 49.6464 46.0751 49.8928 46.0083C50.1491 45.9361 50.3275 45.8318 50.4278 45.6952L51.713 46.0885C51.4854 46.5041 51.1036 46.8222 50.5675 47.043C50.0391 47.2662 49.4115 47.2665 48.6848 47.0441C47.8127 46.7773 47.1959 46.2915 46.8342 45.5868C46.475 44.8745 46.4393 44.0479 46.7272 43.107C47.0152 42.166 47.5035 41.4998 48.1923 41.1082C48.8834 40.7089 49.6458 40.6369 50.4796 40.8921C51.2829 41.1379 51.8447 41.5984 52.1651 42.2738C52.4855 42.9491 52.5111 43.7266 52.2419 44.6063L52.0768 45.1456ZM50.1346 41.9787C49.7215 41.8522 49.3474 41.8716 49.0124 42.0368C48.6851 42.2044 48.4379 42.4927 48.2709 42.9017L51.0707 43.7585C51.1865 43.3254 51.1583 42.9529 50.9861 42.6408C50.8238 42.3234 50.54 42.1027 50.1346 41.9787ZM53.272 43.6917C53.5041 43.152 53.8938 42.7944 54.4411 42.6189C54.9961 42.4457 55.5948 42.4575 56.2374 42.6541C56.8647 42.8461 57.3343 43.1571 57.6461 43.5871C57.9579 44.0172 58.0365 44.4847 57.882 44.9896C57.6947 45.6016 57.2817 45.9395 56.6431 46.0034C56.9074 46.1512 57.1115 46.3727 57.2555 46.6677C57.4094 46.9574 57.4267 47.2974 57.3073 47.6875C57.1411 48.2307 56.7808 48.6015 56.2265 48.7999C55.6798 49.0007 55.0507 48.9923 54.3393 48.7746C53.6508 48.5639 53.1312 48.225 52.7806 47.7579C52.4299 47.2909 52.3053 46.7549 52.4067 46.1501L53.6804 46.5399C53.6643 46.8111 53.7423 47.0483 53.9144 47.2516C54.0964 47.4495 54.3481 47.5976 54.6694 47.6959C55.006 47.799 55.2948 47.812 55.5358 47.7352C55.7792 47.6507 55.9395 47.4823 56.0168 47.2298C56.1619 46.7555 55.8711 46.4072 55.1444 46.1848L54.2838 45.9214L54.5998 44.8887L55.3916 45.131C55.6976 45.2246 55.9496 45.2348 56.1477 45.1616C56.3558 45.0831 56.495 44.9291 56.5652 44.6996C56.6331 44.4777 56.5978 44.2787 56.4593 44.1024C56.3285 43.9285 56.1215 43.7983 55.8385 43.7117C55.5402 43.6204 55.2755 43.6105 55.0444 43.682C54.8134 43.7535 54.6395 43.8843 54.5227 44.0745L53.272 43.6917ZM63.3894 44.9934L64.8008 45.4253L59.1836 52.5034L57.7837 52.075L59.3925 50.0575L58.9028 43.6204L60.3142 44.0523L60.5701 48.7111L63.3894 44.9934ZM62.8158 51.2431L63.1669 50.0956L63.3505 50.1518C63.6718 50.2501 63.9244 50.2312 64.1083 50.0951C64.3022 49.9536 64.4873 49.6631 64.6637 49.2234L66.0251 45.8L70.3281 47.1168L68.5372 52.9689L67.2291 52.5686L68.6688 47.8639L66.8214 47.2986L65.8749 49.6945C65.5679 50.479 65.1987 51.0018 64.7674 51.2631C64.346 51.519 63.8141 51.5486 63.1715 51.352L62.8158 51.2431ZM72.9903 47.9315L72.446 49.7101L73.6165 50.0683C74.2667 50.2672 74.7283 50.6177 75.0014 51.1196C75.2769 51.6138 75.3244 52.1554 75.1442 52.7445C74.9616 53.3412 74.6117 53.7737 74.0945 54.0421C73.5873 54.3052 73.0124 54.3384 72.3698 54.1418L69.9028 53.3868L71.6937 47.5347L72.9903 47.9315ZM73.1187 51.1207L72.1089 50.8117L71.533 52.6935L72.5428 53.0025C72.8564 53.0985 73.1293 53.0816 73.3615 52.9519C73.6012 52.8245 73.7633 52.6231 73.8475 52.3477C73.9318 52.0723 73.9079 51.8223 73.7758 51.5979C73.6514 51.3757 73.4323 51.2167 73.1187 51.1207ZM75.9096 50.0798L76.2607 48.9323L81.3096 50.4774L80.9584 51.6249L79.088 51.0525L77.6483 55.7571L76.3402 55.3568L77.7799 50.6522L75.9096 50.0798ZM84.92 53.7408C85.0207 53.4118 84.9909 53.1266 84.8305 52.8851C84.6801 52.6383 84.4328 52.4623 84.0886 52.3569C83.469 52.1673 83.0136 52.2747 82.7225 52.6792L81.4832 52.3C81.7295 51.8232 82.1134 51.4847 82.6348 51.2845C83.1662 51.079 83.7761 51.0816 84.4646 51.2923C85.1913 51.5147 85.7115 51.8789 86.0252 52.3848C86.3465 52.8931 86.4042 53.4838 86.1982 54.157L85.0183 58.0125L83.802 57.6403L84.0056 56.9748C83.4134 57.3792 82.7271 57.462 81.9468 57.2232C81.3655 57.0453 80.93 56.7321 80.6405 56.2838C80.3611 55.8302 80.3068 55.3241 80.4777 54.7657C80.6556 54.1843 81.0002 53.7962 81.5117 53.6013C82.0331 53.4011 82.661 53.4134 83.3953 53.6381L84.8182 54.0736L84.92 53.7408ZM82.5603 56.2438C82.9657 56.3679 83.3451 56.3585 83.6983 56.2156C84.054 56.0651 84.2903 55.7986 84.4073 55.4161L84.5162 55.0604L83.1851 54.653C82.8409 54.5477 82.5433 54.5361 82.2922 54.6182C82.0512 54.6951 81.8909 54.8635 81.8113 55.1236C81.7317 55.3837 81.7615 55.6145 81.9006 55.816C82.042 56.0099 82.2619 56.1525 82.5603 56.2438ZM87.2054 53.5366L87.5566 52.3891L92.6054 53.9342L92.2543 55.0817L90.3839 54.5093L88.9442 59.2139L87.6361 58.8136L89.0758 54.109L87.2054 53.5366ZM96.2159 57.1976C96.3166 56.8687 96.2867 56.5834 96.1264 56.342C95.976 56.0951 95.7287 55.9191 95.3845 55.8137C94.7648 55.6241 94.3095 55.7316 94.0183 56.1361L92.7791 55.7568C93.0254 55.28 93.4092 54.9415 93.9306 54.7414C94.462 54.5359 95.072 54.5385 95.7605 54.7492C96.4872 54.9715 97.0074 55.3357 97.3211 55.8417C97.6424 56.3499 97.7001 56.9407 97.494 57.6139L96.3142 61.4694L95.0978 61.0971L95.3015 60.4316C94.7093 60.836 94.023 60.9188 93.2427 60.68C92.6613 60.5021 92.2259 60.189 91.9364 59.7406C91.6569 59.287 91.6026 58.7809 91.7735 58.2225C91.9514 57.6411 92.2961 57.253 92.8075 57.0581C93.3289 56.8579 93.9568 56.8702 94.6912 57.0949L96.1141 57.5304L96.2159 57.1976ZM93.8561 59.7006C94.2616 59.8247 94.6409 59.8153 94.9942 59.6724C95.3498 59.5219 95.5862 59.2554 95.7032 58.8729L95.8121 58.5172L94.481 58.1099C94.1368 58.0045 93.8391 57.9929 93.5881 58.075C93.3471 58.1519 93.1868 58.3203 93.1072 58.5804C93.0276 58.8405 93.0573 59.0713 93.1964 59.2729C93.3379 59.4667 93.5578 59.6093 93.8561 59.7006ZM102.716 62.3117C103.099 62.4287 103.423 62.4232 103.688 62.2952C103.96 62.1695 104.172 61.9833 104.323 61.7366L105.597 62.1264C105.345 62.702 104.923 63.125 104.33 63.3953C103.737 63.6656 103.077 63.6895 102.35 63.4671C101.501 63.2072 100.903 62.7147 100.556 61.9894C100.211 61.2565 100.177 60.4387 100.453 59.536C100.727 58.641 101.208 57.985 101.896 57.5681C102.592 57.1536 103.369 57.0774 104.225 57.3396C104.967 57.5667 105.5 57.9597 105.822 58.5185C106.147 59.0697 106.26 59.6439 106.161 60.2411L104.887 59.8513C104.883 59.5654 104.801 59.2979 104.643 59.0488C104.495 58.7943 104.238 58.6109 103.871 58.4986C103.412 58.3581 102.991 58.4217 102.608 58.6893C102.232 58.9592 101.958 59.3773 101.785 59.9433C101.609 60.5171 101.605 61.022 101.773 61.4582C101.943 61.8867 102.257 62.1712 102.716 62.3117ZM37.7629 49.7004L42.8577 51.2595L41.0668 57.1116L39.7587 56.7113L41.1984 52.0066L38.7199 51.2481L37.2802 55.9528L35.972 55.5525L37.7629 49.7004ZM44.4534 52.5259C45.1621 52.1236 45.9448 52.0536 46.8016 52.3158C47.6584 52.578 48.2641 53.0729 48.6187 53.8006C48.9809 54.5305 49.0228 55.3507 48.7442 56.261C48.4656 57.1713 47.9719 57.8276 47.2632 58.2298C46.5621 58.6343 45.7832 58.7055 44.9264 58.4433C44.0697 58.1811 43.4601 57.6851 43.0979 56.9551C42.7433 56.2275 42.7053 55.4085 42.9839 54.4982C43.2625 53.5879 43.7523 52.9304 44.4534 52.5259ZM44.3066 56.4089C44.482 56.8474 44.8068 57.1392 45.2811 57.2844C45.7554 57.4295 46.1841 57.3683 46.5672 57.1007C46.9579 56.8354 47.2399 56.4197 47.4131 55.8536C47.5863 55.2876 47.5853 54.7853 47.4099 54.3467C47.2422 53.9106 46.9212 53.6199 46.4469 53.4748C45.9727 53.3296 45.5401 53.3897 45.1494 53.655C44.7663 53.9226 44.4882 54.3394 44.3149 54.9055C44.1417 55.4716 44.1389 55.9727 44.3066 56.4089ZM50.6612 53.6476L52.3136 54.1532L52.8732 58.9677L56.0314 55.291L57.6608 55.7896L55.8699 61.6417L54.6077 61.2554L55.8332 57.2508L52.8591 60.6952L51.8952 60.4003L51.3546 55.8927L50.1326 59.8859L48.8703 59.4997L50.6612 53.6476ZM59.2566 57.056C59.9654 56.6538 60.7481 56.5838 61.6049 56.846C62.4617 57.1082 63.0673 57.6031 63.4219 58.3307C63.7842 59.0607 63.826 59.8808 63.5474 60.7912C63.2689 61.7015 62.7752 62.3578 62.0665 62.76C61.3654 63.1645 60.5865 63.2357 59.7297 62.9735C58.8729 62.7113 58.2634 62.2152 57.9012 61.4853C57.5466 60.7577 57.5086 59.9387 57.7871 59.0284C58.0657 58.118 58.5556 57.4606 59.2566 57.056ZM59.1099 60.9391C59.2853 61.3776 59.6101 61.6694 60.0844 61.8146C60.5587 61.9597 60.9874 61.8985 61.3704 61.6309C61.7612 61.3656 62.0431 60.9499 62.2164 60.3838C62.3896 59.8177 62.3886 59.3154 62.2132 58.8769C62.0455 58.4408 61.7245 58.1501 61.2502 58.005C60.7759 57.8598 60.3434 57.9199 59.9527 58.1851C59.5696 58.4528 59.2914 58.8696 59.1182 59.4357C58.945 60.0018 58.9422 60.5029 59.1099 60.9391ZM72.6537 65.5231L71.8531 68.1393L70.5909 67.753L71.0404 66.2843L63.6736 64.0298L65.4645 58.1777L66.7726 58.5781L65.3329 63.2827L67.2606 63.8726L68.7004 59.168L70.0085 59.5683L68.5688 64.273L70.4965 64.8629L71.9362 60.1583L73.2444 60.5586L71.8046 65.2632L72.6537 65.5231ZM76.2695 61.4843L75.7252 63.2629L76.8956 63.6211C77.5458 63.8201 78.0075 64.1705 78.2806 64.6724C78.556 65.1666 78.6036 65.7083 78.4233 66.2973C78.2407 66.894 77.8908 67.3265 77.3737 67.5949C76.8665 67.858 76.2916 67.8913 75.649 67.6946L73.1819 66.9396L74.9728 61.0875L76.2695 61.4843ZM76.3978 64.6735L75.3881 64.3645L74.8122 66.2463L75.8219 66.5554C76.1356 66.6513 76.4085 66.6345 76.6406 66.5047C76.8804 66.3773 77.0424 66.1759 77.1267 65.9005C77.211 65.6251 77.1871 65.3752 77.055 65.1507C76.9305 64.9286 76.7115 64.7695 76.3978 64.6735ZM80.0876 69.0529L78.7794 68.6526L80.5703 62.8005L81.8784 63.2008L81.1902 65.4499L82.1885 65.7554C82.5386 65.0761 83.029 64.5945 83.6597 64.3106C84.2903 64.0268 84.969 63.996 85.6958 64.2184C86.5449 64.4783 87.1418 64.9747 87.4864 65.7076C87.8333 66.4329 87.8687 67.2469 87.5924 68.1495C87.3139 69.0599 86.8279 69.7185 86.1344 70.1254C85.441 70.5323 84.6697 70.6058 83.8206 70.3459C83.0633 70.1142 82.4997 69.6865 82.13 69.0631C81.7703 68.4343 81.6601 67.7145 81.7994 66.9038L80.8355 66.6088L80.0876 69.0529ZM83.2202 68.33C83.3903 68.7585 83.7086 69.0442 84.1753 69.187C84.6419 69.3298 85.0618 69.27 85.4349 69.0077C85.8179 68.7401 86.0973 68.3194 86.2728 67.7457C86.4484 67.172 86.4512 66.6708 86.2811 66.2423C86.1211 65.8085 85.8077 65.5202 85.3411 65.3774C84.8745 65.2346 84.4496 65.297 84.0665 65.5646C83.6934 65.8269 83.4191 66.2449 83.2435 66.8187C83.0679 67.3924 83.0602 67.8962 83.2202 68.33ZM95.8428 67.3362C96.7285 67.6407 97.3727 68.16 97.7756 68.894C98.1784 69.628 98.244 70.4387 97.9725 71.3261C97.7009 72.2135 97.1928 72.8486 96.4482 73.2314C95.7036 73.6143 94.879 73.6841 93.9747 73.4408L93.3426 75.5062L92.0574 75.1129L92.6895 73.0475C91.7962 72.7406 91.1481 72.2202 90.7453 71.4862C90.3424 70.7522 90.2768 69.9415 90.5483 69.0541C90.8199 68.1667 91.328 67.5316 92.0726 67.1488C92.8173 66.7659 93.6456 66.6973 94.5576 66.9429L95.2213 64.7742L96.5065 65.1675L95.8428 67.3362ZM93.0371 71.9115L94.21 68.0789C93.7081 67.9421 93.2361 67.9943 92.7942 68.2355C92.3546 68.4691 92.0459 68.8766 91.8679 69.4579C91.69 70.0393 91.7167 70.5536 91.9479 71.0009C92.1815 71.4405 92.5446 71.744 93.0371 71.9115ZM96.6644 70.9258C96.8423 70.3444 96.8144 69.8339 96.5809 69.3943C96.3496 68.9471 95.9877 68.6397 95.4952 68.4722L94.3223 72.3048C94.8242 72.4417 95.2961 72.3895 95.7381 72.1482C96.18 71.907 96.4888 71.4995 96.6644 70.9258ZM105.082 70.3018L103.291 76.1539L102.006 75.7606L103.197 71.8706L99.3555 74.9494L98.0933 74.5631L99.8841 68.711L101.169 69.1043L99.9754 73.0057L103.82 69.9155L105.082 70.3018ZM111.03 77.2672L110.229 79.8834L108.967 79.4972L109.417 78.0284L105.286 76.7642L104.836 78.233L103.574 77.8467L104.375 75.2305L104.845 75.3745C105.248 75.2886 105.652 74.7471 106.058 73.7502L107.157 70.9367L111.621 72.3027L110.181 77.0074L111.03 77.2672ZM107.283 74.1753C106.938 75.0569 106.592 75.5994 106.245 75.8029L108.873 76.607L109.961 73.0499L107.965 72.4389L107.283 74.1753ZM116.335 73.7955C117.107 74.032 117.654 74.4879 117.974 75.1632C118.302 75.8409 118.328 76.631 118.052 77.5337C117.792 78.3828 117.313 79.0185 116.615 79.4407C115.927 79.8576 115.158 79.9361 114.309 79.6762C113.361 79.386 112.716 78.8414 112.375 78.0426C112.036 77.2361 112.041 76.263 112.39 75.1232C112.818 73.7233 113.364 72.7317 114.028 72.1484C114.694 71.5574 115.58 71.3267 116.687 71.4561L119.195 71.747L118.83 72.9404L116.541 72.6289C115.904 72.551 115.394 72.6333 115.01 72.8756C114.629 73.1103 114.311 73.5319 114.058 74.1404C114.689 73.639 115.447 73.524 116.335 73.7955ZM114.588 78.5192C115.07 78.6667 115.501 78.6104 115.882 78.3505C116.273 78.0852 116.552 77.6772 116.721 77.1264C116.885 76.5909 116.877 76.1115 116.697 75.6883C116.527 75.2598 116.205 74.973 115.73 74.8278C115.256 74.6827 114.819 74.7289 114.42 74.9666C114.024 75.1966 113.741 75.587 113.572 76.1377C113.399 76.7038 113.4 77.2061 113.576 77.6446C113.761 78.0778 114.098 78.3693 114.588 78.5192ZM120.666 77.6309L122.949 78.3297C123.014 77.8725 122.953 77.4856 122.765 77.1689C122.577 76.8521 122.289 76.6341 121.899 76.5147C121.524 76.4 121.202 76.3978 120.934 76.5082C120.668 76.611 120.466 76.7665 120.327 76.975L119.076 76.5922C119.317 76.0801 119.718 75.6969 120.281 75.4426C120.845 75.1882 121.497 75.1746 122.239 75.4016C123.088 75.6615 123.682 76.1529 124.022 76.8758C124.363 77.5911 124.394 78.4077 124.113 79.3257C123.832 80.2437 123.345 80.9061 122.651 81.313C121.968 81.7146 121.198 81.7843 120.341 81.5221C119.607 81.2974 119.07 80.9197 118.73 80.3891C118.39 79.8585 118.278 79.297 118.392 78.7045L119.631 79.0837C119.615 79.3549 119.686 79.6151 119.844 79.8642C120.012 80.1081 120.295 80.2908 120.693 80.4126C121.114 80.5413 121.495 80.5116 121.837 80.3235C122.187 80.1377 122.457 79.8147 122.648 79.3544L120.353 78.6521L120.666 77.6309ZM125.545 82.9642L124.237 82.5639L126.028 76.7118L127.336 77.1121L126.592 79.5447L129.585 77.8003L131.134 78.2744L127.771 80.2443L129.378 84.137L127.794 83.6524L126.381 80.2332L125.545 82.9642ZM134.587 81.4895C134.688 81.1605 134.658 80.8753 134.498 80.6338C134.347 80.387 134.1 80.211 133.756 80.1056C133.136 79.916 132.681 80.0234 132.389 80.428L131.15 80.0487C131.397 79.5719 131.78 79.2334 132.302 79.0332C132.833 78.8277 133.443 78.8303 134.132 79.041C134.858 79.2634 135.379 79.6276 135.692 80.1335C136.014 80.6418 136.071 81.2325 135.865 81.9057L134.685 85.7612L133.469 85.389L133.673 84.7235C133.08 85.1279 132.394 85.2107 131.614 84.9719C131.032 84.794 130.597 84.4808 130.308 84.0325C130.028 83.5789 129.974 83.0728 130.145 82.5144C130.323 81.933 130.667 81.5449 131.179 81.35C131.7 81.1498 132.328 81.1621 133.062 81.3868L134.485 81.8223L134.587 81.4895ZM132.227 83.9925C132.633 84.1166 133.012 84.1072 133.365 83.9643C133.721 83.8138 133.957 83.5473 134.074 83.1648L134.183 82.8091L132.852 82.4017C132.508 82.2964 132.21 82.2848 131.959 82.3669C131.718 82.4438 131.558 82.6122 131.478 82.8723C131.399 83.1324 131.428 83.3632 131.568 83.5647C131.709 83.7586 131.929 83.9012 132.227 83.9925Z" fill="white"/>
<defs>
<linearGradient id="paint0_linear_163_809" x1="110.731" y1="20.8459" x2="80.1239" y2="122.689" gradientUnits="userSpaceOnUse">
<stop stop-color="#66BEBE"/>
<stop offset="1" stop-color="#65DEA3"/>
</linearGradient>
</defs>
</svg>
