<svg width="180" height="100" viewBox="0 0 180 100" fill="none" xmlns="http://www.w3.org/2000/svg">
<g clip-path="url(#clip0_201_804)">
<path fill-rule="evenodd" clip-rule="evenodd" d="M23.3262 35.4334C12.6526 38.2764 6.3047 49.2337 9.14769 59.9072L13.2199 75.1958C16.0629 85.8694 27.0203 92.2173 37.6938 89.3743L99.5849 72.8891L105.521 76.3283C107.433 77.4357 109.88 76.7838 110.988 74.8723L114.427 68.9358L155.15 58.0889C165.823 55.2459 172.171 44.2886 169.328 33.615L165.256 18.3264C162.413 7.65286 151.456 1.30494 140.782 4.14793L23.3262 35.4334Z" fill="url(#paint0_linear_201_804)"/>
<path d="M25.4866 56.271L24.1067 56.6385L21.9323 48.4751L23.3122 48.1076L24.2543 51.6443L26.5822 47.2366L28.2636 46.7887L25.7214 51.6509L30.5076 54.9336L28.7682 55.3969L24.4859 52.5139L25.4866 56.271ZM29.8593 49.5428C30.248 48.8266 30.8753 48.3532 31.7411 48.1226C32.607 47.892 33.3827 47.9917 34.0685 48.4216C34.762 48.8496 35.2313 49.5235 35.4763 50.4434C35.7214 51.3633 35.6495 52.1814 35.2607 52.8976C34.8797 53.6117 34.2563 54.0841 33.3905 54.3147C32.5247 54.5453 31.745 54.4467 31.0515 54.0188C30.3657 53.5888 29.9003 52.9138 29.6553 51.9939C29.4102 51.074 29.4783 50.2569 29.8593 49.5428ZM31.7885 52.9159C32.1692 53.1953 32.5992 53.2712 33.0785 53.1435C33.5578 53.0159 33.8892 52.7372 34.0728 52.3075C34.2641 51.8757 34.2836 51.3738 34.1312 50.8017C33.9789 50.2296 33.7123 49.8039 33.3315 49.5245C32.9585 49.243 32.5324 49.1661 32.0531 49.2938C31.5738 49.4214 31.2385 49.7012 31.0472 50.1329C30.8636 50.5627 30.848 51.0636 31.0004 51.6356C31.1528 52.2077 31.4154 52.6344 31.7885 52.9159ZM40.0885 47.2901L37.3519 48.019L38.6182 52.7732L37.2963 53.1253L35.7211 47.2115L39.7796 46.1305L40.0885 47.2901ZM47.7355 49.1029L48.4397 51.7468L47.1642 52.0865L46.7688 50.6023L42.5944 51.7142L42.9897 53.1984L41.7142 53.5382L41.01 50.8943L41.4854 50.7677C41.7818 50.4818 41.8384 49.8085 41.6553 48.7479L41.1003 45.7787L45.6111 44.5773L46.8774 49.3315L47.7355 49.1029ZM42.92 48.4607C43.0934 49.3915 43.0867 50.0349 42.9001 50.3909L45.5555 49.6836L44.598 46.0889L42.5804 46.6263L42.92 48.4607ZM51.3609 45.1817C51.2724 44.8493 51.0962 44.623 50.8324 44.5029C50.5743 44.3729 50.2713 44.3543 49.9234 44.4469C49.2972 44.6137 48.9676 44.9458 48.9344 45.443L47.6821 45.7766C47.639 45.2417 47.7857 44.7514 48.1224 44.3057C48.4647 43.8503 48.9837 43.5299 49.6794 43.3446C50.4138 43.149 51.0479 43.1829 51.5817 43.4464C52.1233 43.7078 52.4846 44.1787 52.6658 44.859L53.7036 48.7551L52.4745 49.0825L52.2953 48.41C52.0065 49.0664 51.4679 49.4996 50.6794 49.7097C50.0919 49.8661 49.5567 49.8307 49.0739 49.6033C48.5968 49.3661 48.2831 48.9654 48.1328 48.401C47.9763 47.8135 48.0635 47.3018 48.3945 46.866C48.7311 46.4203 49.2705 46.0986 50.0126 45.901L51.4505 45.518L51.3609 45.1817ZM50.682 48.554C51.0918 48.4449 51.4087 48.2363 51.633 47.9282C51.8552 47.6124 51.9148 47.2612 51.8119 46.8747L51.7161 46.5152L50.371 46.8735C50.0231 46.9661 49.7644 47.1137 49.5948 47.3162C49.4309 47.5089 49.3839 47.7366 49.4539 47.9995C49.5239 48.2623 49.6713 48.4424 49.8959 48.5399C50.1185 48.6296 50.3806 48.6343 50.682 48.554ZM57.3179 47.7924L55.7427 41.8786L58.3981 41.1713C59.032 41.0025 59.5533 41.0168 59.9619 41.2143C60.3705 41.4118 60.6345 41.7347 60.7539 42.183C60.8404 42.5077 60.8313 42.7999 60.7266 43.0596C60.6276 43.3095 60.4745 43.5117 60.2673 43.6663C60.5914 43.671 60.8869 43.7703 61.1538 43.9641C61.4284 44.1559 61.6162 44.4412 61.7171 44.82C61.8489 45.3147 61.7714 45.77 61.4848 46.1858C61.2038 46.5918 60.7387 46.8813 60.0893 47.0542L57.3179 47.7924ZM59.2536 44.5696L57.9433 44.9186L58.3448 46.4261L59.6552 46.077C59.9489 45.9988 60.1556 45.8734 60.2752 45.7008C60.4005 45.5184 60.4312 45.3074 60.3674 45.0677C60.2356 44.573 59.8643 44.4069 59.2536 44.5696ZM58.5076 42.235L57.3132 42.5531L57.6777 43.9214L58.8721 43.6033C59.1272 43.5353 59.3078 43.421 59.414 43.2602C59.528 43.0974 59.5561 42.9078 59.4984 42.6913C59.379 42.2429 59.0487 42.0908 58.5076 42.235ZM62.2811 40.907C62.6698 40.1908 63.2971 39.7174 64.1629 39.4868C65.0287 39.2562 65.8045 39.3558 66.4903 39.7858C67.1838 40.2137 67.6531 40.8877 67.8981 41.8076C68.1431 42.7275 68.0713 43.5456 67.6825 44.2618C67.3015 44.9759 66.6781 45.4483 65.8122 45.6789C64.9464 45.9095 64.1668 45.8109 63.4733 45.3829C62.7875 44.953 62.3221 44.278 62.0771 43.3581C61.832 42.4382 61.9 41.6211 62.2811 40.907ZM64.2102 44.2801C64.591 44.5595 65.021 44.6354 65.5003 44.5077C65.9796 44.3801 66.311 44.1014 66.4946 43.6716C66.6859 43.2399 66.7054 42.7379 66.553 42.1659C66.4006 41.5938 66.1341 41.1681 65.7533 40.8887C65.3803 40.6072 64.9542 40.5303 64.4749 40.658C63.9956 40.7856 63.6603 41.0653 63.469 41.4971C63.2854 41.9269 63.2698 42.4277 63.4222 42.9998C63.5745 43.5719 63.8372 43.9986 64.2102 44.2801ZM68.1429 38.5757L73.2914 37.2044L74.8666 43.1182L73.5447 43.4703L72.2783 38.716L69.7737 39.3832L71.04 44.1374L69.7181 44.4895L68.1429 38.5757ZM77.7306 35.8729C78.465 35.6773 79.1566 35.787 79.8052 36.202C80.4616 36.615 80.9185 37.3046 81.1759 38.2709C81.4333 39.2372 81.3761 40.0638 81.0044 40.7506C80.6404 41.4354 80.0873 41.8766 79.3452 42.0743C78.9354 42.1834 78.5564 42.2057 78.2081 42.1412C77.8654 42.0669 77.5897 41.9334 77.3811 41.7406L78.1471 44.6163L76.8252 44.9684L74.66 36.8398L75.9356 36.5001L76.1394 37.2654C76.3499 36.5636 76.8803 36.0994 77.7306 35.8729ZM78.8129 40.9618C79.2767 40.8383 79.6015 40.5655 79.7871 40.1435C79.9784 39.7117 79.9968 39.2059 79.8424 38.6261C79.69 38.0541 79.4235 37.6283 79.0427 37.3489C78.6697 37.0674 78.2513 36.9885 77.7875 37.112C77.3159 37.2376 76.9834 37.5125 76.7901 37.9365C76.5947 38.3528 76.5742 38.8509 76.7286 39.4307L76.7409 39.4771C76.8954 40.0569 77.1619 40.4826 77.5406 40.7543C77.9172 41.0182 78.3413 41.0874 78.8129 40.9618ZM82.0703 35.636C82.4591 34.9198 83.0864 34.4464 83.9522 34.2157C84.818 33.9851 85.5938 34.0848 86.2796 34.5148C86.9731 34.9427 87.4423 35.6166 87.6874 36.5366C87.9324 37.4565 87.8605 38.2745 87.4718 38.9907C87.0907 39.7049 86.4673 40.1772 85.6015 40.4079C84.7357 40.6385 83.956 40.5398 83.2625 40.1119C82.5767 39.6819 82.1113 39.007 81.8663 38.087C81.6213 37.1671 81.6893 36.3501 82.0703 35.636ZM83.9995 39.0091C84.3802 39.2885 84.8103 39.3644 85.2895 39.2367C85.7688 39.109 86.1003 38.8303 86.2838 38.4006C86.4752 37.9688 86.4946 37.4669 86.3423 36.8948C86.1899 36.3228 85.9233 35.897 85.5426 35.6176C85.1696 35.3362 84.7434 35.2593 84.2641 35.3869C83.7848 35.5146 83.4495 35.7943 83.2582 36.2261C83.0746 36.6558 83.059 37.1567 83.2114 37.7288C83.3638 38.3008 83.6265 38.7276 83.9995 39.0091ZM91.7719 37.5101C92.1584 37.4071 92.4303 37.2312 92.5876 36.9823C92.7525 36.7314 92.8338 36.4614 92.8313 36.1723L94.1184 35.8295C94.2094 36.451 94.0748 37.0333 93.7144 37.5763C93.354 38.1194 92.8067 38.4887 92.0723 38.6843C91.2142 38.9129 90.4461 38.8111 89.7681 38.3791C89.088 37.9393 88.6264 37.2633 88.3835 36.3511C88.1426 35.4467 88.2039 34.6356 88.5674 33.9178C88.9386 33.198 89.5571 32.7228 90.4229 32.4922C91.1728 32.2925 91.8324 32.3445 92.4017 32.6481C92.969 32.9441 93.3685 33.3717 93.6003 33.9309L92.3132 34.2737C92.1581 34.0335 91.9477 33.8495 91.6818 33.7216C91.4216 33.5839 91.106 33.5645 90.7349 33.6634C90.2711 33.7869 89.9474 34.0635 89.7638 34.4933C89.5879 34.9209 89.5762 35.4208 89.7286 35.9929C89.883 36.5727 90.1467 37.0033 90.5197 37.2848C90.8907 37.5585 91.3081 37.6336 91.7719 37.5101ZM99.2547 36.6222L97.9328 36.9743L96.3576 31.0605L97.6795 30.7084L98.2849 32.9811L100.824 32.3047L100.219 30.032L101.541 29.6799L103.116 35.5937L101.794 35.9458L101.136 33.4759L98.5968 34.1523L99.2547 36.6222ZM106.907 30.3865C106.819 30.0541 106.642 29.8278 106.379 29.7077C106.12 29.5777 105.817 29.5591 105.47 29.6517C104.843 29.8185 104.514 30.1506 104.481 30.6478L103.228 30.9814C103.185 30.4465 103.332 29.9562 103.669 29.5105C104.011 29.0551 104.53 28.7347 105.226 28.5494C105.96 28.3538 106.594 28.3877 107.128 28.6512C107.669 28.9126 108.031 29.3835 108.212 30.0638L109.25 33.9599L108.021 34.2873L107.841 33.6148C107.553 34.2712 107.014 34.7044 106.226 34.9145C105.638 35.071 105.103 35.0355 104.62 34.8081C104.143 34.5709 103.829 34.1702 103.679 33.6058C103.522 33.0183 103.61 32.5066 103.941 32.0708C104.277 31.6251 104.817 31.3034 105.559 31.1058L106.997 30.7228L106.907 30.3865ZM106.228 33.7588C106.638 33.6497 106.955 33.4411 107.179 33.133C107.401 32.8172 107.461 32.466 107.358 32.0795L107.262 31.72L105.917 32.0783C105.569 32.1709 105.311 32.3185 105.141 32.521C104.977 32.7137 104.93 32.9414 105 33.2043C105.07 33.4671 105.217 33.6472 105.442 33.7447C105.665 33.8344 105.927 33.8391 106.228 33.7588ZM112.835 31.8996C113.222 31.7967 113.494 31.6208 113.651 31.3719C113.816 31.121 113.897 30.851 113.895 30.5619L115.182 30.2191C115.273 30.8406 115.138 31.4228 114.778 31.9659C114.417 32.5089 113.87 32.8783 113.136 33.0739C112.278 33.3024 111.51 33.2007 110.832 32.7687C110.151 32.3289 109.69 31.6529 109.447 30.7407C109.206 29.8363 109.267 29.0251 109.631 28.3074C110.002 27.5876 110.621 27.1124 111.486 26.8818C112.236 26.682 112.896 26.734 113.465 27.0377C114.032 27.3337 114.432 27.7613 114.664 28.3204L113.377 28.6633C113.222 28.4231 113.011 28.2391 112.745 28.1112C112.485 27.9735 112.169 27.9541 111.798 28.0529C111.334 28.1765 111.011 28.4531 110.827 28.8829C110.651 29.3105 110.64 29.8104 110.792 30.3824C110.946 30.9622 111.21 31.3929 111.583 31.6743C111.954 31.9481 112.372 32.0232 112.835 31.8996ZM114.86 27.3742L114.551 26.2146L119.653 24.8556L119.962 26.0152L118.072 26.5186L119.338 31.2729L118.016 31.625L116.75 26.8707L114.86 27.3742ZM120.987 25.2703C121.375 24.5541 122.003 24.0807 122.868 23.8501C123.734 23.6194 124.51 23.7191 125.196 24.1491C125.889 24.577 126.359 25.2509 126.604 26.1709C126.849 27.0908 126.777 27.9089 126.388 28.625C126.007 29.3392 125.384 29.8116 124.518 30.0422C123.652 30.2728 122.872 30.1741 122.179 29.7462C121.493 29.3162 121.028 28.6413 120.783 27.7214C120.538 26.8014 120.606 25.9844 120.987 25.2703ZM122.916 28.6434C123.297 28.9228 123.727 28.9987 124.206 28.871C124.685 28.7433 125.017 28.4646 125.2 28.0349C125.391 27.6031 125.411 27.1012 125.259 26.5291C125.106 25.9571 124.84 25.5314 124.459 25.2519C124.086 24.9705 123.66 24.8936 123.18 25.0212C122.701 25.1489 122.366 25.4286 122.175 25.8604C121.991 26.2901 121.975 26.791 122.128 27.3631C122.28 27.9351 122.543 28.3619 122.916 28.6434ZM127.713 29.0669L127.404 27.9073L127.59 27.8579C127.914 27.7714 128.119 27.6218 128.203 27.409C128.293 27.1864 128.296 26.8419 128.213 26.3755L127.558 22.75L131.906 21.5918L133.482 27.5056L132.16 27.8577L130.893 23.1034L129.026 23.6007L129.49 26.1347C129.645 26.9629 129.608 27.6019 129.38 28.0517C129.158 28.4917 128.722 28.7982 128.073 28.9712L127.713 29.0669ZM134.597 20.8752L135.075 22.6725L136.258 22.3575C136.915 22.1825 137.492 22.2357 137.99 22.5172C138.485 22.791 138.812 23.2255 138.97 23.8208C139.131 24.4237 139.063 24.9759 138.766 25.4772C138.474 25.9687 138.004 26.301 137.355 26.474L134.862 27.138L133.286 21.2242L134.597 20.8752ZM136.392 23.5139L135.372 23.7857L135.878 25.6874L136.899 25.4156C137.216 25.3312 137.438 25.1725 137.567 24.9396C137.703 24.7047 137.734 24.4481 137.66 24.1698C137.586 23.8915 137.433 23.692 137.202 23.5713C136.979 23.4486 136.709 23.4295 136.392 23.5139ZM141.84 25.2792L140.518 25.6313L138.943 19.7175L140.265 19.3654L140.92 21.8237L142.538 18.7601L144.103 18.3431L142.29 21.794L145.713 24.2476L144.113 24.6739L141.105 22.5195L141.84 25.2792ZM145.198 18.8213C145.587 18.1051 146.214 17.6317 147.08 17.4011C147.946 17.1705 148.722 17.2702 149.407 17.7002C150.101 18.1281 150.57 18.802 150.815 19.7219C151.06 20.6419 150.988 21.4599 150.6 22.1761C150.218 22.8902 149.595 23.3626 148.729 23.5932C147.863 23.8238 147.084 23.7252 146.39 23.2973C145.705 22.8673 145.239 22.1923 144.994 21.2724C144.749 20.3525 144.817 19.5355 145.198 18.8213ZM147.127 22.1944C147.508 22.4739 147.938 22.5497 148.417 22.4221C148.897 22.2944 149.228 22.0157 149.412 21.586C149.603 21.1542 149.622 20.6523 149.47 20.0802C149.318 19.5082 149.051 19.0824 148.67 18.803C148.297 18.5215 147.871 18.4446 147.392 18.5723C146.913 18.7 146.577 18.9797 146.386 19.4115C146.202 19.8412 146.187 20.3421 146.339 20.9141C146.492 21.4862 146.754 21.913 147.127 22.1944ZM28.5198 61.5977C29.3006 61.3897 30.0056 61.4876 30.6346 61.8913C31.2715 62.2929 31.7114 62.9498 31.9543 63.862C32.1829 64.7201 32.1126 65.5129 31.7434 66.2404C31.3799 66.9582 30.7691 67.4313 29.911 67.6599C28.9524 67.9152 28.1171 67.7941 27.4051 67.2966C26.691 66.7914 26.1806 65.9629 25.8737 64.811C25.4969 63.3964 25.4359 62.266 25.6908 61.4199C25.9435 60.5661 26.5737 59.9015 27.5813 59.4261L29.8642 58.3461L30.1854 59.5521L28.078 60.4984C27.4961 60.7693 27.1064 61.109 26.909 61.5176C26.7094 61.9185 26.6631 62.4441 26.7701 63.0945C27.0399 62.3355 27.6231 61.8366 28.5198 61.5977ZM29.5357 66.5304C30.0227 66.4007 30.359 66.1249 30.5447 65.7029C30.736 65.2711 30.7575 64.7769 30.6092 64.2203C30.4651 63.6792 30.2047 63.2766 29.8281 63.0127C29.4571 62.7389 29.032 62.6659 28.5527 62.7935C28.0734 62.9212 27.7273 63.1914 27.5144 63.6041C27.2994 64.0091 27.266 64.4899 27.4142 65.0465C27.5666 65.6185 27.8332 66.0443 28.2139 66.3237C28.6003 66.5933 29.0409 66.6622 29.5357 66.5304ZM32.8347 61.1687C33.2234 60.4525 33.8507 59.9791 34.7165 59.7485C35.5823 59.5179 36.3581 59.6175 37.0439 60.0475C37.7374 60.4754 38.2067 61.1494 38.4517 62.0693C38.6967 62.9892 38.6249 63.8073 38.2361 64.5235C37.8551 65.2376 37.2317 65.71 36.3658 65.9406C35.5 66.1712 34.7204 66.0726 34.0269 65.6446C33.3411 65.2147 32.8757 64.5397 32.6307 63.6198C32.3856 62.6998 32.4536 61.8828 32.8347 61.1687ZM34.7638 64.5418C35.1446 64.8212 35.5746 64.8971 36.0539 64.7694C36.5332 64.6418 36.8646 64.3631 37.0482 63.9333C37.2395 63.5015 37.259 62.9996 37.1066 62.4276C36.9542 61.8555 36.6877 61.4298 36.3069 61.1504C35.9339 60.8689 35.5078 60.792 35.0285 60.9196C34.5492 61.0473 34.2139 61.327 34.0226 61.7588C33.839 62.1885 33.8234 62.6894 33.9758 63.2615C34.1281 63.8335 34.3908 64.2603 34.7638 64.5418ZM39.5611 64.9653L39.2522 63.8057L39.4378 63.7563C39.7624 63.6698 39.9668 63.5202 40.0509 63.3074C40.1406 63.0848 40.1441 62.7403 40.0612 62.2739L39.406 58.6484L43.7544 57.4902L45.3296 63.404L44.0077 63.7561L42.7413 59.0019L40.8744 59.4991L41.3383 62.0331C41.4926 62.8613 41.4559 63.5003 41.228 63.9501C41.0057 64.3901 40.5699 64.6966 39.9206 64.8696L39.5611 64.9653ZM46.4447 56.7736L46.9234 58.5709L48.1062 58.2559C48.7633 58.0809 49.3404 58.1341 49.8376 58.4156C50.3328 58.6894 50.6596 59.1239 50.8182 59.7192C50.9788 60.3221 50.9106 60.8743 50.6136 61.3756C50.3223 61.8672 49.852 62.1994 49.2026 62.3724L46.7096 63.0364L45.1344 57.1226L46.4447 56.7736ZM48.2403 59.4123L47.2199 59.6841L47.7265 61.5858L48.7469 61.314C49.0638 61.2296 49.2865 61.0709 49.4149 60.8381C49.551 60.6031 49.582 60.3465 49.5079 60.0682C49.4337 59.7899 49.2813 59.5904 49.0504 59.4698C48.8273 59.347 48.5573 59.3279 48.2403 59.4123ZM55.3828 54.3929L56.6491 59.1471L58.5972 58.6282L57.3309 53.874L58.6528 53.5219L60.228 59.4357L52.3661 61.5298L50.7909 55.6159L52.1128 55.2638L53.3791 60.0181L55.3272 59.4992L54.0609 54.745L55.3828 54.3929ZM60.6811 53.7515C61.0699 53.0354 61.6972 52.5619 62.563 52.3313C63.4288 52.1007 64.2046 52.2004 64.8904 52.6304C65.5839 53.0583 66.0531 53.7322 66.2982 54.6521C66.5432 55.5721 66.4713 56.3901 66.0826 57.1063C65.7015 57.8205 65.0781 58.2928 64.2123 58.5234C63.3465 58.7541 62.5668 58.6554 61.8733 58.2275C61.1875 57.7975 60.7221 57.1226 60.4771 56.2026C60.2321 55.2827 60.3001 54.4657 60.6811 53.7515ZM62.6103 57.1246C62.991 57.4041 63.4211 57.4799 63.9003 57.3523C64.3796 57.2246 64.7111 56.9459 64.8947 56.5162C65.086 56.0844 65.1054 55.5825 64.9531 55.0104C64.8007 54.4384 64.5341 54.0126 64.1534 53.7332C63.7804 53.4517 63.3542 53.3748 62.8749 53.5025C62.3956 53.6302 62.0603 53.9099 61.869 54.3417C61.6854 54.7714 61.6698 55.2723 61.8222 55.8443C61.9746 56.4164 62.2373 56.8432 62.6103 57.1246ZM71.7958 50.0211L73.371 55.9349L72.0723 56.2808L71.0252 52.3499L69.3937 56.9943L68.1181 57.3341L66.5429 51.4203L67.8417 51.0743L68.8918 55.0169L70.5203 50.3609L71.7958 50.0211ZM67.5688 48.2784C67.643 48.5566 67.782 48.768 67.9861 48.9123C68.1901 49.0567 68.4351 49.0908 68.7211 49.0146C69.0072 48.9384 69.2028 48.7869 69.308 48.5602C69.4132 48.3335 69.4287 48.081 69.3546 47.8027L70.4214 47.5186C70.5603 48.1025 70.4984 48.6157 70.2354 49.0583C69.9802 49.4988 69.5588 49.7973 68.9713 49.9538C68.3838 50.1103 67.8659 50.062 67.4177 49.8088C66.9771 49.5536 66.6719 49.1382 66.502 48.5625L67.5688 48.2784ZM76.2278 54.4537C76.2773 54.6392 76.2921 54.8505 76.2725 55.0876L76.0547 57.207L75.0459 57.4758L75.2219 55.4792C74.8215 55.4368 74.5729 55.234 74.4761 54.8706C74.4123 54.631 74.441 54.4122 74.5621 54.2144C74.6833 54.0165 74.8676 53.8847 75.1149 53.8188C75.3623 53.7529 75.5937 53.7823 75.809 53.9071C76.0224 54.0241 76.162 54.2063 76.2278 54.4537ZM81.4754 47.4429L82.7973 47.0908L84.3725 53.0046L83.0506 53.3567L82.4298 51.0259C82.1355 51.3196 81.7216 51.5375 81.1882 51.6795C80.5002 51.8628 79.89 51.81 79.3578 51.5213C78.8255 51.2326 78.4554 50.6978 78.2475 49.917L77.846 48.4096L79.1679 48.0575L79.5447 49.4722C79.7774 50.3457 80.3227 50.6682 81.1808 50.4397C81.5673 50.3367 81.8869 50.1688 82.1395 49.9359L81.4754 47.4429ZM84.0089 48.0099L83.7001 46.8503L88.8022 45.4913L89.111 46.6509L87.2209 47.1543L88.4873 51.9086L87.1654 52.2607L85.899 47.5064L84.0089 48.0099ZM90.136 45.906C90.5248 45.1898 91.1521 44.7164 92.0179 44.4858C92.8837 44.2551 93.6595 44.3548 94.3453 44.7848C95.0388 45.2127 95.508 45.8866 95.7531 46.8066C95.9981 47.7265 95.9262 48.5446 95.5375 49.2607C95.1564 49.9749 94.533 50.4473 93.6672 50.6779C92.8014 50.9085 92.0217 50.8098 91.3282 50.3819C90.6425 49.9519 90.1771 49.277 89.932 48.3571C89.687 47.4371 89.755 46.6201 90.136 45.906ZM92.0652 49.2791C92.446 49.5585 92.876 49.6344 93.3553 49.5067C93.8346 49.379 94.166 49.1003 94.3496 48.6706C94.5409 48.2388 94.5603 47.7369 94.408 47.1649C94.2556 46.5928 93.989 46.1671 93.6083 45.8876C93.2353 45.6062 92.8091 45.5293 92.3298 45.6569C91.8506 45.7846 91.5153 46.0643 91.3239 46.4961C91.1404 46.9258 91.1248 47.4267 91.2771 47.9988C91.4295 48.5708 91.6922 48.9976 92.0652 49.2791ZM101.188 48.5255L99.8664 48.8777L98.2912 42.9638L99.6131 42.6117L100.218 44.8845L102.758 44.2081L102.153 41.9353L103.474 41.5832L105.05 47.497L103.728 47.8491L103.07 45.3793L100.53 46.0557L101.188 48.5255ZM110.915 43.1778L106.752 44.2867L106.758 44.3098C106.88 44.7659 107.128 45.1056 107.502 45.3289C107.876 45.5521 108.299 45.6009 108.77 45.4753C109.095 45.3888 109.344 45.2521 109.518 45.0651C109.697 44.8683 109.793 44.6854 109.806 44.5163L111.105 44.1704C111.132 44.6435 110.976 45.1155 110.638 45.5864C110.307 46.0552 109.775 46.3875 109.04 46.5831C108.159 46.8178 107.379 46.7318 106.699 46.325C106.017 45.9105 105.55 45.2278 105.297 44.277C105.043 43.3261 105.106 42.5024 105.483 41.8058C105.858 41.1014 106.467 40.637 107.31 40.4126C108.122 40.1964 108.842 40.2901 109.471 40.6938C110.1 41.0975 110.533 41.7438 110.77 42.6328L110.915 43.1778ZM107.592 41.5173C107.174 41.6285 106.867 41.8428 106.67 42.1601C106.481 42.4755 106.424 42.8509 106.498 43.2863L109.328 42.5327C109.197 42.1039 108.976 41.8027 108.665 41.6289C108.359 41.4454 108.001 41.4082 107.592 41.5173ZM113.51 40.6859C113.422 40.1051 113.564 39.5955 113.935 39.157C114.315 38.7166 114.829 38.4098 115.478 38.2369C116.112 38.068 116.675 38.0836 117.167 38.2837C117.659 38.4838 117.973 38.839 118.109 39.3492C118.274 39.9676 118.102 40.4728 117.594 40.8649C117.897 40.8505 118.187 40.9305 118.465 41.1047C118.749 41.2692 118.943 41.5486 119.049 41.9428C119.195 42.4917 119.085 42.9969 118.72 43.4586C118.362 43.9181 117.823 44.2437 117.104 44.4351C116.409 44.6205 115.789 44.6077 115.244 44.3967C114.699 44.1858 114.31 43.7969 114.076 43.23L115.363 42.8871C115.493 43.1258 115.685 43.2858 115.938 43.3673C116.198 43.439 116.489 43.4316 116.814 43.3452C117.154 43.2546 117.406 43.1129 117.57 42.9202C117.732 42.7198 117.779 42.492 117.711 42.2369C117.583 41.7577 117.152 41.6158 116.418 41.8114L115.548 42.0431L115.27 40.9995L116.071 40.7863C116.38 40.704 116.599 40.5793 116.728 40.4124C116.864 40.2357 116.9 40.0314 116.838 39.7995C116.779 39.5753 116.643 39.425 116.433 39.3487C116.23 39.2703 115.985 39.2692 115.699 39.3454C115.398 39.4257 115.168 39.5573 115.01 39.7402C114.851 39.9231 114.773 40.1261 114.774 40.3492L113.51 40.6859ZM121.867 43.0177L120.545 43.3698L118.97 37.456L120.291 37.1039L120.897 39.3766L123.436 38.7002L122.831 36.4275L124.153 36.0754L125.728 41.9892L124.406 42.3413L123.748 39.8714L121.209 40.5478L121.867 43.0177ZM129.519 36.782C129.431 36.4496 129.254 36.2233 128.991 36.1031C128.732 35.9732 128.429 35.9546 128.082 36.0472C127.455 36.214 127.126 36.546 127.093 37.0433L125.84 37.3769C125.797 36.842 125.944 36.3517 126.281 35.906C126.623 35.4506 127.142 35.1302 127.838 34.9449C128.572 34.7493 129.206 34.7832 129.74 35.0467C130.281 35.3081 130.643 35.779 130.824 36.4592L131.862 40.3554L130.633 40.6828L130.453 40.0102C130.165 40.6667 129.626 41.0999 128.838 41.31C128.25 41.4664 127.715 41.431 127.232 41.2036C126.755 40.9664 126.441 40.5656 126.291 40.0013C126.134 39.4138 126.222 38.9021 126.553 38.4662C126.889 38.0206 127.429 37.6989 128.171 37.5012L129.609 37.1183L129.519 36.782ZM128.84 40.1543C129.25 40.0452 129.567 39.8366 129.791 39.5285C130.013 39.2127 130.073 38.8615 129.97 38.475L129.874 38.1155L128.529 38.4738C128.181 38.5664 127.923 38.714 127.753 38.9165C127.589 39.1092 127.542 39.3369 127.612 39.5997C127.682 39.8626 127.829 40.0427 128.054 40.1402C128.277 40.2299 128.539 40.2346 128.84 40.1543ZM137.68 36.0487L133.517 37.1575L133.524 37.1807C133.645 37.6368 133.893 37.9765 134.267 38.1997C134.641 38.4229 135.064 38.4718 135.535 38.3462C135.86 38.2597 136.109 38.1229 136.283 37.9359C136.462 37.7391 136.559 37.5562 136.572 37.3872L137.87 37.0413C137.897 37.5143 137.741 37.9863 137.403 38.4572C137.072 38.9261 136.54 39.2583 135.806 39.4539C134.924 39.6887 134.144 39.6026 133.464 39.1959C132.783 38.7813 132.315 38.0987 132.062 37.1478C131.809 36.197 131.871 35.3732 132.248 34.6766C132.624 33.9723 133.233 33.5079 134.075 33.2834C134.887 33.0672 135.607 33.161 136.236 33.5647C136.865 33.9683 137.298 34.6147 137.535 35.5037L137.68 36.0487ZM134.357 34.3881C133.94 34.4993 133.632 34.7136 133.435 35.031C133.246 35.3463 133.189 35.7217 133.263 36.1572L136.093 35.4036C135.962 34.9748 135.741 34.6735 135.43 34.4997C135.124 34.3162 134.767 34.279 134.357 34.3881ZM142.411 31.2122L143.677 35.9664L145.625 35.4475L144.359 30.6933L145.681 30.3412L147.256 36.255L139.394 38.3491L137.819 32.4353L139.141 32.0832L140.407 36.8374L142.355 36.3185L141.089 31.5643L142.411 31.2122ZM148.364 29.6265L148.843 31.4238L150.026 31.1088C150.683 30.9337 151.26 30.987 151.757 31.2685C152.252 31.5423 152.579 31.9768 152.738 32.572C152.898 33.175 152.83 33.7272 152.533 34.2285C152.242 34.72 151.771 35.0523 151.122 35.2252L148.629 35.8893L147.054 29.9755L148.364 29.6265ZM150.16 32.2652L149.139 32.537L149.646 34.4387L150.666 34.1669C150.983 34.0825 151.206 33.9238 151.334 33.6909C151.47 33.456 151.501 33.1993 151.427 32.921C151.353 32.6428 151.201 32.4433 150.97 32.3226C150.747 32.1999 150.477 32.1808 150.16 32.2652ZM155.776 33.2653C155.826 33.4508 155.841 33.6621 155.821 33.8992L155.603 36.0186L154.594 36.2874L154.77 34.2908C154.37 34.2484 154.121 34.0456 154.025 33.6822C153.961 33.4426 153.989 33.2238 154.11 33.026C154.232 32.8281 154.416 32.6963 154.663 32.6304C154.911 32.5645 155.142 32.5939 155.357 32.7187C155.571 32.8357 155.71 33.0179 155.776 33.2653ZM32.0019 73.0389L33.3239 72.6868L34.8991 78.6006L33.5771 78.9527L32.9563 76.622C32.662 76.9157 32.2481 77.1335 31.7147 77.2756C31.0267 77.4589 30.4166 77.4061 29.8843 77.1174C29.3521 76.8286 28.982 76.2939 28.774 75.5131L28.3725 74.0057L29.6944 73.6536L30.0712 75.0682C30.3039 75.9418 30.8493 76.2643 31.7074 76.0357C32.0939 75.9328 32.4134 75.7649 32.666 75.532L32.0019 73.0389ZM34.5355 73.6059L34.2266 72.4464L39.3287 71.0874L39.6376 72.247L37.7475 72.7504L39.0138 77.5046L37.6919 77.8567L36.4256 73.1025L34.5355 73.6059ZM40.6626 71.502C41.0513 70.7859 41.6786 70.3125 42.5444 70.0818C43.4102 69.8512 44.186 69.9509 44.8718 70.3809C45.5653 70.8088 46.0346 71.4827 46.2796 72.4026C46.5246 73.3226 46.4528 74.1406 46.064 74.8568C45.683 75.571 45.0596 76.0433 44.1938 76.2739C43.3279 76.5046 42.5483 76.4059 41.8548 75.978C41.169 75.548 40.7036 74.8731 40.4586 73.9531C40.2135 73.0332 40.2815 72.2162 40.6626 71.502ZM42.5917 74.8751C42.9725 75.1546 43.4025 75.2304 43.8818 75.1028C44.3611 74.9751 44.6925 74.6964 44.8761 74.2667C45.0674 73.8349 45.0869 73.333 44.9345 72.7609C44.7821 72.1889 44.5156 71.7631 44.1348 71.4837C43.7618 71.2022 43.3357 71.1253 42.8564 71.253C42.3771 71.3807 42.0418 71.6604 41.8505 72.0922C41.6669 72.5219 41.6513 73.0228 41.8037 73.5949C41.956 74.1669 42.2187 74.5937 42.5917 74.8751ZM52.6575 72.7653C53.044 72.6623 53.3159 72.4864 53.4731 72.2376C53.6381 71.9867 53.7194 71.7167 53.7169 71.4276L55.004 71.0847C55.095 71.7062 54.9604 72.2885 54.6 72.8316C54.2396 73.3746 53.6922 73.7439 52.9578 73.9396C52.0998 74.1681 51.3317 74.0664 50.6537 73.6343C49.9735 73.1946 49.512 72.5186 49.269 71.6064C49.0281 70.7019 49.0894 69.8908 49.4529 69.1731C49.8242 68.4533 50.4427 67.9781 51.3085 67.7474C52.0584 67.5477 52.718 67.5997 53.2873 67.9034C53.8546 68.1993 54.2541 68.6269 54.4859 69.1861L53.1987 69.5289C53.0437 69.2888 52.8332 69.1047 52.5674 68.9769C52.3072 68.8392 51.9915 68.8198 51.6205 68.9186C51.1566 69.0422 50.8329 69.3188 50.6494 69.7485C50.4735 70.1762 50.4618 70.6761 50.6141 71.2481C50.7686 71.8279 51.0323 72.2585 51.4053 72.54C51.7763 72.8137 52.1937 72.8888 52.6575 72.7653ZM54.9499 66.9266L60.0983 65.5552L61.6735 71.469L60.3516 71.8211L59.0853 67.0669L56.5806 67.734L57.847 72.4883L56.525 72.8404L54.9499 66.9266ZM64.5376 64.2238C65.272 64.0282 65.9635 64.1379 66.6122 64.5529C67.2686 64.9658 67.7255 65.6555 67.9829 66.6218C68.2403 67.5881 68.1831 68.4147 67.8113 69.1015C67.4473 69.7863 66.8943 70.2275 66.1521 70.4251C65.7424 70.5343 65.3634 70.5566 65.015 70.4921C64.6724 70.4178 64.3967 70.2842 64.1881 70.0914L64.954 72.9672L63.6321 73.3193L61.467 65.1907L62.7425 64.8509L62.9464 65.6162C63.1568 64.9144 63.6872 64.4503 64.5376 64.2238ZM65.6199 69.3127C66.0837 69.1891 66.4084 68.9163 66.5941 68.4943C66.7854 68.0626 66.8038 67.5568 66.6494 66.977C66.497 66.4049 66.2304 65.9792 65.8497 65.6998C65.4767 65.4183 65.0583 65.3393 64.5944 65.4629C64.1229 65.5885 63.7904 65.8633 63.597 66.2874C63.4016 66.7037 63.3811 67.2018 63.5356 67.7815L63.5479 67.8279C63.7023 68.4077 63.9689 68.8334 64.3476 69.1051C64.7242 69.3691 65.1483 69.4383 65.6199 69.3127ZM68.8773 63.9868C69.266 63.2706 69.8933 62.7972 70.7591 62.5666C71.625 62.336 72.4007 62.4357 73.0865 62.8656C73.78 63.2936 74.2493 63.9675 74.4943 64.8874C74.7394 65.8073 74.6675 66.6254 74.2787 67.3416C73.8977 68.0557 73.2743 68.5281 72.4085 68.7587C71.5427 68.9893 70.763 68.8907 70.0695 68.4628C69.3837 68.0328 68.9183 67.3578 68.6733 66.4379C68.4283 65.518 68.4963 64.7009 68.8773 63.9868ZM70.8065 67.3599C71.1872 67.6393 71.6172 67.7152 72.0965 67.5875C72.5758 67.4599 72.9072 67.1812 73.0908 66.7515C73.2821 66.3197 73.3016 65.8177 73.1492 65.2457C72.9969 64.6736 72.7303 64.2479 72.3495 63.9685C71.9765 63.687 71.5504 63.6101 71.0711 63.7378C70.5918 63.8654 70.2565 64.1452 70.0652 64.5769C69.8816 65.0067 69.866 65.5076 70.0184 66.0796C70.1708 66.6517 70.4334 67.0784 70.8065 67.3599ZM78.5789 65.8609C78.9654 65.758 79.2373 65.582 79.3945 65.3332C79.5595 65.0823 79.6408 64.8123 79.6383 64.5232L80.9254 64.1803C81.0164 64.8018 80.8817 65.3841 80.5214 65.9272C80.161 66.4702 79.6136 66.8396 78.8792 67.0352C78.0212 67.2637 77.2531 67.162 76.575 66.7299C75.8949 66.2902 75.4334 65.6142 75.1904 64.702C74.9495 63.7975 75.0108 62.9864 75.3743 62.2687C75.7456 61.5489 76.3641 61.0737 77.2299 60.8431C77.9798 60.6433 78.6394 60.6953 79.2087 60.999C79.776 61.295 80.1755 61.7225 80.4073 62.2817L79.1201 62.6246C78.9651 62.3844 78.7546 62.2003 78.4888 62.0725C78.2286 61.9348 77.9129 61.9154 77.5419 62.0142C77.078 62.1378 76.7543 62.4144 76.5708 62.8441C76.3949 63.2718 76.3832 63.7717 76.5355 64.3437C76.69 64.9235 76.9537 65.3541 77.3267 65.6356C77.6977 65.9094 78.1151 65.9845 78.5789 65.8609ZM86.1241 58.623L87.6993 64.5368L86.4006 64.8828L85.3535 60.9518L83.722 65.5962L82.4464 65.936L80.8712 60.0222L82.17 59.6763L83.2201 63.6188L84.8486 58.9628L86.1241 58.623ZM87.3353 59.5422L87.0265 58.3827L92.1286 57.0237L92.4375 58.1833L90.5474 58.6867L91.8137 63.4409L90.4918 63.793L89.2254 59.0388L87.3353 59.5422ZM94.3439 56.4336L94.8227 58.2309L96.0054 57.9159C96.6625 57.7409 97.2397 57.7941 97.7369 58.0756C98.232 58.3494 98.5589 58.7839 98.7174 59.3792C98.878 59.9822 98.8098 60.5343 98.5129 61.0356C98.2216 61.5272 97.7512 61.8594 97.1019 62.0324L94.6088 62.6964L93.0336 56.7826L94.3439 56.4336ZM96.1396 59.0723L95.1192 59.3441L95.6257 61.2458L96.6461 60.974C96.9631 60.8896 97.1857 60.731 97.3141 60.4981C97.4502 60.2631 97.4812 60.0065 97.4071 59.7282C97.333 59.4499 97.1805 59.2504 96.9497 59.1298C96.7266 59.0071 96.4565 58.9879 96.1396 59.0723Z" fill="#0F1414"/>
</g>
<defs>
<linearGradient id="paint0_linear_201_804" x1="82.1769" y1="7.90823" x2="97.9947" y2="67.2938" gradientUnits="userSpaceOnUse">
<stop stop-color="#F9F9F9"/>
<stop offset="1" stop-color="#F4F4F4"/>
</linearGradient>
<clipPath id="clip0_201_804">
<rect width="180" height="100" fill="white"/>
</clipPath>
</defs>
</svg>
