<svg width="190" height="120" viewBox="0 0 190 120" fill="none" xmlns="http://www.w3.org/2000/svg">
<g clip-path="url(#clip0_201_750)">
<path fill-rule="evenodd" clip-rule="evenodd" d="M159.589 37.7164C170.168 40.8955 176.166 52.0481 172.987 62.6264L164.734 90.0885C161.555 100.667 150.402 106.665 139.824 103.486L99.4857 91.3631C98.4698 91.0578 97.3741 91.1685 96.4398 91.671L84.968 97.8409C83.0224 98.8874 80.5969 98.1584 79.5505 96.2128L73.3806 84.741C72.8781 83.8067 72.025 83.1103 71.0091 82.805L33.479 71.526C22.9007 68.3469 16.9025 57.1943 20.0816 46.616L28.3348 19.1539C31.5139 8.57559 42.6665 2.57736 53.2448 5.75647L159.589 37.7164Z" fill="url(#paint0_linear_201_750)"/>
<path d="M47.5 15.5478L48.9229 15.9833L49.4571 24.9815L48.0228 24.5425L47.9093 22.4121L44.7193 21.4358L43.4673 23.1484L42.033 22.7095L47.5 15.5478ZM47.7013 17.3914L45.5055 20.3839L47.8579 21.1037L47.7013 17.3914ZM49.5727 25.042L49.9239 23.8945L50.1075 23.9507C50.4288 24.049 50.6814 24.0301 50.8653 23.8939C51.0591 23.7525 51.2443 23.4619 51.4206 23.0223L52.782 19.5988L57.0851 20.9157L55.2942 26.7678L53.9861 26.3674L55.4258 21.6628L53.5784 21.0975L52.6318 23.4933C52.3248 24.2778 51.9556 24.8007 51.5243 25.0619C51.103 25.3178 50.571 25.3475 49.9285 25.1508L49.5727 25.042ZM63.6487 22.9243L61.8578 28.7764L60.5726 28.3831L61.763 24.4932L57.922 27.5719L56.6597 27.1857L58.4506 21.3336L59.7358 21.7269L58.5419 25.6283L62.3865 22.538L63.6487 22.9243ZM64.5179 29.5904L63.2097 29.1901L65.0006 23.338L66.3088 23.7383L65.6205 25.9874L68.1335 26.7564L68.8217 24.5074L70.1298 24.9077L68.3389 30.7598L67.0308 30.3595L67.7788 27.9154L65.2658 27.1463L64.5179 29.5904ZM74.3104 28.3455C74.411 28.0166 74.3812 27.7314 74.2208 27.4899C74.0705 27.2431 73.8232 27.067 73.4789 26.9616C72.8593 26.772 72.4039 26.8795 72.1128 27.284L70.8735 26.9047C71.1198 26.4279 71.5037 26.0895 72.0251 25.8893C72.5565 25.6838 73.1664 25.6864 73.8549 25.8971C74.5816 26.1195 75.1018 26.4836 75.4155 26.9896C75.7369 27.4979 75.7945 28.0886 75.5885 28.7618L74.4086 32.6173L73.1923 32.245L73.396 31.5795C72.8037 31.9839 72.1174 32.0667 71.3372 31.8279C70.7558 31.65 70.3203 31.3369 70.0309 30.8885C69.7514 30.4349 69.6971 29.9289 69.868 29.3704C70.0459 28.789 70.3906 28.4009 70.902 28.206C71.4234 28.0058 72.0513 28.0181 72.7857 28.2429L74.2085 28.6783L74.3104 28.3455ZM71.9506 30.8486C72.356 30.9726 72.7354 30.9632 73.0887 30.8204C73.4443 30.6698 73.6806 30.4033 73.7977 30.0208L73.9065 29.6651L72.5755 29.2578C72.2312 29.1524 71.9336 29.1408 71.6826 29.223C71.4415 29.2998 71.2812 29.4683 71.2016 29.7283C71.122 29.9884 71.1518 30.2193 71.2909 30.4208C71.4324 30.6147 71.6523 30.7573 71.9506 30.8486ZM77.5719 32.8574C77.5157 33.041 77.4166 33.2282 77.2745 33.419L75.9687 35.1026L74.9704 34.7971L76.1758 33.1957C75.8584 32.948 75.7547 32.6444 75.8647 32.2848C75.9373 32.0477 76.0773 31.8772 76.2848 31.7733C76.4922 31.6695 76.7184 31.655 76.9632 31.73C77.2079 31.8049 77.3887 31.9522 77.5055 32.172C77.6247 32.3842 77.6468 32.6126 77.5719 32.8574ZM83.3715 34.2432C83.754 34.3603 84.0777 34.3548 84.3428 34.2268C84.6155 34.1011 84.8273 33.9149 84.9781 33.6682L86.2518 34.058C86.0003 34.6336 85.5781 35.0566 84.985 35.3268C84.3919 35.5971 83.7321 35.6211 83.0053 35.3987C82.1562 35.1388 81.5582 34.6463 81.2112 33.921C80.8666 33.188 80.8324 32.3702 81.1087 31.4676C81.3826 30.5725 81.8636 29.9166 82.5517 29.4997C83.2474 29.0852 84.0237 29.009 84.8805 29.2712C85.6225 29.4983 86.1548 29.8912 86.4774 30.4501C86.8023 31.0013 86.9153 31.5755 86.8162 32.1726L85.5425 31.7828C85.5379 31.497 85.4566 31.2295 85.2986 30.9804C85.1506 30.7259 84.893 30.5425 84.5258 30.4301C84.0668 30.2897 83.6458 30.3532 83.2627 30.6209C82.8873 30.8908 82.613 31.3088 82.4397 31.8749C82.2641 32.4486 82.2602 32.9536 82.4279 33.3898C82.598 33.8183 82.9125 34.1028 83.3715 34.2432ZM92.5229 35.3747L88.4035 34.1141L88.3964 34.137C88.2583 34.5884 88.289 35.0077 88.4883 35.395C88.6877 35.7823 89.0208 36.0474 89.4874 36.1902C89.8087 36.2885 90.0925 36.3042 90.3388 36.2374C90.5952 36.1652 90.7735 36.0609 90.8739 35.9243L92.1591 36.3176C91.9315 36.7331 91.5497 37.0513 91.0136 37.2721C90.4852 37.4953 89.8576 37.4956 89.1308 37.2732C88.2588 37.0064 87.6419 36.5206 87.2803 35.8159C86.921 35.1036 86.8853 34.277 87.1733 33.3361C87.4612 32.3951 87.9496 31.7289 88.6383 31.3373C89.3294 30.938 90.0919 30.866 90.9257 31.1212C91.7289 31.367 92.2907 31.8275 92.6111 32.5029C92.9316 33.1782 92.9571 33.9557 92.6879 34.8354L92.5229 35.3747ZM90.5806 32.2077C90.1675 32.0813 89.7935 32.1007 89.4585 32.2659C89.1311 32.4335 88.8839 32.7217 88.7169 33.1308L91.5168 33.9876C91.6326 33.5545 91.6043 33.182 91.4321 32.8699C91.2699 32.5525 90.9861 32.3318 90.5806 32.2077ZM94.0688 38.6338L92.7607 38.2335L94.5516 32.3814L95.8597 32.7817L95.1715 35.0307L97.6844 35.7998L98.3727 33.5507L99.6808 33.951L97.8899 39.8031L96.5818 39.4028L97.3298 36.9587L94.8168 36.1897L94.0688 38.6338ZM102.331 34.7621L101.787 36.5407L102.957 36.8988C103.607 37.0978 104.069 37.4483 104.342 37.9501C104.618 38.4444 104.665 38.986 104.485 39.575C104.302 40.1717 103.952 40.6043 103.435 40.8727C102.928 41.1358 102.353 41.169 101.711 40.9724L99.2435 40.2174L101.034 34.3653L102.331 34.7621ZM102.459 37.9512L101.45 37.6422L100.874 39.5241L101.883 39.8331C102.197 39.9291 102.47 39.9122 102.702 39.7824C102.942 39.655 103.104 39.4536 103.188 39.1782C103.273 38.9028 103.249 38.6529 103.117 38.4284C102.992 38.2063 102.773 38.0472 102.459 37.9512ZM106.873 36.9301C107.582 36.5279 108.365 36.4579 109.221 36.7201C110.078 36.9823 110.684 37.4772 111.038 38.2048C111.401 38.9348 111.443 39.7549 111.164 40.6653C110.885 41.5756 110.392 42.2319 109.683 42.6341C108.982 43.0386 108.203 43.1098 107.346 42.8476C106.489 42.5854 105.88 42.0893 105.518 41.3594C105.163 40.6318 105.125 39.8128 105.404 38.9025C105.682 37.9921 106.172 37.3347 106.873 36.9301ZM106.726 40.8132C106.902 41.2517 107.227 41.5435 107.701 41.6887C108.175 41.8338 108.604 41.7726 108.987 41.505C109.378 41.2397 109.66 40.824 109.833 40.2579C110.006 39.6918 110.005 39.1895 109.83 38.751C109.662 38.3149 109.341 38.0242 108.867 37.8791C108.392 37.7339 107.96 37.794 107.569 38.0593C107.186 38.3269 106.908 38.7437 106.735 39.3098C106.561 39.8759 106.559 40.377 106.726 40.8132ZM116.198 38.8553C116.925 39.0776 117.454 39.5365 117.785 40.2318C118.124 40.9294 118.147 41.7564 117.854 42.7126C117.561 43.6688 117.076 44.3401 116.397 44.7264C115.726 45.115 115.023 45.197 114.289 44.9722C113.883 44.8481 113.55 44.6666 113.288 44.4276C113.037 44.1833 112.874 43.9242 112.798 43.6502L111.928 46.4959L110.619 46.0956L113.081 38.0519L114.343 38.4381L114.111 39.1955C114.661 38.7111 115.357 38.5977 116.198 38.8553ZM114.425 43.7465C114.884 43.887 115.304 43.8273 115.685 43.5673C116.076 43.302 116.359 42.8825 116.534 42.3088C116.708 41.7427 116.707 41.2404 116.531 40.8019C116.364 40.3657 116.05 40.0774 115.591 39.9369C115.125 39.7941 114.697 39.8515 114.309 40.1092C113.923 40.3591 113.642 40.771 113.466 41.3447L113.452 41.3906C113.277 41.9644 113.278 42.4667 113.455 42.8975C113.635 43.3207 113.959 43.6037 114.425 43.7465ZM127.233 42.3827L125.442 48.2348L124.157 47.8415L125.347 43.9516L121.506 47.0303L120.244 46.6441L122.035 40.792L123.32 41.1853L122.126 45.0867L125.971 41.9964L127.233 42.3827ZM127.807 44.353C128.039 43.8133 128.429 43.4557 128.976 43.2802C129.531 43.107 130.13 43.1187 130.773 43.3154C131.4 43.5074 131.87 43.8184 132.181 44.2484C132.493 44.6785 132.572 45.146 132.417 45.6509C132.23 46.2629 131.817 46.6008 131.178 46.6647C131.443 46.8125 131.647 47.034 131.791 47.329C131.945 47.6187 131.962 47.9587 131.843 48.3488C131.676 48.8919 131.316 49.2627 130.762 49.4612C130.215 49.662 129.586 49.6536 128.875 49.4359C128.186 49.2252 127.667 48.8863 127.316 48.4192C126.965 47.9522 126.841 47.4162 126.942 46.8114L128.216 47.2012C128.2 47.4724 128.278 47.7096 128.45 47.9128C128.632 48.1108 128.883 48.2589 129.205 48.3572C129.541 48.4602 129.83 48.4733 130.071 48.3965C130.315 48.312 130.475 48.1436 130.552 47.8911C130.697 47.4168 130.406 47.0685 129.68 46.8461L128.819 46.5827L129.135 45.55L129.927 45.7923C130.233 45.8859 130.485 45.8961 130.683 45.8229C130.891 45.7444 131.03 45.5903 131.101 45.3608C131.168 45.139 131.133 44.94 130.995 44.7637C130.864 44.5898 130.657 44.4596 130.374 44.3729C130.076 44.2816 129.811 44.2718 129.58 44.3433C129.349 44.4148 129.175 44.5456 129.058 44.7358L127.807 44.353ZM40.8014 27.39L41.1772 26.1622L47.626 28.1357L47.2502 29.3635L44.7143 28.5874L42.6179 35.4378L41.2524 35.02L43.3488 28.1696L40.8014 27.39ZM52.2761 31.9933L50.4852 37.8454L49.2 37.4521L50.3904 33.5622L46.5493 36.641L45.2871 36.2547L47.078 30.4026L48.3632 30.7959L47.1693 34.6973L51.0138 31.607L52.2761 31.9933ZM53.1452 38.6595L51.8371 38.2592L53.628 32.407L54.9361 32.8074L54.2479 35.0564L56.7608 35.8254L57.4491 33.5764L58.7572 33.9767L56.9663 39.8288L55.6582 39.4285L56.4062 36.9844L53.8932 36.2154L53.1452 38.6595ZM61.4074 34.7877L60.8631 36.5663L62.0335 36.9245C62.6838 37.1235 63.1454 37.4739 63.4185 37.9758C63.694 38.47 63.7415 39.0117 63.5613 39.6007C63.3787 40.1974 63.0288 40.6299 62.5116 40.8984C62.0044 41.1614 61.4295 41.1947 60.7869 40.998L58.3199 40.243L60.1108 34.3909L61.4074 34.7877ZM61.5358 37.9769L60.526 37.6679L59.9501 39.5498L60.9599 39.8588C61.2735 39.9548 61.5464 39.9379 61.7786 39.8081C62.0183 39.6807 62.1804 39.4793 62.2646 39.2039C62.3489 38.9285 62.325 38.6786 62.1929 38.4541C62.0685 38.232 61.8494 38.0729 61.5358 37.9769ZM65.2255 42.3563L63.9174 41.956L65.7083 36.1039L67.0164 36.5042L66.272 38.9369L69.2654 37.1925L70.8145 37.6666L67.4508 39.6365L69.0581 43.5292L67.4746 43.0446L66.0613 39.6254L65.2255 42.3563ZM71.491 38.6516C72.1998 38.2494 72.9825 38.1794 73.8393 38.4416C74.6961 38.7038 75.3018 39.1987 75.6564 39.9263C76.0186 40.6563 76.0604 41.4764 75.7819 42.3868C75.5033 43.2971 75.0096 43.9534 74.3009 44.3556C73.5998 44.7601 72.8209 44.8313 71.9641 44.5691C71.1073 44.3069 70.4978 43.8108 70.1356 43.0809C69.781 42.3533 69.743 41.5343 70.0215 40.624C70.3001 39.7136 70.79 39.0562 71.491 38.6516ZM71.3443 42.5347C71.5197 42.9732 71.8445 43.265 72.3188 43.4102C72.7931 43.5553 73.2218 43.4941 73.6048 43.2265C73.9956 42.9612 74.2775 42.5455 74.4508 41.9794C74.624 41.4133 74.623 40.911 74.4476 40.4725C74.2799 40.0364 73.9589 39.7457 73.4846 39.6006C73.0103 39.4554 72.5778 39.5155 72.1871 39.7808C71.804 40.0484 71.5259 40.4652 71.3526 41.0313C71.1794 41.5974 71.1766 42.0985 71.3443 42.5347ZM81.7652 40.8797C82.6508 41.1842 83.2951 41.7034 83.6979 42.4375C84.1008 43.1715 84.1664 43.9822 83.8948 44.8695C83.6233 45.7569 83.1152 46.392 82.3705 46.7749C81.6259 47.1578 80.8014 47.2275 79.897 46.9842L79.2649 49.0497L77.9798 48.6564L78.6118 46.5909C77.7185 46.2841 77.0705 45.7637 76.6676 45.0297C76.2648 44.2956 76.1991 43.485 76.4707 42.5976C76.7423 41.7102 77.2504 41.0751 77.995 40.6922C78.7396 40.3094 79.5679 40.2408 80.48 40.4864L81.1437 38.3177L82.4288 38.711L81.7652 40.8797ZM78.9595 45.4549L80.1323 41.6224C79.6304 41.4855 79.1585 41.5377 78.7166 41.7789C78.277 42.0125 77.9682 42.42 77.7903 43.0014C77.6124 43.5828 77.639 44.0971 77.8703 44.5444C78.1039 44.9839 78.4669 45.2875 78.9595 45.4549ZM82.5867 44.4692C82.7646 43.8878 82.7368 43.3774 82.5032 42.9378C82.272 42.4905 81.9101 42.1832 81.4175 42.0157L80.2447 45.8482C80.7466 45.9851 81.2185 45.9329 81.6604 45.6917C82.1024 45.4505 82.4111 45.043 82.5867 44.4692ZM89.8728 43.3608C90.7584 43.6653 91.4027 44.1846 91.8055 44.9186C92.2084 45.6526 92.274 46.4633 92.0024 47.3507C91.7309 48.2381 91.2228 48.8732 90.4781 49.256C89.7335 49.6389 88.909 49.7087 88.0046 49.4654L87.3725 51.5308L86.0874 51.1375L86.7194 49.0721C85.8261 48.7652 85.1781 48.2448 84.7752 47.5108C84.3724 46.7768 84.3067 45.9661 84.5783 45.0787C84.8499 44.1913 85.3579 43.5562 86.1026 43.1734C86.8472 42.7905 87.6755 42.7219 88.5876 42.9675L89.2513 40.7988L90.5364 41.1921L89.8728 43.3608ZM87.0671 47.9361L88.2399 44.1035C87.738 43.9667 87.2661 44.0188 86.8242 44.2601C86.3846 44.4937 86.0758 44.9011 85.8979 45.4825C85.72 46.0639 85.7466 46.5782 85.9779 47.0255C86.2115 47.4651 86.5745 47.7686 87.0671 47.9361ZM90.6943 46.9504C90.8722 46.369 90.8444 45.8585 90.6108 45.4189C90.3796 44.9716 90.0177 44.6643 89.5251 44.4968L88.3523 48.3294C88.8542 48.4662 89.3261 48.4141 89.768 48.1728C90.21 47.9316 90.5187 47.5241 90.6943 46.9504ZM93.8112 50.3764C93.755 50.56 93.6559 50.7472 93.5138 50.938L92.208 52.6216L91.2097 52.3161L92.4151 50.7147C92.0977 50.467 91.994 50.1633 92.104 49.8038C92.1766 49.5666 92.3166 49.3962 92.5241 49.2923C92.7315 49.1885 92.9577 49.174 93.2024 49.2489C93.4472 49.3238 93.628 49.4712 93.7448 49.691C93.864 49.9032 93.8861 50.1316 93.8112 50.3764ZM98.5762 46.1623L103.671 47.7215L101.88 53.5736L100.572 53.1732L102.012 48.4686L99.5331 47.7101L98.0934 52.4147L96.7853 52.0144L98.5762 46.1623ZM105.267 48.9878C105.975 48.5856 106.758 48.5156 107.615 48.7778C108.472 49.04 109.077 49.5349 109.432 50.2625C109.794 50.9925 109.836 51.8126 109.557 52.7229C109.279 53.6333 108.785 54.2895 108.076 54.6918C107.375 55.0963 106.596 55.1675 105.74 54.9053C104.883 54.6431 104.273 54.147 103.911 53.4171C103.557 52.6894 103.519 51.8705 103.797 50.9601C104.076 50.0498 104.566 49.3924 105.267 48.9878ZM105.12 52.8709C105.295 53.3094 105.62 53.6012 106.094 53.7463C106.569 53.8915 106.997 53.8303 107.38 53.5626C107.771 53.2974 108.053 52.8817 108.226 52.3156C108.4 51.7495 108.399 51.2472 108.223 50.8087C108.055 50.3725 107.734 50.0819 107.26 49.9367C106.786 49.7916 106.353 49.8517 105.963 50.1169C105.58 50.3846 105.301 50.8014 105.128 51.3675C104.955 51.9336 104.952 52.4347 105.12 52.8709ZM115.992 56.6372L115.191 59.2535L113.929 58.8672L114.379 57.3984L110.248 56.1343L109.798 57.603L108.536 57.2168L109.337 54.6005L109.807 54.7445C110.21 54.6586 110.614 54.1172 111.019 53.1202L112.119 50.3068L116.583 51.6728L115.143 56.3774L115.992 56.6372ZM112.245 53.5453C111.9 54.4269 111.554 54.9695 111.207 55.1729L113.835 55.9771L114.923 52.4199L112.927 51.8089L112.245 53.5453ZM119.339 57.7996C119.722 57.9167 120.045 57.9112 120.311 57.7831C120.583 57.6574 120.795 57.4713 120.946 57.2246L122.219 57.6144C121.968 58.19 121.546 58.6129 120.953 58.8832C120.36 59.1535 119.7 59.1774 118.973 58.955C118.124 58.6952 117.526 58.2026 117.179 57.4774C116.834 56.7444 116.8 55.9266 117.076 55.0239C117.35 54.1289 117.831 53.473 118.519 53.0561C119.215 52.6415 119.991 52.5654 120.848 52.8276C121.59 53.0546 122.123 53.4476 122.445 54.0065C122.77 54.5577 122.883 55.1319 122.784 55.729L121.51 55.3392C121.506 55.0534 121.424 54.7859 121.266 54.5367C121.118 54.2823 120.861 54.0989 120.494 53.9865C120.035 53.846 119.614 53.9096 119.23 54.1772C118.855 54.4472 118.581 54.8652 118.407 55.4313C118.232 56.005 118.228 56.51 118.396 56.9461C118.566 57.3747 118.88 57.6592 119.339 57.7996ZM123.89 60.3092L122.582 59.9088L124.373 54.0567L125.681 54.4571L124.936 56.8897L127.93 55.1453L129.479 55.6194L126.115 57.5893L127.723 61.482L126.139 60.9974L124.726 57.5782L123.89 60.3092ZM132.932 58.8345C133.032 58.5055 133.002 58.2203 132.842 57.9788C132.692 57.732 132.444 57.5559 132.1 57.4506C131.481 57.261 131.025 57.3684 130.734 57.7729L129.495 57.3937C129.741 56.9169 130.125 56.5784 130.646 56.3782C131.178 56.1727 131.788 56.1753 132.476 56.386C133.203 56.6084 133.723 56.9726 134.037 57.4785C134.358 57.9868 134.416 58.5775 134.21 59.2507L133.03 63.1062L131.814 62.734L132.017 62.0685C131.425 62.4729 130.739 62.5557 129.958 62.3169C129.377 62.1389 128.942 61.8258 128.652 61.3775C128.373 60.9238 128.318 60.4178 128.489 59.8594C128.667 59.278 129.012 58.8899 129.523 58.695C130.045 58.4948 130.673 58.5071 131.407 58.7318L132.83 59.1672L132.932 58.8345ZM130.572 61.3375C130.977 61.4616 131.357 61.4522 131.71 61.3093C132.066 61.1588 132.302 60.8923 132.419 60.5098L132.528 60.1541L131.197 59.7467C130.853 59.6414 130.555 59.6298 130.304 59.7119C130.063 59.7887 129.903 59.9572 129.823 60.2173C129.743 60.4774 129.773 60.7082 129.912 60.9097C130.054 61.1036 130.274 61.2462 130.572 61.3375ZM135.351 59.2108C135.583 58.6711 135.972 58.3134 136.52 58.1379C137.075 57.9647 137.673 57.9765 138.316 58.1731C138.943 58.3651 139.413 58.6761 139.725 59.1062C140.036 59.5362 140.115 60.0037 139.961 60.5086C139.773 61.1206 139.36 61.4585 138.722 61.5224C138.986 61.6703 139.19 61.8917 139.334 62.1867C139.488 62.4765 139.505 62.8164 139.386 63.2065C139.22 63.7497 138.859 64.1205 138.305 64.319C137.758 64.5198 137.129 64.5113 136.418 64.2936C135.729 64.0829 135.21 63.744 134.859 63.277C134.508 62.8099 134.384 62.274 134.485 61.6692L135.759 62.059C135.743 62.3301 135.821 62.5673 135.993 62.7706C136.175 62.9685 136.427 63.1167 136.748 63.215C137.085 63.318 137.373 63.3311 137.614 63.2542C137.858 63.1698 138.018 63.0013 138.095 62.7489C138.24 62.2746 137.95 61.9262 137.223 61.7038L136.362 61.4405L136.678 60.4077L137.47 60.65C137.776 60.7437 138.028 60.7539 138.226 60.6806C138.434 60.6021 138.574 60.4481 138.644 60.2186C138.712 59.9967 138.676 59.7977 138.538 59.6215C138.407 59.4476 138.2 59.3173 137.917 59.2307C137.619 59.1394 137.354 59.1295 137.123 59.201C136.892 59.2725 136.718 59.4034 136.601 59.5935L135.351 59.2108ZM144.519 62.3805C144.62 62.0515 144.59 61.7663 144.429 61.5248C144.279 61.278 144.032 61.1019 143.687 60.9966C143.068 60.807 142.612 60.9144 142.321 61.3189L141.082 60.9397C141.328 60.4629 141.712 60.1244 142.234 59.9242C142.765 59.7187 143.375 59.7213 144.063 59.932C144.79 60.1544 145.31 60.5186 145.624 61.0245C145.945 61.5328 146.003 62.1235 145.797 62.7967L144.617 66.6522L143.401 66.28L143.604 65.6144C143.012 66.0188 142.326 66.1016 141.546 65.8629C140.964 65.6849 140.529 65.3718 140.239 64.9235C139.96 64.4698 139.906 63.9638 140.077 63.4054C140.254 62.824 140.599 62.4358 141.111 62.241C141.632 62.0408 142.26 62.0531 142.994 62.2778L144.417 62.7132L144.519 62.3805ZM142.159 64.8835C142.565 65.0076 142.944 64.9982 143.297 64.8553C143.653 64.7048 143.889 64.4383 144.006 64.0558L144.115 63.7L142.784 63.2927C142.44 63.1874 142.142 63.1758 141.891 63.2579C141.65 63.3347 141.49 63.5032 141.41 63.7633C141.331 64.0234 141.36 64.2542 141.499 64.4557C141.641 64.6496 141.861 64.7922 142.159 64.8835ZM145.298 66.8856L145.649 65.7381L145.832 65.7943C146.154 65.8926 146.406 65.8737 146.59 65.7376C146.784 65.5961 146.969 65.3055 147.146 64.8659L148.507 61.4424L152.81 62.7593L151.019 68.6114L149.711 68.2111L151.151 63.5064L149.303 62.9411L148.357 65.337C148.05 66.1215 147.681 66.6443 147.249 66.9055C146.828 67.1614 146.296 67.1911 145.653 66.9944L145.298 66.8856ZM157.003 66.2008C157.103 65.8718 157.073 65.5866 156.913 65.3451C156.763 65.0983 156.515 64.9222 156.171 64.8169C155.551 64.6273 155.096 64.7347 154.805 65.1392L153.566 64.76C153.812 64.2832 154.196 63.9447 154.717 63.7445C155.249 63.539 155.859 63.5416 156.547 63.7523C157.274 63.9747 157.794 64.3389 158.108 64.8448C158.429 65.3531 158.487 65.9438 158.281 66.617L157.101 70.4725L155.885 70.1003L156.088 69.4348C155.496 69.8392 154.81 69.922 154.029 69.6832C153.448 69.5053 153.013 69.1921 152.723 68.7438C152.444 68.2902 152.389 67.7841 152.56 67.2257C152.738 66.6443 153.083 66.2562 153.594 66.0613C154.116 65.8611 154.743 65.8734 155.478 66.0981L156.901 66.5335L157.003 66.2008ZM154.643 68.7038C155.048 68.8279 155.428 68.8185 155.781 68.6756C156.136 68.5251 156.373 68.2586 156.49 67.8761L156.599 67.5204L155.268 67.113C154.923 67.0077 154.626 66.9961 154.375 67.0782C154.134 67.1551 153.973 67.3235 153.894 67.5836C153.814 67.8437 153.844 68.0745 153.983 68.276C154.125 68.4699 154.344 68.6125 154.643 68.7038ZM160.264 70.7127C160.208 70.8963 160.109 71.0835 159.967 71.2743L158.661 72.9578L157.663 72.6523L158.868 71.051C158.551 70.8032 158.447 70.4996 158.557 70.1401C158.629 69.9029 158.77 69.7324 158.977 69.6286C159.184 69.5248 159.411 69.5103 159.655 69.5852C159.9 69.6601 160.081 69.8075 160.198 70.0273C160.317 70.2394 160.339 70.4679 160.264 70.7127ZM36.9147 46.2418L35.6066 45.8415L37.3975 39.9894L38.7056 40.3897L37.9611 42.8224L40.9546 41.078L42.5037 41.5521L39.14 43.522L40.7472 47.4147L39.1637 46.9301L37.7504 43.5109L36.9147 46.2418ZM45.9564 44.7672C46.0571 44.4382 46.0272 44.153 45.8669 43.9115C45.7165 43.6647 45.4692 43.4886 45.125 43.3833C44.5053 43.1937 44.0499 43.3011 43.7588 43.7056L42.5196 43.3264C42.7659 42.8496 43.1497 42.5111 43.6711 42.3109C44.2025 42.1054 44.8125 42.108 45.5009 42.3187C46.2277 42.5411 46.7479 42.9053 47.0616 43.4112C47.3829 43.9195 47.4405 44.5102 47.2345 45.1834L46.0546 49.0389L44.8383 48.6667L45.042 48.0011C44.4497 48.4055 43.7635 48.4883 42.9832 48.2496C42.4018 48.0716 41.9664 47.7585 41.6769 47.3102C41.3974 46.8565 41.3431 46.3505 41.514 45.7921C41.6919 45.2107 42.0366 44.8225 42.548 44.6277C43.0694 44.4275 43.6973 44.4398 44.4317 44.6645L45.8546 45.0999L45.9564 44.7672ZM43.5966 47.2702C44.0021 47.3943 44.3814 47.3849 44.7347 47.242C45.0903 47.0915 45.3266 46.825 45.4437 46.4425L45.5526 46.0868L44.2215 45.6794C43.8773 45.5741 43.5796 45.5625 43.3286 45.6446C43.0876 45.7214 42.9272 45.8899 42.8477 46.15C42.7681 46.4101 42.7978 46.6409 42.9369 46.8424C43.0784 47.0363 43.2983 47.1789 43.5966 47.2702ZM48.67 49.8393L47.3619 49.4389L49.1528 43.5868L50.4609 43.9872L49.7164 46.4198L52.7099 44.6754L54.259 45.1495L50.8953 47.1194L52.5025 51.0121L50.919 50.5275L49.5057 47.1083L48.67 49.8393ZM61.8397 52.6146L61.0391 55.2308L59.7769 54.8446L60.2264 53.3758L56.0955 52.1117L55.646 53.5804L54.3838 53.1941L55.1844 50.5779L55.6549 50.7219C56.0576 50.636 56.4618 50.0945 56.8673 49.0976L57.9667 46.2841L62.4303 47.6501L60.9906 52.3548L61.8397 52.6146ZM58.0925 49.5227C57.7474 50.4043 57.4015 50.9468 57.0548 51.1503L59.6825 51.9544L60.7711 48.3973L58.7745 47.7863L58.0925 49.5227ZM68.2702 53.0515L64.1508 51.7908L64.1438 51.8138C64.0057 52.2651 64.0363 52.6844 64.2357 53.0717C64.4351 53.459 64.7681 53.7241 65.2347 53.8669C65.556 53.9652 65.8398 53.981 66.0862 53.9141C66.3425 53.842 66.5209 53.7376 66.6212 53.601L67.9064 53.9943C67.6788 54.4099 67.297 54.7281 66.7609 54.9489C66.2325 55.172 65.6049 55.1724 64.8782 54.95C64.0061 54.6831 63.3893 54.1973 63.0276 53.4927C62.6684 52.7803 62.6327 51.9537 62.9206 51.0128C63.2086 50.0719 63.6969 49.4056 64.3857 49.014C65.0768 48.6148 65.8392 48.5427 66.673 48.7979C67.4763 49.0437 68.0381 49.5043 68.3585 50.1796C68.6789 50.8549 68.7045 51.6324 68.4353 52.5122L68.2702 53.0515ZM66.328 49.8845C65.9149 49.7581 65.5408 49.7775 65.2058 49.9427C64.8785 50.1102 64.6313 50.3985 64.4643 50.8075L67.2641 51.6643C67.3799 51.2313 67.3517 50.8587 67.1795 50.5467C67.0172 50.2293 66.7334 50.0086 66.328 49.8845ZM67.8366 55.7298L68.1877 54.5824L68.3713 54.6385C68.6926 54.7369 68.9452 54.718 69.1291 54.5818C69.323 54.4403 69.5081 54.1498 69.6845 53.7102L71.0459 50.2867L75.3489 51.6035L73.558 57.4556L72.2499 57.0553L73.6896 52.3507L71.8422 51.7853L70.8957 54.1812C70.5886 54.9657 70.2195 55.4886 69.7882 55.7498C69.3668 56.0057 68.8349 56.0353 68.1923 55.8387L67.8366 55.7298ZM79.5414 55.045C79.6421 54.7161 79.6123 54.4309 79.4519 54.1894C79.3015 53.9426 79.0542 53.7665 78.71 53.6612C78.0904 53.4715 77.635 53.579 77.3439 53.9835L76.1046 53.6043C76.3509 53.1275 76.7348 52.789 77.2562 52.5888C77.7876 52.3833 78.3975 52.3859 79.086 52.5966C79.8127 52.819 80.3329 53.1831 80.6466 53.6891C80.9679 54.1974 81.0256 54.7881 80.8196 55.4613L79.6397 59.3168L78.4234 58.9446L78.627 58.279C78.0348 58.6834 77.3485 58.7662 76.5682 58.5274C75.9868 58.3495 75.5514 58.0364 75.2619 57.588C74.9825 57.1344 74.9282 56.6284 75.0991 56.0699C75.277 55.4885 75.6216 55.1004 76.1331 54.9055C76.6545 54.7054 77.2823 54.7176 78.0167 54.9424L79.4396 55.3778L79.5414 55.045ZM77.1817 57.5481C77.5871 57.6721 77.9665 57.6627 78.3197 57.5199C78.6754 57.3693 78.9117 57.1028 79.0287 56.7203L79.1376 56.3646L77.8065 55.9573C77.4623 55.8519 77.1647 55.8403 76.9136 55.9225C76.6726 55.9993 76.5123 56.1678 76.4327 56.4279C76.3531 56.688 76.3829 56.9188 76.522 57.1203C76.6634 57.3142 76.8833 57.4568 77.1817 57.5481ZM82.255 60.1171L80.9469 59.7168L82.7378 53.8647L84.0459 54.265L83.3577 56.5141L84.356 56.8196C84.7061 56.1403 85.1965 55.6587 85.8271 55.3749C86.4578 55.091 87.1365 55.0602 87.8632 55.2826C88.7124 55.5425 89.3092 56.0389 89.6538 56.7718C90.0008 57.4971 90.0362 58.3111 89.7599 59.2137C89.4813 60.1241 88.9953 60.7827 88.3019 61.1896C87.6085 61.5965 86.8372 61.67 85.9881 61.4101C85.2307 61.1784 84.6672 60.7508 84.2975 60.1273C83.9377 59.4985 83.8275 58.7787 83.9669 57.968L83.003 57.673L82.255 60.1171ZM85.3877 59.3942C85.5578 59.8227 85.8761 60.1084 86.3427 60.2512C86.8094 60.394 87.2292 60.3342 87.6023 60.0719C87.9854 59.8043 88.2647 59.3837 88.4403 58.8099C88.6159 58.2362 88.6187 57.7351 88.4486 57.3065C88.2886 56.8727 87.9752 56.5844 87.5086 56.4416C87.0419 56.2988 86.6171 56.3612 86.234 56.6288C85.8609 56.8911 85.5866 57.3091 85.411 57.8829C85.2354 58.4566 85.2277 58.9604 85.3877 59.3942ZM90.6404 57.538L90.9915 56.3906L96.0404 57.9357L95.6892 59.0831L93.8189 58.5107L92.3791 63.2154L91.071 62.8151L92.5108 58.1104L90.6404 57.538ZM103.015 60.0701L104.426 60.502L98.8092 67.5801L97.4093 67.1517L99.0181 65.1341L98.5284 58.697L99.9397 59.129L100.196 63.7878L103.015 60.0701ZM106.892 67.6567L105.584 67.2564L107.375 61.4043L108.683 61.8046L107.995 64.0536L110.508 64.8227L111.196 62.5736L112.504 62.9739L110.713 68.826L109.405 68.4257L110.153 65.9816L107.64 65.2126L106.892 67.6567ZM117.975 68.2625L113.856 67.0019L113.849 67.0248C113.711 67.4762 113.742 67.8955 113.941 68.2828C114.14 68.6701 114.473 68.9352 114.94 69.078C115.261 69.1763 115.545 69.192 115.791 69.1252C116.048 69.053 116.226 68.9487 116.326 68.8121L117.612 69.2054C117.384 69.621 117.002 69.9391 116.466 70.1599C115.938 70.3831 115.31 70.3834 114.583 70.161C113.711 69.8942 113.094 69.4084 112.733 68.7037C112.374 67.9914 112.338 67.1648 112.626 66.2239C112.914 65.2829 113.402 64.6167 114.091 64.2251C114.782 63.8258 115.544 63.7538 116.378 64.009C117.181 64.2548 117.743 64.7153 118.064 65.3907C118.384 66.066 118.41 66.8435 118.14 67.7232L117.975 68.2625ZM116.033 65.0956C115.62 64.9691 115.246 64.9885 114.911 65.1537C114.584 65.3213 114.336 65.6096 114.169 66.0186L116.969 66.8754C117.085 66.4423 117.057 66.0698 116.885 65.7577C116.722 65.4403 116.439 65.2196 116.033 65.0956ZM124.122 70.1436L120.003 68.8829L119.996 68.9059C119.857 69.3572 119.888 69.7765 120.088 70.1638C120.287 70.5511 120.62 70.8162 121.087 70.959C121.408 71.0573 121.692 71.073 121.938 71.0062C122.194 70.9341 122.373 70.8297 122.473 70.6931L123.758 71.0864C123.531 71.502 123.149 71.8202 122.613 72.041C122.084 72.2641 121.457 72.2645 120.73 72.0421C119.858 71.7752 119.241 71.2894 118.879 70.5847C118.52 69.8724 118.484 69.0458 118.772 68.1049C119.06 67.1639 119.549 66.4977 120.237 66.1061C120.929 65.7068 121.691 65.6348 122.525 65.89C123.328 66.1358 123.89 66.5964 124.21 67.2717C124.531 67.947 124.556 68.7245 124.287 69.6043L124.122 70.1436ZM122.18 66.9766C121.767 66.8502 121.393 66.8695 121.058 67.0347C120.73 67.2023 120.483 67.4906 120.316 67.8996L123.116 68.7564C123.232 68.3233 123.204 67.9508 123.031 67.6387C122.869 67.3214 122.585 67.1006 122.18 66.9766ZM121.399 63.2114C121.599 63.1052 121.81 63.0861 122.032 63.154C122.254 63.2219 122.414 63.3545 122.512 63.552C122.621 63.7442 122.642 63.9474 122.577 64.1616C122.511 64.3758 122.379 64.5359 122.179 64.6421C121.989 64.743 121.783 64.7595 121.561 64.6916C121.34 64.6237 121.174 64.4937 121.066 64.3015C120.967 64.104 120.951 63.8982 121.016 63.684C121.082 63.4698 121.21 63.3123 121.399 63.2114ZM123.832 63.9558C124.032 63.8497 124.243 63.8305 124.465 63.8984C124.686 63.9663 124.847 64.099 124.945 64.2965C125.054 64.4886 125.075 64.6918 125.01 64.906C124.944 65.1202 124.811 65.2804 124.612 65.3866C124.422 65.4874 124.216 65.5039 123.994 65.436C123.772 65.3681 123.607 65.2381 123.498 65.0459C123.4 64.8485 123.383 64.6426 123.449 64.4284C123.515 64.2142 123.642 64.0567 123.832 63.9558ZM126.629 73.6968L128.42 67.8447L131.048 68.6488C131.675 68.8408 132.11 69.1286 132.352 69.5123C132.595 69.896 132.648 70.3097 132.512 70.7534C132.414 71.0747 132.252 71.3179 132.025 71.4829C131.809 71.6426 131.572 71.7333 131.315 71.7549C131.587 71.9303 131.785 72.1709 131.909 72.4765C132.041 72.7845 132.05 73.1259 131.935 73.5008C131.785 73.9904 131.479 74.3358 131.015 74.5371C130.562 74.733 130.014 74.7327 129.372 74.536L126.629 73.6968ZM129.977 71.9854L128.68 71.5886L128.223 73.0803L129.52 73.4771C129.811 73.5661 130.053 73.5689 130.245 73.4857C130.448 73.3972 130.586 73.2343 130.658 72.9972C130.808 72.5076 130.581 72.1703 129.977 71.9854ZM130.578 69.6094L129.396 69.2478L128.982 70.6018L130.164 70.9635C130.416 71.0407 130.63 71.0392 130.805 70.959C130.988 70.881 131.112 70.735 131.178 70.5208C131.314 70.0771 131.114 69.7733 130.578 69.6094ZM33.4031 57.7166L32.095 57.3162L33.8859 51.4641L35.194 51.8644L34.4496 54.2971L37.4431 52.5527L38.9922 53.0268L35.6285 54.9967L37.2357 58.8894L35.6522 58.4048L34.2389 54.9856L33.4031 57.7166ZM39.6687 54.0119C40.3774 53.6096 41.1601 53.5396 42.0169 53.8018C42.8737 54.064 43.4794 54.5589 43.834 55.2866C44.1962 56.0165 44.2381 56.8367 43.9595 57.747C43.6809 58.6573 43.1872 59.3136 42.4785 59.7158C41.7774 60.1203 40.9985 60.1915 40.1417 59.9293C39.285 59.6671 38.6754 59.1711 38.3132 58.4411C37.9586 57.7135 37.9206 56.8945 38.1992 55.9842C38.4778 55.0739 38.9676 54.4164 39.6687 54.0119ZM39.5219 57.8949C39.6973 58.3334 40.0221 58.6252 40.4964 58.7704C40.9707 58.9155 41.3994 58.8543 41.7825 58.5867C42.1732 58.3214 42.4552 57.9057 42.6284 57.3396C42.8016 56.7736 42.8006 56.2713 42.6252 55.8327C42.4575 55.3966 42.1365 55.1059 41.6622 54.9608C41.188 54.8156 40.7554 54.8757 40.3647 55.141C39.9816 55.4086 39.7035 55.8254 39.5302 56.3915C39.357 56.9576 39.3542 57.4587 39.5219 57.8949ZM45.8765 55.1336L47.5289 55.6392L48.0885 60.4537L51.2467 56.777L52.8761 57.2756L51.0852 63.1277L49.823 62.7414L51.0485 58.7368L48.0744 62.1812L47.1105 61.8863L46.5699 57.3787L45.3479 61.3719L44.0856 60.9857L45.8765 55.1336ZM54.2307 57.6901L59.3254 59.2493L57.5345 65.1014L56.2264 64.7011L57.6662 59.9964L55.1876 59.2379L53.7479 63.9426L52.4398 63.5422L54.2307 57.6901ZM63.5068 62.6874C63.6074 62.3584 63.5776 62.0732 63.4172 61.8317C63.2669 61.5849 63.0196 61.4088 62.6753 61.3035C62.0557 61.1138 61.6003 61.2213 61.3092 61.6258L60.0699 61.2466C60.3162 60.7698 60.7001 60.4313 61.2215 60.2311C61.7529 60.0256 62.3628 60.0282 63.0513 60.2389C63.778 60.4613 64.2982 60.8255 64.6119 61.3314C64.9333 61.8397 64.9909 62.4304 64.7849 63.1036L63.605 66.9591L62.3887 66.5869L62.5924 65.9213C62.0001 66.3257 61.3138 66.4085 60.5336 66.1697C59.9522 65.9918 59.5167 65.6787 59.2273 65.2304C58.9478 64.7767 58.8935 64.2707 59.0644 63.7122C59.2423 63.1309 59.587 62.7427 60.0984 62.5479C60.6198 62.3477 61.2477 62.3599 61.9821 62.5847L63.4049 63.0201L63.5068 62.6874ZM61.147 65.1904C61.5524 65.3145 61.9318 65.3051 62.2851 65.1622C62.6407 65.0117 62.877 64.7452 62.9941 64.3627L63.1029 64.0069L61.7719 63.5996C61.4276 63.4943 61.13 63.4827 60.879 63.5648C60.6379 63.6416 60.4776 63.8101 60.398 64.0702C60.3184 64.3303 60.3482 64.5611 60.4873 64.7626C60.6288 64.9565 60.8487 65.0991 61.147 65.1904ZM66.2204 67.7595L64.9122 67.3591L66.7031 61.507L68.0112 61.9074L67.323 64.1564L69.8359 64.9254L70.5242 62.6764L71.8323 63.0767L70.0414 68.9288L68.7333 68.5285L69.4813 66.0844L66.9683 65.3153L66.2204 67.7595ZM78.3839 65.0817L76.593 70.9338L75.3079 70.5405L76.4983 66.6505L72.6572 69.7293L71.395 69.343L73.1859 63.4909L74.4711 63.8842L73.2771 67.7856L77.1217 64.6954L78.3839 65.0817ZM84.9339 67.0861L83.143 72.9382L81.8579 72.5449L83.0483 68.655L79.2072 71.7338L77.945 71.3475L79.7359 65.4954L81.0211 65.8887L79.8271 69.7901L83.6717 66.6999L84.9339 67.0861Z" fill="white"/>
</g>
<defs>
<linearGradient id="paint0_linear_201_750" x1="123.89" y1="26.9875" x2="92.7871" y2="130.479" gradientUnits="userSpaceOnUse">
<stop stop-color="#66BEBE"/>
<stop offset="1" stop-color="#65DEA3"/>
</linearGradient>
<clipPath id="clip0_201_750">
<rect width="190" height="120" fill="white"/>
</clipPath>
</defs>
</svg>
