<svg width="190" height="120" viewBox="0 0 190 120" fill="none" xmlns="http://www.w3.org/2000/svg">
<g clip-path="url(#clip0_201_711)">
<path fill-rule="evenodd" clip-rule="evenodd" d="M155.136 31.9608C168.907 36.0992 176.715 50.6172 172.577 64.3877L164.801 90.2609C160.663 104.031 146.145 111.84 132.374 107.701L101.759 98.5004C100.743 98.1951 99.6478 98.3059 98.7135 98.8084L90.2376 103.367C87.8056 104.675 84.7737 103.764 83.4657 101.332L78.907 92.8559C78.4045 91.9216 77.5515 91.2252 76.5355 90.9199L37.651 79.2338C23.8806 75.0954 16.0723 60.5774 20.2107 46.807L27.9864 20.9338C32.1249 7.16333 46.6429 -0.644953 60.4133 3.4935L155.136 31.9608Z" fill="url(#paint0_linear_201_711)"/>
<path d="M42.8121 23.6288L43.1913 22.3895L43.3864 22.4492C43.8301 22.585 44.1835 22.5509 44.4467 22.347C44.7176 22.1454 44.9696 21.7457 45.2028 21.1477L47.1272 16.0895L52.3597 17.6907L49.8875 25.7689L48.5221 25.3511L50.6185 18.5007L47.9793 17.693L46.4713 21.6363C46.3049 22.0707 46.1255 22.4383 45.9331 22.7391C45.7482 23.0423 45.5231 23.2997 45.2575 23.5112C45.002 23.7175 44.7002 23.8426 44.352 23.8867C44.0062 23.9231 43.6192 23.8757 43.1908 23.7447L42.8121 23.6288ZM58.3798 21.9676L56.5889 27.8197L55.3037 27.4264L56.4941 23.5365L52.653 26.6153L51.3908 26.229L53.1817 20.3769L54.4669 20.7702L53.273 24.6716L57.1175 21.5813L58.3798 21.9676ZM64.3277 28.9331L63.527 31.5493L62.2648 31.163L62.7143 29.6943L58.5834 28.4301L58.1339 29.8989L56.8717 29.5126L57.6723 26.8964L58.1428 27.0403C58.5456 26.9544 58.9497 26.413 59.3552 25.416L60.4546 22.6026L64.9183 23.9686L63.4785 28.6732L64.3277 28.9331ZM60.5804 25.8412C60.2353 26.7228 59.8894 27.2653 59.5427 27.4687L62.1704 28.2729L63.259 24.7157L61.2624 24.1047L60.5804 25.8412ZM73.5169 31.7452L72.7162 34.3614L71.454 33.9751L71.9035 32.5064L67.7726 31.2422L67.3231 32.711L66.0609 32.3247L66.8615 29.7085L67.332 29.8524C67.7348 29.7665 68.1389 29.2251 68.5444 28.2281L69.6438 25.4147L74.1075 26.7807L72.6677 31.4853L73.5169 31.7452ZM69.7696 28.6533C69.4245 29.5349 69.0786 30.0774 68.7319 30.2809L71.3596 31.085L72.4482 27.5278L70.4516 26.9168L69.7696 28.6533ZM81.0387 28.9018L79.2478 34.7539L77.9627 34.3606L79.1531 30.4707L75.312 33.5495L74.0498 33.1632L75.8407 27.3111L77.1258 27.7044L75.9319 31.6058L79.7765 28.5156L81.0387 28.9018ZM81.6131 30.8722C81.8452 30.3325 82.2349 29.9748 82.7823 29.7993C83.3372 29.6261 83.936 29.6379 84.5786 29.8345C85.2059 30.0265 85.6754 30.3375 85.9872 30.7676C86.299 31.1976 86.3777 31.6651 86.2231 32.17C86.0359 32.782 85.6229 33.1199 84.9842 33.1838C85.2486 33.3317 85.4527 33.5531 85.5967 33.8481C85.7506 34.1379 85.7679 34.4778 85.6485 34.8679C85.4823 35.4111 85.122 35.7819 84.5677 35.9804C84.021 36.1812 83.3919 36.1727 82.6805 35.955C81.992 35.7443 81.4724 35.4054 81.1217 34.9384C80.7711 34.4713 80.6464 33.9354 80.7479 33.3306L82.0215 33.7204C82.0055 33.9915 82.0835 34.2287 82.2555 34.432C82.4376 34.6299 82.6893 34.7781 83.0106 34.8764C83.3471 34.9794 83.636 34.9925 83.877 34.9156C84.1204 34.8312 84.2807 34.6627 84.3579 34.4103C84.5031 33.936 84.2123 33.5876 83.4856 33.3652L82.625 33.1019L82.941 32.0691L83.7327 32.3114C84.0387 32.4051 84.2908 32.4153 84.4889 32.342C84.697 32.2635 84.8361 32.1095 84.9064 31.88C84.9743 31.6581 84.939 31.4591 84.8005 31.2829C84.6696 31.109 84.4627 30.9787 84.1797 30.8921C83.8813 30.8008 83.6166 30.7909 83.3856 30.8624C83.1545 30.9339 82.9806 31.0648 82.8639 31.2549L81.6131 30.8722ZM90.7815 34.0419C90.8822 33.7129 90.8523 33.4277 90.692 33.1862C90.5416 32.9394 90.2943 32.7633 89.9501 32.658C89.3305 32.4684 88.8751 32.5758 88.584 32.9803L87.3447 32.6011C87.591 32.1243 87.9749 31.7858 88.4963 31.5856C89.0277 31.3801 89.6376 31.3827 90.3261 31.5934C91.0528 31.8158 91.573 32.18 91.8867 32.6859C92.208 33.1942 92.2657 33.7849 92.0597 34.4581L90.8798 38.3136L89.6635 37.9414L89.8671 37.2758C89.2749 37.6802 88.5886 37.763 87.8083 37.5243C87.2269 37.3463 86.7915 37.0332 86.502 36.5849C86.2225 36.1312 86.1682 35.6252 86.3391 35.0668C86.5171 34.4854 86.8617 34.0972 87.3731 33.9024C87.8945 33.7022 88.5224 33.7145 89.2568 33.9392L90.6797 34.3746L90.7815 34.0419ZM88.4218 36.5449C88.8272 36.669 89.2066 36.6596 89.5598 36.5167C89.9154 36.3662 90.1518 36.0997 90.2688 35.7172L90.3777 35.3615L89.0466 34.9541C88.7024 34.8488 88.4047 34.8372 88.1537 34.9193C87.9127 34.9961 87.7524 35.1646 87.6728 35.4247C87.5932 35.6848 87.6229 35.9156 87.7621 36.1171C87.9035 36.311 88.1234 36.4536 88.4218 36.5449ZM99.1759 34.4523L97.385 40.3044L96.0999 39.9111L97.2903 36.0212L93.4492 39.0999L92.187 38.7137L93.9779 32.8615L95.2631 33.2548L94.0691 37.1562L97.9137 34.066L99.1759 34.4523ZM96.5103 30.7376C96.426 31.013 96.4323 31.2659 96.5291 31.4963C96.6259 31.7268 96.8158 31.8853 97.0989 31.9719C97.3819 32.0585 97.628 32.0334 97.8372 31.8967C98.0464 31.7599 98.1931 31.5538 98.2774 31.2784L99.3331 31.6015C99.1422 32.1705 98.8181 32.5733 98.3609 32.8099C97.9113 33.0488 97.3958 33.0793 96.8144 32.9013C96.233 32.7234 95.8191 32.4085 95.5725 31.9566C95.3336 31.507 95.2943 30.993 95.4546 30.4146L96.5103 30.7376ZM100.045 41.1184L98.737 40.7181L100.528 34.866L101.836 35.2663L101.148 37.5154L103.661 38.2844L104.349 36.0354L105.657 36.4357L103.866 42.2878L102.558 41.8875L103.306 39.4434L100.793 38.6743L100.045 41.1184ZM109.838 39.8735C109.938 39.5446 109.908 39.2593 109.748 39.0179C109.598 38.7711 109.35 38.595 109.006 38.4896C108.387 38.3 107.931 38.4075 107.64 38.812L106.401 38.4327C106.647 37.9559 107.031 37.6174 107.552 37.4173C108.084 37.2118 108.694 37.2144 109.382 37.4251C110.109 37.6475 110.629 38.0116 110.943 38.5176C111.264 39.0258 111.322 39.6166 111.116 40.2898L109.936 44.1453L108.72 43.773L108.923 43.1075C108.331 43.5119 107.645 43.5947 106.864 43.3559C106.283 43.178 105.848 42.8649 105.558 42.4165C105.279 41.9629 105.224 41.4568 105.395 40.8984C105.573 40.317 105.918 39.9289 106.429 39.734C106.951 39.5338 107.579 39.5461 108.313 39.7708L109.736 40.2063L109.838 39.8735ZM107.478 42.3765C107.883 42.5006 108.263 42.4912 108.616 42.3483C108.972 42.1978 109.208 41.9313 109.325 41.5488L109.434 41.1931L108.103 40.7858C107.758 40.6804 107.461 40.6688 107.21 40.7509C106.969 40.8278 106.808 40.9962 106.729 41.2563C106.649 41.5164 106.679 41.7472 106.818 41.9488C106.96 42.1427 107.18 42.2852 107.478 42.3765ZM116.338 44.9876C116.72 45.1046 117.044 45.0991 117.309 44.9711C117.582 44.8454 117.794 44.6592 117.945 44.4125L119.218 44.8023C118.967 45.3779 118.545 45.8009 117.952 46.0712C117.358 46.3415 116.699 46.3654 115.972 46.143C115.123 45.8832 114.525 45.3906 114.178 44.6653C113.833 43.9324 113.799 43.1146 114.075 42.2119C114.349 41.3169 114.83 40.6609 115.518 40.244C116.214 39.8295 116.99 39.7533 117.847 40.0155C118.589 40.2426 119.121 40.6356 119.444 41.1944C119.769 41.7456 119.882 42.3198 119.783 42.917L118.509 42.5272C118.504 42.2413 118.423 41.9738 118.265 41.7247C118.117 41.4702 117.86 41.2868 117.492 41.1745C117.033 41.034 116.612 41.0976 116.229 41.3652C115.854 41.6351 115.579 42.0532 115.406 42.6192C115.231 43.193 115.227 43.6979 115.394 44.1341C115.564 44.5626 115.879 44.8471 116.338 44.9876ZM125.967 47.7964L125.167 50.4126L123.905 50.0264L124.354 48.5576L120.223 47.2934L119.774 48.7622L118.512 48.3759L119.312 45.7597L119.783 45.9037C120.185 45.8178 120.59 45.2763 120.995 44.2794L122.094 41.4659L126.558 42.8319L125.118 47.5365L125.967 47.7964ZM122.22 44.7045C121.875 45.5861 121.529 46.1286 121.183 46.3321L123.81 47.1362L124.899 43.5791L122.902 42.9681L122.22 44.7045ZM132.398 48.2333L128.279 46.9726L128.272 46.9956C128.133 47.4469 128.164 47.8662 128.363 48.2535C128.563 48.6408 128.896 48.9059 129.362 49.0487C129.684 49.147 129.968 49.1628 130.214 49.0959C130.47 49.0238 130.649 48.9194 130.749 48.7828L132.034 49.1761C131.807 49.5917 131.425 49.9099 130.889 50.1307C130.36 50.3538 129.733 50.3542 129.006 50.1318C128.134 49.8649 127.517 49.3791 127.155 48.6745C126.796 47.9621 126.76 47.1355 127.048 46.1946C127.336 45.2537 127.825 44.5874 128.513 44.1958C129.204 43.7966 129.967 43.7245 130.801 43.9797C131.604 44.2255 132.166 44.6861 132.486 45.3614C132.807 46.0367 132.832 46.8142 132.563 47.694L132.398 48.2333ZM130.456 45.0663C130.043 44.9399 129.669 44.9593 129.334 45.1245C129.006 45.292 128.759 45.5803 128.592 45.9893L131.392 46.8461C131.508 46.4131 131.479 46.0405 131.307 45.7284C131.145 45.4111 130.861 45.1904 130.456 45.0663ZM131.964 50.9116L132.315 49.7642L132.499 49.8203C132.82 49.9187 133.073 49.8997 133.257 49.7636C133.451 49.6221 133.636 49.3316 133.812 48.892L135.174 45.4685L139.477 46.7853L137.686 52.6374L136.378 52.2371L137.817 47.5325L135.97 46.9671L135.023 49.363C134.716 50.1475 134.347 50.6704 133.916 50.9316C133.495 51.1875 132.963 51.2171 132.32 51.0205L131.964 50.9116ZM143.669 50.2268C143.77 49.8979 143.74 49.6127 143.58 49.3712C143.429 49.1244 143.182 48.9483 142.838 48.843C142.218 48.6533 141.763 48.7608 141.472 49.1653L140.232 48.786C140.479 48.3093 140.863 47.9708 141.384 47.7706C141.915 47.5651 142.525 47.5677 143.214 47.7784C143.94 48.0008 144.461 48.3649 144.774 48.8709C145.096 49.3792 145.153 49.9699 144.947 50.6431L143.767 54.4986L142.551 54.1264L142.755 53.4608C142.163 53.8652 141.476 53.948 140.696 53.7092C140.115 53.5313 139.679 53.2182 139.39 52.7698C139.11 52.3162 139.056 51.8102 139.227 51.2517C139.405 50.6703 139.749 50.2822 140.261 50.0873C140.782 49.8871 141.41 49.8994 142.144 50.1242L143.567 50.5596L143.669 50.2268ZM141.309 52.7299C141.715 52.8539 142.094 52.8445 142.447 52.7017C142.803 52.5511 143.039 52.2846 143.156 51.9021L143.265 51.5464L141.934 51.1391C141.59 51.0337 141.292 51.0221 141.041 51.1043C140.8 51.1811 140.64 51.3496 140.56 51.6097C140.481 51.8697 140.511 52.1006 140.65 52.3021C140.791 52.496 141.011 52.6386 141.309 52.7299ZM144.448 54.7319L144.799 53.5845L144.983 53.6407C145.304 53.739 145.557 53.7201 145.741 53.5839C145.934 53.4425 146.12 53.1519 146.296 52.7123L147.657 49.2888L151.96 50.6056L150.169 56.4578L148.861 56.0574L150.301 51.3528L148.454 50.7874L147.507 53.1833C147.2 53.9678 146.831 54.4907 146.4 54.7519C145.978 55.0078 145.446 55.0375 144.804 54.8408L144.448 54.7319ZM46.3714 35.9873L45.5708 38.6036L44.3086 38.2173L44.7581 36.7485L40.6272 35.4844L40.1777 36.9531L38.9155 36.5669L39.7161 33.9506L40.1866 34.0946C40.5893 34.0087 40.9935 33.4673 41.399 32.4703L42.4984 29.6568L46.962 31.0228L45.5223 35.7275L46.3714 35.9873ZM42.6242 32.8954C42.2791 33.777 41.9332 34.3196 41.5865 34.523L44.2142 35.3271L45.3028 31.77L43.3062 31.159L42.6242 32.8954ZM52.8019 36.4242L48.6825 35.1635L48.6755 35.1865C48.5374 35.6378 48.568 36.0572 48.7674 36.4445C48.9668 36.8318 49.2998 37.0968 49.7664 37.2396C50.0877 37.3379 50.3715 37.3537 50.6179 37.2868C50.8742 37.2147 51.0526 37.1103 51.1529 36.9737L52.4381 37.367C52.2105 37.7826 51.8287 38.1008 51.2926 38.3216C50.7642 38.5447 50.1366 38.5451 49.4099 38.3227C48.5378 38.0558 47.921 37.57 47.5593 36.8654C47.2 36.1531 47.1644 35.3264 47.4523 34.3855C47.7403 33.4446 48.2286 32.7783 48.9174 32.3867C49.6084 31.9875 50.3709 31.9154 51.2047 32.1706C52.008 32.4164 52.5698 32.877 52.8902 33.5523C53.2106 34.2276 53.2362 35.0052 52.967 35.8849L52.8019 36.4242ZM50.8597 33.2572C50.4466 33.1308 50.0725 33.1502 49.7375 33.3154C49.4102 33.4829 49.163 33.7712 48.996 34.1802L51.7958 35.0371C51.9116 34.604 51.8834 34.2314 51.7112 33.9194C51.5489 33.602 51.2651 33.3813 50.8597 33.2572ZM53.83 34.3795L54.1812 33.2321L59.23 34.7772L58.8789 35.9246L57.0085 35.3522L55.5688 40.0569L54.2606 39.6566L55.7004 34.9519L53.83 34.3795ZM62.8405 38.0405C62.9412 37.7116 62.9113 37.4264 62.751 37.1849C62.6006 36.9381 62.3533 36.762 62.0091 36.6566C61.3894 36.467 60.934 36.5745 60.6429 36.979L59.4037 36.5997C59.65 36.1229 60.0338 35.7845 60.5552 35.5843C61.0866 35.3788 61.6966 35.3814 62.385 35.5921C63.1118 35.8145 63.632 36.1786 63.9457 36.6846C64.267 37.1929 64.3246 37.7836 64.1186 38.4568L62.9387 42.3123L61.7224 41.9401L61.9261 41.2745C61.3338 41.6789 60.6476 41.7617 59.8673 41.5229C59.2859 41.345 58.8505 41.0319 58.561 40.5835C58.2815 40.1299 58.2272 39.6239 58.3981 39.0654C58.576 38.484 58.9207 38.0959 59.4321 37.901C59.9535 37.7008 60.5814 37.7131 61.3158 37.9379L62.7387 38.3733L62.8405 38.0405ZM60.4807 40.5436C60.8862 40.6676 61.2655 40.6582 61.6188 40.5154C61.9744 40.3648 62.2107 40.0983 62.3278 39.7158L62.4367 39.3601L61.1056 38.9528C60.7613 38.8474 60.4637 38.8358 60.2127 38.918C59.9717 38.9948 59.8113 39.1633 59.7317 39.4234C59.6522 39.6834 59.6819 39.9143 59.821 40.1158C59.9625 40.3097 60.1824 40.4523 60.4807 40.5436ZM63.6193 42.5456L63.9705 41.3982L64.1541 41.4544C64.4754 41.5527 64.7279 41.5338 64.9118 41.3976C65.1057 41.2562 65.2908 40.9656 65.4672 40.526L66.8286 37.1025L71.1316 38.4193L69.3407 44.2714L68.0326 43.8711L69.4724 39.1665L67.6249 38.6011L66.6784 40.997C66.3714 41.7815 66.0022 42.3044 65.5709 42.5656C65.1496 42.8215 64.6176 42.8511 63.975 42.6545L63.6193 42.5456ZM73.7939 39.2341L73.2496 41.0126L74.42 41.3708C75.0702 41.5698 75.5319 41.9202 75.805 42.4221C76.0804 42.9164 76.128 43.458 75.9477 44.047C75.7651 44.6437 75.4152 45.0763 74.898 45.3447C74.3909 45.6078 73.816 45.641 73.1734 45.4443L70.7063 44.6893L72.4972 38.8372L73.7939 39.2341ZM73.9222 42.4232L72.9125 42.1142L72.3366 43.9961L73.3463 44.3051C73.66 44.4011 73.9329 44.3842 74.165 44.2544C74.4048 44.127 74.5668 43.9256 74.6511 43.6502C74.7354 43.3748 74.7114 43.1249 74.5794 42.9004C74.4549 42.6783 74.2359 42.5192 73.9222 42.4232ZM77.6119 46.8026L76.3038 46.4023L78.0947 40.5502L79.4028 40.9505L78.7146 43.1996L81.2275 43.9686L81.9158 41.7196L83.2239 42.1199L81.433 47.972L80.1249 47.5717L80.8729 45.1276L78.3599 44.3585L77.6119 46.8026ZM85.8741 42.9309L85.3298 44.7095L86.5003 45.0677C87.1505 45.2667 87.6121 45.6171 87.8852 46.119C88.1607 46.6132 88.2083 47.1549 88.028 47.7439C87.8454 48.3406 87.4955 48.7731 86.9783 49.0415C86.4711 49.3046 85.8962 49.3379 85.2537 49.1412L82.7866 48.3862L84.5775 42.5341L85.8741 42.9309ZM91.2328 44.5708L89.4419 50.4229L88.1453 50.0261L89.9362 44.174L91.2328 44.5708ZM86.0025 46.1201L84.9927 45.8111L84.4168 47.6929L85.4266 48.0019C85.7402 48.0979 86.0131 48.081 86.2453 47.9513C86.485 47.8239 86.6471 47.6225 86.7313 47.3471C86.8156 47.0717 86.7917 46.8218 86.6596 46.5973C86.5352 46.3751 86.3161 46.2161 86.0025 46.1201ZM97.7823 46.5751L95.9914 52.4272L94.7062 52.0339L95.8966 48.144L92.0556 51.2228L90.7933 50.8365L92.5842 44.9844L93.8694 45.3777L92.6755 49.2791L96.5201 46.1888L97.7823 46.5751ZM95.1166 42.8605C95.0323 43.1359 95.0386 43.3888 95.1354 43.6192C95.2322 43.8496 95.4221 44.0081 95.7052 44.0947C95.9882 44.1813 96.2343 44.1563 96.4435 44.0195C96.6527 43.8827 96.7994 43.6766 96.8837 43.4012L97.9394 43.7243C97.7485 44.2934 97.4245 44.6962 96.9672 44.9327C96.5176 45.1716 96.0021 45.2021 95.4208 45.0242C94.8394 44.8463 94.4254 44.5313 94.1789 44.0794C93.94 43.6298 93.9007 43.1158 94.0609 42.5374L95.1166 42.8605ZM104.521 48.4867C105.248 48.7091 105.777 49.168 106.108 49.8633C106.446 50.5609 106.469 51.3879 106.177 52.3441C105.884 53.3003 105.398 53.9716 104.72 54.3579C104.049 54.7465 103.346 54.8284 102.611 54.6037C102.206 54.4796 101.872 54.2981 101.611 54.0591C101.359 53.8148 101.196 53.5557 101.121 53.2817L100.25 56.1274L98.942 55.7271L101.404 47.6833L102.666 48.0696L102.434 48.8269C102.984 48.3426 103.68 48.2292 104.521 48.4867ZM102.748 53.378C103.207 53.5185 103.627 53.4588 104.008 53.1988C104.398 52.9335 104.682 52.514 104.857 51.9403C105.03 51.3742 105.029 50.8719 104.854 50.4334C104.686 49.9972 104.373 49.7089 103.914 49.5684C103.447 49.4256 103.02 49.483 102.631 49.7407C102.245 49.9906 101.964 50.4025 101.789 50.9762L101.775 51.0221C101.599 51.5959 101.6 52.0982 101.778 52.529C101.958 52.9522 102.281 53.2352 102.748 53.378ZM110.915 52.7526C111.016 52.4236 110.986 52.1384 110.826 51.8969C110.675 51.6501 110.428 51.474 110.084 51.3687C109.464 51.1791 109.009 51.2865 108.717 51.691L107.478 51.3118C107.725 50.835 108.108 50.4965 108.63 50.2963C109.161 50.0908 109.771 50.0934 110.46 50.3041C111.186 50.5265 111.707 50.8907 112.02 51.3966C112.342 51.9049 112.399 52.4956 112.193 53.1688L111.013 57.0243L109.797 56.6521L110.001 55.9866C109.408 56.3909 108.722 56.4737 107.942 56.235C107.36 56.057 106.925 55.7439 106.636 55.2956C106.356 54.8419 106.302 54.3359 106.473 53.7775C106.651 53.1961 106.995 52.8079 107.507 52.6131C108.028 52.4129 108.656 52.4252 109.39 52.6499L110.813 53.0853L110.915 52.7526ZM108.555 55.2556C108.961 55.3797 109.34 55.3703 109.693 55.2274C110.049 55.0769 110.285 54.8104 110.402 54.4279L110.511 54.0722L109.18 53.6648C108.836 53.5595 108.538 53.5479 108.287 53.63C108.046 53.7068 107.886 53.8753 107.806 54.1354C107.727 54.3955 107.756 54.6263 107.896 54.8278C108.037 55.0217 108.257 55.1643 108.555 55.2556ZM113.334 53.1289C113.566 52.5892 113.956 52.2315 114.503 52.056C115.058 51.8828 115.657 51.8946 116.299 52.0912C116.927 52.2832 117.396 52.5942 117.708 53.0243C118.02 53.4543 118.098 53.9218 117.944 54.4267C117.757 55.0387 117.344 55.3766 116.705 55.4405C116.969 55.5884 117.173 55.8098 117.317 56.1048C117.471 56.3946 117.489 56.7345 117.369 57.1246C117.203 57.6678 116.843 58.0386 116.288 58.237C115.742 58.4379 115.113 58.4294 114.401 58.2117C113.713 58.001 113.193 57.6621 112.842 57.1951C112.492 56.728 112.367 56.1921 112.469 55.5873L113.742 55.9771C113.726 56.2482 113.804 56.4854 113.976 56.6887C114.158 56.8866 114.41 57.0347 114.731 57.1331C115.068 57.2361 115.357 57.2492 115.598 57.1723C115.841 57.0879 116.001 56.9194 116.079 56.6669C116.224 56.1927 115.933 55.8443 115.206 55.6219L114.346 55.3586L114.662 54.3258L115.453 54.5681C115.759 54.6618 116.012 54.672 116.21 54.5987C116.418 54.5202 116.557 54.3662 116.627 54.1367C116.695 53.9148 116.66 53.7158 116.521 53.5395C116.39 53.3656 116.183 53.2354 115.9 53.1488C115.602 53.0575 115.337 53.0476 115.106 53.1191C114.875 53.1906 114.701 53.3215 114.585 53.5116L113.334 53.1289ZM122.656 54.2374C123.429 54.4738 123.975 54.9297 124.296 55.605C124.624 56.2827 124.65 57.0728 124.373 57.9755C124.114 58.8246 123.635 59.4603 122.936 59.8825C122.248 60.2994 121.48 60.3779 120.631 60.1181C119.682 59.8278 119.037 59.2832 118.696 58.4844C118.357 57.678 118.362 56.7048 118.711 55.565C119.139 54.1651 119.685 53.1735 120.349 52.5902C121.015 51.9992 121.902 51.7685 123.008 51.898L125.517 52.1888L125.152 53.3822L122.863 53.0707C122.225 52.9929 121.715 53.0751 121.331 53.3174C120.95 53.5521 120.633 53.9737 120.38 54.5823C121.01 54.0808 121.769 53.9658 122.656 54.2374ZM120.909 58.961C121.391 59.1085 121.823 59.0522 122.203 58.7923C122.594 58.527 122.874 58.119 123.042 57.5682C123.206 57.0327 123.198 56.5533 123.018 56.1301C122.848 55.7016 122.526 55.4148 122.052 55.2696C121.577 55.1245 121.141 55.1707 120.742 55.4084C120.345 55.6384 120.062 56.0288 119.894 56.5796C119.721 57.1456 119.722 57.6479 119.897 58.0864C120.082 58.5196 120.42 58.8112 120.909 58.961ZM126.545 56.1553C127.254 55.7531 128.036 55.6831 128.893 55.9453C129.75 56.2075 130.356 56.7024 130.71 57.43C131.073 58.16 131.114 58.9801 130.836 59.8904C130.557 60.8008 130.064 61.457 129.355 61.8592C128.654 62.2638 127.875 62.335 127.018 62.0728C126.161 61.8106 125.552 61.3145 125.19 60.5845C124.835 59.8569 124.797 59.038 125.076 58.1276C125.354 57.2173 125.844 56.5599 126.545 56.1553ZM126.398 60.0384C126.574 60.4769 126.898 60.7687 127.373 60.9138C127.847 61.059 128.276 60.9977 128.659 60.7301C129.05 60.4649 129.332 60.0492 129.505 59.4831C129.678 58.917 129.677 58.4147 129.502 57.9762C129.334 57.54 129.013 57.2494 128.539 57.1042C128.064 56.9591 127.632 57.0192 127.241 57.2844C126.858 57.552 126.58 57.9689 126.407 58.535C126.233 59.1011 126.231 59.6022 126.398 60.0384ZM135.87 58.0804C136.597 58.3028 137.126 58.7617 137.457 59.457C137.796 60.1546 137.819 60.9816 137.526 61.9378C137.233 62.894 136.748 63.5653 136.069 63.9515C135.398 64.3402 134.695 64.4221 133.961 64.1974C133.555 64.0733 133.222 63.8918 132.96 63.6528C132.709 63.4085 132.545 63.1494 132.47 62.8754L131.599 65.7211L130.291 65.3208L132.753 57.277L134.015 57.6633L133.783 58.4206C134.333 57.9363 135.029 57.8229 135.87 58.0804ZM134.097 62.9717C134.556 63.1122 134.976 63.0524 135.357 62.7925C135.748 62.5272 136.031 62.1077 136.206 61.5339C136.38 60.9679 136.379 60.4656 136.203 60.0271C136.035 59.5909 135.722 59.3026 135.263 59.1621C134.797 59.0193 134.369 59.0767 133.981 59.3343C133.595 59.5843 133.314 59.9962 133.138 60.5699L133.124 60.6158C132.949 61.1895 132.95 61.6918 133.127 62.1227C133.307 62.5459 133.631 62.8289 134.097 62.9717ZM146.905 61.6079L145.114 67.46L143.829 67.0667L145.019 63.1767L141.178 66.2555L139.916 65.8692L141.707 60.0171L142.992 60.4104L141.798 64.3118L145.643 61.2216L146.905 61.6079ZM38.5052 41.7622C39.2139 41.36 39.9967 41.29 40.8534 41.5522C41.7102 41.8144 42.3159 42.3093 42.6705 43.0369C43.0328 43.7669 43.0746 44.587 42.796 45.4973C42.5174 46.4077 42.0238 47.0639 41.315 47.4661C40.614 47.8707 39.835 47.9419 38.9783 47.6797C38.1215 47.4175 37.512 46.9214 37.1497 46.1915C36.7951 45.4638 36.7571 44.6449 37.0357 43.7345C37.3143 42.8242 37.8041 42.1668 38.5052 41.7622ZM38.3585 45.6453C38.5338 46.0838 38.8586 46.3756 39.3329 46.5207C39.8072 46.6659 40.2359 46.6046 40.619 46.337C41.0097 46.0718 41.2917 45.6561 41.4649 45.09C41.6382 44.5239 41.6371 44.0216 41.4618 43.5831C41.2941 43.1469 40.9731 42.8563 40.4988 42.7111C40.0245 42.566 39.592 42.6261 39.2012 42.8913C38.8182 43.1589 38.54 43.5758 38.3668 44.1419C38.1935 44.708 38.1908 45.2091 38.3585 45.6453ZM43.6788 43.8223L44.03 42.6749L49.0788 44.22L48.7277 45.3674L46.8573 44.795L45.4176 49.4997L44.1094 49.0994L45.5492 44.3947L43.6788 43.8223ZM49.9744 44.494L55.0692 46.0532L53.2783 51.9053L51.9702 51.5049L53.4099 46.8003L50.9314 46.0418L49.4916 50.7464L48.1835 50.3461L49.9744 44.494ZM59.5409 47.271C60.2676 47.4934 60.7965 47.9523 61.1275 48.6476C61.4662 49.3452 61.4892 50.1722 61.1966 51.1284C60.904 52.0846 60.4183 52.7559 59.7395 53.1422C59.0684 53.5308 58.3657 53.6127 57.6313 53.388C57.2259 53.2639 56.8924 53.0824 56.6309 52.8434C56.3794 52.5991 56.216 52.34 56.1409 52.066L55.2701 54.9117L53.9619 54.5114L56.4235 46.4676L57.6858 46.8539L57.454 47.6112C58.0038 47.1269 58.6994 47.0135 59.5409 47.271ZM57.768 52.1623C58.2269 52.3028 58.6468 52.243 59.0275 51.9831C59.4183 51.7178 59.7014 51.2983 59.877 50.7246C60.0502 50.1585 60.0492 49.6562 59.8738 49.2177C59.7061 48.7815 59.3928 48.4932 58.9338 48.3527C58.4672 48.2099 58.0396 48.2673 57.6512 48.525C57.2652 48.7749 56.9844 49.1868 56.8088 49.7605L56.7948 49.8064C56.6192 50.3801 56.6202 50.8824 56.7979 51.3133C56.978 51.7365 57.3013 52.0195 57.768 52.1623ZM65.935 51.5369C66.0356 51.2079 66.0058 50.9227 65.8454 50.6812C65.6951 50.4344 65.4478 50.2583 65.1035 50.153C64.4839 49.9633 64.0285 50.0708 63.7374 50.4753L62.4981 50.0961C62.7444 49.6193 63.1283 49.2808 63.6497 49.0806C64.1811 48.8751 64.791 48.8777 65.4795 49.0884C66.2062 49.3108 66.7264 49.675 67.0401 50.1809C67.3615 50.6892 67.4191 51.2799 67.2131 51.9531L66.0332 55.8086L64.8169 55.4364L65.0206 54.7708C64.4283 55.1752 63.742 55.258 62.9618 55.0192C62.3804 54.8413 61.9449 54.5282 61.6555 54.0799C61.376 53.6262 61.3217 53.1202 61.4926 52.5617C61.6705 51.9804 62.0152 51.5922 62.5266 51.3974C63.048 51.1972 63.6759 51.2094 64.4103 51.4342L65.8331 51.8696L65.935 51.5369ZM63.5752 54.0399C63.9806 54.164 64.36 54.1546 64.7133 54.0117C65.0689 53.8612 65.3052 53.5946 65.4223 53.2122L65.5311 52.8564L64.2001 52.4491C63.8558 52.3438 63.5582 52.3322 63.3072 52.4143C63.0661 52.4911 62.9058 52.6596 62.8262 52.9197C62.7466 53.1798 62.7764 53.4106 62.9155 53.6121C63.057 53.806 63.2769 53.9486 63.5752 54.0399ZM67.3404 56.2086L69.1313 50.3565L71.759 51.1607C72.3863 51.3526 72.8211 51.6405 73.0635 52.0242C73.3058 52.4079 73.359 52.8216 73.2233 53.2653C73.1249 53.5866 72.9627 53.8297 72.7365 53.9948C72.5203 54.1545 72.2834 54.2451 72.0258 54.2667C72.2984 54.4422 72.4967 54.6827 72.6207 54.9884C72.7523 55.2964 72.7608 55.6378 72.646 56.0126C72.4962 56.5022 72.1897 56.8477 71.7265 57.0489C71.2734 57.2449 70.7255 57.2445 70.0829 57.0479L67.3404 56.2086ZM70.6878 54.4973L69.3911 54.1004L68.9346 55.5922L70.2313 55.989C70.522 56.0779 70.7637 56.0808 70.9565 55.9976C71.1593 55.909 71.297 55.7462 71.3695 55.509C71.5194 55.0195 71.2921 54.6822 70.6878 54.4973ZM71.2894 52.1213L70.1075 51.7596L69.6931 53.1136L70.875 53.4753C71.1275 53.5526 71.3413 53.5511 71.5164 53.4708C71.6992 53.3929 71.8234 53.2468 71.8889 53.0326C72.0247 52.5889 71.8249 52.2852 71.2894 52.1213ZM80.151 53.7288L78.3601 59.5809L77.0749 59.1876L78.2654 55.2977L74.4243 58.3765L73.1621 57.9902L74.953 52.1381L76.2381 52.5314L75.0442 56.4328L78.8888 53.3426L80.151 53.7288ZM79.0854 59.828L79.4366 58.6805L79.6202 58.7367C79.9414 58.835 80.194 58.8161 80.3779 58.68C80.5718 58.5385 80.7569 58.248 80.9333 57.8083L82.2947 54.3849L86.5977 55.7017L84.8068 61.5538L83.4987 61.1535L84.9385 56.4489L83.091 55.8835L82.1445 58.2794C81.8375 59.0639 81.4683 59.5867 81.037 59.848C80.6157 60.1039 80.0837 60.1335 79.4411 59.9369L79.0854 59.828ZM94.8287 63.3658L94.028 65.982L92.7658 65.5958L93.2153 64.127L89.0844 62.8628L88.6349 64.3316L87.3727 63.9453L88.1733 61.3291L88.6438 61.4731C89.0466 61.3872 89.4507 60.8457 89.8562 59.8488L90.9556 57.0353L95.4193 58.4013L93.9795 63.1059L94.8287 63.3658ZM91.0814 60.2739C90.7363 61.1555 90.3904 61.698 90.0437 61.9015L92.6714 62.7056L93.76 59.1485L91.7634 58.5375L91.0814 60.2739ZM97.3826 59.7802C98.0913 59.378 98.874 59.308 99.7308 59.5702C100.588 59.8324 101.193 60.3273 101.548 61.0549C101.91 61.7848 101.952 62.605 101.673 63.5153C101.395 64.4256 100.901 65.0819 100.192 65.4841C99.4913 65.8887 98.7124 65.9599 97.8556 65.6977C96.9989 65.4355 96.3893 64.9394 96.0271 64.2094C95.6725 63.4818 95.6345 62.6628 95.9131 61.7525C96.1917 60.8422 96.6815 60.1847 97.3826 59.7802ZM97.2358 63.6632C97.4112 64.1017 97.736 64.3936 98.2103 64.5387C98.6846 64.6839 99.1133 64.6226 99.4964 64.355C99.8871 64.0897 100.169 63.6741 100.342 63.108C100.516 62.5419 100.514 62.0396 100.339 61.6011C100.171 61.1649 99.8504 60.8743 99.3761 60.7291C98.9018 60.584 98.4693 60.644 98.0786 60.9093C97.6955 61.1769 97.4174 61.5938 97.2441 62.1599C97.0709 62.7259 97.0681 63.2271 97.2358 63.6632ZM103.108 67.1543L101.8 66.754L103.59 60.9019L104.899 61.3022L104.154 63.7349L107.148 61.9905L108.697 62.4645L105.333 64.4345L106.94 68.3272L105.357 67.8426L103.943 64.4233L103.108 67.1543ZM112.529 63.4869C113.256 63.7093 113.785 64.1681 114.116 64.8634C114.455 65.5611 114.478 66.388 114.185 67.3442C113.892 68.3004 113.407 68.9717 112.728 69.358C112.057 69.7466 111.354 69.8286 110.62 69.6038C110.214 69.4798 109.881 69.2982 109.619 69.0592C109.368 68.8149 109.205 68.5558 109.129 68.2818L108.259 71.1276L106.95 70.7272L109.412 62.6835L110.674 63.0697L110.443 63.8271C110.992 63.3428 111.688 63.2294 112.529 63.4869ZM110.756 68.3782C111.215 68.5186 111.635 68.4589 112.016 68.1989C112.407 67.9336 112.69 67.5141 112.866 66.9404C113.039 66.3743 113.038 65.872 112.862 65.4335C112.695 64.9973 112.381 64.709 111.922 64.5686C111.456 64.4258 111.028 64.4832 110.64 64.7408C110.254 64.9908 109.973 65.4026 109.797 65.9763L109.783 66.0222C109.608 66.596 109.609 67.0983 109.786 67.5291C109.966 67.9523 110.29 68.2354 110.756 68.3782ZM119.794 65.8606L121.205 66.2925L115.588 73.3706L114.188 72.9422L115.797 70.9247L115.307 64.4876L116.719 64.9195L116.975 69.5783L119.794 65.8606ZM125.281 67.5398L126.589 67.9401L124.798 73.7922L123.49 73.3919L124.196 71.0855C123.791 71.179 123.324 71.145 122.797 70.9835C122.116 70.7751 121.626 70.4077 121.327 69.8811C121.028 69.3546 120.997 68.705 121.233 67.9324L121.689 66.4407L122.998 66.841L122.569 68.2409C122.305 69.1053 122.597 69.6675 123.446 69.9273C123.829 70.0444 124.189 70.0709 124.526 70.0068L125.281 67.5398ZM133.14 69.9447L131.349 75.7968L130.063 75.4035L131.254 71.5136L127.413 74.5923L126.151 74.206L127.941 68.3539L129.227 68.7472L128.033 72.6486L131.877 69.5584L133.14 69.9447ZM132.701 76.2105L134.491 70.3584L137.119 71.1625C137.746 71.3545 138.181 71.6424 138.424 72.0261C138.666 72.4098 138.719 72.8235 138.583 73.2672C138.485 73.5884 138.323 73.8316 138.097 73.9966C137.88 74.1564 137.644 74.247 137.386 74.2686C137.659 74.444 137.857 74.6846 137.981 74.9902C138.112 75.2982 138.121 75.6397 138.006 76.0145C137.856 76.5041 137.55 76.8495 137.087 77.0508C136.633 77.2468 136.086 77.2464 135.443 77.0498L132.701 76.2105ZM136.048 74.4991L134.751 74.1023L134.295 75.594L135.591 75.9908C135.882 76.0798 136.124 76.0827 136.317 75.9994C136.519 75.9109 136.657 75.7481 136.73 75.5109C136.879 75.0213 136.652 74.6841 136.048 74.4991ZM136.65 72.1232L135.468 71.7615L135.053 73.1155L136.235 73.4772C136.488 73.5544 136.701 73.5529 136.877 73.4727C137.059 73.3948 137.184 73.2487 137.249 73.0345C137.385 72.5908 137.185 72.287 136.65 72.1232ZM143.14 75.1636C143.241 74.8346 143.211 74.5494 143.051 74.3079C142.9 74.0611 142.653 73.885 142.309 73.7797C141.689 73.5901 141.234 73.6975 140.942 74.102L139.703 73.7228C139.95 73.246 140.333 72.9075 140.855 72.7073C141.386 72.5018 141.996 72.5044 142.685 72.7151C143.411 72.9375 143.932 73.3017 144.245 73.8076C144.567 74.3159 144.624 74.9066 144.418 75.5798L143.238 79.4353L142.022 79.0631L142.226 78.3976C141.633 78.8019 140.947 78.8848 140.167 78.646C139.585 78.468 139.15 78.1549 138.861 77.7066C138.581 77.2529 138.527 76.7469 138.698 76.1885C138.876 75.6071 139.22 75.2189 139.732 75.0241C140.253 74.8239 140.881 74.8362 141.615 75.0609L143.038 75.4963L143.14 75.1636ZM140.78 77.6666C141.186 77.7907 141.565 77.7813 141.918 77.6384C142.274 77.4879 142.51 77.2214 142.627 76.8389L142.736 76.4832L141.405 76.0758C141.061 75.9705 140.763 75.9589 140.512 76.041C140.271 76.1178 140.111 76.2863 140.031 76.5464C139.952 76.8065 139.981 77.0373 140.121 77.2388C140.262 77.4327 140.482 77.5753 140.78 77.6666ZM145.425 74.9594L145.777 73.8119L150.825 75.357L150.474 76.5045L148.604 75.9321L147.164 80.6367L145.856 80.2364L147.296 75.5318L145.425 74.9594ZM153.018 76.0279L152.473 77.8065L153.644 78.1646C154.294 78.3636 154.756 78.7141 155.029 79.216C155.304 79.7102 155.352 80.2518 155.172 80.8409C154.989 81.4375 154.639 81.8701 154.122 82.1385C153.615 82.4016 153.04 82.4348 152.397 82.2382L149.93 81.4832L151.721 75.6311L153.018 76.0279ZM153.146 79.2171L152.136 78.908L151.56 80.7899L152.57 81.0989C152.884 81.1949 153.157 81.178 153.389 81.0483C153.629 80.9208 153.791 80.7194 153.875 80.4441C153.959 80.1687 153.935 79.9187 153.803 79.6942C153.679 79.4721 153.46 79.313 153.146 79.2171ZM39.3483 58.9367L38.5477 61.553L37.2855 61.1667L37.7349 59.6979L33.6041 58.4338L33.1546 59.9025L31.8924 59.5163L32.693 56.9L33.1635 57.044C33.5662 56.9581 33.9704 56.4167 34.3758 55.4197L35.4753 52.6063L39.9389 53.9723L38.4992 58.6769L39.3483 58.9367ZM35.6011 55.8448C35.256 56.7264 34.9101 57.269 34.5634 57.4724L37.1911 58.2766L38.2797 54.7194L36.2831 54.1084L35.6011 55.8448ZM44.4991 57.5263C44.5998 57.1973 44.5699 56.9121 44.4096 56.6706C44.2592 56.4238 44.0119 56.2477 43.6677 56.1424C43.048 55.9528 42.5927 56.0602 42.3015 56.4647L41.0623 56.0855C41.3086 55.6087 41.6924 55.2702 42.2138 55.07C42.7452 54.8645 43.3552 54.8671 44.0437 55.0778C44.7704 55.3002 45.2906 55.6644 45.6043 56.1703C45.9256 56.6786 45.9833 57.2693 45.7772 57.9425L44.5974 61.798L43.381 61.4258L43.5847 60.7603C42.9925 61.1646 42.3062 61.2474 41.5259 61.0087C40.9445 60.8307 40.5091 60.5176 40.2196 60.0693C39.9401 59.6156 39.8858 59.1096 40.0567 58.5512C40.2346 57.9698 40.5793 57.5816 41.0907 57.3868C41.6121 57.1866 42.24 57.1989 42.9744 57.4236L44.3973 57.859L44.4991 57.5263ZM42.1393 60.0293C42.5448 60.1534 42.9241 60.144 43.2774 60.0011C43.633 59.8506 43.8694 59.5841 43.9864 59.2016L44.0953 58.8459L42.7642 58.4385C42.42 58.3332 42.1223 58.3216 41.8713 58.4037C41.6303 58.4805 41.47 58.649 41.3904 58.9091C41.3108 59.1692 41.3405 59.4 41.4796 59.6015C41.6211 59.7954 41.841 59.938 42.1393 60.0293ZM45.2779 62.0314L45.6291 60.8839L45.8127 60.9401C46.134 61.0384 46.3866 61.0195 46.5705 60.8834C46.7643 60.7419 46.9495 60.4514 47.1258 60.0117L48.4872 56.5883L52.7902 57.9051L50.9994 63.7572L49.6912 63.3569L51.131 58.6522L49.2835 58.0869L48.337 60.4828C48.03 61.2673 47.6608 61.7901 47.2295 62.0513C46.8082 62.3073 46.2762 62.3369 45.6336 62.1402L45.2779 62.0314ZM55.4525 58.7198L54.9082 60.4984L56.0786 60.8566C56.7288 61.0555 57.1905 61.406 57.4636 61.9079C57.739 62.4021 57.7866 62.9437 57.6063 63.5328C57.4237 64.1294 57.0738 64.562 56.5567 64.8304C56.0495 65.0935 55.4746 65.1267 54.832 64.9301L52.3649 64.1751L54.1558 58.323L55.4525 58.7198ZM55.5808 61.909L54.5711 61.5999L53.9952 63.4818L55.0049 63.7908C55.3186 63.8868 55.5915 63.8699 55.8236 63.7402C56.0634 63.6128 56.2254 63.4113 56.3097 63.136C56.394 62.8606 56.3701 62.6106 56.238 62.3861C56.1135 62.164 55.8945 62.0049 55.5808 61.909ZM64.2973 61.4265L62.8576 66.1312L64.7853 66.7211L66.2251 62.0165L67.5332 62.4168L65.7423 68.2689L57.9624 65.8881L59.7533 60.036L61.0615 60.4363L59.6217 65.1409L61.5495 65.7309L62.9892 61.0262L64.2973 61.4265ZM73.0097 67.707L68.8903 66.4463L68.8833 66.4693C68.7452 66.9206 68.7758 67.3399 68.9752 67.7272C69.1746 68.1145 69.5076 68.3796 69.9742 68.5224C70.2955 68.6207 70.5794 68.6365 70.8257 68.5696C71.082 68.4975 71.2604 68.3931 71.3607 68.2565L72.6459 68.6498C72.4183 69.0654 72.0365 69.3836 71.5004 69.6044C70.972 69.8275 70.3444 69.8279 69.6177 69.6055C68.7456 69.3386 68.1288 68.8528 67.7671 68.1481C67.4079 67.4358 67.3722 66.6092 67.6601 65.6683C67.9481 64.7274 68.4364 64.0611 69.1252 63.6695C69.8163 63.2703 70.5787 63.1982 71.4125 63.4534C72.2158 63.6992 72.7776 64.1598 73.098 64.8351C73.4184 65.5104 73.444 66.2879 73.1748 67.1677L73.0097 67.707ZM71.0675 64.54C70.6544 64.4136 70.2803 64.433 69.9453 64.5981C69.618 64.7657 69.3708 65.054 69.2038 65.463L72.0036 66.3198C72.1194 65.8868 72.0912 65.5142 71.919 65.2021C71.7567 64.8848 71.4729 64.664 71.0675 64.54ZM81.9038 71.9598L81.1032 74.576L79.841 74.1898L80.2904 72.721L76.1595 71.4568L75.7101 72.9256L74.4478 72.5393L75.2485 69.9231L75.7189 70.0671C76.1217 69.9812 76.5258 69.4397 76.9313 68.4428L78.0308 65.6293L82.4944 66.9953L81.0547 71.6999L81.9038 71.9598ZM78.1566 68.8679C77.8115 69.7495 77.4656 70.292 77.1189 70.4955L79.7466 71.2996L80.8351 67.7425L78.8385 67.1315L78.1566 68.8679ZM84.4577 68.3742C85.1664 67.972 85.9492 67.902 86.806 68.1642C87.6627 68.4264 88.2684 68.9213 88.623 69.6489C88.9853 70.3788 89.0271 71.199 88.7485 72.1093C88.4699 73.0196 87.9763 73.6759 87.2676 74.0781C86.5665 74.4827 85.7876 74.5539 84.9308 74.2917C84.074 74.0295 83.4645 73.5334 83.1022 72.8034C82.7476 72.0758 82.7096 71.2568 82.9882 70.3465C83.2668 69.4362 83.7566 68.7787 84.4577 68.3742ZM84.311 72.2572C84.4863 72.6957 84.8112 72.9876 85.2855 73.1327C85.7597 73.2779 86.1884 73.2166 86.5715 72.949C86.9622 72.6837 87.2442 72.2681 87.4175 71.702C87.5907 71.1359 87.5896 70.6336 87.4143 70.1951C87.2466 69.7589 86.9256 69.4683 86.4513 69.3231C85.977 69.178 85.5445 69.238 85.1538 69.5033C84.7707 69.7709 84.4925 70.1878 84.3193 70.7539C84.146 71.3199 84.1433 71.8211 84.311 72.2572ZM98.133 71.7811L96.3421 77.6332L95.057 77.2399L96.2474 73.35L92.4063 76.4288L91.1441 76.0425L92.935 70.1904L94.2201 70.5837L93.0262 74.4851L96.8708 71.3949L98.133 71.7811ZM104.081 78.7466L103.28 81.3628L102.018 80.9765L102.468 79.5078L98.3367 78.2436L97.8872 79.7124L96.625 79.3261L97.4256 76.7099L97.8961 76.8538C98.2988 76.7679 98.703 76.2265 99.1085 75.2295L100.208 72.4161L104.672 73.7821L103.232 78.4867L104.081 78.7466ZM100.334 75.6547C99.9886 76.5363 99.6427 77.0788 99.296 77.2822L101.924 78.0864L103.012 74.5292L101.016 73.9182L100.334 75.6547ZM110.511 79.1834L106.392 77.9228L106.385 77.9457C106.247 78.3971 106.277 78.8164 106.477 79.2037C106.676 79.591 107.009 79.8561 107.476 79.9989C107.797 80.0972 108.081 80.1129 108.327 80.0461C108.584 79.9739 108.762 79.8696 108.862 79.733L110.148 80.1262C109.92 80.5418 109.538 80.86 109.002 81.0808C108.474 81.304 107.846 81.3043 107.119 81.0819C106.247 80.8151 105.63 80.3293 105.269 79.6246C104.91 78.9123 104.874 78.0857 105.162 77.1448C105.45 76.2038 105.938 75.5376 106.627 75.146C107.318 74.7467 108.08 74.6747 108.914 74.9299C109.717 75.1757 110.279 75.6362 110.6 76.3116C110.92 76.9869 110.946 77.7644 110.676 78.6441L110.511 79.1834ZM108.569 76.0164C108.156 75.89 107.782 75.9094 107.447 76.0746C107.12 76.2422 106.872 76.5304 106.705 76.9395L109.505 77.7963C109.621 77.3632 109.593 76.9907 109.421 76.6786C109.258 76.3612 108.975 76.1405 108.569 76.0164ZM115.367 79.2137C115.468 78.8847 115.438 78.5995 115.278 78.358C115.127 78.1112 114.88 77.9351 114.536 77.8298C113.916 77.6402 113.461 77.7476 113.17 78.1521L111.93 77.7729C112.177 77.2961 112.56 76.9576 113.082 76.7574C113.613 76.5519 114.223 76.5545 114.912 76.7652C115.638 76.9876 116.159 77.3518 116.472 77.8577C116.794 78.366 116.851 78.9567 116.645 79.6299L115.465 83.4854L114.249 83.1132L114.453 82.4477C113.86 82.8521 113.174 82.9349 112.394 82.6961C111.813 82.5182 111.377 82.205 111.088 81.7567C110.808 81.303 110.754 80.797 110.925 80.2386C111.103 79.6572 111.447 79.2691 111.959 79.0742C112.48 78.874 113.108 78.8863 113.842 79.111L115.265 79.5464L115.367 79.2137ZM113.007 81.7167C113.413 81.8408 113.792 81.8314 114.145 81.6885C114.501 81.538 114.737 81.2715 114.854 80.889L114.963 80.5333L113.632 80.1259C113.288 80.0206 112.99 80.009 112.739 80.0911C112.498 80.1679 112.338 80.3364 112.258 80.5965C112.179 80.8566 112.209 81.0874 112.348 81.2889C112.489 81.4828 112.709 81.6254 113.007 81.7167ZM116.146 83.7188L116.497 82.5713L116.681 82.6275C117.002 82.7258 117.255 82.7069 117.438 82.5708C117.632 82.4293 117.817 82.1388 117.994 81.6991L119.355 78.2757L123.658 79.5925L121.867 85.4446L120.559 85.0443L121.999 80.3396L120.152 79.7743L119.205 82.1702C118.898 82.9547 118.529 83.4775 118.098 83.7388C117.676 83.9947 117.144 84.0243 116.502 83.8277L116.146 83.7188ZM127.851 83.034C127.951 82.7051 127.922 82.4198 127.761 82.1783C127.611 81.9315 127.364 81.7555 127.019 81.6501C126.4 81.4605 125.944 81.5679 125.653 81.9725L124.414 81.5932C124.66 81.1164 125.044 80.7779 125.566 80.5777C126.097 80.3723 126.707 80.3749 127.395 80.5855C128.122 80.8079 128.642 81.1721 128.956 81.6781C129.277 82.1863 129.335 82.7771 129.129 83.4502L127.949 87.3057L126.733 86.9335L126.936 86.268C126.344 86.6724 125.658 86.7552 124.878 86.5164C124.296 86.3385 123.861 86.0254 123.571 85.577C123.292 85.1234 123.238 84.6173 123.408 84.0589C123.586 83.4775 123.931 83.0894 124.442 82.8945C124.964 82.6943 125.592 82.7066 126.326 82.9313L127.749 83.3668L127.851 83.034ZM125.491 85.537C125.896 85.6611 126.276 85.6517 126.629 85.5088C126.985 85.3583 127.221 85.0918 127.338 84.7093L127.447 84.3536L126.116 83.9463C125.772 83.8409 125.474 83.8293 125.223 83.9114C124.982 83.9883 124.822 84.1567 124.742 84.4168C124.662 84.6769 124.692 84.9077 124.831 85.1093C124.973 85.3031 125.193 85.4457 125.491 85.537Z" fill="white"/>
</g>
<defs>
<linearGradient id="paint0_linear_201_711" x1="125.278" y1="22.9873" x2="93.5336" y2="128.616" gradientUnits="userSpaceOnUse">
<stop stop-color="#66BEBE"/>
<stop offset="1" stop-color="#65DEA3"/>
</linearGradient>
<clipPath id="clip0_201_711">
<rect width="190" height="120" fill="white"/>
</clipPath>
</defs>
</svg>
