<svg width="180" height="100" viewBox="0 0 180 100" fill="none" xmlns="http://www.w3.org/2000/svg">
<path fill-rule="evenodd" clip-rule="evenodd" d="M36.931 29.6183C26.4757 33.1811 20.8882 44.5451 24.451 55.0004L32.6832 79.1583C36.246 89.6136 47.6099 95.2011 58.0653 91.6383L96.7866 78.4434L104.605 82.2874C106.091 83.0185 107.889 82.4058 108.62 80.9189L112.464 73.101L140.723 63.4715C151.178 59.9087 156.766 48.5447 153.203 38.0894L144.971 13.9315C141.408 3.4762 130.044 -2.11129 119.589 1.45151L36.931 29.6183Z" fill="url(#paint0_linear_163_804)"/>
<path d="M35.8153 44.1374L42.2784 41.935L45.0033 49.9315L43.6516 50.3921L41.3409 43.611L37.5812 44.8922L39.8919 51.6733L38.5403 52.1339L35.8153 44.1374ZM47.5086 42.4601C48.228 42.2149 48.9254 42.2773 49.6008 42.6472C50.2838 43.0146 50.7866 43.6715 51.1091 44.6181C51.4317 45.5646 51.4309 46.3932 51.1068 47.1037C50.7902 47.8116 50.2684 48.2895 49.5415 48.5372C49.1401 48.674 48.7635 48.722 48.4116 48.6814C48.0646 48.6305 47.7805 48.5161 47.5592 48.3379L48.5192 51.1549L47.2243 51.5961L44.511 43.6337L45.7604 43.2079L46.0159 43.9576C46.1781 43.2431 46.6757 42.7439 47.5086 42.4601ZM48.9347 47.4635C49.3891 47.3087 49.6945 47.0145 49.851 46.5808C50.0125 46.137 49.9964 45.6311 49.8029 45.0632C49.612 44.5028 49.317 44.0962 48.9182 43.8434C48.5269 43.5879 48.104 43.5376 47.6497 43.6925C47.1878 43.8499 46.8748 44.1467 46.7107 44.5829C46.5441 45.0116 46.5575 45.5099 46.751 46.0778L46.7665 46.1232C46.9601 46.6912 47.255 47.0978 47.6513 47.3431C48.045 47.5808 48.4728 47.6209 48.9347 47.4635ZM56.2733 39.6255L58.2473 45.4184L56.9751 45.8519L55.663 42.0014L54.3513 46.7461L53.1018 47.1718L51.1278 41.3789L52.4 40.9454L53.716 44.8074L55.0238 40.0513L56.2733 39.6255ZM62.1096 37.6367L63.6965 42.2938L65.6048 41.6435L64.0178 36.9865L65.3127 36.5452L67.2867 42.3381L59.5856 44.9624L57.6116 39.1695L58.9064 38.7283L60.4934 43.3853L62.4016 42.735L60.8147 38.078L62.1096 37.6367ZM68.026 42.1115L67.639 40.9757L67.8207 40.9138C68.1387 40.8054 68.3324 40.6422 68.4018 40.4241C68.4762 40.196 68.4562 39.852 68.3418 39.3924L67.4414 35.8198L71.7009 34.3684L73.6749 40.1613L72.38 40.6025L70.793 35.9455L68.9643 36.5686L69.5995 39.0652C69.8099 39.8809 69.8167 40.521 69.6199 40.9852C69.4281 41.4394 69.0142 41.7748 68.3781 41.9916L68.026 42.1115ZM78.1981 32.1543L80.1721 37.9472L78.8999 38.3808L77.5878 34.5302L76.2761 39.2749L75.0266 39.7006L73.0526 33.9077L74.3248 33.4742L75.6408 37.3362L76.9486 32.5801L78.1981 32.1543ZM85.8999 34.8671C86.2785 34.7381 86.5378 34.5441 86.6777 34.2851C86.8252 34.0236 86.8879 33.7486 86.8657 33.4604L88.1265 33.0307C88.2597 33.6446 88.1649 34.2347 87.8424 34.801C87.5198 35.3673 86.9988 35.7731 86.2794 36.0182C85.4389 36.3046 84.6657 36.2554 83.9598 35.8705C83.2514 35.4781 82.7449 34.835 82.4404 33.9415C82.1385 33.0555 82.1444 32.2421 82.4583 31.5013C82.7797 30.7579 83.3644 30.2417 84.2125 29.9527C84.947 29.7024 85.6087 29.7094 86.1974 29.9736C86.7835 30.2303 87.2112 30.6297 87.4804 31.1718L86.2196 31.6014C86.0486 31.3724 85.8261 31.2031 85.5521 31.0936C85.2832 30.974 84.9669 30.9761 84.6035 31.0999C84.1491 31.2548 83.845 31.5528 83.6911 31.994C83.5447 32.4326 83.567 32.9322 83.758 33.4925C83.9515 34.0604 84.2439 34.4721 84.6353 34.7276C85.024 34.9754 85.4455 35.0219 85.8999 34.8671ZM40.5814 59.4632C40.4537 58.8898 40.5602 58.3717 40.9012 57.909C41.2498 57.4437 41.7421 57.1027 42.3782 56.886C42.9991 56.6744 43.5619 56.6516 44.0664 56.8178C44.571 56.9839 44.9084 57.3169 45.0787 57.8166C45.2851 58.4224 45.1482 58.9382 44.6678 59.3639C44.9686 59.329 45.2638 59.389 45.5532 59.5439C45.8476 59.6887 46.0606 59.9542 46.1922 60.3404C46.3755 60.878 46.3004 61.3895 45.9672 61.875C45.6415 62.3578 45.1266 62.7192 44.4224 62.9592C43.7408 63.1914 43.1212 63.2209 42.5635 63.0475C42.0058 62.8741 41.591 62.5126 41.3191 61.9629L42.5799 61.5333C42.7257 61.7625 42.9278 61.9092 43.1863 61.9732C43.4497 62.0271 43.7405 61.9999 44.0585 61.8915C44.3917 61.778 44.6335 61.6195 44.784 61.4161C44.9318 61.2051 44.9632 60.9747 44.878 60.7248C44.718 60.2553 44.2783 60.1431 43.559 60.3883L42.7071 60.6786L42.3587 59.6563L43.1425 59.3892C43.4453 59.286 43.6557 59.1467 43.7734 58.9714C43.8961 58.7859 43.9188 58.5796 43.8414 58.3524C43.7665 58.1328 43.6214 57.9921 43.4059 57.9303C43.1981 57.8659 42.954 57.8814 42.6739 57.9769C42.3785 58.0775 42.1581 58.2245 42.0127 58.4177C41.8673 58.611 41.8029 58.8188 41.8195 59.0413L40.5814 59.4632ZM49.8701 56.6656C49.7592 56.34 49.568 56.1263 49.2966 56.0244C49.0302 55.9123 48.7267 55.9143 48.3859 56.0304C47.7725 56.2394 47.4663 56.5931 47.4671 57.0915L46.2403 57.5095C46.1609 56.9788 46.2739 56.4797 46.5795 56.0121C46.89 55.5344 47.386 55.1795 48.0675 54.9472C48.7869 54.7021 49.4218 54.6928 49.9723 54.9193C50.5304 55.1433 50.923 55.5885 51.15 56.2549L52.4506 60.0713L51.2465 60.4816L51.0221 59.8228C50.7786 60.4974 50.2707 60.9663 49.4983 61.2295C48.9228 61.4256 48.3865 61.4267 47.8894 61.2326C47.3972 61.0285 47.0569 60.65 46.8686 60.0972C46.6724 59.5217 46.7247 59.0053 47.0252 58.5479C47.3307 58.0803 47.847 57.7227 48.5739 57.475L49.9824 56.995L49.8701 56.6656ZM49.4223 60.0764C49.8237 59.9396 50.1257 59.7099 50.3285 59.3873C50.5287 59.057 50.5643 58.7026 50.4352 58.324L50.3152 57.9719L48.9976 58.4209C48.6569 58.537 48.4088 58.7018 48.2534 58.9154C48.1029 59.1188 48.0716 59.3492 48.1593 59.6067C48.2471 59.8641 48.4063 60.0338 48.6371 60.1158C48.8653 60.1901 49.127 60.177 49.4223 60.0764ZM51.7705 53.8375L56.8138 52.1189L58.7878 57.9118L57.4929 58.3531L55.906 53.6961L53.4525 54.5321L55.0394 59.1892L53.7446 59.6304L51.7705 53.8375ZM61.1521 50.4885C61.8715 50.2433 62.5689 50.3057 63.2443 50.6756C63.9273 51.043 64.4301 51.6999 64.7526 52.6465C65.0752 53.593 65.0744 54.4216 64.7502 55.1321C64.4337 55.84 63.9119 56.3179 63.1849 56.5656C62.7836 56.7023 62.407 56.7504 62.055 56.7097C61.7081 56.6589 61.424 56.5444 61.2027 56.3663L62.1626 59.1832L60.8677 59.6245L58.1544 51.6621L59.4039 51.2363L59.6594 51.986C59.8216 51.2715 60.3191 50.7723 61.1521 50.4885ZM62.5782 55.4919C63.0325 55.3371 63.338 55.0428 63.4944 54.6092C63.6559 54.1654 63.6399 53.6595 63.4464 53.0916C63.2554 52.5312 62.9605 52.1246 62.5616 51.8718C62.1703 51.6163 61.7475 51.566 61.2932 51.7208C60.8312 51.8782 60.5182 52.1751 60.3542 52.6113C60.1875 53.04 60.201 53.5383 60.3945 54.1062L60.41 54.1516C60.6035 54.7196 60.8984 55.1262 61.2947 55.3714C61.6885 55.6092 62.1163 55.6493 62.5782 55.4919ZM65.4656 49.9567C65.8047 49.2157 66.3983 48.7007 67.2465 48.4117C68.0946 48.1227 68.8753 48.1694 69.5888 48.5517C70.3098 48.9314 70.8239 49.5718 71.1309 50.473C71.438 51.3741 71.422 52.1951 71.0828 52.9361C70.7513 53.6745 70.1615 54.1882 69.3134 54.4772C68.4653 54.7662 67.6807 54.7209 66.9597 54.3412C66.2462 53.9588 65.736 53.3171 65.4289 52.416C65.1218 51.5149 65.1341 50.6951 65.4656 49.9567ZM67.6199 53.1907C68.0188 53.4436 68.4529 53.49 68.9224 53.33C69.3919 53.17 69.7036 52.8694 69.8575 52.4282C70.019 51.9844 70.0043 51.4823 69.8133 50.922C69.6224 50.3616 69.3275 49.955 68.9286 49.7021C68.5373 49.4467 68.1069 49.399 67.6374 49.559C67.1679 49.7189 66.8524 50.0208 66.6909 50.4646C66.537 50.9059 66.5555 51.4067 66.7465 51.967C66.9374 52.5274 67.2286 52.9353 67.6199 53.1907ZM75.2723 51.1662C75.6509 51.0372 75.9102 50.8432 76.0501 50.5842C76.1976 50.3227 76.2603 50.0477 76.2381 49.7595L77.4989 49.3298C77.6321 49.9437 77.5373 50.5338 77.2148 51.1001C76.8922 51.6664 76.3712 52.0722 75.6518 52.3173C74.8113 52.6037 74.0381 52.5545 73.3322 52.1696C72.6238 51.7772 72.1173 51.1341 71.8128 50.2406C71.5109 49.3546 71.5168 48.5412 71.8307 47.8004C72.1521 47.057 72.7368 46.5408 73.5849 46.2518C74.3194 46.0015 74.9811 46.0085 75.5697 46.2727C76.1559 46.5294 76.5835 46.9288 76.8528 47.4709L75.592 47.9005C75.421 47.6715 75.1985 47.5022 74.9245 47.3927C74.6555 47.2731 74.3393 47.2752 73.9759 47.399C73.5215 47.5539 73.2174 47.8519 73.0635 48.2931C72.9171 48.7317 72.9394 49.2313 73.1304 49.7916C73.3239 50.3595 73.6163 50.7712 74.0076 51.0267C74.3964 51.2745 74.8179 51.321 75.2723 51.1662ZM77.8563 45.7344C78.1954 44.9934 78.789 44.4784 79.6371 44.1894C80.4852 43.9004 81.266 43.9471 81.9795 44.3294C82.7005 44.7091 83.2145 45.3495 83.5216 46.2507C83.8287 47.1518 83.8126 47.9728 83.4735 48.7138C83.142 49.4522 82.5521 49.9659 81.704 50.2549C80.8559 50.5439 80.0713 50.4986 79.3503 50.1189C78.6369 49.7365 78.1266 49.0948 77.8196 48.1937C77.5125 47.2926 77.5247 46.4728 77.8563 45.7344ZM80.0105 48.9684C80.4094 49.2213 80.8436 49.2677 81.3131 49.1077C81.7826 48.9477 82.0943 48.6471 82.2482 48.2059C82.4097 47.7621 82.3949 47.26 82.204 46.6997C82.013 46.1393 81.7181 45.7327 81.3192 45.4798C80.9279 45.2244 80.4975 45.1767 80.028 45.3367C79.5586 45.4966 79.2431 45.7985 79.0816 46.2423C78.9277 46.6836 78.9462 47.1844 79.1372 47.7447C79.3281 48.3051 79.6192 48.713 80.0105 48.9684ZM83.5458 43.0096L85.1815 42.4522L88.4537 46.0279L88.8617 41.1982L90.4746 40.6485L92.4486 46.4414L91.1992 46.8672L89.8483 42.903L89.4536 47.4367L88.4994 47.7618L85.4223 44.4239L86.7693 48.3767L85.5199 48.8025L83.5458 43.0096ZM97.0596 38.2525C97.7789 38.0073 98.4763 38.0697 99.1518 38.4396C99.8347 38.807 100.338 39.4639 100.66 40.4105C100.983 41.357 100.982 42.1856 100.658 42.8961C100.341 43.604 99.8193 44.0819 99.0924 44.3296C98.6911 44.4664 98.3144 44.5144 97.9625 44.4738C97.6156 44.4229 97.3315 44.3085 97.1102 44.1303L98.0701 46.9473L96.7752 47.3885L94.0619 39.4261L95.3113 39.0003L95.5668 39.75C95.729 39.0355 96.2266 38.5363 97.0596 38.2525ZM98.4856 43.2559C98.94 43.1011 99.2454 42.8069 99.4019 42.3732C99.5634 41.9294 99.5474 41.4235 99.3538 40.8556C99.1629 40.2952 98.868 39.8886 98.4691 39.6358C98.0778 39.3803 97.6549 39.33 97.2006 39.4849C96.7387 39.6423 96.4257 39.9391 96.2616 40.3753C96.095 40.804 96.1084 41.3023 96.302 41.8702L96.3174 41.9156C96.511 42.4836 96.8059 42.8902 97.2022 43.1355C97.5959 43.3732 98.0237 43.4133 98.4856 43.2559ZM106.871 38.7124L102.793 40.102L102.801 40.1247C102.953 40.5715 103.223 40.8935 103.612 41.0908C104 41.288 104.425 41.308 104.887 41.1506C105.205 41.0422 105.445 40.8888 105.605 40.6904C105.771 40.4818 105.854 40.2928 105.856 40.1233L107.128 39.6898C107.187 40.16 107.063 40.6415 106.758 41.1343C106.46 41.6245 105.952 41.9922 105.232 42.2374C104.369 42.5316 103.584 42.4988 102.879 42.1392C102.17 41.7721 101.658 41.1228 101.34 40.1914C101.023 39.26 101.029 38.4339 101.358 37.7133C101.684 36.985 102.26 36.4802 103.086 36.199C103.881 35.928 104.606 35.9725 105.261 36.3325C105.916 36.6924 106.392 37.3078 106.689 38.1786L106.871 38.7124ZM103.442 37.2819C103.033 37.4213 102.741 37.656 102.566 37.986C102.399 38.3135 102.367 38.6919 102.472 39.1213L105.243 38.1769C105.083 37.758 104.842 37.4724 104.52 37.3203C104.203 37.1579 103.843 37.1452 103.442 37.2819ZM108.737 40.8909L106.763 35.098L109.364 34.2116C109.985 34 110.506 33.9788 110.927 34.1481C111.348 34.3173 111.634 34.6215 111.783 35.0607C111.892 35.3787 111.903 35.6709 111.816 35.9371C111.734 36.1931 111.595 36.4053 111.399 36.5736C111.723 36.5562 112.024 36.6352 112.304 36.8104C112.591 36.9831 112.797 37.2549 112.924 37.626C113.089 38.1106 113.043 38.5701 112.785 39.0044C112.532 39.4286 112.088 39.749 111.452 39.9658L108.737 40.8909ZM110.449 37.5438L109.166 37.9812L109.669 39.4578L110.952 39.0204C111.24 38.9224 111.438 38.7832 111.545 38.6028C111.658 38.4123 111.674 38.1997 111.594 37.965C111.429 37.4803 111.047 37.34 110.449 37.5438ZM109.546 35.2654L108.376 35.664L108.833 37.0043L110.003 36.6057C110.252 36.5205 110.425 36.3941 110.52 36.2265C110.623 36.0563 110.638 35.8652 110.565 35.6532C110.416 35.214 110.076 35.0847 109.546 35.2654ZM113.809 32.6969L114.409 34.4575L115.568 34.0627C116.212 33.8433 116.791 33.8572 117.306 34.1042C117.819 34.3436 118.175 34.7549 118.373 35.338C118.574 35.9286 118.544 36.4841 118.282 37.0045C118.025 37.5147 117.578 37.8782 116.942 38.095L114.5 38.9271L112.526 33.1342L113.809 32.6969ZM115.78 35.2073L114.781 35.5479L115.416 37.4107L116.415 37.0701C116.726 36.9643 116.937 36.7908 117.049 36.5498C117.169 36.3061 117.183 36.0479 117.09 35.7753C116.997 35.5027 116.831 35.3141 116.593 35.2094C116.362 35.1022 116.091 35.1015 115.78 35.2073ZM121.336 36.5978L120.041 37.039L118.067 31.2461L119.362 30.8049L120.12 33.0312L121.108 32.6944C120.995 31.9387 121.11 31.2612 121.455 30.6619C121.801 30.0625 122.333 29.6403 123.052 29.3951C123.893 29.1087 124.667 29.1617 125.376 29.5542C126.082 29.9391 126.587 30.5783 126.891 31.4718C127.198 32.373 127.19 33.1914 126.866 33.9273C126.542 34.6631 125.96 35.1742 125.119 35.4606C124.369 35.7161 123.662 35.6993 122.997 35.4103C122.338 35.1111 121.827 34.5921 121.465 33.8532L120.511 34.1784L121.336 36.5978ZM123.452 34.1777C123.841 34.4256 124.266 34.4708 124.728 34.3134C125.19 34.156 125.495 33.8618 125.644 33.4307C125.798 32.9895 125.778 32.4849 125.585 31.917C125.391 31.349 125.1 30.9411 124.712 30.6933C124.328 30.4352 123.905 30.3849 123.443 30.5423C122.981 30.6998 122.673 30.9991 122.519 31.4403C122.37 31.8714 122.393 32.3709 122.586 32.9388C122.78 33.5067 123.068 33.9197 123.452 34.1777ZM44.1712 69.1047L49.2144 67.3861L51.1884 73.179L49.8935 73.6203L48.3066 68.9633L45.8531 69.7993L47.4401 74.4563L46.1452 74.8976L44.1712 69.1047ZM51.2494 67.4787C51.5885 66.7377 52.1821 66.2227 53.0302 65.9337C53.8783 65.6447 54.6591 65.6914 55.3726 66.0737C56.0936 66.4534 56.6076 67.0938 56.9147 67.9949C57.2218 68.8961 57.2057 69.7171 56.8666 70.4581C56.5351 71.1965 55.9453 71.7102 55.0971 71.9992C54.249 72.2882 53.4645 72.2429 52.7434 71.8631C52.03 71.4808 51.5197 70.8391 51.2127 69.938C50.9056 69.0369 50.9178 68.2171 51.2494 67.4787ZM53.4037 70.7127C53.8025 70.9655 54.2367 71.012 54.7062 70.852C55.1757 70.692 55.4874 70.3914 55.6413 69.9502C55.8028 69.5064 55.7881 69.0043 55.5971 68.4439C55.4062 67.8836 55.1112 67.477 54.7124 67.2241C54.3211 66.9687 53.8907 66.9209 53.4212 67.0809C52.9517 67.2409 52.6362 67.5428 52.4747 67.9866C52.3208 68.4278 52.3393 68.9286 52.5303 69.489C52.7212 70.0493 53.0124 70.4572 53.4037 70.7127ZM59.9366 63.5803C60.656 63.3351 61.3534 63.3975 62.0288 63.7674C62.7118 64.1347 63.2146 64.7917 63.5371 65.7382C63.8597 66.6848 63.8589 67.5133 63.5348 68.2239C63.2182 68.9318 62.6964 69.4096 61.9695 69.6574C61.5681 69.7941 61.1915 69.8422 60.8396 69.8015C60.4926 69.7507 60.2085 69.6362 59.9872 69.4581L60.9472 72.275L59.6523 72.7163L56.939 64.7539L58.1884 64.3281L58.4439 65.0778C58.6061 64.3633 59.1037 63.8641 59.9366 63.5803ZM61.3627 68.5837C61.8171 68.4289 62.1225 68.1346 62.279 67.701C62.4405 67.2572 62.4244 66.7513 62.2309 66.1834C62.0399 65.623 61.745 65.2164 61.3462 64.9635C60.9548 64.7081 60.532 64.6578 60.0777 64.8126C59.6158 64.97 59.3028 65.2668 59.1387 65.7031C58.9721 66.1317 58.9855 66.63 59.179 67.198L59.1945 67.2434C59.3881 67.8113 59.683 68.2179 60.0793 68.4632C60.473 68.7009 60.9008 68.7411 61.3627 68.5837ZM63.2778 63.8616L62.8907 62.7257L67.8885 61.0227L68.2756 62.1585L66.4241 62.7894L68.0111 67.4465L66.7162 67.8877L65.1292 63.2307L63.2778 63.8616ZM72.4975 59.3126C73.3938 59.041 74.2201 59.0848 74.9764 59.4441C75.7327 59.8034 76.2605 60.4222 76.5598 61.3006C76.8591 62.179 76.819 62.9913 76.4395 63.7377C76.0599 64.484 75.4323 65.0232 74.5566 65.3554L75.2533 67.4L73.9812 67.8335L73.2845 65.7889C72.3806 66.0631 71.5505 66.0206 70.7942 65.6614C70.0379 65.3021 69.5101 64.6833 69.2108 63.8049C68.9114 62.9265 68.9516 62.1141 69.3311 61.3678C69.7107 60.6215 70.3421 60.0809 71.2253 59.7462L70.4938 57.5994L71.7659 57.1659L72.4975 59.3126ZM72.9013 64.6644L71.6085 60.8707C71.1214 61.0535 70.7694 61.3721 70.5523 61.8264C70.3327 62.2731 70.3209 62.7842 70.517 63.3598C70.7131 63.9353 71.0358 64.3366 71.4851 64.5638C71.9319 64.7835 72.4039 64.817 72.9013 64.6644ZM75.2649 61.7418C75.0688 61.1663 74.7474 60.7688 74.3007 60.5491C73.8514 60.3219 73.378 60.2846 72.8807 60.4371L74.1734 64.2309C74.6605 64.0481 75.0125 63.7295 75.2296 63.2752C75.4467 62.8209 75.4584 62.3098 75.2649 61.7418ZM77.2731 58.6108C77.6122 57.8698 78.2058 57.3548 79.0539 57.0658C79.902 56.7768 80.6828 56.8234 81.3962 57.2057C82.1173 57.5854 82.6313 58.2259 82.9384 59.127C83.2454 60.0281 83.2294 60.8492 82.8903 61.5901C82.5588 62.3286 81.9689 62.8423 81.1208 63.1313C80.2727 63.4203 79.4881 63.3749 78.7671 62.9952C78.0537 62.6129 77.5434 61.9712 77.2363 61.07C76.9293 60.1689 76.9415 59.3492 77.2731 58.6108ZM79.4273 61.8447C79.8262 62.0976 80.2604 62.144 80.7299 61.984C81.1994 61.8241 81.5111 61.5235 81.665 61.0822C81.8265 60.6384 81.8117 60.1363 81.6208 59.576C81.4298 59.0156 81.1349 58.609 80.736 58.3562C80.3447 58.1007 79.9143 58.053 79.4448 58.213C78.9753 58.373 78.6599 58.6749 78.4984 59.1187C78.3445 59.5599 78.363 60.0607 78.5539 60.621C78.7449 61.1814 79.036 61.5893 79.4273 61.8447ZM84.2423 61.9408L83.8552 60.8049L84.037 60.743C84.355 60.6346 84.5487 60.4714 84.6181 60.2534C84.6925 60.0252 84.6725 59.6813 84.5581 59.2216L83.6576 55.6491L87.9171 54.1976L89.8911 59.9905L88.5963 60.4318L87.0093 55.7747L85.1806 56.3979L85.8158 58.8944C86.0262 59.7102 86.033 60.3502 85.8362 60.8145C85.6444 61.2686 85.2305 61.6041 84.5944 61.8208L84.2423 61.9408ZM94.4144 51.9836L96.3884 57.7765L95.1162 58.21L93.8041 54.3594L92.4924 59.1041L91.2429 59.5299L89.2689 53.737L90.5411 53.3035L91.8571 57.1654L93.1649 52.4094L94.4144 51.9836ZM96.447 52.077C96.7861 51.336 97.3797 50.821 98.2278 50.532C99.0759 50.243 99.8567 50.2896 100.57 50.6719C101.291 51.0517 101.805 51.6921 102.112 52.5932C102.419 53.4943 102.403 54.3154 102.064 55.0564C101.733 55.7948 101.143 56.3085 100.295 56.5975C99.4466 56.8865 98.662 56.8411 97.941 56.4614C97.2276 56.0791 96.7173 55.4374 96.4102 54.5363C96.1032 53.6351 96.1154 52.8154 96.447 52.077ZM98.6012 55.311C99.0001 55.5638 99.4343 55.6103 99.9038 55.4503C100.373 55.2903 100.685 54.9897 100.839 54.5484C101 54.1046 100.986 53.6026 100.795 53.0422C100.604 52.4818 100.309 52.0752 99.9099 51.8224C99.5186 51.5669 99.0882 51.5192 98.6187 51.6792C98.1492 51.8392 97.8338 52.1411 97.6723 52.5849C97.5184 53.0261 97.5369 53.5269 97.7278 54.0873C97.9188 54.6476 98.2099 55.0555 98.6012 55.311Z" fill="#0F1414"/>
<defs>
<linearGradient id="paint0_linear_163_804" x1="76.2966" y1="2.0107" x2="99.5542" y2="70.262" gradientUnits="userSpaceOnUse">
<stop stop-color="#F9F9F9"/>
<stop offset="1" stop-color="#F4F4F4"/>
</linearGradient>
</defs>
</svg>
