<svg width="180" height="100" viewBox="0 0 180 100" fill="none" xmlns="http://www.w3.org/2000/svg">
<g clip-path="url(#clip0_201_768)">
<path fill-rule="evenodd" clip-rule="evenodd" d="M38.3262 26.6238C27.6526 29.4668 21.3047 40.4241 24.1477 51.0977L30.5164 75.0078C33.3593 85.6813 44.3167 92.0292 54.9902 89.1862L92.9008 79.0884C92.9696 79.1363 93.0409 79.1818 93.1148 79.2246L100.797 83.6753C102.231 84.5058 104.066 84.0169 104.897 82.5833L109.348 74.9008C109.391 74.8269 109.43 74.752 109.466 74.6763L139.373 66.7101C150.047 63.8671 156.395 52.9098 153.552 42.2362L147.183 18.3261C144.34 7.65259 133.383 1.30466 122.709 4.14766L38.3262 26.6238Z" fill="url(#paint0_linear_201_768)"/>
<path d="M36.5302 37.6753L38.2348 37.2213L42.5271 42.846L43.4413 35.8345L45.1227 35.3866L47.297 43.55L45.9867 43.899L44.4146 37.9968L43.554 44.5098L42.4408 44.8063L38.4544 39.5844L40.0265 45.4866L38.7046 45.8387L36.5302 37.6753ZM47.8997 37.8261C48.2884 37.1099 48.9157 36.6365 49.7815 36.4059C50.6473 36.1753 51.4231 36.2749 52.1089 36.7049C52.8024 37.1328 53.2717 37.8068 53.5167 38.7267C53.7617 39.6466 53.6899 40.4647 53.3011 41.1809C52.9201 41.895 52.2967 42.3674 51.4308 42.598C50.565 42.8286 49.7854 42.7299 49.0919 42.302C48.4061 41.872 47.9407 41.1971 47.6957 40.2772C47.4506 39.3572 47.5186 38.5402 47.8997 37.8261ZM49.8288 41.1992C50.2096 41.4786 50.6396 41.5545 51.1189 41.4268C51.5982 41.2991 51.9296 41.0205 52.1132 40.5907C52.3045 40.1589 52.324 39.657 52.1716 39.085C52.0192 38.5129 51.7527 38.0872 51.3719 37.8078C50.9989 37.5263 50.5728 37.4494 50.0935 37.577C49.6142 37.7047 49.2789 37.9844 49.0876 38.4162C48.904 38.8459 48.8884 39.3468 49.0408 39.9189C49.1931 40.4909 49.4558 40.9177 49.8288 41.1992ZM57.802 34.4186L58.4691 36.9232L59.866 33.8688L61.385 33.4642L59.8303 36.8587L62.995 39.3687L61.4412 39.7826L58.6359 37.5494L59.3772 40.3324L58.0784 40.6783L57.3372 37.8953L56.0144 41.2281L54.4722 41.6389L55.9666 37.9251L52.9202 35.7189L54.4392 35.3143L57.1704 37.2692L56.5032 34.7645L57.802 34.4186ZM65.0329 38.8259L63.711 39.178L62.1358 33.2642L63.4577 32.9121L64.063 35.1849L66.6025 34.5085L65.9971 32.2357L67.319 31.8836L68.8942 37.7974L67.5723 38.1495L66.9145 35.6796L64.375 36.3561L65.0329 38.8259ZM69.3422 32.1147C69.731 31.3985 70.3583 30.9251 71.2241 30.6945C72.0899 30.4638 72.8657 30.5635 73.5514 30.9935C74.245 31.4214 74.7142 32.0953 74.9593 33.0153C75.2043 33.9352 75.1324 34.7533 74.7437 35.4694C74.3626 36.1836 73.7392 36.656 72.8734 36.8866C72.0076 37.1172 71.2279 37.0185 70.5344 36.5906C69.8486 36.1606 69.3832 35.4857 69.1382 34.5658C68.8932 33.6458 68.9612 32.8288 69.3422 32.1147ZM71.2714 35.4878C71.6521 35.7672 72.0821 35.8431 72.5614 35.7154C73.0407 35.5877 73.3722 35.309 73.5557 34.8793C73.7471 34.4475 73.7665 33.9456 73.6141 33.3736C73.4618 32.8015 73.1952 32.3758 72.8145 32.0963C72.4415 31.8149 72.0153 31.738 71.536 31.8656C71.0567 31.9933 70.7214 32.273 70.5301 32.7048C70.3465 33.1345 70.3309 33.6354 70.4833 34.2075C70.6357 34.7795 70.8984 35.2063 71.2714 35.4878ZM40.7342 52.153C41.123 51.4369 41.7503 50.9634 42.6161 50.7328C43.4819 50.5022 44.2577 50.6019 44.9435 51.0319C45.637 51.4598 46.1062 52.1337 46.3513 53.0536C46.5963 53.9736 46.5244 54.7916 46.1357 55.5078C45.7546 56.2219 45.1312 56.6943 44.2654 56.9249C43.3996 57.1556 42.6199 57.0569 41.9264 56.629C41.2407 56.199 40.7753 55.5241 40.5302 54.6041C40.2852 53.6842 40.3532 52.8672 40.7342 52.153ZM42.6634 55.5261C43.0442 55.8056 43.4742 55.8814 43.9535 55.7538C44.4327 55.6261 44.7642 55.3474 44.9478 54.9177C45.1391 54.4859 45.1585 53.984 45.0062 53.4119C44.8538 52.8399 44.5872 52.4141 44.2065 52.1347C43.8335 51.8532 43.4073 51.7763 42.928 51.904C42.4487 52.0317 42.1134 52.3114 41.9221 52.7432C41.7386 53.1729 41.723 53.6738 41.8753 54.2458C42.0277 54.8179 42.2904 55.2447 42.6634 55.5261ZM49.6349 49.062C50.4157 48.854 51.1206 48.9519 51.7497 49.3556C52.3865 49.7572 52.8264 50.4141 53.0694 51.3263C53.298 52.1844 53.2276 52.9772 52.8585 53.7047C52.4949 54.4225 51.8842 54.8956 51.0261 55.1242C50.0675 55.3795 49.2322 55.2584 48.5201 54.7609C47.8061 54.2557 47.2956 53.4272 46.9888 52.2753C46.612 50.8607 46.551 49.7303 46.8058 48.8842C47.0586 48.0304 47.6887 47.3658 48.6963 46.8904L50.9793 45.8104L51.3005 47.0164L49.1931 47.9627C48.6112 48.2336 48.2215 48.5733 48.024 48.9819C47.8245 49.3828 47.7782 49.9084 47.8852 50.5588C48.1549 49.7998 48.7382 49.3009 49.6349 49.062ZM50.6507 53.9947C51.1377 53.865 51.4741 53.5892 51.6597 53.1672C51.851 52.7354 51.8725 52.2412 51.7243 51.6846C51.5802 51.1435 51.3198 50.7409 50.9431 50.477C50.5722 50.2032 50.1471 50.1302 49.6678 50.2578C49.1885 50.3855 48.8424 50.6557 48.6294 51.0684C48.4144 51.4734 48.381 51.9542 48.5293 52.5108C48.6817 53.0828 48.9482 53.5086 49.329 53.788C49.7154 54.0576 50.156 54.1265 50.6507 53.9947ZM56.365 47.0707C57.0994 46.8751 57.7909 46.9848 58.4396 47.3998C59.096 47.8128 59.5529 48.5024 59.8103 49.4687C60.0676 50.435 60.0105 51.2616 59.6387 51.9484C59.2747 52.6332 58.7216 53.0744 57.9795 53.2721C57.5698 53.3812 57.1908 53.4035 56.8424 53.339C56.4998 53.2647 56.2241 53.1311 56.0154 52.9383L56.7814 55.8141L55.4595 56.1662L53.2944 48.0376L54.5699 47.6978L54.7738 48.4632C54.9842 47.7614 55.5146 47.2972 56.365 47.0707ZM57.4472 52.1596C57.9111 52.036 58.2358 51.7633 58.4214 51.3413C58.6127 50.9095 58.6312 50.4037 58.4768 49.8239C58.3244 49.2519 58.0578 48.8261 57.6771 48.5467C57.3041 48.2652 56.8856 48.1863 56.4218 48.3098C55.9503 48.4354 55.6178 48.7102 55.4244 49.1343C55.229 49.5506 55.2085 50.0487 55.3629 50.6285L55.3753 50.6749C55.5297 51.2546 55.7963 51.6804 56.175 51.9521C56.5516 52.216 56.9757 52.2852 57.4472 52.1596ZM64.0477 47.3093C63.9592 46.9769 63.783 46.7506 63.5192 46.6305C63.261 46.5005 62.958 46.4819 62.6102 46.5746C61.984 46.7414 61.6543 47.0734 61.6212 47.5707L60.3689 47.9042C60.3257 47.3693 60.4725 46.879 60.8091 46.4334C61.1514 45.9779 61.6705 45.6575 62.3662 45.4722C63.1006 45.2766 63.7347 45.3105 64.2685 45.574C64.81 45.8355 65.1714 46.3063 65.3526 46.9866L66.3904 50.8827L65.1612 51.2101L64.9821 50.5376C64.6933 51.194 64.1547 51.6273 63.3662 51.8373C62.7787 51.9938 62.2435 51.9583 61.7607 51.7309C61.2836 51.4937 60.9699 51.093 60.8195 50.5287C60.6631 49.9411 60.7503 49.4295 61.0813 48.9936C61.4179 48.5479 61.9573 48.2263 62.6994 48.0286L64.1373 47.6456L64.0477 47.3093ZM63.3688 50.6817C63.7785 50.5725 64.0955 50.3639 64.3198 50.0558C64.542 49.74 64.6016 49.3888 64.4986 49.0023L64.4029 48.6428L63.0578 49.0011C62.7099 49.0938 62.4512 49.2413 62.2816 49.4438C62.1177 49.6365 62.0707 49.8642 62.1407 50.1271C62.2107 50.3899 62.358 50.5701 62.5827 50.6675C62.8053 50.7573 63.0673 50.762 63.3688 50.6817ZM76.1225 47.0487L76.8267 49.6925L75.5512 50.0322L75.1558 48.548L67.7114 50.5309L66.1362 44.6171L67.4581 44.265L68.7244 49.0192L70.6725 48.5003L69.4062 43.7461L70.7281 43.394L71.9944 48.1482L73.9425 47.6293L72.6762 42.8751L73.9981 42.523L75.2644 47.2772L76.1225 47.0487ZM79.7431 43.1287C79.6546 42.7963 79.4784 42.57 79.2146 42.4499C78.9565 42.3199 78.6534 42.3013 78.3056 42.394C77.6794 42.5607 77.3498 42.8928 77.3166 43.3901L76.0643 43.7236C76.0212 43.1887 76.1679 42.6984 76.5046 42.2528C76.8469 41.7973 77.3659 41.4769 78.0616 41.2916C78.796 41.096 79.4301 41.1299 79.9639 41.3934C80.5055 41.6548 80.8668 42.1257 81.048 42.806L82.0858 46.7021L80.8566 47.0295L80.6775 46.357C80.3887 47.0134 79.8501 47.4466 79.0616 47.6567C78.4741 47.8132 77.9389 47.7777 77.4561 47.5503C76.979 47.3131 76.6653 46.9124 76.515 46.348C76.3585 45.7605 76.4457 45.2488 76.7767 44.813C77.1133 44.3673 77.6527 44.0456 78.3948 43.848L79.8327 43.465L79.7431 43.1287ZM79.0642 46.5011C79.474 46.3919 79.7909 46.1833 80.0152 45.8752C80.2374 45.5594 80.297 45.2082 80.1941 44.8217L80.0983 44.4622L78.7532 44.8205C78.4053 44.9132 78.1466 45.0607 77.977 45.2632C77.8131 45.4559 77.7661 45.6836 77.8361 45.9465C77.9061 46.2093 78.0535 46.3895 78.2781 46.4869C78.5007 46.5767 78.7628 46.5814 79.0642 46.5011ZM81.5747 41.7467L81.2659 40.5871L86.368 39.2282L86.6768 40.3877L84.7867 40.8912L86.0531 45.6454L84.7312 45.9975L83.4648 41.2433L81.5747 41.7467ZM88.5833 38.6381L89.062 40.4354L90.2448 40.1204C90.9019 39.9454 91.479 39.9986 91.9762 40.2801C92.4714 40.5539 92.7982 40.9884 92.9568 41.5837C93.1174 42.1866 93.0492 42.7388 92.7522 43.2401C92.4609 43.7316 91.9906 44.0639 91.3413 44.2369L88.8482 44.9009L87.273 38.9871L88.5833 38.6381ZM90.379 41.2768L89.3585 41.5486L89.8651 43.4503L90.8855 43.1785C91.2024 43.0941 91.4251 42.9354 91.5535 42.7025C91.6896 42.4676 91.7206 42.211 91.6465 41.9327C91.5723 41.6544 91.4199 41.4549 91.189 41.3342C90.9659 41.2115 90.6959 41.1924 90.379 41.2768ZM96.7693 41.6858C97.1558 41.5829 97.4277 41.407 97.5849 41.1581C97.7499 40.9072 97.8312 40.6372 97.8287 40.3481L99.1158 40.0052C99.2068 40.6268 99.0722 41.209 98.7118 41.7521C98.3514 42.2951 97.804 42.6645 97.0696 42.8601C96.2116 43.0886 95.4435 42.9869 94.7654 42.5549C94.0853 42.1151 93.6238 41.4391 93.3808 40.5269C93.1399 39.6224 93.2012 38.8113 93.5647 38.0936C93.936 37.3738 94.5545 36.8986 95.4203 36.668C96.1702 36.4682 96.8298 36.5202 97.3991 36.8239C97.9664 37.1199 98.3659 37.5474 98.5977 38.1066L97.3105 38.4495C97.1555 38.2093 96.945 38.0253 96.6792 37.8974C96.419 37.7597 96.1033 37.7403 95.7323 37.8391C95.2684 37.9627 94.9447 38.2393 94.7612 38.669C94.5853 39.0967 94.5736 39.5966 94.7259 40.1686C94.8804 40.7484 95.1441 41.179 95.5171 41.4605C95.8881 41.7343 96.3055 41.8094 96.7693 41.6858ZM105.124 40.5656L103.814 40.9146L103.304 39.0013L102.412 39.2392L101.565 41.5138L100.08 41.9092L101.014 39.4003C100.607 39.3347 100.258 39.1713 99.9644 38.9099C99.6769 38.6388 99.4796 38.3022 99.3726 37.9002C99.2181 37.3204 99.2809 36.7946 99.5609 36.3226C99.8465 35.8409 100.333 35.5084 101.021 35.3251L103.549 34.6518L105.124 40.5656ZM100.785 36.8161C100.645 37.0356 100.612 37.2845 100.686 37.5628C100.76 37.8411 100.913 38.0406 101.143 38.1612C101.374 38.2819 101.648 38.3 101.965 38.2156L103.02 37.9345L102.526 36.0792L101.471 36.3603C101.154 36.4447 100.925 36.5967 100.785 36.8161ZM113.288 35.6342L109.125 36.743L109.131 36.7662C109.253 37.2223 109.501 37.562 109.875 37.7853C110.249 38.0085 110.672 38.0573 111.143 37.9317C111.468 37.8452 111.717 37.7085 111.891 37.5215C112.07 37.3247 112.166 37.1418 112.179 36.9727L113.478 36.6268C113.505 37.0999 113.349 37.5719 113.011 38.0428C112.68 38.5116 112.148 38.8439 111.413 39.0395C110.532 39.2742 109.752 39.1882 109.072 38.7814C108.39 38.3669 107.923 37.6842 107.67 36.7334C107.416 35.7825 107.479 34.9588 107.856 34.2622C108.231 33.5578 108.84 33.0934 109.683 32.869C110.495 32.6528 111.215 32.7465 111.844 33.1502C112.473 33.5539 112.906 34.2002 113.143 35.0892L113.288 35.6342ZM109.965 33.9737C109.547 34.0849 109.24 34.2992 109.043 34.6165C108.854 34.9319 108.797 35.3073 108.871 35.7427L111.701 34.9891C111.57 34.5603 111.349 34.259 111.038 34.0853C110.732 33.9018 110.374 33.8645 109.965 33.9737ZM117.267 36.2262C117.653 36.1233 117.925 35.9473 118.082 35.6985C118.247 35.4476 118.328 35.1776 118.326 34.8885L119.613 34.5456C119.704 35.1671 119.569 35.7494 119.209 36.2925C118.849 36.8355 118.301 37.2049 117.567 37.4005C116.709 37.629 115.941 37.5273 115.263 37.0952C114.583 36.6555 114.121 35.9795 113.878 35.0673C113.637 34.1628 113.698 33.3517 114.062 32.634C114.433 31.9142 115.052 31.439 115.918 31.2084C116.667 31.0086 117.327 31.0606 117.896 31.3643C118.464 31.6603 118.863 32.0878 119.095 32.647L117.808 32.9899C117.653 32.7497 117.442 32.5656 117.176 32.4378C116.916 32.3001 116.601 32.2807 116.229 32.3795C115.766 32.5031 115.442 32.7797 115.258 33.2094C115.083 33.6371 115.071 34.137 115.223 34.709C115.378 35.2888 115.641 35.7194 116.014 36.0009C116.385 36.2747 116.803 36.3498 117.267 36.2262ZM120.514 36.4913L120.205 35.3317L120.391 35.2823C120.715 35.1958 120.92 35.0462 121.004 34.8333C121.094 34.6108 121.097 34.2663 121.014 33.7999L120.359 30.1744L124.707 29.0161L126.283 34.9299L124.961 35.282L123.694 30.5278L121.827 31.0251L122.291 33.5591C122.446 34.3872 122.409 35.0262 122.181 35.476C121.959 35.9161 121.523 36.2226 120.874 36.3955L120.514 36.4913ZM131.34 27.2494L132.915 33.1632L131.617 33.5092L130.57 29.5782L128.938 34.2226L127.663 34.5624L126.087 28.6486L127.386 28.3026L128.436 32.2452L130.065 27.5892L131.34 27.2494ZM46.0646 68.7151L44.7427 69.0672L43.1675 63.1534L44.4894 62.8013L45.0948 65.074L47.6343 64.3976L47.0289 62.1249L48.3508 61.7727L49.926 67.6866L48.6041 68.0387L47.9462 65.5688L45.4068 66.2452L46.0646 68.7151ZM55.7914 63.3674L51.6286 64.4762L51.6348 64.4994C51.7562 64.9555 52.004 65.2951 52.3781 65.5184C52.7521 65.7416 53.175 65.7904 53.6465 65.6648C53.9712 65.5784 54.2204 65.4416 54.3941 65.2546C54.5735 65.0578 54.6697 64.8749 54.6826 64.7059L55.9813 64.3599C56.008 64.833 55.8522 65.305 55.514 65.7759C55.1836 66.2448 54.6511 66.577 53.9167 66.7726C53.0355 67.0073 52.255 66.9213 51.5754 66.5145C50.8938 66.1 50.4263 65.4173 50.1731 64.4665C49.9198 63.5156 49.9819 62.6919 50.3593 61.9953C50.7346 61.291 51.3436 60.8266 52.1863 60.6021C52.998 60.3859 53.7183 60.4797 54.3474 60.8833C54.9765 61.287 55.4095 61.9334 55.6463 62.8224L55.7914 63.3674ZM52.4681 61.7068C52.0506 61.818 51.7434 62.0323 51.5465 62.3497C51.3573 62.665 51.3 63.0404 51.3746 63.4759L54.2039 62.7222C54.0731 62.2934 53.8522 61.9922 53.541 61.8184C53.2354 61.6349 52.8778 61.5977 52.4681 61.7068ZM58.3867 60.8754C58.2983 60.2946 58.4399 59.785 58.8116 59.3466C59.191 58.9061 59.7053 58.5993 60.3547 58.4264C60.9886 58.2575 61.5516 58.2732 62.0437 58.4733C62.5357 58.6733 62.8497 59.0285 62.9856 59.5387C63.1504 60.1571 62.9786 60.6624 62.4704 61.0544C62.7729 61.04 63.0633 61.12 63.3415 61.2943C63.6254 61.4587 63.8198 61.7381 63.9248 62.1323C64.071 62.6812 63.9614 63.1865 63.5959 63.6481C63.2381 64.1076 62.6998 64.4332 61.9808 64.6247C61.2851 64.81 60.6649 64.7972 60.1203 64.5863C59.5756 64.3753 59.1864 63.9864 58.9526 63.4195L60.2397 63.0766C60.3695 63.3153 60.5612 63.4753 60.8147 63.5568C61.0739 63.6285 61.3658 63.6212 61.6905 63.5347C62.0306 63.4441 62.2827 63.3024 62.4466 63.1097C62.6085 62.9093 62.6554 62.6816 62.5875 62.4265C62.4598 61.9472 62.0288 61.8053 61.2944 62.001L60.4247 62.2326L60.1467 61.189L60.9469 60.9759C61.2561 60.8935 61.4754 60.7689 61.6048 60.6019C61.7398 60.4252 61.7765 60.2209 61.7147 59.989C61.655 59.7648 61.5198 59.6145 61.309 59.5382C61.106 59.4598 60.8615 59.4587 60.5755 59.5349C60.274 59.6152 60.0441 59.7468 59.8858 59.9297C59.7276 60.1126 59.6492 60.3156 59.6507 60.5388L58.3867 60.8754ZM66.743 63.2072L65.4211 63.5593L63.8459 57.6455L65.1678 57.2934L65.7732 59.5661L68.3127 58.8897L67.7073 56.617L69.0292 56.2649L70.6044 62.1787L69.2825 62.5308L68.6246 60.0609L66.0852 60.7373L66.743 63.2072ZM74.3954 56.9715C74.3069 56.6391 74.1307 56.4128 73.8669 56.2927C73.6087 56.1627 73.3057 56.1441 72.9579 56.2368C72.3317 56.4035 72.002 56.7356 71.9689 57.2329L70.7166 57.5664C70.6735 57.0315 70.8202 56.5412 71.1568 56.0956C71.4991 55.6401 72.0182 55.3197 72.7139 55.1344C73.4483 54.9388 74.0824 54.9727 74.6162 55.2362C75.1577 55.4976 75.5191 55.9685 75.7003 56.6488L76.7381 60.5449L75.5089 60.8723L75.3298 60.1998C75.041 60.8562 74.5024 61.2894 73.7139 61.4995C73.1264 61.656 72.5912 61.6205 72.1084 61.3931C71.6313 61.1559 71.3176 60.7552 71.1673 60.1908C71.0108 59.6033 71.098 59.0916 71.429 58.6558C71.7656 58.2101 72.305 57.8884 73.0471 57.6908L74.485 57.3078L74.3954 56.9715ZM73.7165 60.3439C74.1262 60.2347 74.4432 60.0261 74.6675 59.718C74.8897 59.4022 74.9493 59.051 74.8463 58.6645L74.7506 58.305L73.4055 58.6633C73.0576 58.756 72.7989 58.9035 72.6293 59.106C72.4654 59.2987 72.4184 59.5264 72.4884 59.7893C72.5584 60.0521 72.7058 60.2323 72.9304 60.3297C73.153 60.4194 73.415 60.4242 73.7165 60.3439ZM82.5567 56.2382L78.3938 57.347L78.4 57.3702C78.5215 57.8263 78.7693 58.166 79.1433 58.3892C79.5174 58.6125 79.9402 58.6613 80.4118 58.5357C80.7364 58.4492 80.9856 58.3125 81.1594 58.1254C81.3388 57.9286 81.4349 57.7457 81.4478 57.5767L82.7466 57.2308C82.7732 57.7039 82.6175 58.1759 82.2793 58.6468C81.9488 59.1156 81.4164 59.4478 80.682 59.6435C79.8007 59.8782 79.0203 59.7922 78.3407 59.3854C77.659 58.9709 77.1916 58.2882 76.9383 57.3373C76.685 56.3865 76.7471 55.5628 77.1245 54.8661C77.4999 54.1618 78.1089 53.6974 78.9515 53.473C79.7632 53.2568 80.4836 53.3505 81.1127 53.7542C81.7418 54.1579 82.1747 54.8042 82.4115 55.6932L82.5567 56.2382ZM79.2333 54.5776C78.8159 54.6888 78.5087 54.9031 78.3117 55.2205C78.1225 55.5358 78.0652 55.9112 78.1398 56.3467L80.9692 55.5931C80.8384 55.1643 80.6174 54.863 80.3062 54.6893C80.0007 54.5057 79.643 54.4685 79.2333 54.5776ZM87.2872 51.4017L88.5535 56.1559L90.5016 55.6371L89.2353 50.8828L90.5572 50.5307L92.1324 56.4445L84.2705 58.5386L82.6953 52.6248L84.0172 52.2727L85.2835 57.0269L87.2316 56.508L85.9653 51.7538L87.2872 51.4017ZM93.2405 49.816L93.7192 51.6133L94.902 51.2983C95.5591 51.1233 96.1362 51.1765 96.6335 51.458C97.1286 51.7318 97.4555 52.1663 97.614 52.7616C97.7746 53.3645 97.7064 53.9167 97.4095 54.418C97.1182 54.9095 96.6478 55.2418 95.9985 55.4148L93.5054 56.0788L91.9302 50.165L93.2405 49.816ZM95.0362 52.4547L94.0158 52.7265L94.5223 54.6282L95.5427 54.3564C95.8597 54.272 96.0823 54.1133 96.2107 53.8804C96.3468 53.6455 96.3778 53.3889 96.3037 53.1106C96.2296 52.8323 96.0771 52.6328 95.8462 52.5121C95.6231 52.3894 95.3531 52.3703 95.0362 52.4547ZM100.653 53.4548C100.702 53.6404 100.717 53.8517 100.697 54.0887L100.479 56.2082L99.4706 56.4769L99.6466 54.4803C99.2462 54.4379 98.9976 54.2351 98.9008 53.8717C98.837 53.6321 98.8657 53.4134 98.9868 53.2155C99.108 53.0177 99.2923 52.8858 99.5396 52.8199C99.787 52.754 100.018 52.7834 100.234 52.9082C100.447 53.0253 100.587 53.2075 100.653 53.4548ZM106.308 51.5636C106.694 51.4607 106.966 51.2847 107.123 51.0359C107.288 50.785 107.369 50.515 107.367 50.2259L108.654 49.883C108.745 50.5045 108.61 51.0868 108.25 51.6299C107.89 52.1729 107.342 52.5423 106.608 52.7379C105.75 52.9664 104.982 52.8647 104.304 52.4326C103.624 51.9929 103.162 51.3169 102.919 50.4047C102.678 49.5002 102.739 48.6891 103.103 47.9714C103.474 47.2516 104.093 46.7764 104.959 46.5458C105.708 46.346 106.368 46.398 106.937 46.7017C107.505 46.9977 107.904 47.4252 108.136 47.9844L106.849 48.3273C106.694 48.0871 106.483 47.903 106.217 47.7752C105.957 47.6375 105.642 47.6181 105.271 47.7169C104.807 47.8405 104.483 48.1171 104.299 48.5468C104.124 48.9745 104.112 49.4744 104.264 50.0464C104.419 50.6262 104.682 51.0568 105.055 51.3383C105.426 51.6121 105.844 51.6872 106.308 51.5636ZM114.326 44.1998L115.647 43.8477L117.223 49.7615L115.901 50.1136L115.28 47.7829C114.986 48.0765 114.572 48.2944 114.038 48.4365C113.35 48.6197 112.74 48.567 112.208 48.2782C111.676 47.9895 111.306 47.4548 111.098 46.674L110.696 45.1665L112.018 44.8144L112.395 46.2291C112.628 47.1027 113.173 47.4251 114.031 47.1966C114.418 47.0936 114.737 46.9257 114.99 46.6929L114.326 44.1998ZM123.087 45.4426L118.924 46.5515L118.93 46.5747C119.052 47.0308 119.299 47.3704 119.674 47.5937C120.048 47.8169 120.47 47.8657 120.942 47.7401C121.267 47.6536 121.516 47.5169 121.69 47.3299C121.869 47.1331 121.965 46.9502 121.978 46.7811L123.277 46.4352C123.303 46.9083 123.148 47.3803 122.809 47.8512C122.479 48.3201 121.947 48.6523 121.212 48.8479C120.331 49.0826 119.55 48.9966 118.871 48.5898C118.189 48.1753 117.722 47.4926 117.468 46.5418C117.215 45.5909 117.277 44.7672 117.655 44.0706C118.03 43.3662 118.639 42.9018 119.482 42.6774C120.293 42.4612 121.014 42.5549 121.643 42.9586C122.272 43.3623 122.705 44.0086 122.942 44.8977L123.087 45.4426ZM119.763 43.7821C119.346 43.8933 119.039 44.1076 118.842 44.4249C118.653 44.7403 118.595 45.1157 118.67 45.5511L121.499 44.7975C121.369 44.3687 121.148 44.0675 120.836 43.8937C120.531 43.7102 120.173 43.673 119.763 43.7821ZM127.593 41.9078L124.856 42.6367L126.123 47.3909L124.801 47.743L123.225 41.8292L127.284 40.7482L127.593 41.9078ZM128.654 41.1532C129.043 40.437 129.67 39.9636 130.536 39.733C131.402 39.5024 132.178 39.6021 132.863 40.0321C133.557 40.46 134.026 41.1339 134.271 42.0538C134.516 42.9738 134.444 43.7918 134.056 44.508C133.674 45.2221 133.051 45.6945 132.185 45.9251C131.319 46.1557 130.54 46.0571 129.846 45.6292C129.16 45.1992 128.695 44.5242 128.45 43.6043C128.205 42.6844 128.273 41.8674 128.654 41.1532ZM130.583 44.5263C130.964 44.8057 131.394 44.8816 131.873 44.754C132.353 44.6263 132.684 44.3476 132.868 43.9179C133.059 43.4861 133.078 42.9842 132.926 42.4121C132.774 41.84 132.507 41.4143 132.126 41.1349C131.753 40.8534 131.327 40.7765 130.848 40.9042C130.369 41.0318 130.033 41.3116 129.842 41.7434C129.658 42.1731 129.643 42.674 129.795 43.246C129.948 43.8181 130.21 44.2449 130.583 44.5263ZM49.1532 80.3108L47.8313 80.6629L46.2561 74.7491L47.578 74.397L48.1834 76.6697L50.7229 75.9933L50.1175 73.7206L51.4394 73.3685L53.0146 79.2823L51.6927 79.6344L51.0348 77.1645L48.4954 77.8409L49.1532 80.3108ZM56.8056 74.0751C56.7171 73.7427 56.5409 73.5164 56.2771 73.3963C56.0189 73.2663 55.7159 73.2477 55.3681 73.3403C54.7419 73.5071 54.4123 73.8392 54.3791 74.3364L53.1268 74.67C53.0837 74.1351 53.2304 73.6448 53.5671 73.1991C53.9094 72.7437 54.4284 72.4233 55.1241 72.238C55.8585 72.0424 56.4926 72.0763 57.0264 72.3398C57.568 72.6012 57.9293 73.0721 58.1105 73.7524L59.1483 77.6485L57.9191 77.9759L57.74 77.3034C57.4512 77.9598 56.9126 78.393 56.1241 78.6031C55.5366 78.7595 55.0014 78.7241 54.5186 78.4967C54.0415 78.2595 53.7278 77.8588 53.5775 77.2944C53.421 76.7069 53.5082 76.1952 53.8392 75.7593C54.1758 75.3137 54.7152 74.992 55.4573 74.7944L56.8952 74.4114L56.8056 74.0751ZM56.1267 77.4474C56.5365 77.3383 56.8534 77.1297 57.0777 76.8216C57.2999 76.5058 57.3595 76.1546 57.2566 75.7681L57.1608 75.4086L55.8157 75.7669C55.4678 75.8595 55.2091 76.0071 55.0395 76.2096C54.8756 76.4023 54.8286 76.63 54.8986 76.8929C54.9686 77.1557 55.116 77.3358 55.3406 77.4333C55.5632 77.523 55.8252 77.5277 56.1267 77.4474ZM62.3264 70.4686L63.6483 70.1165L65.2235 76.0303L63.9016 76.3824L63.2808 74.0517C62.9865 74.3453 62.5726 74.5632 62.0392 74.7053C61.3512 74.8885 60.7411 74.8358 60.2088 74.5471C59.6766 74.2583 59.3065 73.7236 59.0985 72.9428L58.697 71.4353L60.0189 71.0832L60.3957 72.4979C60.6284 73.3715 61.1738 73.694 62.0318 73.4654C62.4184 73.3624 62.7379 73.1945 62.9905 72.9617L62.3264 70.4686ZM69.0133 70.8235C68.9247 70.4911 68.7486 70.2648 68.4847 70.1446C68.2266 70.0147 67.9236 69.9961 67.5757 70.0887C66.9496 70.2555 66.6199 70.5875 66.5868 71.0848L65.3345 71.4184C65.2913 70.8835 65.4381 70.3932 65.7747 69.9475C66.117 69.4921 66.636 69.1717 67.3318 68.9864C68.0662 68.7908 68.7003 68.8247 69.2341 69.0882C69.7756 69.3496 70.137 69.8205 70.3182 70.5007L71.3559 74.3969L70.1268 74.7243L69.9477 74.0517C69.6589 74.7082 69.1202 75.1414 68.3317 75.3514C67.7442 75.5079 67.2091 75.4725 66.7263 75.2451C66.2492 75.0079 65.9354 74.6071 65.7851 74.0428C65.6286 73.4553 65.7159 72.9436 66.0468 72.5077C66.3835 72.0621 66.9228 71.7404 67.665 71.5427L69.1028 71.1597L69.0133 70.8235ZM68.3344 74.1958C68.7441 74.0867 69.0611 73.8781 69.2853 73.57C69.5075 73.2541 69.5672 72.903 69.4642 72.5164L69.3685 72.157L68.0234 72.5153C67.6755 72.6079 67.4168 72.7555 67.2472 72.958C67.0832 73.1506 67.0363 73.3784 67.1063 73.6412C67.1763 73.9041 67.3236 74.0842 67.5483 74.1817C67.7709 74.2714 68.0329 74.2761 68.3344 74.1958ZM70.8449 69.4415L70.536 68.2819L75.6381 66.9229L75.947 68.0825L74.0569 68.5859L75.3232 73.3402L74.0013 73.6923L72.735 68.938L70.8449 69.4415ZM77.8534 66.3329L78.3322 68.1302L79.5149 67.8151C80.172 67.6401 80.7492 67.6934 81.2464 67.9749C81.7415 68.2487 82.0684 68.6832 82.2269 69.2784C82.3875 69.8814 82.3194 70.4336 82.0224 70.9349C81.7311 71.4264 81.2608 71.7587 80.6114 71.9316L78.1183 72.5957L76.5431 66.6819L77.8534 66.3329ZM79.6491 68.9716L78.6287 69.2434L79.1352 71.1451L80.1556 70.8733C80.4726 70.7889 80.6953 70.6302 80.8236 70.3973C80.9598 70.1624 80.9907 69.9057 80.9166 69.6274C80.8425 69.3491 80.69 69.1497 80.4592 69.029C80.2361 68.9063 79.9661 68.8872 79.6491 68.9716Z" fill="#0F1414"/>
</g>
<defs>
<linearGradient id="paint0_linear_201_768" x1="79.5019" y1="1.84401" x2="97.9395" y2="71.0649" gradientUnits="userSpaceOnUse">
<stop stop-color="#F9F9F9"/>
<stop offset="1" stop-color="#F4F4F4"/>
</linearGradient>
<clipPath id="clip0_201_768">
<rect width="180" height="100" fill="white"/>
</clipPath>
</defs>
</svg>
