<svg width="180" height="100" viewBox="0 0 180 100" fill="none" xmlns="http://www.w3.org/2000/svg">
<path fill-rule="evenodd" clip-rule="evenodd" d="M40.3262 32.6238C29.6526 35.4668 23.3047 46.4241 26.1477 57.0977L28.571 66.1957C31.414 76.8693 42.3714 83.2172 53.0449 80.3742L85.7921 71.6517C85.9997 72.3681 86.4732 73.0086 87.1696 73.4121L94.8521 77.8628C96.2857 78.6934 98.1213 78.2045 98.9518 76.7708L103.403 69.0883C103.806 68.3919 103.898 67.6007 103.722 66.876L137.428 57.8981C148.101 55.0551 154.449 44.0978 151.606 33.4242L149.183 24.3261C146.34 13.6526 135.383 7.30466 124.709 10.1477L40.3262 32.6238Z" fill="url(#paint0_linear_201_792)"/>
<path d="M42.8377 54.2719L41.4578 54.6395L39.2834 46.4761L40.6633 46.1085L41.5559 49.4597L45.4289 48.4281L44.5363 45.077L45.9162 44.7094L48.0905 52.8728L46.7107 53.2403L45.7625 49.6804L41.8895 50.712L42.8377 54.2719ZM54.0999 48.5152L49.9371 49.6241L49.9433 49.6473C50.0648 50.1033 50.3125 50.443 50.6866 50.6663C51.0606 50.8895 51.4835 50.9383 51.955 50.8127C52.2797 50.7262 52.5289 50.5895 52.7026 50.4025C52.882 50.2057 52.9782 50.0228 52.9911 49.8537L54.2898 49.5078C54.3165 49.9809 54.1607 50.4529 53.8225 50.9238C53.4921 51.3926 52.9596 51.7249 52.2252 51.9205C51.344 52.1552 50.5635 52.0692 49.8839 51.6624C49.2023 51.2479 48.7348 50.5652 48.4816 49.6144C48.2283 48.6635 48.2904 47.8398 48.6678 47.1432C49.0431 46.4388 49.6521 45.9744 50.4948 45.75C51.3065 45.5338 52.0269 45.6275 52.6559 46.0312C53.285 46.4349 53.718 47.0812 53.9548 47.9702L54.0999 48.5152ZM50.7766 46.8547C50.3591 46.9659 50.0519 47.1802 49.855 47.4975C49.6658 47.8129 49.6085 48.1883 49.6831 48.6237L52.5124 47.8701C52.3816 47.4413 52.1607 47.1401 51.8495 46.9663C51.5439 46.7828 51.1863 46.7456 50.7766 46.8547ZM56.5319 44.291L61.6804 42.9196L63.2556 48.8335L61.9337 49.1856L60.6673 44.4313L58.1626 45.0985L59.429 49.8527L58.1071 50.2048L56.5319 44.291ZM63.7043 43.1505C64.0931 42.4343 64.7204 41.9609 65.5862 41.7303C66.452 41.4996 67.2278 41.5993 67.9136 42.0293C68.6071 42.4572 69.0764 43.1312 69.3214 44.0511C69.5664 44.971 69.4946 45.7891 69.1058 46.5053C68.7248 47.2194 68.1013 47.6918 67.2355 47.9224C66.3697 48.153 65.5901 48.0543 64.8966 47.6264C64.2108 47.1964 63.7454 46.5215 63.5003 45.6016C63.2553 44.6816 63.3233 43.8646 63.7043 43.1505ZM65.6335 46.5236C66.0143 46.803 66.4443 46.8789 66.9236 46.7512C67.4029 46.6235 67.7343 46.3448 67.9179 45.9151C68.1092 45.4833 68.1287 44.9814 67.9763 44.4094C67.8239 43.8373 67.5574 43.4116 67.1766 43.1322C66.8036 42.8507 66.3774 42.7738 65.8982 42.9014C65.4189 43.0291 65.0836 43.3088 64.8923 43.7406C64.7087 44.1703 64.6931 44.6712 64.8454 45.2433C64.9978 45.8153 65.2605 46.2421 65.6335 46.5236ZM70.4308 46.9471L70.1219 45.7875L70.3075 45.7381C70.6321 45.6516 70.8365 45.502 70.9206 45.2892C71.0103 45.0666 71.0137 44.7221 70.9309 44.2557L70.2757 40.6302L74.6241 39.472L76.1993 45.3858L74.8774 45.7379L73.611 40.9836L71.7441 41.4809L72.208 44.0149C72.3623 44.8431 72.3255 45.4821 72.0976 45.9319C71.8754 46.3719 71.4396 46.6784 70.7903 46.8514L70.4308 46.9471ZM79.8538 38.079L81.2801 37.6991L80.2564 46.677L78.8417 47.0539L79.1401 44.4907L75.3199 39.2866L76.7462 38.9067L79.4274 42.7253L79.8538 38.079ZM85.3987 36.6021L86.7206 36.25L88.2958 42.1638L86.9739 42.5159L86.353 40.1851C86.0587 40.4788 85.6448 40.6967 85.1114 40.8387C84.4234 41.022 83.8133 40.9693 83.281 40.6805C82.7488 40.3918 82.3787 39.857 82.1707 39.0762L81.7692 37.5688L83.0911 37.2167L83.4679 38.6314C83.7006 39.5049 84.246 39.8274 85.1041 39.5989C85.4906 39.4959 85.8101 39.328 86.0627 39.0951L85.3987 36.6021ZM92.0855 36.9569C91.997 36.6245 91.8208 36.3982 91.557 36.2781C91.2988 36.1482 90.9958 36.1295 90.648 36.2222C90.0218 36.389 89.6921 36.721 89.659 37.2183L88.4067 37.5518C88.3636 37.0169 88.5103 36.5266 88.8469 36.081C89.1892 35.6255 89.7083 35.3051 90.404 35.1198C91.1384 34.9242 91.7725 34.9582 92.3063 35.2216C92.8478 35.4831 93.2092 35.9539 93.3904 36.6342L94.4282 40.5304L93.199 40.8578L93.0199 40.1852C92.7311 40.8416 92.1925 41.2749 91.404 41.4849C90.8165 41.6414 90.2813 41.6059 89.7985 41.3785C89.3214 41.1414 89.0077 40.7406 88.8574 40.1763C88.7009 39.5888 88.7881 39.0771 89.1191 38.6412C89.4557 38.1955 89.9951 37.8739 90.7372 37.6762L92.1751 37.2932L92.0855 36.9569ZM91.4066 40.3293C91.8163 40.2202 92.1333 40.0115 92.3576 39.7034C92.5798 39.3876 92.6394 39.0364 92.5364 38.6499L92.4407 38.2904L91.0956 38.6487C90.7477 38.7414 90.489 38.8889 90.3194 39.0914C90.1555 39.2841 90.1085 39.5119 90.1785 39.7747C90.2485 40.0375 90.3958 40.2177 90.6205 40.3151C90.8431 40.4049 91.1051 40.4096 91.4066 40.3293ZM100.247 36.2236L96.0839 37.3325L96.0901 37.3556C96.2116 37.8117 96.4594 38.1514 96.8334 38.3747C97.2075 38.5979 97.6303 38.6467 98.1019 38.5211C98.4265 38.4346 98.6757 38.2979 98.8495 38.1109C99.0288 37.9141 99.125 37.7312 99.1379 37.5621L100.437 37.2162C100.463 37.6893 100.308 38.1613 99.9694 38.6322C99.6389 39.101 99.1065 39.4333 98.3721 39.6289C97.4908 39.8636 96.7104 39.7776 96.0308 39.3708C95.3491 38.9563 94.8817 38.2736 94.6284 37.3228C94.3751 36.3719 94.4372 35.5482 94.8146 34.8516C95.19 34.1472 95.799 33.6828 96.6416 33.4584C97.4533 33.2422 98.1737 33.3359 98.8028 33.7396C99.4319 34.1433 99.8648 34.7896 100.102 35.6786L100.247 36.2236ZM96.9234 34.5631C96.506 34.6743 96.1988 34.8886 96.0018 35.2059C95.8126 35.5213 95.7553 35.8967 95.8299 36.3321L98.6593 35.5785C98.5285 35.1497 98.3075 34.8484 97.9963 34.6747C97.6908 34.4912 97.3331 34.4539 96.9234 34.5631ZM100.038 33.9446L99.7291 32.785L104.831 31.4261L105.14 32.5856L103.25 33.0891L104.516 37.8433L103.194 38.1954L101.928 33.4412L100.038 33.9446ZM109.349 35.4507C109.736 35.3478 110.008 35.1718 110.165 34.923C110.33 34.6721 110.411 34.4021 110.409 34.113L111.696 33.7701C111.787 34.3916 111.652 34.9739 111.292 35.517C110.932 36.06 110.384 36.4293 109.65 36.625C108.792 36.8535 108.024 36.7518 107.346 36.3197C106.666 35.88 106.204 35.204 105.961 34.2918C105.72 33.3873 105.781 32.5762 106.145 31.8585C106.516 31.1387 107.135 30.6635 108 30.4329C108.75 30.2331 109.41 30.2851 109.979 30.5888C110.547 30.8848 110.946 31.3123 111.178 31.8715L109.891 32.2144C109.736 31.9742 109.525 31.7901 109.259 31.6623C108.999 31.5246 108.684 31.5052 108.312 31.604C107.849 31.7276 107.525 32.0042 107.341 32.4339C107.165 32.8616 107.154 33.3615 107.306 33.9335C107.461 34.5133 107.724 34.9439 108.097 35.2254C108.468 35.4992 108.886 35.5743 109.349 35.4507ZM117.705 34.3305L116.394 34.6795L115.885 32.7662L114.992 33.004L114.145 35.2787L112.66 35.674L113.594 33.1652C113.188 33.0996 112.838 32.9362 112.545 32.6748C112.257 32.4037 112.06 32.0671 111.953 31.6651C111.798 31.0853 111.861 30.5595 112.141 30.0875C112.427 29.6058 112.913 29.2733 113.602 29.09L116.129 28.4167L117.705 34.3305ZM113.365 30.581C113.225 30.8005 113.192 31.0494 113.266 31.3277C113.34 31.606 113.493 31.8055 113.724 31.9261C113.954 32.0468 114.228 32.0649 114.545 31.9805L115.6 31.6994L115.106 29.8441L114.051 30.1252C113.734 30.2096 113.506 30.3615 113.365 30.581ZM43.4874 60.9538C43.8762 60.2376 44.5034 59.7642 45.3693 59.5336C46.2351 59.303 47.0109 59.4027 47.6966 59.8327C48.3901 60.2606 48.8594 60.9345 49.1044 61.8544C49.3495 62.7743 49.2776 63.5924 48.8888 64.3086C48.5078 65.0227 47.8844 65.4951 47.0186 65.7257C46.1528 65.9563 45.3731 65.8577 44.6796 65.4298C43.9938 64.9998 43.5284 64.3248 43.2834 63.4049C43.0384 62.485 43.1064 61.668 43.4874 60.9538ZM45.4166 64.3269C45.7973 64.6063 46.2273 64.6822 46.7066 64.5546C47.1859 64.4269 47.5174 64.1482 47.7009 63.7185C47.8922 63.2867 47.9117 62.7848 47.7593 62.2127C47.607 61.6406 47.3404 61.2149 46.9597 60.9355C46.5867 60.654 46.1605 60.5771 45.6812 60.7048C45.2019 60.8324 44.8666 61.1122 44.6753 61.544C44.4917 61.9737 44.4761 62.4746 44.6285 63.0466C44.7809 63.6187 45.0436 64.0454 45.4166 64.3269ZM49.3492 58.6225L54.4977 57.2512L56.0729 63.165L54.751 63.5171L53.4847 58.7629L50.98 59.43L52.2463 64.1842L50.9244 64.5363L49.3492 58.6225ZM58.937 55.9197C59.6714 55.7241 60.3629 55.8338 61.0116 56.2489C61.668 56.6618 62.1249 57.3515 62.3823 58.3178C62.6396 59.2841 62.5825 60.1106 62.2107 60.7975C61.8467 61.4822 61.2936 61.9234 60.5515 62.1211C60.1418 62.2302 59.7628 62.2526 59.4144 62.188C59.0717 62.1137 58.7961 61.9802 58.5874 61.7874L59.3534 64.6631L58.0315 65.0152L55.8664 56.8866L57.1419 56.5469L57.3458 57.3122C57.5562 56.6104 58.0866 56.1462 58.937 55.9197ZM60.0192 61.0086C60.4831 60.8851 60.8078 60.6123 60.9934 60.1903C61.1847 59.7585 61.2032 59.2527 61.0487 58.673C60.8964 58.1009 60.6298 57.6752 60.2491 57.3957C59.8761 57.1143 59.4576 57.0353 58.9938 57.1589C58.5223 57.2845 58.1898 57.5593 57.9964 57.9833C57.801 58.3997 57.7805 58.8977 57.9349 59.4775L57.9473 59.5239C58.1017 60.1037 58.3683 60.5294 58.747 60.8011C59.1236 61.0651 59.5477 61.1342 60.0192 61.0086ZM68.6941 57.0463L64.5313 58.1552L64.5375 58.1784C64.6589 58.6345 64.9067 58.9741 65.2808 59.1974C65.6548 59.4206 66.0776 59.4694 66.5492 59.3438C66.8739 59.2573 67.1231 59.1206 67.2968 58.9336C67.4762 58.7368 67.5724 58.5539 67.5853 58.3848L68.884 58.0389C68.9107 58.512 68.7549 58.984 68.4167 59.4549C68.0863 59.9237 67.5538 60.256 66.8194 60.4516C65.9382 60.6863 65.1577 60.6003 64.4781 60.1935C63.7965 59.779 63.329 59.0963 63.0757 58.1455C62.8225 57.1946 62.8846 56.3709 63.262 55.6743C63.6373 54.9699 64.2463 54.5055 65.0889 54.2811C65.9006 54.0649 66.621 54.1586 67.2501 54.5623C67.8792 54.966 68.3122 55.6123 68.549 56.5013L68.6941 57.0463ZM65.3708 55.3858C64.9533 55.497 64.6461 55.7113 64.4492 56.0286C64.26 56.344 64.2027 56.7194 64.2772 57.1548L67.1066 56.4012C66.9758 55.9724 66.7548 55.6712 66.4436 55.4974C66.1381 55.3139 65.7805 55.2767 65.3708 55.3858ZM76.1644 56.5716L76.8686 59.2154L75.5931 59.5552L75.1978 58.0709L71.0233 59.1828L71.4187 60.6671L70.1431 61.0068L69.4389 58.363L69.9144 58.2364C70.2107 57.9505 70.2674 57.2772 70.0842 56.2166L69.5293 53.2474L74.04 52.0459L75.3064 56.8002L76.1644 56.5716ZM71.3489 55.9294C71.5223 56.8601 71.5157 57.5035 71.329 57.8596L73.9844 57.1523L73.027 53.5576L71.0093 54.095L71.3489 55.9294ZM81.853 53.5414L77.6901 54.6502L77.6963 54.6734C77.8178 55.1295 78.0656 55.4691 78.4396 55.6924C78.8137 55.9156 79.2365 55.9645 79.7081 55.8388C80.0327 55.7524 80.2819 55.6156 80.4557 55.4286C80.6351 55.2318 80.7312 55.0489 80.7441 54.8799L82.0429 54.5339C82.0695 55.007 81.9138 55.479 81.5756 55.9499C81.2451 56.4188 80.7127 56.751 79.9783 56.9466C79.097 57.1814 78.3166 57.0953 77.637 56.6885C76.9553 56.274 76.4879 55.5913 76.2346 54.6405C75.9813 53.6896 76.0434 52.8659 76.4208 52.1693C76.7962 51.465 77.4052 51.0006 78.2478 50.7761C79.0595 50.5599 79.7799 50.6537 80.409 51.0573C81.0381 51.461 81.471 52.1074 81.7078 52.9964L81.853 53.5414ZM78.5296 51.8808C78.1122 51.992 77.805 52.2063 77.608 52.5237C77.4188 52.839 77.3615 53.2144 77.4361 53.6499L80.2655 52.8962C80.1347 52.4675 79.9137 52.1662 79.6025 51.9924C79.297 51.8089 78.9393 51.7717 78.5296 51.8808ZM82.9015 56.0438L82.5926 54.8842L82.7782 54.8348C83.1029 54.7483 83.3072 54.5987 83.3913 54.3859C83.481 54.1633 83.4845 53.8188 83.4016 53.3524L82.7464 49.7269L87.0948 48.5687L88.67 54.4825L87.3481 54.8346L86.0817 50.0803L84.2148 50.5776L84.6787 53.1116C84.833 53.9398 84.7963 54.5788 84.5684 55.0286C84.3461 55.4686 83.9103 55.7751 83.261 55.9481L82.9015 56.0438ZM93.7276 46.802L95.3028 52.7158L94.0041 53.0617L92.9571 49.1308L91.3255 53.7752L90.05 54.1149L88.4748 48.2011L89.7735 47.8552L90.8236 51.7977L92.4521 47.1417L93.7276 46.802ZM94.9389 47.7212L94.63 46.5616L99.7321 45.2026L100.041 46.3622L98.1509 46.8656L99.4172 51.6199L98.0953 51.972L96.829 47.2177L94.9389 47.7212ZM101.947 44.6125L102.426 46.4099L103.609 46.0948C104.266 45.9198 104.843 45.9731 105.34 46.2546C105.836 46.5284 106.162 46.9629 106.321 47.5581C106.482 48.1611 106.413 48.7132 106.116 49.2146C105.825 49.7061 105.355 50.0384 104.705 50.2113L102.212 50.8754L100.637 44.9616L101.947 44.6125ZM103.743 47.2513L102.723 47.5231L103.229 49.4248L104.25 49.153C104.567 49.0685 104.789 48.9099 104.918 48.677C105.054 48.442 105.085 48.1854 105.011 47.9071C104.937 47.6288 104.784 47.4294 104.553 47.3087C104.33 47.186 104.06 47.1668 103.743 47.2513ZM110.133 47.6603C110.52 47.5573 110.792 47.3814 110.949 47.1326C111.114 46.8816 111.195 46.6116 111.193 46.3225L112.48 45.9797C112.571 46.6012 112.436 47.1835 112.076 47.7265C111.716 48.2696 111.168 48.6389 110.434 48.8345C109.576 49.0631 108.808 48.9614 108.13 48.5293C107.449 48.0895 106.988 47.4136 106.745 46.5014C106.504 45.5969 106.565 44.7858 106.929 44.0681C107.3 43.3483 107.919 42.873 108.784 42.6424C109.534 42.4427 110.194 42.4947 110.763 42.7984C111.331 43.0943 111.73 43.5219 111.962 44.0811L110.675 44.4239C110.52 44.1837 110.309 43.9997 110.043 43.8718C109.783 43.7342 109.467 43.7148 109.096 43.8136C108.633 43.9371 108.309 44.2138 108.125 44.6435C107.949 45.0712 107.938 45.571 108.09 46.1431C108.245 46.7229 108.508 47.1535 108.881 47.435C109.252 47.7087 109.67 47.7838 110.133 47.6603ZM118.489 46.5401L117.178 46.8891L116.669 44.9758L115.776 45.2136L114.929 47.4883L113.444 47.8836L114.378 45.3748C113.972 45.3092 113.622 45.1457 113.329 44.8844C113.041 44.6132 112.844 44.2767 112.737 43.8747C112.582 43.2949 112.645 42.769 112.925 42.2971C113.211 41.8153 113.697 41.4828 114.385 41.2996L116.913 40.6262L118.489 46.5401ZM114.149 42.7906C114.009 43.0101 113.976 43.259 114.05 43.5373C114.124 43.8156 114.277 44.015 114.508 44.1357C114.738 44.2563 115.012 44.2745 115.329 44.19L116.384 43.909L115.89 42.0537L114.835 42.3347C114.518 42.4192 114.29 42.5711 114.149 42.7906ZM121.794 39.1647C121.712 38.8555 121.529 38.6352 121.246 38.5037C120.97 38.3701 120.647 38.3528 120.276 38.4516C119.518 38.6534 119.141 39.1346 119.145 39.8952L117.858 40.238C117.76 39.5604 117.898 38.9441 118.272 38.3892C118.646 37.8343 119.215 37.4549 119.981 37.2511C120.761 37.0431 121.434 37.0832 122 37.3715C122.573 37.6576 122.942 38.1138 123.109 38.74C123.171 38.9719 123.198 39.1966 123.189 39.414C123.181 39.6315 123.162 39.8064 123.131 39.9389C123.107 40.0692 123.034 40.2295 122.911 40.4196C122.793 40.5999 122.71 40.7215 122.66 40.7844C122.609 40.8395 122.504 40.9585 122.346 41.1414C122.327 41.1631 122.286 41.2112 122.223 41.2859C122.16 41.3606 122.119 41.4088 122.1 41.4304C122.081 41.4521 122.044 41.4992 121.988 41.5719C121.939 41.6347 121.906 41.6808 121.889 41.7102C121.877 41.7298 121.856 41.7728 121.824 41.8393C121.79 41.898 121.769 41.9449 121.762 41.9799C121.755 42.015 121.743 42.0637 121.726 42.126C121.71 42.1884 121.701 42.2487 121.7 42.3069C121.704 42.3553 121.711 42.4115 121.72 42.4754C121.729 42.5393 121.742 42.6061 121.761 42.6756L121.823 42.9075L120.57 43.2411L120.478 42.8932C120.389 42.5608 120.367 42.2604 120.411 41.9919C120.461 41.7137 120.54 41.4941 120.646 41.3334C120.75 41.1649 120.923 40.9449 121.165 40.6734C121.348 40.4591 121.48 40.2999 121.56 40.1958C121.645 40.082 121.717 39.9305 121.774 39.7414C121.839 39.5502 121.846 39.358 121.794 39.1647ZM120.947 44.4695C121.074 44.2619 121.257 44.1261 121.497 44.0623C121.736 43.9985 121.959 44.0261 122.165 44.1452C122.378 44.2622 122.517 44.4406 122.58 44.6802C122.644 44.9199 122.614 45.1474 122.489 45.3627C122.37 45.5683 122.191 45.703 121.951 45.7669C121.711 45.8307 121.485 45.8041 121.271 45.687C121.064 45.5602 120.928 45.377 120.864 45.1373C120.8 44.8977 120.828 44.6751 120.947 44.4695Z" fill="#0F1414"/>
<defs>
<linearGradient id="paint0_linear_201_792" x1="82.1433" y1="10.2521" x2="97.1384" y2="66.5487" gradientUnits="userSpaceOnUse">
<stop stop-color="#F9F9F9"/>
<stop offset="1" stop-color="#F4F4F4"/>
</linearGradient>
</defs>
</svg>
