<svg width="190" height="120" viewBox="0 0 190 120" fill="none" xmlns="http://www.w3.org/2000/svg">
<path fill-rule="evenodd" clip-rule="evenodd" d="M157.965 47.911C165.37 50.1364 169.569 57.9432 167.343 65.348L160.496 88.1301C158.271 95.535 150.464 99.7337 143.059 97.5083L89.0377 81.2731C87.7677 80.8915 86.3981 81.0299 85.2303 81.6581L79.1834 84.9102C76.7514 86.2182 73.7196 85.3071 72.4116 82.8751L69.1594 76.8282C68.5312 75.6604 67.4649 74.7898 66.1949 74.4082L33.6479 64.6268C26.2431 62.4014 22.0444 54.5946 24.2697 47.1898L31.1165 24.4077C33.3419 17.0028 41.1487 12.8041 48.5535 15.0294L157.965 47.911Z" fill="url(#paint0_linear_163_814)"/>
<path d="M45.8581 30.5187C46.7225 30.7832 47.3272 31.2402 47.6723 31.8896C48.0174 32.539 48.0729 33.2462 47.8388 34.0112C47.6093 34.7608 47.1638 35.3147 46.502 35.6727C45.8503 36.0255 45.1075 36.0742 44.2737 35.8191L42.6672 35.3274L41.8139 38.1158L40.4484 37.6979L42.9205 29.6197L45.8581 30.5187ZM45.3517 31.6814L43.9173 31.2424L43.0324 34.1341L44.4667 34.573C44.9487 34.7205 45.3645 34.7013 45.7142 34.5155C46.0715 34.3321 46.3169 34.0223 46.4503 33.5863C46.5838 33.1502 46.5564 32.7612 46.3683 32.4192C46.1801 32.0771 45.8412 31.8312 45.3517 31.6814ZM51.5906 36.866C51.6913 36.5371 51.6614 36.2519 51.5011 36.0104C51.3507 35.7636 51.1034 35.5875 50.7592 35.4822C50.1395 35.2925 49.6842 35.4 49.393 35.8045L48.1538 35.4253C48.4001 34.9485 48.7839 34.61 49.3053 34.4098C49.8367 34.2043 50.4467 34.2069 51.1352 34.4176C51.8619 34.64 52.3821 35.0041 52.6958 35.5101C53.0171 36.0184 53.0748 36.6091 52.8687 37.2823L51.6889 41.1378L50.4725 40.7656L50.6762 40.1C50.084 40.5044 49.3977 40.5872 48.6174 40.3484C48.036 40.1705 47.6006 39.8574 47.3111 39.409C47.0316 38.9554 46.9773 38.4494 47.1482 37.8909C47.3261 37.3095 47.6708 36.9214 48.1822 36.7265C48.7036 36.5264 49.3315 36.5386 50.0659 36.7634L51.4888 37.1988L51.5906 36.866ZM49.2308 39.3691C49.6363 39.4931 50.0156 39.4837 50.3689 39.3409C50.7245 39.1903 50.9609 38.9238 51.0779 38.5413L51.1868 38.1856L49.8557 37.7783C49.5115 37.6729 49.2138 37.6613 48.9628 37.7435C48.7218 37.8203 48.5615 37.9888 48.4819 38.2489C48.4023 38.509 48.432 38.7398 48.5711 38.9413C48.7126 39.1352 48.9325 39.2778 49.2308 39.3691ZM55.8216 41.2856C56.2041 41.4027 56.5278 41.3972 56.7929 41.2691C57.0656 41.1434 57.2774 40.9572 57.4282 40.7106L58.7019 41.1004C58.4504 41.676 58.0282 42.0989 57.4351 42.3692C56.8421 42.6395 56.1822 42.6634 55.4554 42.441C54.6063 42.1812 54.0083 41.6886 53.6613 40.9633C53.3167 40.2304 53.2825 39.4126 53.5588 38.5099C53.8327 37.6149 54.3137 36.959 55.0018 36.5421C55.6976 36.1275 56.4738 36.0514 57.3306 36.3135C58.0726 36.5406 58.6049 36.9336 58.9275 37.4925C59.2524 38.0437 59.3654 38.6178 59.2663 39.215L57.9926 38.8252C57.988 38.5394 57.9068 38.2719 57.7488 38.0227C57.6007 37.7683 57.3431 37.5849 56.9759 37.4725C56.5169 37.332 56.0959 37.3956 55.7128 37.6632C55.3374 37.9332 55.0631 38.3512 54.8898 38.9173C54.7143 39.491 54.7103 39.996 54.878 40.4321C55.0481 40.8607 55.3626 41.1451 55.8216 41.2856ZM60.8551 37.5427L65.9499 39.1019L64.159 44.954L62.8509 44.5536L64.2906 39.849L61.8121 39.0905L60.3724 43.7952L59.0642 43.3948L60.8551 37.5427ZM72.5023 41.1071L70.7114 46.9592L69.4263 46.5659L70.6167 42.676L66.7756 45.7547L65.5134 45.3684L67.3043 39.5163L68.5894 39.9096L67.3955 43.811L71.2401 40.7208L72.5023 41.1071ZM78.3983 42.9114L76.9585 47.616L78.8863 48.2059L80.326 43.5013L81.6341 43.9016L79.8432 49.7537L72.0634 47.3729L73.8543 41.5208L75.1624 41.9211L73.7227 46.6257L75.6504 47.2157L77.0901 42.5111L78.3983 42.9114ZM87.1107 49.1918L82.9913 47.9312L82.9842 47.9541C82.8461 48.4054 82.8767 48.8248 83.0761 49.2121C83.2755 49.5994 83.6085 49.8644 84.0752 50.0072C84.3965 50.1055 84.6803 50.1213 84.9266 50.0545C85.183 49.9823 85.3613 49.8779 85.4617 49.7413L86.7469 50.1346C86.5193 50.5502 86.1374 50.8684 85.6014 51.0892C85.0729 51.3123 84.4454 51.3127 83.7186 51.0903C82.8466 50.8234 82.2297 50.3376 81.8681 49.633C81.5088 48.9207 81.4731 48.094 81.7611 47.1531C82.049 46.2122 82.5374 45.5459 83.2261 45.1543C83.9172 44.7551 84.6797 44.6831 85.5135 44.9382C86.3167 45.184 86.8785 45.6446 87.1989 46.3199C87.5193 46.9952 87.5449 47.7728 87.2757 48.6525L87.1107 49.1918ZM85.1684 46.0248C84.7553 45.8984 84.3813 45.9178 84.0463 46.083C83.7189 46.2505 83.4717 46.5388 83.3047 46.9478L86.1045 47.8047C86.2203 47.3716 86.1921 46.999 86.0199 46.687C85.8577 46.3696 85.5738 46.1489 85.1684 46.0248ZM89.1394 46.1984L90.7918 46.7041L91.3514 51.5186L94.5096 47.8418L96.139 48.3405L94.3481 54.1926L93.0859 53.8063L94.3114 49.8016L91.3372 53.2461L90.3734 52.9511L89.8327 48.4436L88.6107 52.4368L87.3485 52.0505L89.1394 46.1984ZM97.5587 54.4472C97.5025 54.6308 97.4034 54.818 97.2613 55.0088L95.9555 56.6924L94.9572 56.3869L96.1626 54.7855C95.8452 54.5378 95.7415 54.2342 95.8515 53.8746C95.9241 53.6375 96.0641 53.467 96.2716 53.3631C96.479 53.2593 96.7052 53.2449 96.9499 53.3198C97.1947 53.3947 97.3755 53.542 97.4923 53.7618C97.6115 53.974 97.6336 54.2025 97.5587 54.4472ZM105.72 51.2726L107.028 51.6729L105.237 57.525L103.929 57.1247L104.635 54.8183C104.23 54.9118 103.764 54.8778 103.236 54.7163C102.555 54.5079 102.065 54.1405 101.766 53.6139C101.467 53.0874 101.436 52.4378 101.672 51.6652L102.129 50.1735L103.437 50.5738L103.008 51.9737C102.744 52.8381 103.036 53.4003 103.885 53.6601C104.268 53.7772 104.628 53.8037 104.965 53.7396L105.72 51.2726ZM107.57 53.0937L107.922 51.9463L112.97 53.4914L112.619 54.6388L110.749 54.0664L109.309 58.7711L108.001 58.3708L109.441 53.6661L107.57 53.0937ZM113.883 54.5487C114.592 54.1465 115.375 54.0765 116.231 54.3387C117.088 54.6009 117.694 55.0958 118.049 55.8234C118.411 56.5534 118.453 57.3735 118.174 58.2839C117.895 59.1942 117.402 59.8505 116.693 60.2527C115.992 60.6572 115.213 60.7284 114.356 60.4662C113.5 60.204 112.89 59.7079 112.528 58.978C112.173 58.2504 112.135 57.4314 112.414 56.5211C112.692 55.6107 113.182 54.9533 113.883 54.5487ZM113.736 58.4318C113.912 58.8703 114.237 59.1621 114.711 59.3073C115.185 59.4524 115.614 59.3912 115.997 59.1236C116.388 58.8583 116.67 58.4426 116.843 57.8765C117.016 57.3104 117.015 56.8081 116.84 56.3696C116.672 55.9335 116.351 55.6428 115.877 55.4977C115.403 55.3525 114.97 55.4126 114.579 55.6778C114.196 55.9455 113.918 56.3623 113.745 56.9284C113.572 57.4945 113.569 57.9956 113.736 58.4318ZM123.395 61.9648C123.778 62.0819 124.101 62.0764 124.366 61.9483C124.639 61.8226 124.851 61.6365 125.002 61.3898L126.275 61.7796C126.024 62.3552 125.602 62.7781 125.009 63.0484C124.416 63.3187 123.756 63.3427 123.029 63.1203C122.18 62.8604 121.582 62.3678 121.235 61.6426C120.89 60.9096 120.856 60.0918 121.132 59.1892C121.406 58.2941 121.887 57.6382 122.575 57.2213C123.271 56.8067 124.047 56.7306 124.904 56.9928C125.646 57.2198 126.178 57.6128 126.501 58.1717C126.826 58.7229 126.939 59.2971 126.84 59.8942L125.566 59.5044C125.562 59.2186 125.48 58.9511 125.322 58.7019C125.174 58.4475 124.917 58.2641 124.549 58.1517C124.09 58.0112 123.669 58.0748 123.286 58.3424C122.911 58.6124 122.637 59.0304 122.463 59.5965C122.288 60.1702 122.284 60.6752 122.452 61.1113C122.622 61.5399 122.936 61.8244 123.395 61.9648ZM131.256 61.2455C131.356 60.9166 131.326 60.6314 131.166 60.3899C131.016 60.1431 130.768 59.967 130.424 59.8617C129.805 59.672 129.349 59.7795 129.058 60.184L127.819 59.8048C128.065 59.328 128.449 58.9895 128.97 58.7893C129.502 58.5838 130.112 58.5864 130.8 58.7971C131.527 59.0195 132.047 59.3837 132.361 59.8896C132.682 60.3979 132.74 60.9886 132.534 61.6618L131.354 65.5173L130.138 65.1451L130.341 64.4795C129.749 64.8839 129.063 64.9667 128.282 64.7279C127.701 64.55 127.266 64.2369 126.976 63.7886C126.697 63.3349 126.642 62.8289 126.813 62.2704C126.991 61.6891 127.336 61.3009 127.847 61.1061C128.369 60.9059 128.996 60.9181 129.731 61.1429L131.154 61.5783L131.256 61.2455ZM128.896 63.7486C129.301 63.8727 129.681 63.8633 130.034 63.7204C130.39 63.5699 130.626 63.3033 130.743 62.9209L130.852 62.5651L129.521 62.1578C129.176 62.0525 128.879 62.0408 128.628 62.123C128.387 62.1998 128.226 62.3683 128.147 62.6284C128.067 62.8885 128.097 63.1193 128.236 63.3208C128.378 63.5147 128.597 63.6573 128.896 63.7486ZM134.452 60.0652L136.104 60.5709L136.664 65.3854L139.822 61.7086L141.452 62.2073L139.661 68.0594L138.398 67.6731L139.624 63.6684L136.65 67.1129L135.686 66.8179L135.145 62.3104L133.923 66.3036L132.661 65.9173L134.452 60.0652ZM148.004 64.2125L146.213 70.0646L144.928 69.6714L146.118 65.7814L142.277 68.8602L141.015 68.4739L142.806 62.6218L144.091 63.0151L142.897 66.9165L146.742 63.8263L148.004 64.2125ZM42.8013 44.5671L42.0428 47.0457L44.8438 45.1922L46.3469 45.6522L43.2322 47.7108L44.5905 51.5148L43.0529 51.0443L41.8531 47.6653L41.0104 50.4192L39.7252 50.0259L40.568 47.272L37.6827 49.4009L36.1566 48.9338L39.3891 46.5724L37.9704 43.0888L39.4736 43.5488L40.7576 46.6524L41.5161 44.1738L42.8013 44.5671ZM51.6858 52.4312L50.8852 55.0475L49.623 54.6612L50.0724 53.1924L45.9415 51.9283L45.4921 53.3971L44.2298 53.0108L45.0305 50.3945L45.5009 50.5385C45.9037 50.4526 46.3078 49.9112 46.7133 48.9142L47.8128 46.1008L52.2764 47.4668L50.8367 52.1714L51.6858 52.4312ZM47.9386 49.3393C47.5935 50.221 47.2476 50.7635 46.9009 50.9669L49.5286 51.7711L50.6171 48.2139L48.6205 47.6029L47.9386 49.3393ZM58.1163 52.8681L53.9969 51.6075L53.9899 51.6304C53.8517 52.0818 53.8824 52.5011 54.0818 52.8884C54.2812 53.2757 54.6142 53.5407 55.0808 53.6835C55.4021 53.7819 55.6859 53.7976 55.9323 53.7308C56.1886 53.6586 56.3669 53.5542 56.4673 53.4176L57.7525 53.8109C57.5249 54.2265 57.1431 54.5447 56.607 54.7655C56.0786 54.9886 55.451 54.989 54.7243 54.7666C53.8522 54.4997 53.2353 54.014 52.8737 53.3093C52.5144 52.597 52.4788 51.7704 52.7667 50.8294C53.0547 49.8885 53.543 49.2222 54.2317 48.8307C54.9228 48.4314 55.6853 48.3594 56.5191 48.6145C57.3223 48.8604 57.8842 49.3209 58.2046 49.9962C58.525 50.6716 58.5506 51.4491 58.2813 52.3288L58.1163 52.8681ZM56.174 49.7011C55.7609 49.5747 55.3869 49.5941 55.0519 49.7593C54.7245 49.9268 54.4773 50.2151 54.3103 50.6242L57.1102 51.481C57.226 51.0479 57.1978 50.6753 57.0255 50.3633C56.8633 50.0459 56.5795 49.8252 56.174 49.7011ZM60.145 49.8748L61.7974 50.3804L62.357 55.1949L65.5152 51.5182L67.1446 52.0168L65.3537 57.8689L64.0915 57.4826L65.317 53.478L62.3429 56.9224L61.379 56.6274L60.8384 52.1199L59.6163 56.1131L58.3541 55.7269L60.145 49.8748ZM71.0098 53.9777C71.7185 53.5755 72.5013 53.5055 73.3581 53.7677C74.2148 54.0299 74.8205 54.5248 75.1751 55.2524C75.5374 55.9824 75.5792 56.8025 75.3006 57.7128C75.022 58.6232 74.5284 59.2794 73.8197 59.6816C73.1186 60.0862 72.3397 60.1574 71.4829 59.8952C70.6261 59.633 70.0166 59.1369 69.6543 58.407C69.2997 57.6793 69.2617 56.8604 69.5403 55.95C69.8189 55.0397 70.3087 54.3823 71.0098 53.9777ZM70.8631 57.8608C71.0384 58.2993 71.3633 58.5911 71.8376 58.7362C72.3118 58.8814 72.7405 58.8202 73.1236 58.5525C73.5143 58.2873 73.7963 57.8716 73.9696 57.3055C74.1428 56.7394 74.1417 56.2371 73.9664 55.7986C73.7987 55.3624 73.4777 55.0718 73.0034 54.9266C72.5291 54.7815 72.0966 54.8416 71.7059 55.1068C71.3228 55.3744 71.0446 55.7913 70.8714 56.3574C70.6982 56.9235 70.6954 57.4246 70.8631 57.8608ZM76.1834 56.0379L76.5346 54.8904L81.5835 56.4355L81.2323 57.5829L79.3619 57.0106L77.9222 61.7152L76.6141 61.3149L78.0538 56.6102L76.1834 56.0379ZM89.3444 63.9557L88.5437 66.572L87.2815 66.1857L87.731 64.7169L83.6001 63.4528L83.1506 64.9215L81.8884 64.5353L82.689 61.919L83.1595 62.063C83.5623 61.9771 83.9664 61.4357 84.3719 60.4387L85.4713 57.6252L89.935 58.9912L88.4952 63.6959L89.3444 63.9557ZM85.5971 60.8638C85.252 61.7454 84.9061 62.288 84.5594 62.4914L87.1871 63.2956L88.2757 59.7384L86.2791 59.1274L85.5971 60.8638ZM95.8794 60.8104L95.1209 63.2889L97.9219 61.4354L99.4251 61.8955L96.3103 63.9541L97.6686 67.7581L96.131 67.2876L94.9313 63.9086L94.0885 66.6625L92.8034 66.2692L93.6461 63.5153L90.7609 65.6441L89.2347 65.1771L92.4673 62.8157L91.0486 59.332L92.5518 59.792L93.8358 62.8956L94.5943 60.4171L95.8794 60.8104ZM103.978 63.2886L105.389 63.7206L99.7718 70.7987L98.3719 70.3703L99.9807 68.3527L99.491 61.9156L100.902 62.3475L101.158 67.0064L103.978 63.2886ZM105.585 70.1808L104.277 69.7805L106.068 63.9284L107.376 64.3287L106.688 66.5777L109.201 67.3468L109.889 65.0977L111.197 65.498L109.406 71.3501L108.098 70.9498L108.846 68.5057L106.333 67.7367L105.585 70.1808ZM112.792 66.7642C113.501 66.362 114.284 66.2919 115.14 66.5541C115.997 66.8163 116.603 67.3112 116.957 68.0389C117.32 68.7688 117.362 69.589 117.083 70.4993C116.804 71.4096 116.311 72.0659 115.602 72.4681C114.901 72.8727 114.122 72.9438 113.265 72.6816C112.408 72.4194 111.799 71.9234 111.437 71.1934C111.082 70.4658 111.044 69.6468 111.323 68.7365C111.601 67.8262 112.091 67.1687 112.792 66.7642ZM112.645 70.6472C112.821 71.0857 113.146 71.3775 113.62 71.5227C114.094 71.6678 114.523 71.6066 114.906 71.339C115.297 71.0737 115.579 70.658 115.752 70.0919C115.925 69.5259 115.924 69.0236 115.749 68.5851C115.581 68.1489 115.26 67.8582 114.786 67.7131C114.311 67.5679 113.879 67.628 113.488 67.8933C113.105 68.1609 112.827 68.5777 112.654 69.1438C112.48 69.7099 112.478 70.211 112.645 70.6472ZM117.209 73.738L119 67.8859L121.628 68.69C122.255 68.882 122.69 69.1698 122.932 69.5535C123.174 69.9372 123.228 70.3509 123.092 70.7946C122.994 71.1159 122.831 71.3591 122.605 71.5241C122.389 71.6838 122.152 71.7745 121.894 71.796C122.167 71.9715 122.365 72.212 122.489 72.5177C122.621 72.8257 122.629 73.1671 122.515 73.542C122.365 74.0316 122.058 74.377 121.595 74.5783C121.142 74.7742 120.594 74.7739 119.952 74.5772L117.209 73.738ZM120.556 72.0266L119.26 71.6298L118.803 73.1215L120.1 73.5183C120.391 73.6073 120.632 73.6101 120.825 73.5269C121.028 73.4384 121.166 73.2755 121.238 73.0384C121.388 72.5488 121.161 72.2115 120.556 72.0266ZM121.158 69.6506L119.976 69.2889L119.562 70.643L120.744 71.0046C120.996 71.0819 121.21 71.0804 121.385 71.0001C121.568 70.9222 121.692 70.7762 121.758 70.562C121.893 70.1183 121.694 69.8145 121.158 69.6506Z" fill="white"/>
<defs>
<linearGradient id="paint0_linear_163_814" x1="112.06" y1="17.0749" x2="81.3825" y2="119.154" gradientUnits="userSpaceOnUse">
<stop stop-color="#66BEBE"/>
<stop offset="1" stop-color="#65DEA3"/>
</linearGradient>
</defs>
</svg>
