<svg width="190" height="120" viewBox="0 0 190 120" fill="none" xmlns="http://www.w3.org/2000/svg">
<path fill-rule="evenodd" clip-rule="evenodd" d="M142.957 30.7925C153.535 33.9716 159.534 45.1242 156.354 55.7026L146.78 87.562C143.601 98.1403 132.448 104.139 121.87 100.959L97.5571 93.6528C96.0332 93.1948 94.3897 93.3609 92.9882 94.1147L83.7397 99.0888C81.3077 100.397 78.2758 99.4857 76.9678 97.0537L71.9937 87.8052C71.2399 86.4037 69.9603 85.3591 68.4363 84.9011L45.2183 77.9233C34.64 74.7442 28.6417 63.5916 31.8208 53.0133L41.3956 21.1538C44.5747 10.5755 55.7273 4.57728 66.3056 7.75639L142.957 30.7925Z" fill="url(#paint0_linear_201_822)"/>
<path d="M56.481 17.9967L58.1677 18.5129L58.8358 25.5567L63.3199 20.0896L64.9837 20.5987L62.5116 28.6769L61.2149 28.2801L63.0023 22.4395L58.8273 27.5118L57.7257 27.1747L57.1043 20.6346L55.3169 26.4752L54.0088 26.0749L56.481 17.9967ZM67.1057 23.6827L66.5614 25.4613L67.7318 25.8194C68.3821 26.0184 68.8437 26.3689 69.1168 26.8708C69.3923 27.365 69.4398 27.9066 69.2596 28.4957C69.077 29.0923 68.7271 29.5249 68.2099 29.7933C67.7027 30.0564 67.1278 30.0896 66.4852 29.893L64.0182 29.138L65.8091 23.2859L67.1057 23.6827ZM72.4644 25.3226L70.6735 31.1747L69.3769 30.7779L71.1678 24.9258L72.4644 25.3226ZM67.2341 26.8719L66.2243 26.5628L65.6484 28.4447L66.6582 28.7537C66.9718 28.8497 67.2447 28.8328 67.4769 28.7031C67.7166 28.5756 67.8787 28.3742 67.9629 28.0989C68.0472 27.8235 68.0233 27.5735 67.8912 27.349C67.7668 27.1269 67.5477 26.9678 67.2341 26.8719ZM75.6024 32.6831L74.2943 32.2827L76.0852 26.4306L77.3933 26.831L76.7051 29.08L79.218 29.849L79.9063 27.6L81.2144 28.0003L79.4235 33.8524L78.1154 33.4521L78.8634 31.008L76.3504 30.239L75.6024 32.6831ZM86.6858 33.2889L82.5664 32.0283L82.5594 32.0512C82.4213 32.5026 82.4519 32.9219 82.6513 33.3092C82.8507 33.6965 83.1837 33.9615 83.6504 34.1043C83.9716 34.2027 84.2555 34.2184 84.5018 34.1516C84.7581 34.0794 84.9365 33.975 85.0369 33.8384L86.322 34.2317C86.0944 34.6473 85.7126 34.9655 85.1765 35.1863C84.6481 35.4094 84.0205 35.4098 83.2938 35.1874C82.4217 34.9205 81.8049 34.4348 81.4433 33.7301C81.084 33.0178 81.0483 32.1912 81.3363 31.2502C81.6242 30.3093 82.1125 29.643 82.8013 29.2514C83.4924 28.8522 84.2548 28.7802 85.0887 29.0353C85.8919 29.2811 86.4537 29.7417 86.7741 30.417C87.0945 31.0924 87.1201 31.8699 86.8509 32.7496L86.6858 33.2889ZM84.7436 30.1219C84.3305 29.9955 83.9564 30.0149 83.6214 30.1801C83.2941 30.3476 83.0469 30.6359 82.8799 31.045L85.6797 31.9018C85.7955 31.4687 85.7673 31.0961 85.5951 30.7841C85.4329 30.4667 85.149 30.246 84.7436 30.1219ZM90.1738 31.997L90.525 30.8496L95.5738 32.3947L95.2227 33.5421L93.3523 32.9697L91.9126 37.6744L90.6045 37.2741L92.0442 32.5694L90.1738 31.997ZM96.4866 33.452C97.1953 33.0498 97.978 32.9798 98.8348 33.242C99.6916 33.5042 100.297 33.9991 100.652 34.7267C101.014 35.4567 101.056 36.2768 100.777 37.1872C100.499 38.0975 100.005 38.7538 99.2964 39.156C98.5954 39.5605 97.8164 39.6317 96.9596 39.3695C96.1029 39.1073 95.4934 38.6112 95.1311 37.8813C94.7765 37.1537 94.7385 36.3347 95.0171 35.4244C95.2957 34.514 95.7855 33.8566 96.4866 33.452ZM96.3399 37.3351C96.5152 37.7736 96.84 38.0654 97.3143 38.2106C97.7886 38.3557 98.2173 38.2945 98.6004 38.0269C98.9911 37.7616 99.2731 37.3459 99.4463 36.7798C99.6196 36.2137 99.6185 35.7114 99.4431 35.2729C99.2754 34.8368 98.9544 34.5461 98.4802 34.401C98.0059 34.2558 97.5734 34.3159 97.1826 34.5811C96.7995 34.8488 96.5214 35.2656 96.3481 35.8317C96.1749 36.3978 96.1721 36.8989 96.3399 37.3351ZM100.187 40.2317L100.538 39.0843L100.722 39.1405C101.043 39.2388 101.296 39.2199 101.48 39.0837C101.674 38.9423 101.859 38.6517 102.035 38.2121L103.397 34.7886L107.7 36.1054L105.909 41.9575L104.601 41.5572L106.04 36.8526L104.193 36.2872L103.246 38.6831C102.939 39.4676 102.57 39.9905 102.139 40.2517C101.718 40.5076 101.186 40.5372 100.543 40.3406L100.187 40.2317ZM110.362 36.9201L109.817 38.6987L110.988 39.0569C111.638 39.2559 112.1 39.6063 112.373 40.1082C112.648 40.6024 112.696 41.1441 112.516 41.7331C112.333 42.3298 111.983 42.7623 111.466 43.0308C110.959 43.2939 110.384 43.3271 109.741 43.1304L107.274 42.3754L109.065 36.5233L110.362 36.9201ZM110.49 40.1093L109.48 39.8003L108.904 41.6822L109.914 41.9912C110.228 42.0872 110.501 42.0703 110.733 41.9405C110.973 41.8131 111.135 41.6117 111.219 41.3363C111.303 41.0609 111.279 40.811 111.147 40.5865C111.023 40.3644 110.804 40.2053 110.49 40.1093ZM114.18 44.4887L112.872 44.0884L114.663 38.2363L115.971 38.6366L115.226 41.0693L118.22 39.3249L119.769 39.799L116.405 41.7689L118.012 45.6616L116.429 45.177L115.016 41.7578L114.18 44.4887ZM120.445 40.7841C121.154 40.3818 121.937 40.3118 122.794 40.574C123.65 40.8362 124.256 41.3311 124.611 42.0587C124.973 42.7887 125.015 43.6088 124.736 44.5192C124.458 45.4295 123.964 46.0858 123.255 46.488C122.554 46.8925 121.775 46.9637 120.918 46.7015C120.062 46.4393 119.452 45.9432 119.09 45.2133C118.735 44.4857 118.697 43.6667 118.976 42.7564C119.255 41.846 119.744 41.1886 120.445 40.7841ZM120.299 44.6671C120.474 45.1056 120.799 45.3974 121.273 45.5426C121.747 45.6877 122.176 45.6265 122.559 45.3589C122.95 45.0936 123.232 44.6779 123.405 44.1118C123.578 43.5457 123.577 43.0434 123.402 42.6049C123.234 42.1688 122.913 41.8781 122.439 41.733C121.965 41.5878 121.532 41.6479 121.141 41.9132C120.758 42.1808 120.48 42.5976 120.307 43.1637C120.134 43.7298 120.131 44.2309 120.299 44.6671ZM56.7464 38.207L55.9458 40.8233L54.6836 40.437L55.1331 38.9682L51.0022 37.7041L50.5527 39.1728L49.2905 38.7866L50.0911 36.1703L50.5616 36.3143C50.9643 36.2284 51.3685 35.687 51.774 34.69L52.8734 31.8766L57.337 33.2426L55.8973 37.9472L56.7464 38.207ZM52.9992 35.1151C52.6541 35.9968 52.3082 36.5393 51.9615 36.7427L54.5892 37.5469L55.6778 33.9897L53.6812 33.3787L52.9992 35.1151ZM64.2683 35.3637L62.4774 41.2158L61.1922 40.8225L62.3827 36.9326L58.5416 40.0113L57.2794 39.6251L59.0703 33.773L60.3554 34.1663L59.1615 38.0677L63.0061 34.9774L64.2683 35.3637ZM64.8427 37.334C65.0748 36.7943 65.4645 36.4367 66.0118 36.2612C66.5668 36.088 67.1656 36.0998 67.8082 36.2964C68.4354 36.4884 68.905 36.7994 69.2168 37.2294C69.5286 37.6595 69.6072 38.127 69.4527 38.6319C69.2654 39.2439 68.8525 39.5818 68.2138 39.6457C68.4781 39.7935 68.6823 40.015 68.8262 40.31C68.9802 40.5997 68.9975 40.9397 68.8781 41.3298C68.7119 41.873 68.3516 42.2438 67.7972 42.4422C67.2505 42.643 66.6215 42.6346 65.91 42.4169C65.2216 42.2062 64.702 41.8673 64.3513 41.4002C64.0006 40.9332 63.876 40.3972 63.9774 39.7924L65.2511 40.1822C65.2351 40.4534 65.3131 40.6906 65.4851 40.8939C65.6672 41.0918 65.9188 41.2399 66.2401 41.3382C66.5767 41.4413 66.8655 41.4543 67.1066 41.3775C67.3499 41.293 67.5103 41.1246 67.5875 40.8721C67.7327 40.3978 67.4419 40.0495 66.7151 39.8271L65.8545 39.5637L66.1706 38.531L66.9623 38.7733C67.2683 38.8669 67.5204 38.8771 67.7185 38.8039C67.9266 38.7254 68.0657 38.5714 68.136 38.3419C68.2038 38.12 68.1685 37.921 68.0301 37.7447C67.8992 37.5708 67.6923 37.4406 67.4092 37.354C67.1109 37.2627 66.8462 37.2528 66.6152 37.3243C66.3841 37.3958 66.2102 37.5266 66.0935 37.7168L64.8427 37.334ZM74.0111 40.5037C74.1118 40.1748 74.0819 39.8896 73.9216 39.6481C73.7712 39.4013 73.5239 39.2252 73.1797 39.1199C72.56 38.9302 72.1047 39.0377 71.8135 39.4422L70.5743 39.0629C70.8206 38.5862 71.2044 38.2477 71.7258 38.0475C72.2572 37.842 72.8672 37.8446 73.5556 38.0553C74.2824 38.2777 74.8026 38.6418 75.1163 39.1478C75.4376 39.6561 75.4953 40.2468 75.2892 40.92L74.1094 44.7755L72.893 44.4033L73.0967 43.7377C72.5044 44.1421 71.8182 44.2249 71.0379 43.9861C70.4565 43.8082 70.0211 43.4951 69.7316 43.0467C69.4521 42.5931 69.3978 42.0871 69.5687 41.5286C69.7466 40.9472 70.0913 40.5591 70.6027 40.3642C71.1241 40.164 71.752 40.1763 72.4864 40.4011L73.9093 40.8365L74.0111 40.5037ZM71.6513 43.0068C72.0568 43.1308 72.4361 43.1214 72.7894 42.9786C73.145 42.828 73.3814 42.5615 73.4984 42.179L73.6073 41.8233L72.2762 41.416C71.932 41.3106 71.6343 41.299 71.3833 41.3812C71.1423 41.458 70.982 41.6265 70.9024 41.8866C70.8228 42.1466 70.8525 42.3775 70.9916 42.579C71.1331 42.7729 71.353 42.9155 71.6513 43.0068ZM82.4055 40.9142L80.6146 46.7663L79.3295 46.373L80.5199 42.483L76.6788 45.5618L75.4166 45.1755L77.2075 39.3234L78.4926 39.7167L77.2987 43.6181L81.1433 40.5279L82.4055 40.9142ZM79.7398 37.1995C79.6556 37.4749 79.6618 37.7278 79.7586 37.9582C79.8555 38.1886 80.0454 38.3471 80.3284 38.4338C80.6115 38.5204 80.8576 38.4953 81.0668 38.3585C81.2759 38.2217 81.4227 38.0157 81.507 37.7403L82.5626 38.0633C82.3717 38.6324 82.0477 39.0352 81.5905 39.2717C81.1409 39.5106 80.6254 39.5411 80.044 39.3632C79.4626 39.1853 79.0486 38.8704 78.8021 38.4184C78.5632 37.9689 78.5239 37.4548 78.6842 36.8764L79.7398 37.1995ZM83.2747 47.5803L81.9666 47.18L83.7575 41.3279L85.0656 41.7282L84.3773 43.9772L86.8903 44.7463L87.5785 42.4972L88.8867 42.8975L87.0958 48.7497L85.7877 48.3493L86.5356 45.9052L84.0227 45.1362L83.2747 47.5803ZM94.3581 48.1862L90.2387 46.9255L90.2317 46.9485C90.0935 47.3998 90.1242 47.8191 90.3236 48.2064C90.523 48.5937 90.856 48.8588 91.3226 49.0016C91.6439 49.0999 91.9277 49.1156 92.1741 49.0488C92.4304 48.9767 92.6087 48.8723 92.7091 48.7357L93.9943 49.129C93.7667 49.5446 93.3849 49.8628 92.8488 50.0835C92.3204 50.3067 91.6928 50.307 90.9661 50.0847C90.094 49.8178 89.4771 49.332 89.1155 48.6273C88.7562 47.915 88.7206 47.0884 89.0085 46.1475C89.2965 45.2065 89.7848 44.5403 90.4735 44.1487C91.1646 43.7494 91.9271 43.6774 92.7609 43.9326C93.5641 44.1784 94.126 44.6389 94.4464 45.3143C94.7668 45.9896 94.7924 46.7671 94.5231 47.6468L94.3581 48.1862ZM92.4158 45.0192C92.0027 44.8927 91.6287 44.9121 91.2937 45.0773C90.9663 45.2449 90.7192 45.5332 90.5521 45.9422L93.352 46.799C93.4678 46.3659 93.4396 45.9934 93.2673 45.6813C93.1051 45.364 92.8213 45.1432 92.4158 45.0192ZM99.5042 45.9962C100.231 46.2186 100.76 46.6774 101.091 47.3727C101.429 48.0704 101.453 48.8973 101.16 49.8535C100.867 50.8098 100.382 51.481 99.7028 51.8673C99.0317 52.2559 98.329 52.3379 97.5946 52.1131C97.1891 51.9891 96.8557 51.8075 96.5942 51.5686C96.3426 51.3243 96.1793 51.0651 96.1042 50.7911L95.2333 53.6369L93.9252 53.2366L96.3868 45.1928L97.649 45.5791L97.4173 46.3364C97.9671 45.8521 98.6627 45.7387 99.5042 45.9962ZM97.7312 50.8875C98.1902 51.0279 98.6101 50.9682 98.9908 50.7082C99.3816 50.443 99.6647 50.0235 99.8403 49.4497C100.014 48.8836 100.012 48.3813 99.8371 47.9428C99.6694 47.5067 99.3561 47.2183 98.8971 47.0779C98.4304 46.9351 98.0029 46.9925 97.6145 47.2501C97.2285 47.5001 96.9477 47.9119 96.7721 48.4857L96.758 48.5316C96.5825 49.1053 96.5835 49.6076 96.7612 50.0385C96.9413 50.4617 97.2646 50.7447 97.7312 50.8875ZM104.368 47.6352L103.824 49.4138L104.994 49.772C105.644 49.971 106.106 50.3214 106.379 50.8233C106.654 51.3175 106.702 51.8591 106.522 52.4482C106.339 53.0449 105.989 53.4774 105.472 53.7458C104.965 54.0089 104.39 54.0421 103.747 53.8455L101.28 53.0905L103.071 47.2384L104.368 47.6352ZM109.727 49.2751L107.936 55.1272L106.639 54.7304L108.43 48.8783L109.727 49.2751ZM104.496 50.8244L103.487 50.5154L102.911 52.3972L103.92 52.7062C104.234 52.8022 104.507 52.7853 104.739 52.6556C104.979 52.5282 105.141 52.3268 105.225 52.0514C105.309 51.776 105.286 51.526 105.153 51.3016C105.029 51.0794 104.81 50.9204 104.496 50.8244ZM111.143 55.3809C111.087 55.5645 110.988 55.7517 110.846 55.9425L109.54 57.6261L108.542 57.3205L109.747 55.7192C109.43 55.4714 109.326 55.1678 109.436 54.8083C109.509 54.5711 109.649 54.4006 109.856 54.2968C110.064 54.193 110.29 54.1785 110.534 54.2534C110.779 54.3283 110.96 54.4757 111.077 54.6955C111.196 54.9076 111.218 55.1361 111.143 55.3809ZM115.425 57.4192L114.117 57.0189L115.908 51.1668L117.216 51.5671L116.528 53.8162L119.041 54.5852L119.729 52.3362L121.037 52.7365L119.246 58.5886L117.938 58.1883L118.686 55.7442L116.173 54.9751L115.425 57.4192ZM122.632 54.0026C123.341 53.6004 124.124 53.5304 124.98 53.7926C125.837 54.0548 126.443 54.5497 126.798 55.2773C127.16 56.0073 127.202 56.8274 126.923 57.7377C126.644 58.6481 126.151 59.3043 125.442 59.7065C124.741 60.1111 123.962 60.1823 123.105 59.9201C122.249 59.6579 121.639 59.1618 121.277 58.4318C120.922 57.7042 120.884 56.8853 121.163 55.9749C121.441 55.0646 121.931 54.4072 122.632 54.0026ZM122.485 57.8856C122.661 58.3242 122.986 58.616 123.46 58.7611C123.934 58.9063 124.363 58.845 124.746 58.5774C125.137 58.3122 125.419 57.8965 125.592 57.3304C125.765 56.7643 125.764 56.262 125.589 55.8235C125.421 55.3873 125.1 55.0967 124.626 54.9515C124.152 54.8064 123.719 54.8664 123.328 55.1317C122.945 55.3993 122.667 55.8162 122.494 56.3823C122.321 56.9484 122.318 57.4495 122.485 57.8856ZM136.308 57.4095L134.517 63.2616L133.231 62.8683L134.422 58.9784L130.581 62.0572L129.319 61.6709L131.109 55.8188L132.395 56.2121L131.201 60.1135L135.045 57.0233L136.308 57.4095ZM46.2214 48.8155L46.5725 47.668L46.7561 47.7242C47.0774 47.8225 47.33 47.8036 47.5139 47.6675C47.7078 47.526 47.8929 47.2355 48.0693 46.7958L49.4307 43.3723L53.7337 44.6892L51.9428 50.5413L50.6347 50.141L52.0744 45.4363L50.227 44.871L49.2804 47.2669C48.9734 48.0514 48.6043 48.5742 48.173 48.8354C47.7516 49.0914 47.2197 49.121 46.5771 48.9243L46.2214 48.8155ZM54.6165 51.3595L53.3084 50.9592L55.0993 45.1071L56.4074 45.5074L55.7191 47.7564L56.7174 48.0619C57.0675 47.3827 57.5579 46.9011 58.1886 46.6172C58.8193 46.3333 59.498 46.3026 60.2247 46.525C61.0738 46.7849 61.6707 47.2812 62.0153 48.0142C62.3623 48.7394 62.3976 49.5534 62.1214 50.4561C61.8428 51.3664 61.3568 52.025 60.6634 52.4319C59.9699 52.8388 59.1987 52.9124 58.3495 52.6525C57.5922 52.4207 57.0287 51.9931 56.6589 51.3696C56.2992 50.7408 56.189 50.0211 56.3283 49.2104L55.3645 48.9154L54.6165 51.3595ZM57.7492 50.6366C57.9192 51.0651 58.2376 51.3507 58.7042 51.4936C59.1708 51.6364 59.5907 51.5766 59.9638 51.3143C60.3469 51.0467 60.6262 50.626 60.8018 50.0523C60.9774 49.4785 60.9801 48.9774 60.8101 48.5489C60.65 48.1151 60.3367 47.8268 59.87 47.6839C59.4034 47.5411 58.9785 47.6035 58.5955 47.8712C58.2224 48.1335 57.948 48.5515 57.7725 49.1252C57.5969 49.699 57.5891 50.2027 57.7492 50.6366ZM68.5536 54.3697L67.753 56.9859L66.4908 56.5996L66.9402 55.1309L62.8093 53.8667L62.3599 55.3355L61.0976 54.9492L61.8983 52.333L62.3687 52.477C62.7715 52.3911 63.1756 51.8496 63.5811 50.8526L64.6806 48.0392L69.1442 49.4052L67.7045 54.1098L68.5536 54.3697ZM64.8064 51.2778C64.4613 52.1594 64.1154 52.7019 63.7687 52.9054L66.3964 53.7095L67.485 50.1523L65.4884 49.5413L64.8064 51.2778ZM76.0755 51.5263L74.2846 57.3784L72.9994 56.9851L74.1898 53.0952L70.3488 56.174L69.0865 55.7877L70.8774 49.9356L72.1626 50.3289L70.9687 54.2303L74.8133 51.1401L76.0755 51.5263ZM77.4926 57.6323C77.4364 57.8159 77.3373 58.0031 77.1952 58.1939L75.8894 59.8774L74.8911 59.5719L76.0965 57.9706C75.7791 57.7228 75.6754 57.4192 75.7854 57.0597C75.858 56.8225 75.998 56.652 76.2055 56.5482C76.4129 56.4444 76.6391 56.4299 76.8839 56.5048C77.1287 56.5797 77.3095 56.7271 77.4262 56.9469C77.5454 57.159 77.5675 57.3875 77.4926 57.6323ZM85.9226 55.7947L83.2145 54.966L81.7748 59.6706L80.4667 59.2703L82.2576 53.4182L86.2737 54.6473L85.9226 55.7947ZM87.2223 55.7156C87.931 55.3134 88.7138 55.2434 89.5706 55.5056C90.4273 55.7678 91.033 56.2627 91.3876 56.9903C91.7499 57.7203 91.7917 58.5404 91.5131 59.4507C91.2345 60.3611 90.7409 61.0173 90.0322 61.4195C89.3311 61.8241 88.5522 61.8953 87.6954 61.6331C86.8386 61.3709 86.2291 60.8748 85.8668 60.1448C85.5122 59.4172 85.4742 58.5983 85.7528 57.6879C86.0314 56.7776 86.5212 56.1202 87.2223 55.7156ZM87.0756 59.5987C87.2509 60.0372 87.5758 60.329 88.0501 60.4741C88.5243 60.6193 88.953 60.558 89.3361 60.2904C89.7268 60.0252 90.0088 59.6095 90.1821 59.0434C90.3553 58.4773 90.3542 57.975 90.1789 57.5365C90.0112 57.1003 89.6902 56.8097 89.2159 56.6645C88.7416 56.5194 88.3091 56.5794 87.9184 56.8447C87.5353 57.1123 87.2571 57.5292 87.0839 58.0953C86.9106 58.6614 86.9079 59.1625 87.0756 59.5987ZM92.3959 57.7757L92.7471 56.6283L97.7959 58.1734L97.4448 59.3208L95.5744 58.7484L94.1347 63.4531L92.8266 63.0528L94.2663 58.3481L92.3959 57.7757ZM98.7087 59.2307C99.4174 58.8285 100.2 58.7585 101.057 59.0207C101.914 59.2829 102.519 59.7778 102.874 60.5054C103.236 61.2354 103.278 62.0555 102.999 62.9658C102.721 63.8762 102.227 64.5324 101.519 64.9347C100.817 65.3392 100.039 65.4104 99.1818 65.1482C98.325 64.886 97.7155 64.3899 97.3532 63.66C96.9986 62.9323 96.9606 62.1134 97.2392 61.203C97.5178 60.2927 98.0076 59.6353 98.7087 59.2307ZM98.562 63.1138C98.7373 63.5523 99.0621 63.8441 99.5364 63.9893C100.011 64.1344 100.439 64.0732 100.822 63.8055C101.213 63.5403 101.495 63.1246 101.668 62.5585C101.842 61.9924 101.841 61.4901 101.665 61.0516C101.498 60.6154 101.177 60.3248 100.702 60.1796C100.228 60.0345 99.7955 60.0946 99.4047 60.3598C99.0216 60.6275 98.7435 61.0443 98.5703 61.6104C98.397 62.1765 98.3942 62.6776 98.562 63.1138ZM103.126 66.2045L104.917 60.3524L107.544 61.1566C108.172 61.3485 108.606 61.6364 108.849 62.0201C109.091 62.4038 109.144 62.8175 109.008 63.2612C108.91 63.5825 108.748 63.8256 108.522 63.9907C108.305 64.1504 108.069 64.241 107.811 64.2626C108.084 64.4381 108.282 64.6786 108.406 64.9843C108.538 65.2923 108.546 65.6337 108.431 66.0085C108.281 66.4981 107.975 66.8436 107.512 67.0448C107.059 67.2408 106.511 67.2404 105.868 67.0438L103.126 66.2045ZM106.473 64.4932L105.176 64.0963L104.72 65.5881L106.016 65.9849C106.307 66.0738 106.549 66.0767 106.742 65.9935C106.944 65.9049 107.082 65.7421 107.155 65.5049C107.305 65.0154 107.077 64.6781 106.473 64.4932ZM107.075 62.1172L105.893 61.7555L105.478 63.1095L106.66 63.4712C106.913 63.5485 107.126 63.547 107.302 63.4667C107.484 63.3888 107.609 63.2427 107.674 63.0285C107.81 62.5848 107.61 62.2811 107.075 62.1172ZM112.035 62.5308L111.491 64.3094L112.661 64.6676C113.311 64.8666 113.773 65.217 114.046 65.7189C114.321 66.2131 114.369 66.7547 114.189 67.3438C114.006 67.9405 113.656 68.373 113.139 68.6414C112.632 68.9045 112.057 68.9377 111.414 68.7411L108.947 67.9861L110.738 62.134L112.035 62.5308ZM117.393 64.1707L115.603 70.0228L114.306 69.626L116.097 63.7739L117.393 64.1707ZM112.163 65.72L111.153 65.411L110.578 67.2928L111.587 67.6018C111.901 67.6978 112.174 67.6809 112.406 67.5512C112.646 67.4238 112.808 67.2224 112.892 66.947C112.976 66.6716 112.952 66.4216 112.82 66.1972C112.696 65.975 112.477 65.816 112.163 65.72ZM122.863 69.4587L118.743 68.198L118.736 68.221C118.598 68.6723 118.629 69.0916 118.828 69.4789C119.028 69.8662 119.361 70.1313 119.827 70.2741C120.149 70.3724 120.432 70.3881 120.679 70.3213C120.935 70.2492 121.113 70.1448 121.214 70.0082L122.499 70.4015C122.271 70.8171 121.89 71.1352 121.353 71.356C120.825 71.5792 120.197 71.5795 119.471 71.3571C118.599 71.0903 117.982 70.6045 117.62 69.8998C117.261 69.1875 117.225 68.3609 117.513 67.42C117.801 66.479 118.289 65.8128 118.978 65.4212C119.669 65.0219 120.432 64.9499 121.266 65.2051C122.069 65.4509 122.631 65.9114 122.951 66.5868C123.271 67.2621 123.297 68.0396 123.028 68.9193L122.863 69.4587ZM120.921 66.2917C120.507 66.1652 120.133 66.1846 119.798 66.3498C119.471 66.5174 119.224 66.8057 119.057 67.2147L121.857 68.0715C121.972 67.6384 121.944 67.2659 121.772 66.9538C121.61 66.6365 121.326 66.4157 120.921 66.2917ZM45.1274 54.6048L50.2221 56.1639L48.4312 62.016L47.1231 61.6157L48.5629 56.911L46.0843 56.1525L44.6446 60.8572L43.3365 60.4569L45.1274 54.6048ZM51.8178 57.4303C52.5265 57.028 53.3093 56.958 54.166 57.2202C55.0228 57.4824 55.6285 57.9773 55.9831 58.7049C56.3453 59.4349 56.3872 60.2551 56.1086 61.1654C55.83 62.0757 55.3364 62.732 54.6276 63.1342C53.9266 63.5387 53.1476 63.6099 52.2909 63.3477C51.4341 63.0855 50.8246 62.5895 50.4623 61.8595C50.1077 61.1319 50.0697 60.3129 50.3483 59.4026C50.6269 58.4923 51.1167 57.8348 51.8178 57.4303ZM51.6711 61.3133C51.8464 61.7518 52.1712 62.0436 52.6455 62.1888C53.1198 62.3339 53.5485 62.2727 53.9316 62.0051C54.3223 61.7398 54.6043 61.3241 54.7775 60.758C54.9508 60.192 54.9497 59.6897 54.7744 59.2511C54.6066 58.815 54.2857 58.5243 53.8114 58.3792C53.3371 58.234 52.9046 58.2941 52.5138 58.5594C52.1308 58.827 51.8526 59.2438 51.6794 59.8099C51.5061 60.376 51.5034 60.8771 51.6711 61.3133ZM62.5432 65.0797L61.7425 67.6959L60.4803 67.3096L60.9298 65.8409L56.7989 64.5767L56.3494 66.0455L55.0872 65.6592L55.8878 63.043L56.3583 63.1869C56.7611 63.101 57.1652 62.5596 57.5707 61.5626L58.6701 58.7492L63.1338 60.1152L61.694 64.8198L62.5432 65.0797ZM58.7959 61.9878C58.4508 62.8694 58.1049 63.4119 57.7582 63.6154L60.3859 64.4195L61.4745 60.8623L59.4779 60.2513L58.7959 61.9878ZM69.6871 67.2659L68.8864 69.8821L67.6242 69.4958L68.0737 68.0271L63.9428 66.7629L63.4933 68.2317L62.2311 67.8454L63.0317 65.2292L63.5022 65.3732C63.905 65.2873 64.3091 64.7458 64.7146 63.7488L65.814 60.9354L70.2777 62.3014L68.8379 67.006L69.6871 67.2659ZM65.9398 64.174C65.5947 65.0556 65.2488 65.5981 64.9021 65.8016L67.5298 66.6057L68.6184 63.0486L66.6218 62.4375L65.9398 64.174ZM76.1176 67.7028L71.9981 66.4421L71.9911 66.4651C71.853 66.9164 71.8836 67.3357 72.083 67.723C72.2824 68.1103 72.6154 68.3754 73.0821 68.5182C73.4034 68.6165 73.6872 68.6322 73.9335 68.5654C74.1899 68.4933 74.3682 68.3889 74.4686 68.2523L75.7537 68.6456C75.5262 69.0612 75.1443 69.3794 74.6083 69.6002C74.0798 69.8233 73.4523 69.8237 72.7255 69.6013C71.8535 69.3344 71.2366 68.8486 70.875 68.1439C70.5157 67.4316 70.48 66.605 70.768 65.6641C71.0559 64.7231 71.5443 64.0569 72.233 63.6653C72.9241 63.266 73.6865 63.194 74.5204 63.4492C75.3236 63.695 75.8854 64.1556 76.2058 64.8309C76.5262 65.5062 76.5518 66.2837 76.2826 67.1634L76.1176 67.7028ZM74.1753 64.5358C73.7622 64.4093 73.3882 64.4287 73.0532 64.5939C72.7258 64.7615 72.4786 65.0498 72.3116 65.4588L75.1114 66.3156C75.2272 65.8825 75.199 65.51 75.0268 65.1979C74.8646 64.8806 74.5807 64.6598 74.1753 64.5358ZM81.2636 65.5128C81.9904 65.7352 82.5193 66.194 82.8503 66.8893C83.189 67.587 83.212 68.4139 82.9193 69.3701C82.6267 70.3264 82.141 70.9976 81.4623 71.3839C80.7912 71.7725 80.0884 71.8545 79.3541 71.6298C78.9486 71.5057 78.6151 71.3241 78.3536 71.0852C78.1021 70.8409 77.9388 70.5817 77.8637 70.3078L76.9928 73.1535L75.6847 72.7532L78.1463 64.7094L79.4085 65.0957L79.1767 65.853C79.7265 65.3687 80.4222 65.2553 81.2636 65.5128ZM79.4907 70.4041C79.9497 70.5445 80.3696 70.4848 80.7503 70.2248C81.141 69.9596 81.4242 69.5401 81.5998 68.9663C81.773 68.4002 81.7719 67.8979 81.5966 67.4594C81.4289 67.0233 81.1155 66.7349 80.6565 66.5945C80.1899 66.4517 79.7624 66.5091 79.374 66.7667C78.9879 67.0167 78.7071 67.4285 78.5316 68.0023L78.5175 68.0482C78.3419 68.6219 78.343 69.1242 78.5207 69.5551C78.7007 69.9783 79.0241 70.2613 79.4907 70.4041ZM88.8403 67.982L88.0818 70.4606L90.8828 68.6071L92.386 69.0671L89.2712 71.1257L90.6295 74.9297L89.0919 74.4592L87.8922 71.0802L87.0494 73.8341L85.7642 73.4408L86.607 70.6869L83.7217 72.8158L82.1956 72.3487L85.4281 69.9873L84.0094 66.5037L85.5126 66.9637L86.7966 70.0673L87.5551 67.5887L88.8403 67.982ZM95.8662 72.2906C95.9668 71.9617 95.937 71.6764 95.7766 71.435C95.6263 71.1882 95.379 71.0121 95.0347 70.9067C94.4151 70.7171 93.9597 70.8246 93.6686 71.2291L92.4293 70.8498C92.6756 70.373 93.0595 70.0345 93.5809 69.8344C94.1123 69.6289 94.7222 69.6315 95.4107 69.8422C96.1374 70.0646 96.6576 70.4287 96.9713 70.9347C97.2927 71.4429 97.3503 72.0337 97.1443 72.7069L95.9644 76.5624L94.7481 76.1901L94.9518 75.5246C94.3595 75.929 93.6732 76.0118 92.893 75.773C92.3116 75.5951 91.8761 75.282 91.5867 74.8336C91.3072 74.38 91.2529 73.8739 91.4238 73.3155C91.6017 72.7341 91.9464 72.346 92.4578 72.1511C92.9792 71.9509 93.6071 71.9632 94.3415 72.1879L95.7643 72.6234L95.8662 72.2906ZM93.5064 74.7936C93.9118 74.9177 94.2912 74.9083 94.6445 74.7654C95.0001 74.6149 95.2364 74.3484 95.3535 73.9659L95.4623 73.6102L94.1313 73.2029C93.787 73.0975 93.4894 73.0859 93.2384 73.168C92.9973 73.2449 92.837 73.4133 92.7574 73.6734C92.6778 73.9335 92.7076 74.1643 92.8467 74.3659C92.9882 74.5598 93.2081 74.7023 93.5064 74.7936ZM98.1515 72.0864L98.5027 70.939L103.552 72.4841L103.2 73.6315L101.33 73.0591L99.8903 77.7638L98.5822 77.3635L100.022 72.6588L98.1515 72.0864ZM105.744 73.1549L105.199 74.9335L106.37 75.2917C107.02 75.4907 107.482 75.8411 107.755 76.343C108.03 76.8372 108.078 77.3789 107.898 77.9679C107.715 78.5646 107.365 78.9971 106.848 79.2655C106.341 79.5286 105.766 79.5619 105.123 79.3652L102.656 78.6102L104.447 72.7581L105.744 73.1549ZM105.872 76.3441L104.862 76.0351L104.286 77.9169L105.296 78.2259C105.61 78.3219 105.883 78.305 106.115 78.1753C106.355 78.0479 106.517 77.8465 106.601 77.5711C106.685 77.2957 106.661 77.0458 106.529 76.8213C106.405 76.5991 106.186 76.4401 105.872 76.3441Z" fill="white"/>
<defs>
<linearGradient id="paint0_linear_201_822" x1="96.8121" y1="21.6037" x2="65.832" y2="124.688" gradientUnits="userSpaceOnUse">
<stop stop-color="#66BEBE"/>
<stop offset="1" stop-color="#65DEA3"/>
</linearGradient>
</defs>
</svg>
