<svg width="180" height="100" viewBox="0 0 180 100" fill="none" xmlns="http://www.w3.org/2000/svg">
<g clip-path="url(#clip0_201_705)">
<path fill-rule="evenodd" clip-rule="evenodd" d="M40.1537 23.565C29.5754 26.7441 23.5772 37.8967 26.7563 48.475L36.2433 80.0425C39.4224 90.6208 50.575 96.6191 61.1533 93.4399L118.129 76.3171C118.364 76.5304 118.629 76.7188 118.922 76.8761L124.98 80.1343C126.925 81.1807 129.351 80.4518 130.397 78.5062L133.655 72.4482C133.813 72.1557 133.93 71.8524 134.009 71.5446L137.047 70.6315C147.625 67.4524 153.624 56.2998 150.445 45.7215L140.958 14.154C137.778 3.57566 126.626 -2.42258 116.047 0.756536L40.1537 23.565Z" fill="url(#paint0_linear_201_705)"/>
<path d="M46.2011 41.5467L47.5802 41.1323C47.6409 41.4732 47.643 41.8276 47.5865 42.1955C47.5276 42.5556 47.4056 42.9139 47.2203 43.2703C47.0351 43.6267 46.7506 43.9587 46.3668 44.2661C45.9808 44.5659 45.5234 44.7952 44.9948 44.9541C43.9068 45.2811 42.8992 45.1662 41.9717 44.6096C41.0496 44.043 40.4009 43.1353 40.0256 41.8865C39.6549 40.653 39.698 39.5457 40.155 38.5647C40.6097 37.576 41.3848 36.917 42.4804 36.5878C43.4458 36.2977 44.3028 36.3283 45.0517 36.6796C45.7982 37.0233 46.3536 37.579 46.7179 38.3466L45.3504 38.7576C45.0919 38.3424 44.7516 38.0437 44.3293 37.8615C43.907 37.6794 43.4162 37.6723 42.8569 37.8404C42.1597 38.05 41.6821 38.49 41.4242 39.1606C41.164 39.8236 41.1652 40.5917 41.4277 41.4652C41.6878 42.3309 42.1104 42.9724 42.6952 43.3898C43.2801 43.8071 43.9211 43.911 44.6183 43.7015C45.2006 43.5265 45.6207 43.229 45.8788 42.8089C46.1368 42.3889 46.2442 41.9682 46.2011 41.5467ZM50.7335 43.0791L49.4234 43.4728L47.6619 37.6118L48.972 37.2181L49.7042 39.6544L51.2245 36.5411L52.776 36.0749L51.0731 39.5813L54.5719 41.9255L52.9859 42.4022L49.9115 40.3439L50.7335 43.0791ZM58.6984 34.295L60.4599 40.156L59.1727 40.5428L58.0019 36.647L56.518 41.3407L55.2539 41.7206L53.4924 35.8595L54.7796 35.4727L55.9539 39.3801L57.4343 34.6749L58.6984 34.295ZM63.124 39.3554L61.8139 39.7491L60.0524 33.888L61.3626 33.4943L62.0395 35.7468L64.5563 34.9904L63.8794 32.7379L65.1895 32.3442L66.9509 38.2052L65.6408 38.599L64.9051 36.1511L62.3883 36.9075L63.124 39.3554ZM70.3605 30.7901L71.7741 30.3653L71.0348 39.3712L69.6328 39.7925L69.8499 37.2212L65.8671 32.1406L67.2806 31.7158L70.0812 35.4476L70.3605 30.7901ZM73.355 36.3057L73.0096 35.1564L73.1935 35.1012C73.5153 35.0045 73.7148 34.8484 73.7921 34.6331C73.8748 34.4078 73.8673 34.0633 73.7698 33.5998L73.0002 29.9968L77.3098 28.7017L79.0713 34.5627L77.7611 34.9564L76.3451 30.2446L74.4948 30.8007L75.0386 33.3187C75.2191 34.1416 75.2025 34.7814 74.9889 35.2382C74.7807 35.6851 74.3549 36.0052 73.7113 36.1986L73.355 36.3057ZM83.8835 26.7261L85.6449 32.5871L84.3578 32.9739L83.1869 29.0781L81.7031 33.7718L80.4389 34.1517L78.6775 28.2906L79.9646 27.9038L81.1389 31.8112L82.6193 27.106L83.8835 26.7261ZM87.7284 27.3624C87.6216 26.7847 87.7471 26.2708 88.1047 25.8208C88.47 25.3686 88.9744 25.0457 89.618 24.8523C90.2462 24.6635 90.8094 24.6613 91.3076 24.8458C91.8057 25.0302 92.1308 25.3752 92.2827 25.8809C92.4669 26.4938 92.3113 27.0042 91.8157 27.4121C92.1176 27.3882 92.4103 27.4589 92.6939 27.6243C92.9829 27.7797 93.1861 28.0528 93.3035 28.4435C93.467 28.9875 93.3734 29.4959 93.0226 29.9689C92.6796 30.4396 92.1518 30.7819 91.4393 30.9961C90.7498 31.2033 90.1295 31.2101 89.5784 31.0165C89.0274 30.8229 88.6261 30.4465 88.3745 29.8873L89.6501 29.5039C89.7874 29.7383 89.984 29.8922 90.24 29.9657C90.5013 30.0291 90.7929 30.0125 91.1146 29.9158C91.4517 29.8145 91.6992 29.665 91.8569 29.4672C92.0124 29.2618 92.0521 29.0326 91.9761 28.7798C91.8334 28.3048 91.3981 28.1766 90.6702 28.3954L89.8083 28.6544L89.4975 27.6201L90.2904 27.3818C90.5969 27.2897 90.8121 27.1582 90.9362 26.9872C91.0656 26.8063 91.0958 26.601 91.0267 26.3711C90.9599 26.1489 90.82 26.003 90.607 25.9334C90.4016 25.8615 90.1571 25.8681 89.8737 25.9533C89.5749 26.0431 89.3493 26.1819 89.1969 26.3697C89.0445 26.5575 88.9725 26.7629 88.9811 26.9859L87.7284 27.3624ZM97.113 24.9054C97.014 24.5759 96.8307 24.3554 96.5632 24.2436C96.3011 24.1219 95.9977 24.1129 95.6529 24.2165C95.0323 24.403 94.7133 24.7453 94.696 25.2433L93.4548 25.6164C93.3948 25.0831 93.5259 24.5884 93.8483 24.1323C94.176 23.6662 94.6847 23.3296 95.3742 23.1224C96.1021 22.9036 96.7369 22.9175 97.2788 23.164C97.8283 23.4082 98.2044 23.8673 98.407 24.5416L99.5675 28.4029L98.3493 28.769L98.149 28.1025C97.8811 28.7677 97.3564 29.2178 96.575 29.4526C95.9927 29.6276 95.4567 29.6091 94.9669 29.3971C94.4826 29.1751 94.1563 28.7845 93.9882 28.2252C93.8132 27.6429 93.8843 27.1287 94.2013 26.6826C94.5236 26.2265 95.0526 25.888 95.7881 25.6669L97.2131 25.2387L97.113 24.9054ZM96.5411 28.2975C96.9471 28.1755 97.2574 27.957 97.4718 27.6419C97.6839 27.3192 97.7323 26.9663 97.6172 26.5833L97.5102 26.227L96.1771 26.6276C95.8323 26.7313 95.5783 26.8869 95.4152 27.0947C95.2575 27.2924 95.2177 27.5216 95.296 27.7821C95.3743 28.0425 95.5273 28.2179 95.7549 28.3083C95.9802 28.3909 96.2423 28.3873 96.5411 28.2975ZM99.1153 22.1484L104.218 20.615L105.979 26.476L104.669 26.8697L103.253 22.1579L100.771 22.9039L102.187 27.6158L100.877 28.0095L99.1153 22.1484ZM108.613 19.1438C109.341 18.9251 110.035 19.0128 110.697 19.4071C111.366 19.7991 111.844 20.474 112.132 21.4317C112.42 22.3894 112.389 23.2173 112.039 23.9156C111.697 24.6115 111.158 25.07 110.423 25.291C110.017 25.413 109.638 25.4473 109.288 25.3939C108.943 25.3304 108.664 25.2057 108.449 25.0196L109.305 27.8696L107.995 28.2634L105.574 20.2073L106.838 19.8274L107.066 20.5859C107.255 19.8778 107.77 19.3971 108.613 19.1438ZM109.855 24.1959C110.315 24.0578 110.631 23.7749 110.803 23.3472C110.981 22.9096 110.983 22.4035 110.811 21.8289C110.64 21.2619 110.36 20.8448 109.971 20.5776C109.589 20.308 109.168 20.2423 108.709 20.3805C108.241 20.5209 107.918 20.8062 107.738 21.2361C107.556 21.6584 107.551 22.1569 107.724 22.7315L107.738 22.7774C107.91 23.3521 108.19 23.7692 108.577 24.0287C108.962 24.2806 109.388 24.3364 109.855 24.1959ZM112.943 18.7697C113.309 18.0416 113.921 17.5486 114.779 17.2907C115.637 17.0328 116.415 17.1079 117.114 17.516C117.821 17.9218 118.311 18.5805 118.585 19.4922C118.859 20.404 118.814 21.2239 118.448 21.952C118.089 22.6778 117.481 23.1697 116.623 23.4276C115.765 23.6854 114.983 23.6115 114.276 23.2057C113.577 22.7976 113.09 22.1378 112.816 21.226C112.542 20.3143 112.585 19.4955 112.943 18.7697ZM114.978 22.0801C115.367 22.3474 115.799 22.4096 116.274 22.2668C116.749 22.1241 117.072 21.8351 117.242 21.3997C117.419 20.9621 117.423 20.4598 117.252 19.8929C117.082 19.3259 116.802 18.9088 116.413 18.6416C116.031 18.3721 115.603 18.3087 115.128 18.4514C114.653 18.5942 114.326 18.8844 114.149 19.322C113.979 19.7573 113.979 20.2584 114.149 20.8254C114.32 21.3923 114.596 21.8106 114.978 22.0801ZM122.699 20.3361C123.082 20.221 123.348 20.0365 123.497 19.7828C123.654 19.5268 123.727 19.2544 123.715 18.9655L124.991 18.5821C125.102 19.2005 124.985 19.7867 124.642 20.3409C124.299 20.8951 123.764 21.2815 123.036 21.5002C122.186 21.7558 121.415 21.6784 120.723 21.268C120.03 20.85 119.547 20.189 119.275 19.2849C119.006 18.3885 119.042 17.5759 119.382 16.847C119.731 16.1158 120.334 15.6213 121.192 15.3634C121.935 15.1401 122.596 15.1711 123.175 15.4567C123.751 15.7346 124.164 16.1493 124.413 16.7009L123.137 17.0842C122.975 16.8491 122.759 16.6718 122.489 16.5524C122.224 16.423 121.908 16.4136 121.541 16.5241C121.081 16.6623 120.766 16.949 120.596 17.3843C120.434 17.8173 120.438 18.3173 120.608 18.8843C120.781 19.4589 121.058 19.881 121.44 20.1505C121.82 20.4124 122.239 20.4742 122.699 20.3361ZM46.2581 56.9543L44.9479 57.348L43.1865 51.487L44.4966 51.0933L45.1736 53.3457L47.6904 52.5894L47.0134 50.3369L48.3235 49.9432L50.085 55.8042L48.7749 56.1979L48.0392 53.7501L45.5224 54.5065L46.2581 56.9543ZM53.7094 50.4797C53.6104 50.1503 53.4272 49.9297 53.1597 49.8179C52.8976 49.6962 52.5941 49.6872 52.2493 49.7908C51.6288 49.9773 51.3098 50.3196 51.2924 50.8177L50.0512 51.1907C49.9912 50.6574 50.1224 50.1627 50.4448 49.7066C50.7725 49.2406 51.2811 48.9039 51.9707 48.6967C52.6985 48.478 53.3334 48.4918 53.8752 48.7383C54.4247 48.9825 54.8008 49.4417 55.0034 50.1159L56.1639 53.9773L54.9457 54.3434L54.7454 53.6768C54.4775 54.3421 53.9529 54.7921 53.1714 55.027C52.5891 55.202 52.0531 55.1835 51.5634 54.9714C51.079 54.7495 50.7528 54.3588 50.5847 53.7995C50.4097 53.2173 50.4807 52.7031 50.7977 52.257C51.1201 51.8009 51.649 51.4623 52.3845 51.2413L53.8096 50.813L53.7094 50.4797ZM53.1375 53.8719C53.5436 53.7498 53.8538 53.5313 54.0682 53.2163C54.2803 52.8936 54.3288 52.5407 54.2137 52.1576L54.1066 51.8013L52.7735 52.202C52.4287 52.3056 52.1748 52.4613 52.0117 52.669C51.8539 52.8668 51.8142 53.0959 51.8925 53.3564C51.9708 53.6169 52.1237 53.7923 52.3513 53.8826C52.5767 53.9652 52.8387 53.9617 53.1375 53.8719ZM61.023 45.9762C61.7509 45.7575 62.4455 45.8452 63.107 46.2395C63.7761 46.6315 64.2546 47.3064 64.5424 48.2641C64.8303 49.2218 64.7992 50.0497 64.4494 50.7479C64.1072 51.4439 63.5684 51.9024 62.8329 52.1234C62.4268 52.2454 62.0487 52.2797 61.6985 52.2263C61.3536 52.1628 61.0739 52.0381 60.8592 51.852L61.7158 54.702L60.4057 55.0958L57.9846 47.0397L59.2487 46.6598L59.4767 47.4183C59.6648 46.7102 60.1803 46.2295 61.023 45.9762ZM62.2657 51.0283C62.7254 50.8902 63.0413 50.6073 63.2135 50.1796C63.3911 49.742 63.3935 49.2359 63.2208 48.6613C63.0504 48.0943 62.7706 47.6772 62.3812 47.41C61.9994 47.1404 61.5787 47.0747 61.119 47.2129C60.6517 47.3533 60.3281 47.6386 60.1482 48.0685C59.9661 48.4908 59.9613 48.9893 60.134 49.5639L60.1478 49.6098C60.3205 50.1845 60.6004 50.6016 60.9875 50.8611C61.3723 51.113 61.7983 51.1688 62.2657 51.0283ZM70.811 46.7937L66.6852 48.0336L66.6921 48.0566C66.828 48.5086 67.0864 48.8403 67.4673 49.0516C67.8483 49.2629 68.2724 49.2983 68.7398 49.1578C69.0615 49.0611 69.3063 48.9166 69.474 48.7242C69.6471 48.5218 69.7374 48.3359 69.745 48.1666L71.0321 47.7797C71.0737 48.2517 70.933 48.7284 70.6098 49.2098C70.2944 49.6889 69.7727 50.0378 69.0449 50.2565C68.1715 50.519 67.3887 50.4577 66.6966 50.0726C66.0022 49.6798 65.5133 49.0123 65.2301 48.0699C64.9469 47.1276 64.9829 46.3023 65.3381 45.5941C65.691 44.8782 66.285 44.3948 67.1201 44.1438C67.9246 43.9021 68.6476 43.973 69.2891 44.3566C69.9307 44.7401 70.3838 45.3725 70.6486 46.2535L70.811 46.7937ZM67.4367 45.239C67.023 45.3634 66.7227 45.5873 66.5359 45.9107C66.3568 46.2319 66.3114 46.6089 66.3997 47.0418L69.2038 46.1991C69.0595 45.7746 68.8291 45.4805 68.5126 45.3167C68.2014 45.1429 67.8428 45.117 67.4367 45.239ZM72.5966 49.0387L70.8352 43.1777L73.4669 42.3868C74.0952 42.198 74.6166 42.1958 75.0313 42.3803C75.4459 42.5647 75.72 42.8791 75.8535 43.3235C75.9502 43.6453 75.9504 43.9376 75.854 44.2005C75.7629 44.4534 75.6163 44.6604 75.414 44.8214C75.7382 44.8159 76.0367 44.9058 76.3095 45.0911C76.5901 45.2741 76.7868 45.5533 76.8996 45.9287C77.047 46.419 76.984 46.8765 76.7106 47.3011C76.4426 47.7158 75.9868 48.0199 75.3433 48.2133L72.5966 49.0387ZM74.4295 45.7563L73.1308 46.1466L73.5798 47.6406L74.8785 47.2503C75.1696 47.1628 75.3722 47.0309 75.4863 46.8546C75.6057 46.6684 75.6298 46.4565 75.5584 46.219C75.411 45.7286 75.0347 45.5744 74.4295 45.7563ZM73.61 43.4464L72.4263 43.8022L72.8338 45.1583L74.0175 44.8025C74.2703 44.7265 74.4473 44.6065 74.5484 44.4425C74.6571 44.2762 74.6792 44.0858 74.6147 43.8712C74.4812 43.4269 74.1463 43.2853 73.61 43.4464ZM77.9643 41.0352L78.4997 42.8165L79.6719 42.4642C80.3231 42.2685 80.9017 42.3034 81.4075 42.5691C81.9111 42.8271 82.2515 43.251 82.4288 43.8409C82.6084 44.4385 82.5577 44.9926 82.2767 45.503C82.0011 46.0035 81.5415 46.3505 80.898 46.5439L78.4272 47.2865L76.6657 41.4254L77.9643 41.0352ZM79.8426 43.6158L78.8312 43.9197L79.3977 45.8044L80.409 45.5005C80.7231 45.4061 80.9406 45.2405 81.0616 45.0036C81.1902 44.7645 81.2131 44.507 81.1302 44.2312C81.0473 43.9554 80.8886 43.7609 80.654 43.6476C80.4272 43.532 80.1567 43.5214 79.8426 43.6158ZM85.3433 45.208L84.0332 45.6017L82.2718 39.7406L83.5819 39.3469L84.2588 41.5994L85.2587 41.2989C85.1725 40.5396 85.3127 39.8667 85.6795 39.2804C86.0463 38.694 86.5936 38.2915 87.3214 38.0727C88.1718 37.8171 88.9439 37.8984 89.6375 38.3164C90.3289 38.7268 90.8104 39.384 91.0821 40.2881C91.3561 41.1998 91.3178 42.0174 90.9672 42.7409C90.6166 43.4644 90.0161 43.954 89.1657 44.2096C88.4072 44.4375 87.7011 44.3949 87.0473 44.0819C86.3989 43.7588 85.9075 43.2215 85.573 42.47L84.6077 42.7601L85.3433 45.208ZM87.5467 42.8667C87.9261 43.1286 88.3495 43.1893 88.8169 43.0488C89.2842 42.9084 89.6002 42.6255 89.7647 42.2001C89.9346 41.7648 89.9332 41.2599 89.7605 40.6852C89.5878 40.1106 89.3118 39.6924 88.9324 39.4305C88.5583 39.1587 88.1376 39.093 87.6702 39.2334C87.2029 39.3739 86.8842 39.6618 86.7144 40.0971C86.5498 40.5224 86.5539 41.0224 86.7266 41.597C86.8993 42.1716 87.1726 42.5949 87.5467 42.8667ZM49.7118 68.4465L48.4017 68.8403L46.6403 62.9792L47.9504 62.5855L48.6273 64.838L51.1441 64.0816L50.4672 61.8291L51.7773 61.4354L53.5387 67.2964L52.2286 67.6902L51.493 65.2423L48.9762 65.9987L49.7118 68.4465ZM59.2647 62.7939L55.139 64.0338L55.1459 64.0568C55.2817 64.5088 55.5401 64.8405 55.921 65.0518C56.302 65.2631 56.7261 65.2985 57.1935 65.1581C57.5153 65.0614 57.76 64.9168 57.9277 64.7244C58.1008 64.522 58.1911 64.3361 58.1987 64.1668L59.4858 63.78C59.5274 64.252 59.3867 64.7286 59.0636 65.21C58.7481 65.6891 58.2264 66.038 57.4986 66.2567C56.6252 66.5192 55.8424 66.4579 55.1503 66.0728C54.4559 65.6801 53.9671 65.0125 53.6838 64.0701C53.4006 63.1278 53.4366 62.3025 53.7918 61.5943C54.1447 60.8784 54.7387 60.395 55.5738 60.1441C56.3783 59.9023 57.1013 59.9732 57.7428 60.3568C58.3844 60.7404 58.8376 61.3727 59.1023 62.2538L59.2647 62.7939ZM55.8904 61.2393C55.4767 61.3636 55.1765 61.5875 54.9897 61.911C54.8105 62.2321 54.7651 62.6091 54.8534 63.042L57.6575 62.1993C57.5133 61.7749 57.2829 61.4807 56.9663 61.3169C56.6551 61.1431 56.2965 61.1172 55.8904 61.2393ZM58.9838 60.5226L58.6385 59.3734L63.695 57.8537L64.0404 59.003L62.1672 59.5659L63.5832 64.2777L62.2731 64.6715L60.8571 59.9597L58.9838 60.5226ZM69.7979 56.0196L71.5594 61.8807L70.2722 62.2675L69.1014 58.3716L67.6175 63.0653L66.3534 63.4452L64.592 57.5842L65.8791 57.1974L67.0534 61.1047L68.5338 56.3995L69.7979 56.0196ZM71.152 55.6127L76.2545 54.0792L78.0159 59.9403L76.7058 60.334L75.2898 55.6222L72.8075 56.3682L74.2235 61.08L72.9134 61.4737L71.152 55.6127ZM82.8169 52.107L84.5784 57.968L83.2912 58.3549L82.1204 54.459L80.6365 59.1527L79.3724 59.5326L77.611 53.6716L78.8981 53.2847L80.0724 57.1921L81.5528 52.4869L82.8169 52.107ZM87.5727 50.6778L88.8828 50.284L90.6442 56.1451L89.3341 56.5388L88.6399 54.2289C88.355 54.5317 87.9482 54.7625 87.4196 54.9214C86.7377 55.1263 86.1262 55.0929 85.5851 54.8211C85.044 54.5494 84.6571 54.0266 84.4246 53.2528L83.9756 51.7588L85.2857 51.3651L85.7071 52.7671C85.9673 53.6329 86.5226 53.9379 87.373 53.6824C87.7561 53.5672 88.0701 53.3893 88.3152 53.1486L87.5727 50.6778ZM93.3087 55.3443L91.9986 55.738L90.2372 49.877L91.5473 49.4833L92.2242 51.7357L94.741 50.9794L94.0641 48.7269L95.3742 48.3332L97.1356 54.1942L95.8255 54.5879L95.0898 52.1401L92.573 52.8965L93.3087 55.3443ZM97.4036 48.5001C97.7696 47.772 98.3816 47.279 99.2397 47.0211C100.098 46.7632 100.876 46.8383 101.575 47.2464C102.282 47.6522 102.772 48.3109 103.046 49.2226C103.32 50.1343 103.274 50.9543 102.908 51.6824C102.55 52.4082 101.942 52.9001 101.084 53.158C100.226 53.4158 99.4435 53.3419 98.7368 52.9361C98.0378 52.528 97.5513 51.8681 97.2773 50.9564C97.0033 50.0447 97.0454 49.2259 97.4036 48.5001ZM99.4385 51.8105C99.8279 52.0778 100.26 52.14 100.735 51.9972C101.21 51.8545 101.533 51.5654 101.703 51.1301C101.88 50.6925 101.884 50.1902 101.713 49.6233C101.543 49.0563 101.263 48.6392 100.874 48.372C100.492 48.1025 100.063 48.0391 99.5885 48.1818C99.1135 48.3246 98.7872 48.6148 98.6096 49.0524C98.4397 49.4877 98.44 49.9888 98.6104 50.5558C98.7807 51.1227 99.0568 51.541 99.4385 51.8105ZM107.556 45.925L104.844 46.7401L106.26 51.4519L104.95 51.8457L103.189 45.9846L107.211 44.7758L107.556 45.925ZM108.593 45.1373C108.959 44.4091 109.571 43.9161 110.429 43.6583C111.287 43.4004 112.066 43.4755 112.765 43.8836C113.472 44.2893 113.962 44.9481 114.236 45.8598C114.51 46.7715 114.464 47.5914 114.098 48.3196C113.74 49.0454 113.132 49.5372 112.274 49.7951C111.416 50.053 110.633 49.979 109.926 49.5733C109.227 49.1652 108.741 48.5053 108.467 47.5936C108.193 46.6819 108.235 45.8631 108.593 45.1373ZM110.628 48.4477C111.018 48.7149 111.45 48.7772 111.925 48.6344C112.4 48.4916 112.722 48.2026 112.892 47.7673C113.07 47.3297 113.073 46.8274 112.903 46.2604C112.733 45.6935 112.453 45.2764 112.063 45.0091C111.682 44.7396 111.253 44.6762 110.778 44.819C110.303 44.9617 109.977 45.2519 109.799 45.6895C109.629 46.1249 109.63 46.626 109.8 47.1929C109.97 47.7599 110.246 48.1781 110.628 48.4477ZM54.0649 78.5533C54.448 78.4382 54.7142 78.2538 54.8635 78.0001C55.0204 77.7441 55.0931 77.4716 55.0814 77.1827L56.3571 76.7994C56.4677 77.4177 56.3515 78.0039 56.0085 78.5581C55.6655 79.1123 55.1301 79.4987 54.4022 79.7175C53.5518 79.9731 52.7809 79.8957 52.0896 79.4853C51.3959 79.0672 50.9132 78.4062 50.6415 77.5021C50.3721 76.6057 50.4077 75.7931 50.7484 75.0642C51.0967 74.333 51.6998 73.8385 52.5579 73.5806C53.3011 73.3573 53.962 73.3884 54.5407 73.6739C55.117 73.9518 55.5299 74.3665 55.7792 74.9181L54.5035 75.3015C54.341 75.0663 54.1248 74.889 53.855 74.7696C53.5906 74.6402 53.2745 74.6308 52.9068 74.7413C52.4471 74.8795 52.1323 75.1662 51.9624 75.6015C51.8001 76.0346 51.8042 76.5345 51.9746 77.1015C52.1473 77.6761 52.4245 78.0982 52.8062 78.3677C53.1857 78.6296 53.6052 78.6915 54.0649 78.5533ZM60.2017 73.589C60.1027 73.2595 59.9195 73.0389 59.652 72.9272C59.3899 72.8055 59.0864 72.7965 58.7416 72.9001C58.1211 73.0866 57.8021 73.4289 57.7847 73.9269L56.5435 74.2999C56.4835 73.7667 56.6147 73.272 56.9371 72.8159C57.2648 72.3498 57.7734 72.0132 58.463 71.806C59.1908 71.5872 59.8257 71.6011 60.3675 71.8476C60.9171 72.0917 61.2931 72.5509 61.4957 73.2251L62.6562 77.0865L61.438 77.4526L61.2377 76.7861C60.9699 77.4513 60.4452 77.9014 59.6637 78.1362C59.0814 78.3112 58.5454 78.2927 58.0557 78.0807C57.5713 77.8587 57.2451 77.4681 57.077 76.9088C56.902 76.3265 56.973 75.8123 57.29 75.3662C57.6124 74.9101 58.1413 74.5716 58.8768 74.3505L60.3019 73.9223L60.2017 73.589ZM59.6298 76.9811C60.0359 76.8591 60.3461 76.6406 60.5605 76.3255C60.7726 76.0028 60.8211 75.6499 60.706 75.2669L60.5989 74.9106L59.2658 75.3112C58.921 75.4148 58.6671 75.5705 58.504 75.7783C58.3462 75.976 58.3065 76.2052 58.3848 76.4657C58.4631 76.7261 58.616 76.9015 58.8436 76.9918C59.069 77.0745 59.331 77.0709 59.6298 76.9811ZM67.41 69.2675L69.1714 75.1285L67.8843 75.5153L66.7135 71.6195L65.2296 76.3132L63.9654 76.6931L62.204 70.832L63.4911 70.4452L64.6654 74.3526L66.1458 69.6474L67.41 69.2675ZM63.13 67.6593C63.2129 67.9351 63.3586 68.1419 63.5671 68.2797C63.7756 68.4176 64.0216 68.4439 64.305 68.3587C64.5885 68.2735 64.7792 68.1159 64.8772 67.886C64.9752 67.6561 64.9827 67.4032 64.8998 67.1274L65.9571 66.8096C66.1145 67.3889 66.0688 67.9038 65.8199 68.3545C65.5788 68.8029 65.1671 69.1146 64.5848 69.2895C64.0025 69.4645 63.4834 69.4326 63.0273 69.1938C62.5789 68.9526 62.2607 68.547 62.0727 67.977L63.13 67.6593ZM68.6497 70.1479L68.3043 68.9987L73.3609 67.479L73.7063 68.6283L71.833 69.1912L73.2491 73.903L71.939 74.2968L70.5229 69.585L68.6497 70.1479ZM78.1758 68.1872C78.0768 67.8578 77.8936 67.6372 77.6261 67.5254C77.364 67.4037 77.0605 67.3947 76.7158 67.4983C76.0952 67.6848 75.7762 68.0271 75.7588 68.5251L74.5177 68.8982C74.4576 68.3649 74.5888 67.8702 74.9112 67.4141C75.2389 66.9481 75.7476 66.6114 76.4371 66.4042C77.1649 66.1855 77.7998 66.1993 78.3416 66.4458C78.8912 66.69 79.2673 67.1492 79.4699 67.8234L80.6303 71.6848L79.4122 72.0509L79.2118 71.3843C78.944 72.0495 78.4193 72.4996 77.6378 72.7345C77.0556 72.9094 76.5196 72.8909 76.0298 72.6789C75.5454 72.4569 75.2192 72.0663 75.0511 71.507C74.8761 70.9247 74.9471 70.4105 75.2641 69.9644C75.5865 69.5083 76.1155 69.1698 76.851 68.9487L78.276 68.5205L78.1758 68.1872ZM77.6039 71.5793C78.01 71.4573 78.3202 71.2388 78.5346 70.9237C78.7467 70.601 78.7952 70.2481 78.6801 69.8651L78.573 69.5088L77.2399 69.9094C76.8952 70.0131 76.6412 70.1687 76.4781 70.3765C76.3203 70.5742 76.2806 70.8034 76.3589 71.0639C76.4372 71.3244 76.5901 71.4998 76.8178 71.5901C77.0431 71.6727 77.3051 71.6691 77.6039 71.5793Z" fill="#0F1414"/>
</g>
<defs>
<linearGradient id="paint0_linear_201_705" x1="76.224" y1="-2.23118" x2="98.3493" y2="71.3895" gradientUnits="userSpaceOnUse">
<stop stop-color="#F9F9F9"/>
<stop offset="1" stop-color="#F4F4F4"/>
</linearGradient>
<clipPath id="clip0_201_705">
<rect width="180" height="100" fill="white"/>
</clipPath>
</defs>
</svg>
