<svg width="180" height="100" viewBox="0 0 180 100" fill="none" xmlns="http://www.w3.org/2000/svg">
<path fill-rule="evenodd" clip-rule="evenodd" d="M38.931 34.6183C28.4757 38.1811 22.8882 49.5451 26.451 60.0004L31.1815 73.8824C34.7443 84.3377 46.1083 89.9252 56.5636 86.3624L92.0977 74.2537C92.3672 74.598 92.7166 74.8885 93.1353 75.0943L101.103 79.0119C102.59 79.743 104.388 79.1303 105.119 77.6434L109.036 69.6758C109.242 69.2571 109.342 68.8137 109.345 68.3765L139.221 58.1956C149.677 54.6328 155.264 43.2689 151.701 32.8136L146.971 18.9315C143.408 8.4762 132.044 2.88871 121.589 6.45151L38.931 34.6183Z" fill="url(#paint0_linear_163_824)"/>
<path d="M37.3136 51.8611L43.7767 49.6587L46.5016 57.6551L45.1499 58.1158L42.8392 51.3347L39.0795 52.6158L41.3902 59.3969L40.0385 59.8575L37.3136 51.8611ZM49.0069 50.1837C49.7263 49.9386 50.4237 50.001 51.0991 50.3709C51.7821 50.7382 52.2849 51.3952 52.6074 52.3417C52.93 53.2883 52.9292 54.1168 52.605 54.8273C52.2885 55.5353 51.7667 56.0131 51.0398 56.2608C50.6384 56.3976 50.2618 56.4456 49.9099 56.405C49.5629 56.3542 49.2788 56.2397 49.0575 56.0616L50.0175 58.8785L48.7226 59.3197L46.0093 51.3573L47.2587 50.9316L47.5142 51.6812C47.6764 50.9667 48.174 50.4676 49.0069 50.1837ZM50.433 55.1872C50.8874 55.0323 51.1928 54.7381 51.3493 54.3044C51.5107 53.8606 51.4947 53.3548 51.3012 52.7868C51.1102 52.2265 50.8153 51.8199 50.4164 51.567C50.0251 51.3116 49.6023 51.2613 49.148 51.4161C48.6861 51.5735 48.3731 51.8703 48.209 52.3066C48.0424 52.7352 48.0558 53.2335 48.2493 53.8014L48.2648 53.8469C48.4584 54.4148 48.7533 54.8214 49.1496 55.0667C49.5433 55.3044 49.9711 55.3446 50.433 55.1872ZM58.8182 50.6437L54.7404 52.0332L54.7481 52.0559C54.9004 52.5027 55.1707 52.8247 55.5591 53.022C55.9475 53.2193 56.3726 53.2392 56.8346 53.0818C57.1526 52.9734 57.3919 52.82 57.5525 52.6216C57.7181 52.4131 57.8016 52.224 57.803 52.0545L59.0751 51.621C59.1339 52.0912 59.0106 52.5727 58.7053 53.0655C58.4075 53.5558 57.8989 53.9235 57.1795 54.1686C56.3163 54.4628 55.5318 54.4301 54.8261 54.0705C54.1178 53.7033 53.605 53.054 53.2876 52.1226C52.9702 51.1912 52.9761 50.3652 53.3052 49.6445C53.6318 48.9162 54.2077 48.4115 55.0331 48.1302C55.8282 47.8593 56.5533 47.9038 57.2084 48.2637C57.8636 48.6236 58.3395 49.239 58.6362 50.1098L58.8182 50.6437ZM55.3895 49.2131C54.9806 49.3525 54.6887 49.5872 54.5138 49.9172C54.3465 50.2447 54.3148 50.6231 54.4189 51.0525L57.1904 50.1081C57.0307 49.6892 56.7898 49.4037 56.4675 49.2515C56.1501 49.0892 55.7908 49.0764 55.3895 49.2131ZM66.2388 49.6616L67.1213 52.2514L65.8719 52.6772L65.3764 51.2233L61.2873 52.6167L61.7828 54.0706L60.5333 54.4964L59.6508 51.9066L60.1165 51.7479C60.3928 51.4425 60.4034 50.7669 60.1485 49.7213L59.3928 46.7967L63.8113 45.291L65.3983 49.9481L66.2388 49.6616ZM61.3908 49.3487C61.6271 50.2654 61.6643 50.9078 61.5023 51.2757L64.1034 50.3893L62.9035 46.8681L60.9271 47.5416L61.3908 49.3487ZM69.633 48.6445C70.0116 48.5155 70.2709 48.3215 70.4108 48.0625C70.5584 47.8009 70.621 47.526 70.5989 47.2378L71.8597 46.8081C71.9928 47.422 71.8981 48.0121 71.5755 48.5784C71.2529 49.1447 70.732 49.5504 70.0126 49.7956C69.172 50.082 68.3988 50.0328 67.693 49.6479C66.9845 49.2554 66.478 48.6124 66.1735 47.7189C65.8716 46.8329 65.8776 46.0195 66.1914 45.2787C66.5128 44.5353 67.0976 44.0191 67.9457 43.7301C68.6802 43.4798 69.3418 43.4867 69.9305 43.751C70.5166 44.0076 70.9443 44.407 71.2135 44.9492L69.9527 45.3788C69.7817 45.1497 69.5592 44.9804 69.2853 44.871C69.0163 44.7513 68.7001 44.7534 68.3366 44.8773C67.8822 45.0321 67.5781 45.3301 67.4242 45.7714C67.2779 46.21 67.3002 46.7095 67.4911 47.2699C67.6847 47.8378 67.9771 48.2495 68.3684 48.5049C68.7571 48.7528 69.1787 48.7993 69.633 48.6445ZM71.3445 43.9918L70.9574 42.8559L75.9552 41.1528L76.3423 42.2887L74.4908 42.9196L76.0778 47.5766L74.7829 48.0179L73.1959 43.3609L71.3445 43.9918ZM77.3142 41.4758C77.6533 40.7348 78.2469 40.2198 79.095 39.9308C79.9431 39.6418 80.7239 39.6884 81.4374 40.0707C82.1584 40.4504 82.6724 41.0909 82.9795 41.992C83.2866 42.8931 83.2706 43.7142 82.9314 44.4551C82.5999 45.1936 82.0101 45.7073 81.1619 45.9963C80.3138 46.2853 79.5293 46.2399 78.8083 45.8602C78.0948 45.4779 77.5845 44.8362 77.2775 43.935C76.9704 43.0339 76.9826 42.2142 77.3142 41.4758ZM79.4685 44.7097C79.8673 44.9626 80.3015 45.009 80.771 44.849C81.2405 44.6891 81.5522 44.3885 81.7061 43.9472C81.8676 43.5034 81.8529 43.0013 81.6619 42.441C81.471 41.8806 81.176 41.474 80.7772 41.2212C80.3859 40.9657 79.9555 40.918 79.486 41.078C79.0165 41.238 78.701 41.5399 78.5395 41.9837C78.3856 42.4249 78.4041 42.9257 78.5951 43.486C78.786 44.0464 79.0772 44.4543 79.4685 44.7097ZM88.1492 36.9975L90.1232 42.7904L88.8511 43.224L87.5389 39.3734L86.2272 44.1181L84.9778 44.5438L83.0038 38.7509L84.2759 38.3174L85.5919 42.1794L86.8998 37.4233L88.1492 36.9975ZM89.4202 37.8322L89.0332 36.6963L94.031 34.9933L94.418 36.1291L92.5666 36.76L94.1535 41.4171L92.8586 41.8583L91.2717 37.2013L89.4202 37.8322ZM101.281 37.86C101.66 37.731 101.919 37.537 102.059 37.278C102.206 37.0164 102.269 36.7415 102.247 36.4533L103.508 36.0236C103.641 36.6375 103.546 37.2276 103.223 37.7939C102.901 38.3602 102.38 38.7659 101.661 39.0111C100.82 39.2975 100.047 39.2483 99.3409 38.8634C98.6325 38.4709 98.126 37.8279 97.8215 36.9344C97.5196 36.0484 97.5255 35.235 97.8394 34.4942C98.1608 33.7508 98.7455 33.2346 99.5936 32.9456C100.328 32.6953 100.99 32.7022 101.578 32.9665C102.165 33.2231 102.592 33.6225 102.862 34.1647L101.601 34.5943C101.43 34.3652 101.207 34.1959 100.933 34.0865C100.664 33.9668 100.348 33.9689 99.9846 34.0928C99.5302 34.2476 99.2261 34.5456 99.0722 34.9869C98.9258 35.4255 98.9481 35.925 99.1391 36.4854C99.3326 37.0533 99.625 37.465 100.016 37.7204C100.405 37.9683 100.827 38.0148 101.281 37.86ZM103.865 32.4282C104.204 31.6872 104.798 31.1722 105.646 30.8832C106.494 30.5942 107.275 30.6408 107.988 31.0232C108.709 31.4029 109.223 32.0433 109.53 32.9444C109.837 33.8455 109.821 34.6666 109.482 35.4076C109.151 36.146 108.561 36.6597 107.713 36.9487C106.865 37.2377 106.08 37.1923 105.359 36.8126C104.646 36.4303 104.135 35.7886 103.828 34.8875C103.521 33.9864 103.533 33.1666 103.865 32.4282ZM106.019 35.6622C106.418 35.915 106.852 35.9615 107.322 35.8015C107.791 35.6415 108.103 35.3409 108.257 34.8997C108.418 34.4559 108.404 33.9538 108.213 33.3934C108.022 32.8331 107.727 32.4265 107.328 32.1736C106.937 31.9182 106.506 31.8704 106.037 32.0304C105.567 32.1904 105.252 32.4923 105.09 32.9361C104.936 33.3773 104.955 33.8781 105.146 34.4385C105.337 34.9988 105.628 35.4067 106.019 35.6622ZM112.535 28.7386C113.299 28.478 114.009 28.5276 114.665 28.8875C115.327 29.2449 115.811 29.8703 116.115 30.7639C116.402 31.6044 116.386 32.4002 116.067 33.1511C115.753 33.892 115.176 34.4056 114.335 34.692C113.396 35.012 112.555 34.948 111.81 34.5001C111.064 34.0447 110.498 33.2528 110.113 32.1245C109.641 30.7388 109.503 29.6152 109.7 28.7537C109.894 27.8847 110.478 27.1787 111.45 26.6359L113.655 25.403L114.057 26.5843L112.019 27.6719C111.457 27.9817 111.091 28.3472 110.922 28.7683C110.75 29.1818 110.74 29.7094 110.891 30.351C111.108 29.5754 111.656 29.0379 112.535 28.7386ZM113.884 33.5907C114.361 33.4282 114.678 33.1301 114.834 32.6964C114.996 32.2526 114.983 31.7581 114.798 31.2129C114.617 30.6828 114.33 30.2989 113.936 30.0612C113.547 29.8133 113.118 29.7694 112.649 29.9294C112.179 30.0894 111.852 30.3825 111.668 30.8087C111.481 31.2274 111.481 31.7094 111.666 32.2546C111.857 32.8149 112.152 33.2215 112.551 33.4744C112.955 33.7171 113.399 33.7559 113.884 33.5907ZM122.308 29.0086L118.23 30.3982L118.238 30.4209C118.39 30.8676 118.661 31.1897 119.049 31.3869C119.437 31.5842 119.862 31.6041 120.324 31.4467C120.642 31.3384 120.882 31.185 121.042 30.9866C121.208 30.778 121.291 30.589 121.293 30.4195L122.565 29.986C122.624 30.4561 122.5 30.9376 122.195 31.4305C121.897 31.9207 121.389 32.2884 120.669 32.5335C119.806 32.8277 119.022 32.795 118.316 32.4354C117.608 32.0682 117.095 31.4189 116.777 30.4875C116.46 29.5561 116.466 28.7301 116.795 28.0094C117.122 27.2812 117.698 26.7764 118.523 26.4951C119.318 26.2242 120.043 26.2687 120.698 26.6286C121.353 26.9885 121.829 27.6039 122.126 28.4747L122.308 29.0086ZM118.879 27.5781C118.47 27.7174 118.178 27.9521 118.004 28.2822C117.836 28.6096 117.805 28.9881 117.909 29.4174L120.68 28.473C120.521 28.0541 120.28 27.7686 119.957 27.6164C119.64 27.4541 119.281 27.4413 118.879 27.5781ZM126.317 29.3285C126.696 29.1994 126.955 29.0054 127.095 28.7464C127.243 28.4849 127.305 28.21 127.283 27.9217L128.544 27.4921C128.677 28.106 128.582 28.696 128.26 29.2624C127.937 29.8287 127.416 30.2344 126.697 30.4795C125.856 30.766 125.083 30.7167 124.377 30.3318C123.669 29.9394 123.162 29.2964 122.858 28.4028C122.556 27.5169 122.562 26.7035 122.876 25.9626C123.197 25.2192 123.782 24.703 124.63 24.414C125.365 24.1637 126.026 24.1707 126.615 24.4349C127.201 24.6916 127.629 25.091 127.898 25.6331L126.637 26.0628C126.466 25.8337 126.244 25.6644 125.97 25.5549C125.701 25.4353 125.384 25.4374 125.021 25.5613C124.567 25.7161 124.263 26.0141 124.109 26.4553C123.962 26.894 123.985 27.3935 124.176 27.9538C124.369 28.5218 124.661 28.9335 125.053 29.1889C125.442 29.4368 125.863 29.4833 126.317 29.3285ZM43.7729 71.2626L41.7988 65.4697L44.4 64.5833C45.0209 64.3717 45.5419 64.3506 45.963 64.5198C46.3841 64.689 46.6695 64.9932 46.8191 65.4324C46.9275 65.7504 46.9383 66.0426 46.8515 66.3088C46.7698 66.5649 46.6308 66.777 46.4346 66.9453C46.7583 66.928 47.0599 67.0069 47.3393 67.1821C47.6263 67.3548 47.8331 67.6266 47.9595 67.9977C48.1247 68.4823 48.0784 68.9418 47.8207 69.3761C47.568 69.8003 47.1237 70.1208 46.4876 70.3375L43.7729 71.2626ZM45.4848 67.9155L44.2012 68.3529L44.7044 69.8295L45.9879 69.3922C46.2757 69.2941 46.4734 69.1549 46.5809 68.9746C46.6935 68.7841 46.7098 68.5714 46.6298 68.3367C46.4647 67.8521 46.083 67.7117 45.4848 67.9155ZM44.5816 65.6371L43.4116 66.0358L43.8684 67.3761L45.0383 66.9774C45.2882 66.8922 45.4606 66.7659 45.5557 66.5983C45.6582 66.4281 45.6734 66.237 45.6012 66.0249C45.4515 65.5857 45.1116 65.4564 44.5816 65.6371ZM53.0769 68.0921L51.782 68.5334L49.808 62.7405L51.1029 62.2992L51.9235 64.7072L53.3292 61.5406L54.8626 61.018L53.2888 64.5843L56.8707 66.7993L55.3032 67.3335L52.1557 65.3888L53.0769 68.0921ZM55.9877 61.4206C56.3269 60.6797 56.9205 60.1647 57.7686 59.8756C58.6167 59.5866 59.3975 59.6333 60.1109 60.0156C60.8319 60.3953 61.346 61.0358 61.6531 61.9369C61.9601 62.838 61.9441 63.659 61.605 64.4C61.2734 65.1384 60.6836 65.6521 59.8355 65.9412C58.9874 66.2302 58.2028 66.1848 57.4818 65.8051C56.7684 65.4228 56.2581 64.781 55.951 63.8799C55.644 62.9788 55.6562 62.159 55.9877 61.4206ZM58.142 64.6546C58.5409 64.9075 58.9751 64.9539 59.4446 64.7939C59.9141 64.6339 60.2258 64.3333 60.3797 63.8921C60.5411 63.4483 60.5264 62.9462 60.3355 62.3859C60.1445 61.8255 59.8496 61.4189 59.4507 61.166C59.0594 60.9106 58.629 60.8629 58.1595 61.0229C57.69 61.1829 57.3745 61.4848 57.2131 61.9286C57.0592 62.3698 57.0777 62.8706 57.2686 63.4309C57.4596 63.9913 57.7507 64.3992 58.142 64.6546ZM61.6773 58.6958L63.313 58.1385L66.5852 61.7141L66.9932 56.8844L68.6061 56.3347L70.5801 62.1276L69.3306 62.5534L67.9798 58.5893L67.585 63.1229L66.6309 63.448L63.5538 60.1102L64.9008 64.063L63.6513 64.4887L61.6773 58.6958ZM69.9469 55.8778L74.9902 54.1593L76.9642 59.9522L75.6693 60.3934L74.0823 55.7364L71.6289 56.5724L73.2158 61.2295L71.9209 61.6707L69.9469 55.8778ZM80.3928 54.4988C80.2819 54.1732 80.0907 53.9594 79.8193 53.8575C79.5529 53.7454 79.2494 53.7475 78.9086 53.8636C78.2952 54.0726 77.9889 54.4263 77.9897 54.9247L76.763 55.3427C76.6836 54.812 76.7966 54.3128 77.1021 53.8453C77.4127 53.3676 77.9087 53.0126 78.5902 52.7804C79.3096 52.5352 79.9445 52.526 80.495 52.7525C81.0531 52.9765 81.4456 53.4216 81.6727 54.088L82.9732 57.9045L81.7692 58.3148L81.5447 57.656C81.3013 58.3306 80.7934 58.7994 80.021 59.0626C79.4455 59.2588 78.9092 59.2598 78.412 59.0658C77.9199 58.8616 77.5796 58.4832 77.3912 57.9304C77.1951 57.3549 77.2473 56.8384 77.5479 56.381C77.8534 55.9135 78.3696 55.5559 79.0966 55.3082L80.5051 54.8282L80.3928 54.4988ZM79.945 57.9095C80.3464 57.7728 80.6484 57.5431 80.8512 57.2204C81.0514 56.8902 81.0869 56.5358 80.9579 56.1572L80.8379 55.805L79.5203 56.254C79.1796 56.3701 78.9315 56.535 78.7761 56.7485C78.6256 56.9519 78.5943 57.1823 78.682 57.4398C78.7697 57.6973 78.929 57.867 79.1597 57.9489C79.3879 58.0233 79.6497 58.0102 79.945 57.9095ZM85.5621 57.0223L84.2672 57.4636L82.2932 51.6707L83.5881 51.2294L84.3467 53.4557L86.8343 52.608L86.0756 50.3817L87.3705 49.9405L89.3445 55.7334L88.0497 56.1746L87.2252 53.7553L84.7377 54.6029L85.5621 57.0223ZM93.8559 47.7305L95.8299 53.5234L94.5577 53.9569L93.2456 50.1064L91.9339 54.851L90.6844 55.2768L88.7104 49.4839L89.9826 49.0504L91.2986 52.9123L92.6064 48.1563L93.8559 47.7305ZM98.463 52.6261L97.1681 53.0674L95.1941 47.2745L96.489 46.8332L97.2477 49.0595L98.2359 48.7228C98.122 47.9671 98.2377 47.2896 98.5828 46.6902C98.9279 46.0909 99.4602 45.6686 100.18 45.4235C101.02 45.1371 101.795 45.1901 102.503 45.5826C103.209 45.9674 103.714 46.6067 104.019 47.5002C104.326 48.4013 104.317 49.2198 103.993 49.9556C103.669 50.6915 103.087 51.2026 102.246 51.489C101.497 51.7445 100.79 51.7277 100.125 51.4386C99.4651 51.1395 98.9544 50.6205 98.5927 49.8816L97.6386 50.2067L98.463 52.6261ZM100.58 50.2061C100.968 50.454 101.394 50.4992 101.856 50.3418C102.317 50.1844 102.623 49.8901 102.772 49.4591C102.926 49.0178 102.906 48.5133 102.712 47.9453C102.519 47.3774 102.228 46.9695 101.839 46.7216C101.455 46.4636 101.032 46.4133 100.57 46.5707C100.109 46.7281 99.8007 47.0274 99.6468 47.4687C99.4978 47.8997 99.5201 48.3992 99.7137 48.9672C99.9072 49.5351 100.196 49.9481 100.58 50.2061ZM107.178 43.0261C107.074 42.7232 106.877 42.5159 106.585 42.404C106.301 42.2895 105.977 42.2942 105.614 42.418C104.872 42.6709 104.529 43.1766 104.584 43.9352L103.323 44.3649C103.18 43.6954 103.276 43.0712 103.611 42.4921C103.946 41.9131 104.488 41.4958 105.238 41.2403C106.003 40.9797 106.677 40.974 107.26 41.2231C107.852 41.4696 108.252 41.8995 108.461 42.5129C108.538 42.74 108.58 42.9624 108.586 43.1799C108.593 43.3974 108.585 43.5733 108.563 43.7076C108.549 43.8392 108.487 44.0041 108.377 44.2021C108.272 44.39 108.197 44.517 108.152 44.5831C108.104 44.6416 108.008 44.7675 107.862 44.9607C107.845 44.9836 107.807 45.0345 107.749 45.1133C107.692 45.1921 107.654 45.2429 107.637 45.2658C107.619 45.2887 107.585 45.3383 107.535 45.4145C107.49 45.4806 107.46 45.5288 107.445 45.5593C107.435 45.5796 107.416 45.624 107.389 45.6925C107.359 45.7534 107.342 45.8016 107.337 45.837C107.332 45.8725 107.323 45.9219 107.311 45.9852C107.299 46.0485 107.294 46.1093 107.297 46.1675C107.305 46.2155 107.316 46.2711 107.329 46.3342C107.342 46.3974 107.36 46.463 107.383 46.5312L107.461 46.7584L106.234 47.1764L106.118 46.8356C106.007 46.51 105.964 46.2118 105.99 45.9409C106.021 45.6599 106.084 45.4356 106.179 45.268C106.272 45.0928 106.43 44.8615 106.653 44.5741C106.821 44.3479 106.941 44.1801 107.014 44.0708C107.091 43.9514 107.152 43.7954 107.197 43.6028C107.248 43.4077 107.242 43.2155 107.178 43.0261ZM106.693 48.3763C106.806 48.1605 106.979 48.0126 107.214 47.9326C107.449 47.8526 107.673 47.865 107.886 47.9699C108.107 48.0721 108.257 48.2406 108.337 48.4754C108.417 48.7101 108.402 48.9392 108.292 49.1625C108.188 49.3757 108.018 49.5223 107.783 49.6023C107.548 49.6823 107.321 49.6712 107.1 49.5689C106.884 49.4565 106.736 49.283 106.656 49.0482C106.576 48.8135 106.589 48.5895 106.693 48.3763Z" fill="#0F1414"/>
<defs>
<linearGradient id="paint0_linear_163_824" x1="78.8703" y1="8.6945" x2="99.0484" y2="67.9086" gradientUnits="userSpaceOnUse">
<stop stop-color="#F9F9F9"/>
<stop offset="1" stop-color="#F4F4F4"/>
</linearGradient>
</defs>
</svg>
