<svg width="180" height="100" viewBox="0 0 180 100" fill="none" xmlns="http://www.w3.org/2000/svg">
<path fill-rule="evenodd" clip-rule="evenodd" d="M48.1537 26.1373C37.5754 29.3164 31.5772 40.469 34.7563 51.0473L41.8779 74.744C45.057 85.3223 56.2096 91.3206 66.7879 88.1414L119.115 72.4157L124.495 75.3093C125.954 76.0941 127.773 75.5474 128.558 74.0882L131.475 68.6647C141.346 65.0559 146.808 54.3263 143.744 44.1301L136.622 20.4334C133.443 9.85507 122.29 3.85684 111.712 7.03595L48.1537 26.1373Z" fill="url(#paint0_linear_201_731)"/>
<path d="M54.3302 39.959L50.5723 41.0884L51.1421 42.9846L52.843 42.4734C53.6551 42.2294 54.3666 42.262 54.9775 42.5713C55.586 42.8729 56.0031 43.3991 56.2288 44.1499C56.4475 44.8777 56.3858 45.5479 56.0435 46.1603C55.7013 46.7727 55.1356 47.1975 54.3465 47.4346L51.2666 48.3602L48.8351 40.2697L53.9607 38.7293L54.3302 39.959ZM53.0079 43.6894L51.491 44.1453L52.275 46.7541L53.7919 46.2982C54.2363 46.1646 54.5504 45.9449 54.7341 45.6391C54.9232 45.3233 54.9568 44.9624 54.8347 44.5563C54.7127 44.1503 54.4869 43.8715 54.1573 43.7199C53.8354 43.566 53.4523 43.5559 53.0079 43.6894ZM57.5626 40.0777L58.0979 41.859L59.2701 41.5067C59.9213 41.311 60.4999 41.346 61.0057 41.6116C61.5093 41.8696 61.8497 42.2936 62.027 42.8835C62.2066 43.4811 62.1559 44.0351 61.875 44.5456C61.5994 45.0461 61.1398 45.393 60.4962 45.5865L58.0254 46.329L56.2639 40.468L57.5626 40.0777ZM62.9294 38.4648L64.6909 44.3258L63.3922 44.7161L61.6308 38.8551L62.9294 38.4648ZM59.4408 42.6583L58.4295 42.9623L58.9959 44.847L60.0072 44.5431C60.3213 44.4486 60.5389 44.283 60.6598 44.0462C60.7884 43.8071 60.8113 43.5496 60.7284 43.2738C60.6455 42.998 60.4868 42.8034 60.2523 42.6901C60.0254 42.5745 59.7549 42.5639 59.4408 42.6583ZM65.4307 44.1286L65.0853 42.9793L65.2692 42.9241C65.591 42.8274 65.7905 42.6713 65.8678 42.456C65.9504 42.2307 65.943 41.8862 65.8454 41.4227L65.0759 37.8197L69.3855 36.5246L71.1469 42.3856L69.8368 42.7793L68.4207 38.0675L66.5705 38.6236L67.1142 41.1416C67.2947 41.9645 67.2782 42.6043 67.0646 43.0611C66.8564 43.508 66.4305 43.8281 65.7869 44.0215L65.4307 44.1286ZM74.7874 41.2915L73.026 35.4305L75.6577 34.6395C76.286 34.4507 76.8074 34.4486 77.222 34.633C77.6367 34.8175 77.9108 35.1319 78.0443 35.5763C78.141 35.8981 78.1412 36.1904 78.0447 36.4533C77.9537 36.7062 77.807 36.9131 77.6048 37.0742C77.929 37.0686 78.2275 37.1585 78.5003 37.3438C78.7809 37.5268 78.9776 37.806 79.0904 38.1814C79.2377 38.6718 79.1747 39.1293 78.9014 39.5539C78.6334 39.9686 78.1776 40.2726 77.5341 40.466L74.7874 41.2915ZM76.6203 38.0091L75.3216 38.3994L75.7706 39.8934L77.0692 39.5031C77.3604 39.4156 77.563 39.2837 77.6771 39.1074C77.7965 38.9211 77.8206 38.7093 77.7492 38.4717C77.6018 37.9814 77.2255 37.8272 76.6203 38.0091ZM75.8008 35.6992L74.6171 36.055L75.0246 37.411L76.2083 37.0553C76.4611 36.9793 76.6381 36.8593 76.7391 36.6953C76.8479 36.529 76.87 36.3385 76.8055 36.124C76.672 35.6796 76.3371 35.538 75.8008 35.6992ZM79.5303 34.2526C79.8963 33.5245 80.5083 33.0314 81.3663 32.7736C82.2244 32.5157 83.003 32.5908 83.702 32.9989C84.4087 33.4046 84.899 34.0634 85.173 34.9751C85.447 35.8868 85.4011 36.7067 85.0352 37.4349C84.6769 38.1607 84.0687 38.6525 83.2107 38.9104C82.3526 39.1683 81.5702 39.0944 80.8635 38.6886C80.1645 38.2805 79.6779 37.6206 79.4039 36.7089C79.1299 35.7972 79.1721 34.9784 79.5303 34.2526ZM81.5652 37.563C81.9546 37.8302 82.3868 37.8925 82.8618 37.7497C83.3368 37.6069 83.6593 37.3179 83.8292 36.8826C84.0067 36.445 84.0103 35.9427 83.8399 35.3757C83.6696 34.8088 83.3897 34.3917 83.0003 34.1245C82.6186 33.8549 82.1902 33.7915 81.7152 33.9343C81.2402 34.077 80.9139 34.3672 80.7363 34.8048C80.5664 35.2402 80.5667 35.7413 80.737 36.3083C80.9074 36.8752 81.1835 37.2934 81.5652 37.563ZM85.3155 31.7371L90.4181 30.2036L92.1795 36.0646L90.8694 36.4584L89.4533 31.7466L86.971 32.4926L88.387 37.2044L87.0769 37.5981L85.3155 31.7371ZM94.813 28.7324C95.5408 28.5137 96.2355 28.6015 96.8969 28.9958C97.5661 29.3878 98.0446 30.0626 98.3324 31.0203C98.6202 31.978 98.5892 32.806 98.2393 33.5042C97.8972 34.2001 97.3583 34.6586 96.6228 34.8796C96.2168 35.0017 95.8386 35.036 95.4884 34.9825C95.1436 34.9191 94.8638 34.7943 94.6492 34.6082L95.5057 37.4583L94.1956 37.852L91.7745 29.7959L93.0386 29.416L93.2666 30.1745C93.4547 29.4664 93.9702 28.9857 94.813 28.7324ZM96.0556 33.7846C96.5153 33.6464 96.8313 33.3635 97.0035 32.9358C97.181 32.4982 97.1835 31.9921 97.0108 31.4175C96.8404 30.8505 96.5605 30.4334 96.1711 30.1662C95.7894 29.8967 95.3687 29.831 94.909 29.9691C94.4416 30.1096 94.118 30.3948 93.9382 30.8248C93.756 31.247 93.7513 31.7455 93.9239 32.3201L93.9378 32.3661C94.1104 32.9407 94.3903 33.3578 94.7774 33.6174C95.1622 33.8693 95.5883 33.925 96.0556 33.7846ZM99.143 28.3584C99.5089 27.6302 100.121 27.1372 100.979 26.8793C101.837 26.6215 102.616 26.6966 103.315 27.1046C104.021 27.5104 104.512 28.1692 104.786 29.0809C105.06 29.9926 105.014 30.8125 104.648 31.5406C104.29 32.2665 103.681 32.7583 102.823 33.0162C101.965 33.2741 101.183 33.2001 100.476 32.7944C99.7771 32.3863 99.2906 31.7264 99.0166 30.8147C98.7426 29.903 98.7847 29.0842 99.143 28.3584ZM101.178 31.6688C101.567 31.936 101.999 31.9982 102.474 31.8555C102.95 31.7127 103.272 31.4237 103.442 30.9884C103.619 30.5507 103.623 30.0485 103.453 29.4815C103.282 28.9146 103.002 28.4975 102.613 28.2302C102.231 27.9607 101.803 27.8973 101.328 28.0401C100.853 28.1828 100.527 28.473 100.349 28.9106C100.179 29.3459 100.179 29.8471 100.35 30.414C100.52 30.981 100.796 31.3992 101.178 31.6688ZM108.899 29.9247C109.282 29.8096 109.548 29.6252 109.698 29.3715C109.855 29.1155 109.927 28.843 109.916 28.5541L111.191 28.1708C111.302 28.7891 111.186 29.3753 110.843 29.9295C110.5 30.4837 109.964 30.8701 109.236 31.0889C108.386 31.3445 107.615 31.2671 106.924 30.8567C106.23 30.4386 105.747 29.7776 105.476 28.8735C105.206 27.9771 105.242 27.1645 105.582 26.4356C105.931 25.7044 106.534 25.2099 107.392 24.952C108.135 24.7287 108.796 24.7598 109.375 25.0453C109.951 25.3232 110.364 25.7379 110.613 26.2895L109.338 26.6729C109.175 26.4377 108.959 26.2604 108.689 26.141C108.425 26.0116 108.109 26.0022 107.741 26.1127C107.281 26.2509 106.966 26.5376 106.796 26.973C106.634 27.406 106.638 27.906 106.809 28.4729C106.981 29.0475 107.259 29.4696 107.64 29.7391C108.02 30.001 108.439 30.0629 108.899 29.9247ZM55.8926 59.5002L54.5825 59.8939L52.821 54.0329L54.1311 53.6392L54.8081 55.8916L57.3249 55.1353L56.6479 52.8828L57.9581 52.489L59.7195 58.3501L58.4094 58.7438L57.6737 56.296L55.1569 57.0524L55.8926 59.5002ZM63.3439 53.0256C63.2449 52.6962 63.0617 52.4756 62.7942 52.3638C62.5321 52.2421 62.2286 52.2331 61.8839 52.3367C61.2633 52.5232 60.9443 52.8655 60.9269 53.3636L59.6858 53.7366C59.6257 53.2033 59.7569 52.7086 60.0793 52.2525C60.407 51.7865 60.9156 51.4498 61.6052 51.2426C62.333 51.0239 62.9679 51.0377 63.5097 51.2842C64.0593 51.5284 64.4353 51.9876 64.638 52.6618L65.7984 56.5232L64.5803 56.8893L64.3799 56.2227C64.1121 56.888 63.5874 57.338 62.8059 57.5729C62.2237 57.7479 61.6876 57.7294 61.1979 57.5173C60.7135 57.2954 60.3873 56.9047 60.2192 56.3454C60.0442 55.7632 60.1152 55.249 60.4322 54.8029C60.7546 54.3468 61.2835 54.0082 62.019 53.7872L63.4441 53.3589L63.3439 53.0256ZM62.772 56.4178C63.1781 56.2957 63.4883 56.0772 63.7027 55.7622C63.9148 55.4395 63.9633 55.0866 63.8482 54.7035L63.7411 54.3472L62.408 54.7479C62.0632 54.8515 61.8093 55.0072 61.6462 55.2149C61.4884 55.4127 61.4487 55.6418 61.527 55.9023C61.6053 56.1628 61.7582 56.3382 61.9859 56.4285C62.2112 56.5111 62.4732 56.5076 62.772 56.4178ZM69.3171 54.3505C69.7001 54.2354 69.9663 54.051 70.1156 53.7973C70.2726 53.5413 70.3452 53.2688 70.3336 52.98L71.6092 52.5966C71.7199 53.2149 71.6037 53.8012 71.2607 54.3553C70.9177 54.9095 70.3822 55.296 69.6544 55.5147C68.804 55.7703 68.0331 55.6929 67.3417 55.2825C66.648 54.8645 66.1654 54.2034 65.8937 53.2994C65.6243 52.403 65.6599 51.5903 66.0005 50.8614C66.3488 50.1303 66.952 49.6357 67.8101 49.3778C68.5532 49.1545 69.2142 49.1856 69.7928 49.4711C70.3692 49.749 70.782 50.1637 71.0313 50.7153L69.7557 51.0987C69.5931 50.8635 69.377 50.6862 69.1072 50.5668C68.8428 50.4375 68.5267 50.428 68.1589 50.5386C67.6992 50.6767 67.3844 50.9634 67.2145 51.3988C67.0523 51.8318 67.0564 52.3318 67.2268 52.8987C67.3994 53.4733 67.6767 53.8954 68.0584 54.1649C68.4378 54.4268 68.8574 54.4887 69.3171 54.3505ZM74.8029 47.4266L76.113 47.0329L77.8744 52.894L76.5643 53.2877L75.8701 50.9778C75.5852 51.2806 75.1784 51.5114 74.6498 51.6703C73.9679 51.8752 73.3564 51.8418 72.8153 51.57C72.2742 51.2983 71.8874 50.7755 71.6548 50.0017L71.2058 48.5077L72.5159 48.114L72.9373 49.516C73.1975 50.3818 73.7528 50.6868 74.6032 50.4313C74.9863 50.3161 75.3004 50.1382 75.5455 49.8975L74.8029 47.4266ZM83.5991 48.3918L79.4734 49.6317L79.4803 49.6547C79.6161 50.1067 79.8745 50.4384 80.2555 50.6497C80.6364 50.861 81.0606 50.8964 81.5279 50.756C81.8497 50.6593 82.0944 50.5147 82.2622 50.3223C82.4352 50.1199 82.5256 49.9341 82.5331 49.7647L83.8203 49.3779C83.8619 49.8499 83.7211 50.3266 83.398 50.8079C83.0825 51.287 82.5609 51.6359 81.833 51.8546C80.9596 52.1171 80.1769 52.0558 79.4847 51.6707C78.7903 51.278 78.3015 50.6104 78.0183 49.6681C77.7351 48.7257 77.7711 47.9004 78.1263 47.1922C78.4792 46.4764 79.0732 45.9929 79.9083 45.742C80.7127 45.5002 81.4357 45.5711 82.0773 45.9547C82.7188 46.3383 83.172 46.9706 83.4368 47.8517L83.5991 48.3918ZM80.2249 46.8372C79.8112 46.9615 79.5109 47.1854 79.3241 47.5089C79.1449 47.83 79.0995 48.207 79.1879 48.6399L81.992 47.7972C81.8477 47.3728 81.6173 47.0786 81.3008 46.9148C80.9896 46.741 80.6309 46.7151 80.2249 46.8372ZM77.4846 44.1397C77.5917 43.9405 77.7564 43.8074 77.9786 43.7407C78.2008 43.6739 78.4077 43.6952 78.5993 43.8047C78.7963 43.9042 78.927 44.0613 78.9915 44.2758C79.056 44.4903 79.0346 44.6972 78.9274 44.8965C78.8256 45.0858 78.6636 45.2139 78.4414 45.2806C78.2192 45.3474 78.0097 45.331 77.8127 45.2315C77.6211 45.122 77.493 44.96 77.4285 44.7455C77.3641 44.531 77.3827 44.3291 77.4846 44.1397ZM79.9209 43.4075C80.0281 43.2083 80.1928 43.0752 80.415 43.0085C80.6371 42.9417 80.844 42.963 81.0357 43.0725C81.2326 43.172 81.3634 43.3291 81.4278 43.5436C81.4923 43.7581 81.471 43.965 81.3638 44.1643C81.262 44.3536 81.1 44.4816 80.8778 44.5484C80.6556 44.6152 80.446 44.5988 80.249 44.4993C80.0574 44.3898 79.9294 44.2278 79.8649 44.0133C79.8004 43.7988 79.8191 43.5969 79.9209 43.4075ZM83.3183 46.1205L82.9729 44.9713L88.0295 43.4517L88.3748 44.6009L86.5016 45.1638L87.9177 49.8757L86.6075 50.2694L85.1915 45.5576L83.3183 46.1205ZM61.4808 63.9606L63.2422 69.8216L61.9551 70.2084L60.7843 66.3126L59.3004 71.0062L58.0362 71.3862L56.2748 65.5251L57.5619 65.1383L58.7362 69.0457L60.2166 64.3405L61.4808 63.9606ZM66.8057 67.6355C67.1887 67.5204 67.4549 67.3359 67.6042 67.0822C67.7612 66.8262 67.8338 66.5538 67.8222 66.2649L69.0978 65.8815C69.2085 66.4999 69.0923 67.0861 68.7493 67.6403C68.4063 68.1945 67.8708 68.5809 67.143 68.7997C66.2926 69.0552 65.5217 68.9778 64.8303 68.5675C64.1366 68.1494 63.6539 67.4884 63.3823 66.5843C63.1129 65.6879 63.1485 64.8753 63.4891 64.1464C63.8374 63.4152 64.4406 62.9207 65.2987 62.6628C66.0418 62.4395 66.7028 62.4706 67.2814 62.7561C67.8578 63.034 68.2706 63.4487 68.5199 64.0003L67.2443 64.3836C67.0817 64.1485 66.8655 63.9712 66.5958 63.8518C66.3313 63.7224 66.0153 63.713 65.6475 63.8235C65.1878 63.9617 64.873 64.2484 64.7031 64.6837C64.5409 65.1167 64.545 65.6167 64.7153 66.1837C64.888 66.7583 65.1652 67.1804 65.547 67.4499C65.9264 67.7118 66.346 67.7736 66.8057 67.6355ZM72.8831 65.809C73.2661 65.6939 73.5323 65.5095 73.6816 65.2558C73.8386 64.9998 73.9112 64.7273 73.8996 64.4385L75.1752 64.0551C75.2859 64.6734 75.1697 65.2597 74.8267 65.8138C74.4837 66.368 73.9482 66.7545 73.2204 66.9732C72.37 67.2288 71.5991 67.1514 70.9077 66.741C70.214 66.323 69.7314 65.6619 69.4597 64.7579C69.1903 63.8615 69.2259 63.0488 69.5665 62.3199C69.9148 61.5888 70.518 61.0942 71.3761 60.8364C72.1193 60.613 72.7802 60.6441 73.3588 60.9296C73.9352 61.2075 74.348 61.6222 74.5973 62.1738L73.3217 62.5572C73.1591 62.322 72.943 62.1447 72.6732 62.0253C72.4088 61.896 72.0927 61.8865 71.7249 61.9971C71.2652 62.1352 70.9504 62.422 70.7805 62.8573C70.6183 63.2903 70.6224 63.7903 70.7928 64.3572C70.9655 64.9318 71.2427 65.3539 71.6244 65.6234C72.0038 65.8853 72.4234 65.9472 72.8831 65.809ZM76.1374 65.9713L75.792 64.822L75.9759 64.7668C76.2977 64.6701 76.4972 64.514 76.5745 64.2987C76.6571 64.0734 76.6497 63.7289 76.5522 63.2654L75.7826 59.6624L80.0922 58.3673L81.8536 64.2283L80.5435 64.622L79.1275 59.9102L77.2772 60.4663L77.821 62.9843C78.0014 63.8072 77.9849 64.447 77.7713 64.9038C77.5631 65.3507 77.1372 65.6708 76.4937 65.8642L76.1374 65.9713ZM87.5916 59.7221L83.4659 60.9621L83.4728 60.985C83.6086 61.4371 83.867 61.7687 84.2479 61.98C84.6289 62.1913 85.053 62.2268 85.5204 62.0863C85.8422 61.9896 86.0869 61.845 86.2546 61.6526C86.4277 61.4503 86.518 61.2644 86.5256 61.095L87.8127 60.7082C87.8544 61.1802 87.7136 61.6569 87.3905 62.1383C87.075 62.6173 86.5533 62.9662 85.8255 63.185C84.9521 63.4475 84.1693 63.3862 83.4772 63.0011C82.7828 62.6083 82.294 61.9408 82.0108 60.9984C81.7275 60.056 81.7635 59.2308 82.1187 58.5226C82.4716 57.8067 83.0656 57.3233 83.9007 57.0723C84.7052 56.8305 85.4282 56.9014 86.0697 57.285C86.7113 57.6686 87.1645 58.3009 87.4293 59.182L87.5916 59.7221ZM84.2174 58.1675C83.8036 58.2919 83.5034 58.5157 83.3166 58.8392C83.1374 59.1604 83.092 59.5374 83.1803 59.9703L85.9844 59.1275C85.8402 58.7031 85.6098 58.409 85.2932 58.2452C84.982 58.0714 84.6234 58.0455 84.2174 58.1675ZM95.0431 59.0114L95.8306 61.6316L94.5664 62.0116L94.1244 60.5405L89.9872 61.7839L90.4292 63.2549L89.1651 63.6348L88.3776 61.0146L88.8488 60.873C89.136 60.5778 89.1713 59.9031 88.9547 58.8489L88.3062 55.8987L92.7767 54.5552L94.1927 59.267L95.0431 59.0114ZM90.2097 58.5218C90.4124 59.4466 90.4262 60.0899 90.2509 60.4516L92.8826 59.6607L91.8119 56.0981L89.8123 56.6991L90.2097 58.5218ZM95.1751 54.6112C95.541 53.8831 96.153 53.3901 97.0111 53.1322C97.8692 52.8743 98.6478 52.9494 99.3468 53.3575C100.053 53.7633 100.544 54.422 100.818 55.3337C101.092 56.2455 101.046 57.0654 100.68 57.7935C100.322 58.5193 99.7135 59.0112 98.8555 59.2691C97.9974 59.527 97.215 59.453 96.5083 59.0472C95.8093 58.6392 95.3227 57.9793 95.0487 57.0675C94.7747 56.1558 94.8169 55.3371 95.1751 54.6112ZM97.21 57.9216C97.5994 58.1889 98.0316 58.2511 98.5066 58.1084C98.9816 57.9656 99.3041 57.6766 99.474 57.2412C99.6515 56.8036 99.6551 56.3013 99.4847 55.7344C99.3144 55.1674 99.0345 54.7503 98.6451 54.4831C98.2633 54.2136 97.835 54.1502 97.36 54.2929C96.885 54.4357 96.5587 54.7259 96.3811 55.1635C96.2112 55.5988 96.2115 56.1 96.3818 56.6669C96.5522 57.2339 96.8283 57.6521 97.21 57.9216ZM102.722 57.9568L100.96 52.0957L103.592 51.3048C104.22 51.116 104.742 51.1138 105.156 51.2983C105.571 51.4828 105.845 51.7972 105.979 52.2416C106.075 52.5633 106.075 52.8557 105.979 53.1185C105.888 53.3715 105.741 53.5784 105.539 53.7394C105.863 53.7339 106.162 53.8238 106.435 54.0091C106.715 54.1921 106.912 54.4713 107.025 54.8467C107.172 55.3371 107.109 55.7945 106.836 56.2192C106.568 56.6339 106.112 56.9379 105.468 57.1313L102.722 57.9568ZM104.555 54.6744L103.256 55.0646L103.705 56.5586L105.004 56.1684C105.295 56.0809 105.497 55.949 105.611 55.7727C105.731 55.5864 105.755 55.3745 105.683 55.137C105.536 54.6467 105.16 54.4925 104.555 54.6744ZM103.735 52.3645L102.551 52.7202L102.959 54.0763L104.143 53.7206C104.395 53.6446 104.572 53.5246 104.673 53.3606C104.782 53.1942 104.804 53.0038 104.74 52.7893C104.606 52.3449 104.271 52.2033 103.735 52.3645ZM110.821 51.2875C110.722 50.958 110.539 50.7374 110.271 50.6257C110.009 50.504 109.706 50.4949 109.361 50.5985C108.74 50.785 108.421 51.1273 108.404 51.6254L107.163 51.9984C107.103 51.4651 107.234 50.9704 107.556 50.5144C107.884 50.0483 108.393 49.7117 109.082 49.5045C109.81 49.2857 110.445 49.2996 110.987 49.5461C111.536 49.7902 111.912 50.2494 112.115 50.9236L113.276 54.785L112.057 55.1511L111.857 54.4846C111.589 55.1498 111.065 55.5999 110.283 55.8347C109.701 56.0097 109.165 55.9912 108.675 55.7792C108.191 55.5572 107.864 55.1666 107.696 54.6073C107.521 54.025 107.592 53.5108 107.909 53.0647C108.232 52.6086 108.761 52.27 109.496 52.049L110.921 51.6207L110.821 51.2875ZM110.249 54.6796C110.655 54.5576 110.965 54.339 111.18 54.024C111.392 53.7013 111.44 53.3484 111.325 52.9653L111.218 52.6091L109.885 53.0097C109.54 53.1133 109.286 53.269 109.123 53.4767C108.966 53.6745 108.926 53.9036 109.004 54.1641C109.082 54.4246 109.235 54.6 109.463 54.6903C109.688 54.773 109.95 54.7694 110.249 54.6796ZM115.895 53.9978L114.585 54.3916L112.823 48.5305L114.133 48.1368L114.81 50.3893L117.327 49.6329L116.65 47.3804L117.96 46.9867L119.722 52.8477L118.412 53.2414L117.676 50.7936L115.159 51.55L115.895 53.9978ZM124.522 45.0147L126.283 50.8757L124.996 51.2626L123.825 47.3667L122.342 52.0604L121.077 52.4403L119.316 46.5793L120.603 46.1924L121.777 50.0998L123.258 45.3946L124.522 45.0147ZM131.082 43.0432L132.843 48.9043L131.556 49.2911L130.385 45.3952L128.902 50.0889L127.637 50.4688L125.876 44.6078L127.163 44.221L128.337 48.1283L129.818 43.4231L131.082 43.0432ZM126.802 41.435C126.885 41.7108 127.031 41.9176 127.239 42.0555C127.448 42.1933 127.694 42.2196 127.977 42.1344C128.261 42.0492 128.451 41.8917 128.549 41.6617C128.647 41.4318 128.655 41.1789 128.572 40.9031L129.629 40.5854C129.786 41.1646 129.741 41.6795 129.492 42.1302C129.251 42.5786 128.839 42.8903 128.257 43.0653C127.675 43.2403 127.155 43.2083 126.699 42.9695C126.251 42.7283 125.933 42.3228 125.745 41.7528L126.802 41.435Z" fill="#0F1414"/>
<defs>
<linearGradient id="paint0_linear_201_731" x1="78.209" y1="3.58276" x2="98.2129" y2="70.1446" gradientUnits="userSpaceOnUse">
<stop stop-color="#F9F9F9"/>
<stop offset="1" stop-color="#F4F4F4"/>
</linearGradient>
</defs>
</svg>
