<svg width="190" height="120" viewBox="0 0 190 120" fill="none" xmlns="http://www.w3.org/2000/svg">
<path fill-rule="evenodd" clip-rule="evenodd" d="M155.558 48.4227C162.963 50.6481 167.162 58.455 164.936 65.8598L158.544 87.1302C156.319 94.535 148.512 98.7338 141.107 96.5084L87.0851 80.2732C85.8152 79.8915 84.4456 80.0299 83.2777 80.6581L77.2309 83.9102C74.7989 85.2182 71.767 84.3071 70.459 81.8751L67.2069 75.8283C66.5787 74.6604 65.5124 73.7899 64.2424 73.4082L36.648 65.1152C29.2432 62.8898 25.0445 55.083 27.2698 47.6782L33.6623 26.4078C35.8877 19.0029 43.6945 14.8042 51.0993 17.0296L155.558 48.4227Z" fill="url(#paint0_linear_163_801)"/>
<path d="M46.0505 30.567L47.7373 31.0832L48.4053 38.127L52.8895 32.6599L54.5533 33.169L52.0812 41.2472L50.7845 40.8504L52.5719 35.0098L48.3968 40.0821L47.2953 39.745L46.6739 33.2049L44.8865 39.0455L43.5784 38.6452L46.0505 30.567ZM56.6753 36.253L56.131 38.0316L57.3014 38.3898C57.9517 38.5887 58.4133 38.9392 58.6864 39.4411C58.9618 39.9353 59.0094 40.4769 58.8292 41.066C58.6466 41.6627 58.2967 42.0952 57.7795 42.3636C57.2723 42.6267 56.6974 42.6599 56.0548 42.4633L53.5878 41.7083L55.3787 35.8562L56.6753 36.253ZM62.034 37.8929L60.2431 43.745L58.9465 43.3482L60.7373 37.4961L62.034 37.8929ZM56.8037 39.4422L55.7939 39.1332L55.218 41.015L56.2278 41.324C56.5414 41.42 56.8143 41.4031 57.0464 41.2734C57.2862 41.146 57.4482 40.9446 57.5325 40.6692C57.6168 40.3938 57.5929 40.1438 57.4608 39.9194C57.3364 39.6972 57.1173 39.5382 56.8037 39.4422ZM68.6356 39.9634C69.4083 40.1998 69.9548 40.6557 70.2752 41.331C70.6033 42.0087 70.6292 42.7989 70.3529 43.7015C70.0931 44.5507 69.6141 45.1863 68.916 45.6085C68.2279 46.0254 67.4592 46.1039 66.6101 45.8441C65.6615 45.5538 65.0167 45.0092 64.6755 44.2104C64.3366 43.404 64.3416 42.4308 64.6904 41.291C65.1189 39.8911 65.6649 38.8995 66.3287 38.3162C66.9948 37.7252 67.8811 37.4945 68.9876 37.624L71.4963 37.9148L71.1311 39.1082L68.8421 38.7967C68.205 38.7189 67.6946 38.8011 67.3109 39.0434C66.9295 39.2781 66.6122 39.6997 66.3591 40.3083C66.9894 39.8068 67.7483 39.6918 68.6356 39.9634ZM66.8889 44.687C67.3709 44.8345 67.8022 44.7782 68.1829 44.5183C68.5737 44.253 68.8533 43.845 69.0219 43.2942C69.1857 42.7587 69.1776 42.2794 68.9976 41.8561C68.8276 41.4276 68.5054 41.1408 68.0311 40.9957C67.5568 40.8505 67.1202 40.8968 66.7212 41.1344C66.3245 41.3644 66.0419 41.7548 65.8733 42.3056C65.7001 42.8716 65.7012 43.3739 65.8765 43.8125C66.0619 44.2457 66.3993 44.5372 66.8889 44.687ZM75.9696 42.1575L77.381 42.5895L71.7638 49.6676L70.3639 49.2391L71.9727 47.2216L71.483 40.7845L72.8944 41.2164L73.1502 45.8753L75.9696 42.1575ZM82.4879 49.2975L81.6873 51.9138L80.4251 51.5275L80.8745 50.0587L76.7436 48.7946L76.2942 50.2633L75.0319 49.8771L75.8326 47.2608L76.303 47.4048C76.7058 47.3189 77.1099 46.7775 77.5154 45.7805L78.6149 42.9671L83.0785 44.3331L81.6388 49.0377L82.4879 49.2975ZM78.7407 46.2056C78.3956 47.0873 78.0497 47.6298 77.703 47.8332L80.3307 48.6374L81.4192 45.0802L79.4226 44.4692L78.7407 46.2056ZM88.9184 49.7344L84.799 48.4738L84.792 48.4967C84.6538 48.9481 84.6845 49.3674 84.8839 49.7547C85.0833 50.142 85.4163 50.407 85.8829 50.5498C86.2042 50.6482 86.488 50.6639 86.7344 50.5971C86.9907 50.5249 87.169 50.4205 87.2694 50.2839L88.5546 50.6772C88.327 51.0928 87.9452 51.411 87.4091 51.6318C86.8807 51.8549 86.2531 51.8553 85.5264 51.6329C84.6543 51.366 84.0374 50.8803 83.6758 50.1756C83.3165 49.4633 83.2809 48.6367 83.5688 47.6957C83.8568 46.7548 84.3451 46.0885 85.0338 45.6969C85.7249 45.2977 86.4874 45.2257 87.3212 45.4808C88.1244 45.7266 88.6863 46.1872 89.0067 46.8625C89.3271 47.5379 89.3527 48.3154 89.0834 49.1951L88.9184 49.7344ZM86.9761 46.5674C86.563 46.441 86.189 46.4604 85.854 46.6256C85.5266 46.7931 85.2795 47.0814 85.1124 47.4905L87.9123 48.3473C88.0281 47.9142 87.9999 47.5416 87.8276 47.2296C87.6654 46.9122 87.3816 46.6915 86.9761 46.5674ZM90.9471 46.7411L92.5995 47.2467L93.1591 52.0612L96.3173 48.3845L97.9467 48.8831L96.1558 54.7352L94.8936 54.3489L96.1191 50.3443L93.145 53.7887L92.1811 53.4937L91.6405 48.9862L90.4184 52.9794L89.1562 52.5932L90.9471 46.7411ZM104.688 50.7955C105.415 51.0179 105.944 51.4768 106.275 52.1721C106.613 52.8697 106.636 53.6967 106.344 54.6529C106.051 55.6091 105.565 56.2804 104.887 56.6666C104.216 57.0553 103.513 57.1372 102.778 56.9125C102.373 56.7884 102.039 56.6069 101.778 56.3679C101.526 56.1236 101.363 55.8645 101.288 55.5905L100.417 58.4362L99.109 58.0359L101.571 49.9921L102.833 50.3784L102.601 51.1357C103.151 50.6514 103.847 50.538 104.688 50.7955ZM102.915 55.6868C103.374 55.8273 103.794 55.7675 104.175 55.5076C104.565 55.2423 104.849 54.8228 105.024 54.249C105.197 53.683 105.196 53.1807 105.021 52.7422C104.853 52.306 104.54 52.0177 104.081 51.8772C103.614 51.7344 103.187 51.7918 102.798 52.0494C102.412 52.2994 102.131 52.7113 101.956 53.285L101.942 53.3309C101.766 53.9046 101.767 54.4069 101.945 54.8378C102.125 55.261 102.448 55.544 102.915 55.6868ZM110.905 59.2488L109.608 58.852L110.188 56.9587L109.304 56.6883L107.382 58.1708L105.913 57.7213L108.033 56.0859C107.722 55.8152 107.512 55.4914 107.401 55.1146C107.301 54.7324 107.311 54.3425 107.433 53.9447C107.609 53.3709 107.94 52.9578 108.427 52.7053C108.924 52.4476 109.513 52.4228 110.194 52.6312L112.696 53.3967L110.905 59.2488ZM109.205 53.7717C108.97 53.8838 108.811 54.0776 108.726 54.3529C108.642 54.6283 108.666 54.8783 108.798 55.1028C108.93 55.3272 109.153 55.4875 109.467 55.5835L110.511 55.903L111.073 54.0671L110.028 53.7475C109.715 53.6515 109.44 53.6596 109.205 53.7717ZM118.65 60.3642L117.85 62.9804L116.587 62.5941L117.037 61.1254L112.906 59.8612L112.457 61.33L111.194 60.9437L111.995 58.3275L112.465 58.4714C112.868 58.3855 113.272 57.8441 113.678 56.8471L114.777 54.0337L119.241 55.3997L117.801 60.1043L118.65 60.3642ZM114.903 57.2723C114.558 58.1539 114.212 58.6964 113.865 58.8998L116.493 59.704L117.582 56.1468L115.585 55.5358L114.903 57.2723ZM121.204 56.7785C121.913 56.3763 122.696 56.3063 123.552 56.5685C124.409 56.8307 125.015 57.3256 125.369 58.0532C125.732 58.7832 125.774 59.6033 125.495 60.5137C125.216 61.424 124.723 62.0803 124.014 62.4825C123.313 62.887 122.534 62.9582 121.677 62.696C120.82 62.4338 120.211 61.9377 119.849 61.2078C119.494 60.4802 119.456 59.6612 119.735 58.7509C120.013 57.8405 120.503 57.1831 121.204 56.7785ZM121.057 60.6616C121.233 61.1001 121.558 61.3919 122.032 61.5371C122.506 61.6822 122.935 61.621 123.318 61.3534C123.709 61.0881 123.991 60.6724 124.164 60.1063C124.337 59.5402 124.336 59.0379 124.161 58.5994C123.993 58.1633 123.672 57.8726 123.198 57.7275C122.723 57.5823 122.291 57.6424 121.9 57.9077C121.517 58.1753 121.239 58.5921 121.066 59.1582C120.893 59.7243 120.89 60.2254 121.057 60.6616ZM127.412 57.9002L129.064 58.4059L129.624 63.2204L132.782 59.5437L134.412 60.0423L132.621 65.8944L131.359 65.5081L132.584 61.5035L129.61 64.9479L128.646 64.6529L128.105 60.1454L126.883 64.1386L125.621 63.7524L127.412 57.9002ZM41.2373 50.4781L39.9292 50.0778L41.72 44.2256L43.0282 44.626L42.2837 47.0586L45.2772 45.3142L46.8263 45.7883L43.4626 47.7582L45.0698 51.6509L43.4863 51.1663L42.073 47.7471L41.2373 50.4781ZM47.5028 46.7734C48.2115 46.3712 48.9943 46.3012 49.8511 46.5634C50.7078 46.8255 51.3135 47.3205 51.6681 48.0481C52.0304 48.778 52.0722 49.5982 51.7936 50.5085C51.515 51.4188 51.0214 52.0751 50.3127 52.4773C49.6116 52.8819 48.8327 52.953 47.9759 52.6908C47.1191 52.4287 46.5096 51.9326 46.1473 51.2026C45.7927 50.475 45.7547 49.656 46.0333 48.7457C46.3119 47.8354 46.8017 47.1779 47.5028 46.7734ZM47.3561 50.6564C47.5314 51.0949 47.8563 51.3868 48.3305 51.5319C48.8048 51.677 49.2335 51.6158 49.6166 51.3482C50.0073 51.0829 50.2893 50.6672 50.4626 50.1012C50.6358 49.5351 50.6347 49.0328 50.4594 48.5943C50.2917 48.1581 49.9707 47.8674 49.4964 47.7223C49.0221 47.5772 48.5896 47.6372 48.1989 47.9025C47.8158 48.1701 47.5376 48.587 47.3644 49.153C47.1911 49.7191 47.1884 50.2203 47.3561 50.6564ZM57.3757 50.2716L54.6676 49.4429L53.2279 54.1475L51.9198 53.7472L53.7107 47.8951L57.7268 49.1241L57.3757 50.2716ZM62.9068 55.8546L62.1062 58.4708L60.844 58.0845L61.2935 56.6158L57.1626 55.3516L56.7131 56.8204L55.4509 56.4341L56.2515 53.8179L56.722 53.9618C57.1247 53.8759 57.5289 53.3345 57.9344 52.3375L59.0338 49.5241L63.4974 50.8901L62.0577 55.5947L62.9068 55.8546ZM59.1596 52.7627C58.8145 53.6443 58.4686 54.1868 58.1219 54.3903L60.7496 55.1944L61.8382 51.6372L59.8416 51.0262L59.1596 52.7627ZM68.0576 54.4441C68.1583 54.1152 68.1284 53.8299 67.9681 53.5884C67.8177 53.3416 67.5704 53.1656 67.2262 53.0602C66.6065 52.8706 66.1512 52.978 65.86 53.3826L64.6208 53.0033C64.8671 52.5265 65.2509 52.188 65.7723 51.9878C66.3037 51.7824 66.9137 51.785 67.6022 51.9956C68.3289 52.218 68.8491 52.5822 69.1628 53.0881C69.4841 53.5964 69.5418 54.1872 69.3358 54.8603L68.1559 58.7158L66.9395 58.3436L67.1432 57.6781C66.551 58.0825 65.8647 58.1653 65.0844 57.9265C64.503 57.7486 64.0676 57.4354 63.7781 56.9871C63.4986 56.5335 63.4443 56.0274 63.6152 55.469C63.7931 54.8876 64.1378 54.4995 64.6492 54.3046C65.1706 54.1044 65.7985 54.1167 66.5329 54.3414L67.9558 54.7769L68.0576 54.4441ZM65.6978 56.9471C66.1033 57.0712 66.4826 57.0618 66.8359 56.9189C67.1915 56.7684 67.4279 56.5019 67.5449 56.1194L67.6538 55.7637L66.3227 55.3564C65.9785 55.251 65.6808 55.2394 65.4298 55.3215C65.1888 55.3984 65.0285 55.5668 64.9489 55.8269C64.8693 56.087 64.899 56.3178 65.0381 56.5194C65.1796 56.7132 65.3995 56.8558 65.6978 56.9471ZM74.2069 56.7275L76.4904 57.4263C76.555 56.9692 76.4935 56.5823 76.306 56.2656C76.1185 55.9488 75.8297 55.7308 75.4395 55.6114C75.0647 55.4966 74.7432 55.4945 74.4752 55.6049C74.2095 55.7076 74.0071 55.8632 73.868 56.0716L72.6173 55.6889C72.8577 55.1768 73.2594 54.7936 73.8225 54.5392C74.3855 54.2849 75.0381 54.2712 75.7801 54.4983C76.6293 54.7582 77.2235 55.2496 77.5628 55.9725C77.9044 56.6878 77.9348 57.5044 77.6539 58.4224C77.3729 59.3404 76.8858 60.0028 76.1923 60.4097C75.5089 60.8113 74.7388 60.881 73.882 60.6188C73.1476 60.394 72.6106 60.0164 72.271 59.4858C71.9315 58.9552 71.8188 58.3936 71.9332 57.8012L73.1725 58.1804C73.1564 58.4516 73.2274 58.7117 73.3854 58.9609C73.5534 59.2047 73.8363 59.3875 74.2341 59.5092C74.6548 59.638 75.0362 59.6083 75.3783 59.4202C75.7279 59.2344 75.9983 58.9113 76.1893 58.4511L73.8944 57.7488L74.2069 56.7275ZM78.5349 56.7469L78.886 55.5994L83.9349 57.1445L83.5837 58.2919L81.7133 57.7196L80.2736 62.4242L78.9655 62.0239L80.4052 57.3192L78.5349 56.7469ZM84.8476 58.2018C85.5563 57.7996 86.3391 57.7296 87.1959 57.9918C88.0526 58.254 88.6583 58.7489 89.0129 59.4765C89.3752 60.2065 89.417 61.0266 89.1384 61.937C88.8598 62.8473 88.3662 63.5036 87.6575 63.9058C86.9564 64.3103 86.1775 64.3815 85.3207 64.1193C84.4639 63.8571 83.8544 63.361 83.4921 62.6311C83.1375 61.9035 83.0995 61.0845 83.3781 60.1742C83.6567 59.2638 84.1465 58.6064 84.8476 58.2018ZM84.7009 62.0849C84.8762 62.5234 85.2011 62.8152 85.6754 62.9604C86.1496 63.1055 86.5783 63.0443 86.9614 62.7767C87.3521 62.5114 87.6341 62.0957 87.8074 61.5296C87.9806 60.9635 87.9795 60.4612 87.8042 60.0227C87.6365 59.5866 87.3155 59.2959 86.8412 59.1508C86.3669 59.0056 85.9344 59.0657 85.5437 59.331C85.1606 59.5986 84.8824 60.0154 84.7092 60.5815C84.5359 61.1476 84.5332 61.6487 84.7009 62.0849ZM92.8421 66.2705L91.534 65.8701L93.3249 60.018L94.633 60.4184L93.9447 62.6674L96.4577 63.4364L97.1459 61.1874L98.4541 61.5877L96.6632 67.4398L95.3551 67.0395L96.103 64.5954L93.5901 63.8263L92.8421 66.2705ZM103.617 63.1678L105.029 63.5997L99.4115 70.6778L98.0116 70.2494L99.6204 68.2318L99.1306 61.7947L100.542 62.2267L100.798 66.8855L103.617 63.1678ZM109.919 65.0962L109.16 67.5748L111.961 65.7213L113.465 66.1813L110.35 68.24L111.708 72.0439L110.171 71.5734L108.971 68.1944L108.128 70.9483L106.843 70.555L107.686 67.8011L104.8 69.93L103.274 69.463L106.507 67.1015L105.088 63.6179L106.591 64.0779L107.875 67.1815L108.634 64.7029L109.919 65.0962ZM113.725 72.6611L112.417 72.2608L114.207 66.4087L115.516 66.809L114.827 69.058L117.34 69.827L118.029 67.578L119.337 67.9783L117.546 73.8304L116.238 73.4301L116.986 70.986L114.473 70.217L113.725 72.6611ZM120.932 69.2444C121.64 68.8422 122.423 68.7722 123.28 69.0344C124.137 69.2966 124.742 69.7915 125.097 70.5191C125.459 71.2491 125.501 72.0692 125.222 72.9796C124.944 73.8899 124.45 74.5462 123.741 74.9484C123.04 75.3529 122.261 75.4241 121.405 75.1619C120.548 74.8997 119.938 74.4036 119.576 73.6737C119.221 72.9461 119.183 72.1271 119.462 71.2168C119.741 70.3064 120.23 69.649 120.932 69.2444ZM120.785 73.1275C120.96 73.566 121.285 73.8578 121.759 74.003C122.234 74.1481 122.662 74.0869 123.045 73.8193C123.436 73.554 123.718 73.1383 123.891 72.5722C124.065 72.0061 124.063 71.5038 123.888 71.0653C123.72 70.6292 123.399 70.3385 122.925 70.1934C122.451 70.0482 122.018 70.1083 121.628 70.3736C121.245 70.6412 120.966 71.058 120.793 71.6241C120.62 72.1902 120.617 72.6913 120.785 73.1275Z" fill="white"/>
<defs>
<linearGradient id="paint0_linear_163_801" x1="110.088" y1="16.1413" x2="79.4382" y2="118.127" gradientUnits="userSpaceOnUse">
<stop stop-color="#66BEBE"/>
<stop offset="1" stop-color="#65DEA3"/>
</linearGradient>
</defs>
</svg>
