<svg width="180" height="100" viewBox="0 0 180 100" fill="none" xmlns="http://www.w3.org/2000/svg">
<path fill-rule="evenodd" clip-rule="evenodd" d="M36.931 29.6183C26.4757 33.1811 20.8882 44.5451 24.451 55.0004L32.6832 79.1583C36.246 89.6136 47.6099 95.2011 58.0653 91.6383L91.4416 80.2648C91.5049 80.3019 91.5701 80.337 91.637 80.3699L99.6046 84.2874C101.091 85.0185 102.889 84.4058 103.62 82.919L107.538 74.9513C107.571 74.8844 107.601 74.8169 107.629 74.7489L140.723 63.4715C151.178 59.9087 156.766 48.5447 153.203 38.0894L144.971 13.9315C141.408 3.4762 130.044 -2.11129 119.589 1.45151L36.931 29.6183Z" fill="url(#paint0_linear_163_806)"/>
<path d="M40.8919 54.6733L39.5403 55.1339L36.8153 47.1374L38.167 46.6768L39.2856 49.9595L43.0794 48.6667L41.9608 45.384L43.3125 44.9234L46.0374 52.9199L44.6857 53.3805L43.4974 49.8934L39.7037 51.1862L40.8919 54.6733ZM51.7363 48.1635L47.6585 49.553L47.6663 49.5758C47.8185 50.0225 48.0889 50.3446 48.4772 50.5418C48.8656 50.7391 49.2908 50.759 49.7527 50.6016C50.0707 50.4932 50.3101 50.3399 50.4706 50.1414C50.6362 49.9329 50.7197 49.7439 50.7211 49.5743L51.9933 49.1408C52.0521 49.611 51.9288 50.0925 51.6234 50.5853C51.3256 51.0756 50.8171 51.4433 50.0977 51.6884C49.2344 51.9826 48.45 51.9499 47.7442 51.5903C47.036 51.2231 46.5231 50.5738 46.2057 49.6424C45.8883 48.711 45.8942 47.885 46.2233 47.1643C46.5499 46.436 47.1259 45.9313 47.9513 45.65C48.7464 45.3791 49.4715 45.4236 50.1266 45.7835C50.7817 46.1434 51.2576 46.7588 51.5544 47.6296L51.7363 48.1635ZM48.3076 46.733C47.8987 46.8723 47.6068 47.107 47.4319 47.437C47.2646 47.7645 47.233 48.1429 47.337 48.5723L50.1085 47.6279C49.9489 47.209 49.7079 46.9235 49.3856 46.7713C49.0683 46.609 48.709 46.5962 48.3076 46.733ZM53.8751 43.7835L55.5107 43.2262L58.783 46.8018L59.1909 41.9721L60.8039 41.4224L62.7779 47.2153L61.5284 47.6411L60.1776 43.677L59.7828 48.2106L58.8287 48.5357L55.7516 45.1978L57.0986 49.1507L55.8491 49.5764L53.8751 43.7835ZM62.839 41.5149C63.1781 40.774 63.7718 40.259 64.6199 39.9699C65.468 39.6809 66.2488 39.7276 66.9622 40.1099C67.6832 40.4896 68.1973 41.1301 68.5043 42.0312C68.8114 42.9323 68.7954 43.7533 68.4563 44.4943C68.1247 45.2327 67.5349 45.7464 66.6868 46.0355C65.8387 46.3245 65.0541 46.2791 64.3331 45.8994C63.6196 45.5171 63.1094 44.8753 62.8023 43.9742C62.4952 43.0731 62.5075 42.2533 62.839 41.5149ZM64.9933 44.7489C65.3922 45.0018 65.8264 45.0482 66.2958 44.8882C66.7653 44.7282 67.077 44.4276 67.2309 43.9864C67.3924 43.5426 67.3777 43.0405 67.1867 42.4802C66.9958 41.9198 66.7009 41.5132 66.302 41.2603C65.9107 41.0049 65.4803 40.9572 65.0108 41.1172C64.5413 41.2772 64.2258 41.5791 64.0643 42.0229C63.9104 42.4641 63.929 42.9649 64.1199 43.5252C64.3109 44.0856 64.602 44.4935 64.9933 44.7489ZM72.4865 37.4414L73.3225 39.8949L74.5083 36.7525L75.9963 36.2454L74.6762 39.7379L78.0044 42.0267L76.4823 42.5454L73.5315 40.5083L74.4605 43.2343L73.1883 43.6678L72.2594 40.9418L71.1665 44.3568L69.6558 44.8716L70.8941 41.0647L67.7045 39.071L69.1925 38.5639L72.0504 40.3284L71.2143 37.8749L72.4865 37.4414ZM82.6464 37.6304L78.5686 39.02L78.5764 39.0427C78.7286 39.4895 78.999 39.8115 79.3873 40.0088C79.7757 40.206 80.2009 40.226 80.6628 40.0686C80.9808 39.9602 81.2202 39.8068 81.3807 39.6084C81.5463 39.3998 81.6298 39.2108 81.6312 39.0413L82.9034 38.6078C82.9622 39.0779 82.8389 39.5594 82.5335 40.0523C82.2357 40.5425 81.7272 40.9102 81.0078 41.1554C80.1445 41.4495 79.3601 41.4168 78.6543 41.0572C77.9461 40.6901 77.4332 40.0408 77.1158 39.1094C76.7984 38.178 76.8043 37.3519 77.1334 36.6312C77.46 35.903 78.036 35.3982 78.8614 35.117C79.6565 34.846 80.3816 34.8905 81.0367 35.2504C81.6918 35.6104 82.1677 36.2257 82.4645 37.0966L82.6464 37.6304ZM79.2177 36.1999C78.8088 36.3392 78.5169 36.5739 78.342 36.904C78.1747 37.2315 78.1431 37.6099 78.2471 38.0393L81.0186 37.0948C80.859 36.6759 80.618 36.3904 80.2957 36.2382C79.9784 36.0759 79.6191 36.0631 79.2177 36.1999ZM87.0368 32.4832L88.6237 37.1402L90.532 36.49L88.945 31.8329L90.2399 31.3917L92.2139 37.1846L84.5128 39.8089L82.5388 34.016L83.8336 33.5747L85.4206 38.2317L87.3288 37.5815L85.7419 32.9244L87.0368 32.4832ZM92.8684 30.496L93.4683 32.2566L94.6269 31.8618C95.2705 31.6424 95.85 31.6563 96.3652 31.9033C96.8778 32.1428 97.2335 32.554 97.4322 33.1371C97.6335 33.7277 97.603 34.2833 97.3408 34.8036C97.0837 35.3139 96.637 35.6773 96.001 35.8941L93.5589 36.7263L91.5848 30.9334L92.8684 30.496ZM94.8394 33.0064L93.8399 33.347L94.4747 35.2098L95.4742 34.8692C95.7847 34.7634 95.996 34.59 96.1083 34.3489C96.2281 34.1052 96.2415 33.8471 96.1487 33.5745C96.0558 33.3019 95.8901 33.1132 95.6516 33.0086C95.4206 32.9013 95.1499 32.9006 94.8394 33.0064ZM41.9949 61.2955C42.334 60.5545 42.9276 60.0395 43.7757 59.7505C44.6238 59.4615 45.4046 59.5081 46.1181 59.8904C46.8391 60.2702 47.3531 60.9106 47.6602 61.8117C47.9673 62.7128 47.9512 63.5339 47.6121 64.2749C47.2806 65.0133 46.6907 65.527 45.8426 65.816C44.9945 66.105 44.21 66.0596 43.4889 65.6799C42.7755 65.2976 42.2652 64.6559 41.9582 63.7548C41.6511 62.8536 41.6633 62.0339 41.9949 61.2955ZM44.1491 64.5295C44.548 64.7823 44.9822 64.8288 45.4517 64.6688C45.9212 64.5088 46.2329 64.2082 46.3868 63.767C46.5483 63.3231 46.5335 62.8211 46.3426 62.2607C46.1516 61.7003 45.8567 61.2937 45.4578 61.0409C45.0665 60.7854 44.6361 60.7377 44.1667 60.8977C43.6972 61.0577 43.3817 61.3596 43.2202 61.8034C43.0663 62.2446 43.0848 62.7454 43.2758 63.3058C43.4667 63.8661 43.7578 64.274 44.1491 64.5295ZM47.6845 58.5707L52.7277 56.8521L54.7017 62.645L53.4068 63.0863L51.8199 58.4292L49.3664 59.2653L50.9534 63.9223L49.6585 64.3636L47.6845 58.5707ZM57.066 55.2216C57.7854 54.9765 58.4828 55.0389 59.1582 55.4088C59.8412 55.7761 60.344 56.4331 60.6665 57.3796C60.9891 58.3262 60.9883 59.1547 60.6641 59.8652C60.3476 60.5732 59.8258 61.051 59.0989 61.2987C58.6975 61.4355 58.3209 61.4836 57.969 61.4429C57.622 61.3921 57.3379 61.2776 57.1166 61.0995L58.0765 63.9164L56.7817 64.3577L54.0684 56.3953L55.3178 55.9695L55.5733 56.7192C55.7355 56.0046 56.2331 55.5055 57.066 55.2216ZM58.4921 60.2251C58.9465 60.0702 59.2519 59.776 59.4084 59.3423C59.5698 58.8985 59.5538 58.3927 59.3603 57.8247C59.1693 57.2644 58.8744 56.8578 58.4755 56.6049C58.0842 56.3495 57.6614 56.2992 57.2071 56.454C56.7451 56.6114 56.4322 56.9082 56.2681 57.3445C56.1015 57.7731 56.1149 58.2714 56.3084 58.8393L56.3239 58.8848C56.5174 59.4527 56.8124 59.8593 57.2087 60.1046C57.6024 60.3423 58.0302 60.3825 58.4921 60.2251ZM66.8772 55.6816L62.7995 57.0711L62.8072 57.0939C62.9595 57.5406 63.2298 57.8627 63.6182 58.0599C64.0066 58.2572 64.4317 58.2771 64.8936 58.1197C65.2117 58.0113 65.451 57.8579 65.6116 57.6595C65.7772 57.451 65.8607 57.262 65.8621 57.0924L67.1342 56.6589C67.193 57.1291 67.0697 57.6106 66.7644 58.1034C66.4666 58.5937 65.958 58.9614 65.2386 59.2065C64.3754 59.5007 63.5909 59.468 62.8852 59.1084C62.1769 58.7412 61.6641 58.0919 61.3467 57.1605C61.0293 56.2291 61.0352 55.4031 61.3643 54.6824C61.6908 53.9541 62.2668 53.4494 63.0922 53.1681C63.8873 52.8972 64.6124 52.9417 65.2675 53.3016C65.9226 53.6615 66.3986 54.2769 66.6953 55.1477L66.8772 55.6816ZM63.4486 54.2511C63.0397 54.3904 62.7478 54.6251 62.5729 54.9551C62.4055 55.2826 62.3739 55.661 62.478 56.0904L65.2495 55.146C65.0898 54.7271 64.8489 54.4416 64.5265 54.2894C64.2092 54.1271 63.8499 54.1143 63.4486 54.2511ZM74.2979 54.6996L75.1804 57.2893L73.931 57.7151L73.4355 56.2612L69.3464 57.6546L69.8419 59.1085L68.5924 59.5343L67.7099 56.9445L68.1756 56.7858C68.4519 56.4804 68.4625 55.8048 68.2076 54.7592L67.4519 51.8346L71.8704 50.3289L73.4574 54.986L74.2979 54.6996ZM69.4498 54.3866C69.6862 55.3033 69.7234 55.9457 69.5614 56.3136L72.1625 55.4272L70.9626 51.9061L68.9862 52.5795L69.4498 54.3866ZM79.7671 51.2892L75.6893 52.6787L75.6971 52.7015C75.8493 53.1482 76.1196 53.4703 76.508 53.6675C76.8964 53.8648 77.3215 53.8847 77.7835 53.7273C78.1015 53.6189 78.3408 53.4656 78.5014 53.2672C78.667 53.0586 78.7505 52.8696 78.7519 52.7001L80.024 52.2665C80.0828 52.7367 79.9596 53.2182 79.6542 53.711C79.3564 54.2013 78.8478 54.569 78.1285 54.8141C77.2652 55.1083 76.4807 55.0756 75.775 54.716C75.0667 54.3488 74.5539 53.6995 74.2365 52.7681C73.9191 51.8367 73.925 51.0107 74.2541 50.29C74.5807 49.5617 75.1566 49.057 75.982 48.7757C76.7771 48.5048 77.5022 48.5493 78.1574 48.9092C78.8125 49.2691 79.2884 49.8845 79.5851 50.7553L79.7671 51.2892ZM76.3384 49.8587C75.9295 49.998 75.6376 50.2327 75.4627 50.5628C75.2954 50.8902 75.2637 51.2687 75.3678 51.698L78.1393 50.7536C77.9797 50.3347 77.7387 50.0492 77.4164 49.897C77.099 49.7347 76.7397 49.7219 76.3384 49.8587ZM80.9834 53.7145L80.5964 52.5786L80.7781 52.5167C81.0962 52.4083 81.2899 52.2451 81.3593 52.0271C81.4336 51.7989 81.4136 51.455 81.2992 50.9953L80.3988 47.4228L84.6583 45.9713L86.6323 51.7642L85.3374 52.2054L83.7505 47.5484L81.9217 48.1716L82.5569 50.6681C82.7673 51.4839 82.7741 52.1239 82.5773 52.5882C82.3856 53.0423 81.9716 53.3777 81.3356 53.5945L80.9834 53.7145ZM91.1555 43.7573L93.1295 49.5502L91.8574 49.9837L90.5452 46.1331L89.2335 50.8778L87.9841 51.3036L86.01 45.5107L87.2822 45.0772L88.5982 48.9391L89.9061 44.183L91.1555 43.7573ZM92.4265 44.5919L92.0394 43.4561L97.0372 41.753L97.4243 42.8889L95.5728 43.5198L97.1598 48.1768L95.8649 48.618L94.278 43.961L92.4265 44.5919ZM99.2073 41.0135L99.8072 42.7741L100.966 42.3793C101.609 42.16 102.189 42.1738 102.704 42.4208C103.217 42.6603 103.572 43.0715 103.771 43.6546C103.972 44.2453 103.942 44.8008 103.68 45.3212C103.423 45.8314 102.976 46.1949 102.34 46.4116L99.8977 47.2438L97.9237 41.4509L99.2073 41.0135ZM101.178 43.5239L100.179 43.8645L100.814 45.7273L101.813 45.3867C102.124 45.2809 102.335 45.1075 102.447 44.8664C102.567 44.6227 102.58 44.3646 102.488 44.092C102.395 43.8194 102.229 43.6308 101.99 43.5261C101.76 43.4188 101.489 43.4181 101.178 43.5239ZM109.828 42.7316C110.207 42.6026 110.466 42.4086 110.606 42.1496C110.753 41.888 110.816 41.6131 110.794 41.3248L112.055 40.8952C112.188 41.5091 112.093 42.0992 111.771 42.6655C111.448 43.2318 110.927 43.6375 110.208 43.8827C109.367 44.1691 108.594 44.1199 107.888 43.735C107.18 43.3425 106.673 42.6995 106.369 41.806C106.067 40.92 106.073 40.1066 106.387 39.3658C106.708 38.6224 107.293 38.1062 108.141 37.8172C108.875 37.5669 109.537 37.5738 110.126 37.8381C110.712 38.0947 111.139 38.4941 111.409 39.0363L110.148 39.4659C109.977 39.2368 109.754 39.0675 109.48 38.9581C109.211 38.8384 108.895 38.8405 108.532 38.9644C108.077 39.1192 107.773 39.4172 107.619 39.8585C107.473 40.2971 107.495 40.7966 107.686 41.357C107.88 41.9249 108.172 42.3366 108.564 42.592C108.952 42.8399 109.374 42.8864 109.828 42.7316ZM113.692 42.5433L111.718 36.7504L114.319 35.864C114.94 35.6524 115.461 35.6312 115.882 35.8004C116.303 35.9697 116.588 36.2739 116.738 36.7131C116.846 37.0311 116.857 37.3232 116.771 37.5895C116.689 37.8455 116.55 38.0577 116.354 38.226C116.677 38.2086 116.979 38.2876 117.258 38.4628C117.545 38.6355 117.752 38.9073 117.878 39.2783C118.044 39.763 117.997 40.2225 117.74 40.6568C117.487 41.081 117.043 41.4014 116.407 41.6182L113.692 42.5433ZM115.404 39.1962L114.12 39.6336L114.623 41.1102L115.907 40.6728C116.195 40.5748 116.392 40.4356 116.5 40.2552C116.612 40.0647 116.629 39.8521 116.549 39.6174C116.384 39.1327 116.002 38.9923 115.404 39.1962ZM114.501 36.9177L113.331 37.3164L113.787 38.6567L114.957 38.2581C115.207 38.1729 115.38 38.0465 115.475 37.8789C115.577 37.7087 115.592 37.5176 115.52 37.3056C115.37 36.8664 115.031 36.7371 114.501 36.9177ZM118.175 35.336C118.514 34.5951 119.108 34.0801 119.956 33.7911C120.804 33.5021 121.585 33.5487 122.298 33.931C123.019 34.3107 123.533 34.9512 123.84 35.8523C124.147 36.7534 124.131 37.5745 123.792 38.3154C123.461 39.0539 122.871 39.5676 122.023 39.8566C121.174 40.1456 120.39 40.1002 119.669 39.7205C118.955 39.3382 118.445 38.6965 118.138 37.7953C117.831 36.8942 117.843 36.0745 118.175 35.336ZM120.329 38.57C120.728 38.8229 121.162 38.8693 121.632 38.7093C122.101 38.5494 122.413 38.2488 122.567 37.8075C122.728 37.3637 122.714 36.8616 122.523 36.3013C122.332 35.7409 122.037 35.3343 121.638 35.0815C121.247 34.826 120.816 34.7783 120.347 34.9383C119.877 35.0983 119.562 35.4002 119.4 35.844C119.246 36.2852 119.265 36.786 119.456 37.3463C119.647 37.9067 119.938 38.3146 120.329 38.57ZM129.01 30.8578L130.984 36.6507L129.712 37.0842L128.4 33.2337L127.088 37.9784L125.838 38.4041L123.864 32.6112L125.137 32.1777L126.453 36.0397L127.76 31.2836L129.01 30.8578ZM124.674 29.4068C124.767 29.6794 124.92 29.8808 125.134 30.0109C125.347 30.141 125.594 30.1584 125.874 30.0629C126.154 29.9674 126.339 29.803 126.428 29.5697C126.518 29.3363 126.516 29.0833 126.423 28.8107L127.468 28.4546C127.647 29.0277 127.62 29.544 127.388 30.0034C127.163 30.4603 126.763 30.7868 126.187 30.9829C125.612 31.179 125.092 31.1661 124.627 30.944C124.171 30.7194 123.838 30.3257 123.629 29.7629L124.674 29.4068ZM49.5337 71.8858L46.8531 72.7993L48.4401 77.4563L47.1452 77.8976L45.1712 72.1047L49.1467 70.75L49.5337 71.8858ZM53.0664 69.2622C53.7857 69.017 54.4831 69.0794 55.1585 69.4493C55.8415 69.8167 56.3443 70.4736 56.6669 71.4202C56.9894 72.3667 56.9886 73.1952 56.6645 73.9058C56.3479 74.6137 55.8261 75.0916 55.0992 75.3393C54.6978 75.476 54.3212 75.5241 53.9693 75.4834C53.6224 75.4326 53.3382 75.3181 53.117 75.14L54.0769 77.9569L52.782 78.3982L50.0687 70.4358L51.3181 70.01L51.5736 70.7597C51.7358 70.0452 52.2334 69.546 53.0664 69.2622ZM54.4924 74.2656C54.9468 74.1108 55.2522 73.8165 55.4087 73.3829C55.5702 72.9391 55.5541 72.4332 55.3606 71.8653C55.1697 71.3049 54.8747 70.8983 54.4759 70.6455C54.0846 70.39 53.6617 70.3397 53.2074 70.4945C52.7455 70.6519 52.4325 70.9488 52.2684 71.385C52.1018 71.8137 52.1152 72.312 52.3088 72.8799L52.3242 72.9253C52.5178 73.4933 52.8127 73.8999 53.209 74.1451C53.6027 74.3829 54.0305 74.423 54.4924 74.2656ZM62.8776 69.7221L58.7998 71.1117L58.8076 71.1344C58.9598 71.5812 59.2301 71.9032 59.6185 72.1005C60.0069 72.2977 60.4321 72.3177 60.894 72.1603C61.212 72.0519 61.4513 71.8985 61.6119 71.7001C61.7775 71.4915 61.861 71.3025 61.8624 71.133L63.1346 70.6995C63.1933 71.1696 63.0701 71.6511 62.7647 72.144C62.4669 72.6342 61.9583 73.0019 61.239 73.2471C60.3757 73.5412 59.5912 73.5085 58.8855 73.1489C58.1772 72.7818 57.6644 72.1325 57.347 71.2011C57.0296 70.2697 57.0355 69.4436 57.3646 68.7229C57.6912 67.9947 58.2672 67.4899 59.0925 67.2087C59.8876 66.9377 60.6128 66.9822 61.2679 67.3421C61.923 67.7021 62.3989 68.3174 62.6957 69.1883L62.8776 69.7221ZM59.4489 68.2916C59.04 68.4309 58.7481 68.6656 58.5732 68.9957C58.4059 69.3232 58.3742 69.7016 58.4783 70.131L61.2498 69.1865C61.0902 68.7676 60.8492 68.4821 60.5269 68.3299C60.2096 68.1676 59.8502 68.1548 59.4489 68.2916ZM67.9154 64.3543L69.8894 70.1472L68.6172 70.5807L67.3051 66.7301L65.9934 71.4748L64.7439 71.9006L62.7699 66.1077L64.0421 65.6741L65.3581 69.5361L66.6659 64.78L67.9154 64.3543ZM63.5796 62.9032C63.6725 63.1758 63.8256 63.3772 64.039 63.5073C64.2524 63.6375 64.4992 63.6548 64.7794 63.5593C65.0595 63.4638 65.2444 63.2994 65.3339 63.0661C65.4234 62.8327 65.4217 62.5798 65.3288 62.3071L66.3738 61.9511C66.5522 62.5241 66.5253 63.0404 66.2931 63.4999C66.0685 63.9568 65.6684 64.2832 65.0929 64.4794C64.5174 64.6755 63.9974 64.6625 63.533 64.4404C63.0761 64.2158 62.7433 63.8221 62.5346 63.2593L63.5796 62.9032ZM76.8153 66.5193L77.6978 69.1091L76.4483 69.5349L75.9529 68.081L71.8638 69.4744L72.3592 70.9283L71.1098 71.354L70.2273 68.7643L70.693 68.6056C70.9692 68.3002 70.9799 67.6246 70.725 66.5789L69.9693 63.6544L74.3878 62.1487L75.9747 66.8057L76.8153 66.5193ZM71.9672 66.2063C72.2035 67.1231 72.2407 67.7655 72.0787 68.1334L74.6798 67.247L73.4799 63.7258L71.5035 64.3993L71.9672 66.2063ZM79.5289 60.232C79.4257 59.9291 79.2282 59.7217 78.9365 59.6098C78.6524 59.4953 78.3286 59.5 77.9651 59.6239C77.223 59.8768 76.8798 60.3825 76.9355 61.1411L75.6747 61.5707C75.5311 60.9013 75.6268 60.277 75.962 59.698C76.2971 59.1189 76.8395 58.7017 77.5892 58.4462C78.354 58.1856 79.0282 58.1798 79.6117 58.4289C80.2028 58.6754 80.6029 59.1054 80.8119 59.7187C80.8893 59.9459 80.9313 60.1682 80.9378 60.3858C80.9443 60.6033 80.9366 60.7792 80.9147 60.9134C80.9004 61.0451 80.8383 61.2099 80.7283 61.408C80.6233 61.5959 80.5482 61.7229 80.5031 61.789C80.4555 61.8475 80.3589 61.9733 80.2135 62.1666C80.1959 62.1895 80.1583 62.2403 80.1006 62.3191C80.043 62.3979 80.0054 62.4488 79.9878 62.4717C79.9703 62.4946 79.9364 62.5441 79.8863 62.6203C79.8412 62.6864 79.8112 62.7347 79.7962 62.7652C79.7862 62.7855 79.7676 62.8299 79.7402 62.8983C79.7102 62.9593 79.6929 63.0074 79.688 63.0429C79.6832 63.0783 79.6747 63.1277 79.6625 63.1911C79.6502 63.2544 79.6456 63.3151 79.6485 63.3733C79.6564 63.4213 79.6669 63.4769 79.68 63.5401C79.693 63.6032 79.7112 63.6689 79.7344 63.737L79.8118 63.9642L78.5851 64.3822L78.469 64.0415C78.358 63.7159 78.3155 63.4176 78.3416 63.1468C78.3726 62.8657 78.4356 62.6414 78.5306 62.4738C78.6231 62.2986 78.7809 62.0674 79.0041 61.78C79.1721 61.5537 79.2924 61.3859 79.3651 61.2767C79.4427 61.1572 79.5036 61.0013 79.5479 60.8087C79.5997 60.6135 79.5934 60.4213 79.5289 60.232ZM79.0447 65.5821C79.1571 65.3663 79.3307 65.2184 79.5654 65.1385C79.8002 65.0585 80.0241 65.0709 80.2373 65.1757C80.4581 65.278 80.6085 65.4465 80.6885 65.6812C80.7685 65.916 80.7536 66.145 80.6438 66.3684C80.5389 66.5816 80.3691 66.7282 80.1344 66.8082C79.8996 66.8882 79.6719 66.877 79.4511 66.7748C79.2353 66.6624 79.0874 66.4888 79.0074 66.2541C78.9274 66.0193 78.9399 65.7953 79.0447 65.5821Z" fill="#0F1414"/>
<defs>
<linearGradient id="paint0_linear_163_806" x1="76.2798" y1="1.96156" x2="99.6273" y2="70.4765" gradientUnits="userSpaceOnUse">
<stop stop-color="#F9F9F9"/>
<stop offset="1" stop-color="#F4F4F4"/>
</linearGradient>
</defs>
</svg>
