<svg width="180" height="100" viewBox="0 0 180 100" fill="none" xmlns="http://www.w3.org/2000/svg">
<g clip-path="url(#clip0_201_840)">
<path fill-rule="evenodd" clip-rule="evenodd" d="M36.931 30.6183C26.4757 34.1811 20.8882 45.5451 24.451 56.0004L32.6832 80.1583C36.246 90.6136 47.6099 96.2011 58.0653 92.6383L114.055 73.5589L119.605 76.2874C121.091 77.0185 122.889 76.4058 123.62 74.9189L126.349 69.3696L140.723 64.4715C151.178 60.9087 156.766 49.5447 153.203 39.0894L144.971 14.9315C141.408 4.4762 130.044 -1.11129 119.589 2.45151L36.931 30.6183Z" fill="url(#paint0_linear_201_840)"/>
<path d="M35.8153 42.1374L37.4851 41.5684L42.1502 46.888L42.5851 39.8305L44.2321 39.2693L46.957 47.2658L45.6735 47.7031L43.7033 41.9216L43.2879 48.478L42.1975 48.8496L37.865 43.9111L39.8351 49.6926L38.5403 50.1339L35.8153 42.1374ZM47.1687 41.5141C47.5078 40.7731 48.1014 40.2581 48.9495 39.9691C49.7976 39.6801 50.5784 39.7267 51.2918 40.109C52.0129 40.4888 52.5269 41.1292 52.834 42.0303C53.141 42.9314 53.125 43.7525 52.7859 44.4935C52.4543 45.2319 51.8645 45.7456 51.0164 46.0346C50.1683 46.3236 49.3837 46.2782 48.6627 45.8985C47.9493 45.5162 47.439 44.8745 47.1319 43.9734C46.8249 43.0723 46.8371 42.2525 47.1687 41.5141ZM49.3229 44.7481C49.7218 45.0009 50.156 45.0474 50.6255 44.8874C51.095 44.7274 51.4067 44.4268 51.5606 43.9856C51.7221 43.5418 51.7073 43.0397 51.5164 42.4793C51.3254 41.919 51.0305 41.5123 50.6316 41.2595C50.2403 41.0041 49.8099 40.9563 49.3404 41.1163C48.8709 41.2763 48.5555 41.5782 48.394 42.022C48.2401 42.4632 48.2586 42.964 48.4495 43.5244C48.6405 44.0847 48.9316 44.4926 49.3229 44.7481ZM56.8161 37.4406L57.6521 39.894L58.8379 36.7516L60.3259 36.2445L59.0058 39.737L62.334 42.0258L60.8119 42.5445L57.8612 40.5074L58.7901 43.2335L57.5179 43.667L56.589 40.9409L55.4961 44.3559L53.9854 44.8707L55.2237 41.0639L52.0341 39.0701L53.5221 38.563L56.38 40.3275L55.5439 37.8741L56.8161 37.4406ZM64.3302 41.3456L63.0353 41.7869L61.0613 35.994L62.3562 35.5527L63.1148 37.779L65.6024 36.9313L64.8437 34.705L66.1386 34.2638L68.1126 40.0567L66.8177 40.4979L65.9933 38.0786L63.5057 38.9262L64.3302 41.3456ZM68.1728 34.3566C68.5119 33.6156 69.1055 33.1006 69.9536 32.8116C70.8017 32.5226 71.5825 32.5693 72.296 32.9516C73.017 33.3313 73.531 33.9717 73.8381 34.8729C74.1452 35.774 74.1291 36.595 73.79 37.336C73.4585 38.0744 72.8687 38.5881 72.0205 38.8771C71.1724 39.1661 70.3879 39.1208 69.6668 38.741C68.9534 38.3587 68.4431 37.717 68.1361 36.8159C67.829 35.9148 67.8412 35.095 68.1728 34.3566ZM70.3271 37.5906C70.7259 37.8435 71.1601 37.8899 71.6296 37.7299C72.0991 37.5699 72.4108 37.2693 72.5647 36.8281C72.7262 36.3843 72.7115 35.8822 72.5205 35.3218C72.3296 34.7615 72.0346 34.3549 71.6358 34.102C71.2445 33.8466 70.8141 33.7989 70.3446 33.9588C69.8751 34.1188 69.5596 34.4207 69.3981 34.8645C69.2442 35.3058 69.2627 35.8066 69.4537 36.3669C69.6446 36.9273 69.9358 37.3352 70.3271 37.5906ZM40.3006 55.7461L45.3438 54.0275L47.3178 59.8204L46.0229 60.2617L44.436 55.6046L41.9825 56.4407L43.5694 61.0977L42.2746 61.539L40.3006 55.7461ZM49.6821 52.397C50.4015 52.1519 51.0989 52.2143 51.7743 52.5842C52.4573 52.9515 52.9601 53.6085 53.2826 54.555C53.6052 55.5016 53.6044 56.3301 53.2802 57.0406C52.9637 57.7486 52.4419 58.2264 51.715 58.4742C51.3136 58.6109 50.937 58.659 50.5851 58.6183C50.2381 58.5675 49.954 58.453 49.7327 58.2749L50.6926 61.0918L49.3978 61.5331L46.6845 53.5707L47.9339 53.1449L48.1894 53.8946C48.3516 53.1801 48.8492 52.6809 49.6821 52.397ZM51.1082 57.4005C51.5625 57.2456 51.868 56.9514 52.0245 56.5178C52.1859 56.0739 52.1699 55.5681 51.9764 55.0001C51.7854 54.4398 51.4905 54.0332 51.0916 53.7803C50.7003 53.5249 50.2775 53.4746 49.8232 53.6294C49.3612 53.7868 49.0483 54.0836 48.8842 54.5199C48.7176 54.9485 48.731 55.4468 48.9245 56.0148L48.94 56.0602C49.1335 56.6281 49.4285 57.0347 49.8248 57.28C50.2185 57.5177 50.6463 57.5579 51.1082 57.4005ZM58.4468 49.5625L60.4208 55.3554L59.1486 55.7889L57.8365 51.9383L56.5248 56.683L55.2753 57.1088L53.3013 51.3159L54.5735 50.8824L55.8895 54.7443L57.1973 49.9883L58.4468 49.5625ZM65.3257 53.684L63.2814 52.1493L62.6223 54.6052L61.1798 55.0968L62.2032 51.5152L59.2285 49.2961L60.7164 48.7891L62.761 50.3617L63.3971 47.8756L64.8283 47.3879L63.8278 50.9997L66.825 53.1731L65.3257 53.684ZM66.0535 47.7564C66.3926 47.0154 66.9862 46.5004 67.8344 46.2114C68.6825 45.9224 69.4632 45.969 70.1767 46.3514C70.8977 46.7311 71.4118 47.3715 71.7188 48.2726C72.0259 49.1737 72.0099 49.9948 71.6707 50.7358C71.3392 51.4742 70.7494 51.9879 69.9013 52.2769C69.0532 52.5659 68.2686 52.5205 67.5476 52.1408C66.8341 51.7585 66.3239 51.1168 66.0168 50.2157C65.7097 49.3146 65.722 48.4948 66.0535 47.7564ZM68.2078 50.9904C68.6067 51.2432 69.0408 51.2897 69.5103 51.1297C69.9798 50.9697 70.2915 50.6691 70.4454 50.2279C70.6069 49.7841 70.5922 49.282 70.4012 48.7216C70.2103 48.1613 69.9154 47.7546 69.5165 47.5018C69.1252 47.2464 68.6948 47.1986 68.2253 47.3586C67.7558 47.5186 67.4403 47.8205 67.2788 48.2643C67.1249 48.7055 67.1434 49.2063 67.3344 49.7667C67.5253 50.327 67.8165 50.7349 68.2078 50.9904ZM79.227 47.6791L80.1095 50.2689L78.8601 50.6947L78.3646 49.2408L74.2755 50.6342L74.771 52.0881L73.5215 52.5138L72.639 49.9241L73.1047 49.7654C73.381 49.46 73.3916 48.7844 73.1367 47.7387L72.381 44.8142L76.7995 43.3085L78.3865 47.9655L79.227 47.6791ZM74.379 47.3661C74.6153 48.2829 74.6525 48.9253 74.4905 49.2932L77.0916 48.4068L75.8917 44.8856L73.9153 45.5591L74.379 47.3661ZM83.6607 40.9705L85.6347 46.7634L84.3625 47.1969L83.0504 43.3463L81.7387 48.091L80.4892 48.5168L78.5152 42.7239L79.7874 42.2904L81.1034 46.1523L82.4112 41.3962L83.6607 40.9705ZM84.9317 41.8051L84.5446 40.6693L89.5424 38.9662L89.9295 40.1021L88.078 40.733L89.665 45.39L88.3701 45.8313L86.7831 41.1742L84.9317 41.8051ZM91.7124 38.2267L92.3124 39.9873L93.471 39.5925C94.1146 39.3732 94.6941 39.387 95.2093 39.634C95.7219 39.8735 96.0776 40.2847 96.2763 40.8678C96.4775 41.4585 96.4471 42.014 96.1849 42.5344C95.9277 43.0446 95.4811 43.4081 94.845 43.6248L92.4029 44.457L90.4289 38.6641L91.7124 38.2267ZM93.6835 40.7371L92.684 41.0777L93.3187 42.9406L94.3183 42.5999C94.6288 42.4941 94.8401 42.3207 94.9524 42.0796C95.0722 41.8359 95.0856 41.5778 94.9927 41.3052C94.8998 41.0326 94.7341 40.844 94.4956 40.7393C94.2647 40.6321 93.994 40.6313 93.6835 40.7371ZM105.778 38.6316L106.66 41.2213L105.411 41.6471L104.915 40.1932L100.826 41.5866L101.322 43.0405L100.072 43.4663L99.1898 40.8765L99.6555 40.7178C99.9318 40.4124 99.9424 39.7368 99.6875 38.6912L98.9318 35.7666L103.35 34.2609L104.937 38.918L105.778 38.6316ZM100.93 38.3186C101.166 39.2354 101.203 39.8777 101.041 40.2456L103.642 39.3592L102.442 35.8381L100.466 36.5115L100.93 38.3186ZM109.128 34.4727C109.017 34.1471 108.826 33.9333 108.554 33.8314C108.288 33.7193 107.985 33.7213 107.644 33.8375C107.03 34.0465 106.724 34.4002 106.725 34.8985L105.498 35.3166C105.419 34.7858 105.532 34.2867 105.837 33.8192C106.148 33.3415 106.644 32.9865 107.325 32.7543C108.045 32.5091 108.68 32.4998 109.23 32.7264C109.788 32.9503 110.181 33.3955 110.408 34.0619L111.708 37.8784L110.504 38.2887L110.28 37.6299C110.036 38.3044 109.529 38.7733 108.756 39.0365C108.181 39.2326 107.644 39.2337 107.147 39.0397C106.655 38.8355 106.315 38.457 106.126 37.9042C105.93 37.3287 105.983 36.8123 106.283 36.3549C106.589 35.8874 107.105 35.5297 107.832 35.282L109.24 34.8021L109.128 34.4727ZM108.68 37.8834C109.082 37.7466 109.384 37.5169 109.586 37.1943C109.787 36.8641 109.822 36.5097 109.693 36.131L109.573 35.7789L108.255 36.2279C107.915 36.344 107.667 36.5089 107.511 36.7224C107.361 36.9258 107.329 37.1562 107.417 37.4137C107.505 37.6712 107.664 37.8409 107.895 37.9228C108.123 37.9972 108.385 37.984 108.68 37.8834ZM115.197 30.224L116.033 32.6775L117.219 29.535L118.707 29.028L117.387 32.5204L120.715 34.8093L119.193 35.3279L116.242 33.2908L117.171 36.0169L115.899 36.4504L114.97 33.7244L113.877 37.1394L112.366 37.6542L113.605 33.8473L110.415 31.8535L111.903 31.3465L114.761 33.111L113.925 30.6575L115.197 30.224ZM125.357 30.413L121.279 31.8026L121.287 31.8253C121.439 32.2721 121.709 32.5941 122.098 32.7914C122.486 32.9886 122.911 33.0086 123.373 32.8511C123.691 32.7428 123.931 32.5894 124.091 32.391C124.257 32.1824 124.34 31.9934 124.342 31.8239L125.614 31.3904C125.673 31.8605 125.549 32.342 125.244 32.8349C124.946 33.3251 124.438 33.6928 123.718 33.938C122.855 34.2321 122.071 34.1994 121.365 33.8398C120.657 33.4727 120.144 32.8234 119.826 31.892C119.509 30.9606 119.515 30.1345 119.844 29.4138C120.171 28.6856 120.747 28.1808 121.572 27.8995C122.367 27.6286 123.092 27.6731 123.747 28.033C124.402 28.393 124.878 29.0083 125.175 29.8792L125.357 30.413ZM121.928 28.9825C121.519 29.1218 121.227 29.3565 121.053 29.6866C120.885 30.014 120.854 30.3925 120.958 30.8219L123.729 29.8774C123.57 29.4585 123.329 29.173 123.006 29.0208C122.689 28.8585 122.33 28.8457 121.928 28.9825ZM48.2882 71.039C48.6669 70.91 48.9261 70.716 49.0661 70.457C49.2136 70.1954 49.2763 69.9205 49.2541 69.6323L50.5149 69.2026C50.648 69.8165 50.5533 70.4066 50.2307 70.9729C49.9082 71.5392 49.3872 71.945 48.6678 72.1901C47.8273 72.4765 47.0541 72.4273 46.3482 72.0424C45.6397 71.6499 45.1333 71.0069 44.8288 70.1134C44.5269 69.2274 44.5328 68.414 44.8466 67.6732C45.168 66.9298 45.7528 66.4136 46.6009 66.1246C47.3354 65.8743 47.997 65.8813 48.5857 66.1455C49.1718 66.4022 49.5995 66.8016 49.8688 67.3437L48.608 67.7733C48.4369 67.5443 48.2145 67.375 47.9405 67.2655C47.6715 67.1458 47.3553 67.148 46.9918 67.2718C46.5375 67.4266 46.2334 67.7247 46.0795 68.1659C45.9331 68.6045 45.9554 69.104 46.1464 69.6644C46.3399 70.2323 46.6323 70.644 47.0236 70.8994C47.4124 71.1473 47.8339 71.1938 48.2882 71.039ZM54.3984 70.0852L52.4244 64.2923L55.0255 63.4059C55.6464 63.1943 56.1674 63.1731 56.5885 63.3424C57.0096 63.5116 57.295 63.8158 57.4447 64.255C57.553 64.573 57.5638 64.8652 57.4771 65.1314C57.3953 65.3875 57.2563 65.5996 57.0601 65.7679C57.3838 65.7506 57.6854 65.8295 57.9648 66.0047C58.2519 66.1774 58.4586 66.4492 58.585 66.8203C58.7502 67.3049 58.7039 67.7644 58.4462 68.1987C58.1936 68.6229 57.7492 68.9434 57.1131 69.1601L54.3984 70.0852ZM56.1103 66.7381L54.8267 67.1755L55.3299 68.6521L56.6135 68.2147C56.9012 68.1167 57.0989 67.9775 57.2065 67.7972C57.319 67.6067 57.3353 67.394 57.2553 67.1593C57.0902 66.6747 56.7085 66.5343 56.1103 66.7381ZM55.2071 64.4597L54.0371 64.8583L54.4939 66.1987L55.6638 65.8C55.9137 65.7148 56.0862 65.5885 56.1812 65.4209C56.2838 65.2507 56.2989 65.0596 56.2267 64.8475C56.077 64.4083 55.7371 64.279 55.2071 64.4597ZM58.8814 62.878C59.2205 62.137 59.8141 61.622 60.6623 61.333C61.5104 61.044 62.2911 61.0906 63.0046 61.4729C63.7256 61.8527 64.2397 62.4931 64.5467 63.3942C64.8538 64.2953 64.8378 65.1164 64.4986 65.8574C64.1671 66.5958 63.5773 67.1095 62.7292 67.3985C61.8811 67.6875 61.0965 67.6421 60.3755 67.2624C59.662 66.8801 59.1518 66.2384 58.8447 65.3373C58.5376 64.4361 58.5499 63.6164 58.8814 62.878ZM61.0357 66.112C61.4346 66.3648 61.8687 66.4113 62.3382 66.2513C62.8077 66.0913 63.1194 65.7907 63.2733 65.3495C63.4348 64.9056 63.4201 64.4036 63.2291 63.8432C63.0382 63.2828 62.7433 62.8762 62.3444 62.6234C61.9531 62.3679 61.5227 62.3202 61.0532 62.4802C60.5837 62.6402 60.2682 62.9421 60.1067 63.3859C59.9528 63.8271 59.9713 64.3279 60.1623 64.8883C60.3532 65.4486 60.6444 65.8565 61.0357 66.112ZM64.571 60.1532L69.6142 58.4346L71.5882 64.2275L70.2933 64.6688L68.7064 60.0117L66.2529 60.8478L67.8399 65.5048L66.545 65.9461L64.571 60.1532ZM73.9526 56.8041C74.6719 56.559 75.3693 56.6214 76.0447 56.9913C76.7277 57.3586 77.2305 58.0156 77.5531 58.9621C77.8756 59.9087 77.8748 60.7372 77.5507 61.4477C77.2341 62.1557 76.7123 62.6335 75.9854 62.8812C75.584 63.018 75.2074 63.0661 74.8555 63.0254C74.5086 62.9746 74.2245 62.8601 74.0032 62.682L74.9631 65.4989L73.6682 65.9401L70.9549 57.9778L72.2043 57.552L72.4598 58.3017C72.622 57.5871 73.1196 57.088 73.9526 56.8041ZM75.3786 61.8076C75.833 61.6527 76.1384 61.3585 76.2949 60.9248C76.4564 60.481 76.4403 59.9752 76.2468 59.4072C76.0559 58.8469 75.761 58.4403 75.3621 58.1874C74.9708 57.932 74.5479 57.8817 74.0936 58.0365C73.6317 58.1939 73.3187 58.4907 73.1546 58.927C72.988 59.3556 73.0014 59.8539 73.195 60.4218L73.2104 60.4673C73.404 61.0352 73.6989 61.4418 74.0952 61.6871C74.4889 61.9248 74.9167 61.965 75.3786 61.8076ZM78.2661 56.2724C78.6052 55.5314 79.1988 55.0164 80.0469 54.7274C80.895 54.4384 81.6758 54.485 82.3892 54.8673C83.1103 55.2471 83.6243 55.8875 83.9314 56.7886C84.2384 57.6897 84.2224 58.5108 83.8833 59.2518C83.5517 59.9902 82.9619 60.5039 82.1138 60.7929C81.2657 61.0819 80.4811 61.0365 79.7601 60.6568C79.0467 60.2745 78.5364 59.6328 78.2293 58.7317C77.9223 57.8305 77.9345 57.0108 78.2661 56.2724ZM80.4203 59.5064C80.8192 59.7592 81.2534 59.8057 81.7229 59.6457C82.1924 59.4857 82.5041 59.1851 82.658 58.7439C82.8195 58.3 82.8047 57.798 82.6138 57.2376C82.4228 56.6772 82.1279 56.2706 81.729 56.0178C81.3377 55.7623 80.9073 55.7146 80.4378 55.8746C79.9683 56.0346 79.6529 56.3365 79.4914 56.7803C79.3375 57.2215 79.356 57.7223 79.5469 58.2827C79.7379 58.843 80.029 59.2509 80.4203 59.5064ZM88.0727 57.4819C88.4513 57.3529 88.7106 57.1589 88.8506 56.8999C88.9981 56.6383 89.0607 56.3634 89.0386 56.0751L90.2994 55.6455C90.4325 56.2594 90.3378 56.8495 90.0152 57.4158C89.6926 57.9821 89.1717 58.3878 88.4523 58.633C87.6117 58.9194 86.8385 58.8702 86.1327 58.4853C85.4242 58.0928 84.9177 57.4498 84.6132 56.5563C84.3113 55.6703 84.3173 54.8569 84.6311 54.1161C84.9525 53.3727 85.5373 52.8565 86.3854 52.5675C87.1199 52.3172 87.7815 52.3241 88.3702 52.5884C88.9563 52.845 89.384 53.2444 89.6533 53.7866L88.3924 54.2162C88.2214 53.9871 87.9989 53.8178 87.725 53.7084C87.456 53.5887 87.1398 53.5908 86.7763 53.7147C86.322 53.8695 86.0178 54.1675 85.8639 54.6088C85.7176 55.0474 85.7399 55.5469 85.9308 56.1073C86.1244 56.6752 86.4168 57.0869 86.8081 57.3423C87.1968 57.5902 87.6184 57.6367 88.0727 57.4819ZM94.0244 52.297C93.9134 51.9714 93.7222 51.7577 93.4509 51.6557C93.1845 51.5437 92.8809 51.5457 92.5402 51.6618C91.9268 51.8708 91.6205 52.2245 91.6213 52.7229L90.3946 53.1409C90.3151 52.6102 90.4282 52.1111 90.7337 51.6435C91.0442 51.1658 91.5402 50.8109 92.2217 50.5786C92.9411 50.3335 93.5761 50.3242 94.1266 50.5507C94.6846 50.7747 95.0772 51.2199 95.3043 51.8862L96.6048 55.7027L95.4008 56.113L95.1763 55.4542C94.9329 56.1288 94.425 56.5977 93.6526 56.8609C93.0771 57.057 92.5407 57.0581 92.0436 56.864C91.5514 56.6599 91.2112 56.2814 91.0228 55.7286C90.8267 55.1531 90.8789 54.6367 91.1794 54.1793C91.485 53.7117 92.0012 53.3541 92.7281 53.1064L94.1366 52.6264L94.0244 52.297ZM93.5766 55.7078C93.9779 55.571 94.28 55.3413 94.4827 55.0187C94.6829 54.6884 94.7185 54.334 94.5895 53.9554L94.4695 53.6033L93.1519 54.0523C92.8111 54.1684 92.563 54.3332 92.4076 54.5468C92.2572 54.7502 92.2258 54.9806 92.3136 55.2381C92.4013 55.4955 92.5605 55.6652 92.7913 55.7472C93.0195 55.8215 93.2812 55.8084 93.5766 55.7078ZM95.9248 49.4689L97.5604 48.9115L100.833 52.4872L101.241 47.6575L102.854 47.1078L104.828 52.9007L103.578 53.3265L102.227 49.3623L101.832 53.896L100.878 54.2211L97.8013 50.8832L99.1482 54.836L97.8988 55.2618L95.9248 49.4689ZM109.34 44.8975L111.314 50.6904L110.042 51.1239L108.73 47.2734L107.418 52.018L106.168 52.4438L104.194 46.6509L105.467 46.2174L106.783 50.0793L108.09 45.3233L109.34 44.8975ZM112.925 43.676L117.968 41.9574L119.942 47.7503L118.647 48.1916L117.06 43.5345L114.607 44.3706L116.193 49.0276L114.899 49.4689L112.925 43.676ZM120.003 42.05C120.342 41.309 120.936 40.794 121.784 40.505C122.632 40.216 123.413 40.2626 124.126 40.6449C124.847 41.0247 125.361 41.6651 125.668 42.5662C125.975 43.4673 125.959 44.2884 125.62 45.0294C125.288 45.7678 124.699 46.2815 123.851 46.5705C123.002 46.8595 122.218 46.8141 121.497 46.4344C120.783 46.0521 120.273 45.4104 119.966 44.5093C119.659 43.6082 119.671 42.7884 120.003 42.05ZM122.157 45.284C122.556 45.5368 122.99 45.5833 123.46 45.4233C123.929 45.2633 124.241 44.9627 124.395 44.5215C124.556 44.0777 124.541 43.5756 124.35 43.0152C124.16 42.4549 123.865 42.0482 123.466 41.7954C123.074 41.54 122.644 41.4922 122.175 41.6522C121.705 41.8122 121.39 42.1141 121.228 42.5579C121.074 42.9991 121.093 43.4999 121.284 44.0603C121.475 44.6206 121.766 45.0285 122.157 45.284ZM51.3107 83.815L50.0158 84.2562L48.0418 78.4633L49.3367 78.0221L50.0953 80.2484L52.5828 79.4007L51.8242 77.1744L53.1191 76.7332L55.0931 82.526L53.7982 82.9673L52.9738 80.5479L50.4862 81.3956L51.3107 83.815ZM55.1533 76.826C55.4924 76.085 56.086 75.57 56.9341 75.281C57.7822 74.992 58.563 75.0386 59.2765 75.4209C59.9975 75.8007 60.5115 76.4411 60.8186 77.3422C61.1257 78.2433 61.1096 79.0644 60.7705 79.8054C60.439 80.5438 59.8491 81.0575 59.001 81.3465C58.1529 81.6355 57.3684 81.5901 56.6473 81.2104C55.9339 80.8281 55.4236 80.1864 55.1166 79.2853C54.8095 78.3841 54.8217 77.5644 55.1533 76.826ZM57.3076 80.06C57.7064 80.3128 58.1406 80.3593 58.6101 80.1993C59.0796 80.0393 59.3913 79.7387 59.5452 79.2975C59.7067 78.8537 59.6919 78.3516 59.501 77.7912C59.31 77.2309 59.0151 76.8242 58.6163 76.5714C58.2249 76.316 57.7946 76.2682 57.3251 76.4282C56.8556 76.5882 56.5401 76.8901 56.3786 77.3339C56.2247 77.7751 56.2432 78.2759 56.4342 78.8363C56.6251 79.3966 56.9162 79.8045 57.3076 80.06ZM64.4919 72.8577L65.889 72.3816L65.4787 81.4084L64.0929 81.8806L64.2162 79.3031L60.0507 74.3711L61.4478 73.895L64.3826 77.5223L64.4919 72.8577ZM71.0592 70.6198L72.6462 75.2768L74.5544 74.6266L72.9675 69.9695L74.2624 69.5283L76.2364 75.3212L68.5352 77.9454L66.5612 72.1525L67.8561 71.7113L69.4431 76.3683L71.3513 75.7181L69.7644 71.061L71.0592 70.6198ZM81.7993 70.6111L77.7216 72.0006L77.7293 72.0234C77.8816 72.4701 78.1519 72.7921 78.5403 72.9894C78.9287 73.1867 79.3538 73.2066 79.8157 73.0492C80.1338 72.9408 80.3731 72.7874 80.5337 72.589C80.6993 72.3805 80.7828 72.1915 80.7842 72.0219L82.0563 71.5884C82.1151 72.0586 81.9918 72.5401 81.6865 73.0329C81.3887 73.5232 80.8801 73.8909 80.1607 74.136C79.2975 74.4302 78.513 74.3975 77.8073 74.0379C77.099 73.6707 76.5862 73.0214 76.2688 72.09C75.9514 71.1586 75.9573 70.3326 76.2864 69.6119C76.6129 68.8836 77.1889 68.3789 78.0143 68.0976C78.8094 67.8267 79.5345 67.8712 80.1896 68.2311C80.8447 68.591 81.3207 69.2064 81.6174 70.0772L81.7993 70.6111ZM78.3707 69.1806C77.9618 69.3199 77.6699 69.5546 77.495 69.8846C77.3276 70.2121 77.296 70.5905 77.4001 71.0199L80.1716 70.0755C80.0119 69.6566 79.771 69.3711 79.4486 69.2189C79.1313 69.0566 78.772 69.0438 78.3707 69.1806ZM84.9606 72.3483L83.6657 72.7895L81.6917 66.9966L82.9866 66.5554L83.7452 68.7817L86.2328 67.934L85.4741 65.7077L86.769 65.2665L88.743 71.0594L87.4481 71.5006L86.6237 69.0812L84.1362 69.9289L84.9606 72.3483ZM91.8799 63.5248L93.2771 63.0487L92.8667 72.0756L91.481 72.5478L91.6042 69.9703L87.4387 65.0382L88.8358 64.5622L91.7707 68.1894L91.8799 63.5248Z" fill="#0F1414"/>
</g>
<defs>
<linearGradient id="paint0_linear_201_840" x1="76.4033" y1="3.32398" x2="99.0879" y2="69.8938" gradientUnits="userSpaceOnUse">
<stop stop-color="#F9F9F9"/>
<stop offset="1" stop-color="#F4F4F4"/>
</linearGradient>
<clipPath id="clip0_201_840">
<rect width="180" height="100" fill="white"/>
</clipPath>
</defs>
</svg>
