<svg width="180" height="100" viewBox="0 0 180 100" fill="none" xmlns="http://www.w3.org/2000/svg">
<path fill-rule="evenodd" clip-rule="evenodd" d="M47.3262 28.3308C36.6526 31.1738 30.3047 42.1311 33.1477 52.8047L37.2199 68.0933C40.0629 78.7668 51.0203 85.1148 61.6938 82.2718L90.8309 74.5108C91.0625 74.8117 91.3554 75.0733 91.7042 75.2753L99.3868 79.7261C100.82 80.5566 102.656 80.0677 103.486 78.6341L107.937 70.9515C108.139 70.6027 108.263 70.2301 108.315 69.8539L129.96 64.0884C140.634 61.2454 146.982 50.2881 144.139 39.6145L140.067 24.3259C137.224 13.6523 126.266 7.30443 115.593 10.1474L47.3262 28.3308Z" fill="url(#paint0_linear_201_828)"/>
<path d="M48.1067 48.5369L45.9323 40.3736L49.0864 39.5335C49.8826 39.3214 50.5546 39.3576 51.1023 39.6423C51.6479 39.9191 52.0031 40.3668 52.1679 40.9852C52.2873 41.4336 52.2838 41.8402 52.1575 42.205C52.029 42.5621 51.8344 42.8416 51.5736 43.0435C51.9658 43.055 52.3442 43.186 52.709 43.4365C53.0738 43.6871 53.3283 44.0829 53.4724 44.6241C53.6556 45.3121 53.5576 45.9384 53.1781 46.5031C52.7966 47.0601 52.1923 47.4487 51.3651 47.669L48.1067 48.5369ZM50.2971 44.079L48.523 44.5515L49.1716 46.9866L50.8993 46.5264C51.3477 46.407 51.6755 46.2079 51.8828 45.9292C52.0957 45.6407 52.1506 45.3031 52.0477 44.9166C51.9468 44.5378 51.7361 44.2752 51.4156 44.1288C51.1029 43.9803 50.73 43.9637 50.2971 44.079ZM49.2043 40.7687L47.6273 41.1888L48.2203 43.4151L49.8553 42.9797C50.265 42.8705 50.5513 42.6866 50.7142 42.428C50.8751 42.1616 50.9112 41.8622 50.8227 41.5298C50.73 41.1819 50.542 40.9423 50.2586 40.8108C49.9732 40.6715 49.6217 40.6575 49.2043 40.7687ZM54.888 40.3973L55.3667 42.1947L56.5495 41.8796C57.2066 41.7046 57.7837 41.7578 58.2809 42.0393C58.7761 42.3131 59.1029 42.7476 59.2615 43.3429C59.4221 43.9459 59.3539 44.498 59.0569 44.9993C58.7656 45.4909 58.2953 45.8231 57.6459 45.9961L55.1528 46.6601L53.5776 40.7463L54.888 40.3973ZM60.3032 38.9549L61.8784 44.8687L60.568 45.2178L58.9928 39.3039L60.3032 38.9549ZM56.6836 43.036L55.6632 43.3078L56.1697 45.2095L57.1902 44.9377C57.5071 44.8533 57.7298 44.6947 57.8582 44.4618C57.9943 44.2268 58.0253 43.9702 57.9511 43.6919C57.877 43.4136 57.7245 43.2141 57.4937 43.0935C57.2706 42.9708 57.0006 42.9516 56.6836 43.036ZM66.0362 38.6697L63.2996 39.3986L64.5659 44.1529L63.244 44.505L61.6688 38.5912L65.7273 37.5102L66.0362 38.6697ZM67.0974 37.9152C67.4862 37.199 68.1135 36.7256 68.9793 36.495C69.8451 36.2643 70.6209 36.364 71.3067 36.794C72.0002 37.2219 72.4694 37.8958 72.7145 38.8158C72.9595 39.7357 72.8876 40.5537 72.4989 41.2699C72.1178 41.9841 71.4944 42.4564 70.6286 42.6871C69.7628 42.9177 68.9831 42.819 68.2896 42.3911C67.6038 41.9611 67.1384 41.2862 66.8934 40.3663C66.6484 39.4463 66.7164 38.6293 67.0974 37.9152ZM69.0266 41.2883C69.4073 41.5677 69.8374 41.6436 70.3166 41.5159C70.7959 41.3882 71.1274 41.1095 71.3109 40.6798C71.5023 40.248 71.5217 39.7461 71.3694 39.174C71.217 38.602 70.9504 38.1763 70.5697 37.8968C70.1967 37.6154 69.7705 37.5385 69.2912 37.6661C68.8119 37.7938 68.4766 38.0735 68.2853 38.5053C68.1017 38.935 68.0861 39.4359 68.2385 40.008C68.3909 40.58 68.6536 41.0068 69.0266 41.2883ZM76.0298 34.617C76.7642 34.4214 77.4558 34.5311 78.1044 34.9461C78.7608 35.3591 79.2177 36.0487 79.4751 37.015C79.7325 37.9813 79.6753 38.8079 79.3036 39.4947C78.9396 40.1795 78.3865 40.6207 77.6444 40.8184C77.2346 40.9275 76.8556 40.9498 76.5073 40.8853C76.1646 40.811 75.8889 40.6774 75.6803 40.4846L76.4463 43.3604L75.1244 43.7125L72.9592 35.5839L74.2348 35.2441L74.4386 36.0094C74.6491 35.3076 75.1795 34.8435 76.0298 34.617ZM77.1121 39.7059C77.5759 39.5823 77.9007 39.3096 78.0863 38.8876C78.2776 38.4558 78.296 37.95 78.1416 37.3702C77.9892 36.7981 77.7227 36.3724 77.3419 36.093C76.9689 35.8115 76.5505 35.7325 76.0867 35.8561C75.6151 35.9817 75.2826 36.2565 75.0893 36.6806C74.8939 37.0969 74.8734 37.595 75.0278 38.1748L75.0401 38.2211C75.1946 38.8009 75.4611 39.2267 75.8398 39.4983C76.2164 39.7623 76.6405 39.8315 77.1121 39.7059ZM83.7126 34.8556C83.624 34.5232 83.4478 34.2969 83.184 34.1768C82.9259 34.0468 82.6229 34.0282 82.275 34.1208C81.6488 34.2876 81.3192 34.6197 81.2861 35.1169L80.0337 35.4505C79.9906 34.9156 80.1373 34.4253 80.474 33.9796C80.8163 33.5242 81.3353 33.2038 82.0311 33.0185C82.7655 32.8229 83.3996 32.8568 83.9334 33.1203C84.4749 33.3817 84.8362 33.8526 85.0174 34.5329L86.0552 38.429L84.8261 38.7564L84.6469 38.0839C84.3582 38.7403 83.8195 39.1735 83.031 39.3836C82.4435 39.5401 81.9083 39.5046 81.4256 39.2772C80.9484 39.04 80.6347 38.6393 80.4844 38.0749C80.3279 37.4874 80.4151 36.9757 80.7461 36.5399C81.0827 36.0942 81.6221 35.7725 82.3643 35.5749L83.8021 35.1919L83.7126 34.8556ZM83.0337 38.228C83.4434 38.1188 83.7604 37.9102 83.9846 37.6021C84.2068 37.2863 84.2664 36.9351 84.1635 36.5486L84.0677 36.1891L82.7226 36.5474C82.3748 36.64 82.116 36.7876 81.9464 36.9901C81.7825 37.1828 81.7355 37.4105 81.8056 37.6734C81.8756 37.9362 82.0229 38.1164 82.2475 38.2138C82.4701 38.3035 82.7322 38.3083 83.0337 38.228ZM88.6981 37.7251L87.3762 38.0772L85.801 32.1634L87.1229 31.8113L87.7283 34.084L90.2678 33.4076L89.6624 31.1348L90.9843 30.7827L92.5595 36.6966L91.2376 37.0487L90.5797 34.5788L88.0403 35.2552L88.6981 37.7251ZM97.605 29.0193L99.1802 34.9331L97.8815 35.279L96.8344 31.3481L95.2029 35.9925L93.9274 36.3322L92.3522 30.4184L93.6509 30.0725L94.701 34.015L96.3295 29.359L97.605 29.0193ZM105.044 30.6143L100.881 31.7231L100.887 31.7463C101.009 32.2024 101.257 32.5421 101.631 32.7653C102.005 32.9886 102.428 33.0374 102.899 32.9118C103.224 32.8253 103.473 32.6886 103.647 32.5015C103.826 32.3047 103.922 32.1218 103.935 31.9528L105.234 31.6069C105.261 32.08 105.105 32.552 104.767 33.0229C104.436 33.4917 103.904 33.8239 103.169 34.0196C102.288 34.2543 101.508 34.1683 100.828 33.7615C100.146 33.347 99.6789 32.6643 99.4256 31.7134C99.1724 30.7626 99.2344 29.9389 99.6119 29.2422C99.9872 28.5379 100.596 28.0735 101.439 27.8491C102.251 27.6329 102.971 27.7266 103.6 28.1303C104.229 28.534 104.662 29.1803 104.899 30.0693L105.044 30.6143ZM101.721 28.9538C101.303 29.0649 100.996 29.2792 100.799 29.5966C100.61 29.9119 100.553 30.2873 100.627 30.7228L103.456 29.9692C103.326 29.5404 103.105 29.2391 102.794 29.0654C102.488 28.8818 102.13 28.8446 101.721 28.9538ZM107.575 29.9775L107.25 28.76L118.846 25.6714L119.17 26.8889L107.575 29.9775ZM54.7339 52.8568L56.3091 58.7706L55.0103 59.1165L53.9633 55.1855L52.3317 59.83L51.0562 60.1697L49.481 54.2559L50.7797 53.91L51.8299 57.8525L53.4583 53.1965L54.7339 52.8568ZM56.2634 54.2252C56.175 53.6444 56.3166 53.1347 56.6883 52.6963C57.0677 52.2558 57.582 51.9491 58.2314 51.7761C58.8653 51.6073 59.4283 51.6229 59.9204 51.823C60.4124 52.0231 60.7264 52.3782 60.8623 52.8884C61.0271 53.5069 60.8553 54.0121 60.3471 54.4041C60.6496 54.3898 60.94 54.4697 61.2182 54.644C61.5021 54.8085 61.6965 55.0878 61.8015 55.4821C61.9477 56.031 61.8381 56.5362 61.4726 56.9978C61.1148 57.4574 60.5765 57.7829 59.8575 57.9744C59.1618 58.1597 58.5416 58.1469 57.997 57.936C57.4523 57.7251 57.0631 57.3362 56.8293 56.7692L58.1164 56.4264C58.2462 56.665 58.4379 56.8251 58.6914 56.9066C58.9506 56.9783 59.2425 56.9709 59.5672 56.8844C59.9073 56.7938 60.1594 56.6522 60.3233 56.4595C60.4852 56.2591 60.5321 56.0313 60.4642 55.7762C60.3365 55.2969 59.9055 55.1551 59.1711 55.3507L58.3014 55.5823L58.0234 54.5387L58.8236 54.3256C59.1328 54.2433 59.3521 54.1186 59.4815 53.9517C59.6165 53.775 59.6532 53.5706 59.5914 53.3387C59.5317 53.1145 59.3965 52.9643 59.1857 52.888C58.9827 52.8096 58.7382 52.8085 58.4522 52.8847C58.1507 52.965 57.9208 53.0966 57.7625 53.2795C57.6043 53.4624 57.5259 53.6654 57.5274 53.8885L56.2634 54.2252ZM63.2978 56.909L61.7226 50.9952L64.378 50.2879C65.0119 50.1191 65.5332 50.1334 65.9418 50.3309C66.3504 50.5284 66.6144 50.8513 66.7338 51.2997C66.8203 51.6244 66.8112 51.9166 66.7065 52.1762C66.6075 52.4261 66.4544 52.6284 66.2472 52.7829C66.5713 52.7876 66.8668 52.8869 67.1337 53.0808C67.4083 53.2725 67.5961 53.5578 67.697 53.9366C67.8288 54.4314 67.7513 54.8866 67.4647 55.3024C67.1837 55.7084 66.7186 55.9979 66.0692 56.1709L63.2978 56.909ZM65.2335 53.6862L63.9232 54.0353L64.3247 55.5427L65.6351 55.1937C65.9288 55.1154 66.1355 54.99 66.2551 54.8174C66.3804 54.635 66.4111 54.424 66.3473 54.1844C66.2155 53.6896 65.8442 53.5236 65.2335 53.6862ZM64.4875 51.3516L63.2931 51.6697L63.6576 53.038L64.852 52.7199C65.1071 52.6519 65.2877 52.5376 65.3939 52.3768C65.5079 52.214 65.536 52.0244 65.4783 51.8079C65.3589 51.3596 65.0286 51.2075 64.4875 51.3516ZM73.6784 51.3872L69.5156 52.496L69.5218 52.5192C69.6432 52.9753 69.891 53.315 70.2651 53.5382C70.6391 53.7615 71.062 53.8103 71.5335 53.6847C71.8582 53.5982 72.1074 53.4614 72.2811 53.2744C72.4605 53.0776 72.5567 52.8947 72.5696 52.7257L73.8683 52.3798C73.895 52.8528 73.7392 53.3248 73.401 53.7957C73.0706 54.2646 72.5381 54.5968 71.8037 54.7924C70.9225 55.0272 70.142 54.9411 69.4624 54.5344C68.7808 54.1198 68.3133 53.4372 68.06 52.4863C67.8068 51.5355 67.8689 50.7117 68.2463 50.0151C68.6216 49.3108 69.2306 48.8464 70.0732 48.622C70.8849 48.4057 71.6053 48.4995 72.2344 48.9032C72.8635 49.3068 73.2965 49.9532 73.5333 50.8422L73.6784 51.3872ZM70.3551 49.7266C69.9376 49.8378 69.6304 50.0521 69.4335 50.3695C69.2443 50.6848 69.187 51.0602 69.2616 51.4957L72.0909 50.7421C71.9601 50.3133 71.7392 50.012 71.4279 49.8383C71.1224 49.6547 70.7648 49.6175 70.3551 49.7266ZM77.6568 51.9792C78.0433 51.8762 78.3152 51.7003 78.4725 51.4515C78.6374 51.2005 78.7187 50.9305 78.7162 50.6414L80.0033 50.2986C80.0943 50.9201 79.9597 51.5024 79.5993 52.0454C79.2389 52.5885 78.6916 52.9578 77.9572 53.1534C77.0991 53.382 76.331 53.2802 75.653 52.8482C74.9729 52.4084 74.5113 51.7325 74.2684 50.8203C74.0275 49.9158 74.0888 49.1047 74.4523 48.3869C74.8235 47.6671 75.442 47.1919 76.3078 46.9613C77.0577 46.7616 77.7173 46.8136 78.2866 47.1173C78.8539 47.4132 79.2534 47.8408 79.4852 48.4L78.1981 48.7428C78.043 48.5026 77.8326 48.3186 77.5667 48.1907C77.3065 48.0531 76.9909 48.0336 76.6198 48.1325C76.156 48.256 75.8323 48.5327 75.6487 48.9624C75.4728 49.3901 75.4611 49.8899 75.6135 50.462C75.7679 51.0418 76.0316 51.4724 76.4046 51.7539C76.7756 52.0276 77.193 52.1027 77.6568 51.9792ZM79.681 47.4537L79.3721 46.2941L84.4742 44.9351L84.7831 46.0947L82.893 46.5982L84.1593 51.3524L82.8374 51.7045L81.5711 46.9503L79.681 47.4537ZM88.2763 50.2558L86.9544 50.6079L85.3792 44.6941L86.7011 44.342L87.3065 46.6147L89.846 45.9383L89.2406 43.6656L90.5625 43.3135L92.1377 49.2273L90.8158 49.5794L90.1579 47.1095L87.6185 47.7859L88.2763 50.2558ZM95.9287 44.0201C95.8402 43.6877 95.664 43.4614 95.4002 43.3413C95.142 43.2113 94.839 43.1927 94.4912 43.2854C93.865 43.4521 93.5354 43.7842 93.5022 44.2815L92.2499 44.615C92.2068 44.0801 92.3535 43.5898 92.6901 43.1442C93.0325 42.6887 93.5515 42.3683 94.2472 42.183C94.9816 41.9874 95.6157 42.0213 96.1495 42.2848C96.691 42.5462 97.0524 43.0171 97.2336 43.6974L98.2714 47.5935L97.0422 47.9209L96.8631 47.2484C96.5743 47.9048 96.0357 48.3381 95.2472 48.5481C94.6597 48.7046 94.1245 48.6691 93.6417 48.4417C93.1646 48.2045 92.8509 47.8038 92.7006 47.2394C92.5441 46.6519 92.6313 46.1402 92.9623 45.7044C93.2989 45.2587 93.8383 44.937 94.5804 44.7394L96.0183 44.3564L95.9287 44.0201ZM95.2498 47.3925C95.6595 47.2833 95.9765 47.0747 96.2008 46.7666C96.423 46.4508 96.4826 46.0996 96.3797 45.7131L96.2839 45.3536L94.9388 45.7119C94.5909 45.8046 94.3322 45.9521 94.1626 46.1546C93.9987 46.3473 93.9517 46.575 94.0217 46.8379C94.0917 47.1007 94.2391 47.2809 94.4637 47.3783C94.6863 47.4681 94.9483 47.4728 95.2498 47.3925ZM104.08 46.0464L102.77 46.3954L102.26 44.4821L101.367 44.7199L100.52 46.9946L99.0358 47.3899L99.9695 44.8811C99.5629 44.8155 99.2131 44.6521 98.9199 44.3907C98.6325 44.1196 98.4352 43.783 98.3281 43.381C98.1737 42.8012 98.2365 42.2753 98.5164 41.8034C98.802 41.3216 99.2889 40.9891 99.9769 40.8059L102.505 40.1326L104.08 46.0464ZM99.7407 42.2969C99.6004 42.5164 99.5674 42.7653 99.6415 43.0436C99.7157 43.3219 99.8681 43.5214 100.099 43.642C100.33 43.7627 100.604 43.7808 100.921 43.6964L101.976 43.4153L101.482 41.56L100.426 41.841C100.11 41.9255 99.8809 42.0774 99.7407 42.2969ZM109.068 44.7178L107.746 45.0699L106.171 39.1561L107.493 38.804L108.098 41.0767L110.638 40.4003L110.032 38.1275L111.354 37.7754L112.929 43.6893L111.607 44.0414L110.95 41.5715L108.41 42.2479L109.068 44.7178ZM116.72 38.4821C116.632 38.1497 116.456 37.9234 116.192 37.8032C115.934 37.6733 115.631 37.6547 115.283 37.7473C114.657 37.9141 114.327 38.2461 114.294 38.7434L113.042 39.077C112.998 38.5421 113.145 38.0518 113.482 37.6061C113.824 37.1507 114.343 36.8303 115.039 36.645C115.773 36.4494 116.407 36.4833 116.941 36.7468C117.483 37.0082 117.844 37.4791 118.025 38.1593L119.063 42.0555L117.834 42.3829L117.655 41.7103C117.366 42.3668 116.827 42.8 116.039 43.01C115.451 43.1665 114.916 43.1311 114.433 42.9037C113.956 42.6665 113.643 42.2657 113.492 41.7014C113.336 41.1139 113.423 40.6022 113.754 40.1663C114.091 39.7207 114.63 39.399 115.372 39.2013L116.81 38.8183L116.72 38.4821ZM116.041 41.8544C116.451 41.7453 116.768 41.5367 116.992 41.2286C117.215 40.9127 117.274 40.5616 117.171 40.175L117.076 39.8156L115.73 40.1739C115.383 40.2665 115.124 40.4141 114.954 40.6166C114.79 40.8092 114.743 41.037 114.813 41.2998C114.883 41.5627 115.031 41.7428 115.255 41.8403C115.478 41.93 115.74 41.9347 116.041 41.8544ZM118.809 35.7898L120.479 35.3451L123.5 39.1351L124.236 34.3444L125.882 33.9058L127.457 39.8196L126.182 40.1593L125.104 36.1124L124.402 40.6087L123.428 40.8681L120.585 37.3286L121.66 41.3639L120.384 41.7036L118.809 35.7898ZM52.5696 65.8516L57.7181 64.4803L59.2933 70.3941L57.9714 70.7462L56.7051 65.9919L54.2004 66.6591L55.4667 71.4133L54.1448 71.7654L52.5696 65.8516ZM62.1574 63.1488C62.8918 62.9532 63.5833 63.0629 64.232 63.4779C64.8884 63.8909 65.3453 64.5805 65.6026 65.5468C65.86 66.5131 65.8029 67.3397 65.4311 68.0265C65.0671 68.7113 64.514 69.1525 63.7719 69.3502C63.3622 69.4593 62.9831 69.4816 62.6348 69.4171C62.2921 69.3428 62.0165 69.2092 61.8078 69.0165L62.5738 71.8922L61.2519 72.2443L59.0868 64.1157L60.3623 63.776L60.5661 64.5413C60.7766 63.8395 61.307 63.3753 62.1574 63.1488ZM63.2396 68.2377C63.7035 68.1142 64.0282 67.8414 64.2138 67.4194C64.4051 66.9876 64.4236 66.4818 64.2691 65.902C64.1168 65.33 63.8502 64.9042 63.4695 64.6248C63.0965 64.3433 62.678 64.2644 62.2142 64.3879C61.7426 64.5135 61.4102 64.7884 61.2168 65.2124C61.0214 65.6287 61.0009 66.1268 61.1553 66.7066L61.1677 66.753C61.3221 67.3327 61.5887 67.7585 61.9673 68.0302C62.344 68.2941 62.7681 68.3633 63.2396 68.2377ZM66.497 62.9119C66.8858 62.1957 67.5131 61.7223 68.3789 61.4916C69.2447 61.261 70.0205 61.3607 70.7063 61.7907C71.3998 62.2186 71.8691 62.8925 72.1141 63.8125C72.3591 64.7324 72.2873 65.5504 71.8985 66.2666C71.5175 66.9808 70.894 67.4531 70.0282 67.6838C69.1624 67.9144 68.3828 67.8157 67.6893 67.3878C67.0035 66.9578 66.5381 66.2829 66.293 65.3629C66.048 64.443 66.116 63.626 66.497 62.9119ZM68.4262 66.285C68.807 66.5644 69.237 66.6402 69.7163 66.5126C70.1956 66.3849 70.527 66.1062 70.7106 65.6765C70.9019 65.2447 70.9214 64.7428 70.769 64.1707C70.6166 63.5987 70.3501 63.1729 69.9693 62.8935C69.5963 62.6121 69.1701 62.5351 68.6909 62.6628C68.2116 62.7905 67.8763 63.0702 67.685 63.502C67.5014 63.9317 67.4858 64.4326 67.6381 65.0047C67.7905 65.5767 68.0532 66.0035 68.4262 66.285ZM75.3977 59.8208C76.1785 59.6129 76.8834 59.7107 77.5125 60.1144C78.1493 60.516 78.5892 61.1729 78.8322 62.0851C79.0608 62.9432 78.9905 63.736 78.6213 64.4635C78.2578 65.1813 77.647 65.6544 76.7889 65.883C75.8303 66.1383 74.995 66.0172 74.283 65.5197C73.5689 65.0145 73.0584 64.186 72.7516 63.0341C72.3748 61.6195 72.3138 60.4891 72.5686 59.643C72.8214 58.7892 73.4516 58.1246 74.4592 57.6492L76.7421 56.5692L77.0633 57.7752L74.9559 58.7215C74.374 58.9924 73.9843 59.3321 73.7868 59.7407C73.5873 60.1416 73.541 60.6672 73.648 61.3176C73.9177 60.5586 74.501 60.0597 75.3977 59.8208ZM76.4135 64.7535C76.9006 64.6238 77.2369 64.348 77.4225 63.926C77.6138 63.4942 77.6354 63 77.4871 62.4434C77.343 61.9023 77.0826 61.4997 76.706 61.2358C76.335 60.962 75.9099 60.889 75.4306 61.0166C74.9513 61.1443 74.6052 61.4145 74.3922 61.8272C74.1772 62.2322 74.1439 62.713 74.2921 63.2696C74.4445 63.8416 74.711 64.2674 75.0918 64.5468C75.4782 64.8164 75.9188 64.8853 76.4135 64.7535ZM79.9218 64.9243L79.613 63.7648L79.7985 63.7153C80.1232 63.6289 80.3275 63.4792 80.4116 63.2664C80.5013 63.0438 80.5048 62.6993 80.4219 62.2329L79.7667 58.6074L84.1151 57.4492L85.6903 63.363L84.3684 63.7151L83.1021 58.9609L81.2352 59.4581L81.699 61.9921C81.8533 62.8203 81.8166 63.4593 81.5887 63.9091C81.3664 64.3491 80.9306 64.6556 80.2813 64.8286L79.9218 64.9243ZM91.5679 59.0406L87.405 60.1494L87.4112 60.1726C87.5327 60.6287 87.7805 60.9683 88.1545 61.1916C88.5286 61.4148 88.9514 61.4637 89.423 61.338C89.7476 61.2516 89.9968 61.1148 90.1706 60.9278C90.3499 60.731 90.4461 60.5481 90.459 60.3791L91.7578 60.0331C91.7844 60.5062 91.6287 60.9782 91.2905 61.4491C90.96 61.918 90.4276 62.2502 89.6932 62.4458C88.8119 62.6806 88.0315 62.5945 87.3519 62.1877C86.6702 61.7732 86.2028 61.0905 85.9495 60.1397C85.6962 59.1888 85.7583 58.3651 86.1357 57.6685C86.5111 56.9642 87.1201 56.4998 87.9627 56.2753C88.7744 56.0591 89.4948 56.1529 90.1239 56.5565C90.753 56.9602 91.1859 57.6066 91.4227 58.4956L91.5679 59.0406ZM88.2445 57.38C87.8271 57.4912 87.5199 57.7055 87.3229 58.0229C87.1337 58.3382 87.0764 58.7136 87.151 59.1491L89.9804 58.3954C89.8496 57.9667 89.6286 57.6654 89.3174 57.4916C89.0119 57.3081 88.6542 57.2709 88.2445 57.38ZM91.7065 55.4272L93.3763 54.9824L96.3976 58.7725L97.1333 53.9817L98.7799 53.5431L100.355 59.4569L99.0795 59.7967L98.0016 55.7498L97.2992 60.246L96.3252 60.5055L93.4824 56.9659L94.5572 61.0012L93.2817 61.341L91.7065 55.4272ZM104.147 54.2495C104.059 53.9171 103.882 53.6908 103.619 53.5706C103.36 53.4407 103.057 53.4221 102.71 53.5147C102.083 53.6815 101.754 54.0135 101.721 54.5108L100.468 54.8444C100.425 54.3095 100.572 53.8192 100.909 53.3735C101.251 52.9181 101.77 52.5977 102.466 52.4124C103.2 52.2168 103.834 52.2507 104.368 52.5142C104.909 52.7756 105.271 53.2465 105.452 53.9267L106.49 57.8229L105.261 58.1503L105.081 57.4777C104.793 58.1342 104.254 58.5674 103.466 58.7774C102.878 58.9339 102.343 58.8985 101.86 58.6711C101.383 58.4339 101.069 58.0331 100.919 57.4688C100.762 56.8813 100.85 56.3696 101.181 55.9337C101.517 55.4881 102.057 55.1664 102.799 54.9687L104.237 54.5857L104.147 54.2495ZM103.468 57.6218C103.878 57.5127 104.195 57.3041 104.419 56.996C104.641 56.6801 104.701 56.329 104.598 55.9424L104.502 55.583L103.157 55.9413C102.809 56.0339 102.551 56.1815 102.381 56.384C102.217 56.5766 102.17 56.8044 102.24 57.0672C102.31 57.3301 102.457 57.5102 102.682 57.6077C102.905 57.6974 103.167 57.7021 103.468 57.6218Z" fill="#0F1414"/>
<defs>
<linearGradient id="paint0_linear_201_828" x1="106.092" y1="0.486004" x2="122.367" y2="61.5874" gradientUnits="userSpaceOnUse">
<stop stop-color="#F9F9F9"/>
<stop offset="1" stop-color="#F4F4F4"/>
</linearGradient>
</defs>
</svg>
