<svg width="190" height="120" viewBox="0 0 190 120" fill="none" xmlns="http://www.w3.org/2000/svg">
<path fill-rule="evenodd" clip-rule="evenodd" d="M137.528 42.6024C144.933 44.8278 149.132 52.6346 146.907 60.0394L140.459 81.4938C138.234 88.8986 130.427 93.0973 123.022 90.872L97.4803 83.1959C96.4644 82.8906 95.3687 83.0013 94.4344 83.5038L88.3804 86.7599C85.9484 88.0679 82.9166 87.1567 81.6086 84.7247L78.3526 78.6707C77.8501 77.7364 76.997 77.04 75.981 76.7347L54.5653 70.2986C47.1605 68.0732 42.9618 60.2664 45.1871 52.8616L51.6348 31.4073C53.8602 24.0025 61.667 19.8037 69.0718 22.0291L137.528 42.6024Z" fill="url(#paint0_linear_201_859)"/>
<path d="M63.7712 35.2486L70.3004 37.2467L67.8282 45.3249L66.4627 44.907L68.5591 38.0566L64.761 36.8943L62.6646 43.7447L61.2991 43.3268L63.7712 35.2486ZM71.3572 40.7828C72.0659 40.3805 72.8487 40.3105 73.7055 40.5727C74.5622 40.8349 75.1679 41.3298 75.5225 42.0574C75.8848 42.7874 75.9266 43.6075 75.648 44.5179C75.3694 45.4282 74.8758 46.0845 74.1671 46.4867C73.466 46.8912 72.6871 46.9624 71.8303 46.7002C70.9735 46.438 70.364 45.9419 70.0017 45.212C69.6471 44.4844 69.6091 43.6654 69.8877 42.7551C70.1663 41.8447 70.6561 41.1873 71.3572 40.7828ZM71.2105 44.6658C71.3858 45.1043 71.7107 45.3961 72.185 45.5413C72.6592 45.6864 73.0879 45.6252 73.471 45.3576C73.8617 45.0923 74.1437 44.6766 74.317 44.1105C74.4902 43.5444 74.4891 43.0422 74.3138 42.6036C74.1461 42.1675 73.8251 41.8768 73.3508 41.7317C72.8765 41.5865 72.444 41.6466 72.0533 41.9119C71.6702 42.1795 71.392 42.5963 71.2188 43.1624C71.0456 43.7285 71.0428 44.2296 71.2105 44.6658ZM82.0826 48.4322L81.282 51.0484L80.0197 50.6621L80.4692 49.1934L76.3383 47.9292L75.8889 49.398L74.6266 49.0117L75.4273 46.3955L75.8977 46.5394C76.3005 46.4535 76.7046 45.9121 77.1101 44.9151L78.2095 42.1017L82.6732 43.4677L81.2335 48.1723L82.0826 48.4322ZM78.3353 45.3403C77.9903 46.2219 77.6444 46.7644 77.2976 46.9678L79.9254 47.772L81.0139 44.2148L79.0173 43.6038L78.3353 45.3403ZM85.4298 49.5945C85.8123 49.7116 86.1361 49.7061 86.4012 49.5781C86.6739 49.4524 86.8856 49.2662 87.0364 49.0195L88.3101 49.4093C88.0587 49.9849 87.6364 50.4079 87.0434 50.6781C86.4503 50.9484 85.7904 50.9724 85.0637 50.75C84.2145 50.4901 83.6165 49.9976 83.2696 49.2723C82.925 48.5394 82.8908 47.7216 83.167 46.8189C83.4409 45.9238 83.9219 45.2679 84.61 44.851C85.3058 44.4365 86.0821 44.3603 86.9388 44.6225C87.6809 44.8496 88.2132 45.2425 88.5358 45.8014C88.8607 46.3526 88.9736 46.9268 88.8745 47.5239L87.6008 47.1341C87.5963 46.8483 87.515 46.5808 87.357 46.3317C87.209 46.0772 86.9514 45.8938 86.5842 45.7814C86.1252 45.641 85.7042 45.7045 85.3211 45.9722C84.9456 46.2421 84.6713 46.6601 84.4981 47.2262C84.3225 47.8 84.3186 48.3049 84.4863 48.7411C84.6563 49.1696 84.9708 49.4541 85.4298 49.5945ZM89.9806 52.1041L88.6725 51.7038L90.4634 45.8517L91.7715 46.252L91.027 48.6846L94.0205 46.9402L95.5696 47.4143L92.2059 49.3842L93.8132 53.2769L92.2296 52.7924L90.8163 49.3731L89.9806 52.1041ZM99.0223 50.6294C99.123 50.3005 99.0931 50.0152 98.9328 49.7737C98.7824 49.5269 98.5351 49.3509 98.1909 49.2455C97.5712 49.0559 97.1159 49.1633 96.8247 49.5679L95.5855 49.1886C95.8318 48.7118 96.2156 48.3733 96.737 48.1731C97.2684 47.9677 97.8784 47.9703 98.5669 48.1809C99.2936 48.4033 99.8138 48.7675 100.127 49.2735C100.449 49.7817 100.506 50.3725 100.3 51.0456L99.1206 54.9011L97.9042 54.5289L98.1079 53.8634C97.5157 54.2678 96.8294 54.3506 96.0491 54.1118C95.4677 53.9339 95.0323 53.6207 94.7428 53.1724C94.4633 52.7188 94.409 52.2127 94.5799 51.6543C94.7578 51.0729 95.1025 50.6848 95.6139 50.4899C96.1353 50.2897 96.7632 50.302 97.4976 50.5267L98.9205 50.9622L99.0223 50.6294ZM96.6625 53.1324C97.068 53.2565 97.4473 53.2471 97.8006 53.1042C98.1562 52.9537 98.3926 52.6872 98.5096 52.3047L98.6185 51.949L97.2874 51.5417C96.9432 51.4363 96.6455 51.4247 96.3945 51.5068C96.1535 51.5837 95.9932 51.7521 95.9136 52.0122C95.834 52.2723 95.8637 52.5031 96.0028 52.7047C96.1443 52.8985 96.3642 53.0411 96.6625 53.1324ZM106.43 50.7378L105.671 53.2164L108.472 51.3629L109.976 51.8229L106.861 53.8815L108.219 57.6855L106.682 57.215L105.482 53.836L104.639 56.5899L103.354 56.1966L104.197 53.4427L101.311 55.5716L99.7852 55.1045L103.018 52.7431L101.599 49.2595L103.102 49.7195L104.386 52.8231L105.145 50.3445L106.43 50.7378ZM114.556 56.8389L110.437 55.5782L110.43 55.6012C110.292 56.0525 110.322 56.4719 110.522 56.8592C110.721 57.2465 111.054 57.5115 111.521 57.6543C111.842 57.7526 112.126 57.7684 112.372 57.7015C112.628 57.6294 112.807 57.525 112.907 57.3884L114.192 57.7817C113.965 58.1973 113.583 58.5155 113.047 58.7363C112.518 58.9594 111.891 58.9598 111.164 58.7374C110.292 58.4705 109.675 57.9847 109.314 57.2801C108.954 56.5678 108.919 55.7411 109.207 54.8002C109.495 53.8593 109.983 53.193 110.672 52.8014C111.363 52.4022 112.125 52.3301 112.959 52.5853C113.762 52.8311 114.324 53.2917 114.644 53.967C114.965 54.6423 114.99 55.4199 114.721 56.2996L114.556 56.8389ZM112.614 53.6719C112.201 53.5455 111.827 53.5649 111.492 53.7301C111.164 53.8976 110.917 54.1859 110.75 54.5949L113.55 55.4518C113.666 55.0187 113.638 54.6461 113.465 54.3341C113.303 54.0167 113.019 53.796 112.614 53.6719ZM116.585 53.8455L118.237 54.3512L118.797 59.1657L121.955 55.4889L123.584 55.9876L121.794 61.8397L120.531 61.4534L121.757 57.4487L118.783 60.8932L117.819 60.5982L117.278 56.0907L116.056 60.0839L114.794 59.6976L116.585 53.8455ZM64.6388 50.498L62.8479 56.3501L61.5627 55.9568L62.7532 52.0669L58.9121 55.1457L57.6499 54.7594L59.4408 48.9073L60.7259 49.3006L59.532 53.202L63.3766 50.1118L64.6388 50.498ZM68.2601 51.6062L73.3549 53.1654L71.564 59.0175L70.2559 58.6172L71.6956 53.9125L69.2171 53.154L67.7774 57.8587L66.4693 57.4584L68.2601 51.6062ZM74.9506 54.4317C75.6593 54.0295 76.442 53.9595 77.2988 54.2217C78.1556 54.4839 78.7613 54.9788 79.1159 55.7064C79.4781 56.4364 79.52 57.2565 79.2414 58.1669C78.9628 59.0772 78.4691 59.7335 77.7604 60.1357C77.0593 60.5402 76.2804 60.6114 75.4236 60.3492C74.5669 60.087 73.9573 59.5909 73.5951 58.861C73.2405 58.1334 73.2025 57.3144 73.4811 56.4041C73.7597 55.4937 74.2495 54.8363 74.9506 54.4317ZM74.8038 58.3148C74.9792 58.7533 75.304 59.0451 75.7783 59.1903C76.2526 59.3354 76.6813 59.2742 77.0644 59.0066C77.4551 58.7413 77.7371 58.3256 77.9103 57.7595C78.0836 57.1934 78.0825 56.6911 77.9071 56.2526C77.7394 55.8165 77.4184 55.5258 76.9441 55.3807C76.4699 55.2355 76.0373 55.2956 75.6466 55.5609C75.2635 55.8285 74.9854 56.2453 74.8121 56.8114C74.6389 57.3775 74.6361 57.8786 74.8038 58.3148ZM83.4278 56.2479L85.0802 56.7536L85.6398 61.5681L88.798 57.8914L90.4274 58.39L88.6365 64.2421L87.3743 63.8558L88.5998 59.8512L85.6257 63.2956L84.6618 63.0006L84.1212 58.4931L82.8992 62.4863L81.6369 62.1L83.4278 56.2479ZM95.8998 63.6789L91.7804 62.4183L91.7734 62.4412C91.6353 62.8925 91.6659 63.3119 91.8653 63.6992C92.0647 64.0865 92.3977 64.3515 92.8643 64.4943C93.1856 64.5926 93.4694 64.6084 93.7158 64.5416C93.9721 64.4694 94.1505 64.365 94.2508 64.2284L95.536 64.6217C95.3084 65.0373 94.9266 65.3555 94.3905 65.5763C93.8621 65.7994 93.2345 65.7998 92.5078 65.5774C91.6357 65.3105 91.0189 64.8247 90.6572 64.1201C90.298 63.4078 90.2623 62.5811 90.5502 61.6402C90.8382 60.6993 91.3265 60.033 92.0153 59.6414C92.7063 59.2422 93.4688 59.1701 94.3026 59.4253C95.1059 59.6711 95.6677 60.1317 95.9881 60.807C96.3085 61.4823 96.3341 62.2599 96.0649 63.1396L95.8998 63.6789ZM93.9576 60.5119C93.5445 60.3855 93.1704 60.4049 92.8354 60.5701C92.5081 60.7376 92.2609 61.0259 92.0939 61.4349L94.8937 62.2918C95.0095 61.8587 94.9813 61.4861 94.8091 61.1741C94.6468 60.8567 94.363 60.636 93.9576 60.5119ZM95.4662 66.3572L95.8173 65.2098L96.0009 65.266C96.3222 65.3643 96.5748 65.3454 96.7587 65.2092C96.9526 65.0678 97.1377 64.7772 97.3141 64.3376L98.6755 60.9141L102.978 62.2309L101.188 68.0831L99.8795 67.6827L101.319 62.9781L99.4718 62.4127L98.5252 64.8086C98.2182 65.5931 97.8491 66.116 97.4178 66.3772C96.9964 66.6331 96.4645 66.6628 95.8219 66.4661L95.4662 66.3572ZM104.585 63.5007C105.294 63.0985 106.077 63.0285 106.934 63.2907C107.79 63.5529 108.396 64.0478 108.751 64.7754C109.113 65.5054 109.155 66.3255 108.876 67.2359C108.598 68.1462 108.104 68.8025 107.395 69.2047C106.694 69.6092 105.915 69.6804 105.058 69.4182C104.202 69.156 103.592 68.6599 103.23 67.93C102.875 67.2024 102.837 66.3834 103.116 65.4731C103.394 64.5627 103.884 63.9053 104.585 63.5007ZM104.439 67.3838C104.614 67.8223 104.939 68.1141 105.413 68.2593C105.887 68.4044 106.316 68.3432 106.699 68.0756C107.09 67.8103 107.372 67.3946 107.545 66.8285C107.718 66.2624 107.717 65.7601 107.542 65.3216C107.374 64.8855 107.053 64.5948 106.579 64.4497C106.105 64.3045 105.672 64.3646 105.281 64.6299C104.898 64.8975 104.62 65.3143 104.447 65.8804C104.274 66.4465 104.271 66.9476 104.439 67.3838ZM114.134 65.6447L115.442 66.045L113.651 71.8971L112.343 71.4968L113.049 69.1904C112.644 69.284 112.177 69.25 111.649 69.0884C110.968 68.8801 110.478 68.5126 110.179 67.9861C109.88 67.4595 109.849 66.81 110.086 66.0373L110.542 64.5456L111.85 64.9459L111.422 66.3458C111.157 67.2103 111.45 67.7724 112.299 68.0323C112.681 68.1493 113.041 68.1758 113.379 68.1118L114.134 65.6447ZM119.621 69.4825C119.722 69.1535 119.692 68.8683 119.532 68.6268C119.381 68.38 119.134 68.204 118.79 68.0986C118.17 67.909 117.715 68.0164 117.424 68.421L116.184 68.0417C116.431 67.5649 116.814 67.2264 117.336 67.0262C117.867 66.8207 118.477 66.8233 119.166 67.034C119.892 67.2564 120.413 67.6206 120.726 68.1265C121.048 68.6348 121.105 69.2256 120.899 69.8987L119.719 73.7542L118.503 73.382L118.707 72.7165C118.114 73.1209 117.428 73.2037 116.648 72.9649C116.066 72.787 115.631 72.4738 115.342 72.0255C115.062 71.5719 115.008 71.0658 115.179 70.5074C115.357 69.926 115.701 69.5379 116.213 69.343C116.734 69.1428 117.362 69.1551 118.096 69.3798L119.519 69.8153L119.621 69.4825ZM117.261 71.9855C117.667 72.1096 118.046 72.1002 118.399 71.9573C118.755 71.8068 118.991 71.5403 119.108 71.1578L119.217 70.8021L117.886 70.3947C117.542 70.2894 117.244 70.2778 116.993 70.3599C116.752 70.4368 116.592 70.6052 116.512 70.8653C116.433 71.1254 116.463 71.3562 116.602 71.5578C116.743 71.7516 116.963 71.8942 117.261 71.9855ZM122.817 68.3022L124.47 68.8078L125.029 73.6224L128.188 69.9456L129.817 70.4442L128.026 76.2963L126.764 75.9101L127.989 71.9054L125.015 75.3498L124.051 75.0549L123.511 70.5474L122.289 74.5406L121.027 74.1543L122.817 68.3022Z" fill="white"/>
<defs>
<linearGradient id="paint0_linear_201_859" x1="120.239" y1="18.9848" x2="89.5909" y2="120.966" gradientUnits="userSpaceOnUse">
<stop stop-color="#66BEBE"/>
<stop offset="1" stop-color="#65DEA3"/>
</linearGradient>
</defs>
</svg>
