<svg width="190" height="120" viewBox="0 0 190 120" fill="none" xmlns="http://www.w3.org/2000/svg">
<path fill-rule="evenodd" clip-rule="evenodd" d="M147.504 36.6617C158.083 39.8408 164.081 50.9934 160.902 61.5717L153.936 84.7509C150.756 95.3293 139.604 101.327 129.026 98.1484L96.7859 88.4593C95.2619 88.0013 93.6184 88.1675 92.217 88.9212L82.8772 93.9445C80.9316 94.9909 78.5062 94.2619 77.4598 92.3163L72.4365 82.9766C71.6828 81.5751 70.4032 80.5305 68.8792 80.0725L46.1549 73.2432C35.5766 70.064 29.5784 58.9114 32.7575 48.3331L39.7236 25.1539C42.9027 14.5756 54.0553 8.57734 64.6336 11.7565L147.504 36.6617Z" fill="url(#paint0_linear_201_786)"/>
<path d="M51.2118 25.0122C51.5031 24.3066 51.9861 23.8353 52.661 23.5984C53.3358 23.3615 54.0557 23.3601 54.8207 23.5942C55.6469 23.8471 56.2481 24.2611 56.6242 24.8363C57.0027 25.4039 57.0889 26.0243 56.8829 26.6975C56.7518 27.1259 56.5247 27.458 56.2015 27.6937C55.886 27.9318 55.5589 28.0576 55.2202 28.0711C55.5363 28.2682 55.7982 28.5743 56.0059 28.9892C56.2135 29.4041 56.2354 29.8793 56.0716 30.4148C55.8492 31.1416 55.3962 31.6513 54.7126 31.9441C54.029 32.2369 53.2473 32.2486 52.3676 31.9794C51.4955 31.7125 50.8446 31.2833 50.415 30.6916C49.9953 30.0947 49.8607 29.4135 50.0113 28.6481L51.3653 29.0624C51.3288 29.4277 51.427 29.7631 51.6598 30.0686C51.8925 30.3741 52.2537 30.6018 52.7433 30.7516C53.2253 30.8991 53.639 30.9002 53.9847 30.755C54.3379 30.6121 54.5731 30.3495 54.6902 29.967C54.8119 29.5692 54.7605 29.2314 54.536 28.9535C54.3138 28.668 53.9656 28.4527 53.4913 28.3075L52.3323 27.9528L52.6975 26.7595L53.7417 27.079C54.1931 27.2171 54.5651 27.218 54.8578 27.0817C55.1582 26.9478 55.361 26.7087 55.4664 26.3644C55.5717 26.0202 55.5286 25.71 55.337 25.4338C55.1478 25.15 54.8466 24.9449 54.4335 24.8185C54.0128 24.6897 53.6354 24.6789 53.3015 24.7858C52.97 24.8851 52.7171 25.0964 52.5429 25.4196L51.2118 25.0122ZM61.0368 30.2402C61.1375 29.9112 61.1076 29.626 60.9473 29.3845C60.7969 29.1377 60.5496 28.9616 60.2054 28.8563C59.5858 28.6666 59.1304 28.7741 58.8393 29.1786L57.6 28.7994C57.8463 28.3226 58.2302 27.9841 58.7516 27.7839C59.2829 27.5784 59.8929 27.581 60.5814 27.7917C61.3081 28.0141 61.8283 28.3783 62.142 28.8842C62.4633 29.3925 62.521 29.9832 62.315 30.6564L61.1351 34.5119L59.9188 34.1397L60.1224 33.4741C59.5302 33.8785 58.8439 33.9613 58.0636 33.7225C57.4822 33.5446 57.0468 33.2315 56.7573 32.7832C56.4778 32.3295 56.4235 31.8235 56.5944 31.265C56.7724 30.6837 57.117 30.2955 57.6284 30.1007C58.1498 29.9005 58.7777 29.9127 59.5121 30.1375L60.935 30.5729L61.0368 30.2402ZM58.6771 32.7432C59.0825 32.8673 59.4619 32.8579 59.8151 32.715C60.1707 32.5645 60.4071 32.2979 60.5241 31.9155L60.633 31.5597L59.3019 31.1524C58.9577 31.0471 58.66 31.0355 58.409 31.1176C58.168 31.1944 58.0077 31.3629 57.9281 31.623C57.8485 31.8831 57.8782 32.1139 58.0174 32.3154C58.1588 32.5093 58.3787 32.6519 58.6771 32.7432ZM71.0985 36.306L70.2979 38.9223L69.0357 38.536L69.4852 37.0672L65.3543 35.8031L64.9048 37.2718L63.6426 36.8856L64.4432 34.2693L64.9137 34.4133C65.3164 34.3274 65.7206 33.786 66.1261 32.789L67.2255 29.9756L71.6892 31.3416L70.2494 36.0462L71.0985 36.306ZM67.3513 33.2141C67.0062 34.0957 66.6603 34.6383 66.3136 34.8417L68.9413 35.6459L70.0299 32.0887L68.0333 31.4777L67.3513 33.2141ZM71.6315 37.7241L73.4224 31.872L76.0501 32.6761C76.6774 32.8681 77.1122 33.1559 77.3545 33.5396C77.5968 33.9233 77.6501 34.337 77.5143 34.7807C77.416 35.102 77.2537 35.3452 77.0275 35.5102C76.8113 35.6699 76.5744 35.7606 76.3168 35.7821C76.5894 35.9576 76.7877 36.1981 76.9117 36.5038C77.0433 36.8118 77.0518 37.1532 76.9371 37.5281C76.7873 38.0176 76.4808 38.3631 76.0176 38.5644C75.5644 38.7603 75.0165 38.76 74.3739 38.5633L71.6315 37.7241ZM74.9788 36.0127L73.6822 35.6159L73.2257 37.1076L74.5223 37.5044C74.813 37.5933 75.0547 37.5962 75.2475 37.513C75.4503 37.4245 75.588 37.2616 75.6606 37.0245C75.8104 36.5349 75.5831 36.1976 74.9788 36.0127ZM75.5804 33.6367L74.3985 33.275L73.9842 34.629L75.1661 34.9907C75.4185 35.068 75.6323 35.0665 75.8075 34.9862C75.9903 34.9083 76.1144 34.7623 76.18 34.5481C76.3158 34.1044 76.1159 33.8006 75.5804 33.6367ZM82.0709 36.6771C82.1716 36.3482 82.1418 36.063 81.9814 35.8215C81.8311 35.5747 81.5838 35.3986 81.2395 35.2933C80.6199 35.1036 80.1645 35.2111 79.8734 35.6156L78.6341 35.2363C78.8804 34.7595 79.2643 34.4211 79.7857 34.2209C80.3171 34.0154 80.927 34.018 81.6155 34.2287C82.3422 34.4511 82.8624 34.8152 83.1761 35.3212C83.4974 35.8295 83.5551 36.4202 83.3491 37.0934L82.1692 40.9489L80.9529 40.5767L81.1566 39.9111C80.5643 40.3155 79.878 40.3983 79.0977 40.1595C78.5164 39.9816 78.0809 39.6685 77.7915 39.2201C77.512 38.7665 77.4577 38.2605 77.6286 37.702C77.8065 37.1206 78.1512 36.7325 78.6626 36.5376C79.184 36.3374 79.8119 36.3497 80.5462 36.5745L81.9691 37.0099L82.0709 36.6771ZM79.7112 39.1802C80.1166 39.3042 80.496 39.2948 80.8493 39.152C81.2049 39.0014 81.4412 38.7349 81.5583 38.3524L81.6671 37.9967L80.3361 37.5894C79.9918 37.484 79.6942 37.4724 79.4432 37.5546C79.2021 37.6314 79.0418 37.7999 78.9622 38.06C78.8826 38.32 78.9124 38.5509 79.0515 38.7524C79.1929 38.9463 79.4128 39.0889 79.7112 39.1802ZM92.1327 42.743L91.332 45.3593L90.0698 44.973L90.5193 43.5042L86.3884 42.2401L85.9389 43.7088L84.6767 43.3226L85.4773 40.7063L85.9478 40.8503C86.3506 40.7644 86.7547 40.223 87.1602 39.226L88.2596 36.4125L92.7233 37.7785L91.2835 42.4832L92.1327 42.743ZM88.3854 39.6511C88.0403 40.5327 87.6944 41.0753 87.3477 41.2787L89.9754 42.0828L91.064 38.5257L89.0674 37.9147L88.3854 39.6511ZM93.9737 44.5614L92.6656 44.161L94.4565 38.3089L95.7646 38.7093L95.0764 40.9583L97.5893 41.7273L98.2776 39.4783L99.5857 39.8786L97.7948 45.7307L96.4867 45.3304L97.2347 42.8863L94.7217 42.1172L93.9737 44.5614ZM103.589 47.5039L102.292 47.1071L102.872 45.2138L101.988 44.9434L100.066 46.4259L98.5976 45.9764L100.717 44.341C100.407 44.0703 100.196 43.7465 100.086 43.3697C99.9849 42.9875 99.9955 42.5976 100.117 42.1998C100.293 41.626 100.624 41.2129 101.111 40.9604C101.609 40.7026 102.198 40.6779 102.878 40.8863L105.38 41.6518L103.589 47.5039ZM101.889 42.0268C101.654 42.1389 101.495 42.3326 101.41 42.608C101.326 42.8834 101.35 43.1334 101.482 43.3579C101.614 43.5823 101.837 43.7426 102.151 43.8385L103.195 44.1581L103.757 42.3221L102.713 42.0026C102.399 41.9066 102.125 41.9147 101.889 42.0268ZM113.604 49.3137L112.803 51.93L111.541 51.5437L111.99 50.0749L107.86 48.8108L107.41 50.2795L106.148 49.8933L106.949 47.277L107.419 47.421C107.822 47.3351 108.226 46.7937 108.631 45.7967L109.731 42.9833L114.194 44.3493L112.755 49.0539L113.604 49.3137ZM109.857 46.2218C109.511 47.1034 109.166 47.646 108.819 47.8494L111.447 48.6536L112.535 45.0964L110.539 44.4854L109.857 46.2218ZM116.158 45.7281C116.866 45.3259 117.649 45.2559 118.506 45.5181C119.363 45.7803 119.968 46.2752 120.323 47.0028C120.685 47.7328 120.727 48.5529 120.449 49.4632C120.17 50.3736 119.676 51.0298 118.968 51.4321C118.267 51.8366 117.488 51.9078 116.631 51.6456C115.774 51.3834 115.165 50.8873 114.802 50.1574C114.448 49.4297 114.41 48.6108 114.688 47.7004C114.967 46.7901 115.457 46.1327 116.158 45.7281ZM116.011 49.6112C116.186 50.0497 116.511 50.3415 116.985 50.4867C117.46 50.6318 117.888 50.5706 118.272 50.3029C118.662 50.0377 118.944 49.622 119.117 49.0559C119.291 48.4898 119.29 47.9875 119.114 47.549C118.947 47.1128 118.626 46.8222 118.151 46.677C117.677 46.5319 117.245 46.592 116.854 46.8572C116.471 47.1249 116.193 47.5417 116.019 48.1078C115.846 48.6739 115.843 49.175 116.011 49.6112ZM126.91 48.2404L125.47 52.945L127.398 53.535L128.837 48.8304L130.145 49.2307L128.355 55.0828L120.575 52.7019L122.366 46.8498L123.674 47.2502L122.234 51.9548L124.162 52.5447L125.601 47.8401L126.91 48.2404ZM129.087 55.3319L129.438 54.1844L129.621 54.2406C129.943 54.3389 130.195 54.32 130.379 54.1839C130.573 54.0424 130.758 53.7519 130.934 53.3122L132.296 49.8888L136.599 51.2056L134.808 57.0577L133.5 56.6574L134.94 51.9527L133.092 51.3874L132.146 53.7833C131.839 54.5678 131.469 55.0906 131.038 55.3519C130.617 55.6078 130.085 55.6374 129.442 55.4407L129.087 55.3319ZM143.163 53.2142L141.372 59.0663L140.086 58.673L141.277 54.7831L137.436 57.8619L136.174 57.4756L137.964 51.6235L139.25 52.0168L138.056 55.9182L141.9 52.828L143.163 53.2142ZM52.5426 43.1768L51.7419 45.793L50.4797 45.4067L50.9292 43.938L46.7983 42.6738L46.3488 44.1426L45.0866 43.7563L45.8872 41.1401L46.3577 41.284C46.7605 41.1981 47.1646 40.6567 47.5701 39.6597L48.6695 36.8463L53.1332 38.2123L51.6934 42.9169L52.5426 43.1768ZM48.7953 40.0849C48.4502 40.9665 48.1043 41.509 47.7576 41.7125L50.3853 42.5166L51.4739 38.9594L49.4773 38.3484L48.7953 40.0849ZM55.0965 39.5912C55.8052 39.1889 56.5879 39.1189 57.4447 39.3811C58.3015 39.6433 58.9072 40.1382 59.2618 40.8659C59.624 41.5958 59.6659 42.416 59.3873 43.3263C59.1087 44.2366 58.615 44.8929 57.9063 45.2951C57.2053 45.6996 56.4263 45.7708 55.5695 45.5086C54.7128 45.2464 54.1033 44.7504 53.741 44.0204C53.3864 43.2928 53.3484 42.4738 53.627 41.5635C53.9056 40.6532 54.3954 39.9957 55.0965 39.5912ZM54.9498 43.4742C55.1251 43.9127 55.4499 44.2045 55.9242 44.3497C56.3985 44.4948 56.8272 44.4336 57.2103 44.166C57.601 43.9007 57.883 43.485 58.0562 42.9189C58.2295 42.3529 58.2284 41.8506 58.053 41.412C57.8853 40.9759 57.5643 40.6852 57.0901 40.5401C56.6158 40.3949 56.1833 40.455 55.7925 40.7203C55.4094 40.9879 55.1313 41.4047 54.958 41.9708C54.7848 42.5369 54.782 43.038 54.9498 43.4742ZM66.6911 42.2108C67.4178 42.4332 67.9467 42.892 68.2777 43.5873C68.6164 44.285 68.6394 45.1119 68.3468 46.0681C68.0542 47.0243 67.5685 47.6956 66.8897 48.0819C66.2186 48.4705 65.5159 48.5525 64.7815 48.3277C64.3761 48.2036 64.0426 48.0221 63.7811 47.7831C63.5295 47.5388 63.3662 47.2797 63.2911 47.0057L62.4203 49.8515L61.1121 49.4511L63.5737 41.4074L64.836 41.7936L64.6042 42.551C65.154 42.0666 65.8496 41.9532 66.6911 42.2108ZM64.9181 47.1021C65.3771 47.2425 65.797 47.1828 66.1777 46.9228C66.5685 46.6575 66.8516 46.238 67.0272 45.6643C67.2004 45.0982 67.1994 44.5959 67.024 44.1574C66.8563 43.7212 66.543 43.4329 66.084 43.2925C65.6173 43.1496 65.1898 43.2071 64.8014 43.4647C64.4154 43.7147 64.1346 44.1265 63.959 44.7002L63.945 44.7461C63.7694 45.3199 63.7704 45.8222 63.9481 46.253C64.1282 46.6762 64.4515 46.9593 64.9181 47.1021ZM74.3761 48.3274L70.2566 47.0667L70.2496 47.0897C70.1115 47.541 70.1421 47.9603 70.3415 48.3476C70.5409 48.7349 70.8739 49 71.3406 49.1428C71.6619 49.2411 71.9457 49.2568 72.192 49.19C72.4484 49.1179 72.6267 49.0135 72.7271 48.8769L74.0122 49.2702C73.7847 49.6858 73.4028 50.004 72.8668 50.2248C72.3383 50.4479 71.7108 50.4483 70.984 50.2259C70.112 49.959 69.4951 49.4732 69.1335 48.7685C68.7742 48.0562 68.7385 47.2296 69.0265 46.2887C69.3144 45.3477 69.8028 44.6815 70.4915 44.2899C71.1826 43.8906 71.945 43.8186 72.7789 44.0738C73.5821 44.3196 74.1439 44.7802 74.4643 45.4555C74.7847 46.1308 74.8103 46.9083 74.5411 47.788L74.3761 48.3274ZM72.4338 45.1604C72.0207 45.0339 71.6467 45.0533 71.3117 45.2185C70.9843 45.3861 70.7371 45.6744 70.5701 46.0834L73.3699 46.9402C73.4857 46.5071 73.4575 46.1346 73.2853 45.8225C73.1231 45.5052 72.8392 45.2844 72.4338 45.1604ZM75.5712 46.8735C75.8033 46.3337 76.193 45.9761 76.7403 45.8006C77.2953 45.6274 77.8941 45.6392 78.5367 45.8358C79.164 46.0278 79.6335 46.3388 79.9453 46.7689C80.2571 47.1989 80.3357 47.6664 80.1812 48.1713C79.9939 48.7833 79.581 49.1212 78.9423 49.1851C79.2066 49.3329 79.4108 49.5544 79.5547 49.8494C79.7087 50.1392 79.726 50.4791 79.6066 50.8692C79.4404 51.4124 79.0801 51.7832 78.5257 51.9816C77.979 52.1825 77.35 52.174 76.6385 51.9563C75.9501 51.7456 75.4305 51.4067 75.0798 50.9396C74.7291 50.4726 74.6045 49.9367 74.7059 49.3319L75.9796 49.7216C75.9636 49.9928 76.0416 50.23 76.2136 50.4333C76.3957 50.6312 76.6473 50.7793 76.9686 50.8777C77.3052 50.9807 77.594 50.9938 77.8351 50.9169C78.0784 50.8324 78.2388 50.664 78.316 50.4115C78.4612 49.9372 78.1704 49.5889 77.4436 49.3665L76.583 49.1031L76.8991 48.0704L77.6908 48.3127C77.9968 48.4064 78.2489 48.4166 78.447 48.3433C78.6551 48.2648 78.7942 48.1108 78.8645 47.8813C78.9323 47.6594 78.897 47.4604 78.7586 47.2841C78.6277 47.1102 78.4208 46.98 78.1377 46.8934C77.8394 46.8021 77.5747 46.7922 77.3437 46.8637C77.1126 46.9352 76.9387 47.0661 76.822 47.2562L75.5712 46.8735ZM85.6886 48.1751L87.1 48.607L81.4829 55.6851L80.083 55.2567L81.6918 53.2392L81.202 46.8021L82.6134 47.234L82.8693 51.8928L85.6886 48.1751ZM85.115 54.4248L85.4662 53.2773L85.6498 53.3335C85.9711 53.4318 86.2237 53.4129 86.4075 53.2768C86.6014 53.1353 86.7866 52.8448 86.9629 52.4051L88.3243 48.9817L92.6273 50.2985L90.8364 56.1506L89.5283 55.7503L90.9681 51.0457L89.1206 50.4803L88.1741 52.8762C87.8671 53.6607 87.4979 54.1836 87.0666 54.4448C86.6453 54.7007 86.1133 54.7303 85.4707 54.5337L85.115 54.4248ZM95.2896 51.1132L94.7453 52.8918L95.9157 53.25C96.5659 53.449 97.0276 53.7994 97.3007 54.3013C97.5761 54.7955 97.6237 55.3371 97.4434 55.9262C97.2608 56.5229 96.9109 56.9554 96.3938 57.2238C95.8866 57.4869 95.3117 57.5201 94.6691 57.3235L92.202 56.5685L93.9929 50.7164L95.2896 51.1132ZM95.4179 54.3024L94.4082 53.9934L93.8323 55.8752L94.842 56.1842C95.1557 56.2802 95.4286 56.2633 95.6607 56.1336C95.9005 56.0062 96.0625 55.8048 96.1468 55.5294C96.2311 55.254 96.2072 55.004 96.0751 54.7796C95.9506 54.5574 95.7316 54.3984 95.4179 54.3024ZM98.2088 53.2615L98.5599 52.114L103.609 53.6591L103.258 54.8066L101.387 54.2342L99.9475 58.9388L98.6394 58.5385L100.079 53.8339L98.2088 53.2615ZM107.219 56.9225C107.32 56.5936 107.29 56.3083 107.13 56.0668C106.979 55.82 106.732 55.644 106.388 55.5386C105.768 55.349 105.313 55.4564 105.022 55.861L103.782 55.4817C104.029 55.0049 104.413 54.6664 104.934 54.4662C105.465 54.2607 106.075 54.2633 106.764 54.474C107.491 54.6964 108.011 55.0606 108.324 55.5665C108.646 56.0748 108.703 56.6656 108.497 57.3387L107.318 61.1942L106.101 60.822L106.305 60.1565C105.713 60.5609 105.026 60.6437 104.246 60.4049C103.665 60.227 103.229 59.9138 102.94 59.4655C102.66 59.0119 102.606 58.5058 102.777 57.9474C102.955 57.366 103.299 56.9779 103.811 56.783C104.332 56.5828 104.96 56.5951 105.695 56.8198L107.117 57.2553L107.219 56.9225ZM104.86 59.4255C105.265 59.5496 105.644 59.5402 105.998 59.3973C106.353 59.2468 106.59 58.9803 106.707 58.5978L106.815 58.2421L105.484 57.8347C105.14 57.7294 104.843 57.7178 104.591 57.7999C104.35 57.8768 104.19 58.0452 104.111 58.3053C104.031 58.5654 104.061 58.7962 104.2 58.9978C104.341 59.1916 104.561 59.3342 104.86 59.4255ZM109.505 56.7183L109.856 55.5709L114.905 57.1159L114.554 58.2634L112.683 57.691L111.243 62.3957L109.935 61.9953L111.375 57.2907L109.505 56.7183ZM118.515 60.3793C118.616 60.0504 118.586 59.7652 118.426 59.5237C118.275 59.2769 118.028 59.1008 117.684 58.9954C117.064 58.8058 116.609 58.9133 116.318 59.3178L115.078 58.9385C115.325 58.4617 115.708 58.1232 116.23 57.9231C116.761 57.7176 117.371 57.7202 118.06 57.9309C118.786 58.1533 119.307 58.5174 119.62 59.0234C119.942 59.5316 119.999 60.1224 119.793 60.7956L118.613 64.6511L117.397 64.2788L117.601 63.6133C117.008 64.0177 116.322 64.1005 115.542 63.8617C114.961 63.6838 114.525 63.3707 114.236 62.9223C113.956 62.4687 113.902 61.9626 114.073 61.4042C114.251 60.8228 114.595 60.4347 115.107 60.2398C115.628 60.0396 116.256 60.0519 116.99 60.2767L118.413 60.7121L118.515 60.3793ZM116.155 62.8824C116.561 63.0064 116.94 62.997 117.293 62.8542C117.649 62.7036 117.885 62.4371 118.002 62.0546L118.111 61.6989L116.78 61.2916C116.436 61.1862 116.138 61.1746 115.887 61.2568C115.646 61.3336 115.486 61.502 115.406 61.7621C115.327 62.0222 115.357 62.253 115.496 62.4546C115.637 62.6485 115.857 62.7911 116.155 62.8824ZM123.981 59.8935L129.076 61.4526L127.285 67.3047L125.977 66.9044L127.416 62.1998L124.938 61.4413L123.498 66.1459L122.19 65.7456L123.981 59.8935ZM130.671 62.719C131.38 62.3168 132.163 62.2468 133.02 62.509C133.876 62.7712 134.482 63.2661 134.837 63.9937C135.199 64.7236 135.241 65.5438 134.962 66.4541C134.684 67.3644 134.19 68.0207 133.481 68.4229C132.78 68.8275 132.001 68.8987 131.144 68.6365C130.288 68.3743 129.678 67.8782 129.316 67.1482C128.961 66.4206 128.923 65.6016 129.202 64.6913C129.48 63.781 129.97 63.1235 130.671 62.719ZM130.525 66.602C130.7 67.0405 131.025 67.3324 131.499 67.4775C131.973 67.6227 132.402 67.5614 132.785 67.2938C133.176 67.0285 133.458 66.6129 133.631 66.0468C133.804 65.4807 133.803 64.9784 133.628 64.5399C133.46 64.1037 133.139 63.8131 132.665 63.6679C132.191 63.5228 131.758 63.5828 131.367 63.8481C130.984 64.1157 130.706 64.5326 130.533 65.0987C130.36 65.6647 130.357 66.1659 130.525 66.602ZM45.4697 53.6997C45.8521 53.8167 46.1759 53.8112 46.441 53.6832C46.7137 53.5575 46.9255 53.3713 47.0763 53.1246L48.3499 53.5144C48.0985 54.09 47.6762 54.513 47.0832 54.7833C46.4901 55.0535 45.8302 55.0775 45.1035 54.8551C44.2544 54.5952 43.6563 54.1027 43.3094 53.3774C42.9648 52.6445 42.9306 51.8267 43.2068 50.924C43.4807 50.029 43.9618 49.373 44.6499 48.9561C45.3456 48.5416 46.1219 48.4654 46.9787 48.7276C47.7207 48.9547 48.253 49.3476 48.5756 49.9065C48.9005 50.4577 49.0134 51.0319 48.9144 51.629L47.6407 51.2393C47.6361 50.9534 47.5548 50.6859 47.3968 50.4368C47.2488 50.1823 46.9912 49.9989 46.624 49.8865C46.165 49.7461 45.744 49.8097 45.3609 50.0773C44.9855 50.3472 44.7111 50.7652 44.5379 51.3313C44.3623 51.9051 44.3584 52.41 44.5261 52.8462C44.6961 53.2747 45.0107 53.5592 45.4697 53.6997ZM50.7445 50.8087C51.4532 50.4065 52.236 50.3365 53.0927 50.5987C53.9495 50.8608 54.5552 51.3558 54.9098 52.0834C55.272 52.8133 55.3139 53.6335 55.0353 54.5438C54.7567 55.4541 54.2631 56.1104 53.5543 56.5126C52.8533 56.9172 52.0743 56.9883 51.2176 56.7261C50.3608 56.464 49.7513 55.9679 49.389 55.2379C49.0344 54.5103 48.9964 53.6913 49.275 52.781C49.5536 51.8707 50.0434 51.2132 50.7445 50.8087ZM50.5978 54.6917C50.7731 55.1302 51.0979 55.4221 51.5722 55.5672C52.0465 55.7123 52.4752 55.6511 52.8583 55.3835C53.249 55.1182 53.531 54.7025 53.7042 54.1365C53.8775 53.5704 53.8764 53.0681 53.7011 52.6296C53.5333 52.1934 53.2124 51.9027 52.7381 51.7576C52.2638 51.6125 51.8313 51.6725 51.4405 51.9378C51.0575 52.2054 50.7793 52.6223 50.6061 53.1883C50.4328 53.7544 50.4301 54.2556 50.5978 54.6917ZM55.1615 57.7825L56.9524 51.9304L59.5801 52.7345C60.2073 52.9265 60.6421 53.2143 60.8845 53.598C61.1268 53.9817 61.1801 54.3954 61.0443 54.8391C60.946 55.1604 60.7837 55.4036 60.5575 55.5686C60.3413 55.7283 60.1044 55.819 59.8468 55.8406C60.1194 56.016 60.3177 56.2566 60.4417 56.5622C60.5733 56.8702 60.5818 57.2116 60.4671 57.5865C60.3172 58.0761 60.0107 58.4215 59.5476 58.6228C59.0944 58.8187 58.5465 58.8184 57.9039 58.6217L55.1615 57.7825ZM58.5088 56.0711L57.2121 55.6743L56.7556 57.166L58.0523 57.5628C58.343 57.6518 58.5847 57.6546 58.7775 57.5714C58.9803 57.4829 59.118 57.32 59.1906 57.0829C59.3404 56.5933 59.1131 56.256 58.5088 56.0711ZM59.1104 53.6951L57.9285 53.3335L57.5141 54.6875L58.696 55.0492C58.9485 55.1264 59.1623 55.1249 59.3374 55.0447C59.5202 54.9667 59.6444 54.8207 59.71 54.6065C59.8457 54.1628 59.6459 53.859 59.1104 53.6951ZM66.8918 58.5863L62.7724 57.3257L62.7654 57.3486C62.6273 57.8 62.6579 58.2193 62.8573 58.6066C63.0567 58.9939 63.3897 59.2589 63.8564 59.4018C64.1776 59.5001 64.4615 59.5158 64.7078 59.449C64.9641 59.3768 65.1425 59.2725 65.2429 59.1358L66.528 59.5291C66.3004 59.9447 65.9186 60.2629 65.3825 60.4837C64.8541 60.7069 64.2265 60.7072 63.4998 60.4848C62.6277 60.2179 62.0109 59.7322 61.6493 59.0275C61.29 58.3152 61.2543 57.4886 61.5423 56.5476C61.8302 55.6067 62.3185 54.9405 63.0073 54.5489C63.6984 54.1496 64.4608 54.0776 65.2947 54.3327C66.0979 54.5786 66.6597 55.0391 66.9801 55.7144C67.3005 56.3898 67.3261 57.1673 67.0569 58.047L66.8918 58.5863ZM64.9496 55.4193C64.5365 55.2929 64.1624 55.3123 63.8274 55.4775C63.5001 55.645 63.2529 55.9333 63.0859 56.3424L65.8857 57.1992C66.0015 56.7661 65.9733 56.3936 65.8011 56.0815C65.6389 55.7641 65.355 55.5434 64.9496 55.4193ZM67.9199 56.5417L68.2711 55.3942L73.32 56.9393L72.9688 58.0868L71.0984 57.5144L69.6587 62.219L68.3506 61.8187L69.7903 57.1141L67.9199 56.5417ZM76.9304 60.2027C77.0311 59.8737 77.0012 59.5885 76.8409 59.347C76.6905 59.1002 76.4432 58.9241 76.099 58.8188C75.4793 58.6292 75.024 58.7366 74.7329 59.1411L73.4936 58.7619C73.7399 58.2851 74.1237 57.9466 74.6451 57.7464C75.1765 57.5409 75.7865 57.5435 76.475 57.7542C77.2017 57.9766 77.7219 58.3408 78.0356 58.8467C78.3569 59.355 78.4146 59.9457 78.2086 60.6189L77.0287 64.4744L75.8124 64.1022L76.016 63.4367C75.4238 63.841 74.7375 63.9238 73.9572 63.6851C73.3758 63.5071 72.9404 63.194 72.6509 62.7457C72.3714 62.292 72.3171 61.786 72.488 61.2276C72.666 60.6462 73.0106 60.258 73.522 60.0632C74.0434 59.863 74.6713 59.8753 75.4057 60.1L76.8286 60.5354L76.9304 60.2027ZM74.5707 62.7057C74.9761 62.8298 75.3554 62.8204 75.7087 62.6775C76.0643 62.527 76.3007 62.2605 76.4177 61.878L76.5266 61.5223L75.1955 61.1149C74.8513 61.0096 74.5536 60.998 74.3026 61.0801C74.0616 61.1569 73.9013 61.3254 73.8217 61.5855C73.7421 61.8456 73.7718 62.0764 73.911 62.2779C74.0524 62.4718 74.2723 62.6144 74.5707 62.7057ZM80.1268 59.0224L81.7791 59.528L82.3388 64.3425L85.497 60.6658L87.1264 61.1644L85.3355 67.0165L84.0732 66.6302L85.2988 62.6256L82.3246 66.07L81.3608 65.775L80.8201 61.2675L79.5981 65.2607L78.3359 64.8745L80.1268 59.0224ZM90.7503 62.2734L92.4027 62.7791L92.9623 67.5936L96.1205 63.9168L97.7499 64.4155L95.959 70.2676L94.6968 69.8813L95.9223 65.8766L92.9482 69.3211L91.9843 69.0261L91.4437 64.5186L90.2216 68.5118L88.9594 68.1255L90.7503 62.2734ZM103.222 69.7044L99.1029 68.4437L99.0959 68.4667C98.9577 68.918 98.9884 69.3373 99.1878 69.7246C99.3872 70.1119 99.7202 70.377 100.187 70.5198C100.508 70.6181 100.792 70.6339 101.038 70.567C101.295 70.4949 101.473 70.3905 101.573 70.2539L102.858 70.6472C102.631 71.0628 102.249 71.381 101.713 71.6018C101.185 71.8249 100.557 71.8253 99.8303 71.6029C98.9582 71.336 98.3413 70.8502 97.9797 70.1456C97.6204 69.4332 97.5848 68.6066 97.8727 67.6657C98.1607 66.7248 98.649 66.0585 99.3377 65.6669C100.029 65.2677 100.791 65.1956 101.625 65.4508C102.428 65.6966 102.99 66.1572 103.311 66.8325C103.631 67.5078 103.657 68.2853 103.387 69.1651L103.222 69.7044ZM101.28 66.5374C100.867 66.411 100.493 66.4304 100.158 66.5956C99.8305 66.7631 99.5834 67.0514 99.4163 67.4604L102.216 68.3172C102.332 67.8842 102.304 67.5116 102.132 67.1995C101.969 66.8822 101.685 66.6615 101.28 66.5374ZM104.768 72.9634L103.46 72.5631L105.251 66.711L106.559 67.1113L105.871 69.3604L108.384 70.1294L109.072 67.8804L110.38 68.2807L108.589 74.1328L107.281 73.7325L108.029 71.2883L105.516 70.5193L104.768 72.9634ZM110.924 69.7019L111.275 68.5544L116.324 70.0995L115.973 71.247L114.102 70.6746L112.662 75.3792L111.354 74.9789L112.794 70.2743L110.924 69.7019ZM117.236 71.1569C117.945 70.7547 118.728 70.6847 119.585 70.9469C120.441 71.2091 121.047 71.704 121.402 72.4316C121.764 73.1615 121.806 73.9817 121.527 74.892C121.249 75.8023 120.755 76.4586 120.046 76.8608C119.345 77.2654 118.566 77.3366 117.709 77.0744C116.853 76.8122 116.243 76.3161 115.881 75.5861C115.526 74.8585 115.488 74.0395 115.767 73.1292C116.045 72.2189 116.535 71.5615 117.236 71.1569ZM117.09 75.0399C117.265 75.4785 117.59 75.7703 118.064 75.9154C118.538 76.0606 118.967 75.9993 119.35 75.7317C119.741 75.4664 120.023 75.0508 120.196 74.4847C120.369 73.9186 120.368 73.4163 120.193 72.9778C120.025 72.5416 119.704 72.251 119.23 72.1058C118.756 71.9607 118.323 72.0207 117.932 72.286C117.549 72.5536 117.271 72.9705 117.098 73.5366C116.925 74.1026 116.922 74.6038 117.09 75.0399ZM126.562 73.082C127.288 73.3044 127.817 73.7633 128.148 74.4586C128.487 75.1562 128.51 75.9831 128.217 76.9394C127.925 77.8956 127.439 78.5668 126.76 78.9531C126.089 79.3418 125.386 79.4237 124.652 79.199C124.247 79.0749 123.913 78.8934 123.652 78.6544C123.4 78.4101 123.237 78.1509 123.162 77.877L122.291 80.7227L120.983 80.3224L123.444 72.2786L124.706 72.6649L124.475 73.4222C125.025 72.9379 125.72 72.8245 126.562 73.082ZM124.789 77.9733C125.248 78.1138 125.668 78.054 126.048 77.794C126.439 77.5288 126.722 77.1093 126.898 76.5355C127.071 75.9694 127.07 75.4672 126.895 75.0286C126.727 74.5925 126.414 74.3042 125.955 74.1637C125.488 74.0209 125.06 74.0783 124.672 74.3359C124.286 74.5859 124.005 74.9978 123.83 75.5715L123.815 75.6174C123.64 76.1911 123.641 76.6934 123.819 77.1243C123.999 77.5475 124.322 77.8305 124.789 77.9733ZM130.37 75.1761C131.079 74.7739 131.861 74.7039 132.718 74.9661C133.575 75.2283 134.181 75.7232 134.535 76.4508C134.898 77.1808 134.939 78.0009 134.661 78.9112C134.382 79.8216 133.889 80.4778 133.18 80.88C132.479 81.2846 131.7 81.3558 130.843 81.0936C129.986 80.8314 129.377 80.3353 129.015 79.6054C128.66 78.8777 128.622 78.0588 128.901 77.1484C129.179 76.2381 129.669 75.5807 130.37 75.1761ZM130.223 79.0592C130.399 79.4977 130.723 79.7895 131.198 79.9346C131.672 80.0798 132.101 80.0185 132.484 79.7509C132.875 79.4857 133.157 79.07 133.33 78.5039C133.503 77.9378 133.502 77.4355 133.327 76.997C133.159 76.5608 132.838 76.2702 132.364 76.125C131.889 75.9799 131.457 76.04 131.066 76.3052C130.683 76.5728 130.405 76.9897 130.232 77.5558C130.058 78.1219 130.056 78.623 130.223 79.0592ZM134.787 82.1499L136.578 76.2978L139.206 77.102C139.833 77.2939 140.268 77.5818 140.51 77.9655C140.752 78.3492 140.806 78.7629 140.67 79.2066C140.571 79.5279 140.409 79.771 140.183 79.9361C139.967 80.0958 139.73 80.1864 139.472 80.208C139.745 80.3834 139.943 80.624 140.067 80.9297C140.199 81.2377 140.207 81.5791 140.093 81.9539C139.943 82.4435 139.636 82.7889 139.173 82.9902C138.72 83.1862 138.172 83.1858 137.529 82.9892L134.787 82.1499ZM138.134 80.4385L136.838 80.0417L136.381 81.5334L137.678 81.9303C137.969 82.0192 138.21 82.0221 138.403 81.9389C138.606 81.8503 138.744 81.6875 138.816 81.4503C138.966 80.9607 138.739 80.6235 138.134 80.4385ZM138.736 78.0626L137.554 77.7009L137.14 79.0549L138.322 79.4166C138.574 79.4939 138.788 79.4924 138.963 79.4121C139.146 79.3342 139.27 79.1881 139.335 78.9739C139.471 78.5302 139.271 78.2265 138.736 78.0626Z" fill="white"/>
<defs>
<linearGradient id="paint0_linear_201_786" x1="107.899" y1="20.191" x2="76.8439" y2="123.525" gradientUnits="userSpaceOnUse">
<stop stop-color="#66BEBE"/>
<stop offset="1" stop-color="#65DEA3"/>
</linearGradient>
</defs>
</svg>
