<svg width="190" height="120" viewBox="0 0 190 120" fill="none" xmlns="http://www.w3.org/2000/svg">
<g clip-path="url(#clip0_201_871)">
<path fill-rule="evenodd" clip-rule="evenodd" d="M169.151 44.3396C179.751 47.5251 185.761 58.7 182.576 69.2994L176.073 90.9365C172.887 101.536 161.713 107.546 151.113 104.361L100.602 89.1804C100.479 89.2655 100.35 89.3445 100.215 89.4169L86.6245 96.7264C84.6789 97.7728 82.2534 97.0439 81.207 95.0983L73.8975 81.5076C73.825 81.3729 73.7611 81.236 73.7055 81.0973L22.767 65.7887C12.1675 62.6032 6.1573 51.4284 9.34278 40.8289L15.8454 19.1918C19.0309 8.59234 30.2058 2.58212 40.8053 5.76759L169.151 44.3396Z" fill="url(#paint0_linear_201_871)"/>
<path d="M37.0367 26.9609L36.1669 29.7316L34.856 29.3405L35.3376 27.8064L29.772 26.146L29.2904 27.6802L27.9795 27.2891L28.8492 24.5184L29.4817 24.7071C29.8176 24.5986 30.1166 24.3539 30.3787 23.973C30.6432 23.5844 30.9269 23.0013 31.2297 22.2235L32.7737 18.2265L38.1899 19.8423L36.0477 26.6659L37.0367 26.9609ZM32.5406 22.6145C32.2402 23.3847 31.9766 23.9572 31.75 24.332C31.5334 24.7015 31.2794 24.9763 30.9881 25.1565L34.6793 26.2577L36.4369 20.6591L33.6196 19.8186L32.5406 22.6145ZM39.5929 23.4663C40.3068 23.0615 41.0931 22.9872 41.9517 23.2434C42.8103 23.4995 43.4154 23.9889 43.7671 24.7115C44.1264 25.4364 44.1635 26.2531 43.8784 27.1613C43.5932 28.0696 43.0937 28.7262 42.3797 29.1309C41.6735 29.5379 40.891 29.6133 40.0324 29.3572C39.1738 29.1011 38.5648 28.6105 38.2055 27.8856C37.8539 27.163 37.8206 26.3475 38.1057 25.4392C38.3909 24.5309 38.8866 23.8733 39.5929 23.4663ZM39.4223 27.3346C39.5958 27.7703 39.9201 28.0591 40.3954 28.2008C40.8707 28.3426 41.3015 28.2791 41.6877 28.0104C42.0815 27.7439 42.3671 27.3282 42.5444 26.7634C42.7218 26.1986 42.7237 25.6983 42.5503 25.2626C42.3845 24.8292 42.064 24.5415 41.5887 24.3997C41.1134 24.2579 40.6788 24.3203 40.2849 24.5868C39.8987 24.8556 39.617 25.2724 39.4397 25.8372C39.2623 26.402 39.2566 26.9011 39.4223 27.3346ZM43.2676 30.1971L43.6271 29.0522L43.811 29.1071C44.133 29.2032 44.3867 29.1829 44.5722 29.0462C44.7677 28.9042 44.9553 28.6137 45.135 28.1748L46.5223 24.7572L50.8345 26.0436L49.0014 31.8826L47.6905 31.4916L49.1641 26.7974L47.3128 26.2451L46.3481 28.6369C46.0352 29.42 45.6614 29.943 45.2269 30.2056C44.8023 30.463 44.2681 30.4956 43.6241 30.3035L43.2676 30.1971ZM55.8683 28.7974L53.1544 27.9878L51.6808 32.682L50.3699 32.2909L52.203 26.4518L56.2277 27.6525L55.8683 28.7974ZM57.1736 28.711C57.8876 28.3063 58.6738 28.232 59.5324 28.4882C60.3911 28.7443 60.9962 29.2337 61.3478 29.9563C61.7072 30.6812 61.7442 31.4978 61.4591 32.4061C61.174 33.3144 60.6744 33.9709 59.9605 34.3757C59.2542 34.7827 58.4718 34.8581 57.6132 34.602C56.7546 34.3458 56.1456 33.8553 55.7863 33.1304C55.4346 32.4078 55.4014 31.5923 55.6865 30.684C55.9716 29.7757 56.4673 29.1181 57.1736 28.711ZM57.0031 32.5793C57.1765 33.0151 57.5009 33.3038 57.9762 33.4456C58.4515 33.5874 58.8822 33.5239 59.2684 33.2551C59.6623 32.9887 59.9479 32.573 60.1252 32.0082C60.3025 31.4434 60.3045 30.9431 60.131 30.5074C59.9653 30.0739 59.6447 29.7863 59.1694 29.6445C58.6941 29.5027 58.2596 29.5651 57.8657 29.8316C57.4795 30.1003 57.1977 30.5171 57.0204 31.082C56.8431 31.6468 56.8373 32.1459 57.0031 32.5793ZM65.9108 31.3175C66.6247 30.9128 67.411 30.8385 68.2696 31.0947C69.1282 31.3508 69.7333 31.8402 70.085 32.5628C70.4443 33.2877 70.4814 34.1043 70.1963 35.0126C69.9111 35.9209 69.4116 36.5774 68.6976 36.9822C67.9914 37.3892 67.2089 37.4646 66.3503 37.2085C65.4917 36.9523 64.8827 36.4618 64.5234 35.7369C64.1718 35.0143 64.1385 34.1988 64.4237 33.2905C64.7088 32.3822 65.2045 31.7246 65.9108 31.3175ZM65.7402 35.1858C65.9137 35.6216 66.238 35.9103 66.7133 36.0521C67.1886 36.1939 67.6194 36.1304 68.0056 35.8617C68.3994 35.5952 68.685 35.1795 68.8623 34.6147C69.0397 34.0499 69.0416 33.5496 68.8682 33.1139C68.7024 32.6804 68.3819 32.3928 67.9066 32.251C67.4313 32.1092 66.9967 32.1716 66.6028 32.4381C66.2166 32.7068 65.9349 33.1236 65.7576 33.6885C65.5803 34.2533 65.5745 34.7524 65.7402 35.1858ZM75.1235 33.3397C75.8977 33.5707 76.4437 34.0215 76.7613 34.6923C77.0866 35.3653 77.1079 36.1521 76.8252 37.0528C76.5592 37.9 76.0745 38.5359 75.3711 38.9605C74.6778 39.3797 73.9056 39.4624 73.0547 39.2086C72.1041 38.925 71.4599 38.3864 71.1222 37.5928C70.7868 36.7915 70.7977 35.8223 71.1547 34.685C71.5932 33.2882 72.1473 32.2974 72.8172 31.7126C73.4895 31.1201 74.3807 30.8851 75.4909 31.0076L78.0078 31.2827L77.634 32.4734L75.3377 32.1765C74.6985 32.1027 74.1856 32.1876 73.7989 32.4312C73.4146 32.6671 73.0936 33.0889 72.8358 33.6965C73.4716 33.1933 74.2342 33.0744 75.1235 33.3397ZM73.3415 38.0545C73.8245 38.1986 74.2579 38.1401 74.6417 37.8789C75.0356 37.6125 75.3188 37.2044 75.4913 36.6549C75.659 36.1206 75.6538 35.6432 75.4755 35.2227C75.3074 34.7969 74.9857 34.5131 74.5104 34.3713C74.0351 34.2296 73.5964 34.2782 73.1944 34.5172C72.7948 34.7486 72.5087 35.139 72.3362 35.6886C72.1589 36.2534 72.1569 36.7537 72.3304 37.1894C72.5138 37.6198 72.8509 37.9082 73.3415 38.0545ZM85.9529 41.654L85.1335 44.2644L83.8686 43.8871L84.3286 42.4216L76.9461 40.2192L78.7791 34.3802L80.0901 34.7713L78.6164 39.4654L80.5483 40.0417L82.0219 35.3476L83.3328 35.7387L81.8592 40.4328L83.7911 41.0091L85.2647 36.315L86.5756 36.7061L85.102 41.4002L85.9529 41.654ZM91.1278 40.2178C91.2309 39.8896 91.2026 39.6057 91.0431 39.3661C90.8936 39.1211 90.6464 38.9472 90.3014 38.8443C89.6804 38.6591 89.2226 38.7687 88.9279 39.1733L87.686 38.8028C87.9361 38.3265 88.3235 37.9871 88.8482 37.7847C89.3829 37.5769 89.9953 37.576 90.6852 37.7818C91.4135 37.9991 91.9336 38.3587 92.2455 38.8608C92.5651 39.3652 92.6194 39.9532 92.4085 40.6249L91.2009 44.4718L89.982 44.1081L90.1905 43.4441C89.5934 43.8503 88.9039 43.9368 88.122 43.7035C87.5394 43.5297 87.1041 43.2204 86.8161 42.7755C86.5383 42.3253 86.4868 41.8217 86.6617 41.2645C86.8438 40.6844 87.1922 40.2958 87.7068 40.0987C88.2314 39.8963 88.8617 39.9049 89.5977 40.1244L91.0236 40.5498L91.1278 40.2178ZM88.7437 42.7245C89.15 42.8457 89.5309 42.8341 89.8865 42.6898C90.2444 42.5378 90.4833 42.271 90.6031 41.8893L90.7145 41.5344L89.3806 41.1365C89.0356 41.0336 88.7369 41.0237 88.4844 41.107C88.2419 41.1849 88.0799 41.3537 87.9985 41.6132C87.917 41.8727 87.9455 42.1024 88.084 42.3023C88.2248 42.4946 88.4447 42.6353 88.7437 42.7245ZM91.8828 44.7002L92.2422 43.5553L92.4262 43.6102C92.7482 43.7063 93.0019 43.686 93.1873 43.5493C93.3828 43.4073 93.5704 43.1168 93.7501 42.6779L95.1374 39.2602L99.4496 40.5467L97.6166 46.3857L96.3057 45.9947L97.7793 41.3005L95.9279 40.7482L94.9633 43.14C94.6503 43.9231 94.2766 44.4461 93.842 44.7087C93.4174 44.9661 92.8832 44.9987 92.2392 44.8066L91.8828 44.7002ZM106.027 42.509L104.194 48.348L102.906 47.9638L104.125 44.0825L100.25 47.1713L98.9851 46.794L100.818 40.9549L102.106 41.3392L100.884 45.2319L104.762 42.1316L106.027 42.509ZM108.387 48.4845C108.771 48.5988 109.096 48.5915 109.363 48.4624C109.637 48.3356 109.851 48.149 110.004 47.9024L111.28 48.2832C111.024 48.858 110.598 49.2817 110.001 49.5543C109.404 49.827 108.741 49.8547 108.013 49.6374C107.162 49.3836 106.564 48.8965 106.22 48.1761C105.879 47.4482 105.849 46.6338 106.132 45.7332C106.412 44.8401 106.899 44.184 107.593 43.7648C108.294 43.3479 109.073 43.2675 109.932 43.5236C110.676 43.7454 111.208 44.1337 111.528 44.6885C111.851 45.2356 111.961 45.8068 111.858 46.4021L110.582 46.0213C110.579 45.7366 110.499 45.4707 110.342 45.2235C110.195 44.9709 109.937 44.7897 109.569 44.68C109.109 44.5427 108.686 44.6085 108.3 44.8773C107.921 45.1484 107.643 45.5663 107.466 46.1311C107.286 46.7036 107.279 47.2065 107.445 47.64C107.613 48.0658 107.927 48.3473 108.387 48.4845ZM114.763 45.1149L114.205 46.8895L115.378 47.2395C116.03 47.4338 116.491 47.7802 116.763 48.2785C117.036 48.7691 117.081 49.3083 116.896 49.896C116.709 50.4913 116.355 50.9242 115.835 51.1945C115.324 51.4595 114.746 51.496 114.102 51.3039L111.63 50.5663L113.463 44.7273L114.763 45.1149ZM114.872 48.2905L113.86 47.9887L113.271 49.8663L114.283 50.1682C114.597 50.262 114.871 50.2435 115.105 50.113C115.347 49.9847 115.511 49.7831 115.597 49.5083C115.683 49.2336 115.661 48.9848 115.529 48.762C115.406 48.5414 115.187 48.3843 114.872 48.2905ZM119.104 52.0697C119.046 52.2529 118.946 52.4399 118.802 52.6308L117.481 54.3152L116.481 54.0167L117.7 52.4148C117.383 52.1699 117.281 51.8681 117.393 51.5093C117.468 51.2727 117.609 51.1021 117.818 50.9975C118.027 50.8928 118.254 50.8771 118.5 50.9503C118.745 51.0235 118.926 51.1692 119.041 51.3874C119.16 51.598 119.181 51.8255 119.104 52.0697ZM129.122 49.3988L127.289 55.2378L126.001 54.8536L127.22 50.9723L123.345 54.0611L122.08 53.6838L123.913 47.8447L125.201 48.229L123.979 52.1217L127.857 49.0214L129.122 49.3988ZM133.756 56.0528C134.14 56.1671 134.465 56.1597 134.732 56.0307C135.006 55.9039 135.22 55.7172 135.373 55.4707L136.649 55.8514C136.393 56.4262 135.967 56.8499 135.37 57.1226C134.773 57.3953 134.11 57.423 133.382 57.2057C132.531 56.9518 131.934 56.4647 131.59 55.7444C131.248 55.0164 131.219 54.2021 131.501 53.3014C131.782 52.4084 132.268 51.7523 132.962 51.3331C133.663 50.9161 134.443 50.8357 135.301 51.0919C136.045 51.3137 136.577 51.702 136.897 52.2567C137.22 52.8038 137.33 53.375 137.227 53.9704L135.951 53.5896C135.948 53.3049 135.868 53.039 135.711 52.7917C135.564 52.5392 135.306 52.358 134.938 52.2482C134.478 52.111 134.055 52.1768 133.669 52.4456C133.29 52.7166 133.013 53.1346 132.835 53.6994C132.655 54.2718 132.649 54.7748 132.814 55.2082C132.982 55.634 133.296 55.9155 133.756 56.0528ZM138.832 52.2955L140.488 52.7895L141.021 57.5815L144.214 53.901L145.847 54.3882L144.014 60.2272L142.749 59.8498L144.003 55.8541L140.997 59.3021L140.031 59.0139L139.515 54.5277L138.264 58.5119L136.999 58.1346L138.832 52.2955ZM147.441 55.6402C148.155 55.2354 148.942 55.1611 149.8 55.4173C150.659 55.6734 151.264 56.1628 151.616 56.8854C151.975 57.6104 152.012 58.427 151.727 59.3353C151.442 60.2436 150.942 60.9001 150.228 61.3048C149.522 61.7118 148.74 61.7873 147.881 61.5311C147.022 61.275 146.413 60.7844 146.054 60.0595C145.702 59.3369 145.669 58.5214 145.954 57.6131C146.239 56.7049 146.735 56.0472 147.441 55.6402ZM147.271 59.5085C147.444 59.9442 147.769 60.233 148.244 60.3748C148.719 60.5165 149.15 60.4531 149.536 60.1843C149.93 59.9178 150.216 59.5021 150.393 58.9373C150.57 58.3725 150.572 57.8722 150.399 57.4365C150.233 57.0031 149.913 56.7154 149.437 56.5737C148.962 56.4319 148.527 56.4942 148.134 56.7607C147.747 57.0295 147.466 57.4463 147.288 58.0111C147.111 58.5759 147.105 59.075 147.271 59.5085ZM157.333 59.0667L154.619 58.2571L153.145 62.9513L151.834 62.5602L153.667 56.7212L157.692 57.9218L157.333 59.0667ZM155.76 63.7564L156.119 62.6115L156.303 62.6664C156.625 62.7624 156.879 62.7421 157.064 62.6054C157.26 62.4634 157.448 62.173 157.627 61.7341L159.015 58.3164L163.327 59.6028L161.494 65.4419L160.183 65.0508L161.656 60.3567L159.805 59.8044L158.84 62.1961C158.528 62.9793 158.154 63.5022 157.719 63.7649C157.295 64.0222 156.76 64.0548 156.116 63.8627L155.76 63.7564ZM169.904 61.5651L168.071 67.4041L166.783 67.0199L168.002 63.1387L164.127 66.2275L162.862 65.8501L164.695 60.0111L165.983 60.3953L164.761 64.288L168.639 61.1877L169.904 61.5651ZM25.5454 37.4064L27.3784 31.5674L30.0117 32.353C30.6403 32.5405 31.0751 32.8247 31.3161 33.2054C31.5571 33.5862 31.6081 33.9979 31.4691 34.4406C31.3685 34.7612 31.2041 35.0043 30.9761 35.17C30.7581 35.3303 30.5197 35.422 30.2609 35.445C30.5336 35.6181 30.7312 35.8566 30.8538 36.1603C30.9841 36.4663 30.9906 36.8063 30.8732 37.1803C30.7198 37.6688 30.4101 38.0146 29.9438 38.2178C29.4877 38.4156 28.9376 38.4184 28.2937 38.2263L25.5454 37.4064ZM28.9162 35.6824L27.6168 35.2947L27.1496 36.7831L28.449 37.1708C28.7403 37.2577 28.983 37.2591 29.177 37.1751C29.3811 37.0857 29.5203 36.9228 29.5946 36.6861C29.748 36.1977 29.5218 35.8631 28.9162 35.6824ZM29.5344 33.3125L28.35 32.9591L27.9259 34.3101L29.1103 34.6635C29.3633 34.7389 29.578 34.7362 29.7543 34.6552C29.9383 34.5766 30.0638 34.4304 30.1309 34.2167C30.2699 33.774 30.0711 33.4726 29.5344 33.3125ZM34.5118 33.6955L33.9548 35.4701L35.1277 35.82C35.7793 36.0144 36.2407 36.3607 36.5119 36.859C36.7854 37.3496 36.83 37.8888 36.6455 38.4765C36.4586 39.0719 36.1047 39.5048 35.5838 39.7751C35.0731 40.0401 34.4957 40.0765 33.8517 39.8844L31.3794 39.1469L33.2124 33.3078L34.5118 33.6955ZM39.882 35.2975L38.049 41.1366L36.7495 40.7489L38.5826 34.9099L39.882 35.2975ZM34.6216 36.8711L33.6097 36.5692L33.0203 38.4469L34.0322 38.7487C34.3465 38.8425 34.6206 38.8241 34.8544 38.6935C35.0959 38.5652 35.2598 38.3637 35.346 38.0889C35.4323 37.8141 35.4098 37.5653 35.2785 37.3425C35.1549 37.122 34.936 36.9649 34.6216 36.8711ZM40.4169 36.7092L40.7763 35.5643L45.836 37.0737L45.4765 38.2187L43.6022 37.6595L42.1286 42.3536L40.8177 41.9625L42.2913 37.2684L40.4169 36.7092ZM49.2608 44.4813L47.9614 44.0937L48.5544 42.2046L47.669 41.9404L45.7305 43.4282L44.2586 42.9891L46.3961 41.3479C46.0862 41.0801 45.8768 40.7588 45.768 40.3842C45.6694 40.0041 45.6823 39.6157 45.8069 39.2187C45.9866 38.6463 46.3218 38.2329 46.8125 37.9786C47.3132 37.7189 47.9047 37.6909 48.587 37.8944L51.0938 38.6423L49.2608 44.4813ZM47.5872 39.0361C47.3505 39.1492 47.189 39.3431 47.1027 39.6178C47.0165 39.8926 47.039 40.1414 47.1703 40.3642C47.3015 40.587 47.5243 40.7453 47.8386 40.8391L48.8851 41.1513L49.4601 39.3194L48.4137 39.0072C48.0994 38.9135 47.8239 38.9231 47.5872 39.0361ZM51.9331 45.2785L50.6222 44.8875L52.4552 39.0484L53.7661 39.4395L53.0616 41.6835L55.58 42.4348L56.2844 40.1908L57.5953 40.5819L55.7623 46.4209L54.4514 46.0298L55.217 43.5912L52.6986 42.8399L51.9331 45.2785ZM62.7695 42.1254L64.1839 42.5474L58.5021 49.6298L57.0992 49.2113L58.7265 47.1925L58.2733 40.7841L59.6877 41.2061L59.9168 45.8447L62.7695 42.1254ZM64.0451 43.7581L64.4045 42.6132L69.4641 44.1226L69.1047 45.2675L67.2303 44.7084L65.7567 49.4025L64.4458 49.0114L65.9194 44.3173L64.0451 43.7581ZM71.661 44.778L71.1039 46.5526L72.2768 46.9025C72.9285 47.0969 73.3899 47.4432 73.661 47.9415C73.9346 48.4322 73.9791 48.9713 73.7946 49.5591C73.6077 50.1544 73.2539 50.5873 72.733 50.8576C72.2222 51.1226 71.6449 51.1591 71.0009 50.967L68.5286 50.2294L70.3616 44.3904L71.661 44.778ZM71.7708 47.9536L70.7589 47.6517L70.1694 49.5294L71.1814 49.8313C71.4957 49.925 71.7697 49.9066 72.0036 49.776C72.2451 49.6477 72.4089 49.4462 72.4952 49.1714C72.5815 48.8966 72.559 48.6478 72.4277 48.425C72.3041 48.2045 72.0851 48.0474 71.7708 47.9536ZM83.4544 48.2963L81.6214 54.1353L80.3335 53.7511L81.5519 49.8698L77.6772 52.9587L76.4123 52.5813L78.2453 46.7423L79.5332 47.1265L78.3112 51.0192L82.1895 47.9189L83.4544 48.2963ZM84.0193 50.2553C84.2556 49.7164 84.649 49.358 85.1995 49.18C85.7577 49.0043 86.3588 49.0125 87.0028 49.2046C87.6314 49.3921 88.1009 49.6991 88.4114 50.1256C88.7218 50.5522 88.798 51.0173 88.6399 51.5211C88.4482 52.1317 88.0315 52.4707 87.39 52.5381C87.6544 52.6837 87.8581 52.9031 88.0008 53.1961C88.1537 53.4838 88.169 53.8223 88.0468 54.2115C87.8767 54.7534 87.5127 55.1249 86.955 55.3258C86.4049 55.529 85.7734 55.5242 85.0605 55.3115C84.3705 55.1057 83.8509 54.7712 83.5016 54.3081C83.1524 53.8449 83.0305 53.3119 83.1359 52.7089L84.4123 53.0897C84.3946 53.3599 84.4715 53.5957 84.643 53.7971C84.8246 53.9932 85.0763 54.1393 85.3983 54.2353C85.7356 54.3359 86.0255 54.3473 86.268 54.2694C86.5128 54.1838 86.6748 54.0151 86.7538 53.7632C86.9024 53.29 86.6125 52.9447 85.8843 52.7275L85.0218 52.4702L85.3453 51.4397L86.1387 51.6765C86.4454 51.7679 86.6984 51.7766 86.8977 51.7025C87.1071 51.6231 87.2477 51.4689 87.3196 51.2399C87.3891 51.0185 87.3548 50.8205 87.2169 50.6458C87.0865 50.4733 86.8796 50.3448 86.5959 50.2602C86.2969 50.171 86.0312 50.1627 85.7989 50.2353C85.5665 50.3079 85.3911 50.4392 85.2727 50.6293L84.0193 50.2553ZM92.6593 51.0423L97.7649 52.5654L95.9319 58.4045L94.621 58.0134L96.0946 53.3193L93.6108 52.5783L92.1372 57.2724L90.8263 56.8813L92.6593 51.0423ZM99.3593 53.8174C100.073 53.4127 100.86 53.3384 101.718 53.5945C102.577 53.8507 103.182 54.3401 103.534 55.0627C103.893 55.7876 103.93 56.6042 103.645 57.5125C103.36 58.4208 102.86 59.0773 102.146 59.482C101.44 59.8891 100.657 59.9645 99.7989 59.7083C98.9403 59.4522 98.3313 58.9617 97.972 58.2368C97.6203 57.5141 97.5871 56.6987 97.8722 55.7904C98.1573 54.8821 98.653 54.2244 99.3593 53.8174ZM99.1888 57.6857C99.3622 58.1214 99.6866 58.4102 100.162 58.552C100.637 58.6938 101.068 58.6303 101.454 58.3615C101.848 58.095 102.134 57.6794 102.311 57.1146C102.488 56.5497 102.49 56.0495 102.317 55.6137C102.151 55.1803 101.83 54.8927 101.355 54.7509C100.88 54.6091 100.445 54.6714 100.051 54.9379C99.6652 55.2067 99.3834 55.6235 99.2061 56.1883C99.0288 56.7531 99.023 57.2523 99.1888 57.6857ZM110.081 61.3735L109.262 63.9839L107.997 63.6066L108.457 62.1411L104.317 60.9061L103.857 62.3716L102.592 61.9942L103.412 59.3838L103.883 59.5245C104.288 59.4366 104.697 58.895 105.11 57.8996L106.231 55.0911L110.704 56.4255L109.231 61.1197L110.081 61.3735ZM106.338 58.3159C105.986 59.196 105.636 59.7383 105.286 59.943L107.92 60.7286L109.034 57.1794L107.033 56.5825L106.338 58.3159ZM115.261 59.9387C115.364 59.6105 115.336 59.3266 115.176 59.087C115.027 58.842 114.78 58.6681 114.435 58.5652C113.814 58.3799 113.356 58.4896 113.061 58.8942L111.819 58.5237C112.069 58.0474 112.457 57.708 112.981 57.5056C113.516 57.2978 114.129 57.2969 114.819 57.5027C115.547 57.72 116.067 58.0796 116.379 58.5817C116.698 59.0861 116.753 59.6741 116.542 60.3458L115.334 64.1927L114.115 63.829L114.324 63.165C113.727 63.5712 113.037 63.6577 112.255 63.4244C111.673 63.2506 111.237 62.9413 110.949 62.4964C110.672 62.0462 110.62 61.5425 110.795 60.9854C110.977 60.4053 111.325 60.0167 111.84 59.8196C112.365 59.6172 112.995 59.6257 113.731 59.8453L115.157 60.2707L115.261 59.9387ZM112.877 62.4454C113.283 62.5666 113.664 62.555 114.02 62.4107C114.378 62.2587 114.617 61.9919 114.736 61.6102L114.848 61.2553L113.514 60.8574C113.169 60.7545 112.87 60.7446 112.618 60.8279C112.375 60.9058 112.213 61.0746 112.132 61.3341C112.05 61.5936 112.079 61.8233 112.217 62.0232C112.358 62.2155 112.578 62.3562 112.877 62.4454ZM116.644 64.5835L118.477 58.7444L121.111 59.53C121.739 59.7176 122.174 60.0017 122.415 60.3825C122.656 60.7632 122.707 61.1749 122.568 61.6176C122.467 61.9382 122.303 62.1813 122.075 62.347C121.857 62.5074 121.619 62.599 121.36 62.622C121.632 62.7952 121.83 63.0336 121.953 63.3373C122.083 63.6433 122.089 63.9833 121.972 64.3573C121.819 64.8458 121.509 65.1916 121.043 65.3948C120.587 65.5926 120.036 65.5955 119.393 65.4034L116.644 64.5835ZM120.015 62.8594L118.716 62.4718L118.248 63.9602L119.548 64.3478C119.839 64.4347 120.082 64.4362 120.276 64.3522C120.48 64.2628 120.619 64.0998 120.693 63.8632C120.847 63.3747 120.621 63.0401 120.015 62.8594ZM120.633 60.4895L119.449 60.1362L119.025 61.4872L120.209 61.8405C120.462 61.916 120.677 61.9132 120.853 61.8323C121.037 61.7536 121.163 61.6074 121.23 61.3937C121.369 60.951 121.17 60.6496 120.633 60.4895ZM121.85 66.1616L122.21 65.0167L122.394 65.0715C122.715 65.1676 122.969 65.1473 123.155 65.0106C123.35 64.8686 123.538 64.5781 123.717 64.1392L125.105 60.7216L129.417 62.008L127.584 67.8471L126.273 67.456L127.747 62.7619L125.895 62.2095L124.931 64.6013C124.618 65.3845 124.244 65.9074 123.809 66.1701C123.385 66.4274 122.851 66.46 122.207 66.2679L121.85 66.1616ZM134.89 67.247L130.762 66.0155L130.755 66.0384C130.614 66.4887 130.642 66.9062 130.84 67.2908C131.038 67.6754 131.37 67.9374 131.838 68.0769C132.16 68.173 132.445 68.187 132.693 68.119C132.95 68.0456 133.13 67.9406 133.232 67.804L134.52 68.1882C134.289 68.6034 133.903 68.9226 133.364 69.1456C132.832 69.3709 132.202 69.375 131.474 69.1577C130.6 68.897 129.983 68.4168 129.624 67.717C129.268 67.0097 129.237 66.1866 129.532 65.2478C129.827 64.3089 130.321 63.6425 131.015 63.2485C131.711 62.8468 132.477 62.7706 133.312 63.0199C134.117 63.26 134.679 63.7154 134.996 64.3862C135.314 65.0569 135.335 65.8312 135.059 66.7089L134.89 67.247ZM132.959 64.1041C132.545 63.9806 132.17 64.0021 131.832 64.1686C131.503 64.3374 131.253 64.6259 131.083 65.0343L133.889 65.8713C134.007 65.4393 133.981 65.0684 133.81 64.7586C133.649 64.4435 133.366 64.2253 132.959 64.1041ZM136.423 70.484L135.112 70.0929L136.945 64.2539L138.256 64.6449L137.552 66.889L140.07 67.6403L140.774 65.3962L142.085 65.7873L140.252 71.6263L138.941 71.2353L139.707 68.7966L137.189 68.0453L136.423 70.484ZM142.92 72.4221L141.609 72.031L143.442 66.192L144.753 66.583L144.048 68.8271L146.567 69.5783L147.271 67.3343L148.582 67.7254L146.749 73.5644L145.438 73.1734L146.204 70.7347L143.685 69.9834L142.92 72.4221ZM150.175 68.9771C150.889 68.5724 151.676 68.4981 152.534 68.7542C153.393 69.0104 153.998 69.4998 154.35 70.2224C154.709 70.9473 154.746 71.7639 154.461 72.6722C154.176 73.5805 153.676 74.237 152.962 74.6418C152.256 75.0488 151.474 75.1242 150.615 74.8681C149.756 74.6119 149.147 74.1214 148.788 73.3965C148.436 72.6739 148.403 71.8584 148.688 70.9501C148.973 70.0418 149.469 69.3841 150.175 68.9771ZM150.005 72.8454C150.178 73.2812 150.503 73.5699 150.978 73.7117C151.453 73.8535 151.884 73.79 152.27 73.5212C152.664 73.2547 152.95 72.8391 153.127 72.2743C153.304 71.7094 153.306 71.2092 153.133 70.7735C152.967 70.34 152.647 70.0524 152.171 69.9106C151.696 69.7688 151.261 69.8312 150.868 70.0976C150.481 70.3664 150.2 70.7832 150.022 71.348C149.845 71.9129 149.839 72.412 150.005 72.8454ZM160.067 72.4037L157.353 71.5941L155.879 76.2882L154.568 75.8972L156.401 70.0581L160.426 71.2588L160.067 72.4037ZM161.372 72.3173C162.086 71.9126 162.872 71.8383 163.731 72.0944C164.589 72.3506 165.194 72.84 165.546 73.5626C165.905 74.2875 165.943 75.1041 165.657 76.0124C165.372 76.9207 164.873 77.5772 164.159 77.9819C163.453 78.389 162.67 78.4644 161.811 78.2082C160.953 77.9521 160.344 77.4616 159.985 76.7367C159.633 76.014 159.6 75.1986 159.885 74.2903C160.17 73.382 160.666 72.7243 161.372 72.3173ZM161.201 76.1856C161.375 76.6213 161.699 76.9101 162.174 77.0519C162.65 77.1937 163.081 77.1302 163.467 76.8614C163.861 76.5949 164.146 76.1793 164.323 75.6145C164.501 75.0496 164.503 74.5494 164.329 74.1136C164.164 73.6802 163.843 73.3926 163.368 73.2508C162.892 73.109 162.458 73.1713 162.064 73.4378C161.678 73.7066 161.396 74.1234 161.219 74.6882C161.041 75.253 161.036 75.7522 161.201 76.1856ZM24.7894 48.5879C25.1727 48.7022 25.4978 48.6948 25.7647 48.5658C26.0393 48.439 26.253 48.2523 26.4058 48.0058L27.6822 48.3865C27.4263 48.9613 26.9999 49.385 26.4029 49.6577C25.8058 49.9303 25.1432 49.958 24.4149 49.7408C23.564 49.4869 22.9665 48.9998 22.6225 48.2795C22.2809 47.5515 22.2515 46.7372 22.5342 45.8365C22.8146 44.9435 23.3014 44.2874 23.9948 43.8682C24.6958 43.4512 25.4756 43.3708 26.3342 43.627C27.0778 43.8488 27.6099 44.2371 27.9304 44.7918C28.2533 45.3389 28.3632 45.9101 28.2602 46.5055L26.9838 46.1247C26.9809 45.84 26.9009 45.5741 26.7438 45.3268C26.5967 45.0743 26.3391 44.8931 25.9712 44.7833C25.5112 44.6461 25.0881 44.7119 24.7019 44.9806C24.3234 45.2517 24.0455 45.6697 23.8681 46.2345C23.6884 46.8069 23.6815 47.3099 23.8472 47.7433C24.0154 48.1691 24.3294 48.4506 24.7894 48.5879ZM30.1025 45.6777C30.8164 45.273 31.6027 45.1987 32.4613 45.4548C33.3199 45.711 33.925 46.2004 34.2767 46.923C34.636 47.6479 34.6731 48.4645 34.3879 49.3728C34.1028 50.2811 33.6033 50.9376 32.8893 51.3423C32.1831 51.7494 31.4006 51.8248 30.542 51.5686C29.6834 51.3125 29.0744 50.822 28.7151 50.0971C28.3635 49.3744 28.3302 48.559 28.6153 47.6507C28.9005 46.7424 29.3962 46.0847 30.1025 45.6777ZM29.9319 49.546C30.1053 49.9817 30.4297 50.2705 30.905 50.4123C31.3803 50.5541 31.8111 50.4906 32.1973 50.2218C32.5911 49.9553 32.8767 49.5397 33.054 48.9749C33.2313 48.41 33.2333 47.9098 33.0599 47.474C32.8941 47.0406 32.5736 46.753 32.0983 46.6112C31.623 46.4694 31.1884 46.5317 30.7945 46.7982C30.4083 47.067 30.1266 47.4838 29.9493 48.0486C29.7719 48.6134 29.7662 49.1126 29.9319 49.546ZM37.3334 52.33C37.7167 52.4444 38.0418 52.437 38.3087 52.308C38.5833 52.1812 38.797 51.9945 38.9498 51.7479L40.2263 52.1287C39.9704 52.7035 39.5439 53.1272 38.9469 53.3999C38.3499 53.6725 37.6872 53.7002 36.9589 53.483C36.108 53.2291 35.5105 52.742 35.1665 52.0217C34.8249 51.2937 34.7955 50.4794 35.0783 49.5787C35.3586 48.6857 35.8454 48.0296 36.5388 47.6103C37.2398 47.1934 38.0196 47.113 38.8782 47.3691C39.6218 47.591 40.1539 47.9793 40.4744 48.534C40.7973 49.0811 40.9072 49.6523 40.8042 50.2476L39.5278 49.8669C39.5249 49.5822 39.4449 49.3162 39.2878 49.069C39.1407 48.8165 38.8832 48.6353 38.5152 48.5255C38.0552 48.3883 37.6321 48.4541 37.2459 48.7228C36.8674 48.9939 36.5895 49.4118 36.4122 49.9767C36.2325 50.5491 36.2255 51.0521 36.3912 51.4855C36.5594 51.9113 36.8735 52.1928 37.3334 52.33ZM41.4777 49.547L41.8371 48.4021L46.8967 49.9115L46.5373 51.0564L44.6629 50.4973L43.1893 55.1914L41.8784 54.8003L43.352 50.1062L41.4777 49.547ZM47.8067 50.9593C48.5207 50.5546 49.307 50.4803 50.1656 50.7364C51.0242 50.9926 51.6293 51.482 51.981 52.2046C52.3403 52.9295 52.3774 53.7461 52.0922 54.6544C51.8071 55.5627 51.3076 56.2192 50.5936 56.624C49.8873 57.031 49.1049 57.1064 48.2463 56.8503C47.3877 56.5941 46.7787 56.1036 46.4194 55.3787C46.0677 54.6561 46.0345 53.8406 46.3196 52.9323C46.6048 52.024 47.1005 51.3664 47.8067 50.9593ZM47.6362 54.8276C47.8096 55.2634 48.134 55.5521 48.6093 55.6939C49.0846 55.8357 49.5153 55.7722 49.9015 55.5034C50.2954 55.237 50.581 54.8213 50.7583 54.2565C50.9356 53.6917 50.9376 53.1914 50.7641 52.7557C50.5984 52.3222 50.2779 52.0346 49.8026 51.8928C49.3273 51.751 48.8927 51.8134 48.4988 52.0798C48.1126 52.3486 47.8308 52.7654 47.6535 53.3302C47.4762 53.8951 47.4704 54.3942 47.6362 54.8276ZM56.6497 59.207L55.3503 58.8193L55.9433 56.9302L55.0579 56.6661L53.1194 58.1538L51.6475 57.7147L53.7851 56.0735C53.4751 55.8057 53.2657 55.4845 53.157 55.1098C53.0583 54.7298 53.0712 54.3413 53.1958 53.9444C53.3756 53.3719 53.7107 52.9585 54.2014 52.7042C54.7021 52.4446 55.2936 52.4165 55.9759 52.6201L58.4827 53.3679L56.6497 59.207ZM54.9761 53.7618C54.7394 53.8748 54.5779 54.0687 54.4917 54.3435C54.4054 54.6183 54.4279 54.867 54.5592 55.0899C54.6905 55.3127 54.9132 55.471 55.2276 55.5647L56.274 55.8769L56.849 54.045L55.8026 53.7329C55.4883 53.6391 55.2128 53.6487 54.9761 53.7618ZM59.322 60.0042L58.0111 59.6131L59.8441 53.7741L61.155 54.1651L60.4506 56.4092L62.9689 57.1604L63.6734 54.9164L64.9843 55.3075L63.1512 61.1465L61.8403 60.7555L62.6059 58.3168L60.0876 57.5655L59.322 60.0042ZM71.5499 57.2662L69.7168 63.1052L68.4289 62.721L69.6473 58.8397L65.7726 61.9286L64.5077 61.5512L66.3407 55.7122L67.6286 56.0964L66.4066 59.9891L70.2849 56.8888L71.5499 57.2662ZM75.5219 64.837L74.2225 64.4494L74.8155 62.5602L73.9301 62.2961L71.9916 63.7838L70.5197 63.3447L72.6572 61.7035C72.3473 61.4358 72.1379 61.1145 72.0291 60.7398C71.9305 60.3598 71.9434 59.9713 72.068 59.5744C72.2477 59.002 72.5829 58.5886 73.0736 58.3343C73.5743 58.0746 74.1658 58.0466 74.8481 58.2501L77.3549 58.998L75.5219 64.837ZM73.8483 59.3918C73.6116 59.5048 73.4501 59.6987 73.3638 59.9735C73.2776 60.2483 73.3001 60.4971 73.4314 60.7199C73.5626 60.9427 73.7854 61.101 74.0997 61.1948L75.1462 61.5069L75.7212 59.6751L74.6748 59.3629C74.3605 59.2691 74.085 59.2788 73.8483 59.3918Z" fill="white"/>
</g>
<defs>
<linearGradient id="paint0_linear_201_871" x1="107.483" y1="-6.61959" x2="75.738" y2="99.0089" gradientUnits="userSpaceOnUse">
<stop stop-color="#66BEBE"/>
<stop offset="1" stop-color="#65DEA3"/>
</linearGradient>
<clipPath id="clip0_201_871">
<rect width="190" height="120" fill="white"/>
</clipPath>
</defs>
</svg>
