<svg width="180" height="100" viewBox="0 0 180 100" fill="none" xmlns="http://www.w3.org/2000/svg">
<path fill-rule="evenodd" clip-rule="evenodd" d="M26.6319 35.1976C17.9986 37.7922 13.1033 46.8942 15.6979 55.5274L22.2775 77.4208C24.8721 86.0541 33.9741 90.9494 42.6073 88.3549L89.5648 74.2427C89.6657 74.3143 89.7721 74.3804 89.8838 74.4405L100.452 80.1246C101.911 80.9094 103.731 80.3627 104.515 78.9035L110.199 68.3351C110.26 68.2233 110.312 68.1095 110.356 67.9941L150.748 55.8552C159.381 53.2606 164.277 44.1586 161.682 35.5254L155.102 13.632C152.508 4.99871 143.406 0.103377 134.773 2.69794L26.6319 35.1976Z" fill="url(#paint0_linear_163_813)"/>
<path d="M30.264 50.875C30.7552 49.8222 31.6031 49.1147 32.8078 48.7527C34.0124 48.3907 35.1099 48.5135 36.1001 49.1211C37.0878 49.7206 37.7786 50.6756 38.1725 51.9861C38.5663 53.2965 38.5176 54.4782 38.0265 55.531C37.5328 56.5757 36.6837 57.2791 35.479 57.6411C34.2743 58.0032 33.1781 57.8845 32.1904 57.285C31.2001 56.6773 30.5081 55.7183 30.1143 54.4078C29.7204 53.0973 29.7703 51.9197 30.264 50.875ZM32.9664 56.0134C33.5934 56.4462 34.2977 56.5452 35.0791 56.3103C35.8605 56.0755 36.3922 55.6006 36.6744 54.8857C36.9646 54.1684 36.9716 53.3498 36.6951 52.43C36.4187 51.5103 35.9617 50.8311 35.3241 50.3927C34.6946 49.9517 33.9891 49.8487 33.2077 50.0835C32.4263 50.3184 31.8945 50.7932 31.6124 51.5081C31.3278 52.2149 31.325 53.0322 31.6038 53.9601C31.8827 54.8881 32.3369 55.5725 32.9664 56.0134ZM38.6542 51.0692L38.2872 49.8482L43.6594 48.2337L44.0263 49.4547L42.0362 50.0528L43.5406 55.0586L42.1487 55.4769L40.6443 50.4711L38.6542 51.0692ZM49.2629 49.8777L52.125 51.8265L50.5988 52.2851L47.6879 50.3511L49.0467 47.1206L50.5728 46.6619L49.2629 49.8777ZM52.2298 48.9861L55.0796 50.9385L53.5535 51.3972L50.6548 49.4594L52.0013 46.2326L53.5275 45.7739L52.2298 48.9861ZM57.502 50.8628L55.8659 51.3545L56.9715 47.4146C56.409 47.3441 55.9192 47.1318 55.5022 46.7779C55.0852 46.424 54.7911 45.9622 54.6199 45.3924C54.3728 44.5703 54.4408 43.8221 54.8239 43.1479C55.2046 42.4655 55.8467 41.9885 56.7502 41.717L59.888 40.774L62.4712 49.3694L61.0183 49.8061L60.1046 46.7659L58.5052 47.2466L57.502 50.8628ZM56.198 43.7333C55.9963 44.0957 55.9627 44.5007 56.0972 44.9484C56.2318 45.3961 56.4884 45.7183 56.867 45.9151C57.2432 46.1038 57.6918 46.1199 58.2127 45.9633L59.7267 45.5083L58.8203 42.4926L57.2942 42.9513C56.7732 43.1078 56.4078 43.3685 56.198 43.7333ZM67.8598 47.75L66.468 48.1683L64.5966 41.9415L65.9885 41.5232L66.7077 43.9162L69.3815 43.1126L68.6623 40.7196L70.0542 40.3013L71.9256 46.5281L70.5337 46.9464L69.7521 44.3458L67.0783 45.1493L67.8598 47.75ZM78.0088 41.7446L73.6256 43.0618L73.633 43.0863C73.7773 43.5665 74.0518 43.9189 74.4565 44.1434C74.8612 44.3678 75.3118 44.4055 75.8084 44.2563C76.1502 44.1535 76.4102 43.9999 76.5884 43.7955C76.7723 43.5805 76.8683 43.383 76.8763 43.2031L78.2438 42.7922C78.288 43.2936 78.1384 43.8001 77.7951 44.3115C77.46 44.8204 76.9058 45.1911 76.1325 45.4235C75.2046 45.7024 74.373 45.6372 73.6377 45.2281C72.8999 44.8108 72.3806 44.1016 72.0797 43.1005C71.7788 42.0993 71.8171 41.2225 72.1944 40.4701C72.5694 39.7096 73.2004 39.196 74.0876 38.9294C74.9423 38.6725 75.7104 38.7478 76.392 39.1554C77.0736 39.5629 77.555 40.2347 77.8364 41.1707L78.0088 41.7446ZM74.424 40.0929C73.9845 40.225 73.6655 40.4629 73.467 40.8065C73.2767 41.1477 73.2284 41.5483 73.3223 42.0082L76.3014 41.1129C76.1481 40.6619 75.9033 40.3494 75.567 40.1754C75.2364 39.9908 74.8554 39.9633 74.424 40.0929ZM80.681 39.0112C80.5675 38.3975 80.7008 37.8516 81.0807 37.3735C81.4688 36.893 82.0047 36.55 82.6884 36.3446C83.3559 36.144 83.9542 36.1416 84.4835 36.3376C85.0127 36.5335 85.358 36.9001 85.5195 37.4373C85.7152 38.0885 85.5498 38.6307 85.0233 39.0641C85.344 39.0387 85.655 39.1138 85.9563 39.2895C86.2633 39.4546 86.4792 39.7447 86.604 40.1599C86.7776 40.7378 86.6782 41.278 86.3056 41.7804C85.9411 42.2805 85.3804 42.6442 84.6234 42.8717C83.8908 43.0919 83.2318 43.0991 82.6464 42.8934C82.061 42.6878 81.6346 42.2879 81.3673 41.6937L82.7226 41.2864C82.8684 41.5354 83.0773 41.699 83.3492 41.777C83.6269 41.8444 83.9366 41.8268 84.2785 41.724C84.6366 41.6164 84.8995 41.4575 85.0671 41.2474C85.2322 41.0292 85.2745 40.7857 85.1937 40.5171C85.0421 40.0125 84.5796 39.8763 83.8063 40.1087L82.8906 40.3839L82.5604 39.2851L83.4029 39.0319C83.7284 38.934 83.9571 38.7943 84.0889 38.6127C84.2264 38.4205 84.2585 38.2023 84.1851 37.9581C84.1141 37.7221 83.9655 37.5671 83.7391 37.4931C83.5209 37.4167 83.2612 37.4237 82.9601 37.5143C82.6426 37.6097 82.4029 37.7571 82.241 37.9567C82.0791 38.1562 82.0027 38.3744 82.0118 38.6113L80.681 39.0112ZM89.6326 41.2065L88.2408 41.6248L86.3694 35.398L87.7613 34.9797L88.4805 37.3728L91.1543 36.5692L90.4351 34.1762L91.827 33.7579L93.6984 39.9847L92.3065 40.403L91.5249 37.8024L88.8511 38.6059L89.6326 41.2065ZM97.549 34.3279C97.4438 33.9779 97.2491 33.7436 96.9649 33.6248C96.6865 33.4955 96.3641 33.4859 95.9978 33.596C95.3385 33.7941 94.9996 34.1578 94.9811 34.687L93.6625 35.0832C93.5988 34.5167 93.7381 33.9911 94.0806 33.5066C94.4288 33.0114 94.9692 32.6538 95.7017 32.4336C96.475 32.2013 97.1495 32.216 97.7251 32.4778C98.309 32.7372 98.7085 33.2251 98.9238 33.9414L100.157 38.0437L98.8625 38.4327L98.6496 37.7245C98.3651 38.4313 97.8077 38.9094 96.9774 39.1589C96.3588 39.3449 95.7893 39.3252 95.269 39.0999C94.7544 38.8641 94.4078 38.4491 94.2293 37.8549C94.0433 37.2363 94.1188 36.69 94.4556 36.2161C94.7981 35.7315 95.36 35.3718 96.1414 35.137L97.6554 34.682L97.549 34.3279ZM96.9414 37.9317C97.3728 37.8021 97.7024 37.5699 97.9302 37.2352C98.1555 36.8924 98.207 36.5175 98.0847 36.1105L97.971 35.732L96.5547 36.1576C96.1884 36.2677 95.9186 36.4331 95.7453 36.6538C95.5777 36.8639 95.5355 37.1074 95.6187 37.3841C95.7018 37.6608 95.8643 37.8472 96.1062 37.9431C96.3455 38.0309 96.624 38.0271 96.9414 37.9317ZM102.939 37.2074L101.548 37.6257L99.6762 31.3989L101.068 30.9806L101.787 33.3737L102.85 33.0544C102.758 32.2477 102.907 31.5329 103.297 30.9099C103.686 30.287 104.268 29.8593 105.041 29.6269C105.944 29.3554 106.765 29.4417 107.502 29.8858C108.236 30.3218 108.748 31.02 109.036 31.9805C109.328 32.9491 109.287 33.8178 108.914 34.5864C108.542 35.3551 107.904 35.8752 107 36.1467C106.195 36.3889 105.444 36.3437 104.75 36.0111C104.061 35.6679 103.539 35.097 103.183 34.2986L102.158 34.6068L102.939 37.2074ZM105.28 34.7201C105.683 34.9983 106.133 35.0628 106.63 34.9136C107.126 34.7644 107.462 34.4638 107.637 34.0119C107.817 33.5494 107.816 33.0129 107.632 32.4025C107.449 31.792 107.156 31.3477 106.752 31.0694C106.355 30.7806 105.908 30.7108 105.412 30.8601C104.915 31.0093 104.577 31.3151 104.396 31.7776C104.221 32.2295 104.226 32.7607 104.409 33.3712C104.593 33.9816 104.883 34.4313 105.28 34.7201ZM112.423 33.5852C112.482 33.7805 112.505 34.0044 112.492 34.2568L112.332 36.5147L111.27 36.8339L111.389 34.7079C110.963 34.6764 110.692 34.4693 110.577 34.0867C110.501 33.8344 110.524 33.6012 110.646 33.387C110.768 33.1728 110.96 33.0266 111.22 32.9483C111.48 32.8701 111.727 32.8936 111.96 33.0188C112.19 33.1359 112.345 33.3247 112.423 33.5852ZM117.76 25.9642L119.152 25.5459L121.023 31.7727L119.631 32.191L118.894 29.737C118.591 30.0587 118.159 30.3039 117.597 30.4727C116.873 30.6904 116.223 30.6549 115.648 30.3662C115.073 30.0775 114.662 29.5221 114.415 28.7L113.938 27.1127L115.33 26.6944L115.778 28.184C116.054 29.1038 116.644 29.4279 117.548 29.1564C117.955 29.034 118.288 28.845 118.549 28.5893L117.76 25.9642ZM127.105 26.9896L122.722 28.3069L122.729 28.3313C122.873 28.8116 123.148 29.1639 123.553 29.3884C123.957 29.6129 124.408 29.6506 124.904 29.5013C125.246 29.3986 125.506 29.245 125.685 29.0406C125.868 28.8256 125.964 28.6281 125.972 28.4482L127.34 28.0372C127.384 28.5387 127.235 29.0451 126.891 29.5565C126.556 30.0655 126.002 30.4362 125.229 30.6686C124.301 30.9474 123.469 30.8823 122.734 30.4732C121.996 30.0559 121.477 29.3467 121.176 28.3455C120.875 27.3444 120.913 26.4676 121.291 25.7152C121.665 24.9546 122.297 24.4411 123.184 24.1744C124.038 23.9176 124.807 23.9929 125.488 24.4004C126.17 24.808 126.651 25.4797 126.932 26.4158L127.105 26.9896ZM123.52 25.338C123.081 25.4701 122.762 25.708 122.563 26.0516C122.373 26.3928 122.325 26.7933 122.418 27.2532L125.398 26.3579C125.244 25.907 124.999 25.5945 124.663 25.4205C124.333 25.2358 123.952 25.2083 123.52 25.338ZM131.771 23.0847L128.89 23.9506L130.394 28.9565L129.002 29.3748L127.131 23.148L131.404 21.8637L131.771 23.0847ZM132.872 22.2478C133.261 21.4742 133.911 20.9504 134.823 20.6765C135.735 20.4025 136.562 20.4823 137.304 20.9158C138.055 21.3469 138.576 22.0468 138.867 23.0154C139.158 23.984 139.11 24.8551 138.721 25.6286C138.34 26.3998 137.694 26.9223 136.782 27.1963C135.871 27.4703 135.04 27.3917 134.289 26.9606C133.546 26.5271 133.029 25.826 132.738 24.8574C132.447 23.8888 132.492 23.0189 132.872 22.2478ZM135.034 25.7648C135.448 26.0487 135.907 26.1148 136.412 25.9631C136.917 25.8115 137.259 25.5044 137.44 25.0419C137.628 24.577 137.632 24.0433 137.451 23.441C137.27 22.8387 136.973 22.3956 136.559 22.1116C136.153 21.8253 135.698 21.7579 135.194 21.9096C134.689 22.0613 134.342 22.3696 134.154 22.8345C133.973 23.297 133.973 23.8294 134.154 24.4317C134.336 25.0341 134.629 25.4784 135.034 25.7648ZM36.7728 63.718C37.5461 63.4856 38.2841 63.5789 38.9868 63.9978C39.6977 64.4143 40.2061 65.1312 40.5118 66.1487C40.8176 67.1661 40.7847 68.0457 40.413 68.7876C40.0495 69.5269 39.477 70.014 38.6956 70.2488C38.2642 70.3785 37.8625 70.4149 37.4904 70.3581C37.124 70.2907 36.8268 70.1582 36.5988 69.9605L37.5088 72.9884L36.1169 73.4067L33.5447 64.8479L34.8878 64.4443L35.1299 65.2501C35.3298 64.4978 35.8775 63.9871 36.7728 63.718ZM38.093 69.0854C38.5814 68.9386 38.9171 68.6381 39.1 68.1837C39.2886 67.7188 39.2912 67.1811 39.1078 66.5706C38.9267 65.9683 38.6294 65.5252 38.2157 65.2413C37.8101 64.9549 37.3632 64.8851 36.8748 65.0319C36.3783 65.1811 36.0345 65.4841 35.8434 65.9409C35.6499 66.3896 35.6448 66.9191 35.8283 67.5296L35.843 67.5784C36.0264 68.1889 36.3238 68.632 36.735 68.9078C37.1438 69.1754 37.5965 69.2346 38.093 69.0854ZM44.9389 63.7133C44.8337 63.3633 44.639 63.1289 44.3549 63.0102C44.0764 62.8809 43.754 62.8713 43.3877 62.9814C42.7284 63.1795 42.3895 63.5432 42.3711 64.0723L41.0525 64.4686C40.9887 63.902 41.128 63.3765 41.4705 62.8919C41.8187 62.3968 42.3591 62.0392 43.0917 61.819C43.8649 61.5866 44.5394 61.6013 45.1151 61.8632C45.6989 62.1226 46.0984 62.6105 46.3137 63.3267L47.5466 67.4291L46.2524 67.818L46.0396 67.1099C45.755 67.8167 45.1976 68.2948 44.3673 68.5443C43.7487 68.7302 43.1793 68.7106 42.659 68.4853C42.1444 68.2495 41.7978 67.8345 41.6192 67.2403C41.4333 66.6217 41.5087 66.0754 41.8455 65.6014C42.188 65.1169 42.75 64.7572 43.5314 64.5223L45.0453 64.0674L44.9389 63.7133ZM44.3313 67.3171C44.7627 67.1875 45.0923 66.9553 45.3201 66.6206C45.5454 66.2777 45.5969 65.9028 45.4746 65.4959L45.3609 65.1174L43.9446 65.543C43.5783 65.6531 43.3085 65.8185 43.1352 66.0392C42.9676 66.2493 42.9254 66.4927 43.0086 66.7695C43.0918 67.0462 43.2543 67.2326 43.4961 67.3285C43.7355 67.4163 44.0139 67.4125 44.3313 67.3171ZM51.2848 65.1209C51.6918 64.9986 51.9746 64.8026 52.1332 64.5331C52.3 64.2611 52.3771 63.9717 52.3648 63.6648L53.72 63.2575C53.8376 63.9144 53.7141 64.5372 53.3497 65.126C52.9853 65.7147 52.4165 66.1253 51.6432 66.3577C50.7397 66.6292 49.9207 66.547 49.1862 66.111C48.4492 65.6669 47.9364 64.9646 47.6478 64.0041C47.3616 63.0518 47.3994 62.1884 47.7613 61.414C48.1313 60.6372 48.7721 60.1118 49.6838 59.8379C50.4733 59.6006 51.1755 59.6336 51.7903 59.937C52.4026 60.2322 52.8412 60.6728 53.1061 61.2588L51.7508 61.6661C51.5781 61.4163 51.3484 61.2279 51.0618 61.1011C50.7809 60.9636 50.4451 60.9536 50.0544 61.071C49.566 61.2178 49.2316 61.5224 49.0511 61.9849C48.8787 62.4449 48.883 62.9761 49.0641 63.5785C49.2475 64.1889 49.542 64.6373 49.9476 64.9237C50.3507 65.2019 50.7964 65.2676 51.2848 65.1209ZM57.7415 63.1804C58.1485 63.0581 58.4313 62.8622 58.5899 62.5927C58.7566 62.3207 58.8338 62.0312 58.8215 61.7243L60.1767 61.317C60.2943 61.9739 60.1708 62.5968 59.8064 63.1855C59.442 63.7743 58.8731 64.1849 58.0999 64.4173C57.1964 64.6888 56.3774 64.6066 55.6429 64.1706C54.9059 63.7264 54.3931 63.0241 54.1044 62.0637C53.8182 61.1113 53.8561 60.248 54.218 59.4736C54.588 58.6968 55.2288 58.1714 56.1405 57.8974C56.93 57.6601 57.6322 57.6932 58.2469 57.9965C58.8593 58.2917 59.2979 58.7324 59.5627 59.3184L58.2075 59.7257C58.0348 59.4758 57.8051 59.2875 57.5185 59.1606C57.2376 59.0232 56.9018 59.0132 56.5111 59.1306C56.0227 59.2774 55.6882 59.582 55.5077 60.0445C55.3354 60.5045 55.3397 61.0357 55.5207 61.638C55.7042 62.2485 55.9987 62.6969 56.4043 62.9833C56.8074 63.2615 57.2531 63.3272 57.7415 63.1804ZM63.2427 62.7119L61.8509 63.1302L59.9795 56.9034L61.3714 56.4851L62.1493 59.0735L63.7644 55.7659L65.4127 55.2706L63.6036 58.9959L67.3207 61.4864L65.6358 61.9927L62.3694 59.8061L63.2427 62.7119ZM70.3602 56.0734C70.2551 55.7234 70.0604 55.489 69.7762 55.3703C69.4977 55.241 69.1753 55.2314 68.8091 55.3415C68.1498 55.5396 67.8109 55.9033 67.7924 56.4324L66.4738 56.8287C66.41 56.2621 66.5494 55.7366 66.8919 55.252C67.24 54.7569 67.7804 54.3993 68.513 54.1791C69.2862 53.9467 69.9607 53.9614 70.5364 54.2233C71.1202 54.4827 71.5198 54.9705 71.735 55.6868L72.9679 59.7892L71.6737 60.1781L71.4609 59.47C71.1763 60.1768 70.6189 60.6549 69.7887 60.9044C69.1701 61.0903 68.6006 61.0706 68.0803 60.8454C67.5657 60.6096 67.2191 60.1946 67.0405 59.6004C66.8546 58.9818 66.93 58.4355 67.2668 57.9615C67.6093 57.477 68.1713 57.1173 68.9527 56.8824L70.4666 56.4275L70.3602 56.0734ZM69.7527 59.6772C70.1841 59.5475 70.5136 59.3154 70.7414 58.9807C70.9668 58.6378 71.0183 58.2629 70.896 57.856L70.7822 57.4775L69.3659 57.9031C68.9996 58.0132 68.7298 58.1786 68.5566 58.3993C68.389 58.6094 68.3467 58.8528 68.4299 59.1296C68.5131 59.4063 68.6756 59.5927 68.9174 59.6886C69.1568 59.7764 69.4352 59.7726 69.7527 59.6772ZM72.7192 54.9784C72.6057 54.3646 72.739 53.8187 73.1189 53.3407C73.507 52.8602 74.0429 52.5172 74.7266 52.3117C75.3941 52.1111 75.9924 52.1088 76.5217 52.3047C77.0509 52.5007 77.3963 52.8672 77.5577 53.4045C77.7534 54.0556 77.588 54.5979 77.0615 55.0312C77.3822 55.0058 77.6933 55.081 77.9945 55.2567C78.3015 55.4218 78.5174 55.7119 78.6422 56.127C78.8158 56.7049 78.7164 57.2451 78.3438 57.7476C77.9793 58.2476 77.4186 58.6114 76.6616 58.8389C75.929 59.059 75.2701 59.0663 74.6846 58.8606C74.0992 58.6549 73.6728 58.255 73.4055 57.6609L74.7608 57.2536C74.9066 57.5026 75.1155 57.6661 75.3874 57.7441C75.6651 57.8116 75.9748 57.7939 76.3167 57.6912C76.6748 57.5836 76.9377 57.4247 77.1053 57.2146C77.2705 56.9963 77.3127 56.7529 77.2319 56.4843C77.0803 55.9796 76.6178 55.8435 75.8446 56.0759L74.9288 56.3511L74.5986 55.2522L75.4411 54.999C75.7666 54.9012 75.9953 54.7615 76.1271 54.5799C76.2646 54.3877 76.2967 54.1695 76.2233 53.9253C76.1523 53.6892 76.0037 53.5342 75.7773 53.4603C75.5591 53.3839 75.2994 53.3909 74.9983 53.4814C74.6808 53.5768 74.4412 53.7243 74.2793 53.9238C74.1173 54.1233 74.0409 54.3415 74.05 54.5784L72.7192 54.9784ZM82.6894 52.3681C82.5842 52.0181 82.3895 51.7837 82.1053 51.665C81.8268 51.5357 81.5045 51.5261 81.1382 51.6362C80.4789 51.8343 80.14 52.198 80.1215 52.7271L78.8029 53.1234C78.7391 52.5568 78.8785 52.0313 79.221 51.5467C79.5692 51.0516 80.1095 50.694 80.8421 50.4738C81.6154 50.2414 82.2898 50.2562 82.8655 50.518C83.4493 50.7774 83.8489 51.2653 84.0641 51.9815L85.297 56.0839L84.0028 56.4729L83.79 55.7647C83.5054 56.4715 82.948 56.9496 82.1178 57.1991C81.4992 57.385 80.9297 57.3654 80.4094 57.1401C79.8948 56.9043 79.5482 56.4893 79.3696 55.8951C79.1837 55.2765 79.2592 54.7302 79.596 54.2562C79.9384 53.7717 80.5004 53.412 81.2818 53.1772L82.7958 52.7222L82.6894 52.3681ZM82.0818 55.9719C82.5132 55.8423 82.8428 55.6101 83.0705 55.2754C83.2959 54.9326 83.3474 54.5576 83.2251 54.1507L83.1113 53.7722L81.695 54.1978C81.3288 54.3079 81.059 54.4733 80.8857 54.694C80.7181 54.9041 80.6759 55.1475 80.759 55.4243C80.8422 55.701 81.0047 55.8874 81.2465 55.9833C81.4859 56.0711 81.7643 56.0673 82.0818 55.9719ZM84.5878 50.8391L84.2209 49.6181L89.5931 48.0036L89.96 49.2246L87.9699 49.8227L89.4743 54.8285L88.0824 55.2468L86.578 50.241L84.5878 50.8391ZM91.9256 47.3026L92.4944 49.1951L93.7397 48.8208C94.4316 48.6129 95.0462 48.65 95.5837 48.9322C96.1187 49.2063 96.4803 49.6567 96.6687 50.2835C96.8595 50.9184 96.8056 51.507 96.5071 52.0493C96.2143 52.581 95.7261 52.9497 95.0423 53.1551L92.4173 53.944L90.546 47.7172L91.9256 47.3026ZM93.9211 50.0443L92.8466 50.3672L93.4484 52.3695L94.5228 52.0466C94.8565 51.9463 95.0877 51.7704 95.2162 51.5188C95.3528 51.2647 95.3771 50.9912 95.289 50.6981C95.201 50.4051 95.0323 50.1984 94.7832 50.078C94.5422 49.9552 94.2548 49.944 93.9211 50.0443ZM99.6324 45.8118C100.021 45.0383 100.671 44.5145 101.583 44.2405C102.495 43.9665 103.322 44.0463 104.064 44.4799C104.815 44.911 105.336 45.6108 105.627 46.5794C105.918 47.548 105.87 48.4191 105.481 49.1927C105.1 49.9638 104.454 50.4864 103.542 50.7603C102.631 51.0343 101.8 50.9558 101.049 50.5247C100.306 50.0911 99.7893 49.39 99.4982 48.4214C99.2071 47.4528 99.2518 46.5829 99.6324 45.8118ZM101.794 49.3288C102.208 49.6127 102.667 49.6789 103.172 49.5272C103.676 49.3755 104.019 49.0685 104.2 48.606C104.388 48.141 104.392 47.6074 104.211 47.0051C104.03 46.4027 103.733 45.9596 103.319 45.6757C102.913 45.3893 102.458 45.322 101.954 45.4737C101.449 45.6253 101.102 45.9336 100.914 46.3986C100.733 46.861 100.733 47.3935 100.914 47.9958C101.095 48.5981 101.389 49.0425 101.794 49.3288ZM112.412 46.7502C112.819 46.6279 113.102 46.432 113.26 46.1625C113.427 45.8905 113.504 45.601 113.492 45.2941L114.847 44.8868C114.965 45.5437 114.841 46.1666 114.477 46.7553C114.112 47.3441 113.544 47.7547 112.77 47.9871C111.867 48.2586 111.048 48.1764 110.313 47.7404C109.576 47.2962 109.064 46.5939 108.775 45.6335C108.489 44.6811 108.527 43.8178 108.888 43.0434C109.258 42.2666 109.899 41.7412 110.811 41.4672C111.6 41.23 112.303 41.263 112.917 41.5663C113.53 41.8616 113.968 42.3022 114.233 42.8882L112.878 43.2955C112.705 43.0456 112.476 42.8573 112.189 42.7304C111.908 42.593 111.572 42.583 111.182 42.7004C110.693 42.8472 110.359 43.1518 110.178 43.6143C110.006 44.0743 110.01 44.6055 110.191 45.2078C110.375 45.8183 110.669 46.2667 111.075 46.5531C111.478 46.8313 111.924 46.897 112.412 46.7502ZM121.164 42.3494L116.781 43.6666L116.789 43.6911C116.933 44.1713 117.207 44.5237 117.612 44.7481C118.017 44.9726 118.467 45.0103 118.964 44.861C119.306 44.7583 119.566 44.6047 119.744 44.4003C119.928 44.1853 120.024 43.9878 120.032 43.8079L121.399 43.397C121.444 43.8984 121.294 44.4048 120.951 44.9162C120.616 45.4252 120.061 45.7959 119.288 46.0283C118.36 46.3071 117.529 46.242 116.793 45.8329C116.055 45.4156 115.536 44.7064 115.235 43.7052C114.934 42.7041 114.973 41.8273 115.35 41.0749C115.725 40.3144 116.356 39.8008 117.243 39.5341C118.098 39.2773 118.866 39.3526 119.548 39.7601C120.229 40.1677 120.711 40.8395 120.992 41.7755L121.164 42.3494ZM117.58 40.6977C117.14 40.8298 116.821 41.0677 116.623 41.4113C116.432 41.7525 116.384 42.153 116.478 42.613L119.457 41.7176C119.304 41.2667 119.059 40.9542 118.723 40.7802C118.392 40.5955 118.011 40.5681 117.58 40.6977ZM124.391 37.5989C125.214 37.3518 125.965 37.432 126.647 37.8395C127.337 38.2446 127.826 38.9274 128.115 39.8879C128.386 40.7914 128.338 41.6356 127.97 42.4205C127.609 43.1949 126.976 43.7178 126.072 43.9894C125.063 44.2927 124.172 44.1922 123.399 43.6878C122.624 43.1753 122.054 42.3127 121.69 41.0999C121.242 39.6104 121.139 38.4121 121.381 37.5051C121.621 36.5899 122.268 35.863 123.322 35.3244L125.71 34.1009L126.091 35.3707L123.885 36.4464C123.277 36.7536 122.874 37.1274 122.678 37.5679C122.48 38.0003 122.448 38.56 122.584 39.247C122.845 38.432 123.447 37.8826 124.391 37.5989ZM125.636 42.8027C126.149 42.6485 126.497 42.3443 126.68 41.89C126.868 41.425 126.874 40.8996 126.698 40.3135C126.527 39.7437 126.237 39.325 125.828 39.0574C125.425 38.7792 124.971 38.7159 124.467 38.8676C123.962 39.0192 123.603 39.3178 123.391 39.7632C123.177 40.2004 123.157 40.7121 123.333 41.2981C123.514 41.9005 123.812 42.3436 124.225 42.6275C124.645 42.9008 125.115 42.9592 125.636 42.8027ZM134.757 38.2642L130.374 39.5815L130.382 39.6059C130.526 40.0862 130.8 40.4385 131.205 40.663C131.61 40.8875 132.06 40.9251 132.557 40.7759C132.899 40.6732 133.159 40.5196 133.337 40.3152C133.521 40.1002 133.617 39.9027 133.625 39.7228L134.992 39.3118C135.037 39.8133 134.887 40.3197 134.544 40.8311C134.209 41.3401 133.654 41.7108 132.881 41.9432C131.953 42.222 131.122 42.1569 130.386 41.7478C129.648 41.3305 129.129 40.6213 128.828 39.6201C128.527 38.619 128.566 37.7422 128.943 36.9898C129.318 36.2292 129.949 35.7157 130.836 35.449C131.691 35.1922 132.459 35.2675 133.141 35.675C133.822 36.0825 134.304 36.7543 134.585 37.6904L134.757 38.2642ZM131.173 36.6126C130.733 36.7447 130.414 36.9825 130.216 37.3262C130.025 37.6674 129.977 38.0679 130.071 38.5278L133.05 37.6325C132.897 37.1816 132.652 36.8691 132.316 36.6951C131.985 36.5104 131.604 36.4829 131.173 36.6126ZM137.508 36.9317L134.642 34.9708L136.168 34.5121L139.083 36.4584L137.721 39.6767L136.194 40.1353L137.508 36.9317ZM140.475 36.0401L137.609 34.0791L139.135 33.6205L142.038 35.5704L140.688 38.785L139.161 39.2437L140.475 36.0401Z" fill="#0F1414"/>
<defs>
<linearGradient id="paint0_linear_163_813" x1="79.9719" y1="6.5716" x2="98.6055" y2="68.574" gradientUnits="userSpaceOnUse">
<stop stop-color="#F9F9F9"/>
<stop offset="1" stop-color="#F4F4F4"/>
</linearGradient>
</defs>
</svg>
