<svg width="190" height="120" viewBox="0 0 190 120" fill="none" xmlns="http://www.w3.org/2000/svg">
<path fill-rule="evenodd" clip-rule="evenodd" d="M139.456 35.247C146.861 37.4723 151.06 45.2792 148.834 52.684L138.477 87.1471C136.252 94.5519 128.445 98.7507 121.04 96.5253L107.387 92.4222C106.371 92.1169 105.276 92.2277 104.341 92.7302L97.0487 96.6524C95.1031 97.6988 92.6776 96.9699 91.6312 95.0243L87.709 87.7316C87.2065 86.7973 86.3534 86.1009 85.3374 85.7955L53.7672 76.3077C46.3624 74.0823 42.1636 66.2755 44.389 58.8707L54.7463 24.4075C56.9716 17.0027 64.7784 12.804 72.1833 15.0293L139.456 35.247Z" fill="url(#paint0_linear_163_797)"/>
<path d="M64.5266 31.2028L66.9988 23.1246L70.1199 24.0797C70.9078 24.3209 71.459 24.707 71.7733 25.2383C72.0899 25.7619 72.1546 26.3296 71.9673 26.9416C71.8315 27.3853 71.6135 27.7285 71.3134 27.9713C71.0155 28.2065 70.7025 28.3408 70.3744 28.3742C70.7011 28.5913 70.953 28.9027 71.1301 29.3082C71.3072 29.7138 71.3138 30.1843 71.1499 30.7198C70.9416 31.4006 70.527 31.8803 69.9064 32.1589C69.288 32.4298 68.5696 32.44 67.751 32.1895L64.5266 31.2028ZM68.7434 28.5778L66.9877 28.0406L66.2503 30.4503L67.96 30.9735C68.4037 31.1093 68.7872 31.1137 69.1105 30.9867C69.4438 30.8545 69.669 30.5971 69.7861 30.2146C69.9008 29.8398 69.8608 29.5054 69.6663 29.2117C69.4794 28.9202 69.1718 28.7089 68.7434 28.5778ZM69.5667 25.1905L68.0061 24.7129L67.3319 26.916L68.9498 27.4112C69.3553 27.5352 69.6955 27.5306 69.9706 27.3973C70.248 27.2563 70.437 27.0213 70.5377 26.6924C70.643 26.3481 70.6102 26.0453 70.4392 25.7838C70.2706 25.5147 69.9797 25.3169 69.5667 25.1905ZM74.3247 33.0844C74.7072 33.2014 75.031 33.1959 75.2961 33.0679C75.5688 32.9422 75.7805 32.756 75.9313 32.5093L77.205 32.8991C76.9536 33.4747 76.5313 33.8977 75.9383 34.168C75.3452 34.4383 74.6853 34.4622 73.9586 34.2398C73.1095 33.9799 72.5114 33.4874 72.1645 32.7621C71.8199 32.0292 71.7857 31.2114 72.0619 30.3087C72.3358 29.4137 72.8168 28.7577 73.5049 28.3408C74.2007 27.9263 74.977 27.8501 75.8338 28.1123C76.5758 28.3394 77.1081 28.7324 77.4307 29.2912C77.7556 29.8424 77.8685 30.4166 77.7694 31.0138L76.4957 30.624C76.4912 30.3381 76.4099 30.0706 76.2519 29.8215C76.1039 29.567 75.8463 29.3836 75.4791 29.2713C75.0201 29.1308 74.5991 29.1944 74.216 29.462C73.8406 29.7319 73.5662 30.15 73.393 30.716C73.2174 31.2898 73.2135 31.7947 73.3812 32.2309C73.5512 32.6594 73.8657 32.9439 74.3247 33.0844ZM83.4761 34.2159L79.3567 32.9552L79.3497 32.9782C79.2116 33.4295 79.2422 33.8488 79.4416 34.2361C79.641 34.6234 79.974 34.8885 80.4407 35.0313C80.7619 35.1296 81.0458 35.1454 81.2921 35.0785C81.5484 35.0064 81.7268 34.902 81.8272 34.7654L83.1123 35.1587C82.8848 35.5743 82.5029 35.8925 81.9668 36.1133C81.4384 36.3364 80.8108 36.3368 80.0841 36.1144C79.212 35.8475 78.5952 35.3617 78.2336 34.6571C77.8743 33.9447 77.8386 33.1181 78.1266 32.1772C78.4145 31.2363 78.9028 30.57 79.5916 30.1784C80.2827 29.7792 81.0451 29.7071 81.879 29.9623C82.6822 30.2081 83.244 30.6687 83.5644 31.344C83.8848 32.0193 83.9104 32.7968 83.6412 33.6766L83.4761 34.2159ZM81.5339 31.0489C81.1208 30.9225 80.7467 30.9419 80.4117 31.1071C80.0844 31.2746 79.8372 31.5629 79.6702 31.9719L82.47 32.8287C82.5858 32.3957 82.5576 32.0231 82.3854 31.711C82.2232 31.3937 81.9393 31.173 81.5339 31.0489ZM80.7535 27.2837C80.9533 27.1775 81.1642 27.1584 81.386 27.2263C81.6079 27.2942 81.768 27.4269 81.8666 27.6243C81.9751 27.8165 81.9966 28.0197 81.931 28.2339C81.8655 28.4481 81.7328 28.6082 81.533 28.7144C81.3431 28.8153 81.1373 28.8318 80.9155 28.7639C80.6936 28.696 80.5284 28.566 80.4199 28.3738C80.3214 28.1763 80.3049 27.9705 80.3705 27.7563C80.436 27.5421 80.5637 27.3846 80.7535 27.2837ZM83.1862 28.0282C83.386 27.922 83.5968 27.9028 83.8187 27.9707C84.0405 28.0386 84.2007 28.1713 84.2992 28.3688C84.4077 28.5609 84.4292 28.7641 84.3637 28.9783C84.2981 29.1925 84.1654 29.3527 83.9656 29.4589C83.7758 29.5597 83.57 29.5762 83.3481 29.5083C83.1263 29.4404 82.9611 29.3104 82.8526 29.1183C82.754 28.9208 82.7376 28.7149 82.8031 28.5007C82.8687 28.2866 82.9963 28.129 83.1862 28.0282ZM88.0155 32.7689C88.7243 32.3667 89.507 32.2967 90.3638 32.5589C91.2206 32.8211 91.8263 33.316 92.1809 34.0436C92.5431 34.7735 92.5849 35.5937 92.3064 36.504C92.0278 37.4143 91.5341 38.0706 90.8254 38.4728C90.1243 38.8774 89.3454 38.9486 88.4886 38.6864C87.6318 38.4242 87.0223 37.9281 86.6601 37.1981C86.3055 36.4705 86.2675 35.6515 86.5461 34.7412C86.8246 33.8309 87.3145 33.1734 88.0155 32.7689ZM87.8688 36.6519C88.0442 37.0904 88.369 37.3823 88.8433 37.5274C89.3176 37.6726 89.7463 37.6113 90.1293 37.3437C90.5201 37.0784 90.8021 36.6628 90.9753 36.0967C91.1485 35.5306 91.1475 35.0283 90.9721 34.5898C90.8044 34.1536 90.4834 33.863 90.0091 33.7178C89.5348 33.5727 89.1023 33.6327 88.7116 33.898C88.3285 34.1656 88.0504 34.5825 87.8771 35.1486C87.7039 35.7146 87.7011 36.2158 87.8688 36.6519ZM98.2897 34.9969C99.1753 35.3014 99.8196 35.8207 100.222 36.5547C100.625 37.2887 100.691 38.0994 100.419 38.9868C100.148 39.8742 99.6397 40.5093 98.895 40.8921C98.1504 41.275 97.3259 41.3448 96.4215 41.1015L95.7894 43.1669L94.5043 42.7736L95.1363 40.7082C94.243 40.4013 93.595 39.8809 93.1921 39.1469C92.7893 38.4129 92.7236 37.6022 92.9952 36.7148C93.2668 35.8274 93.7749 35.1923 94.5195 34.8095C95.2641 34.4266 96.0924 34.358 97.0045 34.6036L97.6682 32.4349L98.9533 32.8282L98.2897 34.9969ZM95.484 39.5722L96.6568 35.7396C96.1549 35.6028 95.683 35.655 95.2411 35.8962C94.8015 36.1298 94.4927 36.5373 94.3148 37.1186C94.1369 37.7 94.1635 38.2143 94.3948 38.6616C94.6284 39.1012 94.9914 39.4047 95.484 39.5722ZM99.1112 38.5865C99.2891 38.0051 99.2613 37.4946 99.0277 37.055C98.7965 36.6078 98.4346 36.3004 97.942 36.1329L96.7692 39.9655C97.2711 40.1024 97.743 40.0502 98.1849 39.8089C98.6269 39.5677 98.9356 39.1602 99.1112 38.5865ZM102.572 37.2236C103.281 36.8214 104.064 36.7514 104.921 37.0136C105.777 37.2758 106.383 37.7707 106.738 38.4983C107.1 39.2283 107.142 40.0484 106.863 40.9588C106.585 41.8691 106.091 42.5253 105.382 42.9276C104.681 43.3321 103.902 43.4033 103.045 43.1411C102.189 42.8789 101.579 42.3828 101.217 41.6529C100.862 40.9252 100.824 40.1063 101.103 39.196C101.381 38.2856 101.871 37.6282 102.572 37.2236ZM102.426 41.1067C102.601 41.5452 102.926 41.837 103.4 41.9822C103.874 42.1273 104.303 42.0661 104.686 41.7984C105.077 41.5332 105.359 41.1175 105.532 40.5514C105.705 39.9853 105.704 39.483 105.529 39.0445C105.361 38.6083 105.04 38.3177 104.566 38.1725C104.092 38.0274 103.659 38.0875 103.268 38.3527C102.885 38.6204 102.607 39.0372 102.434 39.6033C102.261 40.1694 102.258 40.6705 102.426 41.1067ZM111.898 39.1487C112.624 39.3711 113.153 39.83 113.484 40.5253C113.823 41.2229 113.846 42.0499 113.553 43.0061C113.261 43.9623 112.775 44.6336 112.096 45.0199C111.425 45.4085 110.722 45.4904 109.988 45.2657C109.582 45.1416 109.249 44.9601 108.987 44.7211C108.736 44.4768 108.573 44.2177 108.498 43.9437L107.627 46.7894L106.319 46.3891L108.78 38.3453L110.042 38.7316L109.811 39.4889C110.36 39.0046 111.056 38.8912 111.898 39.1487ZM110.125 44.04C110.584 44.1805 111.003 44.1207 111.384 43.8608C111.775 43.5955 112.058 43.176 112.234 42.6023C112.407 42.0362 112.406 41.5339 112.23 41.0954C112.063 40.6592 111.749 40.3709 111.29 40.2304C110.824 40.0876 110.396 40.145 110.008 40.4027C109.622 40.6526 109.341 41.0645 109.165 41.6382L109.151 41.6841C108.976 42.2579 108.977 42.7602 109.155 43.191C109.335 43.6142 109.658 43.8972 110.125 44.04ZM115.465 40.391L117.117 40.8966L117.677 45.7111L120.835 42.0344L122.464 42.533L120.673 48.3851L119.411 47.9988L120.637 43.9942L117.662 47.4386L116.699 47.1436L116.158 42.6361L114.936 46.6293L113.674 46.2431L115.465 40.391ZM129.017 44.5383L127.226 50.3904L125.941 49.9971L127.131 46.1071L123.29 49.1859L122.028 48.7996L123.819 42.9475L125.104 43.3408L123.91 47.2422L127.755 44.152L129.017 44.5383ZM130.369 44.952L132.021 45.4577L132.581 50.2722L135.739 46.5954L137.368 47.094L135.577 52.9461L134.315 52.5599L135.541 48.5552L132.567 51.9997L131.603 51.7047L131.062 47.1972L129.84 51.1904L128.578 50.8041L130.369 44.952ZM62.1855 43.0357L60.8774 42.6354L62.6683 36.7833L63.9764 37.1836L63.2881 39.4326L64.2864 39.7381C64.6365 39.0588 65.1269 38.5773 65.7576 38.2934C66.3883 38.0095 67.067 37.9788 67.7937 38.2012C68.6429 38.461 69.2397 38.9574 69.5843 39.6904C69.9313 40.4156 69.9666 41.2296 69.6904 42.1323C69.4118 43.0426 68.9258 43.7012 68.2324 44.1081C67.539 44.515 66.7677 44.5885 65.9186 44.3287C65.1612 44.0969 64.5977 43.6693 64.228 43.0458C63.8682 42.417 63.758 41.6973 63.8974 40.8865L62.9335 40.5916L62.1855 43.0357ZM65.3182 42.3128C65.4882 42.7413 65.8066 43.0269 66.2732 43.1697C66.7399 43.3125 67.1597 43.2528 67.5328 42.9905C67.9159 42.7229 68.1952 42.3022 68.3708 41.7285C68.5464 41.1547 68.5491 40.6536 68.3791 40.2251C68.219 39.7913 67.9057 39.5029 67.4391 39.3601C66.9724 39.2173 66.5476 39.2797 66.1645 39.5474C65.7914 39.8097 65.5171 40.2277 65.3415 40.8014C65.1659 41.3751 65.1581 41.8789 65.3182 42.3128ZM74.7225 40.3216C75.4492 40.544 75.9781 41.0028 76.3091 41.6981C76.6478 42.3958 76.6708 43.2227 76.3782 44.1789C76.0855 45.1351 75.5999 45.8064 74.9211 46.1927C74.25 46.5813 73.5473 46.6633 72.8129 46.4385C72.4074 46.3144 72.074 46.1329 71.8125 45.8939C71.5609 45.6496 71.3976 45.3905 71.3225 45.1165L70.4516 47.9623L69.1435 47.5619L71.6051 39.5182L72.8673 39.9044L72.6356 40.6618C73.1854 40.1775 73.881 40.064 74.7225 40.3216ZM72.9495 45.2129C73.4085 45.3533 73.8284 45.2936 74.2091 45.0336C74.5999 44.7683 74.883 44.3488 75.0586 43.7751C75.2318 43.209 75.2308 42.7067 75.0554 42.2682C74.8877 41.832 74.5744 41.5437 74.1154 41.4033C73.6487 41.2605 73.2212 41.3179 72.8328 41.5755C72.4468 41.8255 72.166 42.2373 71.9904 42.811L71.9763 42.8569C71.8008 43.4307 71.8018 43.933 71.9795 44.3638C72.1596 44.787 72.4829 45.0701 72.9495 45.2129ZM83.4876 43.1545L81.6967 49.0066L80.4116 48.6133L81.602 44.7234L77.7609 47.8022L76.4987 47.4159L78.2896 41.5638L79.5748 41.9571L78.3808 45.8585L82.2254 42.7682L83.4876 43.1545ZM89.4355 50.12L88.6349 52.7362L87.3727 52.3499L87.8222 50.8812L83.6913 49.617L83.2418 51.0858L81.9796 50.6995L82.7802 48.0833L83.2507 48.2272C83.6534 48.1413 84.0576 47.5999 84.4631 46.6029L85.5625 43.7895L90.0262 45.1555L88.5864 49.8601L89.4355 50.12ZM85.6883 47.0281C85.3432 47.9097 84.9973 48.4522 84.6506 48.6556L87.2783 49.4598L88.3669 45.9026L86.3703 45.2916L85.6883 47.0281ZM96.9574 47.2766L95.1665 53.1287L93.8814 52.7354L95.0718 48.8455L91.2307 51.9243L89.9685 51.538L91.7594 45.6859L93.0445 46.0792L91.8506 49.9806L95.6952 46.8903L96.9574 47.2766ZM101.706 48.7298L103.014 49.1301L101.223 54.9822L99.915 54.5819L100.621 52.2755C100.216 52.369 99.7492 52.335 99.2214 52.1735C98.5406 51.9651 98.0506 51.5977 97.7516 51.0711C97.4526 50.5446 97.4214 49.895 97.6578 49.1224L98.1143 47.6306L99.4224 48.031L98.994 49.4309C98.7295 50.2953 99.0218 50.8574 99.8709 51.1173C100.253 51.2344 100.613 51.2609 100.951 51.1968L101.706 48.7298ZM108.484 54.4183L104.365 53.1577L104.358 53.1806C104.22 53.6319 104.25 54.0513 104.45 54.4386C104.649 54.8259 104.982 55.0909 105.449 55.2337C105.77 55.332 106.054 55.3478 106.3 55.281C106.556 55.2088 106.735 55.1044 106.835 54.9678L108.12 55.3611C107.893 55.7767 107.511 56.0949 106.975 56.3157C106.446 56.5388 105.819 56.5392 105.092 56.3168C104.22 56.0499 103.603 55.5641 103.242 54.8595C102.882 54.1472 102.847 53.3205 103.135 52.3796C103.423 51.4387 103.911 50.7724 104.6 50.3808C105.291 49.9816 106.053 49.9096 106.887 50.1647C107.69 50.4105 108.252 50.8711 108.572 51.5464C108.893 52.2217 108.918 52.9993 108.649 53.879L108.484 54.4183ZM106.542 51.2513C106.129 51.1249 105.755 51.1443 105.42 51.3095C105.092 51.477 104.845 51.7653 104.678 52.1743L107.478 53.0312C107.594 52.5981 107.566 52.2255 107.393 51.9135C107.231 51.5961 106.947 51.3754 106.542 51.2513ZM111.547 57.0248C111.93 57.1419 112.254 57.1364 112.519 57.0083C112.792 56.8826 113.003 56.6965 113.154 56.4498L114.428 56.8396C114.176 57.4152 113.754 57.8381 113.161 58.1084C112.568 58.3787 111.908 58.4027 111.181 58.1803C110.332 57.9204 109.734 57.4278 109.387 56.7026C109.043 55.9696 109.008 55.1518 109.285 54.2492C109.559 53.3541 110.04 52.6982 110.728 52.2813C111.423 51.8667 112.2 51.7906 113.057 52.0528C113.799 52.2798 114.331 52.6728 114.653 53.2317C114.978 53.7829 115.091 54.3571 114.992 54.9542L113.719 54.5644C113.714 54.2786 113.633 54.0111 113.475 53.7619C113.327 53.5075 113.069 53.3241 112.702 53.2117C112.243 53.0712 111.822 53.1348 111.439 53.4024C111.063 53.6724 110.789 54.0904 110.616 54.6565C110.44 55.2302 110.436 55.7352 110.604 56.1713C110.774 56.5999 111.089 56.8844 111.547 57.0248ZM116.098 59.5344L114.79 59.134L116.581 53.2819L117.889 53.6823L117.145 56.1149L120.138 54.3705L121.687 54.8446L118.324 56.8145L119.931 60.7072L118.347 60.2226L116.934 56.8034L116.098 59.5344ZM127.601 56.6542L125.81 62.5063L124.525 62.1131L125.715 58.2231L121.874 61.3019L120.612 60.9156L122.403 55.0635L123.688 55.4568L122.494 59.3582L126.339 56.268L127.601 56.6542ZM64.3548 49.8487L62.5639 55.7008L61.2787 55.3075L62.4691 51.4176L58.6281 54.4964L57.3658 54.1101L59.1567 48.258L60.4419 48.6513L59.248 52.5527L63.0926 49.4624L64.3548 49.8487ZM67.9761 50.9569L73.0709 52.5161L71.28 58.3682L69.9719 57.9679L71.4116 53.2632L68.9331 52.5047L67.4934 57.2094L66.1852 56.809L67.9761 50.9569ZM77.5426 53.7339C78.2694 53.9563 78.7982 54.4152 79.1293 55.1105C79.4679 55.8081 79.491 56.6351 79.1983 57.5913C78.9057 58.5475 78.42 59.2188 77.7413 59.6051C77.0702 59.9937 76.3674 60.0756 75.633 59.8509C75.2276 59.7268 74.8941 59.5453 74.6326 59.3063C74.3811 59.062 74.2178 58.8029 74.1427 58.5289L73.2718 61.3746L71.9637 60.9743L74.4253 52.9305L75.6875 53.3168L75.4557 54.0741C76.0055 53.5898 76.7012 53.4764 77.5426 53.7339ZM75.7697 58.6252C76.2287 58.7657 76.6485 58.7059 77.0293 58.446C77.42 58.1807 77.7032 57.7612 77.8787 57.1875C78.052 56.6214 78.0509 56.1191 77.8756 55.6806C77.7079 55.2444 77.3945 54.9561 76.9355 54.8156C76.4689 54.6728 76.0414 54.7302 75.653 54.9879C75.2669 55.2378 74.9861 55.6497 74.8105 56.2234L74.7965 56.2693C74.6209 56.8431 74.622 57.3454 74.7997 57.7762C74.9797 58.1994 75.303 58.4824 75.7697 58.6252ZM81.351 55.8281C82.0597 55.4258 82.8425 55.3558 83.6993 55.618C84.556 55.8802 85.1617 56.3751 85.5163 57.1027C85.8786 57.8327 85.9204 58.6528 85.6418 59.5632C85.3633 60.4735 84.8696 61.1298 84.1609 61.532C83.4598 61.9365 82.6809 62.0077 81.8241 61.7455C80.9673 61.4833 80.3578 60.9872 79.9956 60.2573C79.641 59.5297 79.6029 58.7107 79.8815 57.8004C80.1601 56.89 80.6499 56.2326 81.351 55.8281ZM81.2043 59.7111C81.3797 60.1496 81.7045 60.4414 82.1788 60.5866C82.6531 60.7317 83.0817 60.6705 83.4648 60.4029C83.8555 60.1376 84.1375 59.7219 84.3108 59.1558C84.484 58.5897 84.4829 58.0874 84.3076 57.6489C84.1399 57.2128 83.8189 56.9221 83.3446 56.777C82.8703 56.6318 82.4378 56.6919 82.0471 56.9572C81.664 57.2248 81.3858 57.6416 81.2126 58.2077C81.0394 58.7738 81.0366 59.2749 81.2043 59.7111ZM92.0764 63.4775L91.2758 66.0937L90.0136 65.7074L90.463 64.2387L86.3321 62.9745L85.8827 64.4433L84.6204 64.057L85.4211 61.4408L85.8915 61.5847C86.2943 61.4988 86.6984 60.9574 87.1039 59.9604L88.2034 57.147L92.667 58.513L91.2273 63.2176L92.0764 63.4775ZM88.3292 60.3856C87.9841 61.2672 87.6382 61.8097 87.2915 62.0131L89.9192 62.8173L91.0077 59.2601L89.0111 58.6491L88.3292 60.3856ZM94.6303 59.8919C95.339 59.4896 96.1218 59.4196 96.9786 59.6818C97.8353 59.944 98.441 60.4389 98.7956 61.1665C99.1579 61.8965 99.1997 62.7166 98.9211 63.627C98.6425 64.5373 98.1489 65.1936 97.4402 65.5958C96.7391 66.0003 95.9602 66.0715 95.1034 65.8093C94.2466 65.5471 93.6371 65.051 93.2748 64.3211C92.9202 63.5935 92.8822 62.7745 93.1608 61.8642C93.4394 60.9538 93.9292 60.2964 94.6303 59.8919ZM94.4836 63.7749C94.6589 64.2134 94.9838 64.5052 95.4581 64.6504C95.9323 64.7955 96.361 64.7343 96.7441 64.4667C97.1348 64.2014 97.4168 63.7857 97.5901 63.2196C97.7633 62.6535 97.7622 62.1512 97.5869 61.7127C97.4192 61.2766 97.0982 60.9859 96.6239 60.8408C96.1496 60.6956 95.7171 60.7557 95.3264 61.021C94.9433 61.2886 94.6651 61.7054 94.4919 62.2715C94.3186 62.8376 94.3159 63.3387 94.4836 63.7749ZM98.331 66.6716L98.6821 65.5241L98.8657 65.5803C99.187 65.6786 99.4396 65.6597 99.6235 65.5235C99.8174 65.3821 100.003 65.0915 100.179 64.6519L101.54 61.2284L105.843 62.5453L104.052 68.3974L102.744 67.997L104.184 63.2924L102.337 62.727L101.39 65.1229C101.083 65.9074 100.714 66.4303 100.283 66.6915C99.8612 66.9474 99.3293 66.9771 98.6867 66.7804L98.331 66.6716ZM111.42 64.2519L110.662 66.7304L113.463 64.877L114.966 65.337L111.851 67.3956L113.209 71.1996L111.672 70.7291L110.472 67.3501L109.629 70.104L108.344 69.7107L109.187 66.9568L106.302 69.0857L104.775 68.6186L108.008 66.2572L106.589 62.7735L108.092 63.2335L109.376 66.3371L110.135 63.8586L111.42 64.2519ZM120.907 67.155L119.116 73.0071L117.831 72.6139L119.021 68.7239L115.18 71.8027L113.918 71.4164L115.709 65.5643L116.994 65.9576L115.8 69.859L119.645 66.7688L120.907 67.155ZM122.259 67.5688L123.911 68.0744L124.471 72.889L127.629 69.2122L129.258 69.7108L127.467 75.5629L126.205 75.1767L127.431 71.172L124.457 74.6164L123.493 74.3215L122.952 69.814L121.73 73.8072L120.468 73.4209L122.259 67.5688ZM55.6452 59.7327L60.74 61.2918L58.9491 67.1439L57.6409 66.7436L59.0807 62.039L56.6021 61.2805L55.1624 65.9851L53.8543 65.5848L55.6452 59.7327ZM62.3356 62.5582C63.0443 62.156 63.8271 62.086 64.6839 62.3482C65.5406 62.6104 66.1463 63.1053 66.5009 63.8329C66.8632 64.5628 66.905 65.383 66.6264 66.2933C66.3478 67.2036 65.8542 67.8599 65.1455 68.2621C64.4444 68.6667 63.6655 68.7379 62.8087 68.4757C61.9519 68.2135 61.3424 67.7174 60.9801 66.9874C60.6255 66.2598 60.5875 65.4408 60.8661 64.5305C61.1447 63.6202 61.6345 62.9627 62.3356 62.5582ZM62.1889 66.4412C62.3642 66.8797 62.6891 67.1716 63.1634 67.3167C63.6376 67.4619 64.0663 67.4006 64.4494 67.133C64.8401 66.8677 65.1221 66.4521 65.2954 65.886C65.4686 65.3199 65.4675 64.8176 65.2922 64.3791C65.1245 63.9429 64.8035 63.6522 64.3292 63.5071C63.8549 63.362 63.4224 63.422 63.0317 63.6873C62.6486 63.9549 62.3704 64.3718 62.1972 64.9378C62.0239 65.5039 62.0212 66.0051 62.1889 66.4412ZM68.5435 63.6799L70.1958 64.1856L70.7555 69.0001L73.9136 65.3233L75.543 65.8219L73.7522 71.674L72.4899 71.2878L73.7155 67.2831L70.7413 70.7276L69.7775 70.4326L69.2368 65.9251L68.0148 69.9183L66.7526 69.532L68.5435 63.6799ZM77.1389 67.0884C77.8476 66.6862 78.6303 66.6161 79.4871 66.8783C80.3439 67.1405 80.9496 67.6354 81.3042 68.3631C81.6664 69.093 81.7083 69.9132 81.4297 70.8235C81.1511 71.7338 80.6575 72.3901 79.9487 72.7923C79.2477 73.1969 78.4687 73.268 77.612 73.0058C76.7552 72.7436 76.1457 72.2476 75.7834 71.5176C75.4288 70.79 75.3908 69.971 75.6694 69.0607C75.948 68.1504 76.4378 67.4929 77.1389 67.0884ZM76.9922 70.9714C77.1675 71.4099 77.4923 71.7017 77.9666 71.8469C78.4409 71.992 78.8696 71.9308 79.2527 71.6632C79.6434 71.3979 79.9254 70.9822 80.0986 70.4161C80.2719 69.8501 80.2708 69.3478 80.0955 68.9093C79.9277 68.4731 79.6067 68.1824 79.1325 68.0373C78.6582 67.8921 78.2257 67.9522 77.8349 68.2175C77.4519 68.4851 77.1737 68.9019 77.0005 69.468C76.8272 70.0341 76.8245 70.5352 76.9922 70.9714ZM87.0117 70.5866L84.3037 69.7579L82.864 74.4625L81.5559 74.0622L83.3467 68.2101L87.3629 69.4391L87.0117 70.5866ZM91.0092 72.7135C91.1099 72.3845 91.08 72.0993 90.9197 71.8578C90.7693 71.611 90.522 71.4349 90.1778 71.3296C89.5581 71.14 89.1028 71.2474 88.8117 71.6519L87.5724 71.2727C87.8187 70.7959 88.2025 70.4574 88.724 70.2572C89.2553 70.0517 89.8653 70.0543 90.5538 70.265C91.2805 70.4874 91.8007 70.8516 92.1144 71.3575C92.4357 71.8658 92.4934 72.4565 92.2874 73.1297L91.1075 76.9852L89.8912 76.613L90.0948 75.9475C89.5026 76.3518 88.8163 76.4346 88.036 76.1959C87.4546 76.0179 87.0192 75.7048 86.7297 75.2565C86.4502 74.8028 86.3959 74.2968 86.5668 73.7384C86.7448 73.157 87.0894 72.7688 87.6008 72.574C88.1222 72.3738 88.7501 72.3861 89.4845 72.6108L90.9074 73.0462L91.0092 72.7135ZM88.6495 75.2165C89.0549 75.3406 89.4343 75.3312 89.7875 75.1883C90.1431 75.0378 90.3795 74.7713 90.4965 74.3888L90.6054 74.0331L89.2743 73.6257C88.9301 73.5204 88.6324 73.5088 88.3814 73.5909C88.1404 73.6677 87.9801 73.8362 87.9005 74.0963C87.8209 74.3564 87.8506 74.5872 87.9898 74.7887C88.1312 74.9826 88.3511 75.1252 88.6495 75.2165ZM93.2946 72.5093L93.6457 71.3618L98.6946 72.9069L98.3435 74.0544L96.4731 73.482L95.0334 78.1866L93.7252 77.7863L95.165 73.0817L93.2946 72.5093ZM100.887 73.5778L100.343 75.3564L101.513 75.7145C102.163 75.9135 102.625 76.264 102.898 76.7658C103.173 77.2601 103.221 77.8017 103.041 78.3908C102.858 78.9874 102.508 79.42 101.991 79.6884C101.484 79.9515 100.909 79.9847 100.266 79.7881L97.7993 79.0331L99.5902 73.181L100.887 73.5778ZM101.015 76.767L100.005 76.4579L99.4295 78.3398L100.439 78.6488C100.753 78.7448 101.026 78.7279 101.258 78.5982C101.498 78.4707 101.66 78.2693 101.744 77.9939C101.828 77.7186 101.804 77.4686 101.672 77.2441C101.548 77.022 101.329 76.8629 101.015 76.767Z" fill="white"/>
<defs>
<linearGradient id="paint0_linear_163_797" x1="130.94" y1="27.9004" x2="99.9072" y2="131.159" gradientUnits="userSpaceOnUse">
<stop stop-color="#66BEBE"/>
<stop offset="1" stop-color="#65DEA3"/>
</linearGradient>
</defs>
</svg>
