<svg width="180" height="100" viewBox="0 0 180 100" fill="none" xmlns="http://www.w3.org/2000/svg">
<path fill-rule="evenodd" clip-rule="evenodd" d="M49.3262 26.0554C38.6526 28.8984 32.3047 39.8558 35.1477 50.5293L40.5583 70.8426C43.4013 81.5161 54.3586 87.864 65.0322 85.021L119.768 70.4417C119.814 70.4708 119.86 70.4991 119.908 70.5266L125.86 73.9748C127.771 75.0822 130.219 74.4303 131.326 72.5188L134.774 66.5668C135.284 65.6874 135.421 64.6946 135.234 63.771C140.333 58.8923 142.689 51.4583 140.745 44.1571L135.334 23.8438C132.491 13.1703 121.534 6.82237 110.86 9.66536L49.3262 26.0554Z" fill="url(#paint0_linear_201_816)"/>
<path d="M45.1622 34.8902L46.8668 34.4361L51.1591 40.0609L52.0732 33.0493L53.7546 32.6015L55.929 40.7649L54.6187 41.1139L53.0466 35.2117L52.1859 41.7246L51.0727 42.0211L47.0864 36.7992L48.6585 42.7014L47.3366 43.0535L45.1622 34.8902ZM56.5316 35.0409C56.9204 34.3247 57.5477 33.8513 58.4135 33.6207C59.2793 33.3901 60.0551 33.4898 60.7409 33.9198C61.4344 34.3477 61.9036 35.0216 62.1487 35.9415C62.3937 36.8614 62.3218 37.6795 61.9331 38.3957C61.552 39.1098 60.9286 39.5822 60.0628 39.8128C59.197 40.0434 58.4173 39.9448 57.7238 39.5169C57.038 39.0869 56.5726 38.4119 56.3276 37.492C56.0826 36.5721 56.1506 35.7551 56.5316 35.0409ZM58.4608 38.414C58.8415 38.6934 59.2716 38.7693 59.7508 38.6417C60.2301 38.514 60.5616 38.2353 60.7452 37.8056C60.9365 37.3738 60.9559 36.8719 60.8036 36.2998C60.6512 35.7277 60.3846 35.302 60.0039 35.0226C59.6309 34.7411 59.2047 34.6642 58.7254 34.7919C58.2461 34.9195 57.9108 35.1993 57.7195 35.6311C57.5359 36.0608 57.5203 36.5617 57.6727 37.1337C57.8251 37.7058 58.0878 38.1325 58.4608 38.414ZM66.4339 31.6334L67.1011 34.1381L68.4979 31.0836L70.017 30.679L68.4623 34.0736L71.627 36.5836L70.0731 36.9975L67.2678 34.7643L68.0091 37.5472L66.7104 37.8932L65.9691 35.1102L64.6464 38.4429L63.1041 38.8537L64.5986 35.1399L61.5521 32.9337L63.0712 32.5291L65.8023 34.484L65.1352 31.9793L66.4339 31.6334ZM73.6648 36.0408L72.3429 36.3929L70.7677 30.4791L72.0896 30.127L72.695 32.3997L75.2345 31.7233L74.6291 29.4506L75.951 29.0985L77.5262 35.0123L76.2043 35.3644L75.5464 32.8945L73.0069 33.5709L73.6648 36.0408ZM77.9742 29.3295C78.3629 28.6133 78.9902 28.1399 79.856 27.9093C80.7218 27.6787 81.4976 27.7784 82.1834 28.2083C82.8769 28.6363 83.3462 29.3102 83.5912 30.2301C83.8362 31.15 83.7644 31.9681 83.3756 32.6843C82.9946 33.3984 82.3712 33.8708 81.5053 34.1014C80.6395 34.332 79.8599 34.2334 79.1664 33.8055C78.4806 33.3755 78.0152 32.7005 77.7702 31.7806C77.5251 30.8607 77.5931 30.0436 77.9742 29.3295ZM79.9033 32.7026C80.2841 32.982 80.7141 33.0579 81.1934 32.9302C81.6727 32.8026 82.0041 32.5239 82.1877 32.0942C82.379 31.6624 82.3985 31.1605 82.2461 30.5884C82.0937 30.0163 81.8272 29.5906 81.4464 29.3112C81.0734 29.0297 80.6473 28.9528 80.168 29.0805C79.6887 29.2081 79.3534 29.4879 79.1621 29.9196C78.9785 30.3494 78.9629 30.8503 79.1153 31.4223C79.2676 31.9944 79.5303 32.4211 79.9033 32.7026ZM52.5506 52.9779C52.9372 52.8749 53.209 52.699 53.3663 52.4502C53.5313 52.1993 53.6125 51.9292 53.61 51.6401L54.8971 51.2973C54.9882 51.9188 54.8535 52.5011 54.4931 53.0441C54.1328 53.5872 53.5854 53.9565 52.851 54.1521C51.9929 54.3807 51.2248 54.279 50.5468 53.8469C49.8667 53.4071 49.4052 52.7312 49.1622 51.819C48.9213 50.9145 48.9826 50.1034 49.3461 49.3857C49.7173 48.6659 50.3358 48.1906 51.2017 47.96C51.9515 47.7603 52.6111 47.8123 53.1805 48.116C53.7478 48.4119 54.1473 48.8395 54.379 49.3987L53.0919 49.7415C52.9368 49.5014 52.7264 49.3173 52.4605 49.1894C52.2003 49.0518 51.8847 49.0324 51.5136 49.1312C51.0498 49.2547 50.7261 49.5314 50.5425 49.9611C50.3667 50.3888 50.3549 50.8886 50.5073 51.4607C50.6617 52.0405 50.9254 52.4711 51.2985 52.7526C51.6694 53.0263 52.0868 53.1014 52.5506 52.9779ZM54.843 47.1391L59.9915 45.7678L61.5667 51.6816L60.2448 52.0337L58.9784 47.2795L56.4738 47.9466L57.7401 52.7009L56.4182 53.053L54.843 47.1391ZM64.4307 44.4364C65.1651 44.2407 65.8567 44.3504 66.5053 44.7655C67.1617 45.1784 67.6186 45.8681 67.876 46.8344C68.1334 47.8007 68.0762 48.6273 67.7045 49.3141C67.3405 49.9988 66.7874 50.4401 66.0453 50.6377C65.6356 50.7469 65.2565 50.7692 64.9082 50.7046C64.5655 50.6303 64.2899 50.4968 64.0812 50.304L64.8472 53.1797L63.5253 53.5318L61.3601 45.4032L62.6357 45.0635L62.8395 45.8288C63.05 45.127 63.5804 44.6629 64.4307 44.4364ZM65.513 49.5252C65.9768 49.4017 66.3016 49.1289 66.4872 48.7069C66.6785 48.2751 66.697 47.7694 66.5425 47.1896C66.3901 46.6175 66.1236 46.1918 65.7428 45.9124C65.3698 45.6309 64.9514 45.5519 64.4876 45.6755C64.016 45.8011 63.6836 46.0759 63.4902 46.5C63.2948 46.9163 63.2743 47.4143 63.4287 47.9941L63.441 48.0405C63.5955 48.6203 63.862 49.046 64.2407 49.3177C64.6173 49.5817 65.0414 49.6508 65.513 49.5252ZM72.1135 44.675C72.0249 44.3426 71.8487 44.1163 71.5849 43.9961C71.3268 43.8662 71.0238 43.8476 70.6759 43.9402C70.0497 44.107 69.7201 44.439 69.687 44.9363L68.4346 45.2699C68.3915 44.735 68.5383 44.2447 68.8749 43.799C69.2172 43.3436 69.7362 43.0232 70.432 42.8379C71.1664 42.6423 71.8005 42.6762 72.3343 42.9397C72.8758 43.2011 73.2372 43.672 73.4184 44.3522L74.4561 48.2484L73.227 48.5758L73.0478 47.9032C72.7591 48.5597 72.2204 48.9929 71.4319 49.2029C70.8444 49.3594 70.3093 49.324 69.8265 49.0966C69.3493 48.8594 69.0356 48.4586 68.8853 47.8943C68.7288 47.3068 68.8161 46.7951 69.147 46.3592C69.4837 45.9136 70.023 45.5919 70.7652 45.3942L72.203 45.0113L72.1135 44.675ZM71.4346 48.0473C71.8443 47.9382 72.1613 47.7296 72.3855 47.4215C72.6077 47.1056 72.6674 46.7545 72.5644 46.3679L72.4687 46.0085L71.1235 46.3668C70.7757 46.4594 70.5169 46.607 70.3473 46.8095C70.1834 47.0021 70.1365 47.2299 70.2065 47.4927C70.2765 47.7556 70.4238 47.9357 70.6485 48.0332C70.8711 48.1229 71.1331 48.1276 71.4346 48.0473ZM78.7938 40.7596L80.0602 45.5139L82.0083 44.995L80.7419 40.2407L82.0638 39.8886L83.639 45.8025L75.7771 47.8965L74.2019 41.9827L75.5239 41.6306L76.7902 46.3849L78.7383 45.866L77.4719 41.1117L78.7938 40.7596ZM88.6897 38.1238L90.2649 44.0376L88.9662 44.3835L87.9191 40.4526L86.2876 45.097L85.012 45.4367L83.4368 39.5229L84.7356 39.177L85.7857 43.1195L87.4142 38.4635L88.6897 38.1238ZM91.6311 43.6737L90.0559 37.7599L92.7113 37.0526C93.3452 36.8837 93.8665 36.8981 94.2751 37.0956C94.6837 37.293 94.9477 37.616 95.0671 38.0643C95.1536 38.389 95.1445 38.6812 95.0398 38.9409C94.9408 39.1908 94.7877 39.393 94.5805 39.5476C94.9046 39.5523 95.2001 39.6516 95.467 39.8454C95.7416 40.0372 95.9294 40.3225 96.0303 40.7013C96.162 41.196 96.0846 41.6513 95.798 42.0671C95.517 42.4731 95.0518 42.7626 94.4025 42.9355L91.6311 43.6737ZM93.5668 40.4509L92.2565 40.7999L92.658 42.3074L93.9683 41.9583C94.2621 41.8801 94.4688 41.7547 94.5884 41.5821C94.7137 41.3997 94.7444 41.1887 94.6805 40.949C94.5488 40.4543 94.1775 40.2882 93.5668 40.4509ZM92.8208 38.1163L91.6264 38.4344L91.9909 39.8027L93.1852 39.4846C93.4403 39.4166 93.621 39.3023 93.7272 39.1415C93.8411 38.9787 93.8693 38.7891 93.8116 38.5726C93.6922 38.1242 93.3619 37.9721 92.8208 38.1163ZM99.9373 37.2639C99.8487 36.9315 99.6726 36.7052 99.4087 36.585C99.1506 36.4551 98.8476 36.4365 98.4997 36.5291C97.8736 36.6959 97.5439 37.0279 97.5108 37.5252L96.2584 37.8588C96.2153 37.3239 96.3621 36.8336 96.6987 36.3879C97.041 35.9325 97.56 35.6121 98.2558 35.4268C98.9902 35.2311 99.6243 35.2651 100.158 35.5286C100.7 35.79 101.061 36.2608 101.242 36.9411L102.28 40.8373L101.051 41.1647L100.872 40.4921C100.583 41.1486 100.044 41.5818 99.2557 41.7918C98.6682 41.9483 98.1331 41.9129 97.6503 41.6855C97.1732 41.4483 96.8594 41.0475 96.7091 40.4832C96.5526 39.8957 96.6399 39.384 96.9708 38.9481C97.3075 38.5025 97.8468 38.1808 98.589 37.9831L100.027 37.6001L99.9373 37.2639ZM99.2584 40.6362C99.6681 40.5271 99.9851 40.3185 100.209 40.0104C100.432 39.6945 100.491 39.3434 100.388 38.9568L100.292 38.5974L98.9474 38.9556C98.5995 39.0483 98.3408 39.1959 98.1712 39.3983C98.0072 39.591 97.9603 39.8188 98.0303 40.0816C98.1003 40.3445 98.2476 40.5246 98.4723 40.6221C98.6949 40.7118 98.9569 40.7165 99.2584 40.6362ZM101.769 35.8819L101.46 34.7223L106.562 33.3633L106.871 34.5229L104.981 35.0263L106.247 39.7806L104.925 40.1327L103.659 35.3784L101.769 35.8819ZM108.777 32.7732L109.256 34.5706L110.439 34.2555C111.096 34.0805 111.673 34.1338 112.17 34.4153C112.666 34.6891 112.992 35.1236 113.151 35.7188C113.312 36.3218 113.243 36.8739 112.946 37.3753C112.655 37.8668 112.185 38.1991 111.535 38.372L109.042 39.0361L107.467 33.1223L108.777 32.7732ZM110.573 35.412L109.553 35.6838L110.059 37.5855L111.08 37.3137C111.397 37.2292 111.619 37.0706 111.748 36.8377C111.884 36.6027 111.915 36.3461 111.841 36.0678C111.766 35.7895 111.614 35.5901 111.383 35.4694C111.16 35.3467 110.89 35.3275 110.573 35.412ZM59.1652 63.4978L59.8694 66.1417L58.5938 66.4814L58.1985 64.9972L54.024 66.1091L54.4194 67.5933L53.1438 67.9331L52.4396 65.2892L52.9151 65.1626C53.2115 64.8767 53.2681 64.2034 53.0849 63.1428L52.53 60.1736L57.0407 58.9721L58.3071 63.7264L59.1652 63.4978ZM54.3496 62.8556C54.523 63.7864 54.5164 64.4297 54.3297 64.7858L56.9852 64.0785L56.0277 60.4838L54.01 61.0212L54.3496 62.8556ZM62.7906 59.5766C62.7021 59.2442 62.5259 59.0179 62.2621 58.8978C62.0039 58.7678 61.7009 58.7492 61.353 58.8418C60.7269 59.0086 60.3972 59.3407 60.3641 59.8379L59.1118 60.1715C59.0686 59.6366 59.2154 59.1463 59.552 58.7006C59.8943 58.2452 60.4134 57.9248 61.1091 57.7395C61.8435 57.5439 62.4776 57.5778 63.0114 57.8413C63.5529 58.1027 63.9143 58.5736 64.0955 59.2539L65.1333 63.15L63.9041 63.4774L63.725 62.8049C63.4362 63.4613 62.8976 63.8945 62.1091 64.1046C61.5215 64.261 60.9864 64.2256 60.5036 63.9982C60.0265 63.761 59.7128 63.3603 59.5624 62.7959C59.406 62.2084 59.4932 61.6967 59.8242 61.2608C60.1608 60.8152 60.7002 60.4935 61.4423 60.2959L62.8802 59.9129L62.7906 59.5766ZM62.1117 62.9489C62.5214 62.8398 62.8384 62.6312 63.0627 62.3231C63.2849 62.0073 63.3445 61.6561 63.2415 61.2696L63.1458 60.9101L61.8007 61.2684C61.4528 61.361 61.1941 61.5086 61.0245 61.7111C60.8605 61.9038 60.8136 62.1315 60.8836 62.3944C60.9536 62.6572 61.1009 62.8373 61.3256 62.9348C61.5482 63.0245 61.8102 63.0292 62.1117 62.9489ZM69.1347 55.7508L69.8018 58.2555L71.1987 55.201L72.7178 54.7964L71.1631 58.191L74.3278 60.701L72.7739 61.1149L69.9686 58.8817L70.7099 61.6646L69.4112 62.0106L68.6699 59.2276L67.3471 62.5603L65.8049 62.9711L67.2994 59.2573L64.2529 57.0511L65.7719 56.6465L68.5031 58.6014L67.836 56.0967L69.1347 55.7508ZM79.2582 56.6308L75.0954 57.7396L75.1015 57.7628C75.223 58.2189 75.4708 58.5586 75.8448 58.7818C76.2189 59.0051 76.6417 59.0539 77.1133 58.9283C77.438 58.8418 77.6872 58.7051 77.8609 58.5181C78.0403 58.3213 78.1364 58.1383 78.1494 57.9693L79.4481 57.6234C79.4747 58.0965 79.319 58.5685 78.9808 59.0394C78.6503 59.5082 78.1179 59.8405 77.3835 60.0361C76.5022 60.2708 75.7218 60.1848 75.0422 59.778C74.3605 59.3635 73.8931 58.6808 73.6398 57.7299C73.3866 56.7791 73.4486 55.9554 73.826 55.2588C74.2014 54.5544 74.8104 54.09 75.653 53.8656C76.4647 53.6494 77.1851 53.7431 77.8142 54.1468C78.4433 54.5505 78.8763 55.1968 79.113 56.0858L79.2582 56.6308ZM75.9348 54.9703C75.5174 55.0815 75.2102 55.2957 75.0133 55.6131C74.824 55.9285 74.7667 56.3039 74.8413 56.7393L77.6707 55.9857C77.5399 55.5569 77.3189 55.2556 77.0077 55.0819C76.7022 54.8983 76.3446 54.8611 75.9348 54.9703ZM82.3455 53.002C82.7342 52.2858 83.3615 51.8124 84.2273 51.5817C85.0931 51.3511 85.8689 51.4508 86.5547 51.8808C87.2482 52.3087 87.7175 52.9826 87.9625 53.9026C88.2075 54.8225 88.1357 55.6405 87.7469 56.3567C87.3659 57.0709 86.7425 57.5432 85.8766 57.7739C85.0108 58.0045 84.2312 57.9058 83.5377 57.4779C82.8519 57.0479 82.3865 56.373 82.1415 55.453C81.8964 54.5331 81.9644 53.7161 82.3455 53.002ZM84.2746 56.3751C84.6554 56.6545 85.0854 56.7304 85.5647 56.6027C86.044 56.475 86.3754 56.1963 86.559 55.7666C86.7503 55.3348 86.7698 54.8329 86.6174 54.2608C86.465 53.6888 86.1985 53.263 85.8177 52.9836C85.4447 52.7022 85.0186 52.6253 84.5393 52.7529C84.06 52.8806 83.7247 53.1603 83.5334 53.5921C83.3498 54.0218 83.3342 54.5227 83.4866 55.0948C83.6389 55.6668 83.9016 56.0936 84.2746 56.3751ZM94.3404 54.2652C94.7269 54.1623 94.9988 53.9864 95.156 53.7375C95.321 53.4866 95.4022 53.2166 95.3998 52.9275L96.6869 52.5846C96.7779 53.2061 96.6432 53.7884 96.2829 54.3315C95.9225 54.8745 95.3751 55.2439 94.6407 55.4395C93.7826 55.668 93.0146 55.5663 92.3365 55.1342C91.6564 54.6945 91.1949 54.0185 90.9519 53.1063C90.711 52.2018 90.7723 51.3907 91.1358 50.673C91.5071 49.9532 92.1256 49.478 92.9914 49.2474C93.7413 49.0476 94.4009 49.0996 94.9702 49.4033C95.5375 49.6993 95.937 50.1268 96.1687 50.686L94.8816 51.0289C94.7266 50.7887 94.5161 50.6046 94.2503 50.4768C93.9901 50.3391 93.6744 50.3197 93.3034 50.4185C92.8395 50.5421 92.5158 50.8187 92.3322 51.2484C92.1564 51.6761 92.1447 52.176 92.297 52.748C92.4515 53.3278 92.7152 53.7584 93.0882 54.0399C93.4592 54.3137 93.8765 54.3888 94.3404 54.2652ZM100.631 49.4974C100.543 49.165 100.366 48.9388 100.103 48.8186C99.8444 48.6887 99.5414 48.67 99.1936 48.7627C98.5674 48.9295 98.2377 49.2615 98.2046 49.7588L96.9523 50.0924C96.9091 49.5574 97.0559 49.0671 97.3925 48.6215C97.7348 48.166 98.2539 47.8457 98.9496 47.6603C99.684 47.4647 100.318 47.4987 100.852 47.7621C101.393 48.0236 101.755 48.4944 101.936 49.1747L102.974 53.0709L101.745 53.3983L101.565 52.7257C101.277 53.3822 100.738 53.8154 99.9496 54.0254C99.3621 54.1819 98.8269 54.1464 98.3441 53.919C97.867 53.6819 97.5533 53.2811 97.403 52.7168C97.2465 52.1293 97.3337 51.6176 97.6647 51.1817C98.0013 50.736 98.5407 50.4144 99.2828 50.2167L100.721 49.8337L100.631 49.4974ZM99.9522 52.8698C100.362 52.7607 100.679 52.552 100.903 52.2439C101.125 51.9281 101.185 51.5769 101.082 51.1904L100.986 50.8309L99.6412 51.1892C99.2933 51.2819 99.0346 51.4295 98.865 51.6319C98.7011 51.8246 98.6541 52.0524 98.7241 52.3152C98.7941 52.578 98.9414 52.7582 99.1661 52.8557C99.3887 52.9454 99.6507 52.9501 99.9522 52.8698ZM102.72 46.8052L104.389 46.3604L107.411 50.1505L108.146 45.3597L109.793 44.9211L111.368 50.8349L110.093 51.1747L109.015 47.1278L108.312 51.6241L107.338 51.8835L104.495 48.344L105.57 52.3793L104.295 52.719L102.72 46.8052ZM111.817 45.1519C112.206 44.4357 112.833 43.9623 113.699 43.7317C114.565 43.5011 115.341 43.6008 116.026 44.0308C116.72 44.4587 117.189 45.1326 117.434 46.0525C117.679 46.9725 117.607 47.7905 117.219 48.5067C116.838 49.2208 116.214 49.6932 115.348 49.9238C114.482 50.1544 113.703 50.0558 113.009 49.6279C112.324 49.1979 111.858 48.5229 111.613 47.603C111.368 46.6831 111.436 45.8661 111.817 45.1519ZM113.746 48.525C114.127 48.8044 114.557 48.8803 115.036 48.7527C115.516 48.625 115.847 48.3463 116.031 47.9166C116.222 47.4848 116.241 46.9829 116.089 46.4108C115.937 45.8388 115.67 45.413 115.289 45.1336C114.916 44.8521 114.49 44.7752 114.011 44.9029C113.532 45.0305 113.196 45.3103 113.005 45.7421C112.821 46.1718 112.806 46.6727 112.958 47.2447C113.111 47.8168 113.373 48.2436 113.746 48.525ZM117.679 42.8206L119.349 42.3759L122.37 46.1659L123.106 41.3752L124.752 40.9366L126.328 46.8504L125.052 47.1901L123.974 43.1432L123.272 47.6395L122.298 47.899L119.455 44.3594L120.53 48.3947L119.254 48.7344L117.679 42.8206ZM57.7852 77.5256L56.4633 77.8777L54.8881 71.9639L56.21 71.6118L56.8154 73.8846L59.3548 73.2082L58.7495 70.9354L60.0714 70.5833L61.6466 76.4971L60.3247 76.8492L59.6668 74.3793L57.1273 75.0557L57.7852 77.5256ZM65.4376 71.2899C65.349 70.9575 65.1729 70.7312 64.909 70.6111C64.6509 70.4812 64.3479 70.4625 64 70.5552C63.3739 70.722 63.0442 71.054 63.0111 71.5513L61.7588 71.8848C61.7156 71.3499 61.8624 70.8596 62.199 70.414C62.5413 69.9585 63.0603 69.6381 63.7561 69.4528C64.4905 69.2572 65.1246 69.2912 65.6584 69.5546C66.1999 69.8161 66.5613 70.2869 66.7425 70.9672L67.7802 74.8634L66.5511 75.1907L66.372 74.5182C66.0832 75.1746 65.5446 75.6079 64.756 75.8179C64.1685 75.9744 63.6334 75.9389 63.1506 75.7115C62.6735 75.4743 62.3597 75.0736 62.2094 74.5093C62.0529 73.9218 62.1402 73.4101 62.4711 72.9742C62.8078 72.5285 63.3472 72.2069 64.0893 72.0092L65.5271 71.6262L65.4376 71.2899ZM64.7587 74.6623C65.1684 74.5532 65.4854 74.3445 65.7097 74.0364C65.9318 73.7206 65.9915 73.3694 65.8885 72.9829L65.7928 72.6234L64.4477 72.9817C64.0998 73.0744 63.8411 73.2219 63.6715 73.4244C63.5075 73.6171 63.4606 73.8449 63.5306 74.1077C63.6006 74.3705 63.7479 74.5507 63.9726 74.6481C64.1952 74.7379 64.4572 74.7426 64.7587 74.6623ZM70.5649 67.8379C71.3457 67.63 72.0506 67.7278 72.6797 68.1315C73.3165 68.5331 73.7564 69.19 73.9994 70.1022C74.228 70.9603 74.1576 71.7531 73.7885 72.4807C73.425 73.1984 72.8142 73.6716 71.9561 73.9001C70.9975 74.1554 70.1622 74.0343 69.4502 73.5369C68.7361 73.0316 68.2256 72.2031 67.9188 71.0513C67.542 69.6366 67.481 68.5062 67.7358 67.6601C67.9886 66.8063 68.6187 66.1417 69.6263 65.6663L71.9093 64.5864L72.2305 65.7923L70.1231 66.7386C69.5412 67.0095 69.1515 67.3493 68.954 67.7579C68.7545 68.1587 68.7082 68.6843 68.8152 69.3347C69.0849 68.5757 69.6682 68.0768 70.5649 67.8379ZM71.5807 72.7707C72.0677 72.6409 72.4041 72.3651 72.5897 71.9431C72.781 71.5113 72.8026 71.0171 72.6543 70.4605C72.5102 69.9194 72.2498 69.5168 71.8732 69.2529C71.5022 68.9791 71.0771 68.9061 70.5978 69.0338C70.1185 69.1614 69.7724 69.4316 69.5594 69.8443C69.3444 70.2493 69.311 70.7301 69.4593 71.2867C69.6117 71.8587 69.8782 72.2845 70.259 72.5639C70.6454 72.8335 71.086 72.9024 71.5807 72.7707ZM74.8797 67.4089C75.2685 66.6927 75.8958 66.2193 76.7616 65.9887C77.6274 65.7581 78.4032 65.8578 79.089 66.2877C79.7825 66.7157 80.2517 67.3896 80.4968 68.3095C80.7418 69.2294 80.6699 70.0475 80.2812 70.7637C79.9001 71.4778 79.2767 71.9502 78.4109 72.1808C77.5451 72.4114 76.7654 72.3128 76.0719 71.8849C75.3861 71.4549 74.9207 70.7799 74.6757 69.86C74.4307 68.9401 74.4987 68.123 74.8797 67.4089ZM76.8089 70.782C77.1896 71.0614 77.6197 71.1373 78.0989 71.0096C78.5782 70.882 78.9097 70.6033 79.0933 70.1736C79.2846 69.7418 79.304 69.2398 79.1517 68.6678C78.9993 68.0957 78.7327 67.67 78.352 67.3906C77.979 67.1091 77.5528 67.0322 77.0735 67.1599C76.5942 67.2875 76.2589 67.5673 76.0676 67.999C75.884 68.4288 75.8684 68.9297 76.0208 69.5017C76.1732 70.0738 76.4359 70.5005 76.8089 70.782ZM81.6062 71.2055L81.2973 70.046L81.4828 69.9966C81.8075 69.9101 82.0119 69.7604 82.0959 69.5476C82.1857 69.325 82.1891 68.9805 82.1063 68.5141L81.4511 64.8886L85.7994 63.7304L87.3746 69.6442L86.0527 69.9963L84.7864 65.2421L82.9195 65.7393L83.3833 68.2733C83.5377 69.1015 83.5009 69.7405 83.273 70.1903C83.0508 70.6303 82.615 70.9368 81.9656 71.1098L81.6062 71.2055ZM93.2522 65.3218L89.0894 66.4306L89.0955 66.4538C89.217 66.9099 89.4648 67.2496 89.8389 67.4728C90.2129 67.6961 90.6357 67.7449 91.1073 67.6193C91.432 67.5328 91.6812 67.396 91.8549 67.209C92.0343 67.0122 92.1304 66.8293 92.1434 66.6603L93.4421 66.3144C93.4688 66.7874 93.313 67.2594 92.9748 67.7303C92.6443 68.1992 92.1119 68.5314 91.3775 68.727C90.4963 68.9618 89.7158 68.8757 89.0362 68.469C88.3546 68.0544 87.8871 67.3718 87.6338 66.4209C87.3806 65.4701 87.4426 64.6463 87.8201 63.9497C88.1954 63.2454 88.8044 62.781 89.647 62.5565C90.4587 62.3403 91.1791 62.4341 91.8082 62.8378C92.4373 63.2414 92.8703 63.8878 93.1071 64.7768L93.2522 65.3218ZM89.9289 63.6612C89.5114 63.7724 89.2042 63.9867 89.0073 64.3041C88.8181 64.6194 88.7607 64.9948 88.8353 65.4303L91.6647 64.6767C91.5339 64.2479 91.3129 63.9466 91.0017 63.7728C90.6962 63.5893 90.3386 63.5521 89.9289 63.6612ZM94.966 67.6222L93.3908 61.7084L96.0462 61.0011C96.6801 60.8322 97.2014 60.8466 97.61 61.044C98.0186 61.2415 98.2826 61.5645 98.402 62.0128C98.4885 62.3375 98.4794 62.6297 98.3747 62.8894C98.2757 63.1393 98.1226 63.3415 97.9154 63.4961C98.2395 63.5008 98.535 63.6001 98.8019 63.7939C99.0765 63.9857 99.2643 64.271 99.3652 64.6498C99.497 65.1445 99.4195 65.5998 99.1329 66.0156C98.8519 66.4216 98.3868 66.711 97.7374 66.884L94.966 67.6222ZM96.9017 64.3994L95.5914 64.7484L95.9929 66.2558L97.3033 65.9068C97.597 65.8286 97.8037 65.7032 97.9233 65.5306C98.0486 65.3482 98.0793 65.1372 98.0155 64.8975C97.8837 64.4028 97.5124 64.2367 96.9017 64.3994ZM96.1557 62.0647L94.9613 62.3829L95.3258 63.7512L96.5202 63.433C96.7753 63.3651 96.9559 63.2507 97.0621 63.09C97.1761 62.9272 97.2042 62.7375 97.1465 62.5211C97.0271 62.0727 96.6968 61.9206 96.1557 62.0647ZM103.866 58.9183L105.132 63.6725L107.08 63.1536L105.814 58.3994L107.136 58.0473L108.711 63.9611L100.849 66.0552L99.2738 60.1414L100.596 59.7893L101.862 64.5435L103.81 64.0246L102.544 59.2704L103.866 58.9183ZM114.582 59.6405L110.419 60.7494L110.425 60.7725C110.546 61.2286 110.794 61.5683 111.168 61.7916C111.542 62.0148 111.965 62.0636 112.437 61.938C112.761 61.8515 113.01 61.7148 113.184 61.5278C113.364 61.331 113.46 61.1481 113.473 60.979L114.771 60.6331C114.798 61.1062 114.642 61.5782 114.304 62.0491C113.974 62.5179 113.441 62.8502 112.707 63.0458C111.826 63.2805 111.045 63.1945 110.366 62.7877C109.684 62.3732 109.216 61.6905 108.963 60.7397C108.71 59.7888 108.772 58.9651 109.149 58.2685C109.525 57.5641 110.134 57.0997 110.976 56.8753C111.788 56.6591 112.508 56.7528 113.138 57.1565C113.767 57.5602 114.2 58.2065 114.436 59.0955L114.582 59.6405ZM111.258 57.98C110.841 58.0912 110.534 58.3055 110.337 58.6228C110.147 58.9382 110.09 59.3136 110.165 59.749L112.994 58.9954C112.863 58.5666 112.642 58.2654 112.331 58.0916C112.026 57.9081 111.668 57.8709 111.258 57.98ZM114.72 56.0271L116.39 55.5824L119.411 59.3724L120.147 54.5817L121.794 54.1431L123.369 60.0569L122.093 60.3966L121.015 56.3497L120.313 60.846L119.339 61.1054L116.496 57.5659L117.571 61.6012L116.295 61.9409L114.72 56.0271Z" fill="#0F1414"/>
<defs>
<linearGradient id="paint0_linear_201_816" x1="109.43" y1="3.23516" x2="125.705" y2="64.3372" gradientUnits="userSpaceOnUse">
<stop stop-color="#F9F9F9"/>
<stop offset="1" stop-color="#F4F4F4"/>
</linearGradient>
</defs>
</svg>
