<svg width="190" height="120" viewBox="0 0 190 120" fill="none" xmlns="http://www.w3.org/2000/svg">
<path fill-rule="evenodd" clip-rule="evenodd" d="M155.677 47.4227C163.082 49.6481 167.281 57.455 165.056 64.8598L158.663 86.1302C156.438 93.535 148.631 97.7338 141.226 95.5084L86.8077 79.154C85.7917 78.8486 84.696 78.9594 83.7617 79.4619L76.4695 83.3839C74.5239 84.4303 72.0984 83.7014 71.052 81.7558L67.13 74.4635C66.6275 73.5292 65.7744 72.8328 64.7584 72.5275L36.7672 64.1152C29.3624 61.8898 25.1636 54.083 27.389 46.6782L33.7814 25.4078C36.0068 18.0029 43.8136 13.8042 51.2184 16.0296L155.677 47.4227Z" fill="url(#paint0_linear_163_802)"/>
<path d="M46.8331 34.7395L47.1913 33.5691L50.3927 34.5488C50.5186 33.8093 50.4397 33.1786 50.156 32.6568C49.8747 32.1272 49.428 31.7688 48.816 31.5816C48.2729 31.4153 47.787 31.4173 47.3585 31.5873C46.9323 31.7497 46.5922 32.0137 46.3381 32.3794L44.984 31.965C45.3512 31.2575 45.9077 30.7376 46.6536 30.4053C47.4071 30.0753 48.2543 30.0543 49.1952 30.3423C50.2968 30.6794 51.0721 31.3308 51.5212 32.2965C51.9803 33.2569 52.0143 34.3758 51.6234 35.6533C51.2324 36.9308 50.5692 37.8406 49.6336 38.3825C48.7081 38.9192 47.706 39.0225 46.6274 38.6924C46.0995 38.5308 45.6433 38.2992 45.2588 37.9975C44.8819 37.6981 44.6044 37.3747 44.4262 37.0274C44.2504 36.6724 44.1267 36.325 44.055 35.9851C43.9933 35.6399 43.9863 35.3073 44.034 34.9873L45.3995 35.4052C45.3943 35.8051 45.5154 36.202 45.7631 36.5957C46.0184 36.9917 46.4367 37.2787 47.0181 37.4566C47.653 37.6509 48.2437 37.5933 48.7903 37.2836C49.3368 36.974 49.7554 36.4537 50.046 35.7228L46.8331 34.7395ZM52.4689 35.1842L52.8201 34.0367L57.8689 35.5818L57.5178 36.7293L55.6474 36.1569L54.2077 40.8615L52.8995 40.4612L54.3393 35.7566L52.4689 35.1842ZM58.7817 36.6392C59.4904 36.237 60.2731 36.167 61.1299 36.4292C61.9867 36.6914 62.5924 37.1863 62.947 37.9139C63.3092 38.6439 63.3511 39.464 63.0725 40.3743C62.7939 41.2846 62.3002 41.9409 61.5915 42.3431C60.8904 42.7477 60.1115 42.8189 59.2547 42.5567C58.398 42.2945 57.7884 41.7984 57.4262 41.0684C57.0716 40.3408 57.0336 39.5218 57.3122 38.6115C57.5908 37.7012 58.0806 37.0438 58.7817 36.6392ZM58.6349 40.5222C58.8103 40.9608 59.1351 41.2526 59.6094 41.3977C60.0837 41.5429 60.5124 41.4816 60.8955 41.214C61.2862 40.9487 61.5682 40.5331 61.7414 39.967C61.9146 39.4009 61.9136 38.8986 61.7382 38.4601C61.5705 38.0239 61.2495 37.7333 60.7752 37.5881C60.301 37.443 59.8684 37.503 59.4777 37.7683C59.0946 38.0359 58.8165 38.4528 58.6432 39.0189C58.47 39.5849 58.4672 40.0861 58.6349 40.5222ZM66.7761 44.7078L65.468 44.3075L67.2589 38.4554L68.567 38.8557L67.8788 41.1048L70.3917 41.8738L71.08 39.6247L72.3881 40.0251L70.5972 45.8772L69.2891 45.4769L70.0371 43.0327L67.5241 42.2637L66.7761 44.7078ZM76.5686 43.4629C76.6693 43.134 76.6395 42.8487 76.4791 42.6072C76.3287 42.3604 76.0814 42.1844 75.7372 42.079C75.1176 41.8894 74.6622 41.9968 74.3711 42.4014L73.1318 42.0221C73.3781 41.5453 73.762 41.2068 74.2834 41.0066C74.8148 40.8011 75.4247 40.8037 76.1132 41.0144C76.8399 41.2368 77.3601 41.601 77.6738 42.1069C77.9951 42.6152 78.0528 43.206 77.8468 43.8791L76.6669 47.7346L75.4506 47.3624L75.6543 46.6969C75.062 47.1013 74.3757 47.1841 73.5954 46.9453C73.0141 46.7674 72.5786 46.4542 72.2891 46.0059C72.0097 45.5523 71.9554 45.0462 72.1263 44.4878C72.3042 43.9064 72.6488 43.5183 73.1603 43.3234C73.6817 43.1232 74.3096 43.1355 75.0439 43.3602L76.4668 43.7957L76.5686 43.4629ZM74.2089 45.9659C74.6143 46.09 74.9937 46.0806 75.347 45.9377C75.7026 45.7872 75.9389 45.5207 76.056 45.1382L76.1648 44.7825L74.8337 44.3751C74.4895 44.2698 74.1919 44.2582 73.9408 44.3403C73.6998 44.4172 73.5395 44.5856 73.4599 44.8457C73.3803 45.1058 73.4101 45.3366 73.5492 45.5382C73.6906 45.732 73.9105 45.8746 74.2089 45.9659ZM84.309 43.6732L82.8693 48.3778L84.797 48.9677L86.2368 44.2631L87.5449 44.6634L85.754 50.5155L77.9741 48.1347L79.765 42.2826L81.0731 42.6829L79.6334 47.3875L81.5611 47.9775L83.0009 43.2728L84.309 43.6732ZM91.1729 45.7737L96.2677 47.3328L94.4768 53.1849L93.1687 52.7846L94.6084 48.08L92.1299 47.3215L90.6902 52.0261L89.382 51.6258L91.1729 45.7737ZM100.739 48.5507C101.466 48.7731 101.995 49.232 102.326 49.9273C102.665 50.6249 102.688 51.4518 102.395 52.4081C102.103 53.3643 101.617 54.0355 100.938 54.4218C100.267 54.8105 99.5642 54.8924 98.8299 54.6677C98.4244 54.5436 98.0909 54.3621 97.8294 54.1231C97.5779 53.8788 97.4146 53.6196 97.3395 53.3457L96.4686 56.1914L95.1605 55.7911L97.6221 47.7473L98.8843 48.1336L98.6525 48.8909C99.2023 48.4066 99.898 48.2932 100.739 48.5507ZM98.9665 53.442C99.4255 53.5825 99.8454 53.5227 100.226 53.2627C100.617 52.9975 100.9 52.578 101.076 52.0042C101.249 51.4381 101.248 50.9358 101.072 50.4973C100.905 50.0612 100.591 49.7729 100.132 49.6324C99.6657 49.4896 99.2382 49.547 98.8498 49.8046C98.4637 50.0546 98.1829 50.4664 98.0074 51.0402L97.9933 51.0861C97.8177 51.6598 97.8188 52.1621 97.9965 52.593C98.1765 53.0162 98.4999 53.2992 98.9665 53.442ZM104.548 50.6448C105.257 50.2426 106.039 50.1726 106.896 50.4348C107.753 50.697 108.359 51.1919 108.713 51.9195C109.075 52.6495 109.117 53.4696 108.839 54.3799C108.56 55.2903 108.066 55.9465 107.358 56.3487C106.657 56.7533 105.878 56.8245 105.021 56.5623C104.164 56.3001 103.555 55.804 103.192 55.0741C102.838 54.3464 102.8 53.5275 103.078 52.6171C103.357 51.7068 103.847 51.0494 104.548 50.6448ZM104.401 54.5279C104.576 54.9664 104.901 55.2582 105.376 55.4033C105.85 55.5485 106.279 55.4872 106.662 55.2196C107.052 54.9544 107.334 54.5387 107.508 53.9726C107.681 53.4065 107.68 52.9042 107.504 52.4657C107.337 52.0295 107.016 51.7389 106.541 51.5937C106.067 51.4486 105.635 51.5087 105.244 51.7739C104.861 52.0415 104.583 52.4584 104.409 53.0245C104.236 53.5906 104.233 54.0917 104.401 54.5279ZM114.822 52.8729C115.708 53.1774 116.352 53.6966 116.755 54.4306C117.158 55.1646 117.223 55.9753 116.952 56.8627C116.68 57.7501 116.172 58.3852 115.427 58.7681C114.683 59.1509 113.858 59.2207 112.954 58.9774L112.322 61.0428L111.037 60.6496L111.669 58.5841C110.775 58.2773 110.127 57.7568 109.724 57.0228C109.322 56.2888 109.256 55.4781 109.527 54.5907C109.799 53.7034 110.307 53.0682 111.052 52.6854C111.796 52.3025 112.625 52.2339 113.537 52.4796L114.2 50.3108L115.486 50.7041L114.822 52.8729ZM112.016 57.4481L113.189 53.6156C112.687 53.4787 112.215 53.5309 111.773 53.7721C111.334 54.0057 111.025 54.4132 110.847 54.9946C110.669 55.576 110.696 56.0903 110.927 56.5375C111.161 56.9771 111.524 57.2806 112.016 57.4481ZM115.644 56.4624C115.821 55.881 115.794 55.3705 115.56 54.9309C115.329 54.4837 114.967 54.1763 114.474 54.0089L113.301 57.8414C113.803 57.9783 114.275 57.9261 114.717 57.6849C115.159 57.4436 115.468 57.0361 115.644 56.4624ZM124.061 55.8384L122.27 61.6905L120.985 61.2972L122.176 57.4073L118.335 60.486L117.072 60.0998L118.863 54.2477L120.148 54.6409L118.955 58.5424L122.799 55.4521L124.061 55.8384ZM122.996 61.9375L123.347 60.7901L123.53 60.8463C123.852 60.9446 124.104 60.9257 124.288 60.7895C124.482 60.6481 124.667 60.3575 124.844 59.9179L126.205 56.4944L130.508 57.8112L128.717 63.6634L127.409 63.263L128.849 58.5584L127.001 57.993L126.055 60.3889C125.748 61.1734 125.379 61.6963 124.947 61.9575C124.526 62.2134 123.994 62.2431 123.351 62.0464L122.996 61.9375ZM133.17 58.626L132.626 60.4045L133.796 60.7627C134.447 60.9617 134.908 61.3121 135.181 61.814C135.457 62.3083 135.504 62.8499 135.324 63.4389C135.142 64.0356 134.792 64.4682 134.274 64.7366C133.767 64.9997 133.192 65.0329 132.55 64.8362L130.083 64.0813L131.874 58.2292L133.17 58.626ZM133.299 61.8151L132.289 61.5061L131.713 63.388L132.723 63.697C133.036 63.793 133.309 63.7761 133.541 63.6463C133.781 63.5189 133.943 63.3175 134.028 63.0421C134.112 62.7667 134.088 62.5168 133.956 62.2923C133.831 62.0702 133.612 61.9111 133.299 61.8151ZM137.536 65.6344C137.48 65.818 137.381 66.0052 137.239 66.1959L135.933 67.8795L134.935 67.574L136.14 65.9726C135.823 65.7249 135.719 65.4213 135.829 65.0617C135.902 64.8246 136.042 64.6541 136.249 64.5503C136.457 64.4464 136.683 64.432 136.928 64.5069C137.172 64.5818 137.353 64.7292 137.47 64.949C137.589 65.1611 137.611 65.3896 137.536 65.6344ZM41.029 44.2327L41.3802 43.0852L46.4291 44.6303L46.0779 45.7777L44.2075 45.2054L42.7678 49.91L41.4597 49.5097L42.8994 44.805L41.029 44.2327ZM51.1342 46.0702L52.5456 46.5021L46.9285 53.5802L45.5286 53.1518L47.1374 51.1343L46.6476 44.6972L48.059 45.1291L48.3149 49.7879L51.1342 46.0702ZM52.4146 47.7169L52.7657 46.5694L57.8146 48.1145L57.4634 49.262L55.5931 48.6896L54.1533 53.3942L52.8452 52.9939L54.2849 48.2893L52.4146 47.7169ZM60.1694 50.0901L60.5206 48.9426L65.5694 50.4877L65.2183 51.6352L63.3479 51.0628L61.9082 55.7674L60.6 55.3671L62.0398 50.6625L60.1694 50.0901ZM66.4821 51.5451C67.1909 51.1429 67.9736 51.0729 68.8304 51.3351C69.6872 51.5973 70.2929 52.0922 70.6475 52.8198C71.0097 53.5497 71.0516 54.3699 70.773 55.2802C70.4944 56.1905 70.0007 56.8468 69.292 57.249C68.5909 57.6536 67.812 57.7247 66.9552 57.4626C66.0985 57.2004 65.4889 56.7043 65.1267 55.9743C64.7721 55.2467 64.7341 54.4277 65.0127 53.5174C65.2912 52.6071 65.7811 51.9496 66.4821 51.5451ZM66.3354 55.4281C66.5108 55.8666 66.8356 56.1585 67.3099 56.3036C67.7842 56.4488 68.2129 56.3875 68.596 56.1199C68.9867 55.8546 69.2687 55.4389 69.4419 54.8729C69.6151 54.3068 69.6141 53.8045 69.4387 53.366C69.271 52.9298 68.95 52.6391 68.4757 52.494C68.0014 52.3489 67.5689 52.4089 67.1782 52.6742C66.7951 52.9418 66.517 53.3587 66.3437 53.9247C66.1705 54.4908 66.1677 54.992 66.3354 55.4281ZM76.0305 53.6891L77.3386 54.0894L75.5477 59.9415L74.2396 59.5412L74.9454 57.2348C74.5403 57.3283 74.0739 57.2943 73.546 57.1328C72.8652 56.9244 72.3753 56.557 72.0763 56.0304C71.7773 55.5039 71.746 54.8543 71.9824 54.0817L72.4389 52.5899L73.747 52.9903L73.3186 54.3902C73.0541 55.2546 73.3464 55.8168 74.1955 56.0766C74.578 56.1937 74.938 56.2202 75.2755 56.1561L76.0305 53.6891ZM78.2082 60.7556L76.9 60.3553L78.6909 54.5032L79.9991 54.9035L79.3108 57.1526L81.8238 57.9216L82.512 55.6726L83.8201 56.0729L82.0292 61.925L80.7211 61.5247L81.4691 59.0806L78.9561 58.3115L78.2082 60.7556ZM85.415 57.339C86.1237 56.9368 86.9064 56.8668 87.7632 57.129C88.62 57.3912 89.2257 57.8861 89.5803 58.6137C89.9425 59.3437 89.9844 60.1638 89.7058 61.0741C89.4272 61.9845 88.9336 62.6407 88.2248 63.0429C87.5238 63.4475 86.7448 63.5187 85.8881 63.2565C85.0313 62.9943 84.4218 62.4982 84.0595 61.7682C83.7049 61.0406 83.6669 60.2217 83.9455 59.3113C84.2241 58.401 84.7139 57.7436 85.415 57.339ZM85.2683 61.2221C85.4436 61.6606 85.7684 61.9524 86.2427 62.0975C86.717 62.2427 87.1457 62.1814 87.5288 61.9138C87.9195 61.6486 88.2015 61.2329 88.3747 60.6668C88.548 60.1007 88.5469 59.5984 88.3716 59.1599C88.2038 58.7237 87.8828 58.4331 87.4086 58.2879C86.9343 58.1428 86.5018 58.2028 86.111 58.4681C85.728 58.7357 85.4498 59.1526 85.2766 59.7187C85.1033 60.2848 85.1006 60.7859 85.2683 61.2221ZM93.8922 59.1552L98.987 60.7143L97.1961 66.5664L95.888 66.1661L97.3277 61.4615L94.8492 60.703L93.4095 65.4076L92.1013 65.0073L93.8922 59.1552ZM100.583 61.9807C101.291 61.5785 102.074 61.5085 102.931 61.7707C103.788 62.0329 104.393 62.5278 104.748 63.2554C105.11 63.9854 105.152 64.8055 104.873 65.7158C104.595 66.6262 104.101 67.2824 103.393 67.6846C102.691 68.0892 101.913 68.1604 101.056 67.8982C100.199 67.636 99.5894 67.1399 99.2272 66.4099C98.8726 65.6823 98.8346 64.8634 99.1132 63.953C99.3918 63.0427 99.8816 62.3853 100.583 61.9807ZM100.436 65.8638C100.611 66.3023 100.936 66.5941 101.41 66.7392C101.885 66.8844 102.313 66.8231 102.696 66.5555C103.087 66.2903 103.369 65.8746 103.542 65.3085C103.716 64.7424 103.715 64.2401 103.539 63.8016C103.372 63.3654 103.051 63.0748 102.576 62.9296C102.102 62.7845 101.669 62.8445 101.279 63.1098C100.896 63.3774 100.617 63.7943 100.444 64.3604C100.271 64.9265 100.268 65.4276 100.436 65.8638ZM106.791 63.1024L108.443 63.6081L109.003 68.4226L112.161 64.7458L113.79 65.2445L111.999 71.0966L110.737 70.7103L111.963 66.7056L108.988 70.1501L108.025 69.8551L107.484 65.3476L106.262 69.3408L105 68.9545L106.791 63.1024ZM115.386 66.5109C116.095 66.1087 116.877 66.0387 117.734 66.3009C118.591 66.5631 119.197 67.058 119.551 67.7856C119.913 68.5155 119.955 69.3357 119.677 70.246C119.398 71.1563 118.905 71.8126 118.196 72.2148C117.495 72.6194 116.716 72.6906 115.859 72.4284C115.002 72.1662 114.393 71.6701 114.03 70.9401C113.676 70.2125 113.638 69.3935 113.916 68.4832C114.195 67.5729 114.685 66.9154 115.386 66.5109ZM115.239 70.3939C115.415 70.8324 115.739 71.1243 116.214 71.2694C116.688 71.4146 117.117 71.3533 117.5 71.0857C117.89 70.8204 118.172 70.4048 118.346 69.8387C118.519 69.2726 118.518 68.7703 118.343 68.3318C118.175 67.8956 117.854 67.6049 117.38 67.4598C116.905 67.3147 116.473 67.3747 116.082 67.64C115.699 67.9076 115.421 68.3245 115.248 68.8905C115.074 69.4566 115.072 69.9578 115.239 70.3939ZM125.592 68.8562L124.834 71.3347L127.635 69.4812L129.138 69.9412L126.023 71.9999L127.381 75.8039L125.844 75.3333L124.644 71.9544L123.801 74.7083L122.516 74.315L123.359 71.5611L120.474 73.6899L118.947 73.2229L122.18 70.8615L120.761 67.3778L122.264 67.8378L123.548 70.9414L124.307 68.4629L125.592 68.8562ZM133.718 74.9572L129.599 73.6966L129.592 73.7195C129.454 74.1709 129.484 74.5902 129.684 74.9775C129.883 75.3648 130.216 75.6299 130.683 75.7727C131.004 75.871 131.288 75.8867 131.534 75.8199C131.791 75.7477 131.969 75.6434 132.069 75.5068L133.355 75.9001C133.127 76.3156 132.745 76.6338 132.209 76.8546C131.681 77.0778 131.053 77.0781 130.326 76.8557C129.454 76.5889 128.837 76.1031 128.476 75.3984C128.117 74.6861 128.081 73.8595 128.369 72.9186C128.657 71.9776 129.145 71.3114 129.834 70.9198C130.525 70.5205 131.287 70.4485 132.121 70.7037C132.924 70.9495 133.486 71.41 133.807 72.0854C134.127 72.7607 134.153 73.5382 133.883 74.4179L133.718 74.9572ZM131.776 71.7902C131.363 71.6638 130.989 71.6832 130.654 71.8484C130.327 72.016 130.079 72.3042 129.912 72.7133L132.712 73.5701C132.828 73.137 132.8 72.7645 132.628 72.4524C132.465 72.135 132.182 71.9143 131.776 71.7902ZM135.747 71.9639L137.4 72.4695L137.959 77.2841L141.117 73.6073L142.747 74.1059L140.956 79.958L139.694 79.5718L140.919 75.5671L137.945 79.0115L136.981 78.7166L136.44 74.2091L135.218 78.2023L133.956 77.816L135.747 71.9639ZM146.436 80.9072C146.38 81.0908 146.28 81.278 146.138 81.4687L144.833 83.1523L143.834 82.8468L145.04 81.2454C144.722 80.9977 144.619 80.6941 144.729 80.3345C144.801 80.0974 144.941 79.9269 145.149 79.8231C145.356 79.7192 145.582 79.7048 145.827 79.7797C146.072 79.8546 146.253 80.002 146.369 80.2218C146.489 80.4339 146.511 80.6624 146.436 80.9072ZM146.428 75.6842C146.645 75.5751 146.873 75.5568 147.11 75.6294C147.347 75.7019 147.521 75.8431 147.633 76.0529C147.752 76.2651 147.775 76.4897 147.703 76.7269C147.63 76.964 147.484 77.141 147.264 77.2578C147.054 77.3693 146.831 77.3887 146.594 77.3161C146.356 77.2436 146.178 77.1012 146.059 76.8891C145.95 76.6716 145.932 76.4443 146.004 76.2072C146.077 75.97 146.218 75.7957 146.428 75.6842ZM149.615 73.4846L150.9 73.8778C151.197 74.6297 151.375 75.4958 151.435 76.4762C151.503 77.4589 151.379 78.4628 151.066 79.4879C150.752 80.513 150.293 81.41 149.69 82.1791C149.094 82.9505 148.462 83.5685 147.792 84.033L146.507 83.6397C148.095 82.4439 149.17 80.9241 149.735 79.0805C150.301 77.2293 150.261 75.364 149.615 73.4846Z" fill="white"/>
<defs>
<linearGradient id="paint0_linear_163_802" x1="110.244" y1="15.0194" x2="79.3751" y2="117.734" gradientUnits="userSpaceOnUse">
<stop stop-color="#66BEBE"/>
<stop offset="1" stop-color="#65DEA3"/>
</linearGradient>
</defs>
</svg>
