<svg width="190" height="120" viewBox="0 0 190 120" fill="none" xmlns="http://www.w3.org/2000/svg">
<path fill-rule="evenodd" clip-rule="evenodd" d="M162.235 44.2499C169.64 46.4753 173.839 54.2821 171.613 61.6869L162.547 91.8534C160.322 99.2582 152.515 103.457 145.11 101.232L89.1053 84.4003L76.8306 91.002L70.2289 78.7274L31.244 67.0112C23.8392 64.7858 19.6404 56.979 21.8658 49.5742L30.9318 19.4077C33.1572 12.0029 40.964 7.80416 48.3688 10.0295L162.235 44.2499Z" fill="url(#paint0_linear_163_821)"/>
<path d="M47.7014 31.356L46.8516 34.1329L45.5435 33.7326L46.014 32.195L40.4602 30.4954L39.9897 32.033L38.6816 31.6327L39.5314 28.8558L40.1625 29.0489C40.4964 28.942 40.7928 28.698 41.0516 28.3171C41.3127 27.9285 41.5918 27.3446 41.8888 26.5654L43.4028 22.5612L48.8074 24.2151L46.7145 31.054L47.7014 31.356ZM43.1969 26.9657C42.9023 27.7373 42.6432 28.3105 42.4196 28.6855C42.2061 29.0552 41.9548 29.3297 41.6657 29.509L45.3491 30.6362L47.0662 25.025L44.2549 24.1647L43.1969 26.9657ZM52.8123 30.0338C52.913 29.7048 52.8831 29.4196 52.7228 29.1781C52.5724 28.9313 52.3251 28.7552 51.9809 28.6499C51.3612 28.4603 50.9059 28.5677 50.6148 28.9722L49.3755 28.593C49.6218 28.1162 50.0056 27.7777 50.5271 27.5775C51.0584 27.372 51.6684 27.3746 52.3569 27.5853C53.0836 27.8077 53.6038 28.1719 53.9175 28.6778C54.2388 29.1861 54.2965 29.7768 54.0905 30.45L52.9106 34.3055L51.6943 33.9333L51.8979 33.2678C51.3057 33.6721 50.6194 33.7549 49.8391 33.5162C49.2577 33.3382 48.8223 33.0251 48.5328 32.5768C48.2533 32.1231 48.199 31.6171 48.3699 31.0587C48.5479 30.4773 48.8925 30.0891 49.4039 29.8943C49.9253 29.6941 50.5532 29.7064 51.2876 29.9311L52.7105 30.3665L52.8123 30.0338ZM50.4526 32.5368C50.858 32.6609 51.2374 32.6515 51.5906 32.5086C51.9462 32.3581 52.1826 32.0916 52.2996 31.7091L52.4085 31.3534L51.0774 30.946C50.7332 30.8407 50.4355 30.8291 50.1845 30.9112C49.9435 30.988 49.7832 31.1565 49.7036 31.4166C49.624 31.6767 49.6537 31.9075 49.7929 32.109C49.9343 32.3029 50.1542 32.4455 50.4526 32.5368ZM60.6047 35.4052L59.804 38.0214L58.5418 37.6351L58.9913 36.1664L54.8604 34.9022L54.4109 36.371L53.1487 35.9847L53.9493 33.3685L54.4198 33.5124C54.8225 33.4265 55.2267 32.8851 55.6322 31.8881L56.7316 29.0747L61.1953 30.4407L59.7555 35.1453L60.6047 35.4052ZM56.8574 32.3133C56.5123 33.1949 56.1664 33.7374 55.8197 33.9408L58.4474 34.745L59.536 31.1878L57.5394 30.5768L56.8574 32.3133ZM68.1265 32.5618L66.3356 38.4139L65.0505 38.0206L66.2409 34.1307L62.3998 37.2095L61.1376 36.8232L62.9285 30.9711L64.2136 31.3644L63.0197 35.2658L66.8643 32.1755L68.1265 32.5618ZM69.4785 32.9756L71.1308 33.4812L71.6905 38.2957L74.8486 34.619L76.478 35.1176L74.6872 40.9697L73.4249 40.5834L74.6505 36.5788L71.6763 40.0232L70.7125 39.7282L70.1718 35.2207L68.9498 39.2139L67.6876 38.8277L69.4785 32.9756ZM80.102 36.2266L81.7544 36.7323L82.314 41.5468L85.4722 37.87L87.1016 38.3687L85.3107 44.2208L84.0485 43.8345L85.274 39.8298L82.2999 43.2743L81.336 42.9793L80.7953 38.4718L79.5733 42.465L78.3111 42.0787L80.102 36.2266ZM88.6974 39.6351C89.4061 39.2329 90.1889 39.1629 91.0456 39.4251C91.9024 39.6873 92.5081 40.1822 92.8627 40.9098C93.225 41.6397 93.2668 42.4599 92.9882 43.3702C92.7096 44.2805 92.216 44.9368 91.5073 45.339C90.8062 45.7436 90.0273 45.8148 89.1705 45.5526C88.3137 45.2904 87.7042 44.7943 87.3419 44.0643C86.9873 43.3367 86.9493 42.5177 87.2279 41.6074C87.5065 40.6971 87.9963 40.0396 88.6974 39.6351ZM88.5507 43.5181C88.726 43.9566 89.0509 44.2485 89.5251 44.3936C89.9994 44.5388 90.4281 44.4775 90.8112 44.2099C91.2019 43.9446 91.4839 43.529 91.6571 42.9629C91.8304 42.3968 91.8293 41.8945 91.654 41.456C91.4863 41.0198 91.1653 40.7292 90.691 40.584C90.2167 40.4389 89.7842 40.4989 89.3935 40.7642C89.0104 41.0318 88.7322 41.4487 88.559 42.0148C88.3857 42.5808 88.383 43.082 88.5507 43.5181ZM102.095 48.1021L101.294 50.7184L100.032 50.3321L100.481 48.8633L93.1144 46.6089L94.9053 40.7568L96.2134 41.1571L94.7736 45.8617L96.7014 46.4517L98.1411 41.7471L99.4493 42.1474L98.0095 46.852L99.9373 47.4419L101.377 42.7373L102.685 43.1376L101.245 47.8423L102.095 48.1021ZM103.931 49.919L102.623 49.5187L104.414 43.6666L105.722 44.0669L105.033 46.3159L107.546 47.085L108.235 44.8359L109.543 45.2363L107.752 51.0884L106.444 50.688L107.192 48.2439L104.679 47.4749L103.931 49.919ZM112.193 46.0473L111.649 47.8259L112.819 48.184C113.469 48.383 113.931 48.7335 114.204 49.2353C114.48 49.7296 114.527 50.2712 114.347 50.8603C114.164 51.4569 113.814 51.8895 113.297 52.1579C112.79 52.421 112.215 52.4542 111.573 52.2576L109.105 51.5026L110.896 45.6505L112.193 46.0473ZM117.552 47.6872L115.761 53.5393L114.464 53.1425L116.255 47.2904L117.552 47.6872ZM112.321 49.2365L111.312 48.9274L110.736 50.8093L111.745 51.1183C112.059 51.2143 112.332 51.1974 112.564 51.0677C112.804 50.9402 112.966 50.7388 113.05 50.4634C113.134 50.1881 113.111 49.9381 112.978 49.7136C112.854 49.4915 112.635 49.3324 112.321 49.2365ZM124.101 49.6915L122.31 55.5436L121.025 55.1503L122.216 51.2604L118.374 54.3391L117.112 53.9528L118.903 48.1007L120.188 48.494L118.994 52.3954L122.839 49.3052L124.101 49.6915ZM121.435 45.9768C121.351 46.2522 121.357 46.5051 121.454 46.7355C121.551 46.966 121.741 47.1245 122.024 47.2111C122.307 47.2977 122.553 47.2726 122.762 47.1359C122.972 46.9991 123.118 46.793 123.203 46.5176L124.258 46.8407C124.067 47.4097 123.743 47.8125 123.286 48.0491C122.836 48.288 122.321 48.3185 121.74 48.1405C121.158 47.9626 120.744 47.6477 120.498 47.1958C120.259 46.7462 120.22 46.2322 120.38 45.6538L121.435 45.9768ZM42.1747 37.0312C43.0604 37.3357 43.7046 37.855 44.1075 38.589C44.5103 39.323 44.576 40.1337 44.3044 41.0211C44.0328 41.9084 43.5247 42.5436 42.7801 42.9264C42.0355 43.3093 41.211 43.3791 40.3066 43.1357L39.6745 45.2012L38.3893 44.8079L39.0214 42.7425C38.1281 42.4356 37.48 41.9152 37.0772 41.1812C36.6743 40.4472 36.6087 39.6365 36.8803 38.7491C37.1518 37.8617 37.6599 37.2266 38.4046 36.8437C39.1492 36.4609 39.9775 36.3923 40.8896 36.6379L41.5532 34.4692L42.8384 34.8625L42.1747 37.0312ZM39.3691 41.6065L40.5419 37.7739C40.04 37.637 39.5681 37.6892 39.1261 37.9305C38.6865 38.164 38.3778 38.5715 38.1999 39.1529C38.0219 39.7343 38.0486 40.2486 38.2798 40.6959C38.5134 41.1355 38.8765 41.439 39.3691 41.6065ZM42.9963 40.6207C43.1742 40.0394 43.1464 39.5289 42.9128 39.0893C42.6815 38.642 42.3196 38.3347 41.8271 38.1672L40.6542 41.9998C41.1561 42.1366 41.6281 42.0844 42.07 41.8432C42.5119 41.602 42.8207 41.1945 42.9963 40.6207ZM51.4141 39.9967L49.6232 45.8488L48.3381 45.4555L49.5285 41.5656L45.6874 44.6444L44.4252 44.2581L46.2161 38.406L47.5012 38.7993L46.3073 42.7007L50.1519 39.6105L51.4141 39.9967ZM57.362 46.9622L56.5614 49.5784L55.2992 49.1921L55.7487 47.7234L51.6178 46.4592L51.1683 47.928L49.9061 47.5417L50.7067 44.9255L51.1772 45.0694C51.5799 44.9835 51.9841 44.4421 52.3896 43.4451L53.489 40.6317L57.9526 41.9977L56.5129 46.7023L57.362 46.9622ZM53.6148 43.8703C53.2697 44.7519 52.9238 45.2944 52.5771 45.4979L55.2048 46.302L56.2934 42.7448L54.2968 42.1338L53.6148 43.8703ZM62.6667 43.4905C63.4393 43.727 63.9859 44.1828 64.3063 44.8582C64.6343 45.5358 64.6602 46.326 64.384 47.2287C64.1241 48.0778 63.6452 48.7135 62.9471 49.1357C62.2589 49.5525 61.4903 49.6311 60.6412 49.3712C59.6926 49.0809 59.0477 48.5364 58.7066 47.7376C58.3677 46.9311 58.3727 45.958 58.7215 44.8181C59.1499 43.4182 59.696 42.4266 60.3597 41.8433C61.0258 41.2524 61.9122 41.0216 63.0187 41.1511L65.5274 41.442L65.1622 42.6353L62.8732 42.3239C62.236 42.246 61.7256 42.3282 61.3419 42.5706C60.9606 42.8052 60.6433 43.2269 60.3901 43.8354C61.0205 43.3339 61.7793 43.219 62.6667 43.4905ZM60.92 48.2141C61.4019 48.3616 61.8333 48.3054 62.214 48.0454C62.6047 47.7801 62.8844 47.3721 63.0529 46.8213C63.2168 46.2858 63.2087 45.8065 63.0287 45.3833C62.8586 44.9548 62.5365 44.6679 62.0622 44.5228C61.5879 44.3776 61.1512 44.4239 60.7522 44.6615C60.3556 44.8915 60.073 45.2819 59.9044 45.8327C59.7312 46.3988 59.7322 46.9011 59.9076 47.3396C60.0929 47.7728 60.4304 48.0643 60.92 48.2141ZM66.9979 47.3258L69.2813 48.0246C69.3459 47.5675 69.2845 47.1806 69.0969 46.8638C68.9094 46.5471 68.6206 46.329 68.2304 46.2096C67.8556 46.0949 67.5342 46.0928 67.2661 46.2032C67.0004 46.3059 66.798 46.4615 66.659 46.6699L65.4082 46.2872C65.6486 45.7751 66.0503 45.3919 66.6134 45.1375C67.1765 44.8832 67.829 44.8695 68.5711 45.0966C69.4202 45.3565 70.0144 45.8479 70.3537 46.5708C70.6953 47.2861 70.7257 48.1027 70.4448 49.0207C70.1639 49.9387 69.6767 50.6011 68.9833 51.008C68.2998 51.4096 67.5297 51.4793 66.6729 51.2171C65.9386 50.9923 65.4016 50.6147 65.062 50.0841C64.7224 49.5535 64.6098 48.9919 64.7241 48.3995L65.9634 48.7787C65.9474 49.0499 66.0183 49.31 66.1763 49.5592C66.3444 49.803 66.6272 49.9858 67.025 50.1075C67.4458 50.2363 67.8272 50.2066 68.1692 50.0185C68.5189 49.8326 68.7892 49.5096 68.9803 49.0494L66.6853 48.3471L66.9979 47.3258ZM71.8773 52.6591L70.5691 52.2588L72.36 46.4067L73.6682 46.807L72.9237 49.2397L75.9172 47.4953L77.4663 47.9694L74.1026 49.9393L75.7098 53.832L74.1263 53.3474L72.713 49.9282L71.8773 52.6591ZM78.4149 53.932C78.3587 54.1156 78.2596 54.3027 78.1175 54.4935L76.8117 56.1771L75.8134 55.8716L77.0188 54.2702C76.7014 54.0225 76.5977 53.7189 76.7077 53.3593C76.7803 53.1222 76.9203 52.9517 77.1278 52.8479C77.3352 52.744 77.5614 52.7296 77.8062 52.8045C78.051 52.8794 78.2318 53.0267 78.3486 53.2465C78.4677 53.4587 78.4898 53.6872 78.4149 53.932ZM84.2145 55.3178C84.597 55.4348 84.9208 55.4293 85.1858 55.3013C85.4585 55.1756 85.6703 54.9894 85.8211 54.7427L87.0948 55.1325C86.8433 55.7081 86.4211 56.1311 85.828 56.4014C85.235 56.6716 84.5751 56.6956 83.8483 56.4732C82.9992 56.2133 82.4012 55.7208 82.0542 54.9955C81.7096 54.2626 81.6754 53.4448 81.9517 52.5421C82.2256 51.6471 82.7066 50.9911 83.3947 50.5742C84.0905 50.1597 84.8667 50.0835 85.7235 50.3457C86.4655 50.5728 86.9978 50.9657 87.3204 51.5246C87.6454 52.0758 87.7583 52.65 87.6592 53.2471L86.3855 52.8574C86.3809 52.5715 86.2997 52.304 86.1417 52.0549C85.9936 51.8004 85.736 51.617 85.3688 51.5046C84.9099 51.3642 84.4888 51.4277 84.1057 51.6954C83.7303 51.9653 83.456 52.3833 83.2827 52.9494C83.1072 53.5232 83.1032 54.0281 83.2709 54.4643C83.441 54.8928 83.7555 55.1773 84.2145 55.3178ZM91.0346 58.5218L89.7265 58.1215L91.5174 52.2694L92.8255 52.6697L92.0811 55.1023L95.0746 53.3579L96.6237 53.832L93.26 55.8019L94.8672 59.6946L93.2837 59.2101L91.8704 55.7908L91.0346 58.5218ZM97.3002 54.8171C98.0089 54.4149 98.7917 54.3449 99.6484 54.6071C100.505 54.8693 101.111 55.3642 101.465 56.0918C101.828 56.8217 101.87 57.6419 101.591 58.5522C101.312 59.4625 100.819 60.1188 100.11 60.521C99.409 60.9256 98.63 60.9968 97.7733 60.7346C96.9165 60.4724 96.307 59.9763 95.9447 59.2463C95.5901 58.5187 95.5521 57.6997 95.8307 56.7894C96.1093 55.8791 96.5991 55.2217 97.3002 54.8171ZM97.1535 58.7001C97.3288 59.1386 97.6536 59.4305 98.1279 59.5756C98.6022 59.7208 99.0309 59.6595 99.414 59.3919C99.8047 59.1266 100.087 58.711 100.26 58.1449C100.433 57.5788 100.432 57.0765 100.257 56.638C100.089 56.2018 99.7681 55.9112 99.2938 55.766C98.8195 55.6209 98.387 55.6809 97.9962 55.9462C97.6132 56.2138 97.335 56.6307 97.1618 57.1968C96.9885 57.7628 96.9858 58.264 97.1535 58.7001ZM102.474 56.8772L102.825 55.7298L107.874 57.2748L107.523 58.4223L105.652 57.8499L104.213 62.5546L102.904 62.1542L104.344 57.4496L102.474 56.8772ZM108.787 58.3322C109.495 57.93 110.278 57.86 111.135 58.1222C111.992 58.3844 112.597 58.8793 112.952 59.6069C113.314 60.3369 113.356 61.157 113.077 62.0673C112.799 62.9777 112.305 63.6339 111.596 64.0361C110.895 64.4407 110.116 64.5119 109.26 64.2497C108.403 63.9875 107.793 63.4914 107.431 62.7615C107.076 62.0338 107.038 61.2149 107.317 60.3045C107.596 59.3942 108.085 58.7368 108.787 58.3322ZM108.64 62.2153C108.815 62.6538 109.14 62.9456 109.614 63.0907C110.089 63.2359 110.517 63.1746 110.9 62.907C111.291 62.6418 111.573 62.2261 111.746 61.66C111.92 61.0939 111.918 60.5916 111.743 60.1531C111.575 59.7169 111.254 59.4263 110.78 59.2811C110.306 59.136 109.873 59.1961 109.483 59.4613C109.1 59.7289 108.821 60.1458 108.648 60.7119C108.475 61.278 108.472 61.7791 108.64 62.2153ZM118.112 60.2573C118.839 60.4797 119.367 60.9386 119.698 61.6339C120.037 62.3315 120.06 63.1585 119.767 64.1147C119.475 65.0709 118.989 65.7422 118.31 66.1285C117.639 66.5171 116.937 66.599 116.202 66.3743C115.797 66.2502 115.463 66.0687 115.202 65.8297C114.95 65.5854 114.787 65.3263 114.712 65.0523L113.841 67.898L112.533 67.4977L114.994 59.4539L116.257 59.8402L116.025 60.5975C116.575 60.1132 117.27 59.9998 118.112 60.2573ZM116.339 65.1486C116.798 65.2891 117.218 65.2293 117.598 64.9694C117.989 64.7041 118.272 64.2846 118.448 63.7109C118.621 63.1448 118.62 62.6425 118.445 62.204C118.277 61.7678 117.964 61.4795 117.505 61.339C117.038 61.1962 116.611 61.2536 116.222 61.5112C115.836 61.7612 115.555 62.1731 115.38 62.7468L115.366 62.7927C115.19 63.3664 115.191 63.8687 115.369 64.2996C115.549 64.7228 115.872 65.0058 116.339 65.1486ZM122.976 61.8963L122.431 63.6749L123.602 64.0331C124.252 64.2321 124.714 64.5825 124.987 65.0844C125.262 65.5786 125.31 66.1203 125.129 66.7093C124.947 67.306 124.597 67.7385 124.08 68.007C123.573 68.2701 122.998 68.3033 122.355 68.1066L119.888 67.3516L121.679 61.4995L122.976 61.8963ZM128.334 63.5362L126.543 69.3883L125.247 68.9915L127.038 63.1394L128.334 63.5362ZM123.104 65.0855L122.094 64.7765L121.518 66.6584L122.528 66.9674C122.842 67.0634 123.115 67.0465 123.347 66.9167C123.586 66.7893 123.748 66.5879 123.833 66.3125C123.917 66.0371 123.893 65.7872 123.761 65.5627C123.637 65.3406 123.418 65.1815 123.104 65.0855ZM129.686 63.9498L131.338 64.4555L131.898 69.27L135.056 65.5932L136.685 66.0919L134.894 71.944L133.632 71.5577L134.858 67.553L131.883 70.9975L130.92 70.7025L130.379 66.195L129.157 70.1882L127.895 69.8019L129.686 63.9498ZM139.499 68.2079L139.85 67.0604L144.899 68.6055L144.548 69.753L142.678 69.1806L141.238 73.8852L139.93 73.4849L141.369 68.7803L139.499 68.2079ZM147.091 69.2764L146.547 71.055L147.717 71.4131C148.368 71.6121 148.829 71.9626 149.102 72.4644C149.378 72.9587 149.425 73.5003 149.245 74.0893C149.063 74.686 148.713 75.1186 148.195 75.387C147.688 75.6501 147.113 75.6833 146.471 75.4867L144.004 74.7317L145.795 68.8796L147.091 69.2764ZM152.45 70.9163L150.659 76.7684L149.362 76.3716L151.153 70.5195L152.45 70.9163ZM147.22 72.4655L146.21 72.1565L145.634 74.0384L146.644 74.3474C146.957 74.4434 147.23 74.4265 147.462 74.2967C147.702 74.1693 147.864 73.9679 147.948 73.6925C148.033 73.4171 148.009 73.1672 147.877 72.9427C147.752 72.7206 147.533 72.5615 147.22 72.4655ZM35.6315 52.9995C36.014 53.1165 36.3378 53.111 36.6029 52.983C36.8756 52.8573 37.0873 52.6711 37.2381 52.4244L38.5118 52.8142C38.2604 53.3898 37.8381 53.8128 37.2451 54.0831C36.652 54.3534 35.9921 54.3773 35.2654 54.1549C34.4162 53.895 33.8182 53.4025 33.4713 52.6772C33.1267 51.9443 33.0925 51.1265 33.3687 50.2238C33.6426 49.3288 34.1236 48.6728 34.8117 48.2559C35.5075 47.8414 36.2838 47.7652 37.1405 48.0274C37.8826 48.2545 38.4149 48.6475 38.7375 49.2063C39.0624 49.7575 39.1753 50.3317 39.0762 50.9288L37.8025 50.5391C37.798 50.2532 37.7167 49.9857 37.5587 49.7366C37.4107 49.4821 37.1531 49.2987 36.7859 49.1863C36.3269 49.0459 35.9059 49.1095 35.5228 49.3771C35.1473 49.647 34.873 50.065 34.6998 50.6311C34.5242 51.2049 34.5203 51.7098 34.688 52.146C34.858 52.5745 35.1725 52.859 35.6315 52.9995ZM40.6651 49.2566L42.3174 49.7623L42.8771 54.5768L46.0352 50.9L47.6646 51.3986L45.8738 57.2507L44.6115 56.8645L45.8371 52.8598L42.8629 56.3042L41.8991 56.0093L41.3584 51.5018L40.1364 55.495L38.8742 55.1087L40.6651 49.2566ZM49.2605 52.6651C49.9692 52.2628 50.7519 52.1928 51.6087 52.455C52.4655 52.7172 53.0712 53.2121 53.4258 53.9398C53.788 54.6697 53.8299 55.4899 53.5513 56.4002C53.2727 57.3105 52.7791 57.9668 52.0703 58.369C51.3693 58.7735 50.5903 58.8447 49.7336 58.5825C48.8768 58.3203 48.2673 57.8243 47.905 57.0943C47.5504 56.3667 47.5124 55.5477 47.791 54.6374C48.0696 53.7271 48.5594 53.0696 49.2605 52.6651ZM49.1138 56.5481C49.2891 56.9866 49.6139 57.2784 50.0882 57.4236C50.5625 57.5687 50.9912 57.5075 51.3743 57.2399C51.765 56.9746 52.047 56.5589 52.2202 55.9928C52.3935 55.4268 52.3924 54.9245 52.217 54.4859C52.0493 54.0498 51.7283 53.7591 51.2541 53.614C50.7798 53.4688 50.3473 53.5289 49.9565 53.7942C49.5734 54.0618 49.2953 54.4786 49.1221 55.0447C48.9488 55.6108 48.9461 56.1119 49.1138 56.5481ZM59.4667 55.0104L58.7082 57.4889L61.5092 55.6354L63.0123 56.0954L59.8976 58.1541L61.2559 61.9581L59.7183 61.4875L58.5185 58.1085L57.6758 60.8625L56.3906 60.4692L57.2334 57.7152L54.3481 59.8441L52.822 59.3771L56.0545 57.0156L54.6358 53.532L56.139 53.992L57.423 57.0956L58.1815 54.6171L59.4667 55.0104ZM67.593 61.1114L63.4735 59.8508L63.4665 59.8737C63.3284 60.3251 63.359 60.7444 63.5584 61.1317C63.7578 61.519 64.0908 61.784 64.5575 61.9268C64.8788 62.0252 65.1626 62.0409 65.4089 61.9741C65.6653 61.9019 65.8436 61.7975 65.944 61.6609L67.2291 62.0542C67.0016 62.4698 66.6197 62.788 66.0837 63.0088C65.5552 63.2319 64.9277 63.2323 64.2009 63.0099C63.3288 62.743 62.712 62.2573 62.3504 61.5526C61.9911 60.8403 61.9554 60.0137 62.2434 59.0727C62.5313 58.1318 63.0197 57.4655 63.7084 57.0739C64.3995 56.6747 65.1619 56.6027 65.9958 56.8578C66.799 57.1036 67.3608 57.5642 67.6812 58.2395C68.0016 58.9149 68.0272 59.6924 67.758 60.5721L67.593 61.1114ZM65.6507 57.9444C65.2376 57.818 64.8636 57.8374 64.5286 58.0026C64.2012 58.1701 63.954 58.4584 63.787 58.8675L66.5868 59.7243C66.7026 59.2912 66.6744 58.9186 66.5022 58.6066C66.34 58.2892 66.0561 58.0685 65.6507 57.9444ZM74.1657 59.5086L72.7259 64.2133L74.6537 64.8032L76.0934 60.0986L77.4015 60.4989L75.6106 66.351L67.8308 63.9702L69.6217 58.118L70.9298 58.5184L69.4901 63.223L71.4178 63.8129L72.8576 59.1083L74.1657 59.5086ZM80.0569 61.3115L79.5126 63.0901L80.683 63.4482C81.3332 63.6472 81.7949 63.9977 82.068 64.4995C82.3434 64.9938 82.391 65.5354 82.2107 66.1244C82.0281 66.7211 81.6782 67.1537 81.161 67.4221C80.6539 67.6852 80.079 67.7184 79.4364 67.5218L76.9693 66.7668L78.7602 60.9147L80.0569 61.3115ZM80.1852 64.5006L79.1755 64.1916L78.5996 66.0735L79.6093 66.3825C79.923 66.4785 80.1959 66.4616 80.428 66.3318C80.6678 66.2044 80.8298 66.003 80.9141 65.7276C80.9984 65.4522 80.9745 65.2023 80.8424 64.9778C80.7179 64.7557 80.4989 64.5966 80.1852 64.5006ZM90.4367 64.488L91.8481 64.9199L86.231 71.998L84.831 71.5696L86.4399 69.5521L85.9501 63.115L87.3615 63.5469L87.6174 68.2057L90.4367 64.488ZM96.9551 71.628L96.1544 74.2442L94.8922 73.8579L95.3417 72.3892L91.2108 71.125L90.7613 72.5938L89.4991 72.2075L90.2997 69.5913L90.7702 69.7353C91.1729 69.6494 91.5771 69.1079 91.9826 68.1109L93.082 65.2975L97.5457 66.6635L96.1059 71.3681L96.9551 71.628ZM93.2078 68.5361C92.8627 69.4177 92.5168 69.9602 92.1701 70.1637L94.7978 70.9678L95.8864 67.4107L93.8898 66.7996L93.2078 68.5361ZM104.477 68.7846L102.686 74.6367L101.401 74.2434L102.591 70.3535L98.7502 73.4323L97.488 73.046L99.2789 67.1939L100.564 67.5872L99.3701 71.4886L103.215 68.3984L104.477 68.7846ZM104.038 75.0505L105.829 69.1984L108.457 70.0025C109.084 70.1945 109.519 70.4823 109.761 70.866C110.003 71.2497 110.057 71.6634 109.921 72.1071C109.822 72.4284 109.66 72.6716 109.434 72.8366C109.218 72.9963 108.981 73.087 108.723 73.1085C108.996 73.284 109.194 73.5245 109.318 73.8302C109.45 74.1382 109.458 74.4796 109.344 74.8545C109.194 75.3441 108.887 75.6895 108.424 75.8908C107.971 76.0867 107.423 76.0864 106.78 75.8897L104.038 75.0505ZM107.385 73.3391L106.089 72.9423L105.632 74.434L106.929 74.8308C107.22 74.9198 107.461 74.9226 107.654 74.8394C107.857 74.7509 107.995 74.588 108.067 74.3509C108.217 73.8613 107.99 73.524 107.385 73.3391ZM107.987 70.9631L106.805 70.6014L106.391 71.9555L107.573 72.3171C107.825 72.3944 108.039 72.3929 108.214 72.3126C108.397 72.2347 108.521 72.0887 108.586 71.8745C108.722 71.4308 108.522 71.127 107.987 70.9631ZM109.233 76.6654L109.584 75.5179L109.768 75.5741C110.089 75.6724 110.342 75.6535 110.525 75.5173C110.719 75.3759 110.904 75.0853 111.081 74.6457L112.442 71.2222L116.745 72.5391L114.954 78.3912L113.646 77.9909L115.086 73.2862L113.239 72.7209L112.292 75.1168C111.985 75.9013 111.616 76.4241 111.185 76.6853C110.763 76.9412 110.231 76.9709 109.589 76.7742L109.233 76.6654ZM120.761 80.168L119.464 79.7712L120.043 77.8779L119.16 77.6075L117.238 79.09L115.769 78.6405L117.889 77.0051C117.578 76.7344 117.368 76.4107 117.257 76.0338C117.157 75.6517 117.167 75.2617 117.289 74.8639C117.464 74.2902 117.796 73.8771 118.283 73.6246C118.78 73.3668 119.369 73.3421 120.05 73.5504L122.552 74.3159L120.761 80.168ZM119.061 74.6909C118.826 74.803 118.666 74.9968 118.582 75.2722C118.498 75.5476 118.522 75.7975 118.654 76.022C118.786 76.2465 119.009 76.4067 119.322 76.5027L120.366 76.8222L120.928 74.9863L119.884 74.6667C119.571 74.5707 119.296 74.5788 119.061 74.6909ZM123.1 75.7387L123.451 74.5912L128.5 76.1363L128.149 77.2838L126.278 76.7114L124.839 81.416L123.531 81.0157L124.97 76.3111L123.1 75.7387ZM130.692 76.8072L130.148 78.5857L131.318 78.9439C131.969 79.1429 132.43 79.4934 132.703 79.9952C132.979 80.4895 133.026 81.0311 132.846 81.6201C132.663 82.2168 132.314 82.6494 131.796 82.9178C131.289 83.1809 130.714 83.2141 130.072 83.0174L127.605 82.2625L129.396 76.4104L130.692 76.8072ZM130.821 79.9963L129.811 79.6873L129.235 81.5692L130.245 81.8782C130.558 81.9742 130.831 81.9573 131.063 81.8275C131.303 81.7001 131.465 81.4987 131.549 81.2233C131.634 80.9479 131.61 80.698 131.478 80.4735C131.353 80.2514 131.134 80.0923 130.821 79.9963Z" fill="white"/>
<defs>
<linearGradient id="paint0_linear_163_821" x1="114.275" y1="20.2547" x2="82.53" y2="125.883" gradientUnits="userSpaceOnUse">
<stop stop-color="#66BEBE"/>
<stop offset="1" stop-color="#65DEA3"/>
</linearGradient>
</defs>
</svg>
