<svg width="190" height="120" viewBox="0 0 190 120" fill="none" xmlns="http://www.w3.org/2000/svg">
<path fill-rule="evenodd" clip-rule="evenodd" d="M153.906 43.9901C161.311 46.2155 165.51 54.0223 163.285 61.4271L154.658 90.13C152.433 97.5348 144.626 101.734 137.221 99.5082L83.5966 83.3923C82.0726 82.9343 80.4291 83.1004 79.0277 83.8542L74.226 86.4366C71.3076 88.0063 67.6694 86.9129 66.0998 83.9945L63.5173 79.1928C62.7636 77.7914 61.484 76.7467 59.96 76.2887L37.5288 69.5475C30.124 67.3221 25.9252 59.5153 28.1506 52.1105L36.7767 23.4076C39.0021 16.0028 46.8089 11.804 54.2138 14.0294L153.906 43.9901Z" fill="url(#paint0_linear_163_805)"/>
<path d="M51.3621 26.4638L52.7849 26.8993L53.3192 35.8975L51.8848 35.4586L51.7713 33.3281L48.5814 32.3519L47.3294 34.0645L45.895 33.6255L51.3621 26.4638ZM51.5634 28.3075L49.3676 31.2999L51.7199 32.0198L51.5634 28.3075ZM58.9697 31.0759C59.6964 31.2983 60.2253 31.7572 60.5563 32.4525C60.895 33.1501 60.918 33.9771 60.6254 34.9333C60.3328 35.8895 59.8471 36.5608 59.1683 36.9471C58.4972 37.3357 57.7945 37.4176 57.0601 37.1929C56.6547 37.0688 56.3212 36.8873 56.0597 36.6483C55.8082 36.404 55.6448 36.1449 55.5697 35.8709L54.6989 38.7166L53.3908 38.3163L55.8524 30.2725L57.1146 30.6588L56.8828 31.4161C57.4326 30.9318 58.1282 30.8184 58.9697 31.0759ZM57.1968 35.9672C57.6558 36.1077 58.0756 36.048 58.4564 35.788C58.8471 35.5227 59.1302 35.1032 59.3058 34.5295C59.4791 33.9634 59.478 33.4611 59.3026 33.0226C59.1349 32.5864 58.8216 32.2981 58.3626 32.1576C57.896 32.0148 57.4684 32.0722 57.0801 32.3299C56.694 32.5798 56.4132 32.9917 56.2376 33.5654L56.2236 33.6113C56.048 34.1851 56.0491 34.6874 56.2268 35.1182C56.4068 35.5414 56.7301 35.8244 57.1968 35.9672ZM61.5138 33.26L61.8649 32.1125L66.9138 33.6576L66.5626 34.8051L64.6923 34.2327L63.2525 38.9373L61.9444 38.537L63.3841 33.8324L61.5138 33.26ZM72.0579 40.3771L71.2573 42.9933L69.9951 42.6071L70.4446 41.1383L66.3137 39.8741L65.8642 41.3429L64.602 40.9566L65.4026 38.3404L65.8731 38.4844C66.2758 38.3985 66.68 37.857 67.0855 36.86L68.1849 34.0466L72.6485 35.4126L71.2088 40.1172L72.0579 40.3771ZM68.3107 37.2852C67.9656 38.1668 67.6197 38.7093 67.273 38.9128L69.9007 39.7169L70.9893 36.1598L68.9927 35.5488L68.3107 37.2852ZM79.5798 37.5338L77.7889 43.3859L76.5038 42.9926L77.6942 39.1026L73.8531 42.1814L72.5909 41.7951L74.3818 35.943L75.6669 36.3363L74.473 40.2377L78.3176 37.1475L79.5798 37.5338ZM84.0491 38.7509C84.7759 38.9733 85.3047 39.4321 85.6358 40.1274C85.9744 40.8251 85.9975 41.652 85.7048 42.6082C85.4122 43.5645 84.9265 44.2357 84.2478 44.622C83.5767 45.0106 82.8739 45.0926 82.1395 44.8678C81.7341 44.7438 81.4006 44.5622 81.1391 44.3233C80.8876 44.079 80.7243 43.8198 80.6491 43.5458L79.7783 46.3916L78.4702 45.9913L80.9318 37.9475L82.194 38.3338L81.9622 39.0911C82.512 38.6068 83.2076 38.4934 84.0491 38.7509ZM82.2762 43.6422C82.7352 43.7826 83.155 43.7229 83.5358 43.4629C83.9265 43.1977 84.2097 42.7782 84.3852 42.2044C84.5585 41.6383 84.5574 41.136 84.3821 40.6975C84.2143 40.2614 83.901 39.973 83.442 39.8326C82.9754 39.6898 82.5479 39.7472 82.1595 40.0048C81.7734 40.2548 81.4926 40.6666 81.317 41.2404L81.303 41.2863C81.1274 41.86 81.1285 42.3623 81.3062 42.7932C81.4862 43.2164 81.8095 43.4994 82.2762 43.6422ZM95.5957 41.3432L91.6943 40.1493L91.0447 42.2721L94.7281 43.3993L94.3629 44.5927L90.6795 43.4655L89.9737 45.7719L93.8751 46.9658L93.4993 48.1936L88.2324 46.5818L90.7046 38.5036L95.9715 40.1154L95.5957 41.3432ZM103.052 44.5662C103.618 44.7394 104.046 45.0755 104.337 45.5744C104.63 46.0656 104.663 46.6823 104.436 47.4243L103.284 51.188L101.976 50.7877L103.058 47.2535C103.186 46.8328 103.176 46.4825 103.028 46.2028C102.887 45.9254 102.652 45.7363 102.323 45.6357C101.986 45.5327 101.664 45.5596 101.357 45.7166C101.057 45.8758 100.845 46.1582 100.721 46.5636L99.6466 50.0749L98.3385 49.6746L99.4201 46.1403C99.5488 45.7196 99.5389 45.3694 99.3902 45.0896C99.2492 44.8122 99.0143 44.6232 98.6853 44.5225C98.3487 44.4195 98.0268 44.4465 97.7194 44.6034C97.412 44.7603 97.1963 45.0415 97.0722 45.4469L95.9977 48.9582L94.6896 48.5579L96.4804 42.7058L97.7427 43.092L97.532 43.7805C97.7775 43.5796 98.0679 43.4509 98.4031 43.3945C98.7482 43.3328 99.0929 43.3547 99.4372 43.46C99.7814 43.5654 100.082 43.7452 100.339 43.9995C100.598 44.2461 100.771 44.5543 100.859 44.9242C101.142 44.7096 101.479 44.5659 101.869 44.493C102.26 44.42 102.654 44.4444 103.052 44.5662ZM109.498 46.539C110.225 46.7614 110.754 47.2202 111.085 47.9155C111.424 48.6132 111.447 49.4401 111.154 50.3963C110.861 51.3526 110.376 52.0238 109.697 52.4101C109.026 52.7987 108.323 52.8807 107.589 52.656C107.16 52.5249 106.818 52.3322 106.561 52.0779C106.304 51.8236 106.142 51.548 106.074 51.2511L105.852 51.974L104.59 51.5877L107.143 43.2456L108.451 43.6459L107.478 46.8244C108.022 46.3883 108.695 46.2932 109.498 46.539ZM107.725 51.4303C108.184 51.5707 108.604 51.511 108.985 51.251C109.376 50.9858 109.659 50.5663 109.834 49.9925C110.008 49.4264 110.007 48.9241 109.831 48.4856C109.664 48.0495 109.35 47.7611 108.891 47.6207C108.425 47.4779 107.997 47.5353 107.609 47.7929C107.223 48.0429 106.942 48.4547 106.766 49.0285L106.752 49.0744C106.577 49.6481 106.578 50.1504 106.755 50.5813C106.935 51.0045 107.259 51.2875 107.725 51.4303ZM115.892 50.8048C115.993 50.4759 115.963 50.1907 115.803 49.9492C115.652 49.7024 115.405 49.5263 115.061 49.4209C114.441 49.2313 113.986 49.3388 113.695 49.7433L112.456 49.364C112.702 48.8872 113.086 48.5487 113.607 48.3486C114.139 48.1431 114.748 48.1457 115.437 48.3564C116.164 48.5788 116.684 48.9429 116.998 49.4489C117.319 49.9571 117.377 50.5479 117.171 51.2211L115.991 55.0766L114.774 54.7043L114.978 54.0388C114.386 54.4432 113.699 54.526 112.919 54.2872C112.338 54.1093 111.902 53.7962 111.613 53.3478C111.333 52.8942 111.279 52.3881 111.45 51.8297C111.628 51.2483 111.973 50.8602 112.484 50.6653C113.005 50.4651 113.633 50.4774 114.368 50.7021L115.791 51.1376L115.892 50.8048ZM113.533 53.3078C113.938 53.4319 114.317 53.4225 114.671 53.2796C115.026 53.1291 115.263 52.8626 115.38 52.4801L115.489 52.1244L114.157 51.7171C113.813 51.6117 113.516 51.6001 113.265 51.6823C113.024 51.7591 112.863 51.9275 112.784 52.1876C112.704 52.4477 112.734 52.6785 112.873 52.8801C113.014 53.074 113.234 53.2165 113.533 53.3078ZM120.123 55.2244C120.506 55.3414 120.83 55.3359 121.095 55.2079C121.367 55.0822 121.579 54.896 121.73 54.6493L123.004 55.0391C122.752 55.6147 122.33 56.0377 121.737 56.308C121.144 56.5783 120.484 56.6022 119.757 56.3798C118.908 56.12 118.31 55.6274 117.963 54.9021C117.618 54.1692 117.584 53.3514 117.861 52.4487C118.134 51.5537 118.615 50.8977 119.304 50.4808C119.999 50.0663 120.776 49.9901 121.632 50.2523C122.374 50.4794 122.907 50.8724 123.229 51.4312C123.554 51.9824 123.667 52.5566 123.568 53.1538L122.294 52.764C122.29 52.4781 122.209 52.2106 122.051 51.9615C121.903 51.707 121.645 51.5236 121.278 51.4113C120.819 51.2708 120.398 51.3344 120.015 51.602C119.639 51.8719 119.365 52.29 119.192 52.8561C119.016 53.4298 119.012 53.9347 119.18 54.3709C119.35 54.7994 119.664 55.0839 120.123 55.2244ZM128.922 52.6336L130.333 53.0655L124.716 60.1436L123.316 59.7152L124.925 57.6977L124.435 51.2606L125.846 51.6925L126.102 56.3513L128.922 52.6336ZM49.367 45.9824L48.5664 48.5987L47.3042 48.2124L47.7537 46.7436L43.6228 45.4795L43.1733 46.9482L41.9111 46.562L42.7117 43.9457L43.1822 44.0897C43.5849 44.0038 43.9891 43.4624 44.3946 42.4654L45.494 39.652L49.9576 41.0179L48.5179 45.7226L49.367 45.9824ZM45.6198 42.8905C45.2747 43.7721 44.9288 44.3147 44.5821 44.5181L47.2098 45.3223L48.2984 41.7651L46.3018 41.1541L45.6198 42.8905ZM54.5178 44.572C54.6185 44.243 54.5886 43.9578 54.4283 43.7163C54.2779 43.4695 54.0306 43.2934 53.6864 43.1881C53.0667 42.9985 52.6114 43.1059 52.3203 43.5104L51.081 43.1312C51.3273 42.6544 51.7111 42.3159 52.2326 42.1157C52.7639 41.9102 53.3739 41.9128 54.0624 42.1235C54.7891 42.3459 55.3093 42.7101 55.623 43.216C55.9443 43.7243 56.002 44.315 55.796 44.9882L54.6161 48.8437L53.3998 48.4715L53.6034 47.806C53.0112 48.2103 52.3249 48.2931 51.5446 48.0544C50.9632 47.8764 50.5278 47.5633 50.2383 47.115C49.9588 46.6613 49.9045 46.1553 50.0754 45.5969C50.2534 45.0155 50.598 44.6273 51.1094 44.4325C51.6308 44.2323 52.2587 44.2446 52.9931 44.4693L54.416 44.9047L54.5178 44.572ZM52.1581 47.075C52.5635 47.1991 52.9429 47.1897 53.2961 47.0468C53.6517 46.8963 53.8881 46.6298 54.0051 46.2473L54.114 45.8916L52.7829 45.4842C52.4387 45.3789 52.141 45.3673 51.89 45.4494C51.649 45.5262 51.4887 45.6947 51.4091 45.9548C51.3295 46.2149 51.3592 46.4457 51.4984 46.6472C51.6398 46.8411 51.8597 46.9837 52.1581 47.075ZM55.2966 49.0771L55.6478 47.9296L55.8314 47.9858C56.1527 48.0841 56.4053 48.0652 56.5892 47.9291C56.783 47.7876 56.9682 47.4971 57.1445 47.0574L58.5059 43.6339L62.809 44.9508L61.0181 50.8029L59.71 50.4026L61.1497 45.6979L59.3023 45.1326L58.3557 47.5285C58.0487 48.313 57.6795 48.8358 57.2482 49.097C56.8269 49.353 56.2949 49.3826 55.6524 49.1859L55.2966 49.0771ZM67.0015 48.3923C67.1022 48.0633 67.0723 47.7781 66.912 47.5366C66.7616 47.2898 66.5143 47.1138 66.1701 47.0084C65.5504 46.8188 65.0951 46.9262 64.8039 47.3307L63.5647 46.9515C63.811 46.4747 64.1948 46.1362 64.7162 45.936C65.2476 45.7305 65.8576 45.7331 66.546 45.9438C67.2728 46.1662 67.793 46.5304 68.1067 47.0363C68.428 47.5446 68.4856 48.1353 68.2796 48.8085L67.0998 52.664L65.8834 52.2918L66.0871 51.6263C65.4948 52.0307 64.8086 52.1135 64.0283 51.8747C63.4469 51.6968 63.0115 51.3836 62.722 50.9353C62.4425 50.4817 62.3882 49.9756 62.5591 49.4172C62.737 48.8358 63.0817 48.4477 63.5931 48.2528C64.1145 48.0526 64.7424 48.0649 65.4768 48.2896L66.8997 48.7251L67.0015 48.3923ZM64.6417 50.8953C65.0472 51.0194 65.4265 51.01 65.7798 50.8671C66.1354 50.7166 66.3718 50.4501 66.4888 50.0676L66.5977 49.7119L65.2666 49.3045C64.9224 49.1992 64.6247 49.1876 64.3737 49.2697C64.1327 49.3466 63.9724 49.515 63.8928 49.7751C63.8132 50.0352 63.8429 50.266 63.982 50.4675C64.1235 50.6614 64.3434 50.804 64.6417 50.8953ZM75.5846 48.7099C76.3114 48.9323 76.8402 49.3911 77.1713 50.0864C77.5099 50.7841 77.5329 51.611 77.2403 52.5672C76.9477 53.5235 76.462 54.1947 75.7832 54.581C75.1121 54.9696 74.4094 55.0516 73.675 54.8268C73.2696 54.7028 72.9361 54.5212 72.6746 54.2822C72.4231 54.0379 72.2598 53.7788 72.1846 53.5048L71.3138 56.3506L70.0057 55.9502L72.4673 47.9065L73.7295 48.2927L73.4977 49.0501C74.0475 48.5658 74.7431 48.4524 75.5846 48.7099ZM73.8117 53.6012C74.2707 53.7416 74.6905 53.6819 75.0713 53.4219C75.462 53.1566 75.7452 52.7371 75.9207 52.1634C76.094 51.5973 76.0929 51.095 75.9176 50.6565C75.7498 50.2203 75.4365 49.932 74.9775 49.7916C74.5109 49.6488 74.0834 49.7062 73.695 49.9638C73.3089 50.2138 73.0281 50.6256 72.8525 51.1994L72.8385 51.2452C72.6629 51.819 72.664 52.3213 72.8417 52.7521C73.0217 53.1754 73.345 53.4584 73.8117 53.6012ZM83.2696 54.8265L79.1502 53.5658L79.1432 53.5888C79.005 54.0401 79.0357 54.4594 79.2351 54.8467C79.4345 55.234 79.7675 55.4991 80.2341 55.6419C80.5554 55.7402 80.8392 55.756 81.0856 55.6891C81.3419 55.617 81.5202 55.5126 81.6206 55.376L82.9058 55.7693C82.6782 56.1849 82.2964 56.5031 81.7603 56.7239C81.2319 56.947 80.6043 56.9474 79.8776 56.725C79.0055 56.4581 78.3886 55.9723 78.027 55.2676C77.6677 54.5553 77.6321 53.7287 77.92 52.7878C78.208 51.8468 78.6963 51.1806 79.385 50.789C80.0761 50.3897 80.8386 50.3177 81.6724 50.5729C82.4756 50.8187 83.0375 51.2793 83.3579 51.9546C83.6783 52.6299 83.7039 53.4074 83.4346 54.2872L83.2696 54.8265ZM81.3273 51.6595C80.9142 51.5331 80.5402 51.5524 80.2052 51.7176C79.8778 51.8852 79.6306 52.1735 79.4636 52.5825L82.2635 53.4393C82.3793 53.0063 82.3511 52.6337 82.1788 52.3216C82.0166 52.0043 81.7328 51.7835 81.3273 51.6595ZM84.8155 58.0855L83.5074 57.6852L85.2983 51.8331L86.6064 52.2334L85.862 54.6661L88.8555 52.9217L90.4046 53.3957L87.0409 55.3657L88.6481 59.2584L87.0646 58.7738L85.6513 55.3545L84.8155 58.0855ZM91.0811 54.3808C91.7898 53.9786 92.5725 53.9086 93.4293 54.1708C94.2861 54.433 94.8918 54.9279 95.2464 55.6555C95.6086 56.3855 95.6505 57.2056 95.3719 58.1159C95.0933 59.0263 94.5997 59.6825 93.8909 60.0848C93.1899 60.4893 92.4109 60.5605 91.5542 60.2983C90.6974 60.0361 90.0879 59.54 89.7256 58.8101C89.371 58.0824 89.333 57.2635 89.6116 56.3531C89.8902 55.4428 90.38 54.7854 91.0811 54.3808ZM90.9344 58.2639C91.1097 58.7024 91.4345 58.9942 91.9088 59.1393C92.3831 59.2845 92.8118 59.2233 93.1949 58.9556C93.5856 58.6904 93.8676 58.2747 94.0408 57.7086C94.2141 57.1425 94.213 56.6402 94.0376 56.2017C93.8699 55.7655 93.5489 55.4749 93.0747 55.3297C92.6004 55.1846 92.1679 55.2447 91.7771 55.5099C91.394 55.7776 91.1159 56.1944 90.9427 56.7605C90.7694 57.3266 90.7666 57.8277 90.9344 58.2639ZM97.2889 55.5025L98.9413 56.0082L99.5009 60.8227L102.659 57.1459L104.289 57.6446L102.498 63.4967L101.235 63.1104L102.461 59.1057L99.4868 62.5502L98.5229 62.2552L97.9823 57.7477L96.7603 61.7409L95.498 61.3546L97.2889 55.5025ZM109.761 62.9335L105.642 61.6728L105.634 61.6958C105.496 62.1471 105.527 62.5665 105.726 62.9538C105.926 63.3411 106.259 63.6061 106.725 63.7489C107.047 63.8472 107.331 63.863 107.577 63.7961C107.833 63.724 108.012 63.6196 108.112 63.483L109.397 63.8763C109.17 64.2919 108.788 64.6101 108.252 64.8309C107.723 65.054 107.096 65.0544 106.369 64.832C105.497 64.5651 104.88 64.0793 104.518 63.3747C104.159 62.6623 104.123 61.8357 104.411 60.8948C104.699 59.9539 105.188 59.2876 105.876 58.896C106.567 58.4968 107.33 58.4247 108.164 58.6799C108.967 58.9257 109.529 59.3863 109.849 60.0616C110.17 60.7369 110.195 61.5145 109.926 62.3942L109.761 62.9335ZM107.819 59.7665C107.406 59.6401 107.032 59.6595 106.697 59.8247C106.369 59.9922 106.122 60.2805 105.955 60.6895L108.755 61.5463C108.871 61.1133 108.842 60.7407 108.67 60.4287C108.508 60.1113 108.224 59.8906 107.819 59.7665ZM111.307 66.1925L109.999 65.7922L111.79 59.9401L113.098 60.3404L112.41 62.5895L114.922 63.3585L115.611 61.1095L116.919 61.5098L115.128 67.3619L113.82 66.9616L114.568 64.5175L112.055 63.7484L111.307 66.1925ZM122.868 68.4757L122.068 71.092L120.806 70.7057L121.255 69.2369L117.124 67.9728L116.675 69.4415L115.412 69.0553L116.213 66.439L116.684 66.583C117.086 66.4971 117.49 65.9557 117.896 64.9587L118.995 62.1452L123.459 63.5112L122.019 68.2159L122.868 68.4757ZM119.121 65.3838C118.776 66.2654 118.43 66.808 118.083 67.0114L120.711 67.8156L121.8 64.2584L119.803 63.6474L119.121 65.3838ZM128.019 67.0652C128.12 66.7363 128.09 66.4511 127.93 66.2096C127.779 65.9628 127.532 65.7867 127.188 65.6814C126.568 65.4917 126.113 65.5992 125.822 66.0037L124.582 65.6245C124.829 65.1477 125.212 64.8092 125.734 64.609C126.265 64.4035 126.875 64.4061 127.564 64.6168C128.29 64.8392 128.811 65.2034 129.124 65.7093C129.446 66.2176 129.503 66.8083 129.297 67.4815L128.117 71.337L126.901 70.9648L127.105 70.2992C126.513 70.7036 125.826 70.7864 125.046 70.5476C124.465 70.3697 124.029 70.0566 123.74 69.6083C123.46 69.1546 123.406 68.6486 123.577 68.0901C123.755 67.5088 124.099 67.1206 124.611 66.9258C125.132 66.7256 125.76 66.7378 126.494 66.9626L127.917 67.398L128.019 67.0652ZM125.659 69.5683C126.065 69.6924 126.444 69.683 126.797 69.5401C127.153 69.3896 127.389 69.123 127.506 68.7406L127.615 68.3848L126.284 67.9775C125.94 67.8722 125.642 67.8605 125.391 67.9427C125.15 68.0195 124.99 68.188 124.91 68.4481C124.831 68.7082 124.861 68.939 125 69.1405C125.141 69.3344 125.361 69.477 125.659 69.5683ZM135.685 72.398L134.885 75.0143L133.634 74.6315L134.083 73.1627L129.425 71.737L131.216 65.8849L132.524 66.2853L131.084 70.9899L133.54 71.7414L134.979 67.0367L136.287 67.437L134.848 72.1417L135.685 72.398ZM143.21 69.5556L141.419 75.4077L140.134 75.0144L141.324 71.1245L137.483 74.2032L136.221 73.8169L138.012 67.9648L139.297 68.3581L138.103 72.2595L141.948 69.1693L143.21 69.5556ZM149.76 71.56L147.969 77.4121L146.684 77.0189L147.874 73.1289L144.033 76.2077L142.771 75.8214L144.562 69.9693L145.847 70.3626L144.653 74.264L148.498 71.1738L149.76 71.56ZM149.917 76.5775C150.134 76.4683 150.361 76.45 150.598 76.5226C150.836 76.5952 151.01 76.7364 151.121 76.9462C151.241 77.1583 151.264 77.383 151.191 77.6201C151.119 77.8573 150.972 78.0342 150.753 78.151C150.543 78.2625 150.319 78.282 150.082 78.2094C149.845 78.1368 149.667 77.9945 149.548 77.7823C149.439 77.5648 149.42 77.3375 149.493 77.1004C149.566 76.8633 149.707 76.6889 149.917 76.5775ZM40.9718 57.2176L39.6063 56.7997L42.0785 48.7215L43.4439 49.1394L42.3729 52.6391L46.6798 50.1296L48.3437 50.6388L43.6146 53.4207L45.9404 58.7381L44.2192 58.2113L42.1096 53.4997L40.9718 57.2176ZM51.532 53.8985C52.2587 54.1209 52.7876 54.5797 53.1186 55.275C53.4573 55.9727 53.4803 56.7996 53.1877 57.7558C52.8951 58.7121 52.4094 59.3833 51.7306 59.7696C51.0595 60.1582 50.3568 60.2402 49.6224 60.0154C49.217 59.8914 48.8835 59.7098 48.622 59.4709C48.3704 59.2266 48.2071 58.9674 48.132 58.6934L47.2611 61.5392L45.953 61.1389L48.4146 53.0951L49.6768 53.4814L49.4451 54.2387C49.9949 53.7544 50.6905 53.641 51.532 53.8985ZM49.759 58.7898C50.218 58.9302 50.6379 58.8705 51.0186 58.6105C51.4094 58.3453 51.6925 57.9257 51.8681 57.352C52.0413 56.7859 52.0403 56.2836 51.8649 55.8451C51.6972 55.409 51.3839 55.1206 50.9249 54.9802C50.4582 54.8374 50.0307 54.8948 49.6423 55.1524C49.2563 55.4024 48.9755 55.8142 48.7999 56.388L48.7859 56.4339C48.6103 57.0076 48.6113 57.5099 48.789 57.9408C48.9691 58.364 49.2924 58.647 49.759 58.7898ZM58.7966 56.2722L60.208 56.7042L54.5909 63.7823L53.191 63.3539L54.7998 61.3363L54.31 54.8992L55.7214 55.3311L55.9773 59.99L58.7966 56.2722ZM60.077 57.919L60.4281 56.7715L65.477 58.3166L65.1258 59.4641L63.2555 58.8917L61.8157 63.5963L60.5076 63.196L61.9473 58.4914L60.077 57.919ZM66.3897 59.374C67.0984 58.9718 67.8812 58.9018 68.738 59.1639C69.5947 59.4261 70.2004 59.9211 70.555 60.6487C70.9173 61.3786 70.9591 62.1988 70.6805 63.1091C70.4019 64.0194 69.9083 64.6757 69.1996 65.0779C68.4985 65.4825 67.7196 65.5536 66.8628 65.2914C66.006 65.0292 65.3965 64.5332 65.0342 63.8032C64.6796 63.0756 64.6416 62.2566 64.9202 61.3463C65.1988 60.436 65.6886 59.7785 66.3897 59.374ZM66.243 63.257C66.4183 63.6955 66.7432 63.9874 67.2175 64.1325C67.6917 64.2776 68.1204 64.2164 68.5035 63.9488C68.8942 63.6835 69.1762 63.2678 69.3495 62.7018C69.5227 62.1357 69.5216 61.6334 69.3463 61.1949C69.1786 60.7587 68.8576 60.468 68.3833 60.3229C67.909 60.1778 67.4765 60.2378 67.0858 60.5031C66.7027 60.7707 66.4245 61.1876 66.2513 61.7536C66.0781 62.3197 66.0753 62.8209 66.243 63.257ZM79.0782 62.4789L78.3197 64.9575L81.1207 63.104L82.6239 63.564L79.5091 65.6226L80.8674 69.4266L79.3298 68.9561L78.1301 65.5771L77.2873 68.331L76.0021 67.9377L76.8449 65.1838L73.9596 67.3127L72.4335 66.8456L75.666 64.4842L74.2473 61.0006L75.7505 61.4606L77.0345 64.5642L77.793 62.0856L79.0782 62.4789ZM87.2045 68.58L83.0851 67.3193L83.0781 67.3423C82.9399 67.7936 82.9706 68.2129 83.17 68.6002C83.3694 68.9875 83.7024 69.2526 84.169 69.3954C84.4903 69.4937 84.7741 69.5095 85.0205 69.4426C85.2768 69.3705 85.4551 69.2661 85.5555 69.1295L86.8407 69.5228C86.6131 69.9384 86.2313 70.2566 85.6952 70.4774C85.1668 70.7005 84.5392 70.7009 83.8125 70.4785C82.9404 70.2116 82.3235 69.7258 81.9619 69.0212C81.6026 68.3088 81.567 67.4822 81.8549 66.5413C82.1429 65.6004 82.6312 64.9341 83.3199 64.5425C84.011 64.1433 84.7735 64.0712 85.6073 64.3264C86.4105 64.5722 86.9724 65.0328 87.2928 65.7081C87.6132 66.3834 87.6388 67.1609 87.3695 68.0407L87.2045 68.58ZM85.2622 65.413C84.8491 65.2866 84.4751 65.306 84.1401 65.4712C83.8127 65.6387 83.5656 65.927 83.3985 66.336L86.1984 67.1928C86.3142 66.7598 86.286 66.3872 86.1137 66.0751C85.9515 65.7578 85.6677 65.5371 85.2622 65.413ZM92.566 66.4434C92.6597 66.1374 92.621 65.8537 92.45 65.5922C92.2867 65.3331 92.0215 65.1473 91.6543 65.0349C90.9046 64.8055 90.3303 65.0146 89.9313 65.6622L88.6576 65.2724C88.9331 64.6456 89.3762 64.1956 89.9869 63.9223C90.5976 63.649 91.2816 63.6283 92.0389 63.8601C92.8115 64.0965 93.3615 64.4865 93.6887 65.0301C94.0237 65.576 94.0963 66.1587 93.9067 66.7784C93.8365 67.0079 93.7403 67.2127 93.6182 67.3929C93.4962 67.573 93.387 67.7111 93.2907 67.8071C93.202 67.9055 93.0551 68.0028 92.85 68.099C92.6548 68.1898 92.5197 68.2489 92.4444 68.276C92.3715 68.2956 92.2195 68.3411 91.9885 68.4126C91.9609 68.4209 91.9006 68.4401 91.8077 68.4702C91.7148 68.5004 91.6546 68.5196 91.6269 68.5278C91.5993 68.5361 91.5429 68.5565 91.4576 68.589C91.3824 68.6161 91.3298 68.6377 91.2998 68.6536C91.2798 68.6642 91.2387 68.6893 91.1764 68.7288C91.1165 68.7606 91.0742 68.7895 91.0495 68.8154C91.0248 68.8414 90.989 68.8764 90.942 68.9206C90.895 68.9648 90.8557 69.0113 90.824 69.0602C90.8023 69.1037 90.7783 69.1549 90.7519 69.2138C90.7255 69.2727 90.7018 69.3365 90.6807 69.4054L90.6105 69.6349L89.3712 69.2556L89.4766 68.9114C89.5772 68.5824 89.7174 68.3158 89.8971 68.1114C90.0867 67.9017 90.2691 67.7568 90.4443 67.6765C90.6218 67.5886 90.8852 67.4935 91.2344 67.3912C91.503 67.3061 91.6988 67.2405 91.8217 67.1944C91.9545 67.1431 92.0952 67.0523 92.2438 66.9221C92.4001 66.7942 92.5075 66.6346 92.566 66.4434ZM89.0414 70.4974C89.2589 70.3883 89.4862 70.37 89.7233 70.4426C89.9604 70.5152 90.1348 70.6564 90.2462 70.8662C90.3654 71.0783 90.3887 71.303 90.3161 71.5401C90.2435 71.7772 90.0973 71.9542 89.8775 72.071C89.6677 72.1825 89.4442 72.2019 89.2071 72.1294C88.97 72.0568 88.7918 71.9144 88.6727 71.7023C88.5635 71.4848 88.5453 71.2575 88.6178 71.0204C88.6904 70.7832 88.8316 70.6089 89.0414 70.4974Z" fill="white"/>
<defs>
<linearGradient id="paint0_linear_163_805" x1="106.273" y1="18.907" x2="75.6915" y2="120.665" gradientUnits="userSpaceOnUse">
<stop stop-color="#66BEBE"/>
<stop offset="1" stop-color="#65DEA3"/>
</linearGradient>
</defs>
</svg>
