<svg width="190" height="120" viewBox="0 0 190 120" fill="none" xmlns="http://www.w3.org/2000/svg">
<path fill-rule="evenodd" clip-rule="evenodd" d="M138.893 33.6138C149.472 36.7929 155.47 47.9455 152.291 58.5238L145.325 81.7031C142.146 92.2814 130.993 98.2796 120.415 95.1005L100.831 89.2151L88.5007 95.8469C86.5551 96.8933 84.1296 96.1644 83.0832 94.2188L76.4514 81.8882L54.3403 75.2431C43.762 72.064 37.7638 60.9114 40.9429 50.3331L47.909 27.1538C51.0881 16.5755 62.2407 10.5773 72.819 13.7564L138.893 33.6138Z" fill="url(#paint0_linear_201_877)"/>
<path d="M62.7258 25.4693L69.2549 27.4674L66.7828 35.5456L65.4173 35.1277L67.5137 28.2773L63.7156 27.115L61.6192 33.9654L60.2537 33.5475L62.7258 25.4693ZM70.3118 31.0035C71.0205 30.6012 71.8033 30.5312 72.66 30.7934C73.5168 31.0556 74.1225 31.5505 74.4771 32.2781C74.8394 33.0081 74.8812 33.8283 74.6026 34.7386C74.324 35.6489 73.8304 36.3052 73.1217 36.7074C72.4206 37.1119 71.6417 37.1831 70.7849 36.9209C69.9281 36.6587 69.3186 36.1627 68.9563 35.4327C68.6017 34.7051 68.5637 33.8861 68.8423 32.9758C69.1209 32.0655 69.6107 31.408 70.3118 31.0035ZM70.1651 34.8865C70.3404 35.325 70.6653 35.6168 71.1395 35.762C71.6138 35.9071 72.0425 35.8459 72.4256 35.5783C72.8163 35.313 73.0983 34.8973 73.2715 34.3312C73.4448 33.7652 73.4437 33.2629 73.2684 32.8243C73.1007 32.3882 72.7797 32.0975 72.3054 31.9524C71.8311 31.8072 71.3986 31.8673 71.0079 32.1326C70.6248 32.4002 70.3466 32.817 70.1734 33.3831C70.0001 33.9492 69.9974 34.4503 70.1651 34.8865ZM81.0372 38.6529L80.2366 41.2691L78.9743 40.8828L79.4238 39.4141L75.2929 38.1499L74.8434 39.6187L73.5812 39.2324L74.3819 36.6162L74.8523 36.7601C75.2551 36.6742 75.6592 36.1328 76.0647 35.1358L77.1641 32.3224L81.6278 33.6884L80.1881 38.393L81.0372 38.6529ZM77.2899 35.561C76.9448 36.4426 76.5989 36.9851 76.2522 37.1886L78.8799 37.9927L79.9685 34.4355L77.9719 33.8245L77.2899 35.561ZM86.4784 35.0222C87.2051 35.2446 87.734 35.7034 88.065 36.3987C88.4037 37.0964 88.4267 37.9233 88.1341 38.8796C87.8414 39.8358 87.3558 40.507 86.677 40.8933C86.0059 41.2819 85.3032 41.3639 84.5688 41.1392C84.1633 41.0151 83.8299 40.8335 83.5684 40.5946C83.3168 40.3503 83.1535 40.0911 83.0784 39.8172L82.2075 42.6629L80.8994 42.2626L83.361 34.2188L84.6232 34.6051L84.3915 35.3624C84.9413 34.8781 85.6369 34.7647 86.4784 35.0222ZM84.7054 39.9135C85.1644 40.0539 85.5843 39.9942 85.965 39.7342C86.3558 39.469 86.6389 39.0495 86.8145 38.4757C86.9877 37.9096 86.9867 37.4073 86.8113 36.9688C86.6436 36.5327 86.3303 36.2443 85.8713 36.1039C85.4046 35.9611 84.9771 36.0185 84.5887 36.2761C84.2027 36.5261 83.9219 36.9379 83.7463 37.5117L83.7322 37.5576C83.5567 38.1313 83.5577 38.6336 83.7354 39.0645C83.9155 39.4877 84.2388 39.7707 84.7054 39.9135ZM90.2868 37.1163C90.9955 36.7141 91.7782 36.6441 92.635 36.9063C93.4918 37.1685 94.0975 37.6634 94.4521 38.391C94.8143 39.121 94.8562 39.9411 94.5776 40.8514C94.299 41.7618 93.8053 42.418 93.0966 42.8202C92.3955 43.2248 91.6166 43.296 90.7598 43.0338C89.9031 42.7716 89.2935 42.2755 88.9313 41.5455C88.5767 40.8179 88.5387 39.999 88.8173 39.0886C89.0959 38.1783 89.5857 37.5209 90.2868 37.1163ZM90.14 40.9993C90.3154 41.4379 90.6402 41.7297 91.1145 41.8748C91.5888 42.02 92.0175 41.9587 92.4006 41.6911C92.7913 41.4258 93.0733 41.0102 93.2465 40.4441C93.4197 39.878 93.4187 39.3757 93.2433 38.9372C93.0756 38.501 92.7546 38.2104 92.2803 38.0652C91.8061 37.9201 91.3735 37.9801 90.9828 38.2454C90.5997 38.513 90.3216 38.9299 90.1483 39.496C89.9751 40.0621 89.9723 40.5632 90.14 40.9993ZM99.4755 39.2004C100.248 39.4369 100.795 39.8928 101.115 40.5681C101.443 41.2457 101.469 42.0359 101.193 42.9386C100.933 43.7877 100.454 44.4234 99.7558 44.8456C99.0677 45.2625 98.2991 45.341 97.45 45.0811C96.5014 44.7908 95.8565 44.2463 95.5153 43.4475C95.1765 42.641 95.1815 41.6679 95.5303 40.5281C95.9587 39.1281 96.5048 38.1365 97.1685 37.5532C97.8346 36.9623 98.7209 36.7315 99.8275 36.861L102.336 37.1519L101.971 38.3452L99.6819 38.0338C99.0448 37.9559 98.5344 38.0382 98.1507 38.2805C97.7693 38.5152 97.4521 38.9368 97.1989 39.5453C97.8292 39.0438 98.5881 38.9289 99.4755 39.2004ZM97.7287 43.9241C98.2107 44.0715 98.642 44.0153 99.0228 43.7553C99.4135 43.4901 99.6931 43.082 99.8617 42.5312C100.026 41.9958 100.017 41.5164 99.8374 41.0932C99.6674 40.6647 99.3452 40.3779 98.8709 40.2327C98.3967 40.0876 97.96 40.1338 97.561 40.3715C97.1643 40.6014 96.8817 40.9918 96.7132 41.5426C96.5399 42.1087 96.541 42.611 96.7163 43.0495C96.9017 43.4827 97.2392 43.7742 97.7287 43.9241ZM102.64 46.5189L101.332 46.1186L103.123 40.2665L104.431 40.6668L103.743 42.9158L106.256 43.6849L106.944 41.4358L108.252 41.8361L106.461 47.6882L105.153 47.2879L105.901 44.8438L103.388 44.0748L102.64 46.5189ZM109.847 43.1023C110.556 42.7001 111.339 42.63 112.195 42.8922C113.052 43.1544 113.658 43.6493 114.012 44.377C114.375 45.1069 114.417 45.9271 114.138 46.8374C113.859 47.7477 113.366 48.404 112.657 48.8062C111.956 49.2108 111.177 49.2819 110.32 49.0197C109.463 48.7575 108.854 48.2615 108.492 47.5315C108.137 46.8039 108.099 45.9849 108.378 45.0746C108.656 44.1643 109.146 43.5068 109.847 43.1023ZM109.7 46.9853C109.876 47.4238 110.201 47.7156 110.675 47.8608C111.149 48.0059 111.578 47.9447 111.961 47.6771C112.352 47.4118 112.634 46.9961 112.807 46.43C112.98 45.864 112.979 45.3617 112.804 44.9232C112.636 44.487 112.315 44.1963 111.841 44.0512C111.366 43.906 110.934 43.9661 110.543 44.2314C110.16 44.499 109.882 44.9158 109.709 45.4819C109.535 46.048 109.533 46.5491 109.7 46.9853ZM61.5127 39.9314C62.2394 40.1538 62.7683 40.6126 63.0993 41.3079C63.438 42.0056 63.461 42.8325 63.1684 43.7888C62.8758 44.745 62.3901 45.4162 61.7113 45.8025C61.0402 46.1911 60.3375 46.2731 59.6031 46.0484C59.1977 45.9243 58.8642 45.7427 58.6027 45.5038C58.3512 45.2595 58.1878 45.0003 58.1127 44.7264L57.2419 47.5721L55.9337 47.1718L58.3953 39.128L59.6576 39.5143L59.4258 40.2716C59.9756 39.7873 60.6712 39.6739 61.5127 39.9314ZM59.7398 44.8227C60.1987 44.9632 60.6186 44.9034 60.9993 44.6434C61.3901 44.3782 61.6732 43.9587 61.8488 43.3849C62.022 42.8188 62.021 42.3165 61.8456 41.878C61.6779 41.4419 61.3646 41.1535 60.9056 41.0131C60.439 40.8703 60.0114 40.9277 59.6231 41.1853C59.237 41.4353 58.9562 41.8471 58.7806 42.4209L58.7666 42.4668C58.591 43.0405 58.592 43.5428 58.7697 43.9737C58.9498 44.3969 59.2731 44.6799 59.7398 44.8227ZM67.9068 44.1972C68.0074 43.8683 67.9776 43.5831 67.8172 43.3416C67.6669 43.0948 67.4196 42.9187 67.0753 42.8133C66.4557 42.6237 66.0003 42.7312 65.7092 43.1357L64.4699 42.7564C64.7162 42.2796 65.1001 41.9411 65.6215 41.741C66.1529 41.5355 66.7628 41.5381 67.4513 41.7488C68.178 41.9712 68.6983 42.3353 69.0119 42.8413C69.3333 43.3495 69.3909 43.9403 69.1849 44.6135L68.005 48.469L66.7887 48.0967L66.9924 47.4312C66.4001 47.8356 65.7138 47.9184 64.9336 47.6796C64.3522 47.5017 63.9167 47.1886 63.6273 46.7402C63.3478 46.2866 63.2935 45.7805 63.4644 45.2221C63.6423 44.6407 63.987 44.2526 64.4984 44.0577C65.0198 43.8575 65.6477 43.8698 66.3821 44.0945L67.8049 44.53L67.9068 44.1972ZM65.547 46.7002C65.9524 46.8243 66.3318 46.8149 66.6851 46.672C67.0407 46.5215 67.277 46.255 67.3941 45.8725L67.5029 45.5168L66.1719 45.1095C65.8276 45.0041 65.53 44.9925 65.279 45.0747C65.0379 45.1515 64.8776 45.3199 64.798 45.58C64.7184 45.8401 64.7482 46.0709 64.8873 46.2725C65.0288 46.4664 65.2487 46.6089 65.547 46.7002ZM72.1377 48.6168C72.5202 48.7338 72.844 48.7283 73.1091 48.6003C73.3818 48.4746 73.5935 48.2884 73.7443 48.0418L75.018 48.4315C74.7666 49.0072 74.3443 49.4301 73.7513 49.7004C73.1582 49.9707 72.4983 49.9946 71.7716 49.7722C70.9225 49.5124 70.3244 49.0198 69.9775 48.2945C69.6329 47.5616 69.5987 46.7438 69.8749 45.8411C70.1488 44.9461 70.6298 44.2901 71.3179 43.8732C72.0137 43.4587 72.79 43.3825 73.6468 43.6447C74.3888 43.8718 74.9211 44.2648 75.2437 44.8236C75.5686 45.3748 75.6815 45.949 75.5824 46.5462L74.3088 46.1564C74.3042 45.8705 74.2229 45.603 74.0649 45.3539C73.9169 45.0995 73.6593 44.916 73.2921 44.8037C72.8331 44.6632 72.4121 44.7268 72.029 44.9944C71.6536 45.2644 71.3792 45.6824 71.206 46.2485C71.0304 46.8222 71.0265 47.3271 71.1942 47.7633C71.3642 48.1918 71.6787 48.4763 72.1377 48.6168ZM78.2059 50.4738C78.5884 50.5908 78.9122 50.5854 79.1772 50.4573C79.4499 50.3316 79.6617 50.1454 79.8125 49.8988L81.0862 50.2885C80.8347 50.8642 80.4125 51.2871 79.8194 51.5574C79.2264 51.8277 78.5665 51.8516 77.8397 51.6292C76.9906 51.3694 76.3926 50.8768 76.0456 50.1515C75.701 49.4186 75.6668 48.6008 75.9431 47.6981C76.217 46.8031 76.698 46.1471 77.3861 45.7303C78.0819 45.3157 78.8581 45.2395 79.7149 45.5017C80.4569 45.7288 80.9892 46.1218 81.3118 46.6806C81.6368 47.2319 81.7497 47.806 81.6506 48.4032L80.3769 48.0134C80.3723 47.7276 80.2911 47.4601 80.1331 47.2109C79.985 46.9565 79.7274 46.773 79.3602 46.6607C78.9013 46.5202 78.4802 46.5838 78.0971 46.8514C77.7217 47.1214 77.4474 47.5394 77.2741 48.1055C77.0986 48.6792 77.0946 49.1842 77.2623 49.6203C77.4324 50.0488 77.7469 50.3333 78.2059 50.4738ZM82.7567 52.9833L81.4485 52.583L83.2394 46.7309L84.5476 47.1312L83.8031 49.5639L86.7966 47.8195L88.3457 48.2936L84.982 50.2635L86.5892 54.1562L85.0057 53.6716L83.5924 50.2524L82.7567 52.9833ZM91.7984 51.5087C91.899 51.1797 91.8692 50.8945 91.7088 50.653C91.5585 50.4062 91.3112 50.2301 90.9669 50.1248C90.3473 49.9352 89.8919 50.0426 89.6008 50.4471L88.3615 50.0679C88.6078 49.5911 88.9917 49.2526 89.5131 49.0524C90.0445 48.8469 90.6544 48.8495 91.3429 49.0602C92.0696 49.2826 92.5899 49.6468 92.9035 50.1527C93.2249 50.661 93.2825 51.2517 93.0765 51.9249L91.8966 55.7804L90.6803 55.4082L90.884 54.7426C90.2917 55.147 89.6054 55.2298 88.8252 54.991C88.2438 54.8131 87.8083 54.5 87.5189 54.0517C87.2394 53.598 87.1851 53.092 87.356 52.5335C87.5339 51.9522 87.8786 51.564 88.39 51.3692C88.9114 51.169 89.5393 51.1812 90.2737 51.406L91.6965 51.8414L91.7984 51.5087ZM89.4386 54.0117C89.844 54.1358 90.2234 54.1264 90.5767 53.9835C90.9323 53.833 91.1686 53.5665 91.2857 53.184L91.3945 52.8282L90.0635 52.4209C89.7192 52.3156 89.4216 52.304 89.1706 52.3861C88.9295 52.4629 88.7692 52.6314 88.6896 52.8915C88.61 53.1516 88.6398 53.3824 88.7789 53.5839C88.9204 53.7778 89.1403 53.9204 89.4386 54.0117ZM99.206 51.6171L98.4475 54.0956L101.248 52.2421L102.752 52.7022L99.6369 54.7608L100.995 58.5648L99.4576 58.0942L98.2578 54.7153L97.4151 57.4692L96.1299 57.0759L96.9727 54.322L94.0874 56.4508L92.5613 55.9838L95.7938 53.6224L94.3751 50.1387L95.8783 50.5987L97.1623 53.7023L97.9208 51.2238L99.206 51.6171ZM107.332 57.7181L103.213 56.4575L103.206 56.4804C103.068 56.9318 103.098 57.3511 103.298 57.7384C103.497 58.1257 103.83 58.3908 104.297 58.5336C104.618 58.6319 104.902 58.6476 105.148 58.5808C105.405 58.5086 105.583 58.4043 105.683 58.2677L106.968 58.661C106.741 59.0765 106.359 59.3947 105.823 59.6155C105.295 59.8387 104.667 59.839 103.94 59.6166C103.068 59.3498 102.451 58.864 102.09 58.1593C101.73 57.447 101.695 56.6204 101.983 55.6795C102.271 54.7385 102.759 54.0723 103.448 53.6807C104.139 53.2814 104.901 53.2094 105.735 53.4646C106.538 53.7104 107.1 54.1709 107.421 54.8463C107.741 55.5216 107.767 56.2991 107.497 57.1788L107.332 57.7181ZM105.39 54.5512C104.977 54.4247 104.603 54.4441 104.268 54.6093C103.94 54.7769 103.693 55.0652 103.526 55.4742L106.326 56.331C106.442 55.8979 106.414 55.5254 106.242 55.2133C106.079 54.8959 105.795 54.6752 105.39 54.5512ZM109.361 54.7248L111.013 55.2304L111.573 60.045L114.731 56.3682L116.361 56.8668L114.57 62.7189L113.307 62.3327L114.533 58.328L111.559 61.7724L110.595 61.4775L110.054 56.97L108.832 60.9632L107.57 60.5769L109.361 54.7248ZM121.019 63.5757C121.402 63.6928 121.725 63.6873 121.99 63.5593C122.263 63.4336 122.475 63.2474 122.626 63.0007L123.899 63.3905C123.648 63.9661 123.226 64.389 122.633 64.6593C122.04 64.9296 121.38 64.9536 120.653 64.7312C119.804 64.4713 119.206 63.9787 118.859 63.2535C118.514 62.5205 118.48 61.7027 118.756 60.8001C119.03 59.905 119.511 59.2491 120.199 58.8322C120.895 58.4176 121.671 58.3415 122.528 58.6037C123.27 58.8307 123.802 59.2237 124.125 59.7826C124.45 60.3338 124.563 60.908 124.464 61.5051L123.19 61.1153C123.186 60.8295 123.104 60.562 122.946 60.3128C122.798 60.0584 122.541 59.875 122.173 59.7626C121.714 59.6222 121.293 59.6857 120.91 59.9533C120.535 60.2233 120.261 60.6413 120.087 61.2074C119.912 61.7811 119.908 62.2861 120.076 62.7223C120.246 63.1508 120.56 63.4353 121.019 63.5757ZM53.0929 56.4548L54.8838 50.6027L57.5115 51.4068C58.1388 51.5988 58.5736 51.8867 58.8159 52.2704C59.0582 52.6541 59.1115 53.0678 58.9757 53.5115C58.8774 53.8327 58.7151 54.0759 58.4889 54.2409C58.2727 54.4007 58.0358 54.4913 57.7783 54.5129C58.0508 54.6883 58.2491 54.9289 58.3731 55.2345C58.5047 55.5425 58.5132 55.884 58.3985 56.2588C58.2487 56.7484 57.9422 57.0938 57.479 57.2951C57.0258 57.4911 56.4779 57.4907 55.8354 57.2941L53.0929 56.4548ZM56.4402 54.7434L55.1436 54.3466L54.6871 55.8383L55.9837 56.2351C56.2744 56.3241 56.5162 56.327 56.709 56.2437C56.9117 56.1552 57.0494 55.9924 57.122 55.7552C57.2718 55.2656 57.0446 54.9284 56.4402 54.7434ZM57.0418 52.3675L55.8599 52.0058L55.4456 53.3598L56.6275 53.7215C56.8799 53.7987 57.0937 53.7972 57.2689 53.717C57.4517 53.6391 57.5758 53.493 57.6414 53.2788C57.7772 52.8351 57.5773 52.5313 57.0418 52.3675ZM62.0021 52.7811L61.4578 54.5597L62.6282 54.9178C63.2784 55.1168 63.7401 55.4673 64.0132 55.9691C64.2886 56.4634 64.3362 57.005 64.1559 57.594C63.9733 58.1907 63.6234 58.6233 63.1062 58.8917C62.5991 59.1548 62.0242 59.188 61.3816 58.9914L58.9145 58.2364L60.7054 52.3843L62.0021 52.7811ZM67.3607 54.421L65.5699 60.2731L64.2732 59.8763L66.0641 54.0242L67.3607 54.421ZM62.1304 55.9702L61.1207 55.6612L60.5448 57.5431L61.5545 57.8521C61.8682 57.9481 62.1411 57.9312 62.3732 57.8014C62.613 57.674 62.775 57.4726 62.8593 57.1972C62.9436 56.9218 62.9196 56.6719 62.7876 56.4474C62.6631 56.2253 62.4441 56.0662 62.1304 55.9702ZM69.7468 60.4344C70.1292 60.5515 70.453 60.546 70.7181 60.4179C70.9908 60.2922 71.2026 60.1061 71.3534 59.8594L72.627 60.2492C72.3756 60.8248 71.9533 61.2477 71.3603 61.518C70.7672 61.7883 70.1073 61.8123 69.3806 61.5899C68.5315 61.33 67.9334 60.8374 67.5865 60.1122C67.2419 59.3792 67.2077 58.5614 67.4839 57.6588C67.7578 56.7637 68.2389 56.1078 68.927 55.6909C69.6227 55.2763 70.399 55.2002 71.2558 55.4624C71.9978 55.6894 72.5301 56.0824 72.8527 56.6413C73.1776 57.1925 73.2905 57.7667 73.1915 58.3638L71.9178 57.974C71.9132 57.6882 71.8319 57.4207 71.6739 57.1715C71.5259 56.9171 71.2683 56.7337 70.9011 56.6213C70.4421 56.4808 70.0211 56.5444 69.638 56.812C69.2626 57.082 68.9882 57.5 68.815 58.0661C68.6394 58.6398 68.6355 59.1448 68.8032 59.581C68.9733 60.0095 69.2878 60.294 69.7468 60.4344ZM75.0216 57.5434C75.7303 57.1412 76.5131 57.0712 77.3698 57.3334C78.2266 57.5956 78.8323 58.0905 79.1869 58.8181C79.5492 59.5481 79.591 60.3682 79.3124 61.2786C79.0338 62.1889 78.5402 62.8452 77.8314 63.2474C77.1304 63.6519 76.3514 63.7231 75.4947 63.4609C74.6379 63.1987 74.0284 62.7026 73.6661 61.9727C73.3115 61.2451 73.2735 60.4261 73.5521 59.5158C73.8307 58.6054 74.3205 57.948 75.0216 57.5434ZM74.8749 61.4265C75.0502 61.865 75.375 62.1568 75.8493 62.302C76.3236 62.4471 76.7523 62.3859 77.1354 62.1183C77.5261 61.853 77.8081 61.4373 77.9813 60.8712C78.1546 60.3051 78.1535 59.8028 77.9782 59.3643C77.8105 58.9282 77.4895 58.6375 77.0152 58.4924C76.5409 58.3472 76.1084 58.4073 75.7176 58.6726C75.3346 58.9402 75.0564 59.357 74.8832 59.9231C74.7099 60.4892 74.7072 60.9903 74.8749 61.4265ZM80.1952 59.6036L80.5464 58.4561L85.5952 60.0012L85.2441 61.1487L83.3737 60.5763L81.934 65.2809L80.6258 64.8806L82.0656 60.176L80.1952 59.6036ZM87.7874 60.6721L87.2431 62.4506L88.4136 62.8088C89.0638 63.0078 89.5255 63.3582 89.7985 63.8601C90.074 64.3544 90.1216 64.896 89.9413 65.485C89.7587 66.0817 89.4088 66.5143 88.8916 66.7827C88.3844 67.0458 87.8095 67.079 87.167 66.8823L84.6999 66.1274L86.4908 60.2753L87.7874 60.6721ZM93.1461 62.312L91.3552 68.1641L90.0586 67.7672L91.8495 61.9151L93.1461 62.312ZM87.9158 63.8612L86.906 63.5522L86.3301 65.4341L87.3399 65.7431C87.6536 65.8391 87.9264 65.8222 88.1586 65.6924C88.3983 65.565 88.5604 65.3636 88.6447 65.0882C88.7289 64.8128 88.705 64.5629 88.5729 64.3384C88.4485 64.1163 88.2294 63.9572 87.9158 63.8612ZM97.0082 64.2719C97.7169 63.8697 98.4997 63.7997 99.3565 64.0619C100.213 64.3241 100.819 64.819 101.174 65.5466C101.536 66.2766 101.578 67.0967 101.299 68.007C101.02 68.9174 100.527 69.5736 99.8181 69.9758C99.117 70.3804 98.3381 70.4516 97.4813 70.1894C96.6245 69.9272 96.015 69.4311 95.6527 68.7011C95.2981 67.9735 95.2601 67.1546 95.5387 66.2442C95.8173 65.3339 96.3071 64.6765 97.0082 64.2719ZM96.8615 68.1549C97.0368 68.5935 97.3617 68.8853 97.836 69.0304C98.3102 69.1756 98.7389 69.1143 99.122 68.8467C99.5127 68.5815 99.7947 68.1658 99.968 67.5997C100.141 67.0336 100.14 66.5313 99.9648 66.0928C99.7971 65.6566 99.4761 65.366 99.0018 65.2208C98.5275 65.0757 98.095 65.1357 97.7043 65.401C97.3212 65.6686 97.043 66.0855 96.8698 66.6516C96.6965 67.2177 96.6938 67.7188 96.8615 68.1549ZM103.216 65.3936L108.311 66.9527L106.52 72.8048L105.212 72.4045L106.652 67.6999L104.173 66.9414L102.733 71.646L101.425 71.2457L103.216 65.3936ZM110.962 67.764L110.418 69.5426L111.588 69.9008C112.238 70.0998 112.7 70.4502 112.973 70.9521C113.248 71.4463 113.296 71.988 113.116 72.577C112.933 73.1737 112.583 73.6062 112.066 73.8746C111.559 74.1377 110.984 74.171 110.341 73.9743L107.874 73.2193L109.665 67.3672L110.962 67.764ZM116.321 69.4039L114.53 75.256L113.233 74.8592L115.024 69.0071L116.321 69.4039ZM111.09 70.9532L110.08 70.6442L109.505 72.526L110.514 72.835C110.828 72.931 111.101 72.9141 111.333 72.7844C111.573 72.657 111.735 72.4556 111.819 72.1802C111.903 71.9048 111.879 71.6549 111.747 71.4304C111.623 71.2082 111.404 71.0492 111.09 70.9532ZM116.862 70.8245L117.213 69.677L122.262 71.2221L121.911 72.3696L120.04 71.7972L118.601 76.5018L117.292 76.1015L118.732 71.3969L116.862 70.8245ZM125.872 74.4855C125.973 74.1565 125.943 73.8713 125.783 73.6298C125.632 73.383 125.385 73.207 125.041 73.1016C124.421 72.912 123.966 73.0194 123.675 73.4239L122.435 73.0447C122.682 72.5679 123.066 72.2294 123.587 72.0292C124.118 71.8237 124.728 71.8263 125.417 72.037C126.144 72.2594 126.664 72.6236 126.977 73.1295C127.299 73.6378 127.356 74.2285 127.15 74.9017L125.971 78.7572L124.754 78.385L124.958 77.7195C124.366 78.1239 123.679 78.2067 122.899 77.9679C122.318 77.79 121.882 77.4768 121.593 77.0285C121.313 76.5749 121.259 76.0688 121.43 75.5104C121.608 74.929 121.953 74.5409 122.464 74.346C122.985 74.1458 123.613 74.1581 124.348 74.3828L125.77 74.8183L125.872 74.4855ZM123.513 76.9885C123.918 77.1126 124.297 77.1032 124.651 76.9603C125.006 76.8098 125.243 76.5433 125.36 76.1608L125.468 75.8051L124.137 75.3977C123.793 75.2924 123.496 75.2808 123.245 75.3629C123.003 75.4398 122.843 75.6082 122.764 75.8683C122.684 76.1284 122.714 76.3592 122.853 76.5607C122.994 76.7546 123.214 76.8972 123.513 76.9885Z" fill="white"/>
<defs>
<linearGradient id="paint0_linear_201_877" x1="122.394" y1="24.0863" x2="91.3329" y2="127.44" gradientUnits="userSpaceOnUse">
<stop stop-color="#66BEBE"/>
<stop offset="1" stop-color="#65DEA3"/>
</linearGradient>
</defs>
</svg>
