<svg width="180" height="100" viewBox="0 0 180 100" fill="none" xmlns="http://www.w3.org/2000/svg">
<path fill-rule="evenodd" clip-rule="evenodd" d="M49.3262 31.9724C38.6526 34.8154 32.3047 45.7727 35.1477 56.4463L37.571 65.5443C40.414 76.2179 51.3714 82.5658 62.0449 79.7228L86.1187 73.3106L92.8521 77.2114C94.2858 78.042 96.1213 77.5531 96.9518 76.1194L100.853 69.386L128.964 61.8984C139.637 59.0554 145.985 48.0981 143.142 37.4245L140.719 28.3265C137.876 17.6529 126.919 11.305 116.245 14.148L49.3262 31.9724Z" fill="url(#paint0_linear_201_780)"/>
<path d="M49.8379 53.6196L48.458 53.9871L46.2837 45.8238L47.6635 45.4562L48.5562 48.8074L52.4291 47.7758L51.5365 44.4246L52.9164 44.0571L55.0908 52.2204L53.7109 52.588L52.7627 49.0281L48.8897 50.0597L49.8379 53.6196ZM61.1002 47.8629L56.9373 48.9717L56.9435 48.9949C57.065 49.451 57.3128 49.7907 57.6868 50.0139C58.0609 50.2372 58.4837 50.286 58.9553 50.1604C59.2799 50.0739 59.5291 49.9372 59.7029 49.7501C59.8822 49.5533 59.9784 49.3704 59.9913 49.2014L61.2901 48.8555C61.3167 49.3286 61.161 49.8005 60.8228 50.2715C60.4923 50.7403 59.9599 51.0725 59.2255 51.2681C58.3442 51.5029 57.5638 51.4169 56.8842 51.0101C56.2025 50.5956 55.7351 49.9129 55.4818 48.962C55.2285 48.0112 55.2906 47.1874 55.668 46.4908C56.0434 45.7865 56.6524 45.3221 57.495 45.0977C58.3067 44.8815 59.0271 44.9752 59.6562 45.3789C60.2853 45.7826 60.7182 46.4289 60.955 47.3179L61.1002 47.8629ZM57.7768 46.2023C57.3594 46.3135 57.0522 46.5278 56.8552 46.8452C56.666 47.1605 56.6087 47.5359 56.6833 47.9714L59.5127 47.2178C59.3819 46.789 59.1609 46.4877 58.8497 46.314C58.5442 46.1304 58.1865 46.0932 57.7768 46.2023ZM63.5321 43.6386L68.6806 42.2673L70.2558 48.1811L68.9339 48.5332L67.6676 43.779L65.1629 44.4461L66.4292 49.2004L65.1073 49.5525L63.5321 43.6386ZM70.7046 42.4981C71.0934 41.7819 71.7206 41.3085 72.5865 41.0779C73.4523 40.8473 74.2281 40.947 74.9138 41.377C75.6073 41.8049 76.0766 42.4788 76.3216 43.3987C76.5667 44.3187 76.4948 45.1367 76.106 45.8529C75.725 46.567 75.1016 47.0394 74.2358 47.27C73.37 47.5006 72.5903 47.402 71.8968 46.9741C71.211 46.5441 70.7456 45.8691 70.5006 44.9492C70.2556 44.0293 70.3236 43.2123 70.7046 42.4981ZM72.6338 45.8712C73.0145 46.1507 73.4445 46.2265 73.9238 46.0989C74.4031 45.9712 74.7345 45.6925 74.9181 45.2628C75.1094 44.831 75.1289 44.3291 74.9765 43.757C74.8242 43.185 74.5576 42.7592 74.1769 42.4798C73.8038 42.1983 73.3777 42.1214 72.8984 42.2491C72.4191 42.3768 72.0838 42.6565 71.8925 43.0883C71.7089 43.518 71.6933 44.0189 71.8457 44.5909C71.9981 45.163 72.2608 45.5898 72.6338 45.8712ZM77.431 46.2948L77.1222 45.1352L77.3077 45.0858C77.6324 44.9993 77.8367 44.8497 77.9208 44.6368C78.0105 44.4143 78.014 44.0698 77.9312 43.6034L77.2759 39.9779L81.6243 38.8196L83.1995 44.7334L81.8776 45.0855L80.6113 40.3313L78.7444 40.8286L79.2082 43.3626C79.3626 44.1907 79.3258 44.8297 79.0979 45.2795C78.8756 45.7196 78.4399 46.0261 77.7905 46.199L77.431 46.2948ZM86.8541 37.4266L88.2803 37.0467L87.2566 46.0247L85.842 46.4015L86.1403 43.8384L82.3202 38.6343L83.7464 38.2544L86.4276 42.0729L86.8541 37.4266ZM92.3989 35.9497L93.7208 35.5976L95.296 41.5114L93.9741 41.8635L93.3533 39.5328C93.059 39.8264 92.6451 40.0443 92.1117 40.1864C91.4237 40.3696 90.8135 40.3169 90.2813 40.0282C89.749 39.7394 89.3789 39.2047 89.171 38.4239L88.7694 36.9165L90.0914 36.5644L90.4682 37.979C90.7008 38.8526 91.2462 39.1751 92.1043 38.9465C92.4908 38.8436 92.8104 38.6757 93.063 38.4428L92.3989 35.9497ZM99.0857 36.3046C98.9972 35.9722 98.821 35.7459 98.5572 35.6258C98.2991 35.4958 97.9961 35.4772 97.6482 35.5698C97.022 35.7366 96.6924 36.0687 96.6593 36.5659L95.4069 36.8995C95.3638 36.3646 95.5105 35.8743 95.8472 35.4286C96.1895 34.9732 96.7085 34.6528 97.4043 34.4675C98.1387 34.2719 98.7727 34.3058 99.3066 34.5693C99.8481 34.8307 100.209 35.3016 100.391 35.9819L101.428 39.878L100.199 40.2054L100.02 39.5329C99.7314 40.1893 99.1927 40.6225 98.4042 40.8326C97.8167 40.989 97.2815 40.9536 96.7988 40.7262C96.3216 40.489 96.0079 40.0883 95.8576 39.5239C95.7011 38.9364 95.7883 38.4247 96.1193 37.9888C96.4559 37.5432 96.9953 37.2215 97.7375 37.0239L99.1753 36.6409L99.0857 36.3046ZM98.4069 39.6769C98.8166 39.5678 99.1336 39.3592 99.3578 39.0511C99.58 38.7353 99.6396 38.3841 99.5367 37.9976L99.4409 37.6381L98.0958 37.9964C97.748 38.089 97.4892 38.2366 97.3196 38.4391C97.1557 38.6318 97.1087 38.8595 97.1788 39.1224C97.2488 39.3852 97.3961 39.5653 97.6207 39.6628C97.8433 39.7525 98.1054 39.7572 98.4069 39.6769ZM102.129 39.7161L101.821 38.5566L102.006 38.5071C102.331 38.4207 102.535 38.271 102.619 38.0582C102.709 37.8356 102.712 37.4911 102.63 37.0247L101.974 33.3992L106.323 32.241L107.898 38.1548L106.576 38.5069L105.31 33.7527L103.443 34.2499L103.907 36.7839C104.061 37.6121 104.024 38.2511 103.796 38.7009C103.574 39.1409 103.138 39.4474 102.489 39.6204L102.129 39.7161ZM111.701 32.9444C111.613 32.612 111.436 32.3857 111.173 32.2656C110.914 32.1356 110.611 32.117 110.264 32.2096C109.637 32.3764 109.308 32.7085 109.275 33.2057L108.022 33.5393C107.979 33.0044 108.126 32.5141 108.462 32.0684C108.805 31.613 109.324 31.2926 110.02 31.1073C110.754 30.9117 111.388 30.9456 111.922 31.2091C112.463 31.4705 112.825 31.9414 113.006 32.6217L114.044 36.5178L112.815 36.8452L112.635 36.1727C112.347 36.8291 111.808 37.2623 111.02 37.4724C110.432 37.6288 109.897 37.5934 109.414 37.366C108.937 37.1288 108.623 36.7281 108.473 36.1637C108.316 35.5762 108.404 35.0645 108.735 34.6287C109.071 34.183 109.611 33.8613 110.353 33.6637L111.791 33.2807L111.701 32.9444ZM111.022 36.3167C111.432 36.2076 111.749 35.999 111.973 35.6909C112.195 35.3751 112.255 35.0239 112.152 34.6374L112.056 34.2779L110.711 34.6362C110.363 34.7288 110.105 34.8764 109.935 35.0789C109.771 35.2716 109.724 35.4993 109.794 35.7622C109.864 36.025 110.011 36.2051 110.236 36.3026C110.459 36.3923 110.721 36.397 111.022 36.3167ZM117.629 34.4575C118.016 34.3546 118.288 34.1787 118.445 33.9298C118.61 33.6789 118.691 33.4089 118.689 33.1198L119.976 32.777C120.067 33.3985 119.932 33.9807 119.572 34.5238C119.211 35.0668 118.664 35.4362 117.93 35.6318C117.072 35.8603 116.304 35.7586 115.625 35.3266C114.945 34.8868 114.484 34.2108 114.241 33.2986C114 32.3942 114.061 31.583 114.425 30.8653C114.796 30.1455 115.415 29.6703 116.28 29.4397C117.03 29.2399 117.69 29.2919 118.259 29.5956C118.826 29.8916 119.226 30.3192 119.458 30.8783L118.171 31.2212C118.016 30.981 117.805 30.797 117.539 30.6691C117.279 30.5314 116.963 30.512 116.592 30.6108C116.128 30.7344 115.805 31.011 115.621 31.4408C115.445 31.8684 115.434 32.3683 115.586 32.9403C115.74 33.5201 116.004 33.9508 116.377 34.2322C116.748 34.506 117.165 34.5811 117.629 34.4575ZM121.232 28.2698L121.711 30.0671L122.893 29.7521C123.551 29.5771 124.128 29.6303 124.625 29.9118C125.12 30.1856 125.447 30.6201 125.605 31.2154C125.766 31.8183 125.698 32.3705 125.401 32.8718C125.11 33.3633 124.639 33.6956 123.99 33.8686L121.497 34.5326L119.922 28.6188L121.232 28.2698ZM123.028 30.9085L122.007 31.1803L122.514 33.082L123.534 32.8102C123.851 32.7258 124.074 32.5671 124.202 32.3342C124.338 32.0993 124.369 31.8427 124.295 31.5644C124.221 31.2861 124.069 31.0866 123.838 30.9659C123.615 30.8432 123.345 30.8241 123.028 30.9085ZM52.7294 65.2678L51.4075 65.6199L49.8323 59.7061L51.1542 59.354L51.7596 61.6267L54.2991 60.9503L53.6937 58.6776L55.0156 58.3255L56.5908 64.2393L55.2689 64.5914L54.611 62.1215L52.0716 62.7979L52.7294 65.2678ZM60.3818 59.0321C60.2933 58.6997 60.1171 58.4734 59.8533 58.3533C59.5951 58.2233 59.2921 58.2047 58.9443 58.2974C58.3181 58.4641 57.9884 58.7962 57.9553 59.2935L56.703 59.627C56.6598 59.0921 56.8066 58.6018 57.1432 58.1562C57.4855 57.7007 58.0046 57.3803 58.7003 57.195C59.4347 56.9994 60.0688 57.0333 60.6026 57.2968C61.1441 57.5582 61.5055 58.0291 61.6867 58.7094L62.7245 62.6055L61.4953 62.9329L61.3162 62.2604C61.0274 62.9168 60.4888 63.35 59.7003 63.5601C59.1128 63.7166 58.5776 63.6811 58.0948 63.4537C57.6177 63.2165 57.304 62.8158 57.1537 62.2514C56.9972 61.6639 57.0844 61.1522 57.4154 60.7164C57.752 60.2707 58.2914 59.949 59.0335 59.7514L60.4714 59.3684L60.3818 59.0321ZM59.7029 62.4045C60.1126 62.2953 60.4296 62.0867 60.6539 61.7786C60.8761 61.4628 60.9357 61.1116 60.8327 60.7251L60.737 60.3656L59.3919 60.7239C59.044 60.8166 58.7853 60.9641 58.6157 61.1666C58.4518 61.3593 58.4048 61.587 58.4748 61.8499C58.5448 62.1127 58.6921 62.2929 58.9168 62.3903C59.1394 62.48 59.4014 62.4848 59.7029 62.4045ZM65.9026 55.4256L67.2245 55.0735L68.7997 60.9873L67.4778 61.3394L66.857 59.0087C66.5627 59.3024 66.1488 59.5202 65.6154 59.6623C64.9274 59.8456 64.3172 59.7928 63.785 59.5041C63.2528 59.2153 62.8826 58.6806 62.6747 57.8998L62.2732 56.3924L63.5951 56.0403L63.9719 57.4549C64.2046 58.3285 64.7499 58.651 65.608 58.4224C65.9945 58.3195 66.3141 58.1516 66.5667 57.9187L65.9026 55.4256ZM72.5895 55.7805C72.5009 55.4481 72.3247 55.2218 72.0609 55.1017C71.8028 54.9717 71.4998 54.9531 71.1519 55.0457C70.5257 55.2125 70.1961 55.5446 70.163 56.0418L68.9106 56.3754C68.8675 55.8405 69.0143 55.3502 69.3509 54.9045C69.6932 54.4491 70.2122 54.1287 70.908 53.9434C71.6424 53.7478 72.2765 53.7817 72.8103 54.0452C73.3518 54.3066 73.7132 54.7775 73.8944 55.4578L74.9321 59.3539L73.703 59.6813L73.5238 59.0088C73.2351 59.6652 72.6964 60.0984 71.9079 60.3085C71.3204 60.465 70.7853 60.4295 70.3025 60.2021C69.8253 59.9649 69.5116 59.5642 69.3613 58.9998C69.2048 58.4123 69.2921 57.9006 69.623 57.4648C69.9597 57.0191 70.499 56.6974 71.2412 56.4998L72.679 56.1168L72.5895 55.7805ZM71.9106 59.1528C72.3203 59.0437 72.6373 58.8351 72.8615 58.527C73.0837 58.2112 73.1433 57.86 73.0404 57.4735L72.9446 57.114L71.5995 57.4723C71.2517 57.5649 70.9929 57.7125 70.8233 57.915C70.6594 58.1077 70.6124 58.3354 70.6825 58.5983C70.7525 58.8611 70.8998 59.0412 71.1245 59.1387C71.347 59.2284 71.6091 59.2331 71.9106 59.1528ZM74.4211 54.3985L74.1122 53.2389L79.2143 51.8799L79.5232 53.0395L77.6331 53.543L78.8994 58.2972L77.5775 58.6493L76.3112 53.8951L74.4211 54.3985ZM81.4296 51.2899L81.9084 53.0872L83.0911 52.7722C83.7482 52.5971 84.3254 52.6504 84.8226 52.9319C85.3177 53.2057 85.6446 53.6402 85.8031 54.2354C85.9637 54.8384 85.8955 55.3906 85.5986 55.8919C85.3073 56.3834 84.8369 56.7157 84.1876 56.8886L81.6945 57.5527L80.1193 51.6389L81.4296 51.2899ZM83.2253 53.9286L82.2049 54.2004L82.7114 56.1021L83.7318 55.8303C84.0488 55.7459 84.2714 55.5872 84.3998 55.3543C84.5359 55.1194 84.5669 54.8628 84.4928 54.5845C84.4187 54.3062 84.2662 54.1067 84.0354 53.986C83.8123 53.8633 83.5422 53.8442 83.2253 53.9286ZM88.0692 49.5214L93.2177 48.15L94.7929 54.0638L93.4709 54.4159L92.2046 49.6617L89.6999 50.3288L90.9663 55.0831L89.6444 55.4352L88.0692 49.5214ZM97.6569 46.8186C98.3913 46.623 99.0828 46.7327 99.7315 47.1477C100.388 47.5607 100.845 48.2503 101.102 49.2166C101.36 50.1829 101.302 51.0095 100.931 51.6963C100.567 52.3811 100.014 52.8223 99.2714 53.02C98.8617 53.1291 98.4827 53.1514 98.1344 53.0869C97.7917 53.0126 97.516 52.879 97.3074 52.6862L98.0734 55.562L96.7514 55.9141L94.5863 47.7855L95.8618 47.4457L96.0657 48.211C96.2762 47.5092 96.8066 47.0451 97.6569 46.8186ZM98.7392 51.9075C99.203 51.7839 99.5277 51.5112 99.7134 51.0892C99.9047 50.6574 99.9231 50.1516 99.7687 49.5718C99.6163 48.9997 99.3498 48.574 98.969 48.2946C98.596 48.0131 98.1776 47.9341 97.7138 48.0577C97.2422 48.1833 96.9097 48.4581 96.7164 48.8822C96.5209 49.2985 96.5004 49.7966 96.6549 50.3764L96.6672 50.4227C96.8216 51.0025 97.0882 51.4283 97.4669 51.6999C97.8435 51.9639 98.2676 52.0331 98.7392 51.9075ZM101.997 46.5816C102.385 45.8654 103.013 45.392 103.878 45.1614C104.744 44.9308 105.52 45.0305 106.206 45.4605C106.899 45.8884 107.369 46.5623 107.614 47.4822C107.859 48.4022 107.787 49.2202 107.398 49.9364C107.017 50.6505 106.394 51.1229 105.528 51.3535C104.662 51.5841 103.882 51.4855 103.189 51.0576C102.503 50.6276 102.038 49.9526 101.793 49.0327C101.548 48.1128 101.616 47.2958 101.997 46.5816ZM103.926 49.9547C104.307 50.2341 104.737 50.31 105.216 50.1824C105.695 50.0547 106.027 49.776 106.21 49.3463C106.401 48.9145 106.421 48.4126 106.269 47.8405C106.116 47.2685 105.85 46.8427 105.469 46.5633C105.096 46.2818 104.67 46.2049 104.19 46.3326C103.711 46.4602 103.376 46.74 103.185 47.1718C103.001 47.6015 102.985 48.1024 103.138 48.6744C103.29 49.2465 103.553 49.6733 103.926 49.9547ZM113.931 46.2093L109.768 47.3181L109.775 47.3413C109.896 47.7974 110.144 48.1371 110.518 48.3603C110.892 48.5836 111.315 48.6324 111.786 48.5068C112.111 48.4203 112.36 48.2835 112.534 48.0965C112.713 47.8997 112.809 47.7168 112.822 47.5478L114.121 47.2019C114.148 47.6749 113.992 48.1469 113.654 48.6178C113.323 49.0867 112.791 49.4189 112.057 49.6145C111.175 49.8493 110.395 49.7632 109.715 49.3565C109.034 48.9419 108.566 48.2593 108.313 47.3084C108.06 46.3576 108.122 45.5338 108.499 44.8372C108.874 44.1329 109.483 43.6685 110.326 43.444C111.138 43.2278 111.858 43.3216 112.487 43.7253C113.116 44.1289 113.549 44.7753 113.786 45.6643L113.931 46.2093ZM110.608 44.5487C110.19 44.6599 109.883 44.8742 109.686 45.1916C109.497 45.5069 109.44 45.8823 109.514 46.3178L112.344 45.5642C112.213 45.1354 111.992 44.8341 111.681 44.6603C111.375 44.4768 111.018 44.4396 110.608 44.5487ZM116.967 48.1576L115.645 48.5097L114.07 42.5959L115.392 42.2438L116.047 44.7021L117.664 41.6384L119.23 41.2214L117.417 44.6723L120.84 47.126L119.24 47.5522L116.232 45.3978L116.967 48.1576ZM119.798 42.312L119.489 41.1524L124.591 39.7934L124.9 40.953L123.01 41.4565L124.276 46.2107L122.954 46.5628L121.688 41.8086L119.798 42.312Z" fill="#0F1414"/>
<defs>
<linearGradient id="paint0_linear_201_780" x1="82.2027" y1="12.5246" x2="96.4737" y2="66.1025" gradientUnits="userSpaceOnUse">
<stop stop-color="#F9F9F9"/>
<stop offset="1" stop-color="#F4F4F4"/>
</linearGradient>
</defs>
</svg>
