<svg width="180" height="102" viewBox="0 0 180 102" fill="none" xmlns="http://www.w3.org/2000/svg">
<path fill-rule="evenodd" clip-rule="evenodd" d="M32.931 32.1867C22.4757 35.7495 16.8882 47.1134 20.451 57.5687L28.6832 81.7266C32.246 92.182 43.6099 97.7695 54.0652 94.2067L89.5997 82.0978C89.8692 82.4419 90.2185 82.7322 90.637 82.938L98.6046 86.8555C100.091 87.5866 101.889 86.9739 102.62 85.4871L106.538 77.5194C106.744 77.1009 106.843 76.6578 106.846 76.2207L144.262 63.4709C154.717 59.9081 160.304 48.5442 156.742 38.0888L148.51 13.9309C144.947 3.47562 133.583 -2.11187 123.127 1.45093L32.931 32.1867Z" fill="url(#paint0_linear_163_820)"/>
<path d="M34.8919 55.2417L33.5403 55.7023L30.8153 47.7058L32.167 47.2452L33.2856 50.5278L37.0794 49.235L35.9608 45.9524L37.3125 45.4918L40.0374 53.4883L38.6857 53.9489L37.4974 50.4618L33.7037 51.7546L34.8919 55.2417ZM45.7363 48.7319L41.6585 50.1214L41.6663 50.1441C41.8185 50.5909 42.0889 50.9129 42.4772 51.1102C42.8656 51.3075 43.2908 51.3274 43.7527 51.17C44.0707 51.0616 44.3101 50.9082 44.4706 50.7098C44.6362 50.5013 44.7197 50.3122 44.7211 50.1427L45.9933 49.7092C46.0521 50.1794 45.9288 50.6609 45.6234 51.1537C45.3256 51.644 44.8171 52.0116 44.0977 52.2568C43.2344 52.551 42.45 52.5182 41.7442 52.1586C41.036 51.7915 40.5231 51.1422 40.2057 50.2108C39.8883 49.2794 39.8942 48.4533 40.2233 47.7327C40.5499 47.0044 41.1259 46.4996 41.9513 46.2184C42.7464 45.9474 43.4715 45.9919 44.1266 46.3519C44.7817 46.7118 45.2576 47.3272 45.5544 48.198L45.7363 48.7319ZM42.3076 47.3013C41.8987 47.4407 41.6068 47.6754 41.4319 48.0054C41.2646 48.3329 41.233 48.7113 41.337 49.1407L44.1085 48.1963C43.9489 47.7774 43.7079 47.4918 43.3856 47.3397C43.0683 47.1773 42.709 47.1646 42.3076 47.3013ZM48.156 46.0691C48.0282 45.4956 48.1348 44.9776 48.4758 44.5148C48.8243 44.0495 49.3166 43.7085 49.9527 43.4918C50.5736 43.2802 51.1364 43.2574 51.6409 43.4236C52.1455 43.5897 52.4829 43.9227 52.6532 44.4225C52.8597 45.0282 52.7227 45.544 52.2423 45.9697C52.5432 45.9348 52.8383 45.9948 53.1277 46.1497C53.4222 46.2945 53.6352 46.56 53.7668 46.9462C53.95 47.4838 53.875 47.9953 53.5417 48.4808C53.2161 48.9636 52.7011 49.325 51.9969 49.565C51.3154 49.7973 50.6958 49.8267 50.138 49.6533C49.5803 49.4799 49.1655 49.1184 48.8937 48.5687L50.1545 48.1391C50.3002 48.3683 50.5023 48.515 50.7608 48.579C51.0243 48.6329 51.315 48.6057 51.6331 48.4973C51.9662 48.3838 52.2081 48.2253 52.3585 48.0219C52.5064 47.8109 52.5377 47.5805 52.4525 47.3306C52.2926 46.8611 51.8529 46.749 51.1335 46.9941L50.2816 47.2844L49.9332 46.2621L50.717 45.995C51.0199 45.8918 51.2302 45.7525 51.3479 45.5772C51.4707 45.3917 51.4933 45.1854 51.4159 44.9582C51.3411 44.7386 51.1959 44.5979 50.9805 44.5361C50.7726 44.4717 50.5286 44.4872 50.2484 44.5827C49.9531 44.6833 49.7327 44.8303 49.5872 45.0235C49.4418 45.2168 49.3774 45.4246 49.3941 45.6472L48.156 46.0691ZM56.6516 47.8267L55.3567 48.268L53.3827 42.4751L54.6776 42.0338L55.4362 44.2601L57.9238 43.4125L57.1651 41.1862L58.46 40.7449L60.434 46.5378L59.1391 46.9791L58.3147 44.5597L55.8272 45.4073L56.6516 47.8267ZM63.8618 41.0847C63.7509 40.7591 63.5597 40.5453 63.2883 40.4434C63.022 40.3313 62.7184 40.3334 62.3776 40.4495C61.7643 40.6585 61.458 41.0122 61.4588 41.5106L60.232 41.9286C60.1526 41.3979 60.2656 40.8987 60.5712 40.4312C60.8817 39.9535 61.3777 39.5985 62.0592 39.3663C62.7786 39.1212 63.4135 39.1119 63.964 39.3384C64.5221 39.5624 64.9147 40.0075 65.1418 40.6739L66.4423 44.4904L65.2383 44.9007L65.0138 44.2419C64.7703 44.9165 64.2624 45.3854 63.4901 45.6486C62.9145 45.8447 62.3782 45.8457 61.8811 45.6517C61.3889 45.4475 61.0486 45.0691 60.8603 44.5163C60.6642 43.9408 60.7164 43.4243 61.0169 42.9669C61.3224 42.4994 61.8387 42.1418 62.5656 41.8941L63.9741 41.4141L63.8618 41.0847ZM63.4141 44.4954C63.8154 44.3587 64.1174 44.129 64.3202 43.8063C64.5204 43.4761 64.556 43.1217 64.427 42.7431L64.307 42.3909L62.9894 42.8399C62.6486 42.9561 62.4005 43.1209 62.2451 43.3344C62.0947 43.5378 62.0633 43.7683 62.151 44.0257C62.2388 44.2832 62.398 44.4529 62.6288 44.5348C62.857 44.6092 63.1187 44.5961 63.4141 44.4954ZM71.9543 39.7977L67.8766 41.1872L67.8843 41.21C68.0365 41.6567 68.3069 41.9787 68.6953 42.176C69.0836 42.3733 69.5088 42.3932 69.9707 42.2358C70.2888 42.1274 70.5281 41.974 70.6887 41.7756C70.8542 41.5671 70.9377 41.3781 70.9391 41.2085L72.2113 40.775C72.2701 41.2452 72.1468 41.7267 71.8414 42.2195C71.5437 42.7098 71.0351 43.0775 70.3157 43.3226C69.4524 43.6168 68.668 43.5841 67.9623 43.2245C67.254 42.8573 66.7411 42.208 66.4237 41.2766C66.1064 40.3452 66.1122 39.5192 66.4414 38.7985C66.7679 38.0702 67.3439 37.5655 68.1693 37.2842C68.9644 37.0133 69.6895 37.0578 70.3446 37.4177C70.9997 37.7776 71.4756 38.393 71.7724 39.2638L71.9543 39.7977ZM68.5256 38.3672C68.1167 38.5065 67.8248 38.7412 67.6499 39.0712C67.4826 39.3987 67.451 39.7771 67.555 40.2065L70.3266 39.2621C70.1669 38.8432 69.9259 38.5577 69.6036 38.4055C69.2863 38.2432 68.927 38.2304 68.5256 38.3672ZM76.3447 34.6505L77.9316 39.3075L79.8399 38.6572L78.2529 34.0002L79.5478 33.5589L81.5218 39.3518L73.8207 41.9761L71.8467 36.1832L73.1416 35.742L74.7285 40.399L76.6368 39.7487L75.0498 35.0917L76.3447 34.6505ZM82.1763 32.6633L82.7762 34.4238L83.9348 34.029C84.5785 33.8097 85.1579 33.8235 85.6731 34.0706C86.1857 34.31 86.5414 34.7213 86.7401 35.3044C86.9414 35.895 86.9109 36.4505 86.6488 36.9709C86.3916 37.4811 85.945 37.8446 85.3089 38.0614L82.8668 38.8935L80.8928 33.1006L82.1763 32.6633ZM84.1474 35.1737L83.1478 35.5143L83.7826 37.3771L84.7821 37.0365C85.0926 36.9307 85.304 36.7572 85.4162 36.5161C85.536 36.2725 85.5495 36.0143 85.4566 35.7417C85.3637 35.4691 85.198 35.2805 84.9595 35.1758C84.7285 35.0686 84.4578 35.0679 84.1474 35.1737ZM89.8188 35.7892C89.8807 35.971 89.9099 36.1808 89.9065 36.4186L89.8334 38.548L88.8452 38.8847L88.885 36.8808C88.4826 36.8658 88.2208 36.6803 88.0995 36.3244C88.0195 36.0896 88.0332 35.8695 88.1406 35.6638C88.2481 35.4582 88.4229 35.3141 88.6652 35.2315C88.9076 35.1489 89.1404 35.1626 89.3638 35.2724C89.5845 35.3746 89.7362 35.5469 89.8188 35.7892ZM94.4838 34.9349L93.1889 35.3761L91.2149 29.5832L92.5098 29.142L93.3304 31.55L94.7361 28.3833L96.2695 27.8608L94.6957 31.427L98.2776 33.6421L96.7101 34.1762L93.5626 32.2315L94.4838 34.9349ZM100.951 28.4461C100.84 28.1205 100.649 27.9067 100.377 27.8048C100.111 27.6927 99.8074 27.6948 99.4666 27.8109C98.8533 28.0199 98.547 28.3736 98.5478 28.872L97.3211 29.29C97.2416 28.7592 97.3547 28.2601 97.6602 27.7926C97.9707 27.3149 98.4667 26.9599 99.1482 26.7277C99.8676 26.4825 100.503 26.4732 101.053 26.6998C101.611 26.9238 102.004 27.3689 102.231 28.0353L103.531 31.8518L102.327 32.2621L102.103 31.6033C101.859 32.2779 101.351 32.7467 100.579 33.0099C100.004 33.2061 99.4672 33.2071 98.9701 33.0131C98.4779 32.8089 98.1377 32.4304 97.9493 31.8777C97.7532 31.3022 97.8054 30.7857 98.1059 30.3283C98.4115 29.8608 98.9277 29.5032 99.6546 29.2554L101.063 28.7755L100.951 28.4461ZM100.503 31.8568C100.904 31.7201 101.206 31.4904 101.409 31.1677C101.609 30.8375 101.645 30.4831 101.516 30.1044L101.396 29.7523L100.078 30.2013C99.7376 30.3174 99.4895 30.4823 99.3341 30.6958C99.1837 30.8992 99.1523 31.1296 99.2401 31.3871C99.3278 31.6446 99.487 31.8143 99.7178 31.8962C99.946 31.9706 100.208 31.9575 100.503 31.8568ZM106.12 30.9696L104.825 31.4108L102.851 25.618L104.146 25.1767L104.967 27.5847L106.372 24.4181L107.906 23.8955L106.332 27.4618L109.914 29.6768L108.346 30.211L105.199 28.2662L106.12 30.9696ZM39.4176 65.2487C39.7962 65.1197 40.0555 64.9257 40.1955 64.6667C40.343 64.4052 40.4057 64.1303 40.3835 63.842L41.6443 63.4124C41.7774 64.0262 41.6827 64.6163 41.3601 65.1827C41.0376 65.749 40.5166 66.1547 39.7972 66.3998C38.9567 66.6863 38.1834 66.637 37.4776 66.2521C36.7691 65.8597 36.2626 65.2167 35.9582 64.3231C35.6563 63.4372 35.6622 62.6238 35.976 61.8829C36.2974 61.1395 36.8822 60.6233 37.7303 60.3343C38.4648 60.084 39.1264 60.091 39.7151 60.3552C40.3012 60.6119 40.7289 61.0113 40.9982 61.5534L39.7374 61.9831C39.5663 61.754 39.3438 61.5847 39.0699 61.4752C38.8009 61.3556 38.4847 61.3577 38.1212 61.4816C37.6669 61.6364 37.3627 61.9344 37.2088 62.3756C37.0625 62.8143 37.0848 63.3138 37.2758 63.8741C37.4693 64.4421 37.7617 64.8537 38.153 65.1092C38.5417 65.357 38.9633 65.4036 39.4176 65.2487ZM41.3073 59.2675L46.3505 57.549L48.3246 63.3419L47.0297 63.7831L45.4427 59.1261L42.9893 59.9621L44.5762 64.6192L43.2813 65.0604L41.3073 59.2675ZM50.6889 55.9185C51.4083 55.6734 52.1057 55.7358 52.7811 56.1057C53.4641 56.473 53.9668 57.1299 54.2894 58.0765C54.6119 59.023 54.6111 59.8516 54.287 60.5621C53.9704 61.2701 53.4487 61.7479 52.7217 61.9956C52.3204 62.1324 51.9437 62.1804 51.5918 62.1398C51.2449 62.089 50.9608 61.9745 50.7395 61.7963L51.6994 64.6133L50.4045 65.0545L47.6912 57.0921L48.9407 56.6664L49.1961 57.416C49.3583 56.7015 49.8559 56.2023 50.6889 55.9185ZM52.115 60.9219C52.5693 60.7671 52.8747 60.4729 53.0312 60.0392C53.1927 59.5954 53.1767 59.0895 52.9831 58.5216C52.7922 57.9613 52.4973 57.5547 52.0984 57.3018C51.7071 57.0464 51.2843 56.9961 50.8299 57.1509C50.368 57.3083 50.055 57.6051 49.891 58.0413C49.7243 58.47 49.7378 58.9683 49.9313 59.5362L49.9468 59.5817C50.1403 60.1496 50.4352 60.5562 50.8315 60.8015C51.2252 61.0392 51.653 61.0793 52.115 60.9219ZM58.37 55.6337C58.2591 55.3081 58.0679 55.0943 57.7965 54.9924C57.5301 54.8804 57.2266 54.8824 56.8858 54.9985C56.2724 55.2075 55.9662 55.5612 55.967 56.0596L54.7402 56.4776C54.6608 55.9469 54.7738 55.4477 55.0794 54.9802C55.3899 54.5025 55.8859 54.1475 56.5674 53.9153C57.2868 53.6702 57.9217 53.6609 58.4722 53.8874C59.0303 54.1114 59.4229 54.5566 59.6499 55.2229L60.9505 59.0394L59.7464 59.4497L59.522 58.7909C59.2785 59.4655 58.7706 59.9344 57.9982 60.1976C57.4227 60.3937 56.8864 60.3947 56.3893 60.2007C55.8971 59.9965 55.5568 59.6181 55.3685 59.0653C55.1723 58.4898 55.2246 57.9733 55.5251 57.516C55.8306 57.0484 56.3469 56.6908 57.0738 56.4431L58.4823 55.9631L58.37 55.6337ZM57.9222 59.0445C58.3236 58.9077 58.6256 58.678 58.8284 58.3553C59.0286 58.0251 59.0642 57.6707 58.9351 57.2921L58.8152 56.94L57.4976 57.3889C57.1568 57.5051 56.9087 57.6699 56.7533 57.8834C56.6028 58.0868 56.5715 58.3173 56.6592 58.5747C56.747 58.8322 56.9062 59.0019 57.137 59.0838C57.3652 59.1582 57.6269 59.1451 57.9222 59.0445ZM62.2445 58.5985L60.2704 52.8056L62.8716 51.9192C63.4925 51.7076 64.0135 51.6864 64.4346 51.8556C64.8557 52.0249 65.1411 52.3291 65.2907 52.7683C65.3991 53.0863 65.4099 53.3784 65.3232 53.6447C65.2414 53.9007 65.1024 54.1129 64.9062 54.2812C65.2299 54.2638 65.5315 54.3428 65.8109 54.518C66.098 54.6907 66.3047 54.9625 66.4311 55.3336C66.5963 55.8182 66.55 56.2777 66.2923 56.712C66.0396 57.1362 65.5953 57.4566 64.9592 57.6734L62.2445 58.5985ZM63.9564 55.2514L62.6728 55.6888L63.176 57.1654L64.4595 56.728C64.7473 56.63 64.945 56.4908 65.0525 56.3104C65.1651 56.1199 65.1814 55.9073 65.1014 55.6726C64.9363 55.1879 64.5546 55.0476 63.9564 55.2514ZM63.0532 52.973L61.8832 53.3716L62.34 54.7119L63.5099 54.3133C63.7598 54.2281 63.9322 54.1017 64.0273 53.9341C64.1298 53.7639 64.145 53.5728 64.0728 53.3608C63.9231 52.9216 63.5832 52.7923 63.0532 52.973ZM71.1786 49.0885L73.1526 54.8814L71.8805 55.3149L70.5683 51.4643L69.2566 56.209L68.0072 56.6347L66.0332 50.8418L67.3053 50.4083L68.6213 54.2703L69.9292 49.5142L71.1786 49.0885ZM72.4496 49.9231L72.0626 48.7872L77.0604 47.0842L77.4474 48.22L75.596 48.8509L77.1829 53.508L75.888 53.9492L74.3011 49.2922L72.4496 49.9231ZM79.2304 46.3447L79.8303 48.1053L80.9889 47.7105C81.6326 47.4912 82.212 47.505 82.7272 47.752C83.2398 47.9915 83.5955 48.4027 83.7942 48.9858C83.9955 49.5764 83.965 50.132 83.7029 50.6523C83.4457 51.1626 82.9991 51.526 82.363 51.7428L79.9209 52.575L77.9469 46.7821L79.2304 46.3447ZM81.2015 48.8551L80.2019 49.1957L80.8367 51.0585L81.8362 50.7179C82.1467 50.6121 82.3581 50.4387 82.4703 50.1976C82.5901 49.9539 82.6036 49.6958 82.5107 49.4232C82.4178 49.1506 82.2521 48.9619 82.0136 48.8573C81.7826 48.75 81.5119 48.7493 81.2015 48.8551ZM87.6048 48.8283C87.9834 48.6992 88.2427 48.5052 88.3827 48.2463C88.5302 47.9847 88.5929 47.7098 88.5707 47.4215L89.8315 46.9919C89.9646 47.6058 89.8699 48.1959 89.5473 48.7622C89.2247 49.3285 88.7038 49.7342 87.9844 49.9794C87.1438 50.2658 86.3706 50.2165 85.6648 49.8317C84.9563 49.4392 84.4498 48.7962 84.1453 47.9026C83.8434 47.0167 83.8494 46.2033 84.1632 45.4625C84.4846 44.7191 85.0694 44.2029 85.9175 43.9138C86.652 43.6635 87.3136 43.6705 87.9023 43.9348C88.4884 44.1914 88.9161 44.5908 89.1854 45.1329L87.9245 45.5626C87.7535 45.3335 87.531 45.1642 87.2571 45.0547C86.9881 44.9351 86.6719 44.9372 86.3084 45.0611C85.8541 45.2159 85.5499 45.5139 85.396 45.9551C85.2497 46.3938 85.272 46.8933 85.4629 47.4537C85.6565 48.0216 85.9489 48.4333 86.3402 48.6887C86.7289 48.9366 87.1505 48.9831 87.6048 48.8283ZM95.8643 47.142L94.5808 47.5794L93.9421 45.7052L93.0675 46.0033L92.3772 48.3303L90.9233 48.8257L91.6841 46.2592C91.274 46.2214 90.9138 46.0822 90.6036 45.8414C90.2983 45.5904 90.0786 45.268 89.9444 44.8743C89.7509 44.3064 89.7777 43.7774 90.0249 43.2875C90.2771 42.7874 90.7402 42.4226 91.4141 42.1929L93.8903 41.3491L95.8643 47.142ZM91.2799 43.6966C91.155 43.9251 91.1389 44.1757 91.2318 44.4483C91.3247 44.7209 91.4904 44.9095 91.7289 45.0142C91.9674 45.1188 92.2419 45.1183 92.5524 45.0125L93.586 44.6602L92.9667 42.8429L91.9331 43.1951C91.6226 43.3009 91.4049 43.468 91.2799 43.6966ZM101.599 44.0597C101.977 43.9307 102.236 43.7367 102.376 43.4777C102.524 43.2161 102.587 42.9412 102.564 42.653L103.825 42.2233C103.958 42.8372 103.864 43.4273 103.541 43.9936C103.218 44.5599 102.697 44.9656 101.978 45.2108C101.138 45.4972 100.364 45.448 99.6585 45.0631C98.95 44.6706 98.4436 44.0276 98.1391 43.1341C97.8372 42.2481 97.8431 41.4347 98.157 40.6939C98.4783 39.9505 99.0631 39.4343 99.9112 39.1453C100.646 38.895 101.307 38.902 101.896 39.1662C102.482 39.4229 102.91 39.8223 103.179 40.3644L101.918 40.794C101.747 40.5649 101.525 40.3957 101.251 40.2862C100.982 40.1665 100.666 40.1686 100.302 40.2925C99.8478 40.4473 99.5437 40.7454 99.3898 41.1866C99.2434 41.6252 99.2657 42.1247 99.4567 42.6851C99.6502 43.253 99.9426 43.6647 100.334 43.9201C100.723 44.168 101.144 44.2145 101.599 44.0597ZM39.1712 72.6731L44.2144 70.9545L46.1884 76.7474L44.8935 77.1886L43.3066 72.5316L40.8531 73.3677L42.4401 78.0247L41.1452 78.466L39.1712 72.6731ZM51.7471 72.0388L47.6694 73.4283L47.6771 73.451C47.8294 73.8978 48.0997 74.2198 48.4881 74.4171C48.8764 74.6144 49.3016 74.6343 49.7635 74.4769C50.0816 74.3685 50.3209 74.2151 50.4815 74.0167C50.647 73.8082 50.7305 73.6191 50.7319 73.4496L52.0041 73.0161C52.0629 73.4863 51.9396 73.9678 51.6342 74.4606C51.3365 74.9509 50.8279 75.3186 50.1085 75.5637C49.2452 75.8579 48.4608 75.8252 47.7551 75.4656C47.0468 75.0984 46.5339 74.4491 46.2165 73.5177C45.8992 72.5863 45.905 71.7602 46.2342 71.0396C46.5607 70.3113 47.1367 69.8066 47.9621 69.5253C48.7572 69.2543 49.4823 69.2988 50.1374 69.6588C50.7925 70.0187 51.2684 70.6341 51.5652 71.5049L51.7471 72.0388ZM48.3184 70.6082C47.9095 70.7476 47.6176 70.9823 47.4427 71.3123C47.2754 71.6398 47.2438 72.0182 47.3479 72.4476L50.1194 71.5032C49.9597 71.0843 49.7187 70.7987 49.3964 70.6466C49.0791 70.4842 48.7198 70.4715 48.3184 70.6082ZM54.6371 67.2507C55.3565 67.0055 56.0539 67.0679 56.7293 67.4378C57.4123 67.8052 57.9151 68.4621 58.2376 69.4087C58.5602 70.3552 58.5594 71.1838 58.2353 71.8943C57.9187 72.6022 57.3969 73.0801 56.67 73.3278C56.2686 73.4645 55.892 73.5126 55.5401 73.4719C55.1931 73.4211 54.909 73.3066 54.6877 73.1285L55.6477 75.9454L54.3528 76.3867L51.6395 68.4243L52.8889 67.9985L53.1444 68.7482C53.3066 68.0337 53.8042 67.5345 54.6371 67.2507ZM56.0632 72.2541C56.5176 72.0993 56.823 71.805 56.9795 71.3714C57.141 70.9276 57.1249 70.4217 56.9314 69.8538C56.7405 69.2934 56.4455 68.8868 56.0467 68.634C55.6554 68.3785 55.2325 68.3282 54.7782 68.483C54.3163 68.6404 54.0033 68.9373 53.8392 69.3735C53.6726 69.8022 53.686 70.3005 53.8795 70.8684L53.895 70.9138C54.0886 71.4818 54.3835 71.8884 54.7798 72.1336C55.1735 72.3714 55.6013 72.4115 56.0632 72.2541ZM60.2303 71.9624L58.2563 66.1695L60.8574 65.2831C61.4784 65.0715 61.9994 65.0504 62.4205 65.2196C62.8416 65.3888 63.1269 65.693 63.2766 66.1322C63.385 66.4503 63.3958 66.7424 63.309 67.0086C63.2272 67.2647 63.0883 67.4768 62.892 67.6451C63.2158 67.6278 63.5173 67.7067 63.7968 67.8819C64.0838 68.0546 64.2906 68.3264 64.417 68.6975C64.5821 69.1821 64.5359 69.6416 64.2782 70.0759C64.0255 70.5001 63.5811 70.8206 62.945 71.0373L60.2303 71.9624ZM61.9422 68.6153L60.6587 69.0527L61.1619 70.5293L62.4454 70.092C62.7332 69.9939 62.9308 69.8547 63.0384 69.6744C63.151 69.4839 63.1673 69.2713 63.0873 69.0365C62.9221 68.5519 62.5404 68.4115 61.9422 68.6153ZM61.039 66.3369L59.8691 66.7356L60.3258 68.0759L61.4958 67.6772C61.7457 67.5921 61.9181 67.4657 62.0131 67.2981C62.1157 67.1279 62.1309 66.9368 62.0586 66.7247C61.909 66.2855 61.5691 66.1563 61.039 66.3369ZM65.3026 63.7684L65.9025 65.529L67.0611 65.1342C67.7047 64.9148 68.2842 64.9287 68.7994 65.1757C69.312 65.4152 69.6677 65.8264 69.8664 66.4095C70.0677 67.0001 70.0372 67.5557 69.775 68.076C69.5179 68.5863 69.0712 68.9497 68.4352 69.1665L65.9931 69.9987L64.019 64.2058L65.3026 63.7684ZM70.607 61.9608L72.5811 67.7537L71.2975 68.1911L69.3235 62.3982L70.607 61.9608ZM67.2737 66.2788L66.2741 66.6194L66.9089 68.4822L67.9084 68.1416C68.2189 68.0358 68.4303 67.8624 68.5425 67.6213C68.6623 67.3776 68.6758 67.1195 68.5829 66.8469C68.49 66.5743 68.3243 66.3856 68.0858 66.281C67.8548 66.1737 67.5841 66.173 67.2737 66.2788ZM71.9448 61.505L73.5804 60.9476L76.8527 64.5232L77.2606 59.6935L78.8735 59.1439L80.8476 64.9368L79.5981 65.3626L78.2473 61.3984L77.8525 65.932L76.8984 66.2572L73.8213 62.9193L75.1683 66.8721L73.9188 67.2979L71.9448 61.505ZM85.3599 56.9336L87.3339 62.7265L86.0617 63.16L84.7496 59.3094L83.4379 64.0541L82.1884 64.4799L80.2144 58.687L81.4866 58.2535L82.8026 62.1154L84.1104 57.3594L85.3599 56.9336ZM89.2255 57.4292C89.0977 56.8558 89.2043 56.3377 89.5452 55.875C89.8938 55.4097 90.3861 55.0687 91.0222 54.8519C91.6431 54.6403 92.2059 54.6176 92.7104 54.7837C93.215 54.9499 93.5524 55.2828 93.7227 55.7826C93.9291 56.3884 93.7922 56.9042 93.3118 57.3299C93.6126 57.295 93.9078 57.355 94.1972 57.5099C94.4916 57.6547 94.7047 57.9201 94.8363 58.3063C95.0195 58.844 94.9445 59.3555 94.6112 59.8409C94.2856 60.3238 93.7706 60.6852 93.0664 60.9252C92.3849 61.1574 91.7652 61.1869 91.2075 61.0135C90.6498 60.8401 90.235 60.4786 89.9632 59.9289L91.224 59.4992C91.3697 59.7285 91.5718 59.8751 91.8303 59.9392C92.0937 59.9931 92.3845 59.9658 92.7025 59.8575C93.0357 59.7439 93.2775 59.5855 93.428 59.3821C93.5758 59.1711 93.6072 58.9407 93.522 58.6908C93.362 58.2213 92.9224 58.1091 92.203 58.3543L91.3511 58.6446L91.0027 57.6223L91.7865 57.3552C92.0894 57.252 92.2997 57.1127 92.4174 56.9374C92.5401 56.7519 92.5628 56.5455 92.4854 56.3184C92.4106 56.0988 92.2654 55.9581 92.05 55.8962C91.8421 55.8319 91.598 55.8474 91.3179 55.9429C91.0225 56.0435 90.8022 56.1904 90.6567 56.3837C90.5113 56.5769 90.4469 56.7848 90.4636 57.0073L89.2255 57.4292ZM98.5141 54.6316C98.4032 54.306 98.212 54.0922 97.9406 53.9903C97.6743 53.8783 97.3707 53.8803 97.0299 53.9964C96.4166 54.2054 96.1103 54.5591 96.1111 55.0575L94.8843 55.4755C94.8049 54.9448 94.9179 54.4456 95.2235 53.9781C95.534 53.5004 96.03 53.1454 96.7115 52.9132C97.4309 52.6681 98.0658 52.6588 98.6163 52.8853C99.1744 53.1093 99.567 53.5545 99.7941 54.2208L101.095 58.0373L99.8906 58.4476L99.6661 57.7888C99.4226 58.4634 98.9147 58.9323 98.1423 59.1955C97.5668 59.3916 97.0305 59.3926 96.5334 59.1986C96.0412 58.9945 95.7009 58.616 95.5126 58.0632C95.3165 57.4877 95.3687 56.9712 95.6692 56.5139C95.9747 56.0463 96.491 55.6887 97.2179 55.441L98.6264 54.961L98.5141 54.6316ZM98.0663 58.0424C98.4677 57.9056 98.7697 57.6759 98.9725 57.3532C99.1727 57.023 99.2083 56.6686 99.0793 56.29L98.9593 55.9379L97.6417 56.3869C97.3009 56.503 97.0528 56.6678 96.8974 56.8814C96.7469 57.0847 96.7156 57.3152 96.8033 57.5726C96.8911 57.8301 97.0503 57.9998 97.2811 58.0817C97.5093 58.1561 97.771 58.143 98.0663 58.0424ZM107.976 54.4246L108.859 57.0143L107.609 57.4401L107.114 55.9862L103.025 57.3796L103.52 58.8335L102.271 59.2593L101.388 56.6695L101.854 56.5108C102.13 56.2054 102.141 55.5299 101.886 54.4842L101.13 51.5596L105.549 50.054L107.136 54.711L107.976 54.4246ZM103.128 54.1116C103.364 55.0284 103.402 55.6707 103.24 56.0386L105.841 55.1522L104.641 51.6311L102.664 52.3046L103.128 54.1116ZM111.326 50.2657C111.215 49.9401 111.024 49.7263 110.753 49.6244C110.486 49.5123 110.183 49.5144 109.842 49.6305C109.229 49.8395 108.922 50.1932 108.923 50.6916L107.697 51.1096C107.617 50.5788 107.73 50.0797 108.036 49.6122C108.346 49.1345 108.842 48.7795 109.524 48.5473C110.243 48.3021 110.878 48.2928 111.429 48.5194C111.987 48.7434 112.379 49.1885 112.606 49.8549L113.907 53.6714L112.703 54.0817L112.478 53.4229C112.235 54.0974 111.727 54.5663 110.955 54.8295C110.379 55.0256 109.843 55.0267 109.346 54.8327C108.853 54.6285 108.513 54.25 108.325 53.6973C108.129 53.1218 108.181 52.6053 108.481 52.1479C108.787 51.6804 109.303 51.3228 110.03 51.075L111.439 50.5951L111.326 50.2657ZM110.879 53.6764C111.28 53.5397 111.582 53.31 111.785 52.9873C111.985 52.6571 112.02 52.3027 111.891 51.924L111.771 51.5719L110.454 52.0209C110.113 52.137 109.865 52.3019 109.71 52.5154C109.559 52.7188 109.528 52.9492 109.616 53.2067C109.703 53.4642 109.862 53.6339 110.093 53.7158C110.321 53.7902 110.583 53.7771 110.879 53.6764ZM116.589 46.2918L117.884 45.8506L119.858 51.6435L118.563 52.0847L117.785 49.8017C117.511 50.1147 117.113 50.3602 116.591 50.5382C115.917 50.7679 115.304 50.7568 114.754 50.505C114.203 50.2531 113.797 49.7448 113.537 48.98L113.034 47.5033L114.329 47.0621L114.801 48.4478C115.092 49.3035 115.658 49.5882 116.499 49.3017C116.878 49.1727 117.185 48.9835 117.421 48.7339L116.589 46.2918ZM123.284 46.1908C123.173 45.8652 122.982 45.6514 122.711 45.5495C122.444 45.4374 122.141 45.4395 121.8 45.5556C121.187 45.7646 120.881 46.1183 120.881 46.6167L119.655 47.0347C119.575 46.504 119.688 46.0048 119.994 45.5373C120.304 45.0596 120.8 44.7046 121.482 44.4724C122.201 44.2273 122.836 44.218 123.387 44.4445C123.945 44.6685 124.337 45.1136 124.564 45.78L125.865 49.5965L124.661 50.0068L124.436 49.348C124.193 50.0226 123.685 50.4915 122.913 50.7547C122.337 50.9508 121.801 50.9518 121.304 50.7578C120.811 50.5536 120.471 50.1752 120.283 49.6224C120.087 49.0469 120.139 48.5304 120.439 48.073C120.745 47.6055 121.261 47.2479 121.988 47.0002L123.397 46.5202L123.284 46.1908ZM122.837 49.6015C123.238 49.4648 123.54 49.2351 123.743 48.9124C123.943 48.5822 123.979 48.2278 123.849 47.8492L123.729 47.497L122.412 47.946C122.071 48.0622 121.823 48.227 121.668 48.4405C121.517 48.6439 121.486 48.8744 121.574 49.1318C121.661 49.3893 121.821 49.559 122.051 49.6409C122.279 49.7153 122.541 49.7022 122.837 49.6015ZM125.185 43.3627L126.82 42.8053L130.093 46.3809L130.501 41.5512L132.114 41.0016L134.088 46.7945L132.838 47.2203L131.487 43.2561L131.093 47.7897L130.138 48.1149L127.061 44.777L128.408 48.7298L127.159 49.1556L125.185 43.3627ZM138.6 38.7913L140.574 44.5842L139.302 45.0177L137.99 41.1671L136.678 45.9118L135.428 46.3376L133.454 40.5447L134.727 40.1112L136.043 43.9731L137.35 39.2171L138.6 38.7913ZM143.364 37.0032C143.26 36.7003 143.063 36.4929 142.771 36.381C142.487 36.2665 142.163 36.2712 141.8 36.3951C141.058 36.6479 140.715 37.1537 140.77 37.9123L139.509 38.3419C139.366 37.6724 139.462 37.0482 139.797 36.4691C140.132 35.8901 140.674 35.4728 141.424 35.2174C142.189 34.9568 142.863 34.951 143.446 35.2001C144.038 35.4466 144.438 35.8765 144.647 36.4899C144.724 36.7171 144.766 36.9394 144.772 37.157C144.779 37.3745 144.771 37.5504 144.749 37.6846C144.735 37.8162 144.673 37.9811 144.563 38.1792C144.458 38.3671 144.383 38.4941 144.338 38.5601C144.29 38.6186 144.194 38.7445 144.048 38.9378C144.031 38.9606 143.993 39.0115 143.935 39.0903C143.878 39.1691 143.84 39.22 143.822 39.2429C143.805 39.2657 143.771 39.3153 143.721 39.3915C143.676 39.4576 143.646 39.5059 143.631 39.5363C143.621 39.5566 143.602 39.601 143.575 39.6695C143.545 39.7304 143.528 39.7786 143.523 39.8141C143.518 39.8495 143.509 39.8989 143.497 39.9622C143.485 40.0256 143.48 40.0863 143.483 40.1445C143.491 40.1925 143.502 40.2481 143.515 40.3113C143.528 40.3744 143.546 40.4401 143.569 40.5082L143.647 40.7354L142.42 41.1534L142.304 40.8127C142.193 40.487 142.15 40.1888 142.176 39.9179C142.207 39.6369 142.27 39.4126 142.365 39.245C142.458 39.0698 142.616 38.8385 142.839 38.5512C143.007 38.3249 143.127 38.1571 143.2 38.0478C143.277 37.9284 143.338 37.7724 143.383 37.5799C143.434 37.3847 143.428 37.1925 143.364 37.0032ZM142.879 42.3533C142.992 42.1375 143.165 41.9896 143.4 41.9096C143.635 41.8296 143.859 41.8421 144.072 41.9469C144.293 42.0491 144.443 42.2176 144.523 42.4524C144.603 42.6871 144.588 42.9162 144.478 43.1395C144.374 43.3528 144.204 43.4994 143.969 43.5794C143.734 43.6593 143.507 43.6482 143.286 43.546C143.07 43.4336 142.922 43.26 142.842 43.0252C142.762 42.7905 142.775 42.5665 142.879 42.3533Z" fill="#0F1414"/>
<defs>
<linearGradient id="paint0_linear_163_820" x1="76.1397" y1="3.0254" x2="99.7972" y2="72.4503" gradientUnits="userSpaceOnUse">
<stop stop-color="#F9F9F9"/>
<stop offset="1" stop-color="#F4F4F4"/>
</linearGradient>
</defs>
</svg>
