<svg width="180" height="100" viewBox="0 0 180 100" fill="none" xmlns="http://www.w3.org/2000/svg">
<path fill-rule="evenodd" clip-rule="evenodd" d="M36.931 30.6183C26.4757 34.1811 20.8882 45.5451 24.451 56.0004L32.6832 80.1583C36.246 90.6136 47.6099 96.2011 58.0653 92.6383L115.827 72.9551L122.605 76.2874C124.091 77.0185 125.889 76.4058 126.62 74.9189L129.953 68.1416L140.723 64.4715C151.178 60.9087 156.766 49.5447 153.203 39.0894L144.971 14.9315C141.408 4.4762 130.044 -1.11129 119.589 2.45151L36.931 30.6183Z" fill="url(#paint0_linear_163_800)"/>
<path d="M33.8153 46.1374L40.2784 43.935L43.0033 51.9315L41.6516 52.3921L39.3409 45.611L35.5812 46.8922L37.8919 53.6733L36.5403 54.1339L33.8153 46.1374ZM48.703 47.1748L44.6253 48.5644L44.633 48.5871C44.7853 49.0339 45.0556 49.3559 45.444 49.5532C45.8323 49.7504 46.2575 49.7704 46.7194 49.613C47.0375 49.5046 47.2768 49.3512 47.4374 49.1528C47.6029 48.9442 47.6864 48.7552 47.6878 48.5857L48.96 48.1522C49.0188 48.6223 48.8955 49.1038 48.5902 49.5967C48.2924 50.0869 47.7838 50.4546 47.0644 50.6998C46.2012 50.9939 45.4167 50.9612 44.711 50.6016C44.0027 50.2345 43.4898 49.5852 43.1725 48.6538C42.8551 47.7224 42.8609 46.8963 43.1901 46.1756C43.5166 45.4474 44.0926 44.9426 44.918 44.6614C45.7131 44.3904 46.4382 44.4349 47.0933 44.7948C47.7484 45.1548 48.2244 45.7701 48.5211 46.641L48.703 47.1748ZM45.2743 45.7443C44.8654 45.8836 44.5735 46.1183 44.3986 46.4484C44.2313 46.7759 44.1997 47.1543 44.3038 47.5837L47.0753 46.6392C46.9156 46.2203 46.6746 45.9348 46.3523 45.7826C46.035 45.6203 45.6757 45.6075 45.2743 45.7443ZM51.593 42.3867C52.3124 42.1416 53.0098 42.204 53.6852 42.5739C54.3682 42.9412 54.871 43.5982 55.1936 44.5447C55.5161 45.4913 55.5153 46.3198 55.1912 47.0304C54.8746 47.7383 54.3528 48.2161 53.6259 48.4639C53.2245 48.6006 52.8479 48.6487 52.496 48.608C52.1491 48.5572 51.8649 48.4427 51.6437 48.2646L52.6036 51.0815L51.3087 51.5228L48.5954 43.5604L49.8448 43.1346L50.1003 43.8843C50.2625 43.1698 50.7601 42.6706 51.593 42.3867ZM53.0191 47.3902C53.4735 47.2353 53.7789 46.9411 53.9354 46.5075C54.0969 46.0637 54.0808 45.5578 53.8873 44.9898C53.6964 44.4295 53.4014 44.0229 53.0026 43.77C52.6113 43.5146 52.1884 43.4643 51.7341 43.6191C51.2722 43.7765 50.9592 44.0733 50.7951 44.5096C50.6285 44.9382 50.6419 45.4365 50.8355 46.0045L50.8509 46.0499C51.0445 46.6178 51.3394 47.0244 51.7357 47.2697C52.1294 47.5074 52.5572 47.5476 53.0191 47.3902ZM61.4043 42.8467L57.3265 44.2362L57.3343 44.259C57.4865 44.7057 57.7568 45.0278 58.1452 45.225C58.5336 45.4223 58.9588 45.4422 59.4207 45.2848C59.7387 45.1764 59.978 45.0231 60.1386 44.8247C60.3042 44.6161 60.3877 44.4271 60.3891 44.2576L61.6612 43.824C61.72 44.2942 61.5968 44.7757 61.2914 45.2685C60.9936 45.7588 60.485 46.1265 59.7657 46.3716C58.9024 46.6658 58.1179 46.6331 57.4122 46.2735C56.7039 45.9063 56.1911 45.257 55.8737 44.3256C55.5563 43.3942 55.5622 42.5682 55.8913 41.8475C56.2179 41.1192 56.7938 40.6145 57.6192 40.3332C58.4143 40.0623 59.1395 40.1068 59.7946 40.4667C60.4497 40.8266 60.9256 41.442 61.2223 42.3128L61.4043 42.8467ZM57.9756 41.4162C57.5667 41.5555 57.2748 41.7902 57.0999 42.1203C56.9326 42.4477 56.9009 42.8262 57.005 43.2555L59.7765 42.3111C59.6169 41.8922 59.3759 41.6067 59.0536 41.4545C58.7363 41.2922 58.3769 41.2794 57.9756 41.4162ZM65.321 37.8609L66.1571 40.3143L67.3429 37.1719L68.8309 36.6648L67.5108 40.1573L70.839 42.4461L69.3169 42.9648L66.3661 40.9277L67.2951 43.6538L66.0229 44.0873L65.0939 41.3612L64.0011 44.7762L62.4904 45.291L63.7286 41.4841L60.5391 39.4904L62.027 38.9833L64.8849 40.7478L64.0489 38.2944L65.321 37.8609ZM74.7117 34.6609L76.6857 40.4538L75.4135 40.8873L74.1014 37.0367L72.7897 41.7814L71.5403 42.2071L69.5662 36.4142L70.8384 35.9807L72.1544 39.8427L73.4622 35.0866L74.7117 34.6609ZM78.024 39.9977L76.05 34.2048L78.6511 33.3184C79.272 33.1068 79.7931 33.0857 80.2141 33.2549C80.6352 33.4241 80.9206 33.7283 81.0703 34.1675C81.1786 34.4856 81.1895 34.7777 81.1027 35.0439C81.0209 35.3 80.8819 35.5121 80.6857 35.6804C81.0094 35.6631 81.311 35.742 81.5905 35.9173C81.8775 36.0899 82.0842 36.3617 82.2107 36.7328C82.3758 37.2174 82.3295 37.6769 82.0719 38.1112C81.8192 38.5354 81.3748 38.8559 80.7387 39.0726L78.024 39.9977ZM79.7359 36.6506L78.4524 37.088L78.9555 38.5646L80.2391 38.1273C80.5268 38.0292 80.7245 37.89 80.8321 37.7097C80.9446 37.5192 80.9609 37.3066 80.8809 37.0718C80.7158 36.5872 80.3341 36.4468 79.7359 36.6506ZM78.8327 34.3722L77.6628 34.7709L78.1195 36.1112L79.2894 35.7125C79.5393 35.6274 79.7118 35.501 79.8068 35.3334C79.9094 35.1632 79.9245 34.9721 79.8523 34.76C79.7026 34.3208 79.3628 34.1916 78.8327 34.3722ZM85.8747 33.0375C85.7637 32.7118 85.5726 32.4981 85.3012 32.3962C85.0348 32.2841 84.7312 32.2861 84.3905 32.4022C83.7771 32.6113 83.4708 32.9649 83.4716 33.4633L82.2449 33.8814C82.1654 33.3506 82.2785 32.8515 82.584 32.3839C82.8945 31.9062 83.3905 31.5513 84.0721 31.319C84.7914 31.0739 85.4264 31.0646 85.9769 31.2912C86.5349 31.5151 86.9275 31.9603 87.1546 32.6267L88.4551 36.4432L87.2511 36.8534L87.0266 36.1946C86.7832 36.8692 86.2753 37.3381 85.5029 37.6013C84.9274 37.7974 84.391 37.7985 83.8939 37.6045C83.4017 37.4003 83.0615 37.0218 82.8731 36.469C82.677 35.8935 82.7292 35.3771 83.0297 34.9197C83.3353 34.4522 83.8515 34.0945 84.5785 33.8468L85.9869 33.3669L85.8747 33.0375ZM85.4269 36.4482C85.8282 36.3114 86.1303 36.0817 86.333 35.7591C86.5332 35.4289 86.5688 35.0744 86.4398 34.6958L86.3198 34.3437L85.0022 34.7927C84.6614 34.9088 84.4133 35.0736 84.2579 35.2872C84.1075 35.4906 84.0761 35.721 84.1639 35.9785C84.2516 36.2359 84.4108 36.4056 84.6416 36.4876C84.8698 36.562 85.1316 36.5488 85.4269 36.4482ZM93.9671 31.7504L89.8894 33.14L89.8971 33.1627C90.0494 33.6095 90.3197 33.9315 90.7081 34.1288C91.0965 34.326 91.5216 34.346 91.9835 34.1886C92.3016 34.0802 92.5409 33.9268 92.7015 33.7284C92.8671 33.5198 92.9506 33.3308 92.9519 33.1613L94.2241 32.7278C94.2829 33.1979 94.1596 33.6794 93.8543 34.1723C93.5565 34.6625 93.0479 35.0302 92.3285 35.2754C91.4653 35.5695 90.6808 35.5368 89.9751 35.1772C89.2668 34.8101 88.754 34.1608 88.4366 33.2294C88.1192 32.298 88.1251 31.4719 88.4542 30.7512C88.7807 30.023 89.3567 29.5182 90.1821 29.237C90.9772 28.966 91.7023 29.0105 92.3574 29.3704C93.0125 29.7304 93.4885 30.3457 93.7852 31.2166L93.9671 31.7504ZM90.5385 30.3199C90.1295 30.4592 89.8376 30.6939 89.6628 31.024C89.4954 31.3515 89.4638 31.7299 89.5679 32.1593L92.3394 31.2148C92.1797 30.7959 91.9388 30.5104 91.6164 30.3582C91.2991 30.1959 90.9398 30.1831 90.5385 30.3199ZM98.3575 26.6032L99.9445 31.2602L101.853 30.61L100.266 25.9529L101.561 25.5117L103.535 31.3046L95.8335 33.9289L93.8595 28.136L95.1544 27.6947L96.7413 32.3517L98.6496 31.7015L97.0626 27.0444L98.3575 26.6032ZM104.189 24.616L104.789 26.3766L105.948 25.9818C106.591 25.7624 107.171 25.7763 107.686 26.0233C108.199 26.2628 108.554 26.674 108.753 27.2571C108.954 27.8477 108.924 28.4033 108.662 28.9236C108.404 29.4339 107.958 29.7973 107.322 30.0141L104.88 30.8463L102.906 25.0534L104.189 24.616ZM106.16 27.1264L105.161 27.467L105.795 29.3298L106.795 28.9892C107.105 28.8834 107.317 28.71 107.429 28.4689C107.549 28.2252 107.562 27.9671 107.469 27.6945C107.376 27.4219 107.211 27.2332 106.972 27.1286C106.741 27.0213 106.471 27.0206 106.16 27.1264ZM38.3006 59.7461L43.3438 58.0275L45.3178 63.8204L44.0229 64.2617L42.436 59.6046L39.9825 60.4407L41.5694 65.0977L40.2746 65.539L38.3006 59.7461ZM45.3788 58.1201C45.7179 57.3791 46.3115 56.8641 47.1596 56.5751C48.0077 56.2861 48.7885 56.3327 49.502 56.715C50.223 57.0948 50.737 57.7352 51.0441 58.6363C51.3512 59.5374 51.3351 60.3585 50.996 61.0995C50.6645 61.8379 50.0746 62.3516 49.2265 62.6406C48.3784 62.9296 47.5939 62.8842 46.8728 62.5045C46.1594 62.1222 45.6491 61.4805 45.3421 60.5794C45.035 59.6782 45.0472 58.8585 45.3788 58.1201ZM47.533 61.3541C47.9319 61.6069 48.3661 61.6534 48.8356 61.4934C49.3051 61.3334 49.6168 61.0328 49.7707 60.5915C49.9322 60.1477 49.9174 59.6457 49.7265 59.0853C49.5355 58.5249 49.2406 58.1183 48.8417 57.8655C48.4504 57.61 48.02 57.5623 47.5506 57.7223C47.0811 57.8823 46.7656 58.1842 46.6041 58.628C46.4502 59.0692 46.4687 59.57 46.6597 60.1304C46.8506 60.6907 47.1417 61.0986 47.533 61.3541ZM55.1854 59.3296C55.564 59.2006 55.8233 59.0065 55.9633 58.7476C56.1108 58.486 56.1735 58.2111 56.1513 57.9228L57.4121 57.4932C57.5452 58.1071 57.4505 58.6972 57.1279 59.2635C56.8054 59.8298 56.2844 60.2355 55.565 60.4807C54.7245 60.7671 53.9513 60.7179 53.2454 60.333C52.5369 59.9405 52.0305 59.2975 51.726 58.404C51.4241 57.518 51.43 56.7046 51.7438 55.9638C52.0652 55.2204 52.65 54.7042 53.4981 54.4152C54.2326 54.1649 54.8942 54.1718 55.4829 54.4361C56.069 54.6927 56.4967 55.0921 56.766 55.6343L55.5052 56.0639C55.3341 55.8348 55.1116 55.6655 54.8377 55.556C54.5687 55.4364 54.2525 55.4385 53.889 55.5624C53.4347 55.7172 53.1305 56.0152 52.9766 56.4565C52.8303 56.8951 52.8526 57.3946 53.0436 57.955C53.2371 58.5229 53.5295 58.9346 53.9208 59.19C54.3095 59.4379 54.7311 59.4844 55.1854 59.3296ZM58.4435 59.373L58.0564 58.2371L58.2382 58.1752C58.5562 58.0668 58.7499 57.9036 58.8193 57.6856C58.8937 57.4574 58.8737 57.1135 58.7593 56.6538L57.8589 53.0813L62.1183 51.6298L64.0924 57.4227L62.7975 57.864L61.2105 53.2069L59.3818 53.8301L60.017 56.3266C60.2274 57.1424 60.2342 57.7824 60.0374 58.2467C59.8456 58.7008 59.4317 59.0362 58.7956 59.253L58.4435 59.373ZM69.6622 52.7103L65.5844 54.0998L65.5921 54.1226C65.7444 54.5693 66.0147 54.8914 66.4031 55.0886C66.7915 55.2859 67.2166 55.3058 67.6786 55.1484C67.9966 55.04 68.2359 54.8867 68.3965 54.6883C68.5621 54.4797 68.6456 54.2907 68.647 54.1212L69.9191 53.6876C69.9779 54.1578 69.8546 54.6393 69.5493 55.1321C69.2515 55.6224 68.7429 55.9901 68.0235 56.2352C67.1603 56.5294 66.3758 56.4967 65.6701 56.1371C64.9618 55.7699 64.449 55.1206 64.1316 54.1892C63.8142 53.2578 63.8201 52.4318 64.1492 51.7111C64.4758 50.9828 65.0517 50.4781 65.8771 50.1968C66.6722 49.9259 67.3973 49.9704 68.0524 50.3303C68.7076 50.6902 69.1835 51.3056 69.4802 52.1764L69.6622 52.7103ZM66.2335 51.2798C65.8246 51.4191 65.5327 51.6538 65.3578 51.9839C65.1905 52.3113 65.1588 52.6898 65.2629 53.1191L68.0344 52.1747C67.8747 51.7558 67.6338 51.4703 67.3115 51.3181C66.9941 51.1558 66.6348 51.143 66.2335 51.2798ZM75.572 47.0453L76.9691 46.5692L76.5588 55.596L75.1731 56.0682L75.2963 53.4907L71.1308 48.5587L72.5279 48.0826L75.4627 51.7098L75.572 47.0453ZM81.6364 50.316C82.015 50.187 82.2743 49.993 82.4142 49.734C82.5617 49.4725 82.6244 49.1976 82.6023 48.9093L83.8631 48.4797C83.9962 49.0935 83.9015 49.6836 83.5789 50.2499C83.2563 50.8163 82.7353 51.222 82.0159 51.4671C81.1754 51.7535 80.4022 51.7043 79.6963 51.3194C78.9879 50.927 78.4814 50.284 78.1769 49.3904C77.875 48.5044 77.881 47.691 78.1948 46.9502C78.5162 46.2068 79.1009 45.6906 79.949 45.4016C80.6836 45.1513 81.3452 45.1583 81.9339 45.4225C82.52 45.6792 82.9477 46.0786 83.2169 46.6207L81.9561 47.0503C81.7851 46.8213 81.5626 46.652 81.2886 46.5425C81.0197 46.4229 80.7034 46.425 80.34 46.5488C79.8856 46.7037 79.5815 47.0017 79.4276 47.4429C79.2813 47.8816 79.3036 48.3811 79.4945 48.9414C79.688 49.5093 79.9805 49.921 80.3718 50.1765C80.7605 50.4243 81.182 50.4709 81.6364 50.316ZM83.3479 45.6633L82.9608 44.5274L87.9586 42.8244L88.3457 43.9602L86.4942 44.5911L88.0812 49.2482L86.7863 49.6894L85.1993 45.0324L83.3479 45.6633ZM91.8428 41.3487C92.5621 41.1035 93.2595 41.1659 93.935 41.5358C94.6179 41.9032 95.1207 42.5601 95.4433 43.5066C95.7658 44.4532 95.765 45.2817 95.4409 45.9923C95.1243 46.7002 94.6025 47.1781 93.8756 47.4258C93.4743 47.5625 93.0976 47.6106 92.7457 47.5699C92.3988 47.5191 92.1147 47.4046 91.8934 47.2265L92.8533 50.0434L91.5584 50.4847L88.8451 42.5223L90.0945 42.0965L90.35 42.8462C90.5122 42.1317 91.0098 41.6325 91.8428 41.3487ZM93.2688 46.3521C93.7232 46.1973 94.0286 45.903 94.1851 45.4694C94.3466 45.0256 94.3306 44.5197 94.137 43.9518C93.9461 43.3914 93.6512 42.9848 93.2523 42.7319C92.861 42.4765 92.4381 42.4262 91.9838 42.581C91.5219 42.7384 91.2089 43.0353 91.0448 43.4715C90.8782 43.9001 90.8916 44.3984 91.0852 44.9664L91.1007 45.0118C91.2942 45.5797 91.5891 45.9864 91.9854 46.2316C92.3791 46.4693 92.8069 46.5095 93.2688 46.3521ZM96.1563 40.8169C96.4954 40.0759 97.089 39.5609 97.9371 39.2719C98.7852 38.9829 99.566 39.0296 100.279 39.4119C101 39.7916 101.515 40.432 101.822 41.3331C102.129 42.2343 102.113 43.0553 101.773 43.7963C101.442 44.5347 100.852 45.0484 100.004 45.3374C99.1559 45.6264 98.3713 45.5811 97.6503 45.2013C96.9369 44.819 96.4266 44.1773 96.1195 43.2762C95.8125 42.3751 95.8247 41.5553 96.1563 40.8169ZM98.3105 44.0509C98.7094 44.3038 99.1436 44.3502 99.6131 44.1902C100.083 44.0302 100.394 43.7296 100.548 43.2884C100.71 42.8446 100.695 42.3425 100.504 41.7821C100.313 41.2218 100.018 40.8152 99.6192 40.5623C99.2279 40.3069 98.7975 40.2592 98.328 40.4191C97.8585 40.5791 97.5431 40.881 97.3816 41.3248C97.2277 41.7661 97.2462 42.2668 97.4371 42.8272C97.6281 43.3876 97.9192 43.7955 98.3105 44.0509ZM106.991 36.3387L108.965 42.1316L107.693 42.5651L106.381 38.7145L105.069 43.4592L103.82 43.885L101.846 38.0921L103.118 37.6586L104.434 41.5205L105.742 36.7645L106.991 36.3387ZM102.656 34.8877C102.748 35.1603 102.902 35.3616 103.115 35.4918C103.328 35.6219 103.575 35.6392 103.855 35.5437C104.135 35.4483 104.32 35.2839 104.41 35.0505C104.499 34.8172 104.498 34.5642 104.405 34.2916L105.45 33.9355C105.628 34.5086 105.601 35.0249 105.369 35.4843C105.144 35.9412 104.744 36.2677 104.169 36.4638C103.593 36.6599 103.073 36.6469 102.609 36.4249C102.152 36.2002 101.819 35.8065 101.611 35.2438L102.656 34.8877ZM112.447 39.817C112.825 39.688 113.085 39.494 113.224 39.235C113.372 38.9734 113.435 38.6985 113.413 38.4102L114.673 37.9806C114.806 38.5945 114.712 39.1846 114.389 39.7509C114.067 40.3172 113.546 40.7229 112.826 40.9681C111.986 41.2545 111.212 41.2053 110.507 40.8204C109.798 40.4279 109.292 39.7849 108.987 38.8914C108.685 38.0054 108.691 37.192 109.005 36.4512C109.326 35.7078 109.911 35.1916 110.759 34.9026C111.494 34.6523 112.155 34.6592 112.744 34.9235C113.33 35.1801 113.758 35.5795 114.027 36.1217L112.766 36.5513C112.595 36.3222 112.373 36.1529 112.099 36.0435C111.83 35.9238 111.514 35.9259 111.15 36.0498C110.696 36.2046 110.392 36.5026 110.238 36.9439C110.092 37.3825 110.114 37.882 110.305 38.4424C110.498 39.0103 110.791 39.422 111.182 39.6774C111.571 39.9253 111.992 39.9718 112.447 39.817ZM114.158 35.1643L113.771 34.0284L118.769 32.3253L119.156 33.4612L117.304 34.0921L118.891 38.7491L117.597 39.1904L116.01 34.5334L114.158 35.1643ZM121.629 37.8161L119.655 32.0232L122.256 31.1369C122.877 30.9253 123.398 30.9041 123.82 31.0733C124.241 31.2425 124.526 31.5467 124.676 31.9859C124.784 32.304 124.795 32.5961 124.708 32.8623C124.626 33.1184 124.487 33.3306 124.291 33.4988C124.615 33.4815 124.916 33.5605 125.196 33.7357C125.483 33.9083 125.69 34.1802 125.816 34.5512C125.981 35.0359 125.935 35.4953 125.677 35.9297C125.425 36.3538 124.98 36.6743 124.344 36.8911L121.629 37.8161ZM123.341 34.4691L122.058 34.9064L122.561 36.3831L123.844 35.9457C124.132 35.8476 124.33 35.7084 124.437 35.5281C124.55 35.3376 124.566 35.125 124.486 34.8902C124.321 34.4056 123.939 34.2652 123.341 34.4691ZM122.438 32.1906L121.268 32.5893L121.725 33.9296L122.895 33.5309C123.145 33.4458 123.317 33.3194 123.412 33.1518C123.515 32.9816 123.53 32.7905 123.458 32.5785C123.308 32.1393 122.968 32.01 122.438 32.1906ZM129.48 30.8559C129.369 30.5303 129.178 30.3165 128.907 30.2146C128.64 30.1025 128.337 30.1045 127.996 30.2207C127.382 30.4297 127.076 30.7834 127.077 31.2818L125.85 31.6998C125.771 31.169 125.884 30.6699 126.189 30.2024C126.5 29.7247 126.996 29.3697 127.677 29.1375C128.397 28.8923 129.032 28.883 129.582 29.1096C130.14 29.3335 130.533 29.7787 130.76 30.4451L132.06 34.2616L130.856 34.6719L130.632 34.0131C130.389 34.6876 129.881 35.1565 129.108 35.4197C128.533 35.6158 127.996 35.6169 127.499 35.4229C127.007 35.2187 126.667 34.8402 126.478 34.2874C126.282 33.7119 126.335 33.1955 126.635 32.7381C126.941 32.2706 127.457 31.913 128.184 31.6652L129.592 31.1853L129.48 30.8559ZM129.032 34.2666C129.434 34.1298 129.736 33.9001 129.938 33.5775C130.139 33.2473 130.174 32.8929 130.045 32.5142L129.925 32.1621L128.608 32.6111C128.267 32.7272 128.019 32.8921 127.863 33.1056C127.713 33.309 127.682 33.5394 127.769 33.7969C127.857 34.0544 128.016 34.2241 128.247 34.306C128.475 34.3804 128.737 34.3672 129.032 34.2666ZM45.4401 76.4563L44.1452 76.8976L42.1712 71.1047L43.4661 70.6634L44.2247 72.8897L46.7122 72.0421L45.9536 69.8158L47.2485 69.3745L49.2225 75.1674L47.9276 75.6087L47.1032 73.1893L44.6156 74.037L45.4401 76.4563ZM52.6503 69.7143C52.5394 69.3887 52.3482 69.1749 52.0768 69.073C51.8104 68.961 51.5069 68.963 51.1661 69.0791C50.5527 69.2881 50.2465 69.6418 50.2472 70.1402L49.0205 70.5582C48.9411 70.0275 49.0541 69.5283 49.3596 69.0608C49.6702 68.5831 50.1662 68.2281 50.8477 67.9959C51.5671 67.7508 52.202 67.7415 52.7525 67.968C53.3106 68.192 53.7032 68.6372 53.9302 69.3035L55.2308 73.12L54.0267 73.5303L53.8022 72.8715C53.5588 73.5461 53.0509 74.015 52.2785 74.2782C51.703 74.4743 51.1667 74.4753 50.6695 74.2813C50.1774 74.0771 49.8371 73.6987 49.6488 73.1459C49.4526 72.5704 49.5048 72.0539 49.8054 71.5966C50.1109 71.129 50.6271 70.7714 51.3541 70.5237L52.7626 70.0437L52.6503 69.7143ZM52.2025 73.125C52.6039 72.9883 52.9059 72.7586 53.1087 72.4359C53.3089 72.1057 53.3445 71.7513 53.2154 71.3727L53.0954 71.0206L51.7778 71.4695C51.4371 71.5857 51.189 71.7505 51.0336 71.964C50.8831 72.1674 50.8518 72.3979 50.9395 72.6553C51.0272 72.9128 51.1865 73.0825 51.4173 73.1644C51.6454 73.2388 51.9072 73.2257 52.2025 73.125ZM59.7948 64.947C60.5142 64.7019 61.2116 64.7643 61.887 65.1342C62.57 65.5015 63.0728 66.1585 63.3953 67.105C63.7179 68.0516 63.7171 68.8801 63.3929 69.5907C63.0764 70.2986 62.5546 70.7764 61.8277 71.0242C61.4263 71.1609 61.0497 71.209 60.6978 71.1683C60.3508 71.1175 60.0667 71.003 59.8454 70.8249L60.8054 73.6418L59.5105 74.0831L56.7972 66.1207L58.0466 65.6949L58.3021 66.4446C58.4643 65.7301 58.9619 65.2309 59.7948 64.947ZM61.2209 69.9505C61.6753 69.7957 61.9807 69.5014 62.1372 69.0678C62.2987 68.624 62.2826 68.1181 62.0891 67.5502C61.8981 66.9898 61.6032 66.5832 61.2044 66.3303C60.813 66.0749 60.3902 66.0246 59.9359 66.1794C59.474 66.3368 59.161 66.6336 58.9969 67.0699C58.8303 67.4985 58.8437 67.9968 59.0372 68.5648L59.0527 68.6102C59.2463 69.1781 59.5412 69.5847 59.9375 69.83C60.3312 70.0677 60.759 70.1079 61.2209 69.9505ZM67.476 64.6623C67.365 64.3366 67.1739 64.1229 66.9025 64.021C66.6361 63.9089 66.3325 63.9109 65.9918 64.027C65.3784 64.2361 65.0721 64.5898 65.0729 65.0881L63.8462 65.5062C63.7667 64.9754 63.8798 64.4763 64.1853 64.0087C64.4958 63.531 64.9918 63.1761 65.6734 62.9438C66.3927 62.6987 67.0277 62.6894 67.5782 62.916C68.1362 63.1399 68.5288 63.5851 68.7559 64.2515L70.0564 68.068L68.8524 68.4782L68.6279 67.8194C68.3845 68.494 67.8766 68.9629 67.1042 69.2261C66.5287 69.4222 65.9924 69.4233 65.4952 69.2293C65.0031 69.0251 64.6628 68.6466 64.4744 68.0938C64.2783 67.5183 64.3305 67.0019 64.631 66.5445C64.9366 66.077 65.4528 65.7193 66.1798 65.4716L67.5882 64.9917L67.476 64.6623ZM67.0282 68.073C67.4295 67.9362 67.7316 67.7065 67.9343 67.3839C68.1345 67.0537 68.1701 66.6992 68.0411 66.3206L67.9211 65.9685L66.6035 66.4175C66.2627 66.5336 66.0147 66.6984 65.8592 66.912C65.7088 67.1154 65.6774 67.3458 65.7652 67.6033C65.8529 67.8607 66.0122 68.0304 66.2429 68.1124C66.4711 68.1868 66.7329 68.1736 67.0282 68.073ZM72.3565 60.8693C73.1213 60.6087 73.8313 60.6584 74.4864 61.0183C75.1491 61.3756 75.6326 62.0011 75.9371 62.8946C76.2236 63.7352 76.2074 64.5309 75.8885 65.2819C75.5747 66.0227 74.9975 66.5363 74.157 66.8228C73.218 67.1427 72.3764 67.0788 71.6322 66.6309C70.8854 66.1754 70.3197 65.3836 69.9352 64.2553C69.463 62.8695 69.3252 61.7459 69.5219 60.8844C69.7159 60.0154 70.2994 59.3095 71.2723 58.7666L73.4765 57.5338L73.879 58.7151L71.8409 59.8026C71.2788 60.1125 70.9131 60.478 70.7439 60.8991C70.5721 61.3126 70.5617 61.8401 70.7127 62.4817C70.9302 61.7061 71.4781 61.1686 72.3565 60.8693ZM73.7057 65.7215C74.1827 65.5589 74.4995 65.2608 74.656 64.8271C74.8175 64.3833 74.8053 63.8888 74.6195 63.3436C74.4389 62.8135 74.1517 62.4297 73.758 62.1919C73.3693 61.9441 72.9402 61.9001 72.4707 62.0601C72.0012 62.2201 71.6743 62.5132 71.4899 62.9395C71.303 63.3582 71.3024 63.8401 71.4882 64.3853C71.6791 64.9457 71.974 65.3523 72.3729 65.6051C72.7768 65.8478 73.221 65.8866 73.7057 65.7215ZM76.6321 60.1476C76.9712 59.4067 77.5648 58.8917 78.413 58.6026C79.2611 58.3136 80.0418 58.3603 80.7553 58.7426C81.4763 59.1223 81.9904 59.7628 82.2974 60.6639C82.6045 61.565 82.5885 62.386 82.2493 63.127C81.9178 63.8654 81.328 64.3791 80.4799 64.6682C79.6317 64.9572 78.8472 64.9118 78.1262 64.5321C77.4127 64.1498 76.9025 63.508 76.5954 62.6069C76.2883 61.7058 76.3006 60.886 76.6321 60.1476ZM78.7864 63.3816C79.1853 63.6345 79.6194 63.6809 80.0889 63.5209C80.5584 63.3609 80.8701 63.0603 81.024 62.6191C81.1855 62.1753 81.1708 61.6732 80.9798 61.1129C80.7889 60.5525 80.494 60.1459 80.0951 59.893C79.7038 59.6376 79.2734 59.5899 78.8039 59.7499C78.3344 59.9099 78.0189 60.2118 77.8574 60.6556C77.7035 61.0968 77.722 61.5976 77.913 62.1579C78.1039 62.7183 78.3951 63.1262 78.7864 63.3816ZM82.0326 58.7891L81.6455 57.6532L86.6433 55.9502L87.0303 57.086L85.1789 57.7169L86.7658 62.374L85.471 62.8152L83.884 58.1582L82.0326 58.7891ZM91.3009 54.363L92.698 53.887L92.2876 62.9138L90.9019 63.386L91.0251 60.8085L86.8596 55.8765L88.2567 55.4004L91.1916 59.0276L91.3009 54.363ZM96.7956 52.3258C96.6924 52.0229 96.4949 51.8155 96.2032 51.7036C95.9191 51.5892 95.5953 51.5938 95.2319 51.7177C94.4898 51.9706 94.1465 52.4763 94.2022 53.2349L92.9414 53.6645C92.7978 52.9951 92.8935 52.3708 93.2287 51.7918C93.5638 51.2127 94.1062 50.7955 94.8559 50.54C95.6207 50.2794 96.2949 50.2736 96.8784 50.5227C97.4695 50.7692 97.8696 51.1992 98.0786 51.8126C98.156 52.0397 98.198 52.2621 98.2045 52.4796C98.211 52.6971 98.2033 52.873 98.1814 53.0072C98.1671 53.1389 98.105 53.3037 97.995 53.5018C97.89 53.6897 97.815 53.8167 97.7699 53.8828C97.7222 53.9413 97.6256 54.0672 97.4802 54.2604C97.4626 54.2833 97.425 54.3341 97.3674 54.413C97.3097 54.4918 97.2721 54.5426 97.2545 54.5655C97.237 54.5884 97.2031 54.6379 97.1531 54.7142C97.108 54.7803 97.0779 54.8285 97.0629 54.859C97.053 54.8793 97.0343 54.9237 97.0069 54.9922C96.977 55.0531 96.9596 55.1013 96.9548 55.1367C96.9499 55.1722 96.9414 55.2216 96.9292 55.2849C96.9169 55.3482 96.9123 55.409 96.9152 55.4671C96.9231 55.5151 96.9336 55.5707 96.9467 55.6339C96.9598 55.6971 96.9779 55.7627 97.0011 55.8309L97.0785 56.058L95.8518 56.4761L95.7357 56.1353C95.6247 55.8097 95.5823 55.5114 95.6083 55.2406C95.6393 54.9596 95.7023 54.7352 95.7973 54.5676C95.8898 54.3925 96.0476 54.1612 96.2708 53.8738C96.4388 53.6475 96.5592 53.4798 96.6318 53.3705C96.7094 53.2511 96.7704 53.0951 96.8146 52.9025C96.8664 52.7074 96.8601 52.5151 96.7956 52.3258ZM96.3114 57.676C96.4238 57.4602 96.5974 57.3123 96.8321 57.2323C97.0669 57.1523 97.2908 57.1647 97.5041 57.2695C97.7248 57.3718 97.8752 57.5403 97.9552 57.775C98.0352 58.0098 98.0203 58.2388 97.9105 58.4622C97.8056 58.6754 97.6358 58.822 97.4011 58.902C97.1664 58.982 96.9386 58.9709 96.7178 58.8686C96.502 58.7562 96.3541 58.5826 96.2741 58.3479C96.1941 58.1131 96.2066 57.8892 96.3114 57.676Z" fill="#0F1414"/>
<defs>
<linearGradient id="paint0_linear_163_800" x1="76.3455" y1="3.1544" x2="99.3403" y2="70.6344" gradientUnits="userSpaceOnUse">
<stop stop-color="#F9F9F9"/>
<stop offset="1" stop-color="#F4F4F4"/>
</linearGradient>
</defs>
</svg>
