<svg width="180" height="100" viewBox="0 0 180 100" fill="none" xmlns="http://www.w3.org/2000/svg">
<path fill-rule="evenodd" clip-rule="evenodd" d="M43.1448 32.1478C34.7806 34.998 30.3106 44.0892 33.1608 52.4534L41.8119 77.8407C44.6621 86.2049 53.7533 90.6749 62.1175 87.8247L106.922 72.5568L113.103 75.5957C114.59 76.3268 116.388 75.7141 117.119 74.2272L120.158 68.0466L135.443 62.8378C143.808 59.9876 148.278 50.8964 145.427 42.5322L136.776 17.1449C133.926 8.78066 124.835 4.31067 116.471 7.16091L43.1448 32.1478Z" fill="url(#paint0_linear_163_815)"/>
<path d="M47.8521 52.9389L46.5005 53.3995L43.7755 45.403L45.1272 44.9424L46.2458 48.2251L50.0396 46.9323L48.921 43.6497L50.2727 43.1891L52.9976 51.1855L51.6459 51.6461L50.4576 48.159L46.6639 49.4518L47.8521 52.9389ZM58.6965 46.4291L54.6188 47.8187L54.6265 47.8414C54.7787 48.2882 55.0491 48.6102 55.4374 48.8074C55.8258 49.0047 56.251 49.0246 56.7129 48.8672C57.0309 48.7589 57.2703 48.6055 57.4308 48.4071C57.5964 48.1985 57.6799 48.0095 57.6813 47.84L58.9535 47.4065C59.0123 47.8766 58.889 48.3581 58.5836 48.851C58.2859 49.3412 57.7773 49.7089 57.0579 49.9541C56.1946 50.2482 55.4102 50.2155 54.7045 49.8559C53.9962 49.4887 53.4833 48.8395 53.1659 47.9081C52.8485 46.9766 52.8544 46.1506 53.1836 45.4299C53.5101 44.7017 54.0861 44.1969 54.9115 43.9156C55.7066 43.6447 56.4317 43.6892 57.0868 44.0491C57.7419 44.4091 58.2178 45.0244 58.5146 45.8953L58.6965 46.4291ZM55.2678 44.9986C54.8589 45.1379 54.567 45.3726 54.3921 45.7027C54.2248 46.0301 54.1932 46.4086 54.2972 46.838L57.0687 45.8935C56.9091 45.4746 56.6681 45.1891 56.3458 45.0369C56.0285 44.8746 55.6692 44.8618 55.2678 44.9986ZM61.1162 43.7663C60.9884 43.1929 61.095 42.6748 61.436 42.2121C61.7845 41.7468 62.2768 41.4058 62.9129 41.189C63.5339 40.9774 64.0966 40.9547 64.6012 41.1208C65.1057 41.287 65.4431 41.6199 65.6134 42.1197C65.8199 42.7255 65.6829 43.2413 65.2025 43.667C65.5034 43.6321 65.7985 43.6921 66.0879 43.847C66.3824 43.9918 66.5954 44.2572 66.727 44.6434C66.9102 45.1811 66.8352 45.6926 66.502 46.178C66.1763 46.6609 65.6613 47.0223 64.9571 47.2623C64.2756 47.4945 63.656 47.524 63.0982 47.3506C62.5405 47.1772 62.1257 46.8157 61.8539 46.266L63.1147 45.8363C63.2604 46.0656 63.4625 46.2122 63.721 46.2763C63.9845 46.3302 64.2752 46.3029 64.5933 46.1946C64.9265 46.081 65.1683 45.9226 65.3187 45.7192C65.4666 45.5082 65.4979 45.2778 65.4128 45.0279C65.2528 44.5584 64.8131 44.4462 64.0937 44.6914L63.2418 44.9817L62.8935 43.9594L63.6772 43.6923C63.9801 43.5891 64.1904 43.4498 64.3081 43.2745C64.4309 43.089 64.4535 42.8826 64.3761 42.6555C64.3013 42.4359 64.1561 42.2952 63.9407 42.2333C63.7328 42.169 63.4888 42.1845 63.2086 42.28C62.9133 42.3806 62.6929 42.5275 62.5474 42.7208C62.402 42.914 62.3376 43.1219 62.3543 43.3444L61.1162 43.7663ZM69.6118 45.524L68.3169 45.9652L66.3429 40.1723L67.6378 39.7311L68.3964 41.9574L70.884 41.1097L70.1253 38.8834L71.4202 38.4422L73.3942 44.2351L72.0993 44.6763L71.2749 42.2569L68.7874 43.1046L69.6118 45.524ZM76.8221 38.782C76.7111 38.4564 76.5199 38.2426 76.2486 38.1407C75.9822 38.0286 75.6786 38.0306 75.3378 38.1468C74.7245 38.3558 74.4182 38.7095 74.419 39.2078L73.1922 39.6259C73.1128 39.0951 73.2259 38.596 73.5314 38.1285C73.8419 37.6508 74.3379 37.2958 75.0194 37.0636C75.7388 36.8184 76.3737 36.8091 76.9242 37.0357C77.4823 37.2596 77.8749 37.7048 78.102 38.3712L79.4025 42.1877L78.1985 42.598L77.974 41.9392C77.7306 42.6137 77.2226 43.0826 76.4503 43.3458C75.8748 43.5419 75.3384 43.543 74.8413 43.349C74.3491 43.1448 74.0089 42.7663 73.8205 42.2135C73.6244 41.638 73.6766 41.1216 73.9771 40.6642C74.2826 40.1967 74.7989 39.839 75.5258 39.5913L76.9343 39.1114L76.8221 38.782ZM76.3743 42.1927C76.7756 42.0559 77.0776 41.8262 77.2804 41.5036C77.4806 41.1734 77.5162 40.819 77.3872 40.4403L77.2672 40.0882L75.9496 40.5372C75.6088 40.6533 75.3607 40.8182 75.2053 41.0317C75.0549 41.2351 75.0235 41.4655 75.1112 41.723C75.199 41.9805 75.3582 42.1502 75.589 42.2321C75.8172 42.3065 76.0789 42.2933 76.3743 42.1927ZM84.9145 37.495L80.8368 38.8845L80.8445 38.9072C80.9968 39.354 81.2671 39.676 81.6555 39.8733C82.0438 40.0705 82.469 40.0905 82.9309 39.9331C83.249 39.8247 83.4883 39.6713 83.6489 39.4729C83.8144 39.2644 83.8979 39.0753 83.8993 38.9058L85.1715 38.4723C85.2303 38.9425 85.107 39.424 84.8017 39.9168C84.5039 40.4071 83.9953 40.7747 83.2759 41.0199C82.4126 41.3141 81.6282 41.2813 80.9225 40.9217C80.2142 40.5546 79.7013 39.9053 79.3839 38.9739C79.0666 38.0425 79.0724 37.2164 79.4016 36.4958C79.7281 35.7675 80.3041 35.2627 81.1295 34.9815C81.9246 34.7105 82.6497 34.755 83.3048 35.115C83.9599 35.4749 84.4358 36.0903 84.7326 36.9611L84.9145 37.495ZM81.4858 36.0644C81.0769 36.2038 80.785 36.4385 80.6101 36.7685C80.4428 37.096 80.4112 37.4744 80.5153 37.9038L83.2868 36.9594C83.1271 36.5405 82.8861 36.2549 82.5638 36.1028C82.2465 35.9404 81.8872 35.9277 81.4858 36.0644ZM89.3049 32.3477L90.8918 37.0048L92.8001 36.3545L91.2131 31.6975L92.508 31.2562L94.482 37.0491L86.7809 39.6734L84.8069 33.8805L86.1018 33.4392L87.6887 38.0963L89.597 37.446L88.01 32.789L89.3049 32.3477ZM95.1365 30.3605L95.7364 32.1211L96.895 31.7263C97.5387 31.507 98.1181 31.5208 98.6333 31.7678C99.1459 32.0073 99.5016 32.4185 99.7003 33.0016C99.9016 33.5923 99.8711 34.1478 99.609 34.6682C99.3518 35.1784 98.9052 35.5419 98.2691 35.7586L95.827 36.5908L93.853 30.7979L95.1365 30.3605ZM97.1076 32.8709L96.108 33.2115L96.7428 35.0743L97.7423 34.7337C98.0528 34.6279 98.2642 34.4545 98.3764 34.2134C98.4962 33.9697 98.5097 33.7116 98.4168 33.439C98.3239 33.1664 98.1582 32.9778 97.9197 32.8731C97.6887 32.7658 97.418 32.7651 97.1076 32.8709ZM102.779 33.4865C102.841 33.6682 102.87 33.878 102.867 34.1159L102.794 36.2452L101.805 36.582L101.845 34.578C101.443 34.563 101.181 34.3776 101.06 34.0217C100.98 33.7869 100.993 33.5667 101.101 33.3611C101.208 33.1554 101.383 33.0113 101.625 32.9288C101.868 32.8462 102.101 32.8598 102.324 32.9696C102.545 33.0719 102.696 33.2442 102.779 33.4865ZM107.444 32.6321L106.149 33.0734L104.175 27.2805L105.47 26.8392L106.291 29.2473L107.696 26.0806L109.23 25.5581L107.656 29.1243L111.238 31.3393L109.67 31.8735L106.523 29.9288L107.444 32.6321ZM113.911 26.1434C113.8 25.8177 113.609 25.604 113.338 25.5021C113.071 25.39 112.768 25.392 112.427 25.5081C111.813 25.7172 111.507 26.0708 111.508 26.5692L110.281 26.9873C110.202 26.4565 110.315 25.9574 110.62 25.4898C110.931 25.0121 111.427 24.6572 112.108 24.4249C112.828 24.1798 113.463 24.1705 114.013 24.3971C114.571 24.621 114.964 25.0662 115.191 25.7326L116.492 29.5491L115.287 29.9593L115.063 29.3005C114.82 29.9751 114.312 30.444 113.539 30.7072C112.964 30.9033 112.427 30.9044 111.93 30.7104C111.438 30.5062 111.098 30.1277 110.909 29.5749C110.713 28.9994 110.766 28.483 111.066 28.0256C111.372 27.5581 111.888 27.2004 112.615 26.9527L114.023 26.4728L113.911 26.1434ZM113.463 29.5541C113.865 29.4173 114.167 29.1876 114.369 28.865C114.57 28.5348 114.605 28.1803 114.476 27.8017L114.356 27.4496L113.039 27.8986C112.698 28.0147 112.45 28.1795 112.294 28.3931C112.144 28.5965 112.113 28.8269 112.2 29.0844C112.288 29.3418 112.447 29.5115 112.678 29.5935C112.906 29.6679 113.168 29.6547 113.463 29.5541ZM119.08 28.6669L117.785 29.1081L115.811 23.3152L117.106 22.874L117.927 25.282L119.333 22.1153L120.866 21.5928L119.292 25.159L122.874 27.3741L121.307 27.9082L118.159 25.9635L119.08 28.6669ZM50.2348 64.8046L48.2608 59.0117L50.8619 58.1253C51.4828 57.9137 52.0038 57.8925 52.4249 58.0618C52.846 58.231 53.1314 58.5352 53.2811 58.9744C53.3894 59.2924 53.4002 59.5846 53.3135 59.8508C53.2317 60.1068 53.0927 60.319 52.8965 60.4873C53.2202 60.47 53.5218 60.5489 53.8012 60.7241C54.0883 60.8968 54.295 61.1686 54.4214 61.5397C54.5866 62.0243 54.5403 62.4838 54.2826 62.9181C54.0299 63.3423 53.5856 63.6628 52.9495 63.8795L50.2348 64.8046ZM51.9467 61.4575L50.6631 61.8949L51.1663 63.3715L52.4498 62.9341C52.7376 62.8361 52.9353 62.6969 53.0428 62.5166C53.1554 62.3261 53.1717 62.1134 53.0917 61.8787C52.9266 61.3941 52.5449 61.2537 51.9467 61.4575ZM51.0435 59.1791L49.8735 59.5777L50.3303 60.9181L51.5002 60.5194C51.7501 60.4342 51.9226 60.3079 52.0176 60.1402C52.1202 59.9701 52.1353 59.779 52.0631 59.5669C51.9134 59.1277 51.5735 58.9984 51.0435 59.1791ZM60.2155 58.5891L56.1378 59.9786L56.1455 60.0013C56.2978 60.4481 56.5681 60.7701 56.9565 60.9674C57.3449 61.1647 57.77 61.1846 58.2319 61.0272C58.55 60.9188 58.7893 60.7654 58.9499 60.567C59.1155 60.3585 59.1989 60.1694 59.2003 59.9999L60.4725 59.5664C60.5313 60.0366 60.408 60.5181 60.1027 61.0109C59.8049 61.5012 59.2963 61.8689 58.5769 62.114C57.7137 62.4082 56.9292 62.3755 56.2235 62.0159C55.5152 61.6487 55.0024 60.9994 54.685 60.068C54.3676 59.1366 54.3734 58.3106 54.7026 57.5899C55.0291 56.8616 55.6051 56.3569 56.4305 56.0756C57.2256 55.8047 57.9507 55.8492 58.6058 56.2091C59.2609 56.569 59.7369 57.1844 60.0336 58.0552L60.2155 58.5891ZM56.7868 57.1585C56.3779 57.2979 56.086 57.5326 55.9111 57.8626C55.7438 58.1901 55.7122 58.5685 55.8163 58.9979L58.5878 58.0535C58.4281 57.6346 58.1871 57.3491 57.8648 57.1969C57.5475 57.0346 57.1882 57.0218 56.7868 57.1585ZM64.225 58.9089C64.6036 58.7799 64.8629 58.5859 65.0028 58.3269C65.1503 58.0654 65.213 57.7905 65.1908 57.5022L66.4516 57.0726C66.5848 57.6864 66.49 58.2765 66.1675 58.8428C65.8449 59.4092 65.3239 59.8149 64.6045 60.06C63.764 60.3464 62.9908 60.2972 62.2849 59.9123C61.5765 59.5199 61.07 58.8769 60.7655 57.9833C60.4636 57.0973 60.4695 56.2839 60.7834 55.5431C61.1048 54.7997 61.6895 54.2835 62.5376 53.9945C63.2721 53.7442 63.9338 53.7512 64.5225 54.0154C65.1086 54.2721 65.5363 54.6715 65.8055 55.2136L64.5447 55.6433C64.3737 55.4142 64.1512 55.2449 63.8772 55.1354C63.6083 55.0158 63.292 55.0179 62.9286 55.1417C62.4742 55.2966 62.1701 55.5946 62.0162 56.0358C61.8698 56.4745 61.8921 56.974 62.0831 57.5343C62.2766 58.1022 62.569 58.5139 62.9604 58.7694C63.3491 59.0172 63.7706 59.0638 64.225 58.9089ZM65.9364 54.2562L65.5494 53.1203L70.5472 51.4173L70.9342 52.5531L69.0828 53.184L70.6697 57.8411L69.3749 58.2823L67.7879 53.6253L65.9364 54.2562ZM76.5791 49.3618L78.5532 55.1547L77.281 55.5882L75.9688 51.7376L74.6571 56.4823L73.4077 56.9081L71.4337 51.1152L72.7058 50.6817L74.0219 54.5436L75.3297 49.7876L76.5791 49.3618ZM84.2809 52.0746C84.6595 51.9455 84.9188 51.7515 85.0588 51.4926C85.2063 51.231 85.269 50.9561 85.2468 50.6678L86.5076 50.2382C86.6407 50.8521 86.546 51.4422 86.2234 52.0085C85.9008 52.5748 85.3799 52.9805 84.6605 53.2257C83.82 53.5121 83.0467 53.4629 82.3409 53.078C81.6324 52.6855 81.1259 52.0425 80.8215 51.149C80.5195 50.263 80.5255 49.4496 80.8393 48.7088C81.1607 47.9654 81.7455 47.4492 82.5936 47.1602C83.3281 46.9099 83.9897 46.9168 84.5784 47.1811C85.1645 47.4377 85.5922 47.8371 85.8615 48.3793L84.6007 48.8089C84.4296 48.5798 84.2071 48.4105 83.9332 48.301C83.6642 48.1814 83.348 48.1835 82.9845 48.3074C82.5302 48.4622 82.226 48.7602 82.0721 49.2015C81.9258 49.6401 81.9481 50.1396 82.1391 50.7C82.3326 51.2679 82.625 51.6796 83.0163 51.935C83.405 52.1829 83.8266 52.2294 84.2809 52.0746ZM92.3626 47.6345L88.2849 49.024L88.2926 49.0468C88.4449 49.4935 88.7152 49.8155 89.1036 50.0128C89.492 50.2101 89.9171 50.23 90.3791 50.0726C90.6971 49.9642 90.9364 49.8108 91.097 49.6124C91.2626 49.4039 91.3461 49.2149 91.3475 49.0453L92.6196 48.6118C92.6784 49.082 92.5551 49.5635 92.2498 50.0563C91.952 50.5466 91.4434 50.9143 90.724 51.1594C89.8608 51.4536 89.0763 51.4209 88.3706 51.0613C87.6623 50.6941 87.1495 50.0448 86.8321 49.1134C86.5147 48.182 86.5206 47.356 86.8497 46.6353C87.1763 45.907 87.7522 45.4023 88.5776 45.121C89.3727 44.8501 90.0978 44.8946 90.7529 45.2545C91.4081 45.6144 91.884 46.2298 92.1807 47.1006L92.3626 47.6345ZM88.934 46.2039C88.5251 46.3433 88.2332 46.578 88.0583 46.908C87.891 47.2355 87.8593 47.6139 87.9634 48.0433L90.7349 47.0989C90.5752 46.68 90.3343 46.3945 90.012 46.2423C89.6946 46.08 89.3353 46.0672 88.934 46.2039ZM95.2351 43.0552C95.9999 42.7946 96.7099 42.8443 97.365 43.2042C98.0277 43.5615 98.5113 44.187 98.8157 45.0805C99.1022 45.9211 99.086 46.7168 98.7672 47.4678C98.4533 48.2086 97.8762 48.7222 97.0356 49.0087C96.0966 49.3286 95.255 49.2647 94.5108 48.8168C93.764 48.3613 93.1983 47.5695 92.8138 46.4412C92.3416 45.0554 92.2038 43.9318 92.4005 43.0703C92.5945 42.2013 93.178 41.4954 94.1509 40.9525L96.3551 39.7197L96.7576 40.901L94.7195 41.9885C94.1574 42.2984 93.7917 42.6639 93.6225 43.085C93.4507 43.4985 93.4403 44.026 93.5913 44.6676C93.8088 43.892 94.3567 43.3545 95.2351 43.0552ZM96.5843 47.9074C97.0613 47.7448 97.3781 47.4467 97.5346 47.013C97.6961 46.5692 97.6839 46.0747 97.4981 45.5295C97.3175 44.9994 97.0303 44.6156 96.6366 44.3778C96.2479 44.13 95.8188 44.086 95.3493 44.246C94.8798 44.406 94.5529 44.6991 94.3685 45.1254C94.1816 45.5441 94.181 46.026 94.3668 46.5712C94.5577 47.1316 94.8526 47.5382 95.2515 47.791C95.6554 48.0337 96.0996 48.0725 96.5843 47.9074ZM105.186 46.0791L103.903 46.5165L103.264 44.6423L102.389 44.9403L101.699 47.2674L100.245 47.7628L101.006 45.1962C100.596 45.1585 100.236 45.0192 99.9255 44.7784C99.6202 44.5275 99.4005 44.2051 99.2663 43.8114C99.0728 43.2434 99.0996 42.7145 99.3468 42.2246C99.599 41.7245 100.062 41.3597 100.736 41.13L103.212 40.2862L105.186 46.0791ZM100.602 42.6336C100.477 42.8622 100.461 43.1127 100.554 43.3853C100.647 43.6579 100.812 43.8466 101.051 43.9512C101.289 44.0559 101.564 44.0553 101.874 43.9495L102.908 43.5973L102.289 41.7799L101.255 42.1322C100.945 42.238 100.727 42.4051 100.602 42.6336ZM110.072 44.4141L108.777 44.8553L106.803 39.0625L108.098 38.6212L108.857 40.8475L111.344 39.9998L110.586 37.7735L111.881 37.3323L113.855 43.1252L112.56 43.5664L111.735 41.147L109.248 41.9947L110.072 44.4141ZM117.283 37.6721C117.172 37.3465 116.98 37.1327 116.709 37.0308C116.443 36.9187 116.139 36.9207 115.798 37.0369C115.185 37.2459 114.879 37.5996 114.879 38.0979L113.653 38.516C113.573 37.9852 113.686 37.4861 113.992 37.0186C114.302 36.5409 114.798 36.1859 115.48 35.9537C116.199 35.7085 116.834 35.6992 117.385 35.9258C117.943 36.1497 118.335 36.5949 118.562 37.2613L119.863 41.0778L118.659 41.4881L118.434 40.8293C118.191 41.5038 117.683 41.9727 116.911 42.2359C116.335 42.432 115.799 42.4331 115.302 42.2391C114.81 42.0349 114.469 41.6564 114.281 41.1036C114.085 40.5281 114.137 40.0117 114.438 39.5543C114.743 39.0868 115.259 38.7291 115.986 38.4814L117.395 38.0015L117.283 37.6721ZM116.835 41.0828C117.236 40.946 117.538 40.7163 117.741 40.3937C117.941 40.0635 117.977 39.7091 117.848 39.3304L117.728 38.9783L116.41 39.4273C116.069 39.5434 115.821 39.7083 115.666 39.9218C115.515 40.1252 115.484 40.3556 115.572 40.6131C115.659 40.8706 115.819 41.0403 116.049 41.1222C116.278 41.1966 116.539 41.1834 116.835 41.0828ZM55.4003 75.722L54.1054 76.1632L52.1314 70.3703L53.4263 69.9291L54.1849 72.1554L56.6724 71.3077L55.9138 69.0814L57.2087 68.6402L59.1827 74.4331L57.8878 74.8743L57.0634 72.4549L54.5758 73.3026L55.4003 75.722ZM59.2429 68.733C59.582 67.992 60.1756 67.477 61.0237 67.188C61.8718 66.899 62.6526 66.9456 63.3661 67.3279C64.0871 67.7077 64.6011 68.3481 64.9082 69.2492C65.2153 70.1503 65.1992 70.9714 64.8601 71.7124C64.5286 72.4508 63.9387 72.9645 63.0906 73.2535C62.2425 73.5425 61.458 73.4971 60.7369 73.1174C60.0235 72.7351 59.5132 72.0934 59.2062 71.1923C58.8991 70.2912 58.9113 69.4714 59.2429 68.733ZM61.3971 71.967C61.796 72.2198 62.2302 72.2663 62.6997 72.1063C63.1692 71.9463 63.4809 71.6457 63.6348 71.2045C63.7963 70.7607 63.7815 70.2586 63.5906 69.6982C63.3996 69.1379 63.1047 68.7312 62.7058 68.4784C62.3145 68.223 61.8841 68.1752 61.4147 68.3352C60.9452 68.4952 60.6297 68.7971 60.4682 69.2409C60.3143 69.6821 60.3328 70.1829 60.5238 70.7433C60.7147 71.3036 61.0058 71.7115 61.3971 71.967ZM66.9065 71.8011L64.9325 66.0082L67.5336 65.1218C68.1545 64.9102 68.6755 64.889 69.0966 65.0582C69.5177 65.2275 69.8031 65.5317 69.9527 65.9709C70.0611 66.2889 70.0719 66.581 69.9852 66.8473C69.9034 67.1033 69.7644 67.3155 69.5682 67.4838C69.8919 67.4664 70.1935 67.5454 70.4729 67.7206C70.76 67.8932 70.9667 68.1651 71.0931 68.5361C71.2583 69.0208 71.212 69.4803 70.9543 69.9146C70.7016 70.3388 70.2573 70.6592 69.6212 70.876L66.9065 71.8011ZM68.6184 68.454L67.3348 68.8914L67.838 70.368L69.1215 69.9306C69.4093 69.8326 69.607 69.6934 69.7145 69.513C69.8271 69.3225 69.8434 69.1099 69.7634 68.8752C69.5983 68.3905 69.2166 68.2501 68.6184 68.454ZM67.7152 66.1755L66.5452 66.5742L67.002 67.9145L68.1719 67.5159C68.4218 67.4307 68.5942 67.3043 68.6893 67.1367C68.7919 66.9665 68.807 66.7754 68.7348 66.5634C68.5851 66.1242 68.2452 65.9949 67.7152 66.1755ZM71.3895 64.5938C71.7286 63.8529 72.3222 63.3379 73.1703 63.0489C74.0185 62.7598 74.7992 62.8065 75.5127 63.1888C76.2337 63.5685 76.7477 64.209 77.0548 65.1101C77.3619 66.0112 77.3459 66.8322 77.0067 67.5732C76.6752 68.3116 76.0854 68.8254 75.2373 69.1144C74.3891 69.4034 73.6046 69.358 72.8836 68.9783C72.1701 68.596 71.6599 67.9542 71.3528 67.0531C71.0457 66.152 71.058 65.3322 71.3895 64.5938ZM73.5438 67.8278C73.9426 68.0807 74.3768 68.1271 74.8463 67.9671C75.3158 67.8072 75.6275 67.5065 75.7814 67.0653C75.9429 66.6215 75.9282 66.1194 75.7372 65.5591C75.5463 64.9987 75.2514 64.5921 74.8525 64.3392C74.4612 64.0838 74.0308 64.0361 73.5613 64.1961C73.0918 64.3561 72.7763 64.658 72.6148 65.1018C72.4609 65.543 72.4794 66.0438 72.6704 66.6041C72.8613 67.1645 73.1525 67.5724 73.5438 67.8278ZM77.0791 61.869L78.7147 61.3117L81.9869 64.8873L82.3949 60.0576L84.0078 59.5079L85.9819 65.3008L84.7324 65.7266L83.3816 61.7625L82.9868 66.2961L82.0327 66.6212L78.9556 63.2834L80.3025 67.2362L79.0531 67.6619L77.0791 61.869ZM87.5951 58.2855L89.2308 57.7282L92.503 61.3038L92.911 56.4741L94.5239 55.9245L96.4979 61.7174L95.2485 62.1431L93.8976 58.179L93.5028 62.7126L92.5487 63.0377L89.4716 59.6999L90.8186 63.6527L89.5691 64.0784L87.5951 58.2855ZM102.057 57.0087L97.979 58.3982L97.9868 58.4209C98.139 58.8677 98.4093 59.1897 98.7977 59.387C99.1861 59.5843 99.6113 59.6042 100.073 59.4468C100.391 59.3384 100.631 59.185 100.791 58.9866C100.957 58.7781 101.04 58.589 101.042 58.4195L102.314 57.986C102.373 58.4562 102.249 58.9377 101.944 59.4305C101.646 59.9208 101.138 60.2885 100.418 60.5336C99.5549 60.8278 98.7704 60.795 98.0647 60.4355C97.3564 60.0683 96.8436 59.419 96.5262 58.4876C96.2088 57.5562 96.2147 56.7301 96.5438 56.0095C96.8704 55.2812 97.4464 54.7764 98.2718 54.4952C99.0669 54.2242 99.792 54.2687 100.447 54.6287C101.102 54.9886 101.578 55.604 101.875 56.4748L102.057 57.0087ZM98.6281 55.5781C98.2192 55.7175 97.9273 55.9522 97.7524 56.2822C97.5851 56.6097 97.5535 56.9881 97.6575 57.4175L100.429 56.4731C100.269 56.0542 100.028 55.7686 99.7061 55.6165C99.3888 55.4541 99.0294 55.4414 98.6281 55.5781ZM106.066 57.3285C106.445 57.1995 106.704 57.0055 106.844 56.7465C106.992 56.4849 107.054 56.21 107.032 55.9218L108.293 55.4921C108.426 56.106 108.331 56.6961 108.009 57.2624C107.686 57.8287 107.165 58.2345 106.446 58.4796C105.605 58.766 104.832 58.7168 104.126 58.3319C103.418 57.9394 102.911 57.2964 102.607 56.4029C102.305 55.5169 102.311 54.7035 102.625 53.9627C102.946 53.2193 103.531 52.7031 104.379 52.4141C105.113 52.1638 105.775 52.1708 106.364 52.435C106.95 52.6917 107.378 53.0911 107.647 53.6332L106.386 54.0628C106.215 53.8338 105.992 53.6645 105.718 53.555C105.45 53.4353 105.133 53.4375 104.77 53.5613C104.315 53.7161 104.011 54.0142 103.857 54.4554C103.711 54.894 103.733 55.3935 103.924 55.9539C104.118 56.5218 104.41 56.9335 104.802 57.1889C105.19 57.4368 105.612 57.4833 106.066 57.3285ZM107.778 52.6758L107.391 51.5399L112.388 49.8369L112.775 50.9727L110.924 51.6036L112.511 56.2607L111.216 56.7019L109.629 52.0449L107.778 52.6758ZM119.245 51.1515L115.167 52.541L115.175 52.5638C115.327 53.0105 115.598 53.3325 115.986 53.5298C116.374 53.7271 116.8 53.747 117.262 53.5896C117.58 53.4812 117.819 53.3278 117.979 53.1294C118.145 52.9209 118.229 52.7318 118.23 52.5623L119.502 52.1288C119.561 52.599 119.438 53.0805 119.132 53.5733C118.834 54.0636 118.326 54.4313 117.607 54.6764C116.743 54.9706 115.959 54.9379 115.253 54.5783C114.545 54.2111 114.032 53.5618 113.715 52.6304C113.397 51.699 113.403 50.873 113.732 50.1523C114.059 49.424 114.635 48.9193 115.46 48.638C116.255 48.3671 116.98 48.4116 117.635 48.7715C118.291 49.1314 118.766 49.7468 119.063 50.6176L119.245 51.1515ZM115.816 49.7209C115.408 49.8603 115.116 50.095 114.941 50.425C114.773 50.7525 114.742 51.1309 114.846 51.5603L117.617 50.6159C117.458 50.197 117.217 49.9115 116.894 49.7593C116.577 49.597 116.218 49.5842 115.816 49.7209ZM122.341 46.2805C122.238 45.9776 122.04 45.7702 121.749 45.6583C121.465 45.5439 121.141 45.5486 120.777 45.6724C120.035 45.9253 119.692 46.431 119.748 47.1896L118.487 47.6193C118.343 46.9498 118.439 46.3256 118.774 45.7465C119.109 45.1675 119.652 44.7502 120.401 44.4947C121.166 44.2341 121.84 44.2284 122.424 44.4774C123.015 44.724 123.415 45.1539 123.624 45.7673C123.701 45.9944 123.743 46.2168 123.75 46.4343C123.756 46.6518 123.749 46.8277 123.727 46.9619C123.713 47.0936 123.65 47.2585 123.54 47.4565C123.435 47.6444 123.36 47.7714 123.315 47.8375C123.268 47.896 123.171 48.0219 123.026 48.2151C123.008 48.238 122.97 48.2889 122.913 48.3677C122.855 48.4465 122.818 48.4973 122.8 48.5202C122.782 48.5431 122.749 48.5927 122.699 48.6689C122.653 48.735 122.623 48.7832 122.608 48.8137C122.598 48.834 122.58 48.8784 122.552 48.9469C122.522 49.0078 122.505 49.056 122.5 49.0914C122.495 49.1269 122.487 49.1763 122.475 49.2396C122.462 49.3029 122.458 49.3637 122.461 49.4219C122.469 49.4699 122.479 49.5255 122.492 49.5886C122.505 49.6518 122.523 49.7174 122.547 49.7856L122.624 50.0128L121.397 50.4308L121.281 50.09C121.17 49.7644 121.128 49.4662 121.154 49.1953C121.185 48.9143 121.248 48.69 121.343 48.5223C121.435 48.3472 121.593 48.1159 121.816 47.8285C121.984 47.6023 122.105 47.4345 122.177 47.3252C122.255 47.2058 122.316 47.0498 122.36 46.8572C122.412 46.6621 122.406 46.4699 122.341 46.2805ZM121.857 51.6307C121.969 51.4149 122.143 51.267 122.378 51.187C122.612 51.107 122.836 51.1194 123.05 51.2243C123.27 51.3265 123.421 51.495 123.501 51.7298C123.581 51.9645 123.566 52.1935 123.456 52.4169C123.351 52.6301 123.181 52.7767 122.947 52.8567C122.712 52.9367 122.484 52.9256 122.263 52.8233C122.048 52.7109 121.9 52.5373 121.82 52.3026C121.74 52.0679 121.752 51.8439 121.857 51.6307Z" fill="#0F1414"/>
<defs>
<linearGradient id="paint0_linear_163_815" x1="77.9893" y1="7.64394" x2="98.6854" y2="68.3784" gradientUnits="userSpaceOnUse">
<stop stop-color="#F9F9F9"/>
<stop offset="1" stop-color="#F4F4F4"/>
</linearGradient>
</defs>
</svg>
