<svg width="180" height="100" viewBox="0 0 180 100" fill="none" xmlns="http://www.w3.org/2000/svg">
<path fill-rule="evenodd" clip-rule="evenodd" d="M36.931 30.6183C26.4757 34.1811 20.8882 45.5451 24.451 56.0004L32.6832 80.1583C36.246 90.6136 47.6099 96.2011 58.0653 92.6383L100.37 78.2222L106.605 81.2874C108.091 82.0185 109.889 81.4058 110.62 79.9189L113.686 73.6848L140.723 64.4715C151.178 60.9087 156.766 49.5447 153.203 39.0894L144.971 14.9315C141.408 4.4762 130.044 -1.11129 119.589 2.45151L36.931 30.6183Z" fill="url(#paint0_linear_163_808)"/>
<path d="M40.8919 55.6733L39.5403 56.1339L36.8153 48.1374L38.167 47.6768L39.2856 50.9595L43.0794 49.6667L41.9608 46.384L43.3125 45.9234L46.0374 53.9199L44.6857 54.3805L43.4974 50.8934L39.7037 52.1862L40.8919 55.6733ZM51.7363 49.1635L47.6585 50.553L47.6663 50.5758C47.8185 51.0225 48.0889 51.3446 48.4772 51.5418C48.8656 51.7391 49.2908 51.759 49.7527 51.6016C50.0707 51.4932 50.3101 51.3399 50.4706 51.1414C50.6362 50.9329 50.7197 50.7439 50.7211 50.5743L51.9933 50.1408C52.0521 50.611 51.9288 51.0925 51.6234 51.5853C51.3256 52.0756 50.8171 52.4433 50.0977 52.6884C49.2344 52.9826 48.45 52.9499 47.7442 52.5903C47.036 52.2231 46.5231 51.5738 46.2057 50.6424C45.8883 49.711 45.8942 48.885 46.2233 48.1643C46.5499 47.436 47.1259 46.9313 47.9513 46.65C48.7464 46.3791 49.4715 46.4236 50.1266 46.7835C50.7817 47.1434 51.2576 47.7588 51.5544 48.6296L51.7363 49.1635ZM48.3076 47.733C47.8987 47.8723 47.6068 48.107 47.4319 48.437C47.2646 48.7645 47.233 49.1429 47.337 49.5723L50.1085 48.6279C49.9489 48.209 49.7079 47.9235 49.3856 47.7713C49.0683 47.609 48.709 47.5962 48.3076 47.733ZM54.156 46.5007C54.0282 45.9273 54.1348 45.4092 54.4758 44.9465C54.8243 44.4812 55.3166 44.1402 55.9527 43.9234C56.5736 43.7118 57.1364 43.6891 57.6409 43.8552C58.1455 44.0214 58.4829 44.3543 58.6532 44.8541C58.8597 45.4599 58.7227 45.9756 58.2423 46.4013C58.5432 46.3664 58.8383 46.4264 59.1277 46.5814C59.4222 46.7261 59.6352 46.9916 59.7668 47.3778C59.95 47.9154 59.875 48.427 59.5417 48.9124C59.2161 49.3953 58.7011 49.7567 57.9969 49.9967C57.3154 50.2289 56.6958 50.2583 56.138 50.085C55.5803 49.9116 55.1655 49.5501 54.8937 49.0004L56.1545 48.5707C56.3002 48.8 56.5023 48.9466 56.7608 49.0107C57.0243 49.0646 57.315 49.0373 57.6331 48.9289C57.9662 48.8154 58.2081 48.6569 58.3585 48.4535C58.5064 48.2426 58.5377 48.0122 58.4525 47.7623C58.2926 47.2928 57.8529 47.1806 57.1335 47.4257L56.2816 47.716L55.9332 46.6938L56.717 46.4267C57.0199 46.3235 57.2302 46.1842 57.3479 46.0088C57.4707 45.8233 57.4933 45.617 57.4159 45.3898C57.3411 45.1702 57.1959 45.0295 56.9805 44.9677C56.7726 44.9033 56.5286 44.9189 56.2484 45.0143C55.9531 45.115 55.7327 45.2619 55.5872 45.4552C55.4418 45.6484 55.3774 45.8563 55.3941 46.0788L54.156 46.5007ZM62.6516 48.2584L61.3567 48.6996L59.3827 42.9067L60.6776 42.4655L61.4362 44.6918L63.9238 43.8441L63.1651 41.6178L64.46 41.1766L66.434 46.9695L65.1391 47.4107L64.3147 44.9913L61.8272 45.839L62.6516 48.2584ZM69.8618 41.5163C69.7509 41.1907 69.5597 40.977 69.2883 40.8751C69.022 40.763 68.7184 40.765 68.3776 40.8811C67.7643 41.0901 67.458 41.4438 67.4588 41.9422L66.232 42.3603C66.1526 41.8295 66.2656 41.3304 66.5712 40.8628C66.8817 40.3851 67.3777 40.0302 68.0592 39.7979C68.7786 39.5528 69.4135 39.5435 69.964 39.77C70.5221 39.994 70.9147 40.4392 71.1418 41.1056L72.4423 44.9221L71.2383 45.3323L71.0138 44.6735C70.7703 45.3481 70.2624 45.817 69.4901 46.0802C68.9145 46.2763 68.3782 46.2774 67.8811 46.0833C67.3889 45.8792 67.0486 45.5007 66.8603 44.9479C66.6642 44.3724 66.7164 43.856 67.0169 43.3986C67.3224 42.9311 67.8387 42.5734 68.5656 42.3257L69.9741 41.8457L69.8618 41.5163ZM69.4141 44.9271C69.8154 44.7903 70.1174 44.5606 70.3202 44.238C70.5204 43.9077 70.556 43.5533 70.427 43.1747L70.307 42.8226L68.9894 43.2716C68.6486 43.3877 68.4005 43.5525 68.2451 43.7661C68.0947 43.9695 68.0633 44.1999 68.151 44.4574C68.2388 44.7148 68.398 44.8845 68.6288 44.9665C68.857 45.0408 69.1187 45.0277 69.4141 44.9271ZM77.9543 40.2293L73.8766 41.6189L73.8843 41.6416C74.0365 42.0884 74.3069 42.4104 74.6953 42.6077C75.0836 42.8049 75.5088 42.8249 75.9707 42.6675C76.2888 42.5591 76.5281 42.4057 76.6887 42.2073C76.8542 41.9987 76.9377 41.8097 76.9391 41.6402L78.2113 41.2067C78.2701 41.6768 78.1468 42.1583 77.8414 42.6512C77.5437 43.1414 77.0351 43.5091 76.3157 43.7543C75.4524 44.0484 74.668 44.0157 73.9623 43.6561C73.254 43.289 72.7411 42.6397 72.4237 41.7083C72.1064 40.7769 72.1122 39.9508 72.4414 39.2301C72.7679 38.5019 73.3439 37.9971 74.1693 37.7159C74.9644 37.4449 75.6895 37.4894 76.3446 37.8493C76.9997 38.2093 77.4756 38.8246 77.7724 39.6955L77.9543 40.2293ZM74.5256 38.7988C74.1167 38.9381 73.8248 39.1728 73.6499 39.5029C73.4826 39.8304 73.451 40.2088 73.555 40.6382L76.3266 39.6937C76.1669 39.2748 75.9259 38.9893 75.6036 38.8371C75.2863 38.6748 74.927 38.662 74.5256 38.7988ZM82.3447 35.0821L83.9316 39.7391L85.8399 39.0889L84.2529 34.4318L85.5478 33.9906L87.5218 39.7835L79.8207 42.4078L77.8467 36.6149L79.1416 36.1736L80.7285 40.8306L82.6368 40.1804L81.0498 35.5233L82.3447 35.0821ZM88.1763 33.0949L88.7762 34.8555L89.9348 34.4607C90.5785 34.2413 91.1579 34.2552 91.6731 34.5022C92.1857 34.7417 92.5414 35.1529 92.7401 35.736C92.9414 36.3266 92.9109 36.8822 92.6488 37.4025C92.3916 37.9127 91.945 38.2762 91.3089 38.493L88.8668 39.3252L86.8928 33.5323L88.1763 33.0949ZM90.1474 35.6053L89.1478 35.9459L89.7826 37.8087L90.7821 37.4681C91.0926 37.3623 91.304 37.1889 91.4162 36.9478C91.536 36.7041 91.5495 36.446 91.4566 36.1734C91.3637 35.9008 91.198 35.7121 90.9595 35.6075C90.7285 35.5002 90.4578 35.4995 90.1474 35.6053ZM95.8188 36.2209C95.8807 36.4026 95.9099 36.6124 95.9065 36.8502L95.8334 38.9796L94.8452 39.3163L94.885 37.3124C94.4826 37.2974 94.2208 37.1119 94.0995 36.756C94.0195 36.5213 94.0332 36.3011 94.1406 36.0955C94.2481 35.8898 94.4229 35.7457 94.6652 35.6631C94.9076 35.5806 95.1404 35.5942 95.3638 35.704C95.5845 35.8063 95.7362 35.9786 95.8188 36.2209ZM100.484 35.3665L99.1889 35.8078L97.2149 30.0149L98.5098 29.5736L99.3304 31.9816L100.736 28.815L102.269 28.2924L100.696 31.8587L104.278 34.0737L102.71 34.6079L99.5626 32.6631L100.484 35.3665ZM106.951 28.8777C106.84 28.5521 106.649 28.3384 106.377 28.2364C106.111 28.1244 105.807 28.1264 105.467 28.2425C104.853 28.4515 104.547 28.8052 104.548 29.3036L103.321 29.7216C103.242 29.1909 103.355 28.6917 103.66 28.2242C103.971 27.7465 104.467 27.3916 105.148 27.1593C105.868 26.9142 106.503 26.9049 107.053 27.1314C107.611 27.3554 108.004 27.8006 108.231 28.4669L109.531 32.2834L108.327 32.6937L108.103 32.0349C107.859 32.7095 107.351 33.1784 106.579 33.4416C106.004 33.6377 105.467 33.6387 104.97 33.4447C104.478 33.2406 104.138 32.8621 103.949 32.3093C103.753 31.7338 103.805 31.2174 104.106 30.76C104.411 30.2924 104.928 29.9348 105.655 29.6871L107.063 29.2071L106.951 28.8777ZM106.503 32.2885C106.904 32.1517 107.206 31.922 107.409 31.5993C107.609 31.2691 107.645 30.9147 107.516 30.5361L107.396 30.184L106.078 30.633C105.738 30.7491 105.49 30.9139 105.334 31.1275C105.184 31.3309 105.152 31.5613 105.24 31.8187C105.328 32.0762 105.487 32.2459 105.718 32.3279C105.946 32.4022 106.208 32.3891 106.503 32.2885ZM112.12 31.4012L110.825 31.8425L108.851 26.0496L110.146 25.6083L110.967 28.0164L112.372 24.8497L113.906 24.3272L112.332 27.8934L115.914 30.1085L114.346 30.6426L111.199 28.6979L112.12 31.4012ZM43.2746 67.539L41.3006 61.7461L43.9017 60.8597C44.5226 60.6481 45.0436 60.6269 45.4647 60.7961C45.8858 60.9654 46.1712 61.2696 46.3208 61.7088C46.4292 62.0268 46.44 62.3189 46.3533 62.5852C46.2715 62.8412 46.1325 63.0534 45.9363 63.2217C46.26 63.2043 46.5616 63.2833 46.841 63.4585C47.1281 63.6312 47.3348 63.903 47.4612 64.274C47.6264 64.7587 47.5801 65.2182 47.3224 65.6525C47.0697 66.0767 46.6254 66.3971 45.9893 66.6139L43.2746 67.539ZM44.9865 64.1919L43.7029 64.6293L44.2061 66.1059L45.4896 65.6685C45.7774 65.5705 45.9751 65.4313 46.0826 65.2509C46.1952 65.0604 46.2115 64.8478 46.1315 64.6131C45.9664 64.1284 45.5847 63.988 44.9865 64.1919ZM44.0833 61.9134L42.9133 62.3121L43.3701 63.6524L44.54 63.2538C44.7899 63.1686 44.9623 63.0422 45.0574 62.8746C45.16 62.7044 45.1751 62.5133 45.1029 62.3013C44.9532 61.8621 44.6133 61.7328 44.0833 61.9134ZM48.3468 59.345L48.9467 61.1055L50.1053 60.7107C50.749 60.4914 51.3284 60.5052 51.8436 60.7523C52.3563 60.9917 52.7119 61.403 52.9106 61.9861C53.1119 62.5767 53.0814 63.1322 52.8193 63.6526C52.5621 64.1628 52.1155 64.5263 51.4794 64.7431L49.0373 65.5752L47.0633 59.7823L48.3468 59.345ZM53.6513 57.5374L55.6253 63.3303L54.3418 63.7677L52.3678 57.9748L53.6513 57.5374ZM50.3179 61.8554L49.3183 62.196L49.9531 64.0588L50.9527 63.7182C51.2631 63.6124 51.4745 63.4389 51.5867 63.1978C51.7065 62.9542 51.72 62.696 51.6271 62.4234C51.5342 62.1508 51.3685 61.9622 51.13 61.8575C50.8991 61.7503 50.6284 61.7496 50.3179 61.8554ZM54.989 57.0815L60.0323 55.363L62.0063 61.1559L60.7114 61.5971L59.1244 56.9401L56.671 57.7761L58.2579 62.4332L56.963 62.8744L54.989 57.0815ZM62.0672 55.4555C62.4064 54.7145 63 54.1995 63.8481 53.9105C64.6962 53.6215 65.477 53.6682 66.1904 54.0505C66.9115 54.4302 67.4255 55.0706 67.7326 55.9718C68.0396 56.8729 68.0236 57.6939 67.6845 58.4349C67.3529 59.1733 66.7631 59.687 65.915 59.976C65.0669 60.265 64.2823 60.2197 63.5613 59.84C62.8479 59.4576 62.3376 58.8159 62.0305 57.9148C61.7235 57.0137 61.7357 56.1939 62.0672 55.4555ZM64.2215 58.6895C64.6204 58.9424 65.0546 58.9888 65.5241 58.8288C65.9936 58.6688 66.3053 58.3682 66.4592 57.927C66.6206 57.4832 66.6059 56.9811 66.415 56.4208C66.224 55.8604 65.9291 55.4538 65.5302 55.2009C65.1389 54.9455 64.7085 54.8978 64.239 55.0578C63.7695 55.2177 63.4541 55.5196 63.2926 55.9634C63.1387 56.4047 63.1572 56.9055 63.3481 57.4658C63.5391 58.0262 63.8302 58.4341 64.2215 58.6895ZM69.0365 58.7856L68.6494 57.6497L68.8312 57.5878C69.1492 57.4794 69.3429 57.3162 69.4123 57.0982C69.4867 56.87 69.4667 56.5261 69.3523 56.0664L68.4518 52.4939L72.7113 51.0424L74.6853 56.8353L73.3904 57.2765L71.8035 52.6195L69.9748 53.2427L70.61 55.7392C70.8203 56.555 70.8271 57.195 70.6304 57.6593C70.4386 58.1134 70.0247 58.4488 69.3886 58.6656L69.0365 58.7856ZM77.332 55.9334L76.0371 56.3747L74.0631 50.5818L75.358 50.1405L76.1166 52.3668L78.6041 51.5191L77.8455 49.2928L79.1404 48.8516L81.1144 54.6445L79.8195 55.0857L78.9951 52.6664L76.5075 53.514L77.332 55.9334ZM86.8501 52.69L85.5665 53.1274L84.9279 51.2532L84.0533 51.5512L83.363 53.8783L81.9091 54.3737L82.6699 51.8071C82.2598 51.7694 81.8996 51.6301 81.5894 51.3893C81.2841 51.1384 81.0644 50.816 80.9302 50.4222C80.7367 49.8543 80.7635 49.3254 81.0107 48.8355C81.2629 48.3354 81.7259 47.9705 82.3999 47.7409L84.876 46.8971L86.8501 52.69ZM82.2657 49.2445C82.1407 49.473 82.1247 49.7236 82.2176 49.9962C82.3105 50.2688 82.4762 50.4575 82.7147 50.5621C82.9532 50.6668 83.2277 50.6662 83.5382 50.5604L84.5718 50.2082L83.9525 48.3908L82.9189 48.743C82.6084 48.8488 82.3907 49.016 82.2657 49.2445ZM86.1535 47.7295L85.7665 46.5937L90.7643 44.8906L91.1513 46.0265L89.2999 46.6574L90.8868 51.3144L89.5919 51.7557L88.005 47.0986L86.1535 47.7295ZM92.9343 44.1511L93.5342 45.9117L94.6928 45.5169C95.3365 45.2976 95.9159 45.3114 96.4311 45.5584C96.9437 45.7979 97.2994 46.2091 97.4981 46.7922C97.6994 47.3829 97.6689 47.9384 97.4068 48.4588C97.1496 48.969 96.703 49.3325 96.0669 49.5492L93.6248 50.3814L91.6508 44.5885L92.9343 44.1511ZM94.9054 46.6615L93.9058 47.0021L94.5406 48.865L95.5401 48.5243C95.8506 48.4185 96.062 48.2451 96.1742 48.004C96.294 47.7603 96.3075 47.5022 96.2146 47.2296C96.1217 46.957 95.956 46.7684 95.7175 46.6637C95.4865 46.5565 95.2158 46.5557 94.9054 46.6615ZM45.1039 74.3954L44.7168 73.2595L49.7146 71.5564L50.1017 72.6923L48.2502 73.3232L49.8372 77.9803L48.5423 78.4215L46.9553 73.7645L45.1039 74.3954ZM56.5713 72.8711L52.4936 74.2606L52.5013 74.2833C52.6536 74.7301 52.9239 75.0521 53.3123 75.2494C53.7006 75.4467 54.1258 75.4666 54.5877 75.3092C54.9058 75.2008 55.1451 75.0474 55.3057 74.849C55.4712 74.6405 55.5547 74.4514 55.5561 74.2819L56.8283 73.8484C56.8871 74.3186 56.7638 74.8001 56.4585 75.2929C56.1607 75.7832 55.6521 76.1509 54.9327 76.396C54.0695 76.6902 53.285 76.6575 52.5793 76.2979C51.871 75.9307 51.3581 75.2814 51.0408 74.35C50.7234 73.4186 50.7292 72.5926 51.0584 71.8719C51.3849 71.1436 51.9609 70.6389 52.7863 70.3576C53.5814 70.0867 54.3065 70.1311 54.9616 70.4911C55.6167 70.851 56.0927 71.4664 56.3894 72.3372L56.5713 72.8711ZM53.1426 71.4405C52.7337 71.5799 52.4418 71.8146 52.2669 72.1446C52.0996 72.4721 52.068 72.8505 52.1721 73.2799L54.9436 72.3355C54.7839 71.9166 54.5429 71.6311 54.2206 71.4789C53.9033 71.3166 53.544 71.3038 53.1426 71.4405ZM60.5807 73.1909C60.9594 73.0619 61.2187 72.8679 61.3586 72.6089C61.5061 72.3474 61.5688 72.0724 61.5466 71.7842L62.8074 71.3545C62.9406 71.9684 62.8458 72.5585 62.5233 73.1248C62.2007 73.6911 61.6797 74.0969 60.9603 74.342C60.1198 74.6284 59.3466 74.5792 58.6407 74.1943C57.9322 73.8019 57.4258 73.1588 57.1213 72.2653C56.8194 71.3793 56.8253 70.5659 57.1392 69.8251C57.4606 69.0817 58.0453 68.5655 58.8934 68.2765C59.6279 68.0262 60.2895 68.0332 60.8782 68.2974C61.4644 68.5541 61.892 68.9535 62.1613 69.4956L60.9005 69.9252C60.7295 69.6962 60.507 69.5269 60.233 69.4174C59.964 69.2978 59.6478 69.2999 59.2843 69.4237C58.83 69.5786 58.5259 69.8766 58.372 70.3178C58.2256 70.7564 58.2479 71.256 58.4389 71.8163C58.6324 72.3842 58.9248 72.7959 59.3161 73.0514C59.7049 73.2992 60.1264 73.3457 60.5807 73.1909ZM62.2922 68.5382L61.9052 67.4023L66.903 65.6993L67.29 66.8351L65.4386 67.466L67.0255 72.1231L65.7306 72.5643L64.1437 67.9073L62.2922 68.5382ZM68.2619 66.0222C68.6011 65.2812 69.1947 64.7662 70.0428 64.4772C70.8909 64.1882 71.6717 64.2348 72.3851 64.6172C73.1061 64.9969 73.6202 65.6373 73.9273 66.5384C74.2343 67.4395 74.2183 68.2606 73.8792 69.0016C73.5476 69.74 72.9578 70.2537 72.1097 70.5427C71.2616 70.8317 70.477 70.7863 69.756 70.4066C69.0426 70.0243 68.5323 69.3826 68.2252 68.4815C67.9182 67.5804 67.9304 66.7606 68.2619 66.0222ZM70.4162 69.2562C70.8151 69.509 71.2493 69.5555 71.7188 69.3955C72.1883 69.2355 72.5 68.9349 72.6539 68.4937C72.8153 68.0499 72.8006 67.5478 72.6097 66.9874C72.4187 66.4271 72.1238 66.0204 71.7249 65.7676C71.3336 65.5122 70.9032 65.4644 70.4337 65.6244C69.9642 65.7844 69.6487 66.0863 69.4873 66.5301C69.3334 66.9713 69.3519 67.4721 69.5428 68.0325C69.7338 68.5928 70.0249 69.0007 70.4162 69.2562ZM75.9255 69.0903L73.9515 63.2974L76.5526 62.411C77.1736 62.1994 77.6946 62.1782 78.1157 62.3474C78.5368 62.5167 78.8222 62.8209 78.9718 63.2601C79.0802 63.5781 79.091 63.8702 79.0042 64.1365C78.9225 64.3925 78.7835 64.6047 78.5873 64.773C78.911 64.7556 79.2125 64.8346 79.492 65.0098C79.779 65.1825 79.9858 65.4543 80.1122 65.8254C80.2773 66.31 80.2311 66.7695 79.9734 67.2038C79.7207 67.628 79.2763 67.9484 78.6402 68.1652L75.9255 69.0903ZM77.6374 65.7432L76.3539 66.1806L76.8571 67.6572L78.1406 67.2198C78.4284 67.1218 78.626 66.9826 78.7336 66.8022C78.8462 66.6117 78.8625 66.3991 78.7825 66.1644C78.6173 65.6797 78.2357 65.5393 77.6374 65.7432ZM76.7342 63.4647L75.5643 63.8634L76.021 65.2037L77.191 64.8051C77.4409 64.7199 77.6133 64.5935 77.7083 64.4259C77.8109 64.2557 77.8261 64.0646 77.7538 63.8526C77.6042 63.4134 77.2643 63.2841 76.7342 63.4647ZM80.9978 60.8963L81.5977 62.6568L82.7563 62.262C83.4 62.0427 83.9794 62.0565 84.4946 62.3036C85.0072 62.543 85.3629 62.9543 85.5616 63.5374C85.7629 64.128 85.7324 64.6835 85.4703 65.2039C85.2131 65.7141 84.7665 66.0776 84.1304 66.2944L81.6883 67.1265L79.7143 61.3336L80.9978 60.8963ZM86.3023 59.0887L88.2763 64.8816L86.9927 65.319L85.0187 59.5261L86.3023 59.0887ZM82.9689 63.4067L81.9693 63.7473L82.6041 65.6101L83.6036 65.2695C83.9141 65.1637 84.1255 64.9902 84.2377 64.7491C84.3575 64.5055 84.371 64.2473 84.2781 63.9747C84.1852 63.7021 84.0195 63.5135 83.781 63.4088C83.55 63.3016 83.2793 63.3009 82.9689 63.4067ZM93.832 60.1739L89.7543 61.5635L89.762 61.5862C89.9143 62.033 90.1846 62.355 90.573 62.5523C90.9614 62.7495 91.3865 62.7695 91.8484 62.6121C92.1665 62.5037 92.4058 62.3503 92.5664 62.1519C92.732 61.9433 92.8155 61.7543 92.8169 61.5848L94.089 61.1513C94.1478 61.6215 94.0245 62.103 93.7192 62.5958C93.4214 63.086 92.9128 63.4537 92.1934 63.6989C91.3302 63.993 90.5457 63.9603 89.84 63.6007C89.1317 63.2336 88.6189 62.5843 88.3015 61.6529C87.9841 60.7215 87.99 59.8954 88.3191 59.1747C88.6456 58.4465 89.2216 57.9417 90.047 57.6605C90.8421 57.3895 91.5672 57.434 92.2223 57.7939C92.8774 58.1539 93.3534 58.7693 93.6501 59.6401L93.832 60.1739ZM90.4034 58.7434C89.9945 58.8828 89.7026 59.1174 89.5277 59.4475C89.3603 59.775 89.3287 60.1534 89.4328 60.5828L92.2043 59.6384C92.0446 59.2195 91.8037 58.9339 91.4813 58.7818C91.164 58.6194 90.8047 58.6066 90.4034 58.7434ZM96.928 55.303C96.8248 55.0001 96.6273 54.7927 96.3356 54.6808C96.0515 54.5663 95.7277 54.571 95.3642 54.6949C94.6222 54.9478 94.2789 55.4535 94.3346 56.2121L93.0738 56.6417C92.9302 55.9723 93.0259 55.348 93.3611 54.769C93.6962 54.1899 94.2386 53.7727 94.9883 53.5172C95.7531 53.2566 96.4273 53.2508 97.0108 53.4999C97.6019 53.7464 98.002 54.1764 98.211 54.7897C98.2884 55.0169 98.3304 55.2393 98.3369 55.4568C98.3434 55.6743 98.3357 55.8502 98.3138 55.9844C98.2995 56.1161 98.2374 56.2809 98.1274 56.479C98.0224 56.6669 97.9473 56.7939 97.9023 56.86C97.8546 56.9185 97.758 57.0443 97.6126 57.2376C97.595 57.2605 97.5574 57.3113 97.4997 57.3901C97.4421 57.4689 97.4045 57.5198 97.3869 57.5427C97.3694 57.5656 97.3355 57.6151 97.2854 57.6914C97.2404 57.7574 97.2103 57.8057 97.1953 57.8362C97.1854 57.8565 97.1667 57.9009 97.1393 57.9693C97.1094 58.0303 97.092 58.0784 97.0871 58.1139C97.0823 58.1494 97.0738 58.1987 97.0616 58.2621C97.0493 58.3254 97.0447 58.3861 97.0476 58.4443C97.0555 58.4923 97.066 58.5479 97.0791 58.6111C97.0921 58.6742 97.1103 58.7399 97.1335 58.808L97.2109 59.0352L95.9842 59.4532L95.8681 59.1125C95.7571 58.7869 95.7147 58.4886 95.7407 58.2178C95.7717 57.9367 95.8347 57.7124 95.9297 57.5448C96.0222 57.3696 96.18 57.1384 96.4032 56.851C96.5712 56.6247 96.6915 56.4569 96.7642 56.3477C96.8418 56.2282 96.9028 56.0723 96.947 55.8797C96.9988 55.6845 96.9925 55.4923 96.928 55.303ZM96.4438 60.6531C96.5562 60.4373 96.7298 60.2895 96.9645 60.2095C97.1993 60.1295 97.4232 60.1419 97.6364 60.2467C97.8572 60.349 98.0076 60.5175 98.0876 60.7522C98.1676 60.987 98.1527 61.216 98.0429 61.4394C97.938 61.6526 97.7682 61.7992 97.5335 61.8792C97.2987 61.9592 97.071 61.948 96.8502 61.8458C96.6344 61.7334 96.4865 61.5598 96.4065 61.3251C96.3265 61.0903 96.339 60.8663 96.4438 60.6531Z" fill="#0F1414"/>
<defs>
<linearGradient id="paint0_linear_163_808" x1="76.3711" y1="3.22942" x2="99.2287" y2="70.3068" gradientUnits="userSpaceOnUse">
<stop stop-color="#F9F9F9"/>
<stop offset="1" stop-color="#F4F4F4"/>
</linearGradient>
</defs>
</svg>
