<svg width="180" height="100" viewBox="0 0 180 100" fill="none" xmlns="http://www.w3.org/2000/svg">
<g clip-path="url(#clip0_201_717)">
<path fill-rule="evenodd" clip-rule="evenodd" d="M57.8609 24.8797C47.2826 28.0588 41.2844 39.2114 44.4635 49.7897L51.5851 73.4865C54.7642 84.0648 65.9168 90.063 76.4951 86.8839L121.667 73.3082C121.834 73.2581 122.007 73.23 122.181 73.2245L131.534 72.9329C132.638 72.8985 133.506 71.9756 133.471 70.8715L133.293 65.1592C133.281 64.7673 133.386 64.3817 133.582 64.042C136.237 59.436 137.061 53.7877 135.41 48.2943L128.289 24.5976C125.11 14.0193 113.957 8.02103 103.379 11.2001L57.8609 24.8797Z" fill="url(#paint0_linear_201_717)"/>
<path d="M64.4586 45.9042L65.2944 48.6854L63.9843 49.0791L63.5215 47.5391L57.9592 49.2108L58.4221 50.7507L57.1119 51.1444L56.2761 48.3633L56.9082 48.1734C57.1264 47.8989 57.2374 47.5315 57.241 47.0709C57.2423 46.6028 57.15 45.9622 56.9642 45.1493L55.999 40.9786L61.4118 39.3519L63.4703 46.2013L64.4586 45.9042ZM58.2743 44.7556C58.4578 45.5608 58.5608 46.1814 58.5832 46.6174C58.611 47.0435 58.5545 47.4113 58.4137 47.7209L62.1027 46.6123L60.4138 40.9926L57.5982 41.8387L58.2743 44.7556ZM67.9741 41.9658C67.8751 41.6363 67.6918 41.4157 67.4243 41.304C67.1622 41.1823 66.8588 41.1732 66.514 41.2769C65.8934 41.4634 65.5745 41.8057 65.5571 42.3037L64.3159 42.6767C64.2559 42.1434 64.3871 41.6488 64.7094 41.1927C65.0372 40.7266 65.5458 40.39 66.2353 40.1828C66.9632 39.964 67.598 39.9779 68.1399 40.2244C68.6894 40.4685 69.0655 40.9277 69.2681 41.6019L70.4286 45.4633L69.2104 45.8294L69.0101 45.1629C68.7422 45.8281 68.2176 46.2782 67.4361 46.513C66.8538 46.688 66.3178 46.6695 65.8281 46.4575C65.3437 46.2355 65.0174 45.8449 64.8494 45.2856C64.6744 44.7033 64.7454 44.1891 65.0624 43.743C65.3848 43.2869 65.9137 42.9484 66.6492 42.7273L68.0742 42.2991L67.9741 41.9658ZM67.4022 45.3579C67.8082 45.2359 68.1185 45.0173 68.3329 44.7023C68.545 44.3796 68.5935 44.0267 68.4783 43.6436L68.3713 43.2874L67.0382 43.688C66.6934 43.7916 66.4395 43.9473 66.2763 44.155C66.1186 44.3528 66.0789 44.582 66.1571 44.8424C66.2354 45.1029 66.3884 45.2783 66.616 45.3686C66.8413 45.4513 67.1034 45.4477 67.4022 45.3579ZM71.1241 45.2794L70.7788 44.1301L70.9626 44.0749C71.2844 43.9782 71.4839 43.8221 71.5612 43.6068C71.6439 43.3815 71.6364 43.037 71.5389 42.5735L70.7693 38.9705L75.0789 37.6754L76.8404 43.5364L75.5302 43.9301L74.1142 39.2183L72.2639 39.7744L72.8077 42.2924C72.9882 43.1153 72.9716 43.7551 72.758 44.2119C72.5498 44.6588 72.124 44.9789 71.4804 45.1723L71.1241 45.2794ZM81.6526 35.6998L83.414 41.5608L82.1269 41.9476L80.956 38.0518L79.4722 42.7455L78.208 43.1254L76.4466 37.2643L77.7337 36.8775L78.908 40.7849L80.3884 36.0797L81.6526 35.6998ZM88.351 40.0771L87.0409 40.4708L85.2795 34.6098L86.5896 34.216L87.2665 36.4685L89.7833 35.7121L89.1064 33.4597L90.4165 33.0659L92.1779 38.927L90.8678 39.3207L90.1321 36.8729L87.6153 37.6292L88.351 40.0771ZM95.8023 33.6025C95.7033 33.2731 95.5201 33.0525 95.2526 32.9407C94.9905 32.819 94.687 32.81 94.3423 32.9136C93.7217 33.1001 93.4027 33.4424 93.3853 33.9405L92.1442 34.3135C92.0841 33.7802 92.2153 33.2855 92.5377 32.8294C92.8654 32.3634 93.3741 32.0267 94.0636 31.8195C94.7914 31.6008 95.4263 31.6146 95.9682 31.8611C96.5177 32.1053 96.8938 32.5645 97.0964 33.2387L98.2569 37.1001L97.0387 37.4662L96.8384 36.7996C96.5705 37.4649 96.0458 37.9149 95.2643 38.1498C94.6821 38.3248 94.1461 38.3062 93.6563 38.0942C93.1719 37.8723 92.8457 37.4816 92.6776 36.9223C92.5026 36.3401 92.5736 35.8259 92.8907 35.3797C93.213 34.9237 93.742 34.5851 94.4775 34.3641L95.9025 33.9358L95.8023 33.6025ZM95.2305 36.9946C95.6365 36.8726 95.9467 36.6541 96.1611 36.339C96.3732 36.0163 96.4217 35.6635 96.3066 35.2804L96.1995 34.9241L94.8664 35.3248C94.5217 35.4284 94.2677 35.584 94.1046 35.7918C93.9469 35.9896 93.9071 36.2187 93.9854 36.4792C94.0637 36.7397 94.2167 36.9151 94.4443 37.0054C94.6696 37.088 94.9317 37.0844 95.2305 36.9946ZM102.356 29.4779L103.772 34.1897L105.702 33.6095L104.286 28.8976L105.596 28.5039L107.358 34.3649L99.5661 36.7066L97.8046 30.8456L99.1148 30.4518L100.531 35.1637L102.461 34.5834L101.045 29.8716L102.356 29.4779ZM110.773 26.9483L112.186 26.5235L111.447 35.5293L110.045 35.9507L110.262 33.3794L106.279 28.2987L107.693 27.8739L110.493 31.6058L110.773 26.9483ZM66.4805 57.927L67.2679 60.5473L66.0038 60.9272L65.5617 59.4562L61.4245 60.6995L61.8666 62.1705L60.6025 62.5505L59.815 59.9302L60.2862 59.7886C60.5734 59.4935 60.6087 58.8188 60.3921 57.7645L59.7435 54.8143L64.214 53.4708L65.6301 58.1826L66.4805 57.927ZM61.6471 57.4375C61.8498 58.3622 61.8635 59.0055 61.6882 59.3673L64.3199 58.5764L63.2493 55.0138L61.2496 55.6147L61.6471 57.4375ZM66.6125 53.5269C66.9784 52.7987 67.5904 52.3057 68.4485 52.0479C69.3066 51.79 70.0851 51.8651 70.7842 52.2731C71.4908 52.6789 71.9812 53.3377 72.2552 54.2494C72.5292 55.1611 72.4832 55.981 72.1173 56.7091C71.7591 57.435 71.1509 57.9268 70.2928 58.1847C69.4347 58.4426 68.6523 58.3686 67.9456 57.9629C67.2466 57.5548 66.7601 56.8949 66.4861 55.9832C66.2121 55.0715 66.2542 54.2527 66.6125 53.5269ZM68.6474 56.8373C69.0368 57.1045 69.469 57.1667 69.944 57.024C70.419 56.8812 70.7414 56.5922 70.9113 56.1569C71.0889 55.7193 71.0925 55.217 70.9221 54.65C70.7517 54.0831 70.4718 53.666 70.0824 53.3987C69.7007 53.1292 69.2723 53.0658 68.7973 53.2086C68.3223 53.3513 67.996 53.6415 67.8185 54.0791C67.6486 54.5145 67.6488 55.0156 67.8192 55.5825C67.9896 56.1495 68.2656 56.5677 68.6474 56.8373ZM72.3976 51.0114L74.0525 50.514L77.1922 54.2066L77.776 49.395L79.4079 48.9046L81.1693 54.7656L79.9052 55.1455L78.6998 51.1347L78.14 55.651L77.1746 55.9411L74.2213 52.4932L75.4232 56.4925L74.1591 56.8724L72.3976 51.0114ZM84.7948 49.4408C84.6958 49.1114 84.5125 48.8908 84.245 48.7791C83.9829 48.6573 83.6795 48.6483 83.3347 48.7519C82.7141 48.9384 82.3951 49.2807 82.3778 49.7788L81.1366 50.1518C81.0766 49.6185 81.2077 49.1238 81.5301 48.6677C81.8578 48.2017 82.3665 47.8651 83.056 47.6578C83.7839 47.4391 84.4187 47.453 84.9606 47.6994C85.5101 47.9436 85.8862 48.4028 86.0888 49.077L87.2493 52.9384L86.0311 53.3045L85.8308 52.6379C85.5629 53.3032 85.0382 53.7532 84.2568 53.9881C83.6745 54.1631 83.1385 54.1446 82.6487 53.9326C82.1644 53.7106 81.8381 53.3199 81.67 52.7607C81.495 52.1784 81.5661 51.6642 81.8831 51.2181C82.2054 50.762 82.7344 50.4234 83.4699 50.2024L84.8949 49.7741L84.7948 49.4408ZM84.2229 52.833C84.6289 52.7109 84.9392 52.4924 85.1536 52.1774C85.3657 51.8547 85.4141 51.5018 85.299 51.1187L85.1919 50.7624L83.8588 51.1631C83.5141 51.2667 83.2601 51.4224 83.097 51.6301C82.9393 51.8279 82.8995 52.057 82.9778 52.3175C83.0561 52.578 83.2091 52.7534 83.4367 52.8437C83.662 52.9263 83.9241 52.9228 84.2229 52.833ZM91.348 45.3162L92.764 50.028L94.6947 49.4478L93.2787 44.736L94.5888 44.3422L96.3502 50.2033L88.5585 52.5449L86.7971 46.6839L88.1072 46.2902L89.5232 51.002L91.4539 50.4217L90.0379 45.7099L91.348 45.3162ZM99.0211 49.4006L97.711 49.7943L95.9495 43.9333L97.2597 43.5396L97.9919 45.9759L99.5121 42.8626L101.064 42.3964L99.3607 45.9028L102.859 48.247L101.274 48.7237L98.1991 46.6654L99.0211 49.4006ZM105.595 41.0344L107.009 40.6096L106.27 49.6154L104.868 50.0368L105.085 47.4655L101.102 42.3848L102.516 41.96L105.316 45.6918L105.595 41.0344ZM109.962 39.7221L115.065 38.1886L116.826 44.0497L115.516 44.4434L114.1 39.7316L111.617 40.4776L113.034 45.1894L111.723 45.5831L109.962 39.7221ZM117.095 38.3553C117.461 37.6272 118.073 37.1342 118.931 36.8763C119.789 36.6184 120.567 36.6935 121.266 37.1016C121.973 37.5074 122.464 38.1661 122.738 39.0779C123.012 39.9896 122.966 40.8095 122.6 41.5376C122.241 42.2634 121.633 42.7553 120.775 43.0132C119.917 43.2711 119.135 43.1971 118.428 42.7913C117.729 42.3833 117.242 41.7234 116.968 40.8117C116.694 39.8999 116.737 39.0812 117.095 38.3553ZM119.13 41.6657C119.519 41.933 119.951 41.9952 120.426 41.8525C120.901 41.7097 121.224 41.4207 121.394 40.9854C121.571 40.5477 121.575 40.0454 121.404 39.4785C121.234 38.9115 120.954 38.4945 120.565 38.2272C120.183 37.9577 119.755 37.8943 119.28 38.037C118.805 38.1798 118.478 38.47 118.301 38.9076C118.131 39.3429 118.131 39.8441 118.302 40.411C118.472 40.978 118.748 41.3962 119.13 41.6657ZM64.2347 72.3852L62.4733 66.5241L65.105 65.7332C65.7333 65.5444 66.2547 65.5423 66.6693 65.7267C67.084 65.9112 67.3581 66.2256 67.4916 66.67C67.5883 66.9918 67.5885 67.2841 67.492 67.547C67.401 67.7999 67.2543 68.0068 67.0521 68.1678C67.3763 68.1623 67.6748 68.2522 67.9476 68.4375C68.2282 68.6205 68.4249 68.8997 68.5377 69.2751C68.685 69.7655 68.622 70.223 68.3487 70.6476C68.0807 71.0623 67.6249 71.3663 66.9814 71.5597L64.2347 72.3852ZM66.0676 69.1028L64.7689 69.4931L65.2179 70.987L66.5165 70.5968C66.8077 70.5093 67.0103 70.3774 67.1244 70.2011C67.2438 70.0148 67.2679 69.8029 67.1965 69.5654C67.0491 69.0751 66.6728 68.9209 66.0676 69.1028ZM65.2481 66.7929L64.0644 67.1486L64.4719 68.5047L65.6556 68.149C65.9084 68.073 66.0854 67.953 66.1864 67.789C66.2952 67.6226 66.3173 67.4322 66.2528 67.2177C66.1193 66.7733 65.7844 66.6317 65.2481 66.7929ZM73.5098 63.2073L75.2712 69.0684L73.9841 69.4552L72.8133 65.5593L71.3294 70.253L70.0652 70.6329L68.3038 64.7719L69.5909 64.3851L70.7652 68.2924L72.2456 63.5872L73.5098 63.2073ZM82.3248 65.6955L83.1122 68.3158L81.8481 68.6957L81.406 67.2247L77.2688 68.468L77.7109 69.939L76.4467 70.319L75.6593 67.6987L76.1305 67.5571C76.4177 67.262 76.453 66.5873 76.2364 65.533L75.5878 62.5828L80.0583 61.2393L81.4744 65.9511L82.3248 65.6955ZM77.4913 65.206C77.6941 66.1307 77.7078 66.774 77.5325 67.1358L80.1642 66.3448L79.0936 62.7823L77.0939 63.3832L77.4913 65.206ZM86.0118 59.4501L86.7578 61.9324L88.0574 58.8353L89.5629 58.3829L88.1164 61.8248L91.3588 64.2335L89.8189 64.6963L86.9443 62.553L87.7732 65.3111L86.4861 65.6979L85.6572 62.9398L84.4405 66.3127L82.912 66.7721L84.2883 63.0129L81.1736 60.9041L82.6791 60.4517L85.4707 62.3192L84.7247 59.8369L86.0118 59.4501ZM96.1581 60.0095L92.0324 61.2494L92.0393 61.2724C92.1751 61.7244 92.4335 62.0561 92.8145 62.2674C93.1954 62.4787 93.6195 62.5141 94.0869 62.3737C94.4087 62.277 94.6534 62.1324 94.8211 61.94C94.9942 61.7376 95.0845 61.5517 95.0921 61.3824L96.3793 60.9956C96.4209 61.4676 96.2801 61.9443 95.957 62.4256C95.6415 62.9047 95.1199 63.2536 94.392 63.4723C93.5186 63.7348 92.7358 63.6735 92.0437 63.2884C91.3493 62.8957 90.8605 62.2281 90.5773 61.2858C90.2941 60.3434 90.3301 59.5181 90.6853 58.8099C91.0382 58.094 91.6322 57.6106 92.4673 57.3597C93.2717 57.1179 93.9947 57.1888 94.6363 57.5724C95.2778 57.956 95.731 58.5883 95.9958 59.4694L96.1581 60.0095ZM92.7839 58.4549C92.3702 58.5792 92.0699 58.8031 91.8831 59.1266C91.7039 59.4477 91.6585 59.8247 91.7468 60.2576L94.551 59.4149C94.4067 58.9905 94.1763 58.6963 93.8597 58.5325C93.5486 58.3587 93.1899 58.3328 92.7839 58.4549ZM95.8773 57.7382L95.5319 56.589L100.588 55.0693L100.934 56.2186L99.0606 56.7815L100.477 61.4933L99.1665 61.8871L97.7505 57.1753L95.8773 57.7382ZM105.403 55.7775C105.304 55.4481 105.121 55.2275 104.854 55.1157C104.592 54.994 104.288 54.985 103.943 55.0886C103.323 55.2751 103.004 55.6174 102.986 56.1155L101.745 56.4885C101.685 55.9552 101.816 55.4605 102.139 55.0044C102.466 54.5384 102.975 54.2017 103.665 53.9945C104.392 53.7758 105.027 53.7896 105.569 54.0361C106.119 54.2803 106.495 54.7395 106.697 55.4137L107.858 59.2751L106.64 59.6412L106.439 58.9746C106.172 59.6398 105.647 60.0899 104.865 60.3248C104.283 60.4997 103.747 60.4812 103.257 60.2692C102.773 60.0472 102.447 59.6566 102.279 59.0973C102.104 58.515 102.175 58.0008 102.492 57.5547C102.814 57.0986 103.343 56.7601 104.079 56.539L105.504 56.1108L105.403 55.7775ZM104.831 59.1696C105.238 59.0476 105.548 58.8291 105.762 58.514C105.974 58.1913 106.023 57.8384 105.908 57.4554L105.801 57.0991L104.467 57.4997C104.123 57.6034 103.869 57.759 103.706 57.9668C103.548 58.1645 103.508 58.3937 103.586 58.6542C103.665 58.9147 103.818 59.0901 104.045 59.1804C104.271 59.263 104.533 59.2594 104.831 59.1696ZM107.406 53.0206L109.061 52.5232L112.2 56.2158L112.784 51.4042L114.416 50.9137L116.177 56.7748L114.913 57.1547L113.708 53.1439L113.148 57.6601L112.183 57.9503L109.229 54.5024L110.431 58.5017L109.167 58.8816L107.406 53.0206Z" fill="#0F1414"/>
</g>
<defs>
<linearGradient id="paint0_linear_201_717" x1="69.8659" y1="-26.2586" x2="102.912" y2="83.7018" gradientUnits="userSpaceOnUse">
<stop stop-color="white"/>
<stop offset="1" stop-color="#F4F4F4"/>
</linearGradient>
<clipPath id="clip0_201_717">
<rect width="180" height="100" fill="white"/>
</clipPath>
</defs>
</svg>
