<svg width="180" height="100" viewBox="0 0 180 100" fill="none" xmlns="http://www.w3.org/2000/svg">
<path fill-rule="evenodd" clip-rule="evenodd" d="M36.931 29.6183C26.4757 33.1811 20.8882 44.5451 24.451 55.0004L32.6832 79.1583C36.246 89.6136 47.6099 95.2011 58.0653 91.6383L91.4416 80.2648C91.5049 80.3019 91.5701 80.337 91.637 80.3698L99.6046 84.2874C101.091 85.0185 102.889 84.4058 103.62 82.9189L107.538 74.9513C107.571 74.8844 107.601 74.8169 107.629 74.7489L140.723 63.4715C151.178 59.9087 156.766 48.5447 153.203 38.0894L144.971 13.9315C141.408 3.4762 130.044 -2.11129 119.589 1.45151L36.931 29.6183Z" fill="url(#paint0_linear_163_819)"/>
<path d="M40.8919 54.6733L39.5403 55.1339L36.8153 47.1374L38.167 46.6768L39.2856 49.9595L43.0794 48.6667L41.9608 45.384L43.3125 44.9234L46.0374 52.9199L44.6857 53.3805L43.4974 49.8934L39.7037 51.1862L40.8919 54.6733ZM51.7363 48.1635L47.6585 49.553L47.6663 49.5758C47.8185 50.0225 48.0889 50.3446 48.4772 50.5418C48.8656 50.7391 49.2908 50.759 49.7527 50.6016C50.0707 50.4932 50.3101 50.3399 50.4706 50.1414C50.6362 49.9329 50.7197 49.7439 50.7211 49.5743L51.9933 49.1408C52.0521 49.611 51.9288 50.0925 51.6234 50.5853C51.3256 51.0756 50.8171 51.4433 50.0977 51.6884C49.2344 51.9826 48.45 51.9499 47.7442 51.5903C47.036 51.2231 46.5231 50.5738 46.2057 49.6424C45.8883 48.711 45.8942 47.885 46.2233 47.1643C46.5499 46.436 47.1259 45.9313 47.9513 45.65C48.7464 45.3791 49.4715 45.4236 50.1266 45.7835C50.7817 46.1434 51.2576 46.7588 51.5544 47.6296L51.7363 48.1635ZM48.3076 46.733C47.8987 46.8723 47.6068 47.107 47.4319 47.437C47.2646 47.7645 47.233 48.1429 47.337 48.5723L50.1085 47.6279C49.9489 47.209 49.7079 46.9235 49.3856 46.7713C49.0683 46.609 48.709 46.5962 48.3076 46.733ZM54.156 45.5007C54.0282 44.9273 54.1348 44.4092 54.4758 43.9465C54.8243 43.4812 55.3166 43.1402 55.9527 42.9234C56.5736 42.7118 57.1364 42.6891 57.6409 42.8552C58.1455 43.0214 58.4829 43.3543 58.6532 43.8541C58.8597 44.4599 58.7227 44.9756 58.2423 45.4013C58.5432 45.3664 58.8383 45.4264 59.1277 45.5814C59.4222 45.7261 59.6352 45.9916 59.7668 46.3778C59.95 46.9154 59.875 47.427 59.5417 47.9124C59.2161 48.3953 58.7011 48.7567 57.9969 48.9967C57.3154 49.2289 56.6958 49.2583 56.138 49.085C55.5803 48.9116 55.1655 48.5501 54.8937 48.0004L56.1545 47.5707C56.3002 47.8 56.5023 47.9466 56.7608 48.0107C57.0243 48.0646 57.315 48.0373 57.6331 47.9289C57.9662 47.8154 58.2081 47.6569 58.3585 47.4535C58.5064 47.2426 58.5377 47.0122 58.4525 46.7623C58.2926 46.2928 57.8529 46.1806 57.1335 46.4257L56.2816 46.716L55.9332 45.6938L56.717 45.4267C57.0199 45.3235 57.2302 45.1842 57.3479 45.0088C57.4707 44.8233 57.4933 44.617 57.4159 44.3898C57.3411 44.1702 57.1959 44.0295 56.9805 43.9677C56.7726 43.9033 56.5286 43.9189 56.2484 44.0143C55.9531 44.115 55.7327 44.2619 55.5872 44.4552C55.4418 44.6484 55.3774 44.8563 55.3941 45.0788L54.156 45.5007ZM62.6516 47.2584L61.3567 47.6996L59.3827 41.9067L60.6776 41.4655L61.4362 43.6918L63.9238 42.8441L63.1651 40.6178L64.46 40.1766L66.434 45.9695L65.1391 46.4107L64.3147 43.9913L61.8272 44.839L62.6516 47.2584ZM69.8618 40.5163C69.7509 40.1907 69.5597 39.977 69.2883 39.8751C69.022 39.763 68.7184 39.765 68.3776 39.8811C67.7643 40.0901 67.458 40.4438 67.4588 40.9422L66.232 41.3603C66.1526 40.8295 66.2656 40.3304 66.5712 39.8628C66.8817 39.3851 67.3777 39.0302 68.0592 38.7979C68.7786 38.5528 69.4135 38.5435 69.964 38.77C70.5221 38.994 70.9147 39.4392 71.1418 40.1056L72.4423 43.9221L71.2383 44.3323L71.0138 43.6735C70.7703 44.3481 70.2624 44.817 69.4901 45.0802C68.9145 45.2763 68.3782 45.2774 67.8811 45.0833C67.3889 44.8792 67.0486 44.5007 66.8603 43.9479C66.6642 43.3724 66.7164 42.856 67.0169 42.3986C67.3224 41.9311 67.8387 41.5734 68.5656 41.3257L69.9741 40.8457L69.8618 40.5163ZM69.4141 43.9271C69.8154 43.7903 70.1174 43.5606 70.3202 43.238C70.5204 42.9077 70.556 42.5533 70.427 42.1747L70.307 41.8226L68.9894 42.2716C68.6486 42.3877 68.4005 42.5525 68.2451 42.7661C68.0947 42.9695 68.0633 43.1999 68.151 43.4574C68.2388 43.7148 68.398 43.8845 68.6288 43.9665C68.857 44.0408 69.1187 44.0277 69.4141 43.9271ZM77.9543 39.2293L73.8766 40.6189L73.8843 40.6416C74.0365 41.0884 74.3069 41.4104 74.6953 41.6077C75.0836 41.8049 75.5088 41.8249 75.9707 41.6675C76.2888 41.5591 76.5281 41.4057 76.6887 41.2073C76.8542 40.9987 76.9377 40.8097 76.9391 40.6402L78.2113 40.2067C78.2701 40.6768 78.1468 41.1583 77.8414 41.6512C77.5437 42.1414 77.0351 42.5091 76.3157 42.7543C75.4524 43.0484 74.668 43.0157 73.9623 42.6561C73.254 42.289 72.7411 41.6397 72.4237 40.7083C72.1064 39.7769 72.1122 38.9508 72.4414 38.2301C72.7679 37.5019 73.3439 36.9971 74.1693 36.7159C74.9644 36.4449 75.6895 36.4894 76.3446 36.8493C76.9997 37.2093 77.4756 37.8246 77.7724 38.6955L77.9543 39.2293ZM74.5256 37.7988C74.1167 37.9381 73.8248 38.1728 73.6499 38.5029C73.4826 38.8304 73.451 39.2088 73.555 39.6382L76.3266 38.6937C76.1669 38.2748 75.9259 37.9893 75.6036 37.8371C75.2863 37.6748 74.927 37.662 74.5256 37.7988ZM82.3447 34.0821L83.9316 38.7391L85.8399 38.0889L84.2529 33.4318L85.5478 32.9906L87.5218 38.7835L79.8207 41.4078L77.8467 35.6149L79.1416 35.1736L80.7285 39.8306L82.6368 39.1804L81.0498 34.5233L82.3447 34.0821ZM88.1763 32.0949L88.7762 33.8555L89.9348 33.4607C90.5785 33.2413 91.1579 33.2552 91.6731 33.5022C92.1857 33.7417 92.5414 34.1529 92.7401 34.736C92.9414 35.3266 92.9109 35.8822 92.6488 36.4025C92.3916 36.9127 91.945 37.2762 91.3089 37.493L88.8668 38.3252L86.8928 32.5323L88.1763 32.0949ZM90.1474 34.6053L89.1478 34.9459L89.7826 36.8087L90.7821 36.4681C91.0926 36.3623 91.304 36.1889 91.4162 35.9478C91.536 35.7041 91.5495 35.446 91.4566 35.1734C91.3637 34.9008 91.198 34.7121 90.9595 34.6075C90.7285 34.5002 90.4578 34.4995 90.1474 34.6053ZM95.8188 35.2209C95.8807 35.4026 95.9099 35.6124 95.9065 35.8502L95.8334 37.9796L94.8452 38.3163L94.885 36.3124C94.4826 36.2974 94.2208 36.1119 94.0995 35.756C94.0195 35.5213 94.0332 35.3011 94.1406 35.0955C94.2481 34.8898 94.4229 34.7457 94.6652 34.6631C94.9076 34.5806 95.1404 34.5942 95.3638 34.704C95.5845 34.8063 95.7362 34.9786 95.8188 35.2209ZM100.484 34.3665L99.1889 34.8078L97.2149 29.0149L98.5098 28.5736L99.3304 30.9816L100.736 27.815L102.269 27.2924L100.696 30.8587L104.278 33.0737L102.71 33.6079L99.5626 31.6631L100.484 34.3665ZM106.951 27.8777C106.84 27.5521 106.649 27.3384 106.377 27.2364C106.111 27.1244 105.807 27.1264 105.467 27.2425C104.853 27.4515 104.547 27.8052 104.548 28.3036L103.321 28.7216C103.242 28.1909 103.355 27.6917 103.66 27.2242C103.971 26.7465 104.467 26.3916 105.148 26.1593C105.868 25.9142 106.503 25.9049 107.053 26.1314C107.611 26.3554 108.004 26.8006 108.231 27.4669L109.531 31.2834L108.327 31.6937L108.103 31.0349C107.859 31.7095 107.351 32.1784 106.579 32.4416C106.004 32.6377 105.467 32.6387 104.97 32.4447C104.478 32.2406 104.138 31.8621 103.949 31.3093C103.753 30.7338 103.805 30.2174 104.106 29.76C104.411 29.2924 104.928 28.9348 105.655 28.6871L107.063 28.2071L106.951 27.8777ZM106.503 31.2885C106.904 31.1517 107.206 30.922 107.409 30.5993C107.609 30.2691 107.645 29.9147 107.516 29.5361L107.396 29.184L106.078 29.633C105.738 29.7491 105.49 29.9139 105.334 30.1275C105.184 30.3309 105.152 30.5613 105.24 30.8187C105.328 31.0762 105.487 31.2459 105.718 31.3279C105.946 31.4022 106.208 31.3891 106.503 31.2885ZM112.12 30.4012L110.825 30.8425L108.851 25.0496L110.146 24.6083L110.967 27.0164L112.372 23.8497L113.906 23.3272L112.332 26.8934L115.914 29.1085L114.346 29.6426L111.199 27.6979L112.12 30.4012ZM43.2746 66.539L41.3006 60.7461L43.9017 59.8597C44.5226 59.6481 45.0436 59.6269 45.4647 59.7961C45.8858 59.9654 46.1712 60.2696 46.3208 60.7088C46.4292 61.0268 46.44 61.3189 46.3533 61.5852C46.2715 61.8412 46.1325 62.0534 45.9363 62.2217C46.26 62.2043 46.5616 62.2833 46.841 62.4585C47.1281 62.6312 47.3348 62.903 47.4612 63.274C47.6264 63.7587 47.5801 64.2182 47.3224 64.6525C47.0697 65.0767 46.6254 65.3971 45.9893 65.6139L43.2746 66.539ZM44.9865 63.1919L43.7029 63.6293L44.2061 65.1059L45.4896 64.6685C45.7774 64.5705 45.9751 64.4313 46.0826 64.2509C46.1952 64.0604 46.2115 63.8478 46.1315 63.6131C45.9664 63.1284 45.5847 62.988 44.9865 63.1919ZM44.0833 60.9134L42.9133 61.3121L43.3701 62.6524L44.54 62.2538C44.7899 62.1686 44.9623 62.0422 45.0574 61.8746C45.16 61.7044 45.1751 61.5133 45.1029 61.3013C44.9532 60.8621 44.6133 60.7328 44.0833 60.9134ZM48.3468 58.345L48.9467 60.1055L50.1053 59.7107C50.749 59.4914 51.3284 59.5052 51.8436 59.7523C52.3563 59.9917 52.7119 60.403 52.9106 60.9861C53.1119 61.5767 53.0814 62.1322 52.8193 62.6526C52.5621 63.1628 52.1155 63.5263 51.4794 63.7431L49.0373 64.5752L47.0633 58.7823L48.3468 58.345ZM53.6513 56.5374L55.6253 62.3303L54.3418 62.7677L52.3678 56.9748L53.6513 56.5374ZM50.3179 60.8554L49.3183 61.196L49.9531 63.0588L50.9527 62.7182C51.2631 62.6124 51.4745 62.4389 51.5867 62.1978C51.7065 61.9542 51.72 61.696 51.6271 61.4234C51.5342 61.1508 51.3685 60.9622 51.13 60.8575C50.8991 60.7503 50.6284 60.7496 50.3179 60.8554ZM54.989 56.0815L60.0323 54.363L62.0063 60.1559L60.7114 60.5971L59.1244 55.9401L56.671 56.7761L58.2579 61.4332L56.963 61.8744L54.989 56.0815ZM62.0672 54.4555C62.4064 53.7145 63 53.1995 63.8481 52.9105C64.6962 52.6215 65.477 52.6682 66.1904 53.0505C66.9115 53.4302 67.4255 54.0706 67.7326 54.9718C68.0396 55.8729 68.0236 56.6939 67.6845 57.4349C67.3529 58.1733 66.7631 58.687 65.915 58.976C65.0669 59.265 64.2823 59.2197 63.5613 58.84C62.8479 58.4576 62.3376 57.8159 62.0305 56.9148C61.7235 56.0137 61.7357 55.1939 62.0672 54.4555ZM64.2215 57.6895C64.6204 57.9424 65.0546 57.9888 65.5241 57.8288C65.9936 57.6688 66.3053 57.3682 66.4592 56.927C66.6206 56.4832 66.6059 55.9811 66.415 55.4208C66.224 54.8604 65.9291 54.4538 65.5302 54.2009C65.1389 53.9455 64.7085 53.8978 64.239 54.0578C63.7695 54.2177 63.4541 54.5196 63.2926 54.9634C63.1387 55.4047 63.1572 55.9055 63.3481 56.4658C63.5391 57.0262 63.8302 57.4341 64.2215 57.6895ZM69.0365 57.7856L68.6494 56.6497L68.8312 56.5878C69.1492 56.4794 69.3429 56.3162 69.4123 56.0982C69.4867 55.87 69.4667 55.5261 69.3523 55.0664L68.4518 51.4939L72.7113 50.0424L74.6853 55.8353L73.3904 56.2765L71.8035 51.6195L69.9748 52.2427L70.61 54.7392C70.8203 55.555 70.8271 56.195 70.6304 56.6593C70.4386 57.1134 70.0247 57.4488 69.3886 57.6656L69.0365 57.7856ZM77.332 54.9334L76.0371 55.3747L74.0631 49.5818L75.358 49.1405L76.1166 51.3668L78.6041 50.5191L77.8455 48.2928L79.1404 47.8516L81.1144 53.6445L79.8195 54.0857L78.9951 51.6664L76.5075 52.514L77.332 54.9334ZM86.8501 51.69L85.5665 52.1274L84.9279 50.2532L84.0533 50.5512L83.363 52.8783L81.9091 53.3737L82.6699 50.8071C82.2598 50.7694 81.8996 50.6301 81.5894 50.3893C81.2841 50.1384 81.0644 49.816 80.9302 49.4222C80.7367 48.8543 80.7635 48.3254 81.0107 47.8355C81.2629 47.3354 81.7259 46.9705 82.3999 46.7409L84.876 45.8971L86.8501 51.69ZM82.2657 48.2445C82.1407 48.473 82.1247 48.7236 82.2176 48.9962C82.3105 49.2688 82.4762 49.4575 82.7147 49.5621C82.9532 49.6668 83.2277 49.6662 83.5382 49.5604L84.5718 49.2082L83.9525 47.3908L82.9189 47.743C82.6084 47.8488 82.3907 48.016 82.2657 48.2445ZM86.1535 46.7295L85.7665 45.5937L90.7643 43.8906L91.1513 45.0265L89.2999 45.6574L90.8868 50.3144L89.5919 50.7557L88.005 46.0986L86.1535 46.7295ZM92.9343 43.1511L93.5342 44.9117L94.6928 44.5169C95.3365 44.2976 95.9159 44.3114 96.4311 44.5584C96.9437 44.7979 97.2994 45.2091 97.4981 45.7922C97.6994 46.3829 97.6689 46.9384 97.4068 47.4588C97.1496 47.969 96.703 48.3325 96.0669 48.5492L93.6248 49.3814L91.6508 43.5885L92.9343 43.1511ZM94.9054 45.6615L93.9058 46.0021L94.5406 47.865L95.5401 47.5243C95.8506 47.4185 96.062 47.2451 96.1742 47.004C96.294 46.7603 96.3075 46.5022 96.2146 46.2296C96.1217 45.957 95.956 45.7684 95.7175 45.6637C95.4865 45.5565 95.2158 45.5557 94.9054 45.6615ZM45.1039 73.3954L44.7168 72.2595L49.7146 70.5564L50.1017 71.6923L48.2502 72.3232L49.8372 76.9803L48.5423 77.4215L46.9553 72.7645L45.1039 73.3954ZM56.5713 71.8711L52.4936 73.2606L52.5013 73.2833C52.6536 73.7301 52.9239 74.0521 53.3123 74.2494C53.7006 74.4467 54.1258 74.4666 54.5877 74.3092C54.9058 74.2008 55.1451 74.0474 55.3057 73.849C55.4712 73.6405 55.5547 73.4514 55.5561 73.2819L56.8283 72.8484C56.8871 73.3186 56.7638 73.8001 56.4585 74.2929C56.1607 74.7832 55.6521 75.1509 54.9327 75.396C54.0695 75.6902 53.285 75.6575 52.5793 75.2979C51.871 74.9307 51.3581 74.2814 51.0408 73.35C50.7234 72.4186 50.7292 71.5926 51.0584 70.8719C51.3849 70.1436 51.9609 69.6389 52.7863 69.3576C53.5814 69.0867 54.3065 69.1311 54.9616 69.4911C55.6167 69.851 56.0927 70.4664 56.3894 71.3372L56.5713 71.8711ZM53.1426 70.4405C52.7337 70.5799 52.4418 70.8146 52.2669 71.1446C52.0996 71.4721 52.068 71.8505 52.1721 72.2799L54.9436 71.3355C54.7839 70.9166 54.5429 70.6311 54.2206 70.4789C53.9033 70.3166 53.544 70.3038 53.1426 70.4405ZM60.5807 72.1909C60.9594 72.0619 61.2187 71.8679 61.3586 71.6089C61.5061 71.3474 61.5688 71.0724 61.5466 70.7842L62.8074 70.3545C62.9406 70.9684 62.8458 71.5585 62.5233 72.1248C62.2007 72.6911 61.6797 73.0969 60.9603 73.342C60.1198 73.6284 59.3466 73.5792 58.6407 73.1943C57.9322 72.8019 57.4258 72.1588 57.1213 71.2653C56.8194 70.3793 56.8253 69.5659 57.1392 68.8251C57.4606 68.0817 58.0453 67.5655 58.8934 67.2765C59.6279 67.0262 60.2895 67.0332 60.8782 67.2974C61.4644 67.5541 61.892 67.9535 62.1613 68.4956L60.9005 68.9252C60.7295 68.6962 60.507 68.5269 60.233 68.4174C59.964 68.2978 59.6478 68.2999 59.2843 68.4237C58.83 68.5786 58.5259 68.8766 58.372 69.3178C58.2256 69.7564 58.2479 70.256 58.4389 70.8163C58.6324 71.3842 58.9248 71.7959 59.3161 72.0514C59.7049 72.2992 60.1264 72.3457 60.5807 72.1909ZM62.2922 67.5382L61.9052 66.4023L66.903 64.6993L67.29 65.8351L65.4386 66.466L67.0255 71.1231L65.7306 71.5643L64.1437 66.9073L62.2922 67.5382ZM68.2619 65.0222C68.6011 64.2812 69.1947 63.7662 70.0428 63.4772C70.8909 63.1882 71.6717 63.2348 72.3851 63.6172C73.1061 63.9969 73.6202 64.6373 73.9273 65.5384C74.2343 66.4395 74.2183 67.2606 73.8792 68.0016C73.5476 68.74 72.9578 69.2537 72.1097 69.5427C71.2616 69.8317 70.477 69.7863 69.756 69.4066C69.0426 69.0243 68.5323 68.3826 68.2252 67.4815C67.9182 66.5804 67.9304 65.7606 68.2619 65.0222ZM70.4162 68.2562C70.8151 68.509 71.2493 68.5555 71.7188 68.3955C72.1883 68.2355 72.5 67.9349 72.6539 67.4937C72.8153 67.0499 72.8006 66.5478 72.6097 65.9874C72.4187 65.4271 72.1238 65.0204 71.7249 64.7676C71.3336 64.5122 70.9032 64.4644 70.4337 64.6244C69.9642 64.7844 69.6487 65.0863 69.4873 65.5301C69.3334 65.9713 69.3519 66.4721 69.5428 67.0325C69.7338 67.5928 70.0249 68.0007 70.4162 68.2562ZM75.9255 68.0903L73.9515 62.2974L76.5526 61.411C77.1736 61.1994 77.6946 61.1782 78.1157 61.3474C78.5368 61.5167 78.8222 61.8209 78.9718 62.2601C79.0802 62.5781 79.091 62.8702 79.0042 63.1365C78.9225 63.3925 78.7835 63.6047 78.5873 63.773C78.911 63.7556 79.2125 63.8346 79.492 64.0098C79.779 64.1825 79.9858 64.4543 80.1122 64.8254C80.2773 65.31 80.2311 65.7695 79.9734 66.2038C79.7207 66.628 79.2763 66.9484 78.6402 67.1652L75.9255 68.0903ZM77.6374 64.7432L76.3539 65.1806L76.8571 66.6572L78.1406 66.2198C78.4284 66.1218 78.626 65.9826 78.7336 65.8022C78.8462 65.6117 78.8625 65.3991 78.7825 65.1644C78.6173 64.6797 78.2357 64.5393 77.6374 64.7432ZM76.7342 62.4647L75.5643 62.8634L76.021 64.2037L77.191 63.8051C77.4409 63.7199 77.6133 63.5935 77.7083 63.4259C77.8109 63.2557 77.8261 63.0646 77.7538 62.8526C77.6042 62.4134 77.2643 62.2841 76.7342 62.4647ZM80.9978 59.8963L81.5977 61.6568L82.7563 61.262C83.4 61.0427 83.9794 61.0565 84.4946 61.3036C85.0072 61.543 85.3629 61.9543 85.5616 62.5374C85.7629 63.128 85.7324 63.6835 85.4703 64.2039C85.2131 64.7141 84.7665 65.0776 84.1304 65.2944L81.6883 66.1265L79.7143 60.3336L80.9978 59.8963ZM86.3023 58.0887L88.2763 63.8816L86.9927 64.319L85.0187 58.5261L86.3023 58.0887ZM82.9689 62.4067L81.9693 62.7473L82.6041 64.6101L83.6036 64.2695C83.9141 64.1637 84.1255 63.9902 84.2377 63.7491C84.3575 63.5055 84.371 63.2473 84.2781 62.9747C84.1852 62.7021 84.0195 62.5135 83.781 62.4088C83.55 62.3016 83.2793 62.3009 82.9689 62.4067ZM93.832 59.1739L89.7543 60.5635L89.762 60.5862C89.9143 61.033 90.1846 61.355 90.573 61.5523C90.9614 61.7495 91.3865 61.7695 91.8484 61.6121C92.1665 61.5037 92.4058 61.3503 92.5664 61.1519C92.732 60.9433 92.8155 60.7543 92.8169 60.5848L94.089 60.1513C94.1478 60.6215 94.0245 61.103 93.7192 61.5958C93.4214 62.086 92.9128 62.4537 92.1934 62.6989C91.3302 62.993 90.5457 62.9603 89.84 62.6007C89.1317 62.2336 88.6189 61.5843 88.3015 60.6529C87.9841 59.7215 87.99 58.8954 88.3191 58.1747C88.6456 57.4465 89.2216 56.9417 90.047 56.6605C90.8421 56.3895 91.5672 56.434 92.2223 56.7939C92.8774 57.1539 93.3534 57.7693 93.6501 58.6401L93.832 59.1739ZM90.4034 57.7434C89.9945 57.8828 89.7026 58.1174 89.5277 58.4475C89.3603 58.775 89.3287 59.1534 89.4328 59.5828L92.2043 58.6384C92.0446 58.2195 91.8037 57.9339 91.4813 57.7818C91.164 57.6194 90.8047 57.6066 90.4034 57.7434ZM96.928 54.303C96.8248 54.0001 96.6273 53.7927 96.3356 53.6808C96.0515 53.5663 95.7277 53.571 95.3642 53.6949C94.6222 53.9478 94.2789 54.4535 94.3346 55.2121L93.0738 55.6417C92.9302 54.9723 93.0259 54.348 93.3611 53.769C93.6962 53.1899 94.2386 52.7727 94.9883 52.5172C95.7531 52.2566 96.4273 52.2508 97.0108 52.4999C97.6019 52.7464 98.002 53.1764 98.211 53.7897C98.2884 54.0169 98.3304 54.2393 98.3369 54.4568C98.3434 54.6743 98.3357 54.8502 98.3138 54.9844C98.2995 55.1161 98.2374 55.2809 98.1274 55.479C98.0224 55.6669 97.9473 55.7939 97.9023 55.86C97.8546 55.9185 97.758 56.0443 97.6126 56.2376C97.595 56.2605 97.5574 56.3113 97.4997 56.3901C97.4421 56.4689 97.4045 56.5198 97.3869 56.5427C97.3694 56.5656 97.3355 56.6151 97.2854 56.6914C97.2404 56.7574 97.2103 56.8057 97.1953 56.8362C97.1854 56.8565 97.1667 56.9009 97.1393 56.9693C97.1094 57.0303 97.092 57.0784 97.0871 57.1139C97.0823 57.1494 97.0738 57.1987 97.0616 57.2621C97.0493 57.3254 97.0447 57.3861 97.0476 57.4443C97.0555 57.4923 97.066 57.5479 97.0791 57.6111C97.0921 57.6742 97.1103 57.7399 97.1335 57.808L97.2109 58.0352L95.9842 58.4532L95.8681 58.1125C95.7571 57.7869 95.7147 57.4886 95.7407 57.2178C95.7717 56.9367 95.8347 56.7124 95.9297 56.5448C96.0222 56.3696 96.18 56.1384 96.4032 55.851C96.5712 55.6247 96.6915 55.4569 96.7642 55.3477C96.8418 55.2282 96.9028 55.0723 96.947 54.8797C96.9988 54.6845 96.9925 54.4923 96.928 54.303ZM96.4438 59.6531C96.5562 59.4373 96.7298 59.2895 96.9645 59.2095C97.1993 59.1295 97.4232 59.1419 97.6364 59.2467C97.8572 59.349 98.0076 59.5175 98.0876 59.7522C98.1676 59.987 98.1527 60.216 98.0429 60.4394C97.938 60.6526 97.7682 60.7992 97.5335 60.8792C97.2987 60.9592 97.071 60.948 96.8502 60.8458C96.6344 60.7334 96.4865 60.5598 96.4065 60.3251C96.3265 60.0903 96.339 59.8663 96.4438 59.6531Z" fill="#0F1414"/>
<defs>
<linearGradient id="paint0_linear_163_819" x1="76.2798" y1="1.96157" x2="99.6273" y2="70.4765" gradientUnits="userSpaceOnUse">
<stop stop-color="#F9F9F9"/>
<stop offset="1" stop-color="#F4F4F4"/>
</linearGradient>
</defs>
</svg>
