<svg width="190" height="120" viewBox="0 0 190 120" fill="none" xmlns="http://www.w3.org/2000/svg">
<g clip-path="url(#clip0_201_724)">
<path fill-rule="evenodd" clip-rule="evenodd" d="M160.853 32.2519C174.623 36.3904 182.431 50.9084 178.293 64.6788L170.517 90.552C166.379 104.322 151.861 112.131 138.09 107.992L97.1356 95.6841C95.6116 95.2261 93.9682 95.3922 92.5667 96.146L81.8816 101.893C78.9632 103.462 75.325 102.369 73.7554 99.4506L68.0086 88.7655C67.2549 87.364 65.9753 86.3194 64.4513 85.8614L32.4144 76.2333C18.6439 72.0949 10.8357 57.5769 14.9741 43.8064L22.7498 17.9332C26.8883 4.16279 41.4063 -3.64548 55.1767 0.492972L160.853 32.2519Z" fill="url(#paint0_linear_201_724)"/>
<path d="M40.9195 21.9342L43.3916 13.856L46.5127 14.8112C47.3007 15.0523 47.8518 15.4385 48.1661 15.9697C48.4827 16.4933 48.5474 17.0611 48.3601 17.6731C48.2243 18.1168 48.0064 18.46 47.7062 18.7028C47.4083 18.9379 47.0953 19.0722 46.7672 19.1056C47.0939 19.3228 47.3459 19.6341 47.5229 20.0397C47.7 20.4452 47.7066 20.9158 47.5427 21.4513C47.3344 22.1321 46.9199 22.6118 46.2992 22.8904C45.6808 23.1613 44.9624 23.1715 44.1439 22.921L40.9195 21.9342ZM45.1362 19.3093L43.3806 18.772L42.6431 21.1817L44.3529 21.7049C44.7966 21.8407 45.1801 21.8451 45.5034 21.7182C45.8366 21.5859 46.0618 21.3285 46.1789 20.946C46.2936 20.5712 46.2537 20.2369 46.0591 19.9431C45.8722 19.6516 45.5646 19.4404 45.1362 19.3093ZM45.9595 15.9219L44.3989 15.4443L43.7247 17.6475L45.3426 18.1426C45.7481 18.2667 46.0883 18.2621 46.3634 18.1287C46.6408 17.9877 46.8298 17.7527 46.9305 17.4238C47.0358 17.0796 47.003 16.7767 46.8321 16.5152C46.6634 16.2461 46.3726 16.0483 45.9595 15.9219ZM50.7176 23.8158C51.1 23.9329 51.4238 23.9274 51.6889 23.7993C51.9616 23.6736 52.1734 23.4875 52.3241 23.2408L53.5978 23.6306C53.3464 24.2062 52.9241 24.6291 52.3311 24.8994C51.738 25.1697 51.0781 25.1936 50.3514 24.9712C49.5023 24.7114 48.9042 24.2188 48.5573 23.4936C48.2127 22.7606 48.1785 21.9428 48.4547 21.0401C48.7286 20.1451 49.2096 19.4892 49.8978 19.0723C50.5935 18.6577 51.3698 18.5816 52.2266 18.8438C52.9686 19.0708 53.5009 19.4638 53.8235 20.0227C54.1484 20.5739 54.2613 21.1481 54.1623 21.7452L52.8886 21.3554C52.884 21.0696 52.8027 20.8021 52.6447 20.5529C52.4967 20.2985 52.2391 20.1151 51.8719 20.0027C51.4129 19.8622 50.9919 19.9258 50.6088 20.1934C50.2334 20.4634 49.959 20.8814 49.7858 21.4475C49.6102 22.0212 49.6063 22.5262 49.774 22.9623C49.944 23.3909 50.2586 23.6754 50.7176 23.8158ZM59.869 24.9473L55.7495 23.6867L55.7425 23.7096C55.6044 24.161 55.635 24.5803 55.8344 24.9676C56.0338 25.3549 56.3668 25.6199 56.8335 25.7627C57.1548 25.8611 57.4386 25.8768 57.6849 25.81C57.9413 25.7378 58.1196 25.6334 58.22 25.4968L59.5052 25.8901C59.2776 26.3057 58.8957 26.6239 58.3597 26.8447C57.8312 27.0678 57.2037 27.0682 56.4769 26.8458C55.6049 26.5789 54.988 26.0932 54.6264 25.3885C54.2671 24.6762 54.2314 23.8496 54.5194 22.9086C54.8073 21.9677 55.2957 21.3014 55.9844 20.9098C56.6755 20.5106 57.438 20.4386 58.2718 20.6937C59.075 20.9395 59.6368 21.4001 59.9572 22.0754C60.2776 22.7508 60.3032 23.5283 60.034 24.408L59.869 24.9473ZM57.9267 21.7803C57.5136 21.6539 57.1396 21.6733 56.8046 21.8385C56.4772 22.006 56.23 22.2943 56.063 22.7034L58.8628 23.5602C58.9786 23.1271 58.9504 22.7545 58.7782 22.4425C58.616 22.1251 58.3321 21.9044 57.9267 21.7803ZM57.1463 18.0152C57.3462 17.909 57.557 17.8898 57.7788 17.9577C58.0007 18.0256 58.1609 18.1583 58.2594 18.3558C58.3679 18.5479 58.3894 18.7511 58.3238 18.9653C58.2583 19.1795 58.1256 19.3397 57.9258 19.4459C57.736 19.5467 57.5301 19.5632 57.3083 19.4953C57.0864 19.4274 56.9213 19.2974 56.8128 19.1052C56.7142 18.9078 56.6977 18.7019 56.7633 18.4877C56.8288 18.2735 56.9565 18.116 57.1463 18.0152ZM59.579 18.7596C59.7788 18.6534 59.9896 18.6343 60.2115 18.7022C60.4333 18.7701 60.5935 18.9027 60.692 19.1002C60.8005 19.2924 60.822 19.4956 60.7565 19.7098C60.6909 19.924 60.5583 20.0841 60.3584 20.1903C60.1686 20.2912 59.9628 20.3077 59.7409 20.2398C59.5191 20.1719 59.3539 20.0419 59.2454 19.8497C59.1469 19.6522 59.1304 19.4464 59.1959 19.2322C59.2615 19.018 59.3892 18.8605 59.579 18.7596ZM64.1671 22.6484L69.2619 24.2076L67.471 30.0597L66.1628 29.6594L67.6026 24.9547L65.124 24.1962L63.6843 28.9009L62.3762 28.5005L64.1671 22.6484ZM70.8575 25.4739C71.5662 25.0717 72.349 25.0017 73.2058 25.2639C74.0625 25.5261 74.6682 26.021 75.0228 26.7486C75.3851 27.4786 75.4269 28.2987 75.1483 29.2091C74.8697 30.1194 74.3761 30.7757 73.6674 31.1779C72.9663 31.5824 72.1874 31.6536 71.3306 31.3914C70.4738 31.1292 69.8643 30.6331 69.502 29.9032C69.1474 29.1756 69.1094 28.3566 69.388 27.4463C69.6666 26.5359 70.1564 25.8785 70.8575 25.4739ZM70.7108 29.357C70.8861 29.7955 71.211 30.0873 71.6853 30.2325C72.1595 30.3776 72.5882 30.3164 72.9713 30.0488C73.362 29.7835 73.644 29.3678 73.8173 28.8017C73.9905 28.2356 73.9894 27.7333 73.8141 27.2948C73.6464 26.8587 73.3254 26.568 72.8511 26.4229C72.3768 26.2777 71.9443 26.3378 71.5536 26.6031C71.1705 26.8707 70.8923 27.2875 70.7191 27.8536C70.5458 28.4197 70.5431 28.9208 70.7108 29.357ZM81.5829 33.1234L80.7823 35.7396L79.52 35.3533L79.9695 33.8846L75.8386 32.6204L75.3892 34.0892L74.1269 33.7029L74.9276 31.0867L75.398 31.2306C75.8008 31.1447 76.2049 30.6033 76.6104 29.6063L77.7098 26.7929L82.1735 28.1589L80.7338 32.8635L81.5829 33.1234ZM77.8356 30.0315C77.4906 30.9131 77.1447 31.4556 76.7979 31.659L79.4257 32.4632L80.5142 28.906L78.5176 28.295L77.8356 30.0315ZM87.0241 29.4927C87.7508 29.7151 88.2797 30.1739 88.6107 30.8692C88.9494 31.5669 88.9724 32.3938 88.6798 33.35C88.3872 34.3063 87.9015 34.9775 87.2227 35.3638C86.5516 35.7524 85.8489 35.8344 85.1145 35.6096C84.7091 35.4856 84.3756 35.304 84.1141 35.065C83.8625 34.8207 83.6992 34.5616 83.6241 34.2876L82.7532 37.1334L81.4451 36.733L83.9067 28.6893L85.1689 29.0755L84.9372 29.8329C85.487 29.3486 86.1826 29.2352 87.0241 29.4927ZM85.2511 34.384C85.7101 34.5244 86.13 34.4647 86.5107 34.2047C86.9015 33.9394 87.1846 33.5199 87.3602 32.9462C87.5334 32.3801 87.5324 31.8778 87.357 31.4393C87.1893 31.0031 86.876 30.7148 86.417 30.5744C85.9503 30.4316 85.5228 30.489 85.1344 30.7466C84.7484 30.9966 84.4676 31.4084 84.292 31.9822L84.2779 32.0281C84.1024 32.6018 84.1034 33.1041 84.2811 33.535C84.4612 33.9582 84.7845 34.2412 85.2511 34.384ZM90.8325 31.5868C91.5412 31.1846 92.3239 31.1146 93.1807 31.3768C94.0375 31.639 94.6432 32.1339 94.9978 32.8615C95.36 33.5914 95.4019 34.4116 95.1233 35.3219C94.8447 36.2322 94.351 36.8885 93.6423 37.2907C92.9413 37.6953 92.1623 37.7665 91.3055 37.5043C90.4488 37.2421 89.8393 36.746 89.477 36.016C89.1224 35.2884 89.0844 34.4694 89.363 33.5591C89.6416 32.6488 90.1314 31.9913 90.8325 31.5868ZM90.6858 35.4698C90.8611 35.9083 91.1859 36.2002 91.6602 36.3453C92.1345 36.4905 92.5632 36.4292 92.9463 36.1616C93.337 35.8963 93.619 35.4807 93.7922 34.9146C93.9655 34.3485 93.9644 33.8462 93.789 33.4077C93.6213 32.9715 93.3003 32.6809 92.8261 32.5357C92.3518 32.3906 91.9193 32.4506 91.5285 32.7159C91.1454 32.9835 90.8673 33.4004 90.694 33.9665C90.5208 34.5325 90.518 35.0337 90.6858 35.4698ZM100.021 33.6709C100.794 33.9074 101.34 34.3632 101.661 35.0386C101.989 35.7162 102.015 36.5064 101.738 37.4091C101.479 38.2582 101 38.8939 100.302 39.3161C99.6134 39.7329 98.8448 39.8115 97.9957 39.5516C97.0471 39.2613 96.4022 38.7168 96.061 37.918C95.7222 37.1115 95.7272 36.1384 96.076 34.9985C96.5044 33.5986 97.0505 32.607 97.7142 32.0237C98.3803 31.4328 99.2666 31.202 100.373 31.3315L102.882 31.6224L102.517 32.8157L100.228 32.5043C99.5905 32.4264 99.0801 32.5086 98.6964 32.751C98.315 32.9856 97.9978 33.4073 97.7446 34.0158C98.375 33.5143 99.1338 33.3994 100.021 33.6709ZM98.2745 38.3945C98.7564 38.542 99.1877 38.4858 99.5685 38.2258C99.9592 37.9605 100.239 37.5525 100.407 37.0017C100.571 36.4662 100.563 35.9869 100.383 35.5637C100.213 35.1352 99.8909 34.8483 99.4167 34.7032C98.9424 34.558 98.5057 34.6043 98.1067 34.8419C97.71 35.0719 97.4274 35.4623 97.2589 36.0131C97.0856 36.5792 97.0867 37.0815 97.2621 37.52C97.4474 37.9532 97.7849 38.2447 98.2745 38.3945ZM103.186 40.9894L101.878 40.5891L103.669 34.737L104.977 35.1373L104.289 37.3863L106.802 38.1554L107.49 35.9063L108.798 36.3066L107.007 42.1587L105.699 41.7584L106.447 39.3143L103.934 38.5453L103.186 40.9894ZM110.393 37.5728C111.102 37.1705 111.884 37.1005 112.741 37.3627C113.598 37.6249 114.204 38.1198 114.558 38.8474C114.92 39.5774 114.962 40.3975 114.684 41.3079C114.405 42.2182 113.911 42.8745 113.203 43.2767C112.502 43.6812 111.723 43.7524 110.866 43.4902C110.009 43.228 109.4 42.7319 109.037 42.002C108.683 41.2744 108.645 40.4554 108.923 39.5451C109.202 38.6347 109.692 37.9773 110.393 37.5728ZM110.246 41.4558C110.421 41.8943 110.746 42.1861 111.221 42.3313C111.695 42.4764 112.124 42.4152 112.507 42.1476C112.897 41.8823 113.179 41.4666 113.353 40.9005C113.526 40.3344 113.525 39.8322 113.349 39.3936C113.182 38.9575 112.861 38.6668 112.386 38.5217C111.912 38.3765 111.48 38.4366 111.089 38.7019C110.706 38.9695 110.428 39.3863 110.254 39.9524C110.081 40.5185 110.078 41.0196 110.246 41.4558ZM42.1785 28.3181C42.9052 28.5405 43.4341 28.9994 43.7651 29.6947C44.1038 30.3923 44.1268 31.2192 43.8342 32.1755C43.5415 33.1317 43.0559 33.803 42.3771 34.1892C41.706 34.5779 41.0033 34.6598 40.2689 34.4351C39.8634 34.311 39.53 34.1295 39.2685 33.8905C39.0169 33.6462 38.8536 33.387 38.7785 33.1131L37.9076 35.9588L36.5995 35.5585L39.0611 27.5147L40.3233 27.901L40.0916 28.6583C40.6414 28.174 41.337 28.0606 42.1785 28.3181ZM40.4055 33.2094C40.8645 33.3499 41.2844 33.2901 41.6651 33.0302C42.0558 32.7649 42.339 32.3454 42.5146 31.7716C42.6878 31.2056 42.6868 30.7033 42.5114 30.2647C42.3437 29.8286 42.0304 29.5403 41.5714 29.3998C41.1047 29.257 40.6772 29.3144 40.2888 29.572C39.9028 29.822 39.622 30.2339 39.4464 30.8076L39.4323 30.8535C39.2568 31.4272 39.2578 31.9295 39.4355 32.3604C39.6156 32.7836 39.9389 33.0666 40.4055 33.2094ZM48.5725 32.5839C48.6732 32.255 48.6434 31.9698 48.483 31.7283C48.3326 31.4815 48.0853 31.3054 47.7411 31.2001C47.1215 31.0104 46.6661 31.1179 46.375 31.5224L45.1357 31.1431C45.382 30.6664 45.7659 30.3279 46.2873 30.1277C46.8187 29.9222 47.4286 29.9248 48.1171 30.1355C48.8438 30.3579 49.364 30.722 49.6777 31.228C49.999 31.7363 50.0567 32.327 49.8507 33.0002L48.6708 36.8557L47.4545 36.4835L47.6581 35.8179C47.0659 36.2223 46.3796 36.3051 45.5993 36.0663C45.0179 35.8884 44.5825 35.5753 44.293 35.1269C44.0136 34.6733 43.9593 34.1673 44.1302 33.6088C44.3081 33.0274 44.6527 32.6393 45.1642 32.4444C45.6856 32.2443 46.3135 32.2565 47.0478 32.4813L48.4707 32.9167L48.5725 32.5839ZM46.2128 35.087C46.6182 35.211 46.9976 35.2016 47.3508 35.0588C47.7065 34.9082 47.9428 34.6417 48.0598 34.2592L48.1687 33.9035L46.8376 33.4962C46.4934 33.3908 46.1958 33.3792 45.9447 33.4614C45.7037 33.5382 45.5434 33.7067 45.4638 33.9668C45.3842 34.2269 45.414 34.4577 45.5531 34.6592C45.6945 34.8531 45.9144 34.9957 46.2128 35.087ZM50.9914 32.9602C51.2235 32.4205 51.6132 32.0629 52.1605 31.8874C52.7155 31.7142 53.3142 31.7259 53.9568 31.9226C54.5841 32.1145 55.0536 32.4256 55.3654 32.8556C55.6772 33.2857 55.7559 33.7532 55.6014 34.2581C55.4141 34.87 55.0011 35.208 54.3625 35.2719C54.6268 35.4197 54.8309 35.6411 54.9749 35.9362C55.1288 36.2259 55.1461 36.5659 55.0267 36.956C54.8605 37.4991 54.5002 37.8699 53.9459 38.0684C53.3992 38.2692 52.7701 38.2608 52.0587 38.0431C51.3702 37.8324 50.8506 37.4935 50.5 37.0264C50.1493 36.5594 50.0247 36.0234 50.1261 35.4186L51.3998 35.8084C51.3837 36.0796 51.4617 36.3168 51.6338 36.52C51.8158 36.718 52.0675 36.8661 52.3888 36.9644C52.7254 37.0674 53.0142 37.0805 53.2552 37.0037C53.4986 36.9192 53.6589 36.7508 53.7362 36.4983C53.8813 36.024 53.5905 35.6757 52.8638 35.4533L52.0032 35.1899L52.3192 34.1572L53.111 34.3995C53.417 34.4931 53.669 34.5033 53.8671 34.4301C54.0752 34.3516 54.2144 34.1975 54.2846 33.968C54.3525 33.7462 54.3172 33.5472 54.1787 33.3709C54.0479 33.197 53.8409 33.0668 53.5579 32.9801C53.2595 32.8888 52.9948 32.8789 52.7638 32.9505C52.5328 33.022 52.3589 33.1528 52.2421 33.343L50.9914 32.9602ZM57.5741 33.9582C58.2828 33.556 59.0655 33.486 59.9223 33.7482C60.7791 34.0104 61.3848 34.5053 61.7394 35.2329C62.1016 35.9629 62.1435 36.783 61.8649 37.6933C61.5863 38.6037 61.0927 39.2599 60.3839 39.6621C59.6829 40.0667 58.9039 40.1379 58.0472 39.8757C57.1904 39.6135 56.5809 39.1174 56.2186 38.3874C55.864 37.6598 55.826 36.8409 56.1046 35.9305C56.3832 35.0202 56.873 34.3628 57.5741 33.9582ZM57.4274 37.8413C57.6027 38.2798 57.9275 38.5716 58.4018 38.7167C58.8761 38.8619 59.3048 38.8006 59.6879 38.533C60.0786 38.2678 60.3606 37.8521 60.5338 37.286C60.7071 36.7199 60.706 36.2176 60.5306 35.7791C60.3629 35.3429 60.0419 35.0523 59.5677 34.9071C59.0934 34.762 58.6609 34.822 58.2701 35.0873C57.887 35.3549 57.6089 35.7718 57.4357 36.3379C57.2624 36.904 57.2596 37.4051 57.4274 37.8413ZM66.7628 36.0423C67.5354 36.2788 68.0819 36.7347 68.4024 37.41C68.7304 38.0876 68.7563 38.8778 68.4801 39.7805C68.2202 40.6296 67.7412 41.2653 67.0431 41.6875C66.355 42.1044 65.5864 42.1829 64.7373 41.923C63.7887 41.6327 63.1438 41.0882 62.8026 40.2894C62.4638 39.4829 62.4688 38.5098 62.8176 37.37C63.246 35.97 63.7921 34.9784 64.4558 34.3951C65.1219 33.8042 66.0082 33.5734 67.1148 33.7029L69.6235 33.9938L69.2583 35.1871L66.9692 34.8757C66.3321 34.7978 65.8217 34.8801 65.438 35.1224C65.0566 35.3571 64.7394 35.7787 64.4862 36.3872C65.1166 35.8857 65.8754 35.7708 66.7628 36.0423ZM65.0161 40.766C65.498 40.9134 65.9293 40.8572 66.3101 40.5972C66.7008 40.332 66.9805 39.9239 67.149 39.3732C67.3129 38.8377 67.3048 38.3583 67.1248 37.9351C66.9547 37.5066 66.6325 37.2198 66.1583 37.0746C65.684 36.9295 65.2473 36.9757 64.8483 37.2134C64.4516 37.4433 64.169 37.8337 64.0005 38.3845C63.8272 38.9506 63.8283 39.4529 64.0037 39.8914C64.189 40.3246 64.5265 40.6161 65.0161 40.766ZM73.5277 37.9118C74.2545 38.1342 74.7834 38.593 75.1144 39.2883C75.453 39.986 75.4761 40.8129 75.1834 41.7691C74.8908 42.7254 74.4051 43.3966 73.7264 43.7829C73.0553 44.1715 72.3525 44.2535 71.6181 44.0287C71.2127 43.9047 70.8792 43.7231 70.6177 43.4842C70.3662 43.2399 70.2029 42.9807 70.1278 42.7067L69.2569 45.5525L67.9488 45.1522L70.4104 37.1084L71.6726 37.4947L71.4408 38.252C71.9906 37.7677 72.6863 37.6543 73.5277 37.9118ZM71.7548 42.8031C72.2138 42.9435 72.6336 42.8838 73.0144 42.6238C73.4051 42.3586 73.6883 41.9391 73.8638 41.3653C74.0371 40.7992 74.036 40.2969 73.8607 39.8584C73.693 39.4223 73.3796 39.1339 72.9206 38.9935C72.454 38.8507 72.0265 38.9081 71.6381 39.1657C71.252 39.4157 70.9712 39.8275 70.7956 40.4013L70.7816 40.4472C70.606 41.0209 70.6071 41.5232 70.7848 41.9541C70.9648 42.3773 71.2882 42.6603 71.7548 42.8031ZM79.9218 42.1776C80.0225 41.8487 79.9926 41.5634 79.8323 41.322C79.6819 41.0752 79.4346 40.8991 79.0904 40.7937C78.4707 40.6041 78.0154 40.7116 77.7242 41.1161L76.485 40.7368C76.7313 40.26 77.1151 39.9215 77.6365 39.7214C78.1679 39.5159 78.7779 39.5185 79.4664 39.7292C80.1931 39.9516 80.7133 40.3157 81.027 40.8217C81.3483 41.3299 81.406 41.9207 81.1999 42.5939L80.0201 46.4494L78.8037 46.0771L79.0074 45.4116C78.4152 45.816 77.7289 45.8988 76.9486 45.66C76.3672 45.4821 75.9318 45.169 75.6423 44.7206C75.3628 44.267 75.3085 43.7609 75.4794 43.2025C75.6573 42.6211 76.002 42.233 76.5134 42.0381C77.0348 41.8379 77.6627 41.8502 78.3971 42.0749L79.82 42.5104L79.9218 42.1776ZM77.562 44.6806C77.9675 44.8047 78.3468 44.7953 78.7001 44.6524C79.0557 44.5019 79.2921 44.2354 79.4091 43.8529L79.518 43.4972L78.1869 43.0899C77.8427 42.9845 77.545 42.9729 77.294 43.055C77.053 43.1319 76.8927 43.3003 76.8131 43.5604C76.7335 43.8205 76.7632 44.0513 76.9023 44.2529C77.0438 44.4468 77.2637 44.5893 77.562 44.6806ZM80.7006 46.6827L81.0518 45.5353L81.2354 45.5914C81.5567 45.6898 81.8093 45.6708 81.9931 45.5347C82.187 45.3932 82.3722 45.1027 82.5485 44.6631L83.9099 41.2396L88.2129 42.5564L86.4221 48.4085L85.1139 48.0082L86.5537 43.3036L84.7062 42.7382L83.7597 45.1341C83.4527 45.9186 83.0835 46.4415 82.6522 46.7027C82.2309 46.9586 81.6989 46.9882 81.0563 46.7916L80.7006 46.6827ZM94.7766 44.5651L92.9857 50.4172L91.7005 50.0239L92.8909 46.1339L89.0499 49.2127L87.7876 48.8264L89.5785 42.9743L90.8637 43.3676L89.6698 47.269L93.5144 44.1788L94.7766 44.5651ZM96.607 51.5254L98.3979 45.6733L101.026 46.4774C101.653 46.6694 102.088 46.9572 102.33 47.3409C102.572 47.7246 102.626 48.1383 102.49 48.582C102.392 48.9033 102.229 49.1465 102.003 49.3115C101.787 49.4712 101.55 49.5619 101.292 49.5835C101.565 49.7589 101.763 49.9995 101.887 50.3051C102.019 50.6131 102.027 50.9545 101.913 51.3294C101.763 51.819 101.456 52.1644 100.993 52.3657C100.54 52.5616 99.9921 52.5613 99.3495 52.3646L96.607 51.5254ZM99.9544 49.814L98.6577 49.4172L98.2012 50.9089L99.4978 51.3057C99.7885 51.3947 100.03 51.3975 100.223 51.3143C100.426 51.2258 100.564 51.0629 100.636 50.8258C100.786 50.3362 100.559 49.9989 99.9544 49.814ZM100.556 47.438L99.3741 47.0764L98.9597 48.4304L100.142 48.7921C100.394 48.8693 100.608 48.8678 100.783 48.7876C100.966 48.7096 101.09 48.5636 101.156 48.3494C101.291 47.9057 101.091 47.6019 100.556 47.438ZM104.071 53.8348L104.423 52.6873L104.606 52.7435C104.927 52.8418 105.18 52.8229 105.364 52.6867C105.558 52.5453 105.743 52.2547 105.919 51.8151L107.281 48.3916L111.584 49.7085L109.793 55.5606L108.485 55.1603L109.924 50.4556L108.077 49.8903L107.13 52.2862C106.823 53.0707 106.454 53.5935 106.023 53.8547C105.602 54.1106 105.07 54.1403 104.427 53.9436L104.071 53.8348ZM116.759 51.2922L118.17 51.7241L112.553 58.8022L111.153 58.3738L112.762 56.3563L112.272 49.9192L113.684 50.3511L113.94 55.0099L116.759 51.2922ZM118.849 51.9319L120.502 52.4376L121.061 57.2521L124.22 53.5754L125.849 54.074L124.058 59.9261L122.796 59.5398L124.021 55.5351L121.047 58.9796L120.083 58.6846L119.543 54.1771L118.321 58.1703L117.058 57.784L118.849 51.9319ZM131.321 59.3629L127.202 58.1023L127.195 58.1252C127.057 58.5765 127.087 58.9959 127.287 59.3832C127.486 59.7705 127.819 60.0355 128.286 60.1783C128.607 60.2766 128.891 60.2924 129.137 60.2255C129.394 60.1534 129.572 60.049 129.672 59.9124L130.958 60.3057C130.73 60.7213 130.348 61.0395 129.812 61.2603C129.284 61.4834 128.656 61.4838 127.929 61.2614C127.057 60.9945 126.44 60.5087 126.079 59.8041C125.719 59.0918 125.684 58.2651 125.972 57.3242C126.26 56.3833 126.748 55.717 127.437 55.3254C128.128 54.9262 128.89 54.8541 129.724 55.1093C130.527 55.3551 131.089 55.8157 131.41 56.491C131.73 57.1663 131.756 57.9439 131.486 58.8236L131.321 59.3629ZM129.379 56.1959C128.966 56.0695 128.592 56.0889 128.257 56.2541C127.93 56.4216 127.682 56.7099 127.515 57.1189L130.315 57.9758C130.431 57.5427 130.403 57.1701 130.231 56.8581C130.068 56.5407 129.785 56.32 129.379 56.1959ZM140.817 58.6548L139.027 64.5069L137.741 64.1136L138.932 60.2236L135.091 63.3024L133.829 62.9161L135.619 57.064L136.905 57.4573L135.711 61.3587L139.555 58.2685L140.817 58.6548ZM35.5496 38.9894L40.6443 40.5486L38.8534 46.4007L37.5453 46.0003L38.9851 41.2957L36.5065 40.5372L35.0668 45.2418L33.7587 44.8415L35.5496 38.9894ZM42.24 41.8149C42.9487 41.4127 43.7315 41.3427 44.5882 41.6049C45.445 41.8671 46.0507 42.362 46.4053 43.0896C46.7675 43.8196 46.8094 44.6397 46.5308 45.55C46.2522 46.4604 45.7586 47.1166 45.0498 47.5189C44.3488 47.9234 43.5698 47.9946 42.7131 47.7324C41.8563 47.4702 41.2468 46.9741 40.8845 46.2442C40.5299 45.5165 40.4919 44.6976 40.7705 43.7872C41.0491 42.8769 41.5389 42.2195 42.24 41.8149ZM42.0933 45.698C42.2686 46.1365 42.5934 46.4283 43.0677 46.5734C43.542 46.7186 43.9707 46.6574 44.3538 46.3897C44.7445 46.1245 45.0265 45.7088 45.1997 45.1427C45.373 44.5766 45.3719 44.0743 45.1966 43.6358C45.0288 43.1996 44.7079 42.909 44.2336 42.7638C43.7593 42.6187 43.3268 42.6788 42.936 42.944C42.553 43.2116 42.2748 43.6285 42.1016 44.1946C41.9283 44.7607 41.9256 45.2618 42.0933 45.698ZM52.9654 49.4643L52.1647 52.0806L50.9025 51.6943L51.352 50.2255L47.2211 48.9614L46.7716 50.4301L45.5094 50.0439L46.31 47.4276L46.7805 47.5716C47.1833 47.4857 47.5874 46.9443 47.9929 45.9473L49.0923 43.1339L53.556 44.4998L52.1162 49.2045L52.9654 49.4643ZM49.2181 46.3724C48.873 47.254 48.5271 47.7966 48.1804 48L50.8081 48.8042L51.8967 45.247L49.9001 44.636L49.2181 46.3724ZM56.3126 50.6267C56.6951 50.7438 57.0189 50.7383 57.2839 50.6102C57.5567 50.4845 57.7684 50.2984 57.9192 50.0517L59.1929 50.4415C58.9414 51.0171 58.5192 51.44 57.9261 51.7103C57.3331 51.9806 56.6732 52.0045 55.9464 51.7821C55.0973 51.5223 54.4993 51.0297 54.1523 50.3044C53.8077 49.5715 53.7735 48.7537 54.0498 47.851C54.3237 46.956 54.8047 46.3001 55.4928 45.8832C56.1886 45.4686 56.9648 45.3925 57.8216 45.6546C58.5637 45.8817 59.096 46.2747 59.4185 46.8336C59.7435 47.3848 59.8564 47.9589 59.7573 48.5561L58.4836 48.1663C58.4791 47.8805 58.3978 47.613 58.2398 47.3638C58.0917 47.1094 57.8341 46.926 57.467 46.8136C57.008 46.6731 56.5869 46.7367 56.2038 47.0043C55.8284 47.2743 55.5541 47.6923 55.3808 48.2584C55.2053 48.8321 55.2013 49.3371 55.369 49.7732C55.5391 50.2018 55.8536 50.4862 56.3126 50.6267ZM59.5553 52.7359L61.3461 46.8838L63.9739 47.688C64.6011 47.8799 65.0359 48.1678 65.2783 48.5515C65.5206 48.9352 65.5739 49.3489 65.4381 49.7926C65.3398 50.1139 65.1775 50.357 64.9513 50.5221C64.7351 50.6818 64.4982 50.7724 64.2406 50.794C64.5132 50.9695 64.7115 51.21 64.8355 51.5157C64.9671 51.8237 64.9756 52.1651 64.8609 52.5399C64.711 53.0295 64.4045 53.375 63.9414 53.5762C63.4882 53.7722 62.9403 53.7718 62.2977 53.5752L59.5553 52.7359ZM62.9026 51.0245L61.6059 50.6277L61.1494 52.1195L62.4461 52.5163C62.7368 52.6052 62.9785 52.6081 63.1713 52.5249C63.3741 52.4363 63.5118 52.2735 63.5843 52.0363C63.7342 51.5468 63.5069 51.2095 62.9026 51.0245ZM63.5042 48.6486L62.3223 48.2869L61.9079 49.6409L63.0898 50.0026C63.3423 50.0799 63.5561 50.0784 63.7312 49.9981C63.914 49.9202 64.0382 49.7741 64.1037 49.5599C64.2395 49.1162 64.0397 48.8125 63.5042 48.6486ZM71.2856 53.5398L67.1662 52.2791L67.1592 52.3021C67.0211 52.7534 67.0517 53.1727 67.2511 53.56C67.4505 53.9473 67.7835 54.2124 68.2501 54.3552C68.5714 54.4535 68.8552 54.4693 69.1016 54.4024C69.3579 54.3303 69.5363 54.2259 69.6366 54.0893L70.9218 54.4826C70.6942 54.8982 70.3124 55.2164 69.7763 55.4372C69.2479 55.6603 68.6203 55.6607 67.8936 55.4383C67.0215 55.1714 66.4047 54.6856 66.043 53.981C65.6838 53.2686 65.6481 52.442 65.936 51.5011C66.224 50.5602 66.7123 49.8939 67.4011 49.5023C68.0922 49.1031 68.8546 49.031 69.6884 49.2862C70.4917 49.532 71.0535 49.9926 71.3739 50.6679C71.6943 51.3432 71.7199 52.1207 71.4507 53.0005L71.2856 53.5398ZM69.3434 50.3728C68.9303 50.2464 68.5562 50.2658 68.2212 50.431C67.8939 50.5985 67.6467 50.8868 67.4797 51.2958L70.2795 52.1526C70.3953 51.7196 70.3671 51.347 70.1949 51.0349C70.0326 50.7176 69.7488 50.4969 69.3434 50.3728ZM72.3137 51.4951L72.6649 50.3477L77.7137 51.8927L77.3626 53.0402L75.4922 52.4678L74.0525 57.1725L72.7444 56.7721L74.1841 52.0675L72.3137 51.4951ZM83.8074 53.7575L82.0165 59.6096L80.7313 59.2163L81.9217 55.3264L78.0806 58.4052L76.8184 58.0189L78.6093 52.1668L79.8945 52.5601L78.7005 56.4615L82.5451 53.3713L83.8074 53.7575ZM82.7418 59.8567L83.0929 58.7092L83.2765 58.7654C83.5978 58.8637 83.8504 58.8448 84.0343 58.7087C84.2282 58.5672 84.4133 58.2767 84.5897 57.837L85.9511 54.4136L90.2541 55.7304L88.4632 61.5825L87.1551 61.1822L88.5948 56.4776L86.7474 55.9122L85.8008 58.3081C85.4938 59.0926 85.1247 59.6154 84.6933 59.8767C84.272 60.1326 83.7401 60.1622 83.0975 59.9656L82.7418 59.8567ZM96.8177 57.739L95.0268 63.5911L93.7416 63.1978L94.9321 59.3079L91.091 62.3867L89.8288 62.0004L91.6197 56.1483L92.9048 56.5416L91.7109 60.443L95.5555 57.3528L96.8177 57.739ZM98.2348 63.845C98.1786 64.0286 98.0795 64.2158 97.9374 64.4066L96.6316 66.0901L95.6333 65.7846L96.8387 64.1833C96.5213 63.9355 96.4176 63.6319 96.5276 63.2724C96.6002 63.0352 96.7402 62.8647 96.9477 62.7609C97.1552 62.6571 97.3813 62.6426 97.6261 62.7175C97.8709 62.7924 98.0517 62.9398 98.1685 63.1596C98.2876 63.3717 98.3097 63.6002 98.2348 63.845ZM106.396 60.6703L107.704 61.0706L105.914 66.9228L104.605 66.5224L105.311 64.216C104.906 64.3096 104.44 64.2756 103.912 64.114C103.231 63.9057 102.741 63.5382 102.442 63.0117C102.143 62.4851 102.112 61.8356 102.348 61.0629L102.805 59.5712L104.113 59.9715L103.684 61.3714C103.42 62.2359 103.712 62.798 104.561 63.0579C104.944 63.1749 105.304 63.2014 105.641 63.1374L106.396 60.6703ZM108.247 62.4915L108.598 61.344L113.647 62.8891L113.295 64.0366L111.425 63.4642L109.985 68.1688L108.677 67.7685L110.117 63.0639L108.247 62.4915ZM114.559 63.9465C115.268 63.5443 116.051 63.4743 116.908 63.7365C117.764 63.9987 118.37 64.4936 118.725 65.2212C119.087 65.9511 119.129 66.7713 118.85 67.6816C118.572 68.5919 118.078 69.2482 117.369 69.6504C116.668 70.055 115.889 70.1262 115.032 69.864C114.176 69.6018 113.566 69.1057 113.204 68.3757C112.849 67.6481 112.811 66.8291 113.09 65.9188C113.368 65.0085 113.858 64.351 114.559 63.9465ZM114.413 67.8295C114.588 68.268 114.913 68.5599 115.387 68.705C115.861 68.8502 116.29 68.7889 116.673 68.5213C117.064 68.256 117.346 67.8404 117.519 67.2743C117.692 66.7082 117.691 66.2059 117.516 65.7674C117.348 65.3312 117.027 65.0406 116.553 64.8954C116.079 64.7503 115.646 64.8103 115.255 65.0756C114.872 65.3432 114.594 65.7601 114.421 66.3261C114.248 66.8922 114.245 67.3934 114.413 67.8295ZM123.037 65.7627L124.689 66.2684L125.249 71.0829L128.407 67.4061L130.036 67.9047L128.245 73.7568L126.983 73.3706L128.209 69.3659L125.234 72.8104L124.271 72.5154L123.73 68.0079L122.508 72.0011L121.246 71.6148L123.037 65.7627ZM131.632 69.1712C132.341 68.7689 133.123 68.6989 133.98 68.9611C134.837 69.2233 135.443 69.7182 135.797 70.4459C136.16 71.1758 136.201 71.996 135.923 72.9063C135.644 73.8166 135.151 74.4729 134.442 74.8751C133.741 75.2796 132.962 75.3508 132.105 75.0886C131.248 74.8264 130.639 74.3304 130.277 73.6004C129.922 72.8728 129.884 72.0538 130.163 71.1435C130.441 70.2332 130.931 69.5757 131.632 69.1712ZM131.485 73.0542C131.661 73.4927 131.985 73.7845 132.46 73.9297C132.934 74.0748 133.363 74.0136 133.746 73.746C134.137 73.4807 134.419 73.065 134.592 72.4989C134.765 71.9329 134.764 71.4306 134.589 70.992C134.421 70.5559 134.1 70.2652 133.626 70.1201C133.151 69.9749 132.719 70.035 132.328 70.3003C131.945 70.5679 131.667 70.9847 131.494 71.5508C131.32 72.1169 131.318 72.618 131.485 73.0542ZM141.838 71.5165L141.08 73.995L143.881 72.1415L145.384 72.6015L142.269 74.6602L143.627 78.4642L142.09 77.9936L140.89 74.6146L140.047 77.3686L138.762 76.9753L139.605 74.2213L136.72 76.3502L135.193 75.8832L138.426 73.5217L137.007 70.0381L138.511 70.4981L139.795 73.6017L140.553 71.1232L141.838 71.5165ZM145.644 79.0813L144.336 78.681L146.127 72.8289L147.435 73.2292L146.747 75.4782L149.26 76.2473L149.948 73.9982L151.256 74.3985L149.465 80.2506L148.157 79.8503L148.905 77.4062L146.392 76.6372L145.644 79.0813ZM152.851 75.6647C153.56 75.2624 154.342 75.1924 155.199 75.4546C156.056 75.7168 156.662 76.2117 157.016 76.9393C157.378 77.6693 157.42 78.4894 157.142 79.3998C156.863 80.3101 156.369 80.9664 155.661 81.3686C154.96 81.7731 154.181 81.8443 153.324 81.5821C152.467 81.3199 151.858 80.8238 151.495 80.0939C151.141 79.3663 151.103 78.5473 151.381 77.637C151.66 76.7266 152.15 76.0692 152.851 75.6647ZM152.704 79.5477C152.879 79.9862 153.204 80.278 153.679 80.4232C154.153 80.5683 154.582 80.5071 154.965 80.2395C155.355 79.9742 155.637 79.5585 155.811 78.9924C155.984 78.4263 155.983 77.924 155.807 77.4855C155.64 77.0494 155.319 76.7587 154.844 76.6136C154.37 76.4684 153.938 76.5285 153.547 76.7938C153.164 77.0614 152.886 77.4782 152.712 78.0443C152.539 78.6104 152.536 79.1115 152.704 79.5477ZM35.8476 51.63L37.259 52.0619L31.6419 59.14L30.2419 58.7116L31.8508 56.694L31.361 50.257L32.7724 50.6889L33.0283 55.3477L35.8476 51.63ZM35.274 57.8797L35.6251 56.7322L35.8087 56.7884C36.13 56.8867 36.3826 56.8678 36.5665 56.7317C36.7604 56.5902 36.9455 56.2997 37.1219 55.86L38.4833 52.4366L42.7863 53.7534L40.9954 59.6055L39.6873 59.2052L41.127 54.5005L39.2796 53.9352L38.3331 56.3311C38.0261 57.1156 37.6569 57.6384 37.2256 57.8997C36.8042 58.1556 36.2723 58.1852 35.6297 57.9885L35.274 57.8797ZM47.9615 55.3371L49.3729 55.769L43.7557 62.8471L42.3558 62.4187L43.9646 60.4012L43.4749 53.9641L44.8863 54.396L45.1422 59.0548L47.9615 55.3371ZM53.4485 57.0163L54.7566 57.4166L52.9657 63.2687L51.6576 62.8684L52.3634 60.562C51.9583 60.6555 51.4918 60.6215 50.964 60.46C50.2832 60.2516 49.7932 59.8842 49.4942 59.3576C49.1952 58.8311 49.1639 58.1815 49.4004 57.4089L49.8569 55.9172L51.165 56.3175L50.7366 57.7174C50.4721 58.5818 50.7644 59.144 51.6135 59.4038C51.996 59.5209 52.356 59.5474 52.6935 59.4833L53.4485 57.0163ZM60.6529 59.221L59.2131 63.9256L61.1409 64.5156L62.5806 59.811L63.8888 60.2113L62.0979 66.0634L54.318 63.6825L56.1089 57.8304L57.417 58.2308L55.9773 62.9354L57.905 63.5253L59.3448 58.8207L60.6529 59.221ZM70.4455 62.2178L68.6546 68.0699L67.3694 67.6766L68.5598 63.7867L64.7188 66.8654L63.4565 66.4792L65.2474 60.6271L66.5326 61.0204L65.3387 64.9218L69.1833 61.8315L70.4455 62.2178ZM70.9873 63.6385L71.3384 62.4911L76.3873 64.0362L76.0362 65.1836L74.1658 64.6112L72.726 69.3159L71.4179 68.9156L72.8577 64.2109L70.9873 63.6385ZM78.5795 64.707L78.0352 66.4856L79.2056 66.8438C79.8559 67.0428 80.3175 67.3932 80.5906 67.8951C80.8661 68.3893 80.9136 68.931 80.7334 69.52C80.5508 70.1167 80.2009 70.5492 79.6837 70.8176C79.1765 71.0807 78.6016 71.114 77.959 70.9173L75.492 70.1623L77.2829 64.3102L78.5795 64.707ZM78.7079 67.8962L77.6981 67.5872L77.1222 69.469L78.132 69.778C78.4456 69.874 78.7185 69.8571 78.9507 69.7274C79.1904 69.6 79.3525 69.3986 79.4367 69.1232C79.521 68.8478 79.4971 68.5979 79.365 68.3734C79.2406 68.1512 79.0215 67.9922 78.7079 67.8962ZM89.7457 73.2694L88.9451 75.8856L87.6829 75.4994L88.1324 74.0306L84.0015 72.7664L83.552 74.2352L82.2898 73.8489L83.0904 71.2327L83.5609 71.3767C83.9636 71.2908 84.3678 70.7493 84.7733 69.7523L85.8727 66.9389L90.3363 68.3049L88.8966 73.0095L89.7457 73.2694ZM85.9985 70.1775C85.6534 71.0591 85.3075 71.6016 84.9608 71.8051L87.5885 72.6092L88.6771 69.0521L86.6805 68.4411L85.9985 70.1775ZM89.7641 74.555L90.1152 73.4076L90.2988 73.4638C90.6201 73.5621 90.8727 73.5432 91.0566 73.407C91.2505 73.2656 91.4356 72.975 91.612 72.5354L92.9734 69.1119L97.2764 70.4287L95.4855 76.2808L94.1774 75.8805L95.6171 71.1759L93.7697 70.6105L92.8232 73.0064C92.5161 73.7909 92.147 74.3138 91.7157 74.575C91.2943 74.8309 90.7624 74.8605 90.1198 74.6639L89.7641 74.555ZM101.292 78.0577L99.9952 77.6609L100.575 75.7676L99.691 75.4972L97.7691 76.9797L96.3003 76.5302L98.4196 74.8948C98.1093 74.6241 97.8988 74.3003 97.7882 73.9235C97.6877 73.5413 97.6982 73.1514 97.82 72.7536C97.9955 72.1798 98.3269 71.7667 98.8142 71.5143C99.3114 71.2565 99.9004 71.2317 100.581 71.4401L103.083 72.2056L101.292 78.0577ZM99.5922 72.5806C99.3571 72.6927 99.1974 72.8865 99.1131 73.1619C99.0288 73.4372 99.0527 73.6872 99.1848 73.9117C99.3169 74.1361 99.5398 74.2964 99.8534 74.3924L100.898 74.7119L101.459 72.876L100.415 72.5564C100.102 72.4604 99.8273 72.4685 99.5922 72.5806ZM106.711 73.3158L111.805 74.875L110.014 80.7271L108.706 80.3268L110.146 75.6221L107.668 74.8636L106.228 79.5683L104.92 79.1679L106.711 73.3158ZM116.277 76.0928C117.004 76.3152 117.533 76.7741 117.864 77.4694C118.202 78.167 118.225 78.994 117.933 79.9502C117.64 80.9064 117.154 81.5777 116.476 81.964C115.805 82.3526 115.102 82.4345 114.367 82.2098C113.962 82.0857 113.629 81.9042 113.367 81.6652C113.116 81.4209 112.952 81.1618 112.877 80.8878L112.006 83.7335L110.698 83.3332L113.16 75.2894L114.422 75.6757L114.19 76.433C114.74 75.9487 115.436 75.8353 116.277 76.0928ZM114.504 80.9841C114.963 81.1246 115.383 81.0649 115.764 80.8049C116.154 80.5396 116.438 80.1201 116.613 79.5464C116.786 78.9803 116.785 78.478 116.61 78.0395C116.442 77.6033 116.129 77.315 115.67 77.1745C115.203 77.0317 114.776 77.0891 114.387 77.3468C114.001 77.5967 113.721 78.0086 113.545 78.5823L113.531 78.6282C113.355 79.202 113.356 79.7043 113.534 80.1351C113.714 80.5583 114.038 80.8413 114.504 80.9841ZM120.085 78.187C120.794 77.7847 121.577 77.7147 122.434 77.9769C123.29 78.2391 123.896 78.734 124.251 79.4617C124.613 80.1916 124.655 81.0118 124.376 81.9221C124.098 82.8324 123.604 83.4887 122.895 83.8909C122.194 84.2954 121.415 84.3666 120.559 84.1044C119.702 83.8422 119.092 83.3462 118.73 82.6162C118.375 81.8886 118.337 81.0696 118.616 80.1593C118.895 79.249 119.384 78.5915 120.085 78.187ZM119.939 82.07C120.114 82.5085 120.439 82.8003 120.913 82.9455C121.388 83.0906 121.816 83.0294 122.199 82.7618C122.59 82.4965 122.872 82.0808 123.045 81.5147C123.218 80.9487 123.217 80.4464 123.042 80.0078C122.874 79.5717 122.553 79.281 122.079 79.1359C121.605 78.9907 121.172 79.0508 120.782 79.3161C120.398 79.5837 120.12 80.0005 119.947 80.5666C119.774 81.1327 119.771 81.6338 119.939 82.07ZM125.811 85.5611L124.502 85.1608L126.293 79.3087L127.601 79.709L126.857 82.1416L129.851 80.3972L131.4 80.8713L128.036 82.8412L129.643 86.7339L128.06 86.2494L126.646 82.8301L125.811 85.5611ZM134.852 84.0864C134.953 83.7575 134.923 83.4722 134.763 83.2307C134.612 82.9839 134.365 82.8079 134.021 82.7025C133.401 82.5129 132.946 82.6203 132.655 83.0249L131.415 82.6456C131.662 82.1688 132.046 81.8303 132.567 81.6301C133.098 81.4247 133.708 81.4273 134.397 81.6379C135.124 81.8603 135.644 82.2245 135.957 82.7305C136.279 83.2387 136.336 83.8295 136.13 84.5026L134.951 88.3581L133.734 87.9859L133.938 87.3204C133.346 87.7248 132.659 87.8076 131.879 87.5688C131.298 87.3909 130.862 87.0777 130.573 86.6294C130.293 86.1758 130.239 85.6697 130.41 85.1113C130.588 84.5299 130.932 84.1418 131.444 83.9469C131.965 83.7467 132.593 83.759 133.328 83.9837L134.75 84.4192L134.852 84.0864ZM132.493 86.5894C132.898 86.7135 133.277 86.7041 133.631 86.5612C133.986 86.4107 134.223 86.1442 134.34 85.7617L134.448 85.406L133.117 84.9987C132.773 84.8933 132.475 84.8817 132.224 84.9638C131.983 85.0407 131.823 85.2091 131.744 85.4692C131.664 85.7293 131.694 85.9601 131.833 86.1617C131.974 86.3555 132.194 86.4981 132.493 86.5894ZM141.445 83.9455L142.753 84.3458L140.962 90.1979L139.654 89.7976L140.36 87.4912C139.955 87.5847 139.489 87.5508 138.961 87.3892C138.28 87.1809 137.79 86.8134 137.491 86.2869C137.192 85.7603 137.161 85.1107 137.397 84.3381L137.854 82.8464L139.162 83.2467L138.733 84.6466C138.469 85.5111 138.761 86.0732 139.61 86.333C139.993 86.4501 140.353 86.4766 140.69 86.4126L141.445 83.9455ZM143.623 91.0121L142.315 90.6118L144.106 84.7597L145.414 85.16L144.669 87.5926L147.663 85.8483L149.212 86.3223L145.848 88.2922L147.455 92.1849L145.872 91.7004L144.459 88.2811L143.623 91.0121ZM155.125 88.132L153.334 93.9841L152.049 93.5908L153.24 89.7008L149.399 92.7796L148.136 92.3933L149.927 86.5412L151.212 86.9345L150.018 90.8359L153.863 87.7457L155.125 88.132Z" fill="white"/>
</g>
<defs>
<linearGradient id="paint0_linear_201_724" x1="136.649" y1="-21.7676" x2="75.4013" y2="182.029" gradientUnits="userSpaceOnUse">
<stop stop-color="#66BEBE"/>
<stop offset="1" stop-color="#65DEA3"/>
</linearGradient>
<clipPath id="clip0_201_724">
<rect width="190" height="120" fill="white"/>
</clipPath>
</defs>
</svg>
