<svg width="180" height="100" viewBox="0 0 180 100" fill="none" xmlns="http://www.w3.org/2000/svg">
<path fill-rule="evenodd" clip-rule="evenodd" d="M50.1448 30.5208C41.7806 33.3711 37.3106 42.4622 40.1608 50.8265L47.4717 72.2809C50.322 80.6452 59.4131 85.1152 67.7774 82.2649L80.6512 77.878C80.8002 77.9902 80.9618 78.09 81.1353 78.1753L89.1029 82.0929C90.5898 82.824 92.3877 82.2113 93.1188 80.7244L97.0364 72.7568C97.1217 72.5833 97.1887 72.4056 97.2382 72.2258L110.487 67.7111C118.851 64.8609 123.321 55.7697 120.471 47.4054L113.16 25.951C110.31 17.5867 101.219 13.1167 92.8542 15.967L50.1448 30.5208Z" fill="url(#paint0_linear_163_796)"/>
<path d="M56.3902 54.0092L55.0385 54.4698L52.3136 46.4734L53.6653 46.0128L54.7839 49.2954L58.5777 48.0026L57.4591 44.72L58.8108 44.2594L61.5357 52.2558L60.184 52.7164L58.9957 49.2293L55.2019 50.5221L56.3902 54.0092ZM65.1045 46.7547C64.9936 46.4291 64.8024 46.2153 64.531 46.1134C64.2646 46.0013 63.9611 46.0033 63.6203 46.1195C63.0069 46.3285 62.7007 46.6822 62.7014 47.1806L61.4747 47.5986C61.3953 47.0678 61.5083 46.5687 61.8138 46.1012C62.1244 45.6235 62.6204 45.2685 63.3019 45.0363C64.0213 44.7911 64.6562 44.7818 65.2067 45.0084C65.7648 45.2323 66.1573 45.6775 66.3844 46.3439L67.685 50.1604L66.4809 50.5707L66.2564 49.9119C66.013 50.5864 65.5051 51.0553 64.7327 51.3185C64.1572 51.5146 63.6209 51.5157 63.1237 51.3217C62.6316 51.1175 62.2913 50.739 62.1029 50.1863C61.9068 49.6107 61.959 49.0943 62.2596 48.6369C62.5651 48.1694 63.0813 47.8118 63.8083 47.564L65.2168 47.0841L65.1045 46.7547ZM64.6567 50.1654C65.0581 50.0287 65.3601 49.7989 65.5629 49.4763C65.7631 49.1461 65.7986 48.7917 65.6696 48.413L65.5496 48.0609L64.232 48.5099C63.8913 48.626 63.6432 48.7909 63.4878 49.0044C63.3373 49.2078 63.306 49.4382 63.3937 49.6957C63.4814 49.9532 63.6407 50.1229 63.8715 50.2048C64.0996 50.2792 64.3614 50.2661 64.6567 50.1654ZM72.249 41.9874C72.9684 41.7423 73.6658 41.8047 74.3412 42.1746C75.0242 42.5419 75.527 43.1988 75.8495 44.1454C76.1721 45.092 76.1713 45.9205 75.8471 46.631C75.5306 47.339 75.0088 47.8168 74.2819 48.0645C73.8805 48.2013 73.5039 48.2493 73.152 48.2087C72.805 48.1579 72.5209 48.0434 72.2996 47.8652L73.2596 50.6822L71.9647 51.1234L69.2514 43.161L70.5008 42.7353L70.7563 43.4849C70.9185 42.7704 71.4161 42.2713 72.249 41.9874ZM73.6751 46.9908C74.1295 46.836 74.4349 46.5418 74.5914 46.1081C74.7529 45.6643 74.7368 45.1585 74.5433 44.5905C74.3523 44.0302 74.0574 43.6236 73.6586 43.3707C73.2672 43.1153 72.8444 43.065 72.3901 43.2198C71.9282 43.3772 71.6152 43.674 71.4511 44.1102C71.2845 44.5389 71.2979 45.0372 71.4914 45.6051L71.5069 45.6506C71.7005 46.2185 71.9954 46.6251 72.3917 46.8704C72.7854 47.1081 73.2132 47.1483 73.6751 46.9908ZM79.9302 41.7026C79.8192 41.377 79.6281 41.1632 79.3567 41.0613C79.0903 40.9493 78.7867 40.9513 78.446 41.0674C77.8326 41.2764 77.5263 41.6301 77.5271 42.1285L76.3004 42.5465C76.2209 42.0158 76.334 41.5166 76.6395 41.0491C76.95 40.5714 77.446 40.2164 78.1276 39.9842C78.8469 39.7391 79.4819 39.7298 80.0324 39.9563C80.5904 40.1803 80.983 40.6255 81.2101 41.2918L82.5106 45.1083L81.3066 45.5186L81.0821 44.8598C80.8387 45.5344 80.3308 46.0033 79.5584 46.2665C78.9829 46.4626 78.4466 46.4636 77.9494 46.2696C77.4572 46.0655 77.117 45.687 76.9286 45.1342C76.7325 44.5587 76.7847 44.0422 77.0852 43.5849C77.3908 43.1173 77.907 42.7597 78.634 42.512L80.0424 42.032L79.9302 41.7026ZM79.4824 45.1134C79.8837 44.9766 80.1858 44.7469 80.3885 44.4242C80.5887 44.094 80.6243 43.7396 80.4953 43.361L80.3753 43.0089L79.0577 43.4579C78.7169 43.574 78.4689 43.7388 78.3134 43.9524C78.163 44.1557 78.1316 44.3862 78.2194 44.6436C78.3071 44.9011 78.4664 45.0708 78.6971 45.1527C78.9253 45.2271 79.1871 45.214 79.4824 45.1134ZM84.8107 37.9097C85.5755 37.6491 86.2855 37.6987 86.9406 38.0586C87.6033 38.416 88.0868 39.0414 88.3913 39.935C88.6778 40.7755 88.6616 41.5713 88.3427 42.3223C88.0289 43.0631 87.4517 43.5767 86.6112 43.8631C85.6722 44.1831 84.8306 44.1191 84.0864 43.6713C83.3395 43.2158 82.7739 42.4239 82.3894 41.2956C81.9172 39.9099 81.7794 38.7863 81.9761 37.9248C82.1701 37.0558 82.7536 36.3498 83.7265 35.807L85.9307 34.5742L86.3332 35.7555L84.2951 36.843C83.733 37.1529 83.3673 37.5183 83.1981 37.9394C83.0263 38.3529 83.0159 38.8805 83.1669 39.5221C83.3844 38.7465 83.9323 38.209 84.8107 37.9097ZM86.1599 42.7618C86.6369 42.5993 86.9537 42.3012 87.1102 41.8675C87.2717 41.4237 87.2595 40.9292 87.0737 40.384C86.8931 39.8539 86.6059 39.47 86.2122 39.2323C85.8235 38.9844 85.3944 38.9405 84.9249 39.1005C84.4554 39.2605 84.1285 39.5536 83.9441 39.9798C83.7572 40.3985 83.7566 40.8805 83.9424 41.4257C84.1333 41.986 84.4282 42.3927 84.8271 42.6455C85.231 42.8882 85.6752 42.927 86.1599 42.7618ZM89.0863 37.188C89.4254 36.447 90.019 35.932 90.8671 35.643C91.7153 35.354 92.496 35.4007 93.2095 35.783C93.9305 36.1627 94.4445 36.8031 94.7516 37.7042C95.0587 38.6054 95.0427 39.4264 94.7035 40.1674C94.372 40.9058 93.7822 41.4195 92.9341 41.7085C92.0859 41.9975 91.3014 41.9522 90.5804 41.5724C89.8669 41.1901 89.3567 40.5484 89.0496 39.6473C88.7425 38.7462 88.7548 37.9264 89.0863 37.188ZM91.2406 40.422C91.6395 40.6748 92.0736 40.7213 92.5431 40.5613C93.0126 40.4013 93.3243 40.1007 93.4782 39.6595C93.6397 39.2157 93.625 38.7136 93.434 38.1532C93.2431 37.5929 92.9482 37.1863 92.5493 36.9334C92.158 36.678 91.7276 36.6303 91.2581 36.7902C90.7886 36.9502 90.4731 37.2521 90.3116 37.6959C90.1577 38.1371 90.1762 38.6379 90.3672 39.1983C90.5581 39.7587 90.8493 40.1666 91.2406 40.422ZM94.4868 35.8295L94.0997 34.6936L99.0975 32.9905L99.4845 34.1264L97.6331 34.7573L99.22 39.4143L97.9252 39.8556L96.3382 35.1986L94.4868 35.8295ZM105.954 34.3052L101.876 35.6947L101.884 35.7174C102.036 36.1642 102.307 36.4862 102.695 36.6835C103.084 36.8808 103.509 36.9007 103.971 36.7433C104.289 36.6349 104.528 36.4815 104.689 36.2831C104.854 36.0746 104.938 35.8855 104.939 35.716L106.211 35.2825C106.27 35.7527 106.147 36.2342 105.841 36.727C105.544 37.2173 105.035 37.585 104.316 37.8301C103.452 38.1243 102.668 38.0916 101.962 37.732C101.254 37.3648 100.741 36.7155 100.424 35.7841C100.106 34.8527 100.112 34.0267 100.441 33.306C100.768 32.5777 101.344 32.073 102.169 31.7917C102.964 31.5207 103.689 31.5652 104.344 31.9252C105 32.2851 105.476 32.9005 105.772 33.7713L105.954 34.3052ZM102.526 32.8746C102.117 33.014 101.825 33.2487 101.65 33.5787C101.482 33.9062 101.451 34.2846 101.555 34.714L104.326 33.7696C104.167 33.3507 103.926 33.0651 103.603 32.913C103.286 32.7507 102.927 32.7379 102.526 32.8746ZM57.6268 57.3404L63.3905 61.7912L61.4319 56.0438L62.7382 55.5986L65.4631 63.5951L64.1682 64.0364L58.2063 59.4503L60.2268 65.3795L58.9092 65.8285L56.1842 57.832L57.6268 57.3404ZM67.0117 54.1424C68.2687 53.714 69.3668 53.7371 70.306 54.2115C71.2427 54.6783 71.9239 55.5365 72.3497 56.7859C72.7754 58.0354 72.7613 59.1347 72.3071 60.0839C71.8505 61.0255 70.9936 61.7105 69.7366 62.1389L67.09 63.0407L64.3651 55.0442L67.0117 54.1424ZM69.2014 60.9774C70.0949 60.6729 70.6901 60.1997 70.9868 59.5576C71.2836 58.9156 71.2797 58.1478 70.9753 57.2542C70.6708 56.3607 70.205 55.7503 69.5779 55.4231C68.9509 55.0959 68.1906 55.0845 67.297 55.389L66.1271 55.7876L68.0314 61.3761L69.2014 60.9774ZM74.1736 51.7019L75.582 51.2219L81.2829 58.2043L79.8631 58.6881L78.5238 57.0273L75.3661 58.1034L75.3537 60.2247L73.9339 60.7086L74.1736 51.7019ZM75.4161 53.0787L75.3877 56.7902L77.7162 55.9967L75.4161 53.0787ZM82.7481 51.0746C82.6448 50.7717 82.4474 50.5643 82.1557 50.4524C81.8716 50.338 81.5478 50.3426 81.1843 50.4665C80.4422 50.7194 80.099 51.2251 80.1547 51.9837L78.8939 52.4134C78.7503 51.7439 78.846 51.1196 79.1812 50.5406C79.5163 49.9615 80.0587 49.5443 80.8084 49.2888C81.5732 49.0282 82.2474 49.0224 82.8309 49.2715C83.422 49.518 83.8221 49.948 84.0311 50.5614C84.1085 50.7885 84.1505 51.0109 84.157 51.2284C84.1635 51.4459 84.1558 51.6218 84.1339 51.756C84.1196 51.8877 84.0575 52.0525 83.9475 52.2506C83.8425 52.4385 83.7674 52.5655 83.7223 52.6316C83.6747 52.6901 83.5781 52.816 83.4327 53.0092C83.4151 53.0321 83.3775 53.0829 83.3198 53.1618C83.2622 53.2406 83.2246 53.2914 83.207 53.3143C83.1894 53.3372 83.1556 53.3867 83.1055 53.463C83.0604 53.5291 83.0304 53.5773 83.0154 53.6078C83.0054 53.6281 82.9868 53.6725 82.9594 53.741C82.9294 53.8019 82.912 53.8501 82.9072 53.8855C82.9024 53.921 82.8939 53.9704 82.8817 54.0337C82.8694 54.097 82.8648 54.1578 82.8677 54.2159C82.8756 54.264 82.8861 54.3195 82.8992 54.3827C82.9122 54.4459 82.9304 54.5115 82.9536 54.5797L83.031 54.8068L81.8043 55.2249L81.6882 54.8841C81.5772 54.5585 81.5347 54.2603 81.5608 53.9894C81.5918 53.7084 81.6548 53.484 81.7498 53.3164C81.8422 53.1413 82.0001 52.91 82.2233 52.6226C82.3913 52.3963 82.5116 52.2286 82.5843 52.1193C82.6619 51.9999 82.7228 51.8439 82.7671 51.6513C82.8189 51.4562 82.8126 51.2639 82.7481 51.0746ZM82.2639 56.4248C82.3763 56.209 82.5499 56.0611 82.7846 55.9811C83.0193 55.9011 83.2433 55.9135 83.4565 56.0183C83.6773 56.1206 83.8277 56.2891 83.9077 56.5238C83.9877 56.7586 83.9728 56.9876 83.8629 57.211C83.7581 57.4242 83.5883 57.5708 83.3536 57.6508C83.1188 57.7308 82.8911 57.7197 82.6703 57.6174C82.4545 57.505 82.3066 57.3314 82.2266 57.0967C82.1466 56.8619 82.159 56.638 82.2639 56.4248Z" fill="#0F1414"/>
<defs>
<linearGradient id="paint0_linear_163_796" x1="56.7224" y1="17.7654" x2="76.5885" y2="76.0641" gradientUnits="userSpaceOnUse">
<stop stop-color="#F9F9F9"/>
<stop offset="1" stop-color="#F4F4F4"/>
</linearGradient>
</defs>
</svg>
