<svg width="190" height="120" viewBox="0 0 190 120" fill="none" xmlns="http://www.w3.org/2000/svg">
<path fill-rule="evenodd" clip-rule="evenodd" d="M152.239 37.7574C162.817 40.9365 168.815 52.0891 165.636 62.6674L158.67 85.8466C155.491 96.425 144.338 102.423 133.76 99.2441L87.9319 85.4713C86.1539 84.937 84.2365 85.1308 82.6015 86.0102L71.7492 91.8469C69.8036 92.8933 67.3781 92.1644 66.3317 90.2188L60.495 79.3665C59.6156 77.7315 58.1227 76.5127 56.3448 75.9784L40.5888 71.2432C30.0104 68.0641 24.0122 56.9115 27.1913 46.3332L34.1574 23.1539C37.3365 12.5756 48.4891 6.57741 59.0674 9.75652L152.239 37.7574Z" fill="url(#paint0_linear_201_774)"/>
<path d="M53.0205 22.8629L54.7073 23.3791L55.3753 30.4229L59.8594 24.9558L61.5233 25.4649L59.0511 33.5431L57.7545 33.1463L59.5419 27.3057L55.3668 32.378L54.2652 32.0409L53.6439 25.5008L51.8565 31.3414L50.5484 30.9411L53.0205 22.8629ZM63.6453 28.5489L63.101 30.3275L64.2714 30.6857C64.9216 30.8846 65.3833 31.2351 65.6564 31.737C65.9318 32.2312 65.9794 32.7728 65.7991 33.3619C65.6165 33.9586 65.2666 34.3911 64.7495 34.6595C64.2423 34.9226 63.6674 34.9558 63.0248 34.7592L60.5577 34.0042L62.3486 28.1521L63.6453 28.5489ZM69.004 30.1888L67.2131 36.0409L65.9164 35.6441L67.7073 29.792L69.004 30.1888ZM63.7736 31.7381L62.7639 31.4291L62.188 33.3109L63.1977 33.6199C63.5114 33.7159 63.7843 33.699 64.0164 33.5693C64.2562 33.4419 64.4182 33.2405 64.5025 32.9651C64.5868 32.6897 64.5629 32.4397 64.4308 32.2153C64.3063 31.9931 64.0873 31.8341 63.7736 31.7381ZM72.6248 31.2969L77.7195 32.856L75.9286 38.7081L74.6205 38.3078L76.0603 33.6031L73.5817 32.8446L72.142 37.5493L70.8339 37.149L72.6248 31.2969ZM79.3152 34.1224C80.0239 33.7201 80.8067 33.6501 81.6634 33.9123C82.5202 34.1745 83.1259 34.6694 83.4805 35.397C83.8428 36.127 83.8846 36.9471 83.606 37.8575C83.3274 38.7678 82.8338 39.4241 82.125 39.8263C81.424 40.2308 80.645 40.302 79.7883 40.0398C78.9315 39.7776 78.322 39.2815 77.9597 38.5516C77.6051 37.824 77.5671 37.005 77.8457 36.0947C78.1243 35.1843 78.6141 34.5269 79.3152 34.1224ZM79.1685 38.0054C79.3438 38.4439 79.6686 38.7357 80.1429 38.8809C80.6172 39.026 81.0459 38.9648 81.429 38.6972C81.8197 38.4319 82.1017 38.0162 82.2749 37.4501C82.4482 36.884 82.4471 36.3818 82.2718 35.9432C82.1041 35.5071 81.7831 35.2164 81.3088 35.0713C80.8345 34.9261 80.402 34.9862 80.0112 35.2515C79.6282 35.5191 79.35 35.9359 79.1768 36.502C79.0035 37.0681 79.0008 37.5692 79.1685 38.0054ZM90.0406 41.7718L89.2399 44.388L87.9777 44.0017L88.4272 42.533L84.2963 41.2688L83.8468 42.7376L82.5846 42.3513L83.3852 39.7351L83.8557 39.879C84.2585 39.7931 84.6626 39.2517 85.0681 38.2547L86.1675 35.4413L90.6312 36.8073L89.1914 41.5119L90.0406 41.7718ZM86.2933 38.6799C85.9482 39.5615 85.6023 40.104 85.2556 40.3074L87.8833 41.1116L88.9719 37.5544L86.9753 36.9434L86.2933 38.6799ZM93.3878 42.9341C93.7703 43.0512 94.0941 43.0457 94.3591 42.9177C94.6319 42.792 94.8436 42.6058 94.9944 42.3591L96.2681 42.7489C96.0166 43.3245 95.5944 43.7475 95.0013 44.0177C94.4083 44.288 93.7484 44.312 93.0217 44.0896C92.1725 43.8297 91.5745 43.3372 91.2275 42.6119C90.8829 41.879 90.8487 41.0612 91.125 40.1585C91.3989 39.2634 91.8799 38.6075 92.568 38.1906C93.2638 37.7761 94.04 37.6999 94.8968 37.9621C95.6389 38.1892 96.1712 38.5821 96.4937 39.141C96.8187 39.6922 96.9316 40.2664 96.8325 40.8635L95.5588 40.4737C95.5543 40.1879 95.473 39.9204 95.315 39.6713C95.167 39.4168 94.9093 39.2334 94.5422 39.121C94.0832 38.9806 93.6621 39.0441 93.2791 39.3118C92.9036 39.5817 92.6293 39.9997 92.4561 40.5658C92.2805 41.1396 92.2765 41.6445 92.4442 42.0807C92.6143 42.5092 92.9288 42.7937 93.3878 42.9341ZM97.9386 45.4437L96.6305 45.0434L98.4213 39.1913L99.7295 39.5916L98.985 42.0242L101.979 40.2798L103.528 40.7539L100.164 42.7238L101.771 46.6165L100.188 46.132L98.7743 42.7127L97.9386 45.4437ZM106.98 43.969C107.081 43.6401 107.051 43.3548 106.891 43.1133C106.74 42.8665 106.493 42.6905 106.149 42.5851C105.529 42.3955 105.074 42.5029 104.783 42.9075L103.543 42.5282C103.79 42.0514 104.174 41.7129 104.695 41.5127C105.226 41.3073 105.836 41.3099 106.525 41.5205C107.252 41.7429 107.772 42.1071 108.085 42.6131C108.407 43.1213 108.464 43.7121 108.258 44.3852L107.079 48.2407L105.862 47.8685L106.066 47.203C105.474 47.6074 104.787 47.6902 104.007 47.4514C103.426 47.2735 102.99 46.9603 102.701 46.512C102.421 46.0584 102.367 45.5523 102.538 44.9939C102.716 44.4125 103.06 44.0244 103.572 43.8295C104.093 43.6293 104.721 43.6416 105.456 43.8663L106.878 44.3018L106.98 43.969ZM104.621 46.472C105.026 46.5961 105.405 46.5867 105.759 46.4438C106.114 46.2933 106.351 46.0268 106.468 45.6443L106.576 45.2886L105.245 44.8813C104.901 44.7759 104.604 44.7643 104.352 44.8464C104.111 44.9233 103.951 45.0917 103.872 45.3518C103.792 45.6119 103.822 45.8427 103.961 46.0443C104.102 46.2381 104.322 46.3807 104.621 46.472ZM114.388 44.0774L113.629 46.556L116.43 44.7025L117.934 45.1625L114.819 47.2211L116.177 51.0251L114.639 50.5546L113.44 47.1756L112.597 49.9295L111.312 49.5362L112.155 46.7823L109.269 48.9112L107.743 48.4441L110.976 46.0827L109.557 42.5991L111.06 43.0591L112.344 46.1627L113.103 43.6841L114.388 44.0774ZM122.514 50.1785L118.395 48.9178L118.388 48.9408C118.25 49.3921 118.28 49.8115 118.48 50.1988C118.679 50.5861 119.012 50.8511 119.479 50.9939C119.8 51.0922 120.084 51.108 120.33 51.0411C120.586 50.969 120.765 50.8646 120.865 50.728L122.15 51.1213C121.923 51.5369 121.541 51.8551 121.005 52.0759C120.476 52.299 119.849 52.2994 119.122 52.077C118.25 51.8101 117.633 51.3243 117.272 50.6197C116.912 49.9074 116.877 49.0807 117.165 48.1398C117.453 47.1989 117.941 46.5326 118.63 46.141C119.321 45.7418 120.083 45.6697 120.917 45.9249C121.72 46.1707 122.282 46.6313 122.602 47.3066C122.923 47.9819 122.948 48.7595 122.679 49.6392L122.514 50.1785ZM120.572 47.0115C120.159 46.8851 119.785 46.9045 119.45 47.0697C119.122 47.2372 118.875 47.5255 118.708 47.9345L121.508 48.7914C121.624 48.3583 121.596 47.9857 121.423 47.6737C121.261 47.3563 120.977 47.1356 120.572 47.0115ZM124.543 47.1851L126.195 47.6908L126.755 52.5053L129.913 48.8285L131.542 49.3272L129.752 55.1793L128.489 54.793L129.715 50.7883L126.741 54.2328L125.777 53.9378L125.236 49.4303L124.014 53.4235L122.752 53.0372L124.543 47.1851ZM46.2725 42.207L46.6236 41.0595L46.8072 41.1157C47.1285 41.214 47.3811 41.1951 47.565 41.059C47.7589 40.9175 47.944 40.627 48.1204 40.1873L49.4818 36.7638L53.7848 38.0807L51.9939 43.9328L50.6858 43.5325L52.1255 38.8278L50.2781 38.2625L49.3315 40.6584C49.0245 41.4429 48.6554 41.9657 48.2241 42.2269C47.8027 42.4829 47.2708 42.5125 46.6282 42.3158L46.2725 42.207ZM58.96 39.6644L60.3714 40.0963L54.7542 47.1744L53.3543 46.746L54.9631 44.7285L54.4734 38.2914L55.8848 38.7233L56.1406 43.3821L58.96 39.6644ZM64.4469 41.3436L65.7551 41.7439L63.9642 47.596L62.6561 47.1957L63.3619 44.8893C62.9568 44.9828 62.4903 44.9488 61.9625 44.7873C61.2816 44.5789 60.7917 44.2115 60.4927 43.6849C60.1937 43.1584 60.1624 42.5088 60.3989 41.7362L60.8554 40.2445L62.1635 40.6448L61.7351 42.0447C61.4705 42.9091 61.7628 43.4713 62.612 43.7311C62.9944 43.8482 63.3545 43.8747 63.692 43.8106L64.4469 41.3436ZM71.6514 43.5483L70.2116 48.2529L72.1394 48.8429L73.5791 44.1382L74.8872 44.5386L73.0963 50.3907L65.3165 48.0098L67.1074 42.1577L68.4155 42.558L66.9758 47.2627L68.9035 47.8526L70.3432 43.148L71.6514 43.5483ZM81.444 46.5451L79.6531 52.3972L78.3679 52.0039L79.5583 48.114L75.7172 51.1927L74.455 50.8065L76.2459 44.9544L77.5311 45.3476L76.3371 49.249L80.1817 46.1588L81.444 46.5451ZM86.9138 51.8332L82.7944 50.5726L82.7873 50.5955C82.6492 51.0468 82.6798 51.4662 82.8792 51.8535C83.0786 52.2408 83.4116 52.5058 83.8783 52.6486C84.1996 52.7469 84.4834 52.7627 84.7297 52.6958C84.9861 52.6237 85.1644 52.5193 85.2648 52.3827L86.55 52.776C86.3224 53.1916 85.9406 53.5098 85.4045 53.7306C84.876 53.9537 84.2485 53.9541 83.5217 53.7317C82.6497 53.4648 82.0328 52.979 81.6712 52.2744C81.3119 51.5621 81.2762 50.7354 81.5642 49.7945C81.8521 48.8536 82.3405 48.1873 83.0292 47.7957C83.7203 47.3965 84.4828 47.3244 85.3166 47.5796C86.1198 47.8254 86.6816 48.286 87.002 48.9613C87.3224 49.6366 87.348 50.4142 87.0788 51.2939L86.9138 51.8332ZM84.9715 48.6662C84.5584 48.5398 84.1844 48.5592 83.8494 48.7244C83.522 48.8919 83.2748 49.1802 83.1078 49.5892L85.9077 50.4461C86.0234 50.013 85.9952 49.6404 85.823 49.3284C85.6608 49.011 85.3769 48.7903 84.9715 48.6662ZM91.2119 49.5343L96.3067 51.0935L94.5158 56.9456L93.2077 56.5452L94.6474 51.8406L92.1689 51.0821L90.7291 55.7867L89.421 55.3864L91.2119 49.5343ZM100.778 52.3113C101.505 52.5337 102.034 52.9926 102.365 53.6879C102.704 54.3855 102.727 55.2125 102.434 56.1687C102.141 57.1249 101.656 57.7962 100.977 58.1825C100.306 58.5711 99.6032 58.653 98.8688 58.4283C98.4634 58.3042 98.1299 58.1227 97.8684 57.8837C97.6169 57.6394 97.4535 57.3803 97.3784 57.1063L96.5076 59.952L95.1994 59.5517L97.661 51.5079L98.9233 51.8942L98.6915 52.6515C99.2413 52.1672 99.9369 52.0538 100.778 52.3113ZM99.0055 57.2026C99.4644 57.3431 99.8843 57.2833 100.265 57.0234C100.656 56.7581 100.939 56.3386 101.115 55.7649C101.288 55.1988 101.287 54.6965 101.111 54.258C100.944 53.8218 100.63 53.5335 100.171 53.393C99.7046 53.2502 99.2771 53.3076 98.8887 53.5652C98.5027 53.8152 98.2219 54.2271 98.0463 54.8008L98.0323 54.8467C97.8567 55.4204 97.8577 55.9227 98.0354 56.3536C98.2155 56.7768 98.5388 57.0598 99.0055 57.2026ZM107.172 56.5771C107.273 56.2482 107.243 55.963 107.083 55.7215C106.933 55.4747 106.685 55.2986 106.341 55.1933C105.721 55.0036 105.266 55.1111 104.975 55.5156L103.736 55.1364C103.982 54.6596 104.366 54.3211 104.887 54.1209C105.419 53.9154 106.029 53.918 106.717 54.1287C107.444 54.3511 107.964 54.7153 108.278 55.2212C108.599 55.7295 108.657 56.3202 108.451 56.9934L107.271 60.8489L106.054 60.4767L106.258 59.8111C105.666 60.2155 104.98 60.2983 104.199 60.0595C103.618 59.8816 103.182 59.5685 102.893 59.1202C102.613 58.6665 102.559 58.1605 102.73 57.602C102.908 57.0207 103.253 56.6325 103.764 56.4377C104.285 56.2375 104.913 56.2497 105.648 56.4745L107.071 56.9099L107.172 56.5771ZM104.813 59.0802C105.218 59.2043 105.597 59.1949 105.951 59.052C106.306 58.9015 106.543 58.6349 106.66 58.2525L106.769 57.8967L105.438 57.4894C105.093 57.3841 104.796 57.3724 104.545 57.4546C104.304 57.5314 104.143 57.6999 104.064 57.96C103.984 58.2201 104.014 58.4509 104.153 58.6524C104.294 58.8463 104.514 58.9889 104.813 59.0802ZM109.886 61.6493L108.578 61.2489L110.369 55.3968L111.677 55.7972L110.932 58.2298L113.926 56.4854L115.475 56.9595L112.111 58.9294L113.719 62.8221L112.135 62.3375L110.722 58.9183L109.886 61.6493ZM115.38 58.1854L115.731 57.0379L120.78 58.583L120.429 59.7305L118.559 59.1581L117.119 63.8627L115.811 63.4624L117.251 58.7578L115.38 58.1854ZM126.874 60.4478L125.083 66.2999L123.798 65.9066L124.988 62.0167L121.147 65.0955L119.885 64.7092L121.676 58.8571L122.961 59.2504L121.767 63.1518L125.612 60.0616L126.874 60.4478ZM127.743 67.114L126.435 66.7137L128.226 60.8616L129.534 61.2619L128.79 63.6945L131.783 61.9501L133.332 62.4242L129.968 64.3941L131.576 68.2868L129.992 67.8022L128.579 64.383L127.743 67.114ZM139.246 64.2339L137.455 70.086L136.17 69.6927L137.36 65.8027L133.519 68.8815L132.257 68.4952L134.048 62.6431L135.333 63.0364L134.139 66.9378L137.983 63.8476L139.246 64.2339ZM44.3683 49.0033L44.7195 47.8558L49.7683 49.4009L49.4172 50.5484L47.5468 49.976L46.1071 54.6806L44.799 54.2803L46.2387 49.5757L44.3683 49.0033ZM50.6811 50.4583C51.3898 50.056 52.1725 49.986 53.0293 50.2482C53.8861 50.5104 54.4918 51.0053 54.8464 51.7329C55.2086 52.4629 55.2505 53.2831 54.9719 54.1934C54.6933 55.1037 54.1997 55.76 53.4909 56.1622C52.7899 56.5667 52.0109 56.6379 51.1542 56.3757C50.2974 56.1135 49.6879 55.6175 49.3256 54.8875C48.971 54.1599 48.933 53.3409 49.2116 52.4306C49.4902 51.5202 49.98 50.8628 50.6811 50.4583ZM50.5344 54.3413C50.7097 54.7798 51.0345 55.0716 51.5088 55.2168C51.9831 55.3619 52.4118 55.3007 52.7949 55.0331C53.1856 54.7678 53.4676 54.3521 53.6408 53.786C53.8141 53.22 53.813 52.7177 53.6376 52.2791C53.4699 51.843 53.1489 51.5523 52.6747 51.4072C52.2004 51.262 51.7679 51.3221 51.3771 51.5874C50.994 51.855 50.7159 52.2718 50.5427 52.8379C50.3694 53.404 50.3667 53.9051 50.5344 54.3413ZM56.8889 51.58L61.9837 53.1391L60.1928 58.9912L58.8847 58.5909L60.3244 53.8862L57.8459 53.1278L56.4062 57.8324L55.0981 57.4321L56.8889 51.58ZM63.5794 54.4055C64.2881 54.0032 65.0708 53.9332 65.9276 54.1954C66.7844 54.4576 67.3901 54.9525 67.7447 55.6802C68.1069 56.4101 68.1488 57.2303 67.8702 58.1406C67.5916 59.0509 67.0979 59.7072 66.3892 60.1094C65.6882 60.5139 64.9092 60.5851 64.0524 60.3229C63.1957 60.0607 62.5862 59.5647 62.2239 58.8347C61.8693 58.1071 61.8313 57.2881 62.1099 56.3778C62.3885 55.4675 62.8783 54.81 63.5794 54.4055ZM63.4326 58.2885C63.608 58.727 63.9328 59.0188 64.4071 59.164C64.8814 59.3091 65.3101 59.2479 65.6932 58.9803C66.0839 58.715 66.3659 58.2993 66.5391 57.7332C66.7124 57.1672 66.7113 56.6649 66.5359 56.2263C66.3682 55.7902 66.0472 55.4995 65.5729 55.3544C65.0987 55.2092 64.6662 55.2693 64.2754 55.5346C63.8923 55.8022 63.6142 56.219 63.4409 56.7851C63.2677 57.3512 63.2649 57.8523 63.4326 58.2885ZM67.9963 61.3793L69.7872 55.5272L72.4149 56.3313C73.0422 56.5233 73.477 56.8111 73.7194 57.1948C73.9617 57.5785 74.015 57.9922 73.8792 58.4359C73.7808 58.7572 73.6186 59.0004 73.3924 59.1654C73.1762 59.3251 72.9393 59.4158 72.6817 59.4373C72.9543 59.6128 73.1526 59.8533 73.2766 60.159C73.4082 60.467 73.4167 60.8084 73.3019 61.1833C73.1521 61.6729 72.8456 62.0183 72.3825 62.2196C71.9293 62.4155 71.3814 62.4152 70.7388 62.2185L67.9963 61.3793ZM71.3437 59.6679L70.047 59.2711L69.5905 60.7628L70.8872 61.1596C71.1779 61.2486 71.4196 61.2514 71.6124 61.1682C71.8152 61.0797 71.9529 60.9168 72.0254 60.6797C72.1753 60.1901 71.948 59.8528 71.3437 59.6679ZM71.9453 57.2919L70.7634 56.9302L70.349 58.2843L71.5309 58.6459C71.7834 58.7232 71.9972 58.7217 72.1723 58.6414C72.3551 58.5635 72.4793 58.4175 72.5448 58.2033C72.6806 57.7596 72.4808 57.4558 71.9453 57.2919ZM76.9055 57.7055L76.3612 59.4841L77.5316 59.8423C78.1819 60.0413 78.6435 60.3917 78.9166 60.8936C79.192 61.3878 79.2396 61.9295 79.0594 62.5185C78.8768 63.1152 78.5269 63.5477 78.0097 63.8161C77.5025 64.0792 76.9276 64.1125 76.285 63.9158L73.818 63.1608L75.6089 57.3087L76.9055 57.7055ZM82.2642 59.3454L80.4733 65.1975L79.1767 64.8007L80.9675 58.9486L82.2642 59.3454ZM77.0339 60.8947L76.0241 60.5857L75.4482 62.4675L76.458 62.7766C76.7716 62.8725 77.0445 62.8557 77.2766 62.7259C77.5164 62.5985 77.6784 62.3971 77.7627 62.1217C77.847 61.8463 77.8231 61.5964 77.691 61.3719C77.5666 61.1498 77.3475 60.9907 77.0339 60.8947ZM85.4278 66.7137L84.6688 64.2728L82.6968 65.878L81.2395 65.432L84.166 63.1275L83.0533 59.5869L84.5565 60.047L85.2935 62.5188L87.2646 60.8757L88.7104 61.3181L85.7849 63.6606L86.9424 67.1773L85.4278 66.7137ZM91.2911 68.5081L89.983 68.1077L91.7739 62.2556L93.082 62.656L92.3375 65.0886L95.331 63.3442L96.8801 63.8183L93.5164 65.7882L95.1236 69.6809L93.5401 69.1963L92.1268 65.7771L91.2911 68.5081ZM97.5566 64.8034C98.2653 64.4012 99.0481 64.3311 99.9049 64.5933C100.762 64.8555 101.367 65.3504 101.722 66.0781C102.084 66.808 102.126 67.6282 101.847 68.5385C101.569 69.4488 101.075 70.1051 100.366 70.5073C99.6654 70.9119 98.8865 70.983 98.0297 70.7208C97.1729 70.4586 96.5634 69.9626 96.2011 69.2326C95.8465 68.505 95.8085 67.686 96.0871 66.7757C96.3657 65.8654 96.8555 65.2079 97.5566 64.8034ZM97.4099 68.6864C97.5852 69.1249 97.9101 69.4167 98.3844 69.5619C98.8586 69.707 99.2873 69.6458 99.6704 69.3782C100.061 69.1129 100.343 68.6972 100.516 68.1311C100.69 67.5651 100.689 67.0628 100.513 66.6243C100.345 66.1881 100.024 65.8974 99.5502 65.7523C99.0759 65.6071 98.6434 65.6672 98.2527 65.9325C97.8696 66.2001 97.5914 66.6169 97.4182 67.183C97.245 67.7491 97.2422 68.2502 97.4099 68.6864ZM103.764 65.9251L105.417 66.4307L105.976 71.2453L109.135 67.5685L110.764 68.0671L108.973 73.9192L107.711 73.533L108.936 69.5283L105.962 72.9727L104.998 72.6778L104.458 68.1702L103.236 72.1634L101.974 71.7772L103.764 65.9251ZM112.119 68.4816L117.213 70.0408L115.422 75.8929L114.114 75.4926L115.554 70.7879L113.076 70.0294L111.636 74.7341L110.328 74.3338L112.119 68.4816ZM121.395 73.4789C121.495 73.1499 121.466 72.8647 121.305 72.6232C121.155 72.3764 120.908 72.2003 120.563 72.095C119.944 71.9054 119.488 72.0128 119.197 72.4173L117.958 72.0381C118.204 71.5613 118.588 71.2228 119.109 71.0226C119.641 70.8171 120.251 70.8197 120.939 71.0304C121.666 71.2528 122.186 71.617 122.5 72.1229C122.821 72.6312 122.879 73.2219 122.673 73.8951L121.493 77.7506L120.277 77.3784L120.48 76.7128C119.888 77.1172 119.202 77.2 118.422 76.9612C117.84 76.7833 117.405 76.4702 117.115 76.0219C116.836 75.5682 116.781 75.0622 116.952 74.5038C117.13 73.9224 117.475 73.5342 117.986 73.3394C118.508 73.1392 119.136 73.1515 119.87 73.3762L121.293 73.8116L121.395 73.4789ZM119.035 75.9819C119.44 76.106 119.82 76.0966 120.173 75.9537C120.529 75.8032 120.765 75.5367 120.882 75.1542L120.991 74.7984L119.66 74.3911C119.316 74.2858 119.018 74.2742 118.767 74.3563C118.526 74.4331 118.366 74.6016 118.286 74.8617C118.206 75.1218 118.236 75.3526 118.375 75.5541C118.517 75.748 118.737 75.8906 119.035 75.9819ZM124.108 78.551L122.8 78.1506L124.591 72.2985L125.899 72.6989L125.211 74.9479L127.724 75.7169L128.412 73.4679L129.72 73.8682L127.929 79.7203L126.621 79.32L127.369 76.8759L124.856 76.1068L124.108 78.551ZM136.272 75.8732L134.481 81.7253L133.196 81.332L134.386 77.442L130.545 80.5208L129.283 80.1345L131.074 74.2824L132.359 74.6757L131.165 78.5771L135.01 75.4869L136.272 75.8732ZM142.822 77.8776L141.031 83.7297L139.746 83.3364L140.936 79.4465L137.095 82.5253L135.833 82.139L137.624 76.2869L138.909 76.6802L137.715 80.5816L141.56 77.4914L142.822 77.8776ZM140.156 74.163C140.072 74.4384 140.078 74.6913 140.175 74.9217C140.272 75.1521 140.462 75.3106 140.745 75.3972C141.028 75.4839 141.274 75.4588 141.483 75.322C141.692 75.1852 141.839 74.9791 141.923 74.7038L142.979 75.0268C142.788 75.5959 142.464 75.9987 142.007 76.2352C141.557 76.4741 141.042 76.5046 140.46 76.3267C139.879 76.1488 139.465 75.8338 139.218 75.3819C138.98 74.9323 138.94 74.4183 139.101 73.8399L140.156 74.163Z" fill="white"/>
<defs>
<linearGradient id="paint0_linear_201_774" x1="108.643" y1="20.0854" x2="77.5745" y2="123.464" gradientUnits="userSpaceOnUse">
<stop stop-color="#66BEBE"/>
<stop offset="1" stop-color="#65DEA3"/>
</linearGradient>
</defs>
</svg>
