<svg width="180" height="100" viewBox="0 0 180 100" fill="none" xmlns="http://www.w3.org/2000/svg">
<path fill-rule="evenodd" clip-rule="evenodd" d="M36.931 29.6183C26.4757 33.1811 20.8882 44.5451 24.451 55.0004L32.6832 79.1583C36.246 89.6136 47.6099 95.2011 58.0653 91.6383L92.108 80.0377C92.2692 80.164 92.4459 80.2756 92.637 80.3696L100.605 84.2872C102.091 85.0182 103.889 84.4055 104.621 82.9187L108.538 74.9511C108.632 74.76 108.704 74.5637 108.754 74.3652L140.723 63.4715C151.178 59.9087 156.766 48.5447 153.203 38.0894L144.971 13.9315C141.408 3.4762 130.044 -2.11129 119.589 1.45151L36.931 29.6183Z" fill="url(#paint0_linear_163_810)"/>
<path d="M37.8109 47.9391C38.2368 46.9319 39.0101 46.2373 40.1308 45.8554C41.2515 45.4735 42.288 45.5514 43.2403 46.0889C44.19 46.6189 44.8726 47.4935 45.2881 48.7127C45.7035 49.9318 45.6983 51.045 45.2724 52.0522C44.8439 53.0518 44.0693 53.7426 42.9486 54.1245C41.8279 54.5064 40.7927 54.4323 39.843 53.9024C38.8907 53.3648 38.2068 52.4864 37.7914 51.2673C37.3759 50.0481 37.3824 48.9387 37.8109 47.9391ZM40.5293 52.6796C41.1339 53.0652 41.7998 53.1341 42.5267 52.8864C43.2537 52.6387 43.7376 52.1738 43.9784 51.4916C44.2268 50.8069 44.2052 50.0367 43.9137 49.181C43.6221 48.3253 43.1689 47.7022 42.554 47.3116C41.9468 46.9185 41.2797 46.8458 40.5527 47.0935C39.8257 47.3412 39.3418 47.8062 39.101 48.4883C38.8576 49.1629 38.8829 49.9318 39.1771 50.795C39.4713 51.6583 39.922 52.2865 40.5293 52.6796ZM45.7097 47.8337L45.3226 46.6978L50.3204 44.9947L50.7075 46.1306L48.856 46.7615L50.443 51.4186L49.1481 51.8598L47.5611 47.2028L45.7097 47.8337ZM53.4533 43.9272L58.4966 42.2086L60.4706 48.0015L59.1757 48.4428L57.5887 43.7857L55.1353 44.6218L56.7222 49.2788L55.4274 49.7201L53.4533 43.9272ZM66.0293 43.2929L61.9515 44.6824L61.9593 44.7051C62.1115 45.1519 62.3818 45.4739 62.7702 45.6712C63.1586 45.8685 63.5838 45.8884 64.0457 45.731C64.3637 45.6226 64.603 45.4692 64.7636 45.2708C64.9292 45.0623 65.0127 44.8732 65.0141 44.7037L66.2863 44.2702C66.3451 44.7404 66.2218 45.2219 65.9164 45.7147C65.6186 46.205 65.1101 46.5727 64.3907 46.8178C63.5274 47.112 62.7429 47.0793 62.0372 46.7197C61.3289 46.3525 60.8161 45.7032 60.4987 44.7718C60.1813 43.8404 60.1872 43.0144 60.5163 42.2937C60.8429 41.5654 61.4189 41.0607 62.2443 40.7794C63.0394 40.5084 63.7645 40.5529 64.4196 40.9129C65.0747 41.2728 65.5506 41.8882 65.8474 42.759L66.0293 43.2929ZM62.6006 41.8623C62.1917 42.0017 61.8998 42.2364 61.7249 42.5664C61.5576 42.8939 61.526 43.2723 61.63 43.7017L64.4015 42.7573C64.2419 42.3384 64.0009 42.0528 63.6786 41.9007C63.3613 41.7384 63.0019 41.7256 62.6006 41.8623ZM68.9193 38.5048C69.6387 38.2596 70.3361 38.322 71.0115 38.6919C71.6945 39.0593 72.1973 39.7162 72.5198 40.6628C72.8424 41.6093 72.8416 42.4379 72.5174 43.1484C72.2009 43.8563 71.6791 44.3342 70.9521 44.5819C70.5508 44.7187 70.1742 44.7667 69.8222 44.726C69.4753 44.6752 69.1912 44.5608 68.9699 44.3826L69.9298 47.1995L68.6349 47.6408L65.9216 39.6784L67.1711 39.2526L67.4266 40.0023C67.5888 39.2878 68.0863 38.7886 68.9193 38.5048ZM70.3454 43.5082C70.7997 43.3534 71.1052 43.0591 71.2616 42.6255C71.4231 42.1817 71.4071 41.6758 71.2136 41.1079C71.0226 40.5475 70.7277 40.1409 70.3288 39.8881C69.9375 39.6326 69.5147 39.5823 69.0604 39.7371C68.5984 39.8946 68.2854 40.1914 68.1214 40.6276C67.9547 41.0563 67.9682 41.5546 68.1617 42.1225L68.1772 42.1679C68.3707 42.7359 68.6656 43.1425 69.0619 43.3878C69.4557 43.6255 69.8835 43.6656 70.3454 43.5082ZM78.7305 38.9647L74.6528 40.3543L74.6605 40.377C74.8128 40.8238 75.0831 41.1458 75.4715 41.3431C75.8599 41.5403 76.285 41.5603 76.7469 41.4029C77.065 41.2945 77.3043 41.1411 77.4649 40.9427C77.6305 40.7341 77.7139 40.5451 77.7153 40.3756L78.9875 39.9421C79.0463 40.4122 78.923 40.8937 78.6177 41.3866C78.3199 41.8768 77.8113 42.2445 77.0919 42.4897C76.2287 42.7838 75.4442 42.7511 74.7385 42.3915C74.0302 42.0244 73.5174 41.3751 73.2 40.4437C72.8826 39.5123 72.8884 38.6862 73.2176 37.9655C73.5441 37.2373 74.1201 36.7325 74.9455 36.4513C75.7406 36.1803 76.4657 36.2248 77.1208 36.5847C77.7759 36.9447 78.2519 37.56 78.5486 38.4309L78.7305 38.9647ZM75.3019 37.5342C74.8929 37.6735 74.601 37.9082 74.4262 38.2383C74.2588 38.5658 74.2272 38.9442 74.3313 39.3736L77.1028 38.4291C76.9431 38.0102 76.7021 37.7247 76.3798 37.5725C76.0625 37.4102 75.7032 37.3974 75.3019 37.5342ZM82.6473 33.9789L83.4834 36.4324L84.6691 33.2899L86.1571 32.7829L84.8371 36.2753L88.1652 38.5642L86.6432 39.0828L83.6924 37.0457L84.6213 39.7718L83.3492 40.2053L82.4202 37.4792L81.3273 40.8943L79.8166 41.4091L81.0549 37.6022L77.8653 35.6084L79.3533 35.1014L82.2112 36.8659L81.3751 34.4124L82.6473 33.9789ZM92.038 30.7789L94.012 36.5718L92.7398 37.0053L91.4277 33.1547L90.116 37.8994L88.8665 38.3252L86.8925 32.5323L88.1647 32.0988L89.4807 35.9607L90.7885 31.2047L92.038 30.7789ZM95.3503 36.1157L93.3762 30.3228L95.9774 29.4365C96.5983 29.2249 97.1193 29.2037 97.5404 29.3729C97.9615 29.5421 98.2469 29.8464 98.3965 30.2856C98.5049 30.6036 98.5157 30.8957 98.4289 31.1619C98.3472 31.418 98.2082 31.6302 98.012 31.7985C98.3357 31.7811 98.6373 31.8601 98.9167 32.0353C99.2037 32.2079 99.4105 32.4798 99.5369 32.8508C99.7021 33.3355 99.6558 33.7949 99.3981 34.2293C99.1454 34.6535 98.701 34.9739 98.065 35.1907L95.3503 36.1157ZM97.0621 32.7687L95.7786 33.2061L96.2818 34.6827L97.5653 34.2453C97.8531 34.1472 98.0507 34.008 98.1583 33.8277C98.2709 33.6372 98.2872 33.4246 98.2072 33.1899C98.0421 32.7052 97.6604 32.5648 97.0621 32.7687ZM96.159 30.4902L94.989 30.8889L95.4458 32.2292L96.6157 31.8305C96.8656 31.7454 97.038 31.619 97.133 31.4514C97.2356 31.2812 97.2508 31.0901 97.1786 30.8781C97.0289 30.4389 96.689 30.3096 96.159 30.4902ZM103.201 29.1555C103.09 28.8299 102.899 28.6161 102.627 28.5142C102.361 28.4021 102.057 28.4042 101.717 28.5203C101.103 28.7293 100.797 29.083 100.798 29.5814L99.5711 29.9994C99.4917 29.4686 99.6047 28.9695 99.9103 28.502C100.221 28.0243 100.717 27.6693 101.398 27.4371C102.118 27.1919 102.753 27.1826 103.303 27.4092C103.861 27.6332 104.254 28.0783 104.481 28.7447L105.781 32.5612L104.577 32.9715L104.353 32.3127C104.109 32.9873 103.602 33.4561 102.829 33.7193C102.254 33.9155 101.717 33.9165 101.22 33.7225C100.728 33.5183 100.388 33.1398 100.199 32.5871C100.003 32.0116 100.055 31.4951 100.356 31.0377C100.662 30.5702 101.178 30.2126 101.905 29.9648L103.313 29.4849L103.201 29.1555ZM102.753 32.5662C103.154 32.4295 103.457 32.1998 103.659 31.8771C103.859 31.5469 103.895 31.1925 103.766 30.8138L103.646 30.4617L102.328 30.9107C101.988 31.0268 101.74 31.1917 101.584 31.4052C101.434 31.6086 101.402 31.839 101.49 32.0965C101.578 32.354 101.737 32.5237 101.968 32.6056C102.196 32.68 102.458 32.6669 102.753 32.5662ZM108.37 31.679L107.075 32.1202L105.101 26.3273L106.396 25.8861L107.155 28.1124L109.642 27.2647L108.884 25.0384L110.179 24.5972L112.153 30.3901L110.858 30.8313L110.033 28.4119L107.546 29.2596L108.37 31.679ZM116.664 22.3872L118.638 28.1801L117.366 28.6136L116.054 24.763L114.742 29.5077L113.493 29.9335L111.519 24.1406L112.791 23.7071L114.107 27.569L115.415 22.813L116.664 22.3872ZM123.148 20.1778L125.122 25.9707L123.85 26.4042L122.537 22.5536L121.226 27.2983L119.976 27.7241L118.002 21.9312L119.274 21.4977L120.59 25.3596L121.898 20.6036L123.148 20.1778ZM118.812 18.7267C118.905 18.9993 119.058 19.2007 119.271 19.3308C119.485 19.461 119.732 19.4783 120.012 19.3828C120.292 19.2874 120.477 19.1229 120.566 18.8896C120.656 18.6562 120.654 18.4033 120.561 18.1307L121.606 17.7746C121.785 18.3477 121.758 18.8639 121.525 19.3234C121.301 19.7803 120.901 20.1068 120.325 20.3029C119.75 20.499 119.23 20.486 118.765 20.264C118.308 20.0393 117.976 19.6456 117.767 19.0828L118.812 18.7267ZM43.2743 66.539L41.3003 60.7461L43.9014 59.8597C44.5224 59.6481 45.0434 59.6269 45.4645 59.7961C45.8856 59.9654 46.1709 60.2696 46.3206 60.7088C46.429 61.0268 46.4398 61.3189 46.353 61.5852C46.2712 61.8412 46.1322 62.0534 45.936 62.2217C46.2597 62.2043 46.5613 62.2833 46.8408 62.4585C47.1278 62.6312 47.3345 62.903 47.461 63.274C47.6261 63.7587 47.5799 64.2182 47.3222 64.6525C47.0695 65.0767 46.6251 65.3971 45.989 65.6139L43.2743 66.539ZM44.9862 63.1919L43.7027 63.6293L44.2059 65.1059L45.4894 64.6685C45.7771 64.5705 45.9748 64.4313 46.0824 64.2509C46.195 64.0604 46.2113 63.8478 46.1313 63.6131C45.9661 63.1284 45.5844 62.988 44.9862 63.1919ZM44.083 60.9134L42.9131 61.3121L43.3698 62.6524L44.5398 62.2538C44.7896 62.1686 44.9621 62.0422 45.0571 61.8746C45.1597 61.7044 45.1749 61.5133 45.1026 61.3013C44.953 60.8621 44.6131 60.7328 44.083 60.9134ZM49.3095 58.0168L54.3527 56.2983L56.3267 62.0912L55.0318 62.5324L53.4449 57.8754L50.9914 58.7114L52.5784 63.3685L51.2835 63.8097L49.3095 58.0168ZM61.8854 57.3825L57.8077 58.7721L57.8154 58.7948C57.9677 59.2416 58.238 59.5636 58.6264 59.7609C59.0147 59.9581 59.4399 59.9781 59.9018 59.8207C60.2199 59.7123 60.4592 59.5589 60.6198 59.3605C60.7853 59.1519 60.8688 58.9629 60.8702 58.7934L62.1424 58.3599C62.2012 58.8301 62.0779 59.3116 61.7725 59.8044C61.4748 60.2946 60.9662 60.6623 60.2468 60.9075C59.3835 61.2016 58.5991 61.1689 57.8934 60.8093C57.1851 60.4422 56.6722 59.7929 56.3548 58.8615C56.0375 57.9301 56.0433 57.104 56.3725 56.3833C56.699 55.6551 57.275 55.1503 58.1004 54.8691C58.8955 54.5981 59.6206 54.6426 60.2757 55.0025C60.9308 55.3625 61.4067 55.9779 61.7035 56.8487L61.8854 57.3825ZM58.4567 55.952C58.0478 56.0914 57.7559 56.326 57.581 56.6561C57.4137 56.9836 57.3821 57.362 57.4862 57.7914L60.2577 56.847C60.098 56.4281 59.857 56.1425 59.5347 55.9904C59.2174 55.828 58.8581 55.8152 58.4567 55.952ZM64.7754 52.5944C65.4948 52.3493 66.1922 52.4117 66.8676 52.7816C67.5506 53.1489 68.0534 53.8059 68.3759 54.7524C68.6985 55.699 68.6977 56.5275 68.3736 57.2381C68.057 57.946 67.5352 58.4238 66.8083 58.6716C66.4069 58.8083 66.0303 58.8564 65.6784 58.8157C65.3314 58.7649 65.0473 58.6504 64.826 58.4723L65.786 61.2892L64.4911 61.7305L61.7778 53.7681L63.0272 53.3423L63.2827 54.092C63.4449 53.3775 63.9425 52.8783 64.7754 52.5944ZM66.2015 57.5979C66.6559 57.4431 66.9613 57.1488 67.1178 56.7152C67.2793 56.2714 67.2632 55.7655 67.0697 55.1976C66.8788 54.6372 66.5838 54.2306 66.185 53.9777C65.7937 53.7223 65.3708 53.672 64.9165 53.8268C64.4546 53.9842 64.1416 54.281 63.9775 54.7173C63.8109 55.1459 63.8243 55.6442 64.0179 56.2122L64.0333 56.2576C64.2269 56.8255 64.5218 57.2321 64.9181 57.4774C65.3118 57.7151 65.7396 57.7553 66.2015 57.5979ZM70.3686 57.3062L68.3946 51.5133L70.9957 50.6269C71.6167 50.4153 72.1377 50.3941 72.5588 50.5634C72.9799 50.7326 73.2652 51.0368 73.4149 51.476C73.5233 51.794 73.5341 52.0862 73.4473 52.3524C73.3655 52.6084 73.2266 52.8206 73.0303 52.9889C73.3541 52.9716 73.6556 53.0505 73.9351 53.2257C74.2221 53.3984 74.4289 53.6702 74.5553 54.0413C74.7204 54.5259 74.6742 54.9854 74.4165 55.4197C74.1638 55.8439 73.7194 56.1644 73.0833 56.3811L70.3686 57.3062ZM72.0805 53.9591L70.797 54.3965L71.3002 55.8731L72.5837 55.4357C72.8715 55.3377 73.0691 55.1985 73.1767 55.0181C73.2893 54.8277 73.3056 54.615 73.2256 54.3803C73.0604 53.8957 72.6787 53.7553 72.0805 53.9591ZM71.1773 51.6807L70.0074 52.0793L70.4641 53.4197L71.6341 53.021C71.884 52.9358 72.0564 52.8095 72.1514 52.6418C72.254 52.4717 72.2692 52.2806 72.1969 52.0685C72.0473 51.6293 71.7074 51.5 71.1773 51.6807ZM75.4409 49.1122L76.0408 50.8728L77.1994 50.478C77.8431 50.2586 78.4225 50.2725 78.9377 50.5195C79.4503 50.7589 79.806 51.1702 80.0047 51.7533C80.206 52.3439 80.1755 52.8994 79.9133 53.4198C79.6562 53.93 79.2095 54.2935 78.5735 54.5103L76.1314 55.3425L74.1573 49.5496L75.4409 49.1122ZM80.7453 47.3046L82.7194 53.0975L81.4358 53.5349L79.4618 47.742L80.7453 47.3046ZM77.412 51.6226L76.4124 51.9632L77.0472 53.826L78.0467 53.4854C78.3572 53.3796 78.5686 53.2062 78.6808 52.9651C78.8006 52.7214 78.8141 52.4633 78.7212 52.1907C78.6283 51.918 78.4626 51.7294 78.2241 51.6247C77.9931 51.5175 77.7224 51.5168 77.412 51.6226ZM88.2751 48.3899L84.1974 49.7794L84.2051 49.8021C84.3574 50.2489 84.6277 50.5709 85.0161 50.7682C85.4045 50.9655 85.8296 50.9854 86.2915 50.828C86.6096 50.7196 86.8489 50.5662 87.0095 50.3678C87.1751 50.1593 87.2585 49.9702 87.2599 49.8007L88.5321 49.3672C88.5909 49.8374 88.4676 50.3189 88.1623 50.8117C87.8645 51.302 87.3559 51.6697 86.6365 51.9148C85.7733 52.209 84.9888 52.1763 84.2831 51.8167C83.5748 51.4495 83.062 50.8002 82.7446 49.8688C82.4272 48.9374 82.433 48.1113 82.7622 47.3907C83.0887 46.6624 83.6647 46.1577 84.4901 45.8764C85.2852 45.6054 86.0103 45.6499 86.6654 46.0099C87.3205 46.3698 87.7965 46.9852 88.0932 47.856L88.2751 48.3899ZM84.8465 46.9593C84.4375 47.0987 84.1456 47.3334 83.9708 47.6634C83.8034 47.9909 83.7718 48.3693 83.8759 48.7987L86.6474 47.8543C86.4877 47.4354 86.2468 47.1498 85.9244 46.9977C85.6071 46.8353 85.2478 46.8226 84.8465 46.9593ZM97.9755 46.631L98.858 49.2207L97.6086 49.6465L97.1131 48.1926L93.024 49.586L93.5195 51.0399L92.27 51.4657L91.3875 48.8759L91.8532 48.7172C92.1295 48.4118 92.1401 47.7363 91.8852 46.6906L91.1295 43.766L95.548 42.2604L97.135 46.9174L97.9755 46.631ZM93.1274 46.318C93.3638 47.2348 93.401 47.8771 93.239 48.245L95.8401 47.3587L94.6402 43.8375L92.6638 44.511L93.1274 46.318ZM100.533 47.0274L99.2377 47.4686L97.2637 41.6757L98.5586 41.2345L99.3172 43.4608L101.805 42.6131L101.046 40.3868L102.341 39.9456L104.315 45.7385L103.02 46.1797L102.196 43.7603L99.7082 44.608L100.533 47.0274ZM108.826 37.7356L110.8 43.5285L109.528 43.962L108.216 40.1114L106.904 44.8561L105.655 45.2819L103.681 39.489L104.953 39.0555L106.269 42.9174L107.577 38.1614L108.826 37.7356ZM48.1686 70.9311C48.888 70.6859 49.5854 70.7483 50.2608 71.1182C50.9438 71.4856 51.4465 72.1425 51.7691 73.0891C52.0916 74.0356 52.0908 74.8642 51.7667 75.5747C51.4501 76.2826 50.9284 76.7605 50.2014 77.0082C49.8001 77.1449 49.4235 77.193 49.0715 77.1523C48.7246 77.1015 48.4405 76.987 48.2192 76.8089L49.1791 79.6258L47.8842 80.0671L45.1709 72.1047L46.4204 71.6789L46.6758 72.4286C46.838 71.7141 47.3356 71.2149 48.1686 70.9311ZM49.5947 75.9345C50.049 75.7797 50.3544 75.4854 50.5109 75.0518C50.6724 74.608 50.6564 74.1021 50.4628 73.5342C50.2719 72.9738 49.977 72.5672 49.5781 72.3144C49.1868 72.0589 48.764 72.0086 48.3096 72.1634C47.8477 72.3208 47.5347 72.6177 47.3707 73.0539C47.204 73.4826 47.2175 73.9809 47.411 74.5488L47.4265 74.5942C47.62 75.1622 47.9149 75.5688 48.3112 75.814C48.7049 76.0518 49.1328 76.0919 49.5947 75.9345ZM55.8497 70.6463C55.7388 70.3207 55.5476 70.1069 55.2762 70.005C55.0099 69.8929 54.7063 69.8949 54.3655 70.0111C53.7522 70.2201 53.4459 70.5738 53.4467 71.0722L52.2199 71.4902C52.1405 70.9594 52.2535 70.4603 52.5591 69.9928C52.8696 69.5151 53.3656 69.1601 54.0471 68.9279C54.7665 68.6827 55.4014 68.6734 55.9519 68.9C56.51 69.1239 56.9026 69.5691 57.1296 70.2355L58.4302 74.052L57.2262 74.4623L57.0017 73.8035C56.7582 74.478 56.2503 74.9469 55.4779 75.2101C54.9024 75.4062 54.3661 75.4073 53.869 75.2133C53.3768 75.0091 53.0365 74.6306 52.8482 74.0778C52.6521 73.5023 52.7043 72.9859 53.0048 72.5285C53.3103 72.061 53.8266 71.7034 54.5535 71.4556L55.962 70.9757L55.8497 70.6463ZM55.4019 74.057C55.8033 73.9203 56.1053 73.6905 56.3081 73.3679C56.5083 73.0377 56.5439 72.6833 56.4148 72.3046L56.2949 71.9525L54.9773 72.4015C54.6365 72.5176 54.3884 72.6825 54.233 72.896C54.0825 73.0994 54.0512 73.3298 54.1389 73.5873C54.2267 73.8448 54.3859 74.0145 54.6167 74.0964C54.8449 74.1708 55.1066 74.1576 55.4019 74.057ZM60.7302 66.8533C61.4951 66.5927 62.205 66.6424 62.8601 67.0023C63.5228 67.3597 64.0064 67.9851 64.3109 68.8786C64.5973 69.7192 64.5811 70.5149 64.2623 71.2659C63.9485 72.0067 63.3713 72.5204 62.5308 72.8068C61.5918 73.1268 60.7502 73.0628 60.0059 72.6149C59.2591 72.1595 58.6935 71.3676 58.309 70.2393C57.8368 68.8535 57.699 67.7299 57.8956 66.8685C58.0897 65.9994 58.6732 65.2935 59.6461 64.7507L61.8502 63.5178L62.2528 64.6991L60.2146 65.7866C59.6525 66.0965 59.2869 66.462 59.1176 66.8831C58.9458 67.2966 58.9354 67.8241 59.0865 68.4657C59.3039 67.6901 59.8518 67.1527 60.7302 66.8533ZM62.0794 71.7055C62.5565 71.5429 62.8733 71.2448 63.0297 70.8112C63.1912 70.3674 63.1791 69.8729 62.9933 69.3276C62.8127 68.7976 62.5255 68.4137 62.1318 68.176C61.743 67.9281 61.3139 67.8842 60.8444 68.0442C60.375 68.2041 60.048 68.4973 59.8637 68.9235C59.6767 69.3422 59.6761 69.8241 59.8619 70.3693C60.0529 70.9297 60.3478 71.3363 60.7467 71.5892C61.1505 71.8319 61.5948 71.8706 62.0794 71.7055ZM65.0059 66.1317C65.345 65.3907 65.9386 64.8757 66.7867 64.5867C67.6348 64.2977 68.4156 64.3443 69.129 64.7266C69.8501 65.1064 70.3641 65.7468 70.6712 66.6479C70.9782 67.549 70.9622 68.3701 70.6231 69.1111C70.2916 69.8495 69.7017 70.3632 68.8536 70.6522C68.0055 70.9412 67.2209 70.8958 66.4999 70.5161C65.7865 70.1338 65.2762 69.4921 64.9691 68.5909C64.6621 67.6898 64.6743 66.8701 65.0059 66.1317ZM67.1601 69.3657C67.559 69.6185 67.9932 69.6649 68.4627 69.505C68.9322 69.345 69.2439 69.0444 69.3978 68.6031C69.5593 68.1593 69.5445 67.6572 69.3536 67.0969C69.1626 66.5365 68.8677 66.1299 68.4688 65.8771C68.0775 65.6216 67.6471 65.5739 67.1776 65.7339C66.7081 65.8939 66.3927 66.1958 66.2312 66.6396C66.0773 67.0808 66.0958 67.5816 66.2867 68.142C66.4777 68.7023 66.7688 69.1102 67.1601 69.3657ZM70.4063 64.7731L70.0192 63.6373L75.017 61.9342L75.4041 63.0701L73.5526 63.701L75.1396 68.358L73.8447 68.7993L72.2578 64.1422L70.4063 64.7731ZM77.1871 61.1947L77.787 62.9553L78.9456 62.5605C79.5892 62.3412 80.1687 62.355 80.6839 62.602C81.1965 62.8415 81.5522 63.2527 81.7509 63.8358C81.9522 64.4265 81.9217 64.982 81.6595 65.5024C81.4024 66.0126 80.9557 66.3761 80.3197 66.5928L77.8776 67.425L75.9035 61.6321L77.1871 61.1947ZM82.4915 59.3872L84.4656 65.18L83.182 65.6174L81.208 59.8245L82.4915 59.3872ZM79.1582 63.7051L78.1586 64.0457L78.7934 65.9086L79.7929 65.5679C80.1034 65.4621 80.3148 65.2887 80.427 65.0476C80.5468 64.8039 80.5603 64.5458 80.4674 64.2732C80.3745 64.0006 80.2088 63.812 79.9703 63.7073C79.7393 63.6001 79.4686 63.5993 79.1582 63.7051Z" fill="#0F1414"/>
<defs>
<linearGradient id="paint0_linear_163_810" x1="76.2606" y1="1.90508" x2="99.7113" y2="70.7232" gradientUnits="userSpaceOnUse">
<stop stop-color="#F9F9F9"/>
<stop offset="1" stop-color="#F4F4F4"/>
</linearGradient>
</defs>
</svg>
