<svg width="190" height="120" viewBox="0 0 190 120" fill="none" xmlns="http://www.w3.org/2000/svg">
<path fill-rule="evenodd" clip-rule="evenodd" d="M152.846 37.7574C163.425 40.9365 169.423 52.0891 166.244 62.6674L159.278 85.8466C156.099 96.425 144.946 102.423 134.368 99.2441L91.3507 86.3161C89.8267 85.8581 88.1832 86.0243 86.7818 86.7781L77.3569 91.8471C75.4113 92.8935 72.9858 92.1645 71.9394 90.2189L66.8704 80.7941C66.1167 79.3926 64.8371 78.348 63.3131 77.89L41.1964 71.2432C30.6181 68.0641 24.6199 56.9115 27.799 46.3332L34.7651 23.1539C37.9442 12.5756 49.0968 6.57741 59.6751 9.75652L152.846 37.7574Z" fill="url(#paint0_linear_201_798)"/>
<path d="M53.2798 28.5368L54.6567 28.9581C54.5178 29.2754 54.3227 29.5712 54.0714 29.8457C53.8224 30.1125 53.5219 30.3427 53.1699 30.5361C52.8179 30.7296 52.3969 30.8476 51.907 30.8901C51.4195 30.9249 50.9118 30.8616 50.384 30.7001C49.2977 30.3676 48.5235 29.7124 48.0615 28.7344C47.6095 27.7511 47.5742 26.636 47.9558 25.389C48.3327 24.1574 48.9837 23.2606 49.9086 22.6987C50.8358 22.1291 51.8464 22.0117 52.9404 22.3465C53.9042 22.6414 54.5999 23.143 55.0274 23.8511C55.4573 24.5515 55.6105 25.3221 55.4871 26.1628L54.1216 25.7449C54.1373 25.2561 54.0202 24.8187 53.7702 24.4326C53.5202 24.0466 53.116 23.7681 52.5576 23.5972C51.8615 23.3842 51.2199 23.4849 50.633 23.8992C50.0484 24.306 49.6226 24.9454 49.3557 25.8174C49.0912 26.6819 49.0862 27.45 49.3407 28.1219C49.5953 28.7938 50.0706 29.2363 50.7667 29.4493C51.3481 29.6272 51.8627 29.6132 52.3106 29.4073C52.7585 29.2013 53.0815 28.9111 53.2798 28.5368ZM56.1974 32.3285L54.8893 31.9282L56.6802 26.0761L57.9883 26.4764L57.2439 28.9091L60.2374 27.1647L61.7864 27.6388L58.4227 29.6087L60.03 33.5014L58.4465 33.0168L57.0332 29.5976L56.1974 32.3285ZM67.6999 29.4484L65.909 35.3005L64.6238 34.9072L65.8142 31.0173L61.9731 34.0961L60.7109 33.7098L62.5018 27.8577L63.787 28.251L62.5931 32.1524L66.4376 29.0621L67.6999 29.4484ZM73.6478 36.4139L72.8471 39.0301L71.5849 38.6438L72.0344 37.1751L67.9035 35.9109L67.454 37.3797L66.1918 36.9934L66.9924 34.3772L67.4629 34.5211C67.8657 34.4352 68.2698 33.8938 68.6753 32.8968L69.7747 30.0834L74.2384 31.4494L72.7987 36.154L73.6478 36.4139ZM69.9005 33.322C69.5554 34.2036 69.2095 34.7461 68.8628 34.9495L71.4905 35.7537L72.5791 32.1965L70.5825 31.5855L69.9005 33.322ZM77.2683 32.3766L76.724 34.1552L77.8944 34.5133C78.5446 34.7123 79.0063 35.0628 79.2794 35.5647C79.5548 36.0589 79.6024 36.6005 79.4221 37.1896C79.2395 37.7862 78.8896 38.2188 78.3724 38.4872C77.8652 38.7503 77.2904 38.7835 76.6478 38.5869L74.1807 37.8319L75.9716 31.9798L77.2683 32.3766ZM82.6269 34.0165L80.836 39.8686L79.5394 39.4718L81.3303 33.6197L82.6269 34.0165ZM77.3966 35.5658L76.3869 35.2567L75.811 37.1386L76.8207 37.4476C77.1344 37.5436 77.4073 37.5267 77.6394 37.397C77.8792 37.2695 78.0412 37.0681 78.1255 36.7927C78.2098 36.5174 78.1858 36.2674 78.0538 36.0429C77.9293 35.8208 77.7103 35.6617 77.3966 35.5658ZM82.1875 40.2822L83.9784 34.43L86.6061 35.2342C87.2333 35.4262 87.6682 35.714 87.9105 36.0977C88.1528 36.4814 88.2061 36.8951 88.0703 37.3388C87.972 37.6601 87.8097 37.9033 87.5835 38.0683C87.3673 38.228 87.1304 38.3187 86.8728 38.3402C87.1454 38.5157 87.3437 38.7562 87.4677 39.0619C87.5993 39.3699 87.6078 39.7113 87.4931 40.0861C87.3432 40.5757 87.0367 40.9212 86.5736 41.1224C86.1204 41.3184 85.5725 41.3181 84.9299 41.1214L82.1875 40.2822ZM85.5348 38.5708L84.2381 38.174L83.7816 39.6657L85.0783 40.0625C85.369 40.1514 85.6107 40.1543 85.8035 40.0711C86.0063 39.9825 86.144 39.8197 86.2166 39.5826C86.3664 39.093 86.1391 38.7557 85.5348 38.5708ZM86.1364 36.1948L84.9545 35.8331L84.5401 37.1871L85.722 37.5488C85.9745 37.6261 86.1883 37.6246 86.3634 37.5443C86.5462 37.4664 86.6704 37.3203 86.736 37.1061C86.8717 36.6625 86.6719 36.3587 86.1364 36.1948ZM92.6269 39.2352C92.7276 38.9063 92.6978 38.6211 92.5374 38.3796C92.387 38.1328 92.1397 37.9567 91.7955 37.8513C91.1759 37.6617 90.7205 37.7692 90.4294 38.1737L89.1901 37.7944C89.4364 37.3176 89.8203 36.9791 90.3417 36.779C90.8731 36.5735 91.483 36.5761 92.1715 36.7868C92.8982 37.0092 93.4184 37.3733 93.7321 37.8793C94.0534 38.3875 94.1111 38.9783 93.9051 39.6515L92.7252 43.507L91.5089 43.1347L91.7125 42.4692C91.1203 42.8736 90.434 42.9564 89.6537 42.7176C89.0723 42.5397 88.6369 42.2266 88.3474 41.7782C88.068 41.3246 88.0137 40.8185 88.1846 40.2601C88.3625 39.6787 88.7071 39.2906 89.2186 39.0957C89.74 38.8955 90.3678 38.9078 91.1022 39.1326L92.5251 39.568L92.6269 39.2352ZM90.2672 41.7383C90.6726 41.8623 91.052 41.8529 91.4052 41.7101C91.7609 41.5595 91.9972 41.293 92.1142 40.9105L92.2231 40.5548L90.892 40.1475C90.5478 40.0421 90.2502 40.0305 89.9991 40.1127C89.7581 40.1895 89.5978 40.3579 89.5182 40.618C89.4386 40.8781 89.4684 41.1089 89.6075 41.3105C89.7489 41.5044 89.9688 41.647 90.2672 41.7383ZM101.021 39.6456L99.2305 45.4977L97.9453 45.1044L99.1357 41.2145L95.2946 44.2933L94.0324 43.907L95.8233 38.0549L97.1085 38.4482L95.9145 42.3496L99.7591 39.2594L101.021 39.6456ZM98.3557 35.931C98.2714 36.2064 98.2777 36.4593 98.3745 36.6897C98.4713 36.9201 98.6612 37.0786 98.9443 37.1652C99.2273 37.2519 99.4734 37.2268 99.6826 37.09C99.8918 36.9532 100.039 36.7472 100.123 36.4718L101.178 36.7948C100.988 37.3639 100.664 37.7667 100.206 38.0032C99.7567 38.2421 99.2412 38.2726 98.6598 38.0947C98.0784 37.9168 97.6645 37.6019 97.4179 37.1499C97.179 36.7003 97.1397 36.1863 97.3 35.6079L98.3557 35.931ZM104.16 47.0063L102.852 46.606L104.643 40.7539L105.951 41.1542L105.263 43.4032L107.776 44.1723L108.464 41.9232L109.772 42.3235L107.981 48.1756L106.673 47.7753L107.421 45.3312L104.908 44.5622L104.16 47.0063ZM113.952 45.7614C114.053 45.4324 114.023 45.1472 113.863 44.9057C113.713 44.6589 113.465 44.4828 113.121 44.3775C112.501 44.1879 112.046 44.2953 111.755 44.6998L110.516 44.3206C110.762 43.8438 111.146 43.5053 111.667 43.3051C112.199 43.0996 112.808 43.1022 113.497 43.3129C114.224 43.5353 114.744 43.8995 115.058 44.4054C115.379 44.9137 115.437 45.5044 115.231 46.1776L114.051 50.0331L112.834 49.6609L113.038 48.9953C112.446 49.3997 111.759 49.4825 110.979 49.2438C110.398 49.0658 109.962 48.7527 109.673 48.3044C109.393 47.8507 109.339 47.3447 109.51 46.7863C109.688 46.2049 110.033 45.8167 110.544 45.6219C111.065 45.4217 111.693 45.434 112.428 45.6587L113.851 46.0941L113.952 45.7614ZM111.593 48.2644C111.998 48.3885 112.377 48.3791 112.731 48.2362C113.086 48.0857 113.323 47.8192 113.44 47.4367L113.549 47.081L112.218 46.6736C111.873 46.5683 111.576 46.5567 111.325 46.6388C111.084 46.7156 110.923 46.8841 110.844 47.1442C110.764 47.4043 110.794 47.6351 110.933 47.8366C111.074 48.0305 111.294 48.1731 111.593 48.2644ZM117.149 44.581L118.801 45.0867L119.361 49.9012L122.519 46.2245L124.148 46.7231L122.357 52.5752L121.095 52.1889L122.321 48.1843L119.347 51.6287L118.383 51.3337L117.842 46.8262L116.62 50.8194L115.358 50.4331L117.149 44.581ZM125.568 52.8299C125.512 53.0135 125.413 53.2006 125.271 53.3914L123.965 55.075L122.967 54.7695L124.172 53.1681C123.855 52.9204 123.751 52.6168 123.861 52.2572C123.933 52.0201 124.073 51.8496 124.281 51.7458C124.488 51.6419 124.715 51.6275 124.959 51.7024C125.204 51.7773 125.385 51.9246 125.502 52.1444C125.621 52.3566 125.643 52.5851 125.568 52.8299ZM44.474 36.6846C44.7061 36.1449 45.0958 35.7873 45.6431 35.6118C46.1981 35.4386 46.7969 35.4503 47.4395 35.647C48.0667 35.8389 48.5363 36.1499 48.8481 36.58C49.1599 37.0101 49.2385 37.4775 49.084 37.9824C48.8967 38.5944 48.4838 38.9324 47.8451 38.9963C48.1094 39.1441 48.3136 39.3655 48.4575 39.6606C48.6115 39.9503 48.6288 40.2902 48.5094 40.6804C48.3431 41.2235 47.9829 41.5943 47.4285 41.7928C46.8818 41.9936 46.2528 41.9851 45.5413 41.7674C44.8529 41.5567 44.3333 41.2179 43.9826 40.7508C43.6319 40.2837 43.5073 39.7478 43.6087 39.143L44.8824 39.5328C44.8664 39.804 44.9444 40.0412 45.1164 40.2444C45.2985 40.4424 45.5501 40.5905 45.8714 40.6888C46.208 40.7918 46.4968 40.8049 46.7379 40.7281C46.9812 40.6436 47.1415 40.4751 47.2188 40.2227C47.3639 39.7484 47.0732 39.4001 46.3464 39.1777L45.4858 38.9143L45.8019 37.8816L46.5936 38.1239C46.8996 38.2175 47.1516 38.2277 47.3498 38.1545C47.5578 38.0759 47.697 37.9219 47.7672 37.6924C47.8351 37.4706 47.7998 37.2715 47.6613 37.0953C47.5305 36.9214 47.3236 36.7911 47.0405 36.7045C46.7422 36.6132 46.4775 36.6033 46.2464 36.6748C46.0154 36.7464 45.8415 36.8772 45.7247 37.0674L44.474 36.6846ZM53.6424 39.8543C53.743 39.5253 53.7132 39.2401 53.5529 38.9986C53.4025 38.7518 53.1552 38.5758 52.811 38.4704C52.1913 38.2808 51.7359 38.3882 51.4448 38.7928L50.2056 38.4135C50.4519 37.9367 50.8357 37.5982 51.3571 37.398C51.8885 37.1925 52.4985 37.1951 53.1869 37.4058C53.9137 37.6282 54.4339 37.9924 54.7476 38.4983C55.0689 39.0066 55.1265 39.5974 54.9205 40.2705L53.7406 44.126L52.5243 43.7538L52.728 43.0883C52.1357 43.4927 51.4495 43.5755 50.6692 43.3367C50.0878 43.1588 49.6524 42.8456 49.3629 42.3973C49.0834 41.9437 49.0291 41.4376 49.2 40.8792C49.3779 40.2978 49.7226 39.9097 50.234 39.7148C50.7554 39.5146 51.3833 39.5269 52.1177 39.7516L53.5405 40.1871L53.6424 39.8543ZM51.2826 42.3573C51.6881 42.4814 52.0674 42.472 52.4207 42.3291C52.7763 42.1786 53.0126 41.9121 53.1297 41.5296L53.2386 41.1739L51.9075 40.7665C51.5632 40.6612 51.2656 40.6496 51.0146 40.7317C50.7736 40.8086 50.6132 40.977 50.5336 41.2371C50.4541 41.4972 50.4838 41.728 50.6229 41.9296C50.7644 42.1234 50.9843 42.266 51.2826 42.3573ZM54.4212 44.3594L54.7724 43.2119L54.956 43.2681C55.2773 43.3664 55.5298 43.3475 55.7137 43.2114C55.9076 43.0699 56.0927 42.7794 56.2691 42.3397L57.6305 38.9163L61.9335 40.2331L60.1426 46.0852L58.8345 45.6849L60.2743 40.9803L58.4268 40.4149L57.4803 42.8108C57.1733 43.5953 56.8041 44.1182 56.3728 44.3794C55.9515 44.6353 55.4195 44.6649 54.7769 44.4683L54.4212 44.3594ZM67.417 45.5254L63.2976 44.2647L63.2905 44.2877C63.1524 44.739 63.183 45.1584 63.3824 45.5457C63.5818 45.933 63.9148 46.198 64.3815 46.3408C64.7028 46.4391 64.9866 46.4549 65.2329 46.388C65.4893 46.3159 65.6676 46.2115 65.768 46.0749L67.0532 46.4682C66.8256 46.8838 66.4438 47.202 65.9077 47.4228C65.3793 47.6459 64.7517 47.6463 64.0249 47.4239C63.1529 47.157 62.536 46.6712 62.1744 45.9666C61.8151 45.2542 61.7794 44.4276 62.0674 43.4867C62.3553 42.5458 62.8437 41.8795 63.5324 41.4879C64.2235 41.0887 64.986 41.0166 65.8198 41.2718C66.623 41.5176 67.1848 41.9782 67.5052 42.6535C67.8256 43.3288 67.8512 44.1064 67.582 44.9861L67.417 45.5254ZM65.4747 42.3584C65.0616 42.232 64.6876 42.2514 64.3526 42.4166C64.0252 42.5841 63.778 42.8724 63.611 43.2814L66.4109 44.1382C66.5267 43.7052 66.4984 43.3326 66.3262 43.0206C66.164 42.7032 65.8802 42.4825 65.4747 42.3584ZM68.4451 43.4807L68.7962 42.3333L73.8451 43.8783L73.4939 45.0258L71.6236 44.4534L70.1838 49.1581L68.8757 48.7577L70.3154 44.0531L68.4451 43.4807ZM79.9387 45.7431L78.1478 51.5952L76.8626 51.202L78.0531 47.312L74.212 50.3908L72.9498 50.0045L74.7407 44.1524L76.0258 44.5457L74.8319 48.4471L78.6765 45.3569L79.9387 45.7431ZM81.2907 46.1569L82.943 46.6625L83.5026 51.4771L86.6608 47.8003L88.2902 48.2989L86.4993 54.151L85.2371 53.7648L86.4626 49.7601L83.4885 53.2045L82.5246 52.9096L81.984 48.4021L80.762 52.3953L79.4998 52.009L81.2907 46.1569ZM97.1122 50.9987L95.3213 56.8508L94.0362 56.4575L95.2266 52.5676L91.3855 55.6463L90.1233 55.26L91.9142 49.4079L93.1993 49.8012L92.0054 53.7026L95.85 50.6124L97.1122 50.9987ZM98.9427 57.959L100.734 52.1069L103.361 52.911C103.989 53.103 104.423 53.3909 104.666 53.7746C104.908 54.1583 104.961 54.572 104.825 55.0157C104.727 55.3369 104.565 55.5801 104.339 55.7451C104.123 55.9049 103.886 55.9955 103.628 56.0171C103.901 56.1925 104.099 56.4331 104.223 56.7387C104.355 57.0467 104.363 57.3882 104.248 57.763C104.098 58.2526 103.792 58.598 103.329 58.7993C102.876 58.9953 102.328 58.9949 101.685 58.7983L98.9427 57.959ZM102.29 56.2476L100.993 55.8508L100.537 57.3425L101.833 57.7393C102.124 57.8283 102.366 57.8312 102.559 57.7479C102.762 57.6594 102.899 57.4966 102.972 57.2594C103.122 56.7698 102.894 56.4326 102.29 56.2476ZM102.892 53.8717L101.71 53.51L101.295 54.864L102.477 55.2257C102.73 55.3029 102.943 55.3014 103.119 55.2212C103.301 55.1433 103.426 54.9972 103.491 54.783C103.627 54.3393 103.427 54.0355 102.892 53.8717ZM107.59 59.4884C107.972 59.6054 108.296 59.5999 108.561 59.4719C108.834 59.3462 109.046 59.16 109.196 58.9133L110.47 59.3031C110.219 59.8787 109.796 60.3017 109.203 60.572C108.61 60.8422 107.95 60.8662 107.224 60.6438C106.375 60.3839 105.776 59.8914 105.43 59.1661C105.085 58.4332 105.051 57.6154 105.327 56.7127C105.601 55.8177 106.082 55.1617 106.77 54.7448C107.466 54.3303 108.242 54.2541 109.099 54.5163C109.841 54.7434 110.373 55.1363 110.696 55.6952C111.021 56.2464 111.134 56.8206 111.034 57.4177L109.761 57.028C109.756 56.7421 109.675 56.4746 109.517 56.2255C109.369 55.971 109.111 55.7876 108.744 55.6752C108.285 55.5348 107.864 55.5984 107.481 55.866C107.106 56.1359 106.831 56.5539 106.658 57.12C106.482 57.6938 106.479 58.1987 106.646 58.6349C106.816 59.0634 107.131 59.3479 107.59 59.4884ZM116.741 60.6199L112.622 59.3592L112.615 59.3822C112.477 59.8335 112.507 60.2528 112.707 60.6401C112.906 61.0274 113.239 61.2925 113.706 61.4353C114.027 61.5336 114.311 61.5493 114.557 61.4825C114.813 61.4104 114.992 61.306 115.092 61.1694L116.377 61.5627C116.15 61.9783 115.768 62.2965 115.232 62.5173C114.703 62.7404 114.076 62.7408 113.349 62.5184C112.477 62.2515 111.86 61.7657 111.499 61.061C111.139 60.3487 111.104 59.5221 111.392 58.5812C111.68 57.6402 112.168 56.974 112.857 56.5824C113.548 56.1831 114.31 56.1111 115.144 56.3663C115.947 56.6121 116.509 57.0727 116.829 57.748C117.15 58.4233 117.175 59.2008 116.906 60.0805L116.741 60.6199ZM114.799 57.4529C114.386 57.3264 114.012 57.3458 113.677 57.511C113.349 57.6786 113.102 57.9669 112.935 58.3759L115.735 59.2327C115.851 58.7996 115.823 58.4271 115.65 58.115C115.488 57.7977 115.204 57.5769 114.799 57.4529ZM114.019 53.6877C114.218 53.5815 114.429 53.5624 114.651 53.6303C114.873 53.6982 115.033 53.8308 115.132 54.0283C115.24 54.2205 115.262 54.4237 115.196 54.6379C115.131 54.852 114.998 55.0122 114.798 55.1184C114.608 55.2193 114.402 55.2358 114.181 55.1679C113.959 55.1 113.793 54.97 113.685 54.7778C113.586 54.5803 113.57 54.3745 113.636 54.1603C113.701 53.9461 113.829 53.7886 114.019 53.6877ZM116.451 54.4321C116.651 54.326 116.862 54.3068 117.084 54.3747C117.306 54.4426 117.466 54.5753 117.564 54.7728C117.673 54.9649 117.694 55.1681 117.629 55.3823C117.563 55.5965 117.43 55.7567 117.231 55.8629C117.041 55.9637 116.835 55.9802 116.613 55.9123C116.391 55.8444 116.226 55.7144 116.118 55.5222C116.019 55.3248 116.003 55.1189 116.068 54.9047C116.134 54.6905 116.261 54.533 116.451 54.4321ZM41.74 46.6027L46.8348 48.1618L45.0439 54.0139L43.7358 53.6136L45.1755 48.909L42.697 48.1505L41.2572 52.8551L39.9491 52.4548L41.74 46.6027ZM48.4304 49.4282C49.1391 49.026 49.9219 48.956 50.7787 49.2182C51.6354 49.4804 52.2411 49.9753 52.5957 50.7029C52.958 51.4329 52.9998 52.253 52.7212 53.1633C52.4426 54.0737 51.949 54.7299 51.2403 55.1321C50.5392 55.5367 49.7603 55.6079 48.9035 55.3457C48.0467 55.0835 47.4372 54.5874 47.0749 53.8574C46.7203 53.1298 46.6823 52.3109 46.9609 51.4005C47.2395 50.4902 47.7293 49.8328 48.4304 49.4282ZM48.2837 53.3112C48.459 53.7498 48.7839 54.0416 49.2582 54.1867C49.7324 54.3319 50.1611 54.2706 50.5442 54.003C50.9349 53.7377 51.2169 53.3221 51.3902 52.756C51.5634 52.1899 51.5623 51.6876 51.387 51.2491C51.2193 50.8129 50.8983 50.5223 50.424 50.3771C49.9497 50.232 49.5172 50.292 49.1265 50.5573C48.7434 50.8249 48.4652 51.2418 48.292 51.8079C48.1188 52.3739 48.116 52.8751 48.2837 53.3112ZM59.1558 57.0776L58.3552 59.6938L57.0929 59.3076L57.5424 57.8388L53.4115 56.5747L52.9621 58.0434L51.6998 57.6571L52.5005 55.0409L52.9709 55.1849C53.3737 55.099 53.7778 54.5575 54.1833 53.5606L55.2827 50.7471L59.7464 52.1131L58.3067 56.8178L59.1558 57.0776ZM55.4086 53.9857C55.0635 54.8673 54.7176 55.4098 54.3708 55.6133L56.9986 56.4174L58.0871 52.8603L56.0905 52.2493L55.4086 53.9857ZM64.597 53.4469C65.3237 53.6693 65.8526 54.1282 66.1836 54.8235C66.5223 55.5211 66.5453 56.3481 66.2527 57.3043C65.9601 58.2605 65.4744 58.9318 64.7956 59.3181C64.1245 59.7067 63.4218 59.7886 62.6874 59.5639C62.282 59.4398 61.9485 59.2583 61.687 59.0193C61.4354 58.775 61.2721 58.5159 61.197 58.2419L60.3261 61.0876L59.018 60.6873L61.4796 52.6435L62.7418 53.0298L62.5101 53.7871C63.0599 53.3028 63.7555 53.1894 64.597 53.4469ZM62.824 58.3382C63.283 58.4787 63.7029 58.4189 64.0836 58.159C64.4744 57.8937 64.7575 57.4742 64.9331 56.9005C65.1063 56.3344 65.1053 55.8321 64.9299 55.3936C64.7622 54.9574 64.4489 54.6691 63.9899 54.5286C63.5232 54.3858 63.0957 54.4432 62.7073 54.7009C62.3213 54.9508 62.0405 55.3627 61.8649 55.9364L61.8509 55.9823C61.6753 56.5561 61.6763 57.0584 61.854 57.4892C62.0341 57.9124 62.3574 58.1954 62.824 58.3382ZM68.4054 55.541C69.1141 55.1388 69.8968 55.0688 70.7536 55.331C71.6104 55.5932 72.2161 56.0881 72.5707 56.8157C72.9329 57.5457 72.9748 58.3658 72.6962 59.2762C72.4176 60.1865 71.924 60.8428 71.2152 61.245C70.5142 61.6495 69.7352 61.7207 68.8785 61.4585C68.0217 61.1963 67.4122 60.7002 67.0499 59.9703C66.6953 59.2427 66.6573 58.4237 66.9359 57.5134C67.2145 56.603 67.7043 55.9456 68.4054 55.541ZM68.2587 59.4241C68.434 59.8626 68.7588 60.1544 69.2331 60.2996C69.7074 60.4447 70.1361 60.3835 70.5192 60.1159C70.9099 59.8506 71.1919 59.4349 71.3651 58.8688C71.5384 58.3027 71.5373 57.8004 71.3619 57.3619C71.1942 56.9258 70.8732 56.6351 70.399 56.49C69.9247 56.3448 69.4922 56.4049 69.1014 56.6702C68.7183 56.9378 68.4402 57.3546 68.2669 57.9207C68.0937 58.4868 68.0909 58.9879 68.2587 59.4241ZM77.5941 57.6252C78.3667 57.8616 78.9132 58.3175 79.2336 58.9928C79.5617 59.6705 79.5876 60.4607 79.3114 61.3633C79.0515 62.2125 78.5725 62.8481 77.8744 63.2703C77.1863 63.6872 76.4177 63.7657 75.5686 63.5059C74.62 63.2156 73.9751 62.671 73.6339 61.8722C73.2951 61.0658 73.3001 60.0926 73.6489 58.9528C74.0773 57.5529 74.6234 56.5613 75.2871 55.978C75.9532 55.387 76.8395 55.1563 77.9461 55.2858L80.4548 55.5766L80.0896 56.77L77.8005 56.4585C77.1634 56.3807 76.653 56.4629 76.2693 56.7052C75.8879 56.9399 75.5707 57.3615 75.3175 57.9701C75.9479 57.4686 76.7067 57.3536 77.5941 57.6252ZM75.8474 62.3488C76.3293 62.4963 76.7606 62.44 77.1414 62.1801C77.5321 61.9148 77.8117 61.5068 77.9803 60.956C78.1442 60.4205 78.1361 59.9412 77.9561 59.5179C77.786 59.0894 77.4638 58.8026 76.9896 58.6575C76.5153 58.5123 76.0786 58.5586 75.6796 58.7962C75.2829 59.0262 75.0003 59.4166 74.8318 59.9674C74.6585 60.5334 74.6596 61.0357 74.835 61.4743C75.0203 61.9075 75.3578 62.199 75.8474 62.3488ZM80.7589 64.9436L79.4508 64.5433L81.2417 58.6912L82.5498 59.0915L81.8615 61.3406L84.3745 62.1096L85.0628 59.8606L86.3709 60.2609L84.58 66.113L83.2719 65.7127L84.0198 63.2686L81.5069 62.4995L80.7589 64.9436ZM87.9657 61.527C88.6744 61.1248 89.4572 61.0548 90.314 61.317C91.1707 61.5792 91.7764 62.0741 92.131 62.8017C92.4933 63.5317 92.5351 64.3518 92.2565 65.2621C91.978 66.1725 91.4843 66.8287 90.7756 67.2309C90.0745 67.6355 89.2956 67.7067 88.4388 67.4445C87.582 67.1823 86.9725 66.6862 86.6103 65.9563C86.2557 65.2286 86.2176 64.4097 86.4962 63.4993C86.7748 62.589 87.2646 61.9316 87.9657 61.527ZM87.819 65.4101C87.9944 65.8486 88.3192 66.1404 88.7935 66.2855C89.2678 66.4307 89.6964 66.3694 90.0795 66.1018C90.4702 65.8366 90.7522 65.4209 90.9255 64.8548C91.0987 64.2887 91.0976 63.7864 90.9223 63.3479C90.7546 62.9117 90.4336 62.6211 89.9593 62.4759C89.485 62.3308 89.0525 62.3909 88.6618 62.6561C88.2787 62.9237 88.0005 63.3406 87.8273 63.9067C87.6541 64.4728 87.6513 64.9739 87.819 65.4101ZM99.5603 64.1466C100.287 64.369 100.816 64.8279 101.147 65.5232C101.486 66.2208 101.509 67.0477 101.216 68.004C100.923 68.9602 100.438 69.6315 99.759 70.0177C99.0879 70.4064 98.3851 70.4883 97.6507 70.2636C97.2453 70.1395 96.9118 69.958 96.6503 69.719C96.3988 69.4747 96.2355 69.2155 96.1604 68.9416L95.2895 71.7873L93.9814 71.387L96.443 63.3432L97.7052 63.7295L97.4734 64.4868C98.0232 64.0025 98.7189 63.8891 99.5603 64.1466ZM97.7874 69.0379C98.2464 69.1784 98.6662 69.1186 99.047 68.8587C99.4377 68.5934 99.7209 68.1739 99.8965 67.6001C100.07 67.0341 100.069 66.5318 99.8933 66.0933C99.7256 65.6571 99.4122 65.3688 98.9532 65.2283C98.4866 65.0855 98.0591 65.1429 97.6707 65.4005C97.2846 65.6505 97.0038 66.0624 96.8283 66.6361L96.8142 66.682C96.6386 67.2557 96.6397 67.758 96.8174 68.1889C96.9974 68.6121 97.3208 68.8951 97.7874 69.0379ZM105.954 68.4124C106.055 68.0835 106.025 67.7983 105.865 67.5568C105.715 67.31 105.467 67.1339 105.123 67.0286C104.503 66.8389 104.048 66.9464 103.757 67.3509L102.518 66.9716C102.764 66.4949 103.148 66.1564 103.669 65.9562C104.201 65.7507 104.81 65.7533 105.499 65.964C106.226 66.1864 106.746 66.5505 107.06 67.0565C107.381 67.5648 107.439 68.1555 107.233 68.8287L106.053 72.6842L104.836 72.312L105.04 71.6464C104.448 72.0508 103.761 72.1336 102.981 71.8948C102.4 71.7169 101.964 71.4038 101.675 70.9554C101.395 70.5018 101.341 69.9958 101.512 69.4373C101.69 68.8559 102.035 68.4678 102.546 68.2729C103.067 68.0728 103.695 68.085 104.43 68.3098L105.853 68.7452L105.954 68.4124ZM103.595 70.9155C104 71.0395 104.379 71.0301 104.733 70.8873C105.088 70.7367 105.325 70.4702 105.442 70.0877L105.551 69.732L104.22 69.3247C103.875 69.2193 103.578 69.2077 103.327 69.2899C103.086 69.3667 102.925 69.5352 102.846 69.7953C102.766 70.0554 102.796 70.2862 102.935 70.4877C103.076 70.6816 103.296 70.8242 103.595 70.9155ZM108.373 68.7887C108.605 68.249 108.995 67.8914 109.542 67.7159C110.097 67.5427 110.696 67.5544 111.339 67.7511C111.966 67.9431 112.436 68.2541 112.747 68.6841C113.059 69.1142 113.138 69.5817 112.983 70.0866C112.796 70.6986 112.383 71.0365 111.744 71.1004C112.009 71.2482 112.213 71.4697 112.357 71.7647C112.511 72.0544 112.528 72.3944 112.409 72.7845C112.242 73.3276 111.882 73.6984 111.328 73.8969C110.781 74.0977 110.152 74.0893 109.441 73.8716C108.752 73.6609 108.233 73.322 107.882 72.8549C107.531 72.3879 107.407 71.8519 107.508 71.2471L108.782 71.6369C108.766 71.9081 108.844 72.1453 109.016 72.3485C109.198 72.5465 109.449 72.6946 109.771 72.7929C110.107 72.8959 110.396 72.909 110.637 72.8322C110.88 72.7477 111.041 72.5793 111.118 72.3268C111.263 71.8525 110.972 71.5042 110.246 71.2818L109.385 71.0184L109.701 69.9857L110.493 70.228C110.799 70.3216 111.051 70.3318 111.249 70.2586C111.457 70.1801 111.596 70.026 111.666 69.7965C111.734 69.5747 111.699 69.3757 111.561 69.1994C111.43 69.0255 111.223 68.8953 110.94 68.8086C110.641 68.7173 110.377 68.7074 110.146 68.779C109.915 68.8505 109.741 68.9813 109.624 69.1715L108.373 68.7887ZM117.696 69.8972C118.468 70.1337 119.015 70.5896 119.335 71.2649C119.663 71.9425 119.689 72.7327 119.413 73.6354C119.153 74.4845 118.674 75.1202 117.976 75.5424C117.288 75.9593 116.519 76.0378 115.67 75.7779C114.721 75.4876 114.077 74.9431 113.735 74.1443C113.397 73.3378 113.402 72.3647 113.75 71.2249C114.179 69.8249 114.725 68.8333 115.389 68.25C116.055 67.6591 116.941 67.4283 118.048 67.5578L120.556 67.8487L120.191 69.042L117.902 68.7306C117.265 68.6527 116.754 68.735 116.371 68.9773C115.989 69.212 115.672 69.6336 115.419 70.2421C116.049 69.7406 116.808 69.6257 117.696 69.8972ZM115.949 74.6209C116.431 74.7683 116.862 74.7121 117.243 74.4521C117.634 74.1869 117.913 73.7788 118.082 73.228C118.246 72.6926 118.238 72.2132 118.057 71.79C117.887 71.3615 117.565 71.0747 117.091 70.9295C116.617 70.7844 116.18 70.8306 115.781 71.0683C115.384 71.2982 115.102 71.6886 114.933 72.2394C114.76 72.8055 114.761 73.3078 114.936 73.7463C115.122 74.1795 115.459 74.471 115.949 74.6209ZM125.461 75.8377L121.342 74.577L121.335 74.6C121.196 75.0513 121.227 75.4706 121.426 75.8579C121.626 76.2452 121.959 76.5103 122.425 76.6531C122.747 76.7514 123.031 76.7672 123.277 76.7003C123.533 76.6282 123.712 76.5238 123.812 76.3872L125.097 76.7805C124.87 77.1961 124.488 77.5143 123.952 77.7351C123.423 77.9582 122.796 77.9586 122.069 77.7362C121.197 77.4693 120.58 76.9835 120.218 76.2788C119.859 75.5665 119.823 74.7399 120.111 73.799C120.399 72.858 120.888 72.1918 121.576 71.8002C122.267 71.4009 123.03 71.3289 123.864 71.5841C124.667 71.8299 125.229 72.2905 125.549 72.9658C125.87 73.6411 125.895 74.4186 125.626 75.2984L125.461 75.8377ZM123.519 72.6707C123.106 72.5443 122.732 72.5636 122.397 72.7288C122.069 72.8964 121.822 73.1847 121.655 73.5937L124.455 74.4505C124.571 74.0175 124.542 73.6449 124.37 73.3328C124.208 73.0155 123.924 72.7947 123.519 72.6707ZM130.607 73.6477C131.334 73.8701 131.863 74.3289 132.194 75.0243C132.532 75.7219 132.555 76.5488 132.263 77.5051C131.97 78.4613 131.484 79.1325 130.806 79.5188C130.135 79.9075 129.432 79.9894 128.697 79.7647C128.292 79.6406 127.959 79.4591 127.697 79.2201C127.446 78.9758 127.282 78.7166 127.207 78.4427L126.336 81.2884L125.028 80.8881L127.49 72.8443L128.752 73.2306L128.52 73.9879C129.07 73.5036 129.766 73.3902 130.607 73.6477ZM128.834 78.539C129.293 78.6795 129.713 78.6197 130.094 78.3597C130.484 78.0945 130.768 77.675 130.943 77.1012C131.116 76.5351 131.115 76.0328 130.94 75.5943C130.772 75.1582 130.459 74.8699 130 74.7294C129.533 74.5866 129.106 74.644 128.717 74.9016C128.331 75.1516 128.051 75.5634 127.875 76.1372L127.861 76.1831C127.685 76.7568 127.686 77.2591 127.864 77.69C128.044 78.1132 128.367 78.3962 128.834 78.539ZM138.292 79.7643L134.173 78.5036L134.166 78.5266C134.027 78.9779 134.058 79.3973 134.257 79.7846C134.457 80.1719 134.79 80.4369 135.257 80.5797C135.578 80.678 135.862 80.6938 136.108 80.6269C136.364 80.5548 136.543 80.4504 136.643 80.3138L137.928 80.7071C137.701 81.1227 137.319 81.4409 136.783 81.6617C136.254 81.8848 135.627 81.8852 134.9 81.6628C134.028 81.3959 133.411 80.9101 133.049 80.2055C132.69 79.4932 132.654 78.6665 132.942 77.7256C133.23 76.7847 133.719 76.1184 134.407 75.7268C135.099 75.3276 135.861 75.2555 136.695 75.5107C137.498 75.7565 138.06 76.2171 138.38 76.8924C138.701 77.5677 138.726 78.3453 138.457 79.225L138.292 79.7643ZM136.35 76.5973C135.937 76.4709 135.563 76.4903 135.228 76.6555C134.9 76.823 134.653 77.1113 134.486 77.5203L137.286 78.3772C137.402 77.9441 137.373 77.5715 137.201 77.2595C137.039 76.9421 136.755 76.7214 136.35 76.5973ZM140.321 76.7709L141.973 77.2766L142.533 82.0911L145.691 78.4143L147.32 78.913L145.529 84.7651L144.267 84.3788L145.493 80.3741L142.519 83.8186L141.555 83.5236L141.014 79.0161L139.792 83.0093L138.53 82.623L140.321 76.7709Z" fill="white"/>
<defs>
<linearGradient id="paint0_linear_201_798" x1="109.278" y1="19.9942" x2="77.5335" y2="125.623" gradientUnits="userSpaceOnUse">
<stop stop-color="#66BEBE"/>
<stop offset="1" stop-color="#65DEA3"/>
</linearGradient>
</defs>
</svg>
