<svg width="180" height="100" viewBox="0 0 180 100" fill="none" xmlns="http://www.w3.org/2000/svg">
<g clip-path="url(#clip0_201_744)">
<path fill-rule="evenodd" clip-rule="evenodd" d="M38.1537 27.8902C27.5754 31.0693 21.5772 42.2219 24.7563 52.8002L31.8779 76.4969C35.057 87.0752 46.2096 93.0735 56.7879 89.8944L90.5087 79.7602C90.5628 79.7939 90.6184 79.8261 90.6753 79.8567L98.4947 84.0622C99.9539 84.847 101.773 84.3003 102.558 82.8411L106.763 75.0217C106.794 74.9648 106.823 74.9073 106.849 74.8494L140.418 64.7609C150.996 61.5818 156.994 50.4292 153.815 39.8509L146.694 16.1542C143.515 5.57588 132.362 -0.422352 121.784 2.75676L38.1537 27.8902Z" fill="url(#paint0_linear_201_744)"/>
<path d="M42.8356 46.8456L44.2147 46.4311C44.2754 46.7721 44.2775 47.1265 44.221 47.4943C44.1621 47.8545 44.0401 48.2127 43.8548 48.5691C43.6696 48.9256 43.3851 49.2575 43.0013 49.5649C42.6153 49.8647 42.1579 50.0941 41.6293 50.2529C40.5414 50.5799 39.5337 50.4651 38.6062 49.9085C37.6841 49.3419 37.0354 48.4342 36.6601 47.1853C36.2894 45.9518 36.3326 44.8446 36.7895 43.8635C37.2442 42.8748 38.0194 42.2159 39.1149 41.8866C40.0803 41.5965 40.9374 41.6271 41.6862 41.9784C42.4327 42.3221 42.9881 42.8778 43.3525 43.6454L41.9849 44.0564C41.7265 43.6412 41.3861 43.3425 40.9638 43.1604C40.5415 42.9782 40.0507 42.9712 39.4914 43.1393C38.7942 43.3488 38.3167 43.7888 38.0588 44.4595C37.7986 45.1224 37.7997 45.8906 38.0622 46.764C38.3224 47.6297 38.7449 48.2713 39.3297 48.6886C39.9146 49.1059 40.5556 49.2098 41.2528 49.0003C41.8351 48.8253 42.2553 48.5278 42.5133 48.1077C42.7713 47.6877 42.8788 47.267 42.8356 46.8456ZM44.2965 42.9106L49.399 41.3771L51.1604 47.2382L49.8503 47.6319L48.4343 42.9201L45.9519 43.6661L47.368 48.3779L46.0579 48.7717L44.2965 42.9106ZM53.7939 39.906C54.5218 39.6872 55.2164 39.775 55.8779 40.1693C56.547 40.5613 57.0255 41.2362 57.3133 42.1938C57.6011 43.1515 57.5701 43.9795 57.2203 44.6777C56.8781 45.3736 56.3393 45.8321 55.6038 46.0532C55.1977 46.1752 54.8196 46.2095 54.4694 46.156C54.1245 46.0926 53.8448 45.9678 53.6301 45.7817L54.4867 48.6318L53.1765 49.0255L50.7554 40.9695L52.0196 40.5896L52.2475 41.3481C52.4357 40.6399 52.9512 40.1592 53.7939 39.906ZM55.0366 44.9581C55.4963 44.8199 55.8122 44.537 55.9844 44.1094C56.162 43.6717 56.1644 43.1656 55.9917 42.591C55.8213 42.0241 55.5414 41.607 55.152 41.3397C54.7703 41.0702 54.3496 41.0045 53.8899 41.1427C53.4226 41.2831 53.099 41.5683 52.9191 41.9983C52.7369 42.4206 52.7322 42.919 52.9049 43.4936L52.9187 43.5396C53.0914 44.1142 53.3713 44.5313 53.7584 44.7909C54.1432 45.0428 54.5692 45.0985 55.0366 44.9581ZM58.1239 39.5319C58.4899 38.8038 59.1019 38.3108 59.96 38.0529C60.818 37.795 61.5966 37.8701 62.2956 38.2782C63.0023 38.6839 63.4927 39.3427 63.7667 40.2544C64.0407 41.1661 63.9947 41.986 63.6288 42.7142C63.2705 43.44 62.6624 43.9318 61.8043 44.1897C60.9462 44.4476 60.1638 44.3737 59.4571 43.9679C58.7581 43.5598 58.2716 42.8999 57.9976 41.9882C57.7236 41.0765 57.7657 40.2577 58.1239 39.5319ZM60.1588 42.8423C60.5482 43.1095 60.9804 43.1718 61.4554 43.029C61.9304 42.8863 62.2529 42.5972 62.4228 42.1619C62.6004 41.7243 62.6039 41.222 62.4336 40.655C62.2632 40.0881 61.9833 39.671 61.5939 39.4038C61.2122 39.1342 60.7838 39.0708 60.3088 39.2136C59.8338 39.3563 59.5075 39.6465 59.3299 40.0842C59.16 40.5195 59.1603 41.0206 59.3307 41.5876C59.501 42.1545 59.7771 42.5728 60.1588 42.8423ZM67.88 41.0982C68.263 40.9831 68.5292 40.7987 68.6785 40.545C68.8355 40.289 68.9081 40.0166 68.8965 39.7277L70.1721 39.3443C70.2828 39.9626 70.1666 40.5489 69.8236 41.103C69.4806 41.6572 68.9451 42.0437 68.2173 42.2624C67.3669 42.518 66.596 42.4406 65.9046 42.0302C65.2109 41.6122 64.7283 40.9511 64.4566 40.0471C64.1872 39.1507 64.2228 38.338 64.5634 37.6092C64.9117 36.878 65.5149 36.3834 66.373 36.1256C67.1161 35.9022 67.7771 35.9333 68.3557 36.2188C68.9321 36.4967 69.3449 36.9114 69.5942 37.463L68.3186 37.8464C68.156 37.6112 67.9399 37.434 67.6701 37.3146C67.4056 37.1852 67.0896 37.1758 66.7218 37.2863C66.2621 37.4244 65.9473 37.7112 65.7774 38.1465C65.6152 38.5795 65.6193 39.0795 65.7897 39.6464C65.9623 40.221 66.2396 40.6431 66.6213 40.9127C67.0007 41.1745 67.4203 41.2364 67.88 41.0982ZM75.1925 33.6254L76.9539 39.4864L75.6668 39.8732L74.496 35.9774L73.0121 40.6711L71.748 41.051L69.9865 35.1899L71.2737 34.8031L72.4479 38.7105L73.9284 34.0053L75.1925 33.6254ZM77.6943 39.289L77.3489 38.1398L77.5328 38.0845C77.8546 37.9878 78.0541 37.8318 78.1314 37.6164C78.214 37.3911 78.2066 37.0467 78.109 36.5831L77.3395 32.9801L81.6491 31.685L83.4105 37.546L82.1004 37.9397L80.6843 33.2279L78.8341 33.784L79.3778 36.302C79.5583 37.1249 79.5418 37.7648 79.3282 38.2215C79.12 38.6684 78.6941 38.9885 78.0505 39.1819L77.6943 39.289ZM88.2227 29.7094L89.9842 35.5704L88.697 35.9573L87.5262 32.0614L86.0423 36.7551L84.7782 37.135L83.0167 31.2739L84.3039 30.8871L85.4782 34.7945L86.9586 30.0893L88.2227 29.7094ZM42.8343 55.9304C43.6081 55.6978 44.3158 55.7733 44.9574 56.1569C45.6066 56.5382 46.067 57.1808 46.3387 58.0849C46.5943 58.9353 46.5491 59.73 46.2031 60.4688C45.8625 61.1977 45.2669 61.6899 44.4165 61.9455C43.4665 62.231 42.6278 62.1364 41.9004 61.6617C41.1706 61.1793 40.6343 60.3673 40.2912 59.2257C39.8698 57.8237 39.7731 56.6958 40.001 55.8421C40.2267 54.9807 40.8355 54.2965 41.8276 53.7895L44.0752 52.6379L44.4344 53.8331L42.3579 54.8456C41.7849 55.1347 41.4062 55.4866 41.2217 55.9013C41.0349 56.3082 41.0053 56.835 41.1328 57.4817C41.3784 56.7146 41.9456 56.1974 42.8343 55.9304ZM44.0056 60.8285C44.4883 60.6834 44.8158 60.3971 44.988 59.9694C45.1655 59.5318 45.1714 59.0372 45.0056 58.4855C44.8444 57.9492 44.5715 57.5551 44.1867 57.3032C43.8073 57.0413 43.38 56.9818 42.905 57.1245C42.43 57.2673 42.0926 57.5483 41.8928 57.9675C41.6907 58.3791 41.6726 58.8607 41.8383 59.4123C42.0087 59.9793 42.2886 60.3964 42.678 60.6636C43.0728 60.9209 43.5153 60.9758 44.0056 60.8285ZM50.4898 55.7347C50.3908 55.4053 50.2076 55.1847 49.9401 55.0729C49.678 54.9512 49.3745 54.9422 49.0298 55.0458C48.4092 55.2323 48.0902 55.5746 48.0728 56.0727L46.8317 56.4457C46.7716 55.9124 46.9028 55.4177 47.2252 54.9616C47.5529 54.4956 48.0615 54.1589 48.7511 53.9517C49.4789 53.733 50.1138 53.7468 50.6556 53.9933C51.2052 54.2375 51.5812 54.6967 51.7839 55.3709L52.9443 59.2323L51.7262 59.5984L51.5258 58.9318C51.258 59.5971 50.7333 60.0471 49.9518 60.282C49.3696 60.457 48.8335 60.4384 48.3438 60.2264C47.8594 60.0044 47.5332 59.6138 47.3651 59.0545C47.1901 58.4723 47.2611 57.9581 47.5781 57.5119C47.9005 57.0559 48.4294 56.7173 49.1649 56.4963L50.59 56.068L50.4898 55.7347ZM49.9179 59.1268C50.324 59.0048 50.6342 58.7863 50.8486 58.4712C51.0607 58.1485 51.1092 57.7956 50.9941 57.4126L50.887 57.0563L49.5539 57.457C49.2091 57.5606 48.9552 57.7162 48.7921 57.924C48.6343 58.1217 48.5946 58.3509 48.6729 58.6114C48.7512 58.8719 48.9041 59.0473 49.1318 59.1376C49.3571 59.2202 49.6191 59.2166 49.9179 59.1268ZM52.7102 54.704C52.6034 54.1263 52.7288 53.6125 53.0864 53.1625C53.4517 52.7102 53.9562 52.3874 54.5997 52.194C55.228 52.0052 55.7912 52.003 56.2893 52.1874C56.7875 52.3719 57.1125 52.7169 57.2645 53.2226C57.4487 53.8355 57.293 54.3459 56.7975 54.7538C57.0994 54.7299 57.3921 54.8006 57.6757 54.966C57.9647 55.1214 58.1678 55.3945 58.2853 55.7852C58.4488 56.3292 58.3551 56.8376 58.0044 57.3106C57.6614 57.7812 57.1336 58.1236 56.4211 58.3378C55.7315 58.545 55.1112 58.5518 54.5602 58.3582C54.0092 58.1646 53.6078 57.7882 53.3562 57.2289L54.6319 56.8456C54.7691 57.08 54.9658 57.2339 55.2217 57.3073C55.4831 57.3708 55.7746 57.3542 56.0964 57.2575C56.4335 57.1562 56.6809 57.0066 56.8387 56.8089C56.9941 56.6034 57.0339 56.3743 56.9579 56.1215C56.8151 55.6465 56.3798 55.5183 55.652 55.7371L54.7901 55.9961L54.4792 54.9618L55.2722 54.7235C55.5787 54.6314 55.7939 54.4999 55.918 54.3289C56.0474 54.148 56.0775 53.9427 56.0085 53.7128C55.9417 53.4906 55.8018 53.3447 55.5887 53.2751C55.3833 53.2032 55.1389 53.2098 54.8554 53.295C54.5566 53.3848 54.331 53.5236 54.1786 53.7114C54.0262 53.8992 53.9543 54.1046 53.9629 54.3276L52.7102 54.704ZM58.7383 51.8774C59.1042 51.1493 59.7163 50.6563 60.5743 50.3984C61.4324 50.1406 62.211 50.2157 62.91 50.6237C63.6167 51.0295 64.107 51.6882 64.381 52.6C64.655 53.5117 64.6091 54.3316 64.2432 55.0597C63.8849 55.7856 63.2767 56.2774 62.4187 56.5353C61.5606 56.7932 60.7782 56.7192 60.0715 56.3135C59.3725 55.9054 58.8859 55.2455 58.6119 54.3338C58.3379 53.422 58.3801 52.6033 58.7383 51.8774ZM60.7732 55.1879C61.1626 55.4551 61.5948 55.5173 62.0698 55.3746C62.5448 55.2318 62.8673 54.9428 63.0372 54.5075C63.2147 54.0698 63.2183 53.5676 63.0479 53.0006C62.8776 52.4337 62.5977 52.0166 62.2083 51.7493C61.8266 51.4798 61.3982 51.4164 60.9232 51.5592C60.4482 51.7019 60.1219 51.9921 59.9443 52.4297C59.7744 52.865 59.7747 53.3662 59.945 53.9331C60.1154 54.5001 60.3915 54.9183 60.7732 55.1879ZM66.2849 55.223L64.5235 49.362L67.1552 48.571C67.7835 48.3822 68.3049 48.3801 68.7195 48.5645C69.1342 48.749 69.4083 49.0634 69.5418 49.5078C69.6385 49.8296 69.6387 50.1219 69.5422 50.3848C69.4512 50.6377 69.3045 50.8446 69.1023 51.0056C69.4265 51.0001 69.725 51.09 69.9978 51.2753C70.2784 51.4583 70.4751 51.7375 70.5879 52.1129C70.7352 52.6033 70.6723 53.0608 70.3989 53.4854C70.1309 53.9001 69.6751 54.2041 69.0316 54.3975L66.2849 55.223ZM68.1178 51.9406L66.8191 52.3309L67.2681 53.8249L68.5667 53.4346C68.8579 53.3471 69.0605 53.2152 69.1746 53.0389C69.294 52.8526 69.3181 52.6407 69.2467 52.4032C69.0993 51.9129 68.723 51.7587 68.1178 51.9406ZM67.2983 49.6307L66.1146 49.9864L66.5221 51.3425L67.7058 50.9868C67.9586 50.9108 68.1356 50.7908 68.2367 50.6268C68.3454 50.4604 68.3675 50.27 68.303 50.0555C68.1695 49.6111 67.8346 49.4695 67.2983 49.6307ZM71.6526 47.2194L72.188 49.0007L73.3602 48.6484C74.0114 48.4527 74.59 48.4877 75.0958 48.7533C75.5994 49.0113 75.9398 49.4353 76.1171 50.0252C76.2967 50.6228 76.246 51.1768 75.965 51.6873C75.6894 52.1878 75.2298 52.5348 74.5863 52.7282L72.1154 53.4707L70.354 47.6097L71.6526 47.2194ZM77.0195 45.6065L78.7809 51.4675L77.4823 51.8578L75.7209 45.9968L77.0195 45.6065ZM73.5309 49.8L72.5195 50.104L73.086 51.9887L74.0973 51.6848C74.4114 51.5904 74.6289 51.4247 74.7499 51.1879C74.8785 50.9488 74.9014 50.6913 74.8185 50.4155C74.7356 50.1397 74.5769 49.9451 74.3423 49.8318C74.1155 49.7162 73.845 49.7056 73.5309 49.8ZM83.579 43.6352L85.3404 49.4962L84.0533 49.883L82.8824 45.9872L81.3986 50.6809L80.1344 51.0608L78.373 45.1997L79.6601 44.8129L80.8344 48.7203L82.3148 44.0151L83.579 43.6352ZM79.299 42.027C79.3819 42.3028 79.5276 42.5096 79.7361 42.6474C79.9446 42.7853 80.1905 42.8116 80.474 42.7264C80.7575 42.6412 80.9482 42.4836 81.0462 42.2537C81.1442 42.0238 81.1517 41.7709 81.0688 41.4951L82.1261 41.1773C82.2835 41.7566 82.2377 42.2715 81.9889 42.7222C81.7478 43.1706 81.3361 43.4823 80.7538 43.6573C80.1715 43.8322 79.6523 43.8003 79.1963 43.5615C78.7479 43.3203 78.4297 42.9147 78.2417 42.3447L79.299 42.027ZM88.9673 48.4062L87.2059 42.5452L89.8376 41.7543C90.4658 41.5655 90.9873 41.5633 91.4019 41.7478C91.8165 41.9322 92.0906 42.2467 92.2242 42.691C92.3209 43.0128 92.321 43.3051 92.2246 43.568C92.1335 43.8209 91.9869 44.0279 91.7847 44.1889C92.1088 44.1834 92.4073 44.2733 92.6802 44.4586C92.9607 44.6416 93.1574 44.9208 93.2702 45.2962C93.4176 45.7865 93.3546 46.244 93.0813 46.6686C92.8133 47.0833 92.3575 47.3874 91.7139 47.5808L88.9673 48.4062ZM90.8001 45.1238L89.5015 45.5141L89.9505 47.0081L91.2491 46.6178C91.5402 46.5303 91.7428 46.3984 91.8569 46.2221C91.9764 46.0359 92.0004 45.824 91.929 45.5865C91.7817 45.0961 91.4054 44.9419 90.8001 45.1238ZM89.9806 42.814L88.7969 43.1697L89.2045 44.5258L90.3882 44.17C90.641 44.0941 90.8179 43.974 90.919 43.81C91.0277 43.6437 91.0499 43.4533 90.9854 43.2387C90.8518 42.7944 90.5169 42.6528 89.9806 42.814ZM93.7102 41.3673C94.0761 40.6392 94.6881 40.1462 95.5462 39.8883C96.4043 39.6304 97.1828 39.7055 97.8819 40.1136C98.5886 40.5194 99.0789 41.1781 99.3529 42.0898C99.6269 43.0015 99.5809 43.8215 99.215 44.5496C98.8568 45.2754 98.2486 45.7673 97.3905 46.0252C96.5324 46.283 95.75 46.2091 95.0433 45.8033C94.3443 45.3952 93.8578 44.7353 93.5838 43.8236C93.3098 42.9119 93.3519 42.0931 93.7102 41.3673ZM95.7451 44.6777C96.1345 44.945 96.5667 45.0072 97.0417 44.8644C97.5167 44.7217 97.8391 44.4326 98.009 43.9973C98.1866 43.5597 98.1902 43.0574 98.0198 42.4905C97.8494 41.9235 97.5695 41.5064 97.1801 41.2392C96.7984 40.9696 96.37 40.9063 95.895 41.049C95.42 41.1918 95.0937 41.482 94.9162 41.9196C94.7463 42.3549 94.7465 42.856 94.9169 43.423C95.0873 43.9899 95.3633 44.4082 95.7451 44.6777ZM99.4954 38.8518L104.598 37.3183L106.359 43.1794L105.049 43.5731L103.633 38.8613L101.151 39.6073L102.567 44.3191L101.257 44.7129L99.4954 38.8518ZM108.993 35.8472C109.721 35.6284 110.415 35.7162 111.077 36.1105C111.746 36.5025 112.224 37.1774 112.512 38.135C112.8 39.0927 112.769 39.9207 112.419 40.6189C112.077 41.3149 111.538 41.7733 110.803 41.9944C110.397 42.1164 110.018 42.1507 109.668 42.0972C109.323 42.0338 109.044 41.909 108.829 41.7229L109.686 44.573L108.375 44.9667L105.954 36.9107L107.218 36.5308L107.446 37.2893C107.635 36.5811 108.15 36.1004 108.993 35.8472ZM110.235 40.8993C110.695 40.7611 111.011 40.4782 111.183 40.0506C111.361 39.6129 111.363 39.1068 111.191 38.5322C111.02 37.9653 110.74 37.5482 110.351 37.2809C109.969 37.0114 109.549 36.9457 109.089 37.0839C108.621 37.2243 108.298 37.5095 108.118 37.9395C107.936 38.3618 107.931 38.8602 108.104 39.4348L108.118 39.4808C108.29 40.0554 108.57 40.4725 108.957 40.7321C109.342 40.984 109.768 41.0397 110.235 40.8993ZM113.323 35.4731C113.689 34.745 114.301 34.252 115.159 33.9941C116.017 33.7362 116.796 33.8113 117.495 34.2194C118.201 34.6251 118.692 35.2839 118.966 36.1956C119.24 37.1073 119.194 37.9272 118.828 38.6554C118.469 39.3812 117.861 39.873 117.003 40.1309C116.145 40.3888 115.363 40.3149 114.656 39.9091C113.957 39.501 113.47 38.8411 113.196 37.9294C112.922 37.0177 112.965 36.1989 113.323 35.4731ZM115.358 38.7835C115.747 39.0507 116.179 39.113 116.654 38.9702C117.129 38.8275 117.452 38.5384 117.622 38.1031C117.799 37.6655 117.803 37.1632 117.632 36.5962C117.462 36.0293 117.182 35.6122 116.793 35.345C116.411 35.0754 115.983 35.012 115.508 35.1548C115.033 35.2975 114.706 35.5877 114.529 36.0254C114.359 36.4607 114.359 36.9618 114.53 37.5288C114.7 38.0957 114.976 38.514 115.358 38.7835ZM123.079 37.0394C123.462 36.9243 123.728 36.7399 123.877 36.4862C124.034 36.2302 124.107 35.9578 124.095 35.6689L125.371 35.2855C125.482 35.9038 125.365 36.4901 125.022 37.0442C124.679 37.5984 124.144 37.9849 123.416 38.2036C122.566 38.4592 121.795 38.3818 121.104 37.9714C120.41 37.5534 119.927 36.8923 119.655 35.9883C119.386 35.0919 119.422 34.2792 119.762 33.5504C120.111 32.8192 120.714 32.3246 121.572 32.0668C122.315 31.8434 122.976 31.8745 123.555 32.16C124.131 32.4379 124.544 32.8526 124.793 33.4042L123.517 33.7876C123.355 33.5524 123.139 33.3752 122.869 33.2558C122.605 33.1264 122.288 33.117 121.921 33.2275C121.461 33.3656 121.146 33.6524 120.976 34.0877C120.814 34.5207 120.818 35.0207 120.989 35.5876C121.161 36.1622 121.438 36.5843 121.82 36.8539C122.2 37.1157 122.619 37.1776 123.079 37.0394ZM43.2748 68.2781L48.3774 66.7446L50.1388 72.6056L48.8287 72.9993L47.4126 68.2875L44.9303 69.0335L46.3464 73.7454L45.0362 74.1391L43.2748 68.2781ZM52.7723 65.2734C53.5001 65.0547 54.1948 65.1424 54.8563 65.5367C55.5254 65.9287 56.0039 66.6036 56.2917 67.5613C56.5795 68.519 56.5485 69.3469 56.1986 70.0452C55.8565 70.7411 55.3176 71.1996 54.5821 71.4206C54.1761 71.5426 53.7979 71.5769 53.4477 71.5235C53.1029 71.46 52.8231 71.3353 52.6085 71.1492L53.465 73.9992L52.1549 74.393L49.7338 66.3369L50.998 65.957L51.2259 66.7155C51.4141 66.0074 51.9295 65.5267 52.7723 65.2734ZM54.0149 70.3255C54.4746 70.1874 54.7906 69.9045 54.9628 69.4768C55.1403 69.0392 55.1428 68.5331 54.9701 67.9585C54.7997 67.3915 54.5198 66.9744 54.1304 66.7072C53.7487 66.4376 53.328 66.3719 52.8683 66.5101C52.4009 66.6506 52.0773 66.9358 51.8975 67.3657C51.7153 67.788 51.7106 68.2865 51.8832 68.8611L51.8971 68.9071C52.0698 69.4817 52.3496 69.8988 52.7367 70.1583C53.1215 70.4102 53.5476 70.466 54.0149 70.3255ZM57.1023 64.8993C57.4682 64.1712 58.0802 63.6782 58.9383 63.4203C59.7964 63.1624 60.575 63.2375 61.274 63.6456C61.9807 64.0514 62.471 64.7101 62.745 65.6218C63.019 66.5336 62.9731 67.3535 62.6071 68.0816C62.2489 68.8074 61.6407 69.2993 60.7826 69.5572C59.9245 69.8151 59.1422 69.7411 58.4355 69.3353C57.7364 68.9273 57.2499 68.2674 56.9759 67.3556C56.7019 66.4439 56.744 65.6252 57.1023 64.8993ZM59.1372 68.2097C59.5266 68.477 59.9588 68.5392 60.4338 68.3965C60.9088 68.2537 61.2313 67.9647 61.4012 67.5293C61.5787 67.0917 61.5823 66.5894 61.4119 66.0225C61.2415 65.4555 60.9616 65.0384 60.5723 64.7712C60.1905 64.5017 59.7622 64.4383 59.2871 64.581C58.8121 64.7238 58.4858 65.014 58.3083 65.4516C58.1384 65.8869 58.1386 66.3881 58.309 66.955C58.4794 67.522 58.7555 67.9402 59.1372 68.2097ZM68.2319 67.1681L66.9218 67.5618L65.1603 61.7008L66.4704 61.307L67.2027 63.7434L68.7229 60.6301L70.2744 60.1638L68.5715 63.6703L72.0703 66.0145L70.4844 66.4911L67.4099 64.4329L68.2319 67.1681ZM71.3841 60.6072C71.75 59.8791 72.362 59.3861 73.2201 59.1282C74.0782 58.8703 74.8567 58.9454 75.5558 59.3535C76.2625 59.7593 76.7528 60.418 77.0268 61.3297C77.3008 62.2414 77.2549 63.0614 76.8889 63.7895C76.5307 64.5153 75.9225 65.0072 75.0644 65.265C74.2063 65.5229 73.4239 65.449 72.7173 65.0432C72.0182 64.6351 71.5317 63.9752 71.2577 63.0635C70.9837 62.1518 71.0258 61.333 71.3841 60.6072ZM73.419 63.9176C73.8084 64.1848 74.2406 64.2471 74.7156 64.1043C75.1906 63.9616 75.5131 63.6725 75.683 63.2372C75.8605 62.7996 75.8641 62.2973 75.6937 61.7304C75.5233 61.1634 75.2434 60.7463 74.854 60.4791C74.4723 60.2095 74.0439 60.1461 73.5689 60.2889C73.0939 60.4317 72.7676 60.7219 72.5901 61.1595C72.4202 61.5948 72.4204 62.0959 72.5908 62.6629C72.7612 63.2298 73.0373 63.6481 73.419 63.9176ZM77.1693 58.0917L78.8242 57.5944L81.9638 61.287L82.5476 56.4753L84.1795 55.9849L85.941 61.8459L84.6768 62.2259L83.4714 58.2151L82.9116 62.7313L81.9462 63.0214L78.9929 59.5735L80.1948 63.5728L78.9307 63.9527L77.1693 58.0917ZM85.5362 55.5772L90.6387 54.0437L92.4001 59.9048L91.09 60.2985L89.674 55.5867L87.1916 56.3327L88.6077 61.0445L87.2976 61.4382L85.5362 55.5772ZM92.669 54.2104C93.0349 53.4823 93.6469 52.9893 94.505 52.7314C95.3631 52.4735 96.1416 52.5486 96.8407 52.9567C97.5473 53.3625 98.0377 54.0212 98.3117 54.9329C98.5857 55.8447 98.5397 56.6646 98.1738 57.3927C97.8156 58.1185 97.2074 58.6104 96.3493 58.8683C95.4912 59.1262 94.7088 59.0522 94.0021 58.6464C93.3031 58.2384 92.8166 57.5785 92.5426 56.6667C92.2686 55.755 92.3107 54.9363 92.669 54.2104ZM94.7039 57.5208C95.0933 57.7881 95.5255 57.8503 96.0005 57.7076C96.4755 57.5648 96.7979 57.2758 96.9678 56.8404C97.1454 56.4028 97.149 55.9005 96.9786 55.3336C96.8082 54.7666 96.5283 54.3495 96.1389 54.0823C95.7572 53.8128 95.3288 53.7494 94.8538 53.8921C94.3788 54.0349 94.0525 54.3251 93.875 54.7627C93.7051 55.198 93.7053 55.6992 93.8757 56.2661C94.0461 56.8331 94.3221 57.2513 94.7039 57.5208ZM101.526 57.1622L100.216 57.556L98.4541 51.6949L99.7643 51.3012L100.441 53.5537L102.958 52.7973L102.281 50.5448L103.591 50.1511L105.353 56.0121L104.042 56.4059L103.307 53.958L100.79 54.7144L101.526 57.1622ZM111.079 51.5096L106.953 52.7495L106.96 52.7725C107.096 53.2245 107.354 53.5562 107.735 53.7675C108.116 53.9788 108.54 54.0142 109.007 53.8738C109.329 53.7771 109.574 53.6325 109.742 53.4401C109.915 53.2377 110.005 53.0519 110.013 52.8825L111.3 52.4957C111.341 52.9677 111.201 53.4444 110.877 53.9257C110.562 54.4048 110.04 54.7537 109.312 54.9724C108.439 55.2349 107.656 55.1736 106.964 54.7885C106.27 54.3958 105.781 53.7282 105.498 52.7859C105.214 51.8435 105.25 51.0182 105.606 50.31C105.959 49.5942 106.553 49.1107 107.388 48.8598C108.192 48.618 108.915 48.6889 109.557 49.0725C110.198 49.4561 110.651 50.0884 110.916 50.9695L111.079 51.5096ZM107.704 49.955C107.291 50.0793 106.99 50.3032 106.804 50.6267C106.624 50.9478 106.579 51.3248 106.667 51.7577L109.471 50.915C109.327 50.4906 109.097 50.1964 108.78 50.0326C108.469 49.8588 108.11 49.8329 107.704 49.955ZM114.174 53.3609L112.864 53.7547L111.103 47.8936L112.413 47.4999L113.09 49.7524L115.607 48.996L114.93 46.7435L116.24 46.3498L118.001 52.2108L116.691 52.6046L115.955 50.1567L113.439 50.9131L114.174 53.3609ZM117.481 47.2297L117.136 46.0805L122.192 44.5609L122.538 45.7101L120.664 46.273L122.081 50.9849L120.77 51.3786L119.354 46.6668L117.481 47.2297ZM124.388 43.901L124.923 45.6823L126.095 45.33C126.747 45.1343 127.325 45.1693 127.831 45.4349C128.335 45.6929 128.675 46.1169 128.852 46.7068C129.032 47.3044 128.981 47.8584 128.7 48.3689C128.425 48.8694 127.965 49.2164 127.322 49.4098L124.851 50.1523L123.089 44.2913L124.388 43.901ZM129.755 42.2881L131.516 48.1492L130.218 48.5394L128.456 42.6784L129.755 42.2881ZM126.266 46.4816L125.255 46.7856L125.821 48.6703L126.833 48.3664C127.147 48.272 127.364 48.1064 127.485 47.8695C127.614 47.6304 127.637 47.3729 127.554 47.0971C127.471 46.8213 127.312 46.6267 127.078 46.5134C126.851 46.3978 126.58 46.3872 126.266 46.4816Z" fill="#0F1414"/>
</g>
<defs>
<linearGradient id="paint0_linear_201_744" x1="78.3594" y1="1.2689" x2="99.8668" y2="72.8335" gradientUnits="userSpaceOnUse">
<stop stop-color="#F9F9F9"/>
<stop offset="1" stop-color="#F4F4F4"/>
</linearGradient>
<clipPath id="clip0_201_744">
<rect width="180" height="100" fill="white"/>
</clipPath>
</defs>
</svg>
