<svg width="190" height="120" viewBox="0 0 190 120" fill="none" xmlns="http://www.w3.org/2000/svg">
<path fill-rule="evenodd" clip-rule="evenodd" d="M153.847 46.0995C161.252 48.3249 165.451 56.1317 163.225 63.5365L156.736 85.131C154.51 92.5358 146.703 96.7345 139.299 94.5092L83.2938 77.6779L71.0191 84.2797L64.4174 72.005L39.2441 64.4396C31.8393 62.2142 27.6405 54.4074 29.8659 47.0026L36.3557 25.4082C38.5811 18.0034 46.3879 13.8046 53.7927 16.03L153.847 46.0995Z" fill="url(#paint0_linear_163_822)"/>
<path d="M53.4063 31.755C54.2707 32.0195 54.8755 32.4765 55.2205 33.1259C55.5656 33.7753 55.6211 34.4825 55.387 35.2475C55.1576 35.9972 54.712 36.551 54.0502 36.9091C53.3985 37.2618 52.6557 37.3106 51.8219 37.0554L50.2154 36.5638L49.3621 39.3521L47.9966 38.9342L50.4688 30.856L53.4063 31.755ZM52.8999 32.9177L51.4655 32.4788L50.5806 35.3704L52.015 35.8093C52.4969 35.9568 52.9127 35.9377 53.2624 35.7519C53.6197 35.5684 53.8651 35.2586 53.9985 34.8226C54.132 34.3866 54.1046 33.9975 53.9165 33.6555C53.7283 33.3135 53.3895 33.0675 52.8999 32.9177ZM59.1388 38.1024C59.2395 37.7734 59.2096 37.4882 59.0493 37.2467C58.8989 36.9999 58.6516 36.8238 58.3074 36.7185C57.6878 36.5289 57.2324 36.6363 56.9413 37.0408L55.702 36.6616C55.9483 36.1848 56.3322 35.8463 56.8536 35.6461C57.385 35.4406 57.9949 35.4432 58.6834 35.6539C59.4101 35.8763 59.9303 36.2405 60.244 36.7464C60.5653 37.2547 60.623 37.8454 60.417 38.5186L59.2371 42.3741L58.0208 42.0019L58.2244 41.3364C57.6322 41.7407 56.9459 41.8235 56.1656 41.5848C55.5842 41.4068 55.1488 41.0937 54.8593 40.6454C54.5798 40.1917 54.5256 39.6857 54.6964 39.1273C54.8744 38.5459 55.219 38.1577 55.7304 37.9629C56.2518 37.7627 56.8797 37.775 57.6141 37.9997L59.037 38.4351L59.1388 38.1024ZM56.7791 40.6054C57.1845 40.7295 57.5639 40.7201 57.9171 40.5772C58.2728 40.4267 58.5091 40.1602 58.6261 39.7777L58.735 39.422L57.4039 39.0146C57.0597 38.9093 56.7621 38.8977 56.511 38.9798C56.27 39.0566 56.1097 39.2251 56.0301 39.4852C55.9505 39.7453 55.9802 39.9761 56.1194 40.1776C56.2608 40.3715 56.4807 40.5141 56.7791 40.6054ZM61.5577 38.4787C61.7897 37.939 62.1795 37.5813 62.7268 37.4058C63.2817 37.2326 63.8805 37.2444 64.5231 37.441C65.1504 37.633 65.6199 37.944 65.9317 38.3741C66.2435 38.8041 66.3222 39.2716 66.1677 39.7765C65.9804 40.3885 65.5674 40.7264 64.9288 40.7903C65.1931 40.9382 65.3972 41.1596 65.5412 41.4546C65.6951 41.7444 65.7124 42.0843 65.593 42.4744C65.4268 43.0176 65.0665 43.3884 64.5122 43.5868C63.9655 43.7877 63.3364 43.7792 62.625 43.5615C61.9365 43.3508 61.4169 43.0119 61.0663 42.5449C60.7156 42.0778 60.591 41.5419 60.6924 40.9371L61.9661 41.3268C61.95 41.598 62.028 41.8352 62.2001 42.0385C62.3821 42.2364 62.6338 42.3845 62.9551 42.4829C63.2917 42.5859 63.5805 42.599 63.8215 42.5221C64.0649 42.4377 64.2252 42.2692 64.3025 42.0167C64.4476 41.5425 64.1568 41.1941 63.4301 40.9717L62.5695 40.7083L62.8855 39.6756L63.6773 39.9179C63.9833 40.0116 64.2353 40.0218 64.4334 39.9485C64.6415 39.87 64.7807 39.716 64.8509 39.4865C64.9188 39.2646 64.8835 39.0656 64.745 38.8893C64.6142 38.7154 64.4072 38.5852 64.1242 38.4986C63.8258 38.4073 63.5611 38.3974 63.3301 38.4689C63.0991 38.5404 62.9252 38.6713 62.8084 38.8614L61.5577 38.4787ZM70.8799 39.5872C71.6526 39.8236 72.1991 40.2795 72.5195 40.9548C72.8476 41.6325 72.8735 42.4226 72.5972 43.3253C72.3374 44.1744 71.8584 44.8101 71.1603 45.2323C70.4722 45.6492 69.7035 45.7277 68.8544 45.4679C67.9058 45.1776 67.261 44.633 66.9198 43.8342C66.5809 43.0278 66.5859 42.0546 66.9347 40.9148C67.3631 39.5149 67.9092 38.5233 68.573 37.94C69.2391 37.349 70.1254 37.1183 71.2319 37.2478L73.7406 37.5386L73.3754 38.732L71.0864 38.4205C70.4493 38.3427 69.9389 38.4249 69.5552 38.6672C69.1738 38.9019 68.8565 39.3235 68.6034 39.9321C69.2337 39.4306 69.9926 39.3156 70.8799 39.5872ZM69.1332 44.3108C69.6151 44.4583 70.0465 44.402 70.4272 44.1421C70.818 43.8768 71.0976 43.4688 71.2662 42.918C71.43 42.3825 71.4219 41.9031 71.2419 41.4799C71.0719 41.0514 70.7497 40.7646 70.2754 40.6194C69.8011 40.4743 69.3645 40.5205 68.9655 40.7582C68.5688 40.9882 68.2862 41.3786 68.1176 41.9294C67.9444 42.4954 67.9455 42.9977 68.1208 43.4362C68.3062 43.8694 68.6436 44.161 69.1332 44.3108ZM78.6454 45.5276L74.526 44.2669L74.5189 44.2899C74.3808 44.7412 74.4115 45.1606 74.6109 45.5479C74.8102 45.9352 75.1433 46.2002 75.6099 46.343C75.9312 46.4413 76.215 46.4571 76.4614 46.3902C76.7177 46.3181 76.896 46.2137 76.9964 46.0771L78.2816 46.4704C78.054 46.886 77.6722 47.2042 77.1361 47.425C76.6077 47.6481 75.9801 47.6485 75.2534 47.4261C74.3813 47.1592 73.7644 46.6734 73.4028 45.9688C73.0435 45.2565 73.0079 44.4298 73.2958 43.4889C73.5837 42.548 74.0721 41.8817 74.7608 41.4901C75.4519 41.0909 76.2144 41.0188 77.0482 41.274C77.8514 41.5198 78.4132 41.9804 78.7337 42.6557C79.0541 43.331 79.0797 44.1086 78.8104 44.9883L78.6454 45.5276ZM76.7031 42.3606C76.29 42.2342 75.916 42.2536 75.581 42.4188C75.2536 42.5863 75.0064 42.8746 74.8394 43.2836L77.6393 44.1405C77.7551 43.7074 77.7269 43.3348 77.5546 43.0228C77.3924 42.7054 77.1086 42.4847 76.7031 42.3606ZM83.7915 43.3376C84.5182 43.56 85.0471 44.0189 85.3781 44.7142C85.7168 45.4118 85.7398 46.2388 85.4472 47.195C85.1545 48.1512 84.6689 48.8225 83.9901 49.2088C83.319 49.5974 82.6163 49.6793 81.8819 49.4546C81.4764 49.3305 81.143 49.149 80.8815 48.91C80.6299 48.6657 80.4666 48.4066 80.3915 48.1326L79.5206 50.9783L78.2125 50.578L80.6741 42.5342L81.9363 42.9205L81.7046 43.6778C82.2544 43.1935 82.95 43.0801 83.7915 43.3376ZM82.0185 48.2289C82.4775 48.3694 82.8974 48.3096 83.2781 48.0497C83.6689 47.7844 83.952 47.3649 84.1276 46.7912C84.3008 46.2251 84.2998 45.7228 84.1244 45.2843C83.9567 44.8481 83.6434 44.5598 83.1844 44.4193C82.7177 44.2765 82.2902 44.3339 81.9018 44.5915C81.5158 44.8415 81.235 45.2534 81.0594 45.8271L81.0453 45.873C80.8698 46.4467 80.8708 46.949 81.0485 47.3799C81.2286 47.8031 81.5519 48.0861 82.0185 48.2289ZM91.4765 49.4542L87.357 48.1936L87.35 48.2165C87.2119 48.6679 87.2425 49.0872 87.4419 49.4745C87.6413 49.8618 87.9743 50.1268 88.441 50.2696C88.7623 50.368 89.0461 50.3837 89.2924 50.3169C89.5487 50.2447 89.7271 50.1403 89.8275 50.0037L91.1126 50.397C90.8851 50.8126 90.5032 51.1308 89.9672 51.3516C89.4387 51.5748 88.8111 51.5751 88.0844 51.3527C87.2123 51.0858 86.5955 50.6001 86.2339 49.8954C85.8746 49.1831 85.8389 48.3565 86.1269 47.4155C86.4148 46.4746 86.9032 45.8083 87.5919 45.4168C88.283 45.0175 89.0454 44.9455 89.8793 45.2006C90.6825 45.4465 91.2443 45.907 91.5647 46.5823C91.8851 47.2577 91.9107 48.0352 91.6415 48.9149L91.4765 49.4542ZM89.5342 46.2872C89.1211 46.1608 88.747 46.1802 88.412 46.3454C88.0847 46.5129 87.8375 46.8012 87.6705 47.2103L90.4703 48.0671C90.5861 47.634 90.5579 47.2614 90.3857 46.9494C90.2235 46.632 89.9396 46.4113 89.5342 46.2872ZM93.5052 46.4609L95.1575 46.9665L95.7172 51.781L98.8753 48.1043L100.505 48.6029L98.7139 54.455L97.4516 54.0687L98.6772 50.0641L95.703 53.5085L94.7392 53.2136L94.1985 48.706L92.9765 52.6992L91.7143 52.313L93.5052 46.4609ZM102.894 54.6173C103.276 54.7344 103.6 54.7289 103.865 54.6008C104.138 54.4751 104.35 54.289 104.5 54.0423L105.774 54.4321C105.523 55.0077 105.1 55.4306 104.507 55.7009C103.914 55.9712 103.254 55.9952 102.528 55.7728C101.679 55.5129 101.081 55.0203 100.734 54.2951C100.389 53.5621 100.355 52.7443 100.631 51.8417C100.905 50.9466 101.386 50.2907 102.074 49.8738C102.77 49.4592 103.546 49.3831 104.403 49.6453C105.145 49.8723 105.677 50.2653 106 50.8242C106.325 51.3754 106.438 51.9496 106.339 52.5467L105.065 52.1569C105.06 51.8711 104.979 51.6036 104.821 51.3544C104.673 51.1 104.415 50.9166 104.048 50.8042C103.589 50.6637 103.168 50.7273 102.785 50.9949C102.41 51.2649 102.135 51.6829 101.962 52.249C101.787 52.8227 101.783 53.3277 101.95 53.7638C102.12 54.1924 102.435 54.4769 102.894 54.6173ZM110.577 58.0855L109.281 57.6887L109.86 55.7954L108.976 55.525L107.055 57.0075L105.586 56.558L107.705 54.9226C107.395 54.6519 107.184 54.3281 107.074 53.9513C106.973 53.5691 106.984 53.1792 107.105 52.7814C107.281 52.2076 107.612 51.7945 108.1 51.542C108.597 51.2843 109.186 51.2595 109.867 51.4679L112.368 52.2334L110.577 58.0855ZM108.878 52.6084C108.643 52.7205 108.483 52.9143 108.399 53.1897C108.314 53.465 108.338 53.715 108.47 53.9395C108.602 54.1639 108.825 54.3242 109.139 54.4202L110.183 54.7397L110.745 52.9038L109.701 52.5842C109.387 52.4882 109.113 52.4963 108.878 52.6084ZM113.792 58.3414C113.736 58.525 113.636 58.7122 113.494 58.903L112.189 60.5865L111.19 60.281L112.396 58.6796C112.078 58.4319 111.975 58.1283 112.085 57.7687C112.157 57.5316 112.297 57.3611 112.505 57.2573C112.712 57.1534 112.938 57.139 113.183 57.2139C113.428 57.2888 113.609 57.4362 113.725 57.656C113.845 57.8681 113.867 58.0966 113.792 58.3414ZM118.074 60.3797L116.766 59.9794L118.557 54.1273L119.865 54.5276L119.12 56.9603L122.114 55.2159L123.663 55.6899L120.299 57.6598L121.907 61.5526L120.323 61.068L118.91 57.6487L118.074 60.3797ZM127.116 58.905C127.216 58.5761 127.187 58.2909 127.026 58.0494C126.876 57.8026 126.629 57.6265 126.284 57.5211C125.665 57.3315 125.209 57.439 124.918 57.8435L123.679 57.4642C123.925 56.9874 124.309 56.649 124.83 56.4488C125.362 56.2433 125.972 56.2459 126.66 56.4566C127.387 56.679 127.907 57.0431 128.221 57.5491C128.542 58.0574 128.6 58.6481 128.394 59.3213L127.214 63.1768L125.998 62.8046L126.201 62.139C125.609 62.5434 124.923 62.6262 124.143 62.3874C123.561 62.2095 123.126 61.8964 122.836 61.448C122.557 60.9944 122.502 60.4884 122.673 59.9299C122.851 59.3485 123.196 58.9604 123.707 58.7655C124.229 58.5653 124.857 58.5776 125.591 58.8024L127.014 59.2378L127.116 58.905ZM124.756 61.4081C125.161 61.5321 125.541 61.5227 125.894 61.3799C126.25 61.2293 126.486 60.9628 126.603 60.5803L126.712 60.2246L125.381 59.8173C125.037 59.7119 124.739 59.7003 124.488 59.7825C124.247 59.8593 124.087 60.0278 124.007 60.2879C123.927 60.5479 123.957 60.7788 124.096 60.9803C124.238 61.1742 124.458 61.3168 124.756 61.4081ZM129.829 63.9771L128.521 63.5768L130.312 57.7247L131.62 58.125L130.876 60.5577L133.869 58.8133L135.418 59.2874L132.055 61.2573L133.662 65.15L132.078 64.6654L130.665 61.2462L129.829 63.9771ZM46.1383 44.5147L51.233 46.0738L49.4421 51.9259L48.134 51.5256L49.5738 46.821L47.0952 46.0625L45.6555 50.7671L44.3474 50.3668L46.1383 44.5147ZM52.8287 47.3402C53.5374 46.938 54.3202 46.868 55.1769 47.1302C56.0337 47.3924 56.6394 47.8873 56.994 48.6149C57.3562 49.3449 57.3981 50.165 57.1195 51.0753C56.8409 51.9857 56.3473 52.6419 55.6385 53.0441C54.9375 53.4487 54.1585 53.5199 53.3018 53.2577C52.445 52.9955 51.8355 52.4994 51.4732 51.7694C51.1186 51.0418 51.0806 50.2229 51.3592 49.3125C51.6378 48.4022 52.1276 47.7448 52.8287 47.3402ZM52.682 51.2233C52.8573 51.6618 53.1821 51.9536 53.6564 52.0987C54.1307 52.2439 54.5594 52.1826 54.9425 51.915C55.3332 51.6498 55.6152 51.2341 55.7884 50.668C55.9617 50.1019 55.9606 49.5996 55.7853 49.1611C55.6175 48.7249 55.2966 48.4343 54.8223 48.2891C54.348 48.144 53.9155 48.204 53.5247 48.4693C53.1417 48.7369 52.8635 49.1538 52.6903 49.7199C52.517 50.286 52.5143 50.7871 52.682 51.2233ZM63.5541 54.9896L62.7534 57.6059L61.4912 57.2196L61.9407 55.7508L57.8098 54.4867L57.3603 55.9554L56.0981 55.5692L56.8987 52.9529L57.3692 53.0969C57.772 53.011 58.1761 52.4696 58.5816 51.4726L59.681 48.6591L64.1447 50.0251L62.7049 54.7298L63.5541 54.9896ZM59.8068 51.8977C59.4617 52.7793 59.1158 53.3219 58.7691 53.5253L61.3968 54.3295L62.4854 50.7723L60.4888 50.1613L59.8068 51.8977ZM69.5429 52.9321L66.8349 52.1033L65.3951 56.808L64.087 56.4076L65.8779 50.5555L69.8941 51.7846L69.5429 52.9321ZM70.8426 52.8529C71.5514 52.4507 72.3341 52.3807 73.1909 52.6429C74.0477 52.9051 74.6534 53.4 75.008 54.1276C75.3702 54.8576 75.412 55.6777 75.1335 56.5881C74.8549 57.4984 74.3612 58.1547 73.6525 58.5569C72.9514 58.9614 72.1725 59.0326 71.3157 58.7704C70.4589 58.5082 69.8494 58.0121 69.4872 57.2822C69.1326 56.5546 69.0946 55.7356 69.3731 54.8253C69.6517 53.9149 70.1416 53.2575 70.8426 52.8529ZM70.6959 56.736C70.8713 57.1745 71.1961 57.4663 71.6704 57.6115C72.1447 57.7566 72.5734 57.6954 72.9564 57.4278C73.3472 57.1625 73.6291 56.7468 73.8024 56.1807C73.9756 55.6146 73.9746 55.1123 73.7992 54.6738C73.6315 54.2377 73.3105 53.947 72.8362 53.8019C72.3619 53.6567 71.9294 53.7168 71.5387 53.9821C71.1556 54.2497 70.8774 54.6665 70.7042 55.2326C70.531 55.7987 70.5282 56.2998 70.6959 56.736ZM76.0162 54.9131L76.3674 53.7656L81.4163 55.3107L81.0651 56.4582L79.1947 55.8858L77.755 60.5904L76.4469 60.1901L77.8866 55.4855L76.0162 54.9131ZM82.329 56.3681C83.0377 55.9658 83.8205 55.8958 84.6772 56.158C85.534 56.4202 86.1397 56.9151 86.4943 57.6428C86.8566 58.3727 86.8984 59.1929 86.6198 60.1032C86.3412 61.0135 85.8476 61.6698 85.1389 62.072C84.4378 62.4765 83.6589 62.5477 82.8021 62.2855C81.9453 62.0233 81.3358 61.5273 80.9735 60.7973C80.6189 60.0697 80.5809 59.2507 80.8595 58.3404C81.1381 57.4301 81.6279 56.7726 82.329 56.3681ZM82.1823 60.2511C82.3576 60.6896 82.6825 60.9814 83.1567 61.1266C83.631 61.2717 84.0597 61.2105 84.4428 60.9429C84.8335 60.6776 85.1155 60.2619 85.2887 59.6958C85.462 59.1298 85.4609 58.6275 85.2856 58.1889C85.1179 57.7528 84.7969 57.4621 84.3226 57.317C83.8483 57.1718 83.4158 57.2319 83.0251 57.4972C82.642 57.7648 82.3638 58.1816 82.1906 58.7477C82.0173 59.3138 82.0146 59.8149 82.1823 60.2511ZM86.746 63.3419L88.5369 57.4898L91.1646 58.2939C91.7919 58.4859 92.2267 58.7737 92.469 59.1574C92.7113 59.5411 92.7646 59.9548 92.6288 60.3985C92.5305 60.7198 92.3682 60.963 92.142 61.128C91.9258 61.2877 91.6889 61.3784 91.4313 61.3999C91.7039 61.5754 91.9022 61.8159 92.0262 62.1216C92.1578 62.4296 92.1663 62.771 92.0516 63.1459C91.9018 63.6355 91.5953 63.9809 91.1321 64.1822C90.6789 64.3781 90.131 64.3778 89.4884 64.1811L86.746 63.3419ZM90.0933 61.6305L88.7967 61.2337L88.3402 62.7254L89.6368 63.1222C89.9275 63.2112 90.1692 63.214 90.362 63.1308C90.5648 63.0423 90.7025 62.8794 90.7751 62.6423C90.9249 62.1527 90.6976 61.8154 90.0933 61.6305ZM90.6949 59.2545L89.513 58.8928L89.0987 60.2469L90.2806 60.6085C90.533 60.6858 90.7468 60.6843 90.9219 60.604C91.1047 60.5261 91.2289 60.3801 91.2945 60.1659C91.4303 59.7222 91.2304 59.4184 90.6949 59.2545ZM99.5565 60.8621L97.7656 66.7142L96.4805 66.3209L97.6709 62.4309L93.8298 65.5097L92.5676 65.1234L94.3585 59.2713L95.6437 59.6646L94.4497 63.566L98.2943 60.4758L99.5565 60.8621ZM100.098 62.2828L100.45 61.1353L105.498 62.6804L105.147 63.8279L103.277 63.2555L101.837 67.9601L100.529 67.5598L101.969 62.8552L100.098 62.2828ZM107.691 63.3513L107.146 65.1299L108.317 65.488C108.967 65.687 109.429 66.0375 109.702 66.5394C109.977 67.0336 110.025 67.5752 109.844 68.1643C109.662 68.7609 109.312 69.1935 108.795 69.4619C108.288 69.725 107.713 69.7582 107.07 69.5616L104.603 68.8066L106.394 62.9545L107.691 63.3513ZM107.819 66.5405L106.809 66.2314L106.233 68.1133L107.243 68.4223C107.557 68.5183 107.83 68.5014 108.062 68.3717C108.301 68.2442 108.464 68.0428 108.548 67.7675C108.632 67.4921 108.608 67.2421 108.476 67.0176C108.352 66.7955 108.133 66.6364 107.819 66.5405ZM113.026 70.2673C113.409 70.3844 113.732 70.3789 113.997 70.2509C114.27 70.1252 114.482 69.939 114.633 69.6923L115.906 70.0821C115.655 70.6577 115.233 71.0807 114.64 71.351C114.047 71.6212 113.387 71.6452 112.66 71.4228C111.811 71.1629 111.213 70.6704 110.866 69.9451C110.521 69.2122 110.487 68.3944 110.763 67.4917C111.037 66.5967 111.518 65.9407 112.206 65.5238C112.902 65.1093 113.678 65.0331 114.535 65.2953C115.277 65.5224 115.809 65.9153 116.132 66.4742C116.457 67.0254 116.57 67.5996 116.471 68.1967L115.197 67.807C115.193 67.5211 115.111 67.2536 114.953 67.0045C114.805 66.75 114.548 66.5666 114.18 66.4542C113.721 66.3138 113.3 66.3773 112.917 66.645C112.542 66.9149 112.268 67.3329 112.094 67.899C111.919 68.4728 111.915 68.9777 112.082 69.4139C112.253 69.8424 112.567 70.1269 113.026 70.2673ZM120.709 73.7355L119.413 73.3387L119.992 71.4454L119.109 71.175L117.187 72.6575L115.718 72.208L117.837 70.5726C117.527 70.3019 117.316 69.9782 117.206 69.6013C117.105 69.2192 117.116 68.8292 117.238 68.4314C117.413 67.8577 117.745 67.4446 118.232 67.1921C118.729 66.9343 119.318 66.9096 119.999 67.1179L122.5 67.8834L120.709 73.7355ZM119.01 68.2584C118.775 68.3705 118.615 68.5643 118.531 68.8397C118.446 69.1151 118.47 69.365 118.602 69.5895C118.735 69.814 118.957 69.9742 119.271 70.0702L120.315 70.3897L120.877 68.5538L119.833 68.2342C119.519 68.1383 119.245 68.1463 119.01 68.2584Z" fill="white"/>
<defs>
<linearGradient id="paint0_linear_163_822" x1="108.463" y1="13.5323" x2="76.7185" y2="119.161" gradientUnits="userSpaceOnUse">
<stop stop-color="#66BEBE"/>
<stop offset="1" stop-color="#65DEA3"/>
</linearGradient>
</defs>
</svg>
