<svg width="190" height="120" viewBox="0 0 190 120" fill="none" xmlns="http://www.w3.org/2000/svg">
<path fill-rule="evenodd" clip-rule="evenodd" d="M146.802 39.1031C154.207 41.3285 158.406 49.1353 156.18 56.5401L147.114 86.7066C144.889 94.1114 137.082 98.3101 129.677 96.0848L98.3717 86.6764L86.097 93.2781L79.4952 81.0034L46.2442 71.0105C38.8394 68.7851 34.6406 60.9783 36.866 53.5734L45.9319 23.407C48.1573 16.0022 55.9641 11.8034 63.3689 14.0288L146.802 39.1031Z" fill="url(#paint0_linear_163_807)"/>
<path d="M58.3201 26.566L64.8492 28.5641L62.377 36.6423L61.0116 36.2244L63.108 29.374L59.3098 28.2117L57.2134 35.0621L55.8479 34.6442L58.3201 26.566ZM65.906 32.1001C66.6148 31.6979 67.3975 31.6279 68.2543 31.8901C69.1111 32.1523 69.7168 32.6472 70.0714 33.3748C70.4336 34.1048 70.4754 34.9249 70.1969 35.8353C69.9183 36.7456 69.4246 37.4019 68.7159 37.8041C68.0148 38.2086 67.2359 38.2798 66.3791 38.0176C65.5223 37.7554 64.9128 37.2593 64.5506 36.5294C64.196 35.8018 64.158 34.9828 64.4365 34.0725C64.7151 33.1621 65.205 32.5047 65.906 32.1001ZM65.7593 35.9832C65.9347 36.4217 66.2595 36.7135 66.7338 36.8587C67.2081 37.0038 67.6368 36.9426 68.0198 36.675C68.4106 36.4097 68.6926 35.994 68.8658 35.4279C69.039 34.8618 69.038 34.3595 68.8626 33.921C68.6949 33.4849 68.3739 33.1942 67.8996 33.0491C67.4253 32.9039 66.9928 32.964 66.6021 33.2292C66.219 33.4969 65.9409 33.9137 65.7676 34.4798C65.5944 35.0459 65.5916 35.547 65.7593 35.9832ZM76.6314 39.7495L75.8308 42.3658L74.5686 41.9795L75.0181 40.5107L70.8872 39.2466L70.4377 40.7154L69.1755 40.3291L69.9761 37.7128L70.4466 37.8568C70.8493 37.7709 71.2535 37.2295 71.659 36.2325L72.7584 33.4191L77.222 34.7851L75.7823 39.4897L76.6314 39.7495ZM72.8842 36.6576C72.5391 37.5393 72.1932 38.0818 71.8465 38.2852L74.4742 39.0894L75.5628 35.5322L73.5662 34.9212L72.8842 36.6576ZM79.9786 40.9119C80.3611 41.029 80.6849 41.0235 80.95 40.8954C81.2227 40.7698 81.4345 40.5836 81.5852 40.3369L82.8589 40.7267C82.6075 41.3023 82.1852 41.7252 81.5922 41.9955C80.9991 42.2658 80.3392 42.2898 79.6125 42.0674C78.7634 41.8075 78.1653 41.3149 77.8184 40.5897C77.4738 39.8567 77.4396 39.0389 77.7158 38.1363C77.9897 37.2412 78.4707 36.5853 79.1589 36.1684C79.8546 35.7538 80.6309 35.6777 81.4877 35.9399C82.2297 36.1669 82.762 36.5599 83.0846 37.1188C83.4095 37.67 83.5224 38.2442 83.4234 38.8413L82.1497 38.4515C82.1451 38.1657 82.0638 37.8982 81.9058 37.649C81.7578 37.3946 81.5002 37.2112 81.133 37.0988C80.674 36.9583 80.253 37.0219 79.8699 37.2895C79.4945 37.5595 79.2201 37.9775 79.0469 38.5436C78.8713 39.1173 78.8674 39.6223 79.0351 40.0585C79.2051 40.487 79.5197 40.7715 79.9786 40.9119ZM84.5294 43.4215L83.2213 43.0212L85.0122 37.169L86.3203 37.5694L85.5759 40.002L88.5694 38.2576L90.1184 38.7317L86.7547 40.7016L88.362 44.5943L86.7785 44.1097L85.3652 40.6905L84.5294 43.4215ZM93.5711 41.9468C93.6718 41.6178 93.6419 41.3326 93.4816 41.0911C93.3312 40.8443 93.0839 40.6683 92.7397 40.5629C92.1201 40.3733 91.6647 40.4807 91.3736 40.8852L90.1343 40.506C90.3806 40.0292 90.7645 39.6907 91.2859 39.4905C91.8173 39.285 92.4272 39.2876 93.1157 39.4983C93.8424 39.7207 94.3626 40.0849 94.6763 40.5908C94.9976 41.0991 95.0553 41.6898 94.8493 42.363L93.6694 46.2185L92.4531 45.8463L92.6567 45.1808C92.0645 45.5852 91.3782 45.668 90.5979 45.4292C90.0165 45.2513 89.5811 44.9381 89.2916 44.4898C89.0122 44.0362 88.9579 43.5301 89.1288 42.9717C89.3067 42.3903 89.6513 42.0022 90.1627 41.8073C90.6842 41.6071 91.312 41.6194 92.0464 41.8441L93.4693 42.2796L93.5711 41.9468ZM91.2114 44.4498C91.6168 44.5739 91.9962 44.5645 92.3494 44.4216C92.7051 44.2711 92.9414 44.0046 93.0584 43.6221L93.1673 43.2664L91.8362 42.859C91.492 42.7537 91.1944 42.7421 90.9433 42.8242C90.7023 42.9011 90.542 43.0695 90.4624 43.3296C90.3828 43.5897 90.4126 43.8205 90.5517 44.022C90.6931 44.2159 90.913 44.3585 91.2114 44.4498ZM100.979 42.0552L100.22 44.5338L103.021 42.6803L104.524 43.1403L101.41 45.1989L102.768 49.0029L101.23 48.5324L100.031 45.1534L99.1878 47.9073L97.9027 47.514L98.7454 44.7601L95.8602 46.889L94.334 46.4219L97.5666 44.0605L96.1479 40.5768L97.6511 41.0369L98.9351 44.1405L99.6936 41.6619L100.979 42.0552ZM109.105 48.1563L104.986 46.8956L104.979 46.9186C104.84 47.3699 104.871 47.7892 105.07 48.1765C105.27 48.5638 105.603 48.8289 106.07 48.9717C106.391 49.07 106.675 49.0858 106.921 49.0189C107.177 48.9468 107.356 48.8424 107.456 48.7058L108.741 49.0991C108.514 49.5147 108.132 49.8329 107.596 50.0537C107.067 50.2768 106.44 50.2772 105.713 50.0548C104.841 49.7879 104.224 49.3021 103.862 48.5975C103.503 47.8851 103.467 47.0585 103.755 46.1176C104.043 45.1767 104.532 44.5104 105.22 44.1188C105.912 43.7196 106.674 43.6475 107.508 43.9027C108.311 44.1485 108.873 44.6091 109.193 45.2844C109.514 45.9597 109.539 46.7372 109.27 47.617L109.105 48.1563ZM107.163 44.9893C106.75 44.8629 106.376 44.8823 106.041 45.0475C105.713 45.215 105.466 45.5033 105.299 45.9123L108.099 46.7691C108.215 46.3361 108.186 45.9635 108.014 45.6514C107.852 45.3341 107.568 45.1134 107.163 44.9893ZM111.134 45.1629L112.786 45.6686L113.346 50.4831L116.504 46.8063L118.133 47.305L116.342 53.1571L115.08 52.7708L116.306 48.7661L113.332 52.2106L112.368 51.9156L111.827 47.4081L110.605 51.4013L109.343 51.015L111.134 45.1629ZM119.553 53.4117C119.497 53.5953 119.398 53.7825 119.256 53.9733L117.95 55.6569L116.952 55.3514L118.157 53.75C117.84 53.5023 117.736 53.1986 117.846 52.8391C117.918 52.6019 118.058 52.4315 118.266 52.3276C118.473 52.2238 118.7 52.2093 118.944 52.2842C119.189 52.3591 119.37 52.5065 119.487 52.7263C119.606 52.9385 119.628 53.1669 119.553 53.4117ZM123.835 55.4501L122.527 55.0497L124.318 49.1976L125.626 49.5979L124.882 52.0306L127.875 50.2862L129.424 50.7603L126.061 52.7302L127.668 56.6229L126.084 56.1383L124.671 52.7191L123.835 55.4501ZM132.877 53.9754C132.978 53.6464 132.948 53.3612 132.787 53.1197C132.637 52.8729 132.39 52.6968 132.046 52.5915C131.426 52.4019 130.971 52.5093 130.679 52.9138L129.44 52.5346C129.686 52.0578 130.07 51.7193 130.592 51.5191C131.123 51.3136 131.733 51.3162 132.421 51.5269C133.148 51.7493 133.668 52.1135 133.982 52.6194C134.303 53.1277 134.361 53.7184 134.155 54.3916L132.975 58.2471L131.759 57.8749L131.963 57.2094C131.37 57.6137 130.684 57.6965 129.904 57.4578C129.322 57.2798 128.887 56.9667 128.597 56.5184C128.318 56.0647 128.264 55.5587 128.435 55.0003C128.612 54.4189 128.957 54.0307 129.469 53.8359C129.99 53.6357 130.618 53.648 131.352 53.8727L132.775 54.3081L132.877 53.9754ZM130.517 56.4784C130.923 56.6025 131.302 56.5931 131.655 56.4502C132.011 56.2997 132.247 56.0332 132.364 55.6507L132.473 55.295L131.142 54.8876C130.798 54.7823 130.5 54.7707 130.249 54.8528C130.008 54.9296 129.848 55.0981 129.768 55.3582C129.689 55.6183 129.718 55.8491 129.857 56.0506C129.999 56.2445 130.219 56.3871 130.517 56.4784ZM135.591 59.0475L134.282 58.6472L136.073 52.7951L137.381 53.1954L136.637 55.628L139.63 53.8836L141.18 54.3577L137.816 56.3276L139.423 60.2203L137.84 59.7357L136.426 56.3165L135.591 59.0475ZM55.0242 45.8246C55.4067 45.9416 55.7304 45.9361 55.9955 45.8081C56.2682 45.6824 56.48 45.4962 56.6308 45.2495L57.9045 45.6393C57.653 46.2149 57.2308 46.6379 56.6377 46.9082C56.0447 47.1784 55.3848 47.2024 54.658 46.98C53.8089 46.7201 53.2109 46.2276 52.8639 45.5023C52.5193 44.7694 52.4851 43.9516 52.7614 43.0489C53.0353 42.1539 53.5163 41.4979 54.2044 41.081C54.9002 40.6665 55.6764 40.5903 56.5332 40.8525C57.2752 41.0796 57.8075 41.4725 58.1301 42.0314C58.455 42.5826 58.568 43.1568 58.4689 43.7539L57.1952 43.3642C57.1906 43.0783 57.1094 42.8108 56.9514 42.5617C56.8033 42.3072 56.5457 42.1238 56.1785 42.0114C55.7195 41.871 55.2985 41.9346 54.9154 42.2022C54.54 42.4721 54.2657 42.8901 54.0924 43.4562C53.9169 44.03 53.9129 44.5349 54.0806 44.9711C54.2507 45.3996 54.5652 45.6841 55.0242 45.8246ZM62.8847 45.1053C62.9853 44.7763 62.9555 44.4911 62.7952 44.2496C62.6448 44.0028 62.3975 43.8268 62.0532 43.7214C61.4336 43.5318 60.9782 43.6392 60.6871 44.0437L59.4479 43.6645C59.6942 43.1877 60.078 42.8492 60.5994 42.649C61.1308 42.4435 61.7408 42.4461 62.4292 42.6568C63.156 42.8792 63.6762 43.2434 63.9898 43.7493C64.3112 44.2576 64.3688 44.8483 64.1628 45.5215L62.9829 49.377L61.7666 49.0048L61.9703 48.3393C61.378 48.7437 60.6918 48.8265 59.9115 48.5877C59.3301 48.4098 58.8947 48.0966 58.6052 47.6483C58.3257 47.1947 58.2714 46.6886 58.4423 46.1302C58.6202 45.5488 58.9649 45.1607 59.4763 44.9658C59.9977 44.7656 60.6256 44.7779 61.36 45.0026L62.7828 45.4381L62.8847 45.1053ZM60.5249 47.6083C60.9304 47.7324 61.3097 47.723 61.663 47.5801C62.0186 47.4296 62.2549 47.1631 62.372 46.7806L62.4809 46.4249L61.1498 46.0175C60.8055 45.9122 60.5079 45.9006 60.2569 45.9827C60.0159 46.0596 59.8555 46.228 59.7759 46.4881C59.6963 46.7482 59.7261 46.979 59.8652 47.1805C60.0067 47.3744 60.2266 47.517 60.5249 47.6083ZM66.0811 43.925L67.7334 44.4306L68.293 49.2452L71.4512 45.5684L73.0806 46.067L71.2897 51.9191L70.0275 51.5329L71.2531 47.5282L68.2789 50.9726L67.315 50.6777L66.7744 46.1701L65.5524 50.1633L64.2902 49.7771L66.0811 43.925ZM79.6332 48.0723L77.8423 53.9244L76.5572 53.5311L77.7476 49.6412L73.9065 52.7199L72.6443 52.3337L74.4352 46.4815L75.7204 46.8748L74.5264 50.7762L78.371 47.686L79.6332 48.0723ZM83.4958 50.0324C84.2046 49.6302 84.9873 49.5602 85.8441 49.8224C86.7009 50.0846 87.3066 50.5795 87.6612 51.3071C88.0234 52.0371 88.0652 52.8572 87.7867 53.7675C87.5081 54.6778 87.0144 55.3341 86.3057 55.7363C85.6046 56.1409 84.8257 56.2121 83.9689 55.9499C83.1121 55.6877 82.5026 55.1916 82.1404 54.4616C81.7858 53.734 81.7478 52.915 82.0264 52.0047C82.3049 51.0944 82.7948 50.437 83.4958 50.0324ZM83.3491 53.9154C83.5245 54.354 83.8493 54.6458 84.3236 54.7909C84.7979 54.9361 85.2266 54.8748 85.6096 54.6072C86.0004 54.3419 86.2824 53.9263 86.4556 53.3602C86.6288 52.7941 86.6278 52.2918 86.4524 51.8533C86.2847 51.4171 85.9637 51.1265 85.4894 50.9813C85.0151 50.8362 84.5826 50.8962 84.1919 51.1615C83.8088 51.4291 83.5307 51.846 83.3574 52.4121C83.1842 52.9781 83.1814 53.4793 83.3491 53.9154ZM94.1735 57.6672L93.3728 60.2834L92.1221 59.9007L92.5716 58.4319L87.9128 57.0062L89.7037 51.1541L91.0118 51.5544L89.5721 56.2591L92.0277 57.0105L93.4674 52.3059L94.7755 52.7062L93.3358 57.4108L94.1735 57.6672ZM100.607 58.105L96.4875 56.8443L96.4805 56.8673C96.3423 57.3186 96.373 57.7379 96.5724 58.1252C96.7718 58.5125 97.1048 58.7776 97.5714 58.9204C97.8927 59.0187 98.1765 59.0345 98.4229 58.9676C98.6792 58.8955 98.8576 58.7911 98.9579 58.6545L100.243 59.0478C100.016 59.4634 99.6337 59.7816 99.0976 60.0024C98.5692 60.2255 97.9416 60.2259 97.2149 60.0035C96.3428 59.7366 95.7259 59.2508 95.3643 58.5461C95.005 57.8338 94.9694 57.0072 95.2573 56.0663C95.5453 55.1254 96.0336 54.4591 96.7223 54.0675C97.4134 53.6683 98.1759 53.5962 99.0097 53.8514C99.8129 54.0972 100.375 54.5578 100.695 55.2331C101.016 55.9084 101.041 56.6859 100.772 57.5657L100.607 58.105ZM98.6646 54.938C98.2516 54.8116 97.8775 54.831 97.5425 54.9961C97.2151 55.1637 96.968 55.452 96.801 55.861L99.6008 56.7178C99.7166 56.2848 99.6884 55.9122 99.5161 55.6001C99.3539 55.2828 99.0701 55.0621 98.6646 54.938ZM102.153 61.364L100.845 60.9637L102.636 55.1116L103.944 55.5119L103.255 57.761L105.768 58.53L106.457 56.281L107.765 56.6813L105.974 62.5334L104.666 62.1331L105.414 59.6889L102.901 58.9199L102.153 61.364ZM114.316 58.6862L112.526 64.5383L111.24 64.145L112.431 60.2551L108.59 63.3339L107.327 62.9476L109.118 57.0955L110.404 57.4888L109.21 61.3902L113.054 58.3L114.316 58.6862ZM113.877 64.9521L115.668 59.1L118.296 59.9041C118.923 60.0961 119.358 60.3839 119.601 60.7676C119.843 61.1513 119.896 61.565 119.76 62.0087C119.662 62.33 119.5 62.5732 119.274 62.7382C119.057 62.8979 118.82 62.9886 118.563 63.0101C118.835 63.1856 119.034 63.4261 119.158 63.7318C119.289 64.0398 119.298 64.3812 119.183 64.7561C119.033 65.2456 118.727 65.5911 118.264 65.7923C117.81 65.9883 117.263 65.988 116.62 65.7913L113.877 64.9521ZM117.225 63.2407L115.928 62.8439L115.472 64.3356L116.768 64.7324C117.059 64.8213 117.301 64.8242 117.494 64.741C117.696 64.6525 117.834 64.4896 117.907 64.2525C118.056 63.7629 117.829 63.4256 117.225 63.2407ZM117.826 60.8647L116.645 60.503L116.23 61.857L117.412 62.2187C117.665 62.296 117.878 62.2945 118.053 62.2142C118.236 62.1363 118.36 61.9903 118.426 61.7761C118.562 61.3324 118.362 61.0286 117.826 60.8647ZM124.317 63.9051C124.418 63.5762 124.388 63.291 124.227 63.0495C124.077 62.8027 123.83 62.6266 123.486 62.5213C122.866 62.3316 122.411 62.4391 122.119 62.8436L120.88 62.4643C121.126 61.9875 121.51 61.6491 122.032 61.4489C122.563 61.2434 123.173 61.246 123.862 61.4567C124.588 61.6791 125.108 62.0432 125.422 62.5492C125.743 63.0575 125.801 63.6482 125.595 64.3214L124.415 68.1769L123.199 67.8047L123.403 67.1391C122.81 67.5435 122.124 67.6263 121.344 67.3875C120.762 67.2096 120.327 66.8965 120.037 66.4481C119.758 65.9945 119.704 65.4885 119.875 64.93C120.053 64.3486 120.397 63.9605 120.909 63.7656C121.43 63.5654 122.058 63.5777 122.792 63.8025L124.215 64.2379L124.317 63.9051ZM121.957 66.4082C122.363 66.5322 122.742 66.5228 123.095 66.38C123.451 66.2294 123.687 65.9629 123.804 65.5804L123.913 65.2247L122.582 64.8174C122.238 64.712 121.94 64.7004 121.689 64.7826C121.448 64.8594 121.288 65.0279 121.208 65.288C121.129 65.548 121.158 65.7789 121.298 65.9804C121.439 66.1743 121.659 66.3169 121.957 66.4082ZM131.631 67.5992L127.512 66.3386L127.505 66.3615C127.367 66.8128 127.397 67.2322 127.597 67.6195C127.796 68.0068 128.129 68.2718 128.596 68.4146C128.917 68.5129 129.201 68.5287 129.447 68.4618C129.704 68.3897 129.882 68.2853 129.982 68.1487L131.267 68.542C131.04 68.9576 130.658 69.2758 130.122 69.4966C129.593 69.7197 128.966 69.7201 128.239 69.4977C127.367 69.2308 126.75 68.745 126.389 68.0404C126.029 67.3281 125.994 66.5014 126.282 65.5605C126.57 64.6196 127.058 63.9533 127.747 63.5617C128.438 63.1625 129.2 63.0904 130.034 63.3456C130.837 63.5914 131.399 64.052 131.719 64.7273C132.04 65.4026 132.065 66.1802 131.796 67.0599L131.631 67.5992ZM129.689 64.4322C129.276 64.3058 128.902 64.3252 128.567 64.4904C128.239 64.6579 127.992 64.9462 127.825 65.3552L130.625 66.2121C130.741 65.779 130.713 65.4064 130.54 65.0944C130.378 64.777 130.094 64.5563 129.689 64.4322ZM133.66 64.6058L135.312 65.1115L135.872 69.926L139.03 66.2492L140.659 66.7479L138.869 72.6L137.606 72.2137L138.832 68.209L135.858 71.6535L134.894 71.3585L134.353 66.851L133.131 70.8442L131.869 70.4579L133.66 64.6058ZM55.074 58.2511L54.2734 60.8673L53.0111 60.4811L53.4606 59.0123L49.3297 57.7481L48.8802 59.2169L47.618 58.8306L48.4187 56.2144L48.8891 56.3584C49.2919 56.2725 49.696 55.731 50.1015 54.734L51.2009 51.9206L55.6646 53.2866L54.2249 57.9912L55.074 58.2511ZM51.3267 55.1592C50.9816 56.0408 50.6357 56.5833 50.289 56.7868L52.9167 57.5909L54.0053 54.0338L52.0087 53.4227L51.3267 55.1592ZM62.5959 55.4077L60.805 61.2599L59.5198 60.8666L60.7102 56.9766L56.8691 60.0554L55.6069 59.6691L57.3978 53.817L58.683 54.2103L57.4891 58.1117L61.3336 55.0215L62.5959 55.4077ZM63.1703 57.3781C63.4024 56.8384 63.7921 56.4808 64.3394 56.3052C64.8944 56.1321 65.4931 56.1438 66.1357 56.3404C66.763 56.5324 67.2325 56.8434 67.5443 57.2735C67.8561 57.7036 67.9348 58.171 67.7803 58.6759C67.593 59.2879 67.18 59.6259 66.5414 59.6898C66.8057 59.8376 67.0098 60.059 67.1538 60.3541C67.3077 60.6438 67.325 60.9837 67.2056 61.3739C67.0394 61.917 66.6791 62.2878 66.1248 62.4863C65.5781 62.6871 64.949 62.6786 64.2376 62.4609C63.5491 62.2502 63.0295 61.9113 62.6789 61.4443C62.3282 60.9772 62.2036 60.4413 62.305 59.8365L63.5787 60.2263C63.5626 60.4975 63.6406 60.7347 63.8127 60.9379C63.9947 61.1358 64.2464 61.284 64.5677 61.3823C64.9043 61.4853 65.1931 61.4984 65.4341 61.4216C65.6775 61.3371 65.8378 61.1686 65.9151 60.9162C66.0602 60.4419 65.7694 60.0935 65.0427 59.8711L64.1821 59.6078L64.4981 58.5751L65.2899 58.8174C65.5959 58.911 65.8479 58.9212 66.046 58.848C66.2541 58.7694 66.3933 58.6154 66.4635 58.3859C66.5314 58.1641 66.4961 57.965 66.3576 57.7888C66.2268 57.6149 66.0198 57.4846 65.7368 57.398C65.4384 57.3067 65.1738 57.2968 64.9427 57.3683C64.7117 57.4399 64.5378 57.5707 64.421 57.7608L63.1703 57.3781ZM72.3387 60.5478C72.4393 60.2188 72.4095 59.9336 72.2491 59.6921C72.0988 59.4453 71.8515 59.2692 71.5072 59.1639C70.8876 58.9743 70.4322 59.0817 70.1411 59.4862L68.9018 59.107C69.1481 58.6302 69.532 58.2917 70.0534 58.0915C70.5848 57.886 71.1947 57.8886 71.8832 58.0993C72.6099 58.3217 73.1301 58.6859 73.4438 59.1918C73.7652 59.7001 73.8228 60.2908 73.6168 60.964L72.4369 64.8195L71.2206 64.4473L71.4243 63.7818C70.832 64.1862 70.1457 64.269 69.3655 64.0302C68.7841 63.8523 68.3486 63.5391 68.0592 63.0908C67.7797 62.6371 67.7254 62.1311 67.8963 61.5727C68.0742 60.9913 68.4189 60.6032 68.9303 60.4083C69.4517 60.2081 70.0796 60.2204 70.814 60.4451L72.2368 60.8805L72.3387 60.5478ZM69.9789 63.0508C70.3843 63.1749 70.7637 63.1655 71.117 63.0226C71.4726 62.8721 71.7089 62.6056 71.826 62.2231L71.9348 61.8674L70.6038 61.46C70.2595 61.3547 69.9619 61.3431 69.7109 61.4252C69.4698 61.502 69.3095 61.6705 69.2299 61.9306C69.1503 62.1907 69.1801 62.4215 69.3192 62.623C69.4607 62.8169 69.6806 62.9595 69.9789 63.0508ZM80.7331 60.9582L78.9422 66.8103L77.657 66.417L78.8474 62.5271L75.0064 65.6058L73.7441 65.2196L75.535 59.3675L76.8202 59.7608L75.6263 63.6622L79.4709 60.5719L80.7331 60.9582ZM78.0674 57.2435C77.9831 57.5189 77.9894 57.7718 78.0862 58.0023C78.183 58.2327 78.3729 58.3912 78.656 58.4778C78.939 58.5644 79.1851 58.5393 79.3943 58.4026C79.6035 58.2658 79.7502 58.0597 79.8345 57.7843L80.8902 58.1074C80.6993 58.6764 80.3752 59.0792 79.918 59.3158C79.4684 59.5547 78.9529 59.5852 78.3716 59.4073C77.7902 59.2293 77.3762 58.9144 77.1297 58.4625C76.8908 58.0129 76.8515 57.4989 77.0117 56.9205L78.0674 57.2435ZM81.6022 67.6244L80.2941 67.224L82.085 61.3719L83.3931 61.7722L82.7049 64.0213L85.2178 64.7903L85.9061 62.5413L87.2142 62.9416L85.4233 68.7937L84.1152 68.3934L84.8632 65.9493L82.3502 65.1802L81.6022 67.6244ZM92.6857 68.2302L88.5662 66.9696L88.5592 66.9925C88.4211 67.4438 88.4517 67.8632 88.6511 68.2505C88.8505 68.6378 89.1835 68.9028 89.6502 69.0456C89.9715 69.1439 90.2553 69.1597 90.5016 69.0929C90.758 69.0207 90.9363 68.9163 91.0367 68.7797L92.3218 69.173C92.0943 69.5886 91.7124 69.9068 91.1764 70.1276C90.6479 70.3507 90.0204 70.3511 89.2936 70.1287C88.4215 69.8618 87.8047 69.376 87.4431 68.6714C87.0838 67.9591 87.0481 67.1324 87.3361 66.1915C87.624 65.2506 88.1124 64.5843 88.8011 64.1927C89.4922 63.7935 90.2546 63.7214 91.0885 63.9766C91.8917 64.2224 92.4535 64.683 92.7739 65.3583C93.0943 66.0336 93.1199 66.8112 92.8507 67.6909L92.6857 68.2302ZM90.7434 65.0632C90.3303 64.9368 89.9563 64.9562 89.6213 65.1214C89.2939 65.2889 89.0467 65.5772 88.8797 65.9862L91.6795 66.8431C91.7953 66.41 91.7671 66.0374 91.5949 65.7254C91.4327 65.408 91.1488 65.1873 90.7434 65.0632ZM97.8317 66.0402C98.5585 66.2626 99.0873 66.7215 99.4184 67.4168C99.757 68.1144 99.7801 68.9414 99.4874 69.8976C99.1948 70.8538 98.7091 71.5251 98.0304 71.9114C97.3593 72.3 96.6565 72.3819 95.9221 72.1572C95.5167 72.0331 95.1832 71.8516 94.9217 71.6126C94.6702 71.3683 94.5069 71.1092 94.4318 70.8352L93.5609 73.6809L92.2528 73.2806L94.7144 65.2368L95.9766 65.6231L95.7448 66.3804C96.2946 65.8961 96.9903 65.7827 97.8317 66.0402ZM96.0588 70.9315C96.5178 71.072 96.9376 71.0122 97.3184 70.7523C97.7091 70.487 97.9923 70.0675 98.1678 69.4938C98.3411 68.9277 98.34 68.4254 98.1647 67.9869C97.997 67.5507 97.6836 67.2624 97.2246 67.1219C96.758 66.9791 96.3305 67.0365 95.9421 67.2942C95.556 67.5441 95.2752 67.956 95.0996 68.5297L95.0856 68.5756C94.91 69.1494 94.9111 69.6517 95.0888 70.0825C95.2688 70.5057 95.5922 70.7887 96.0588 70.9315ZM101.64 68.1343C102.349 67.7321 103.132 67.6621 103.988 67.9243C104.845 68.1865 105.451 68.6814 105.805 69.409C106.168 70.139 106.21 70.9591 105.931 71.8695C105.652 72.7798 105.159 73.4361 104.45 73.8383C103.749 74.2428 102.97 74.314 102.113 74.0518C101.256 73.7896 100.647 73.2935 100.285 72.5636C99.9301 71.836 99.8921 71.017 100.171 70.1067C100.449 69.1963 100.939 68.5389 101.64 68.1343ZM101.493 72.0174C101.669 72.4559 101.994 72.7477 102.468 72.8929C102.942 73.038 103.371 72.9768 103.754 72.7092C104.145 72.4439 104.427 72.0282 104.6 71.4621C104.773 70.896 104.772 70.3937 104.597 69.9552C104.429 69.5191 104.108 69.2284 103.634 69.0833C103.159 68.9381 102.727 68.9982 102.336 69.2635C101.953 69.5311 101.675 69.9479 101.502 70.514C101.328 71.0801 101.326 71.5812 101.493 72.0174ZM106.057 75.1082L107.848 69.2561L110.476 70.0602C111.103 70.2522 111.538 70.54 111.78 70.9237C112.022 71.3074 112.076 71.7211 111.94 72.1648C111.842 72.4861 111.679 72.7293 111.453 72.8943C111.237 73.054 111 73.1447 110.742 73.1662C111.015 73.3417 111.213 73.5822 111.337 73.8879C111.469 74.1959 111.477 74.5373 111.363 74.9122C111.213 75.4017 110.906 75.7472 110.443 75.9484C109.99 76.1444 109.442 76.1441 108.8 75.9474L106.057 75.1082ZM109.404 73.3968L108.108 73L107.651 74.4917L108.948 74.8885C109.239 74.9774 109.48 74.9803 109.673 74.8971C109.876 74.8085 110.014 74.6457 110.086 74.4086C110.236 73.919 110.009 73.5817 109.404 73.3968ZM110.006 71.0208L108.824 70.6591L108.41 72.0131L109.592 72.3748C109.844 72.4521 110.058 72.4506 110.233 72.3703C110.416 72.2924 110.54 72.1464 110.606 71.9322C110.741 71.4885 110.542 71.1847 110.006 71.0208Z" fill="white"/>
<defs>
<linearGradient id="paint0_linear_163_807" x1="138.618" y1="-24.226" x2="71.318" y2="199.711" gradientUnits="userSpaceOnUse">
<stop stop-color="#66BEBE"/>
<stop offset="1" stop-color="#65DEA3"/>
</linearGradient>
</defs>
</svg>
