<svg width="190" height="120" viewBox="0 0 190 120" fill="none" xmlns="http://www.w3.org/2000/svg">
<path fill-rule="evenodd" clip-rule="evenodd" d="M135.284 36.9247C142.688 39.1501 146.887 46.9569 144.662 54.3617L135.596 84.5282C133.37 91.933 125.564 96.1317 118.159 93.9064L92.7591 86.2729C91.4891 85.8913 90.1195 86.0297 88.9516 86.6579L82.9045 89.9102C80.4725 91.2182 77.4406 90.3071 76.1326 87.8751L72.8802 81.8279C72.2521 80.66 71.1858 79.7895 69.9158 79.4078L38.6482 70.0109C31.2433 67.7855 27.0446 59.9787 29.27 52.5739L38.3359 22.4075C40.5613 15.0026 48.3681 10.8039 55.7729 13.0293L135.284 36.9247Z" fill="url(#paint0_linear_163_811)"/>
<path d="M55.9865 34.6558L55.1367 37.4327L53.8286 37.0324L54.2992 35.4948L48.7454 33.7952L48.2749 35.3328L46.9667 34.9325L47.8165 32.1556L48.4476 32.3488C48.7816 32.2418 49.0779 31.9978 49.3367 31.6169C49.5979 31.2283 49.877 30.6444 50.174 29.8652L51.688 25.861L57.0926 27.5149L54.9997 34.3538L55.9865 34.6558ZM51.4821 30.2655C51.1874 31.0371 50.9283 31.6103 50.7048 31.9854C50.4913 32.355 50.2399 32.6295 49.9508 32.8088L53.6342 33.936L55.3514 28.3248L52.5401 27.4645L51.4821 30.2655ZM58.5118 31.1619C59.2205 30.7596 60.0033 30.6896 60.86 30.9518C61.7168 31.214 62.3225 31.7089 62.6771 32.4366C63.0394 33.1665 63.0812 33.9867 62.8026 34.897C62.524 35.8073 62.0304 36.4636 61.3217 36.8658C60.6206 37.2703 59.8417 37.3415 58.9849 37.0793C58.1281 36.8171 57.5186 36.3211 57.1563 35.5911C56.8017 34.8635 56.7637 34.0445 57.0423 33.1342C57.3209 32.2239 57.8107 31.5664 58.5118 31.1619ZM58.3651 35.0449C58.5404 35.4834 58.8653 35.7752 59.3395 35.9204C59.8138 36.0655 60.2425 36.0043 60.6256 35.7367C61.0163 35.4714 61.2983 35.0557 61.4715 34.4896C61.6448 33.9236 61.6437 33.4213 61.4684 32.9828C61.3007 32.5466 60.9797 32.2559 60.5054 32.1108C60.0311 31.9656 59.5986 32.0257 59.2078 32.291C58.8248 32.5586 58.5466 32.9754 58.3734 33.5415C58.2001 34.1076 58.1974 34.6087 58.3651 35.0449ZM66.9891 32.9781L72.0838 34.5372L70.2929 40.3893L68.9848 39.989L70.4246 35.2843L67.946 34.5259L66.5063 39.2305L65.1982 38.8302L66.9891 32.9781ZM76.5556 35.7551C77.2823 35.9775 77.8112 36.4363 78.1422 37.1316C78.4809 37.8293 78.5039 38.6562 78.2113 39.6124C77.9186 40.5687 77.4329 41.2399 76.7542 41.6262C76.0831 42.0148 75.3804 42.0968 74.646 41.872C74.2405 41.748 73.9071 41.5664 73.6455 41.3274C73.394 41.0831 73.2307 40.824 73.1556 40.55L72.2847 43.3958L70.9766 42.9954L73.4382 34.9517L74.7004 35.3379L74.4687 36.0953C75.0185 35.611 75.7141 35.4976 76.5556 35.7551ZM74.7826 40.6464C75.2416 40.7868 75.6615 40.7271 76.0422 40.4671C76.4329 40.2018 76.7161 39.7823 76.8917 39.2086C77.0649 38.6425 77.0639 38.1402 76.8885 37.7017C76.7208 37.2655 76.4074 36.9772 75.9485 36.8368C75.4818 36.694 75.0543 36.7514 74.6659 37.009C74.2799 37.259 73.9991 37.6708 73.8235 38.2446L73.8094 38.2904C73.6339 38.8642 73.6349 39.3665 73.8126 39.7973C73.9926 40.2206 74.316 40.5036 74.7826 40.6464ZM80.3639 37.8492C81.0727 37.447 81.8554 37.377 82.7122 37.6392C83.569 37.9013 84.1747 38.3963 84.5293 39.1239C84.8915 39.8538 84.9333 40.674 84.6548 41.5843C84.3762 42.4946 83.8825 43.1509 83.1738 43.5531C82.4727 43.9577 81.6938 44.0288 80.837 43.7666C79.9802 43.5045 79.3707 43.0084 79.0085 42.2784C78.6539 41.5508 78.6159 40.7318 78.8945 39.8215C79.173 38.9112 79.6629 38.2537 80.3639 37.8492ZM80.2172 41.7322C80.3926 42.1707 80.7174 42.4626 81.1917 42.6077C81.666 42.7528 82.0947 42.6916 82.4777 42.424C82.8685 42.1587 83.1505 41.743 83.3237 41.177C83.4969 40.6109 83.4959 40.1086 83.3205 39.6701C83.1528 39.2339 82.8318 38.9432 82.3575 38.7981C81.8832 38.653 81.4507 38.713 81.06 38.9783C80.6769 39.2459 80.3988 39.6628 80.2255 40.2288C80.0523 40.7949 80.0495 41.2961 80.2172 41.7322ZM91.7699 40.5616L89.979 46.4137L88.6938 46.0204L89.8842 42.1305L86.0431 45.2093L84.7809 44.823L86.5718 38.9709L87.857 39.3642L86.6631 43.2656L90.5076 40.1753L91.7699 40.5616ZM89.1042 36.847C89.0199 37.1224 89.0262 37.3753 89.123 37.6057C89.2198 37.8361 89.4097 37.9946 89.6928 38.0812C89.9758 38.1678 90.2219 38.1428 90.4311 38.006C90.6403 37.8692 90.787 37.6631 90.8713 37.3877L91.927 37.7108C91.7361 38.2799 91.412 38.6827 90.9548 38.9192C90.5052 39.1581 89.9897 39.1886 89.4083 39.0107C88.827 38.8328 88.413 38.5178 88.1664 38.0659C87.9276 37.6163 87.8882 37.1023 88.0485 36.5239L89.1042 36.847ZM97.7178 47.5271L96.9171 50.1433L95.6549 49.757L96.1044 48.2883L91.9735 47.0241L91.524 48.4929L90.2618 48.1066L91.0624 45.4904L91.5329 45.6343C91.9357 45.5484 92.3398 45.007 92.7453 44.01L93.8447 41.1966L98.3084 42.5626L96.8686 47.2672L97.7178 47.5271ZM93.9705 44.4352C93.6254 45.3168 93.2795 45.8593 92.9328 46.0627L95.5605 46.8669L96.6491 43.3097L94.6525 42.6987L93.9705 44.4352ZM104.148 47.9639L100.029 46.7033L100.022 46.7262C99.8837 47.1776 99.9143 47.5969 100.114 47.9842C100.313 48.3715 100.646 48.6366 101.113 48.7794C101.434 48.8777 101.718 48.8934 101.964 48.8266C102.221 48.7544 102.399 48.6501 102.499 48.5134L103.784 48.9067C103.557 49.3223 103.175 49.6405 102.639 49.8613C102.111 50.0845 101.483 50.0848 100.756 49.8624C99.8841 49.5956 99.2673 49.1098 98.9057 48.4051C98.5464 47.6928 98.5107 46.8662 98.7987 45.9252C99.0866 44.9843 99.575 44.3181 100.264 43.9265C100.955 43.5272 101.717 43.4552 102.551 43.7104C103.354 43.9562 103.916 44.4167 104.237 45.0921C104.557 45.7674 104.583 46.5449 104.313 47.4246L104.148 47.9639ZM102.206 44.7969C101.793 44.6705 101.419 44.6899 101.084 44.8551C100.757 45.0227 100.509 45.3109 100.342 45.72L103.142 46.5768C103.258 46.1437 103.23 45.7712 103.058 45.4591C102.895 45.1417 102.611 44.921 102.206 44.7969ZM105.694 51.223L104.386 50.8227L106.177 44.9706L107.485 45.3709L106.797 47.6199L109.31 48.389L109.998 46.1399L111.306 46.5402L109.515 52.3923L108.207 51.992L108.955 49.5479L106.442 48.7789L105.694 51.223ZM112.177 53.2069L110.869 52.8066L112.66 46.9545L113.968 47.3548L113.28 49.6038L115.793 50.3728L116.481 48.1238L117.789 48.5241L115.998 54.3762L114.69 53.9759L115.438 51.5318L112.925 50.7628L112.177 53.2069ZM119.384 49.7902C120.093 49.388 120.875 49.318 121.732 49.5802C122.589 49.8424 123.195 50.3373 123.549 51.0649C123.911 51.7949 123.953 52.615 123.675 53.5254C123.396 54.4357 122.902 55.092 122.194 55.4942C121.493 55.8987 120.714 55.9699 119.857 55.7077C119 55.4455 118.391 54.9494 118.028 54.2195C117.674 53.4919 117.636 52.6729 117.914 51.7626C118.193 50.8522 118.683 50.1948 119.384 49.7902ZM119.237 53.6733C119.412 54.1118 119.737 54.4036 120.212 54.5488C120.686 54.6939 121.115 54.6327 121.498 54.3651C121.888 54.0998 122.17 53.6841 122.344 53.118C122.517 52.5519 122.516 52.0496 122.34 51.6111C122.173 51.175 121.852 50.8843 121.377 50.7392C120.903 50.594 120.471 50.6541 120.08 50.9194C119.697 51.187 119.419 51.6038 119.245 52.1699C119.072 52.736 119.069 53.2371 119.237 53.6733ZM129.257 53.2885L126.549 52.4597L125.109 57.1644L123.801 56.7641L125.592 50.912L129.608 52.141L129.257 53.2885ZM130.556 53.2093C131.265 52.8071 132.048 52.7371 132.905 52.9993C133.761 53.2615 134.367 53.7564 134.722 54.484C135.084 55.214 135.126 56.0341 134.847 56.9445C134.569 57.8548 134.075 58.5111 133.366 58.9133C132.665 59.3178 131.886 59.389 131.029 59.1268C130.173 58.8646 129.563 58.3685 129.201 57.6386C128.846 56.911 128.808 56.092 129.087 55.1817C129.365 54.2713 129.855 53.6139 130.556 53.2093ZM130.41 57.0924C130.585 57.5309 130.91 57.8227 131.384 57.9679C131.858 58.113 132.287 58.0518 132.67 57.7842C133.061 57.5189 133.343 57.1032 133.516 56.5371C133.689 55.971 133.688 55.4687 133.513 55.0302C133.345 54.5941 133.024 54.3034 132.55 54.1583C132.076 54.0131 131.643 54.0732 131.252 54.3385C130.869 54.6061 130.591 55.0229 130.418 55.589C130.245 56.1551 130.242 56.6562 130.41 57.0924ZM51.5917 40.8154L49.8008 46.6675L48.5156 46.2742L49.706 42.3843L45.865 45.463L44.6027 45.0768L46.3936 39.2247L47.6788 39.618L46.4849 43.5194L50.3295 40.4291L51.5917 40.8154ZM53.9782 46.829C54.3607 46.9461 54.6845 46.9406 54.9496 46.8125C55.2223 46.6868 55.434 46.5007 55.5848 46.254L56.8585 46.6438C56.6071 47.2194 56.1848 47.6423 55.5918 47.9126C54.9987 48.1829 54.3388 48.2069 53.6121 47.9845C52.763 47.7246 52.1649 47.232 51.818 46.5068C51.4734 45.7738 51.4392 44.956 51.7154 44.0534C51.9893 43.1583 52.4703 42.5024 53.1584 42.0855C53.8542 41.6709 54.6305 41.5948 55.4873 41.857C56.2293 42.084 56.7616 42.477 57.0842 43.0359C57.4091 43.5871 57.522 44.1613 57.4229 44.7584L56.1492 44.3686C56.1447 44.0828 56.0634 43.8153 55.9054 43.5661C55.7574 43.3117 55.4998 43.1283 55.1326 43.0159C54.6736 42.8754 54.2526 42.939 53.8695 43.2066C53.4941 43.4766 53.2197 43.8946 53.0465 44.4607C52.8709 45.0344 52.867 45.5394 53.0347 45.9756C53.2047 46.4041 53.5192 46.6886 53.9782 46.829ZM59.0118 43.0861L64.1066 44.6453L62.3157 50.4974L61.0075 50.0971L62.4473 45.3924L59.9687 44.6339L58.529 49.3386L57.2209 48.9383L59.0118 43.0861ZM66.7576 45.4566L66.2133 47.2351L67.3837 47.5933C68.0339 47.7923 68.4956 48.1427 68.7687 48.6446C69.0441 49.1389 69.0917 49.6805 68.9114 50.2695C68.7288 50.8662 68.3789 51.2988 67.8618 51.5672C67.3546 51.8303 66.7797 51.8635 66.1371 51.6668L63.67 50.9119L65.4609 45.0598L66.7576 45.4566ZM72.1163 47.0965L70.3254 52.9486L69.0287 52.5517L70.8196 46.6996L72.1163 47.0965ZM66.8859 48.6457L65.8762 48.3367L65.3003 50.2186L66.31 50.5276C66.6237 50.6236 66.8966 50.6067 67.1287 50.4769C67.3685 50.3495 67.5305 50.1481 67.6148 49.8727C67.6991 49.5973 67.6752 49.3474 67.5431 49.1229C67.4186 48.9008 67.1996 48.7417 66.8859 48.6457ZM72.6575 48.517L73.0087 47.3696L78.0576 48.9146L77.7064 50.0621L75.836 49.4897L74.3963 54.1944L73.0882 53.794L74.5279 49.0894L72.6575 48.517ZM81.668 52.178C81.7687 51.8491 81.7388 51.5639 81.5785 51.3224C81.4281 51.0756 81.1808 50.8995 80.8366 50.7941C80.217 50.6045 79.7616 50.712 79.4705 51.1165L78.2312 50.7372C78.4775 50.2604 78.8613 49.9219 79.3828 49.7218C79.9141 49.5163 80.5241 49.5189 81.2126 49.7296C81.9393 49.952 82.4595 50.3161 82.7732 50.8221C83.0945 51.3303 83.1522 51.9211 82.9462 52.5943L81.7663 56.4498L80.55 56.0775L80.7536 55.412C80.1614 55.8164 79.4751 55.8992 78.6948 55.6604C78.1134 55.4825 77.678 55.1694 77.3885 54.721C77.109 54.2674 77.0547 53.7613 77.2256 53.2029C77.4036 52.6215 77.7482 52.2334 78.2596 52.0385C78.781 51.8383 79.4089 51.8506 80.1433 52.0754L81.5662 52.5108L81.668 52.178ZM79.3083 54.6811C79.7137 54.8051 80.0931 54.7957 80.4463 54.6529C80.8019 54.5023 81.0383 54.2358 81.1553 53.8533L81.2642 53.4976L79.9331 53.0903C79.5889 52.9849 79.2912 52.9733 79.0402 53.0555C78.7992 53.1323 78.6389 53.3007 78.5593 53.5608C78.4797 53.8209 78.5094 54.0517 78.6486 54.2533C78.79 54.4472 79.0099 54.5898 79.3083 54.6811ZM83.9534 51.9739L84.3046 50.8264L89.3534 52.3715L89.0023 53.5189L87.1319 52.9466L85.6922 57.6512L84.384 57.2509L85.8238 52.5462L83.9534 51.9739ZM94.1427 57.4513L90.0233 56.1907L90.0163 56.2136C89.8782 56.665 89.9088 57.0843 90.1082 57.4716C90.3076 57.8589 90.6406 58.1239 91.1073 58.2667C91.4285 58.3651 91.7124 58.3808 91.9587 58.314C92.215 58.2418 92.3934 58.1374 92.4938 58.0008L93.7789 58.3941C93.5513 58.8097 93.1695 59.1279 92.6334 59.3487C92.105 59.5719 91.4774 59.5722 90.7507 59.3498C89.8786 59.0829 89.2618 58.5972 88.9002 57.8925C88.5409 57.1802 88.5052 56.3536 88.7931 55.4126C89.0811 54.4717 89.5694 53.8054 90.2582 53.4139C90.9493 53.0146 91.7117 52.9426 92.5456 53.1977C93.3488 53.4436 93.9106 53.9041 94.231 54.5794C94.5514 55.2548 94.577 56.0323 94.3078 56.912L94.1427 57.4513ZM92.2005 54.2843C91.7874 54.1579 91.4133 54.1773 91.0783 54.3425C90.751 54.51 90.5038 54.7983 90.3368 55.2074L93.1366 56.0642C93.2524 55.6311 93.2242 55.2585 93.052 54.9465C92.8898 54.6291 92.6059 54.4084 92.2005 54.2843ZM93.7091 60.1297L94.0602 58.9822L94.2438 59.0384C94.5651 59.1367 94.8177 59.1178 95.0016 58.9816C95.1955 58.8402 95.3806 58.5496 95.557 58.11L96.9184 54.6865L101.221 56.0034L99.4305 61.8555L98.1224 61.4552L99.5621 56.7505L97.7147 56.1852L96.7682 58.5811C96.4612 59.3656 96.092 59.8884 95.6607 60.1496C95.2393 60.4055 94.7074 60.4352 94.0648 60.2385L93.7091 60.1297ZM103.884 56.8181L103.339 58.5967L104.51 58.9548C105.16 59.1538 105.622 59.5043 105.895 60.0061C106.17 60.5004 106.218 61.042 106.038 61.631C105.855 62.2277 105.505 62.6603 104.988 62.9287C104.481 63.1918 103.906 63.225 103.263 63.0284L100.796 62.2734L102.587 56.4213L103.884 56.8181ZM104.012 60.0072L103.002 59.6982L102.426 61.5801L103.436 61.8891C103.75 61.9851 104.023 61.9682 104.255 61.8384C104.495 61.711 104.657 61.5096 104.741 61.2342C104.825 60.9588 104.801 60.7089 104.669 60.4844C104.545 60.2623 104.326 60.1032 104.012 60.0072ZM107.702 64.3867L106.394 63.9864L108.184 58.1343L109.493 58.5346L108.804 60.7836L111.317 61.5526L112.006 59.3036L113.314 59.7039L111.523 65.556L110.215 65.1557L110.963 62.7116L108.45 61.9426L107.702 64.3867ZM114.909 60.97C115.617 60.5678 116.4 60.4978 117.257 60.76C118.114 61.0222 118.719 61.5171 119.074 62.2447C119.436 62.9747 119.478 63.7948 119.199 64.7052C118.921 65.6155 118.427 66.2718 117.718 66.674C117.017 67.0785 116.238 67.1497 115.382 66.8875C114.525 66.6253 113.915 66.1292 113.553 65.3993C113.198 64.6717 113.16 63.8527 113.439 62.9424C113.718 62.032 114.207 61.3746 114.909 60.97ZM114.762 64.8531C114.937 65.2916 115.262 65.5834 115.736 65.7286C116.211 65.8737 116.639 65.8125 117.022 65.5449C117.413 65.2796 117.695 64.8639 117.868 64.2978C118.042 63.7317 118.04 63.2294 117.865 62.7909C117.697 62.3548 117.376 62.0641 116.902 61.919C116.428 61.7738 115.995 61.8339 115.605 62.0992C115.222 62.3668 114.943 62.7836 114.77 63.3497C114.597 63.9158 114.594 64.4169 114.762 64.8531ZM124.781 64.4683L122.073 63.6395L120.634 68.3442L119.326 67.9438L121.116 62.0917L125.133 63.3208L124.781 64.4683ZM126.081 64.3891C126.79 63.9869 127.573 63.9169 128.429 64.1791C129.286 64.4413 129.892 64.9362 130.246 65.6638C130.609 66.3938 130.651 67.2139 130.372 68.1243C130.093 69.0346 129.6 69.6909 128.891 70.0931C128.19 70.4976 127.411 70.5688 126.554 70.3066C125.697 70.0444 125.088 69.5483 124.726 68.8184C124.371 68.0908 124.333 67.2718 124.612 66.3615C124.89 65.4511 125.38 64.7937 126.081 64.3891ZM125.934 68.2722C126.11 68.7107 126.435 69.0025 126.909 69.1477C127.383 69.2928 127.812 69.2316 128.195 68.964C128.586 68.6987 128.868 68.283 129.041 67.7169C129.214 67.1508 129.213 66.6485 129.038 66.21C128.87 65.7739 128.549 65.4832 128.075 65.3381C127.6 65.1929 127.168 65.253 126.777 65.5183C126.394 65.7859 126.116 66.2027 125.943 66.7688C125.769 67.3349 125.767 67.836 125.934 68.2722ZM43.9167 56.2993C44.2992 56.4163 44.6229 56.4108 44.888 56.2828C45.1607 56.1571 45.3725 55.9709 45.5233 55.7242L46.797 56.114C46.5455 56.6896 46.1233 57.1126 45.5302 57.3829C44.9372 57.6532 44.2773 57.6771 43.5505 57.4547C42.7014 57.1948 42.1034 56.7023 41.7564 55.977C41.4118 55.2441 41.3776 54.4263 41.6539 53.5236C41.9278 52.6286 42.4088 51.9726 43.0969 51.5557C43.7927 51.1412 44.5689 51.065 45.4257 51.3272C46.1677 51.5543 46.7 51.9473 47.0226 52.5061C47.3475 53.0573 47.4605 53.6315 47.3614 54.2287L46.0877 53.8389C46.0831 53.553 46.0019 53.2855 45.8439 53.0364C45.6958 52.7819 45.4382 52.5985 45.071 52.4862C44.612 52.3457 44.191 52.4093 43.8079 52.6769C43.4325 52.9468 43.1582 53.3649 42.9849 53.9309C42.8094 54.5047 42.8054 55.0096 42.9731 55.4458C43.1432 55.8743 43.4577 56.1588 43.9167 56.2993ZM52.0676 53.3598C52.7943 53.5822 53.3232 54.041 53.6542 54.7363C53.9929 55.434 54.0159 56.2609 53.7233 57.2172C53.4307 58.1734 52.945 58.8446 52.2662 59.2309C51.5951 59.6195 50.8924 59.7015 50.158 59.4768C49.7526 59.3527 49.4191 59.1711 49.1576 58.9322C48.906 58.6879 48.7427 58.4287 48.6676 58.1548L47.7967 61.0005L46.4886 60.6002L48.9502 52.5564L50.2124 52.9427L49.9807 53.7C50.5305 53.2157 51.2261 53.1023 52.0676 53.3598ZM50.2946 58.2511C50.7536 58.3915 51.1735 58.3318 51.5542 58.0718C51.945 57.8066 52.2281 57.3871 52.4037 56.8133C52.5769 56.2472 52.5759 55.7449 52.4005 55.3064C52.2328 54.8703 51.9195 54.5819 51.4605 54.4415C50.9938 54.2987 50.5663 54.3561 50.1779 54.6137C49.7919 54.8637 49.5111 55.2755 49.3355 55.8493L49.3215 55.8952C49.1459 56.4689 49.1469 56.9712 49.3246 57.4021C49.5047 57.8253 49.828 58.1083 50.2946 58.2511ZM55.876 55.4539C56.5847 55.0517 57.3674 54.9817 58.2242 55.2439C59.081 55.5061 59.6867 56.001 60.0413 56.7286C60.4035 57.4586 60.4454 58.2787 60.1668 59.189C59.8882 60.0994 59.3946 60.7556 58.6858 61.1578C57.9848 61.5624 57.2058 61.6336 56.3491 61.3714C55.4923 61.1092 54.8828 60.6131 54.5205 59.8831C54.1659 59.1555 54.1279 58.3366 54.4065 57.4262C54.6851 56.5159 55.1749 55.8585 55.876 55.4539ZM55.7293 59.3369C55.9046 59.7755 56.2294 60.0673 56.7037 60.2124C57.178 60.3576 57.6067 60.2963 57.9898 60.0287C58.3805 59.7635 58.6625 59.3478 58.8357 58.7817C59.009 58.2156 59.0079 57.7133 58.8325 57.2748C58.6648 56.8386 58.3438 56.548 57.8696 56.4028C57.3953 56.2577 56.9628 56.3177 56.572 56.583C56.1889 56.8506 55.9108 57.2675 55.7375 57.8336C55.5643 58.3997 55.5615 58.9008 55.7293 59.3369ZM61.6011 62.828L60.2929 62.4277L62.0838 56.5756L63.392 56.9759L62.6475 59.4086L65.641 57.6642L67.1901 58.1383L63.8264 60.1082L65.4336 64.0009L63.8501 63.5163L62.4368 60.0971L61.6011 62.828ZM70.6428 61.3533C70.7434 61.0244 70.7136 60.7392 70.5532 60.4977C70.4029 60.2509 70.1556 60.0748 69.8113 59.9695C69.1917 59.7798 68.7363 59.8873 68.4452 60.2918L67.2059 59.9126C67.4522 59.4358 67.8361 59.0973 68.3575 58.8971C68.8889 58.6916 69.4988 58.6942 70.1873 58.9049C70.9141 59.1273 71.4343 59.4915 71.7479 59.9974C72.0693 60.5057 72.1269 61.0964 71.9209 61.7696L70.741 65.6251L69.5247 65.2529L69.7284 64.5873C69.1361 64.9917 68.4499 65.0745 67.6696 64.8357C67.0882 64.6578 66.6528 64.3447 66.3633 63.8964C66.0838 63.4427 66.0295 62.9367 66.2004 62.3782C66.3783 61.7969 66.723 61.4087 67.2344 61.2139C67.7558 61.0137 68.3837 61.0259 69.1181 61.2507L70.5409 61.6861L70.6428 61.3533ZM68.283 63.8564C68.6885 63.9805 69.0678 63.9711 69.4211 63.8282C69.7767 63.6777 70.013 63.4111 70.1301 63.0287L70.2389 62.6729L68.9079 62.2656C68.5636 62.1603 68.266 62.1486 68.015 62.2308C67.7739 62.3076 67.6136 62.4761 67.534 62.7362C67.4544 62.9963 67.4842 63.2271 67.6233 63.4286C67.7648 63.6225 67.9847 63.7651 68.283 63.8564Z" fill="white"/>
<defs>
<linearGradient id="paint0_linear_163_811" x1="115.866" y1="21.7936" x2="85.0695" y2="124.268" gradientUnits="userSpaceOnUse">
<stop stop-color="#66BEBE"/>
<stop offset="1" stop-color="#65DEA3"/>
</linearGradient>
</defs>
</svg>
