<svg width="190" height="120" viewBox="0 0 190 120" fill="none" xmlns="http://www.w3.org/2000/svg">
<g clip-path="url(#clip0_201_737)">
<path fill-rule="evenodd" clip-rule="evenodd" d="M159.25 31.2279C173.021 35.3664 180.829 49.8844 176.69 63.6548L168.915 89.528C164.776 103.298 150.258 111.107 136.488 106.968L103.558 97.0717C102.034 96.6137 100.39 96.7799 98.9888 97.5336L86.9171 104.026C83.9987 105.596 80.3605 104.502 78.7908 101.584L72.2983 89.5123C71.5445 88.1108 70.2649 87.0662 68.7409 86.6082L34.6635 76.3668C20.8931 72.2284 13.0848 57.7104 17.2233 43.94L24.999 18.0668C29.1374 4.29633 43.6555 -3.51193 57.4259 0.626521L159.25 31.2279Z" fill="url(#paint0_linear_201_737)"/>
<path d="M41.534 23.4849L40.1685 23.0671L42.6406 14.9889L44.0061 15.4067L42.9351 18.9065L47.242 16.397L48.9058 16.9062L44.1767 19.6881L46.5025 25.0054L44.7813 24.4787L42.6717 19.7671L41.534 23.4849ZM52.0942 20.1659C52.8209 20.3883 53.3498 20.8471 53.6808 21.5424C54.0195 22.2401 54.0425 23.067 53.7499 24.0232C53.4572 24.9794 52.9715 25.6507 52.2928 26.037C51.6217 26.4256 50.9189 26.5076 50.1846 26.2828C49.7791 26.1587 49.4457 25.9772 49.1841 25.7382C48.9326 25.4939 48.7693 25.2348 48.6942 24.9608L47.8233 27.8065L46.5152 27.4062L48.9768 19.3625L50.239 19.7487L50.0073 20.5061C50.557 20.0217 51.2527 19.9083 52.0942 20.1659ZM50.3212 25.0572C50.7802 25.1976 51.2001 25.1379 51.5808 24.8779C51.9715 24.6126 52.2547 24.1931 52.4303 23.6194C52.6035 23.0533 52.6024 22.551 52.4271 22.1125C52.2594 21.6763 51.946 21.388 51.4871 21.2476C51.0204 21.1047 50.5929 21.1622 50.2045 21.4198C49.8185 21.6698 49.5376 22.0816 49.3621 22.6553L49.348 22.7012C49.1724 23.275 49.1735 23.7773 49.3512 24.2081C49.5312 24.6313 49.8546 24.9144 50.3212 25.0572ZM60.8593 22.9988L59.0684 28.8509L57.7833 28.4576L58.9737 24.5677L55.1326 27.6465L53.8704 27.2602L55.6613 21.4081L56.9464 21.8014L55.7525 25.7028L59.5971 22.6125L60.8593 22.9988ZM63.2459 29.0124C63.6284 29.1295 63.9521 29.124 64.2172 28.9959C64.4899 28.8703 64.7017 28.6841 64.8525 28.4374L66.1262 28.8272C65.8747 29.4028 65.4525 29.8257 64.8594 30.096C64.2663 30.3663 63.6065 30.3903 62.8797 30.1679C62.0306 29.908 61.4326 29.4154 61.0856 28.6902C60.741 27.9572 60.7068 27.1394 60.9831 26.2368C61.257 25.3417 61.738 24.6858 62.4261 24.2689C63.1218 23.8543 63.8981 23.7782 64.7549 24.0404C65.4969 24.2674 66.0292 24.6604 66.3518 25.2193C66.6767 25.7705 66.7897 26.3447 66.6906 26.9418L65.4169 26.552C65.4123 26.2662 65.331 25.9987 65.173 25.7495C65.025 25.4951 64.7674 25.3117 64.4002 25.1993C63.9412 25.0588 63.5202 25.1224 63.1371 25.39C62.7617 25.66 62.4874 26.078 62.3141 26.6441C62.1385 27.2178 62.1346 27.7228 62.3023 28.159C62.4724 28.5875 62.7869 28.872 63.2459 29.0124ZM68.2661 30.9378C68.2099 31.1214 68.1108 31.3086 67.9688 31.4993L66.6629 33.1829L65.6646 32.8774L66.87 31.276C66.5526 31.0283 66.4489 30.7247 66.5589 30.3651C66.6315 30.128 66.7715 29.9575 66.979 29.8537C67.1865 29.7498 67.4126 29.7354 67.6574 29.8103C67.9022 29.8852 68.083 30.0326 68.1998 30.2524C68.3189 30.4645 68.341 30.693 68.2661 30.9378ZM75.8581 29.7473C75.9587 29.4184 75.9289 29.1331 75.7685 28.8916C75.6182 28.6448 75.3709 28.4688 75.0266 28.3634C74.407 28.1738 73.9516 28.2812 73.6605 28.6858L72.4212 28.3065C72.6675 27.8297 73.0514 27.4912 73.5728 27.291C74.1042 27.0855 74.7141 27.0881 75.4026 27.2988C76.1293 27.5212 76.6496 27.8854 76.9632 28.3913C77.2846 28.8996 77.3422 29.4904 77.1362 30.1635L75.9563 34.019L74.74 33.6468L74.9437 32.9813C74.3514 33.3857 73.6651 33.4685 72.8849 33.2297C72.3035 33.0518 71.868 32.7386 71.5786 32.2903C71.2991 31.8367 71.2448 31.3306 71.4157 30.7722C71.5936 30.1908 71.9383 29.8027 72.4497 29.6078C72.9711 29.4076 73.599 29.4199 74.3334 29.6446L75.7562 30.0801L75.8581 29.7473ZM73.4983 32.2503C73.9037 32.3744 74.2831 32.365 74.6364 32.2221C74.992 32.0716 75.2283 31.8051 75.3454 31.4226L75.4542 31.0669L74.1232 30.6595C73.7789 30.5542 73.4813 30.5426 73.2303 30.6247C72.9892 30.7016 72.8289 30.87 72.7493 31.1301C72.6697 31.3902 72.6995 31.621 72.8386 31.8226C72.9801 32.0164 73.2 32.159 73.4983 32.2503ZM82.1718 29.3704C82.8985 29.5928 83.4274 30.0516 83.7584 30.7469C84.0971 31.4446 84.1201 32.2715 83.8275 33.2277C83.5349 34.184 83.0492 34.8552 82.3704 35.2415C81.6993 35.6301 80.9966 35.7121 80.2622 35.4873C79.8568 35.3633 79.5233 35.1817 79.2618 34.9427C79.0103 34.6985 78.8469 34.4393 78.7718 34.1653L77.901 37.0111L76.5928 36.6108L79.0544 28.567L80.3167 28.9533L80.0849 29.7106C80.6347 29.2263 81.3303 29.1129 82.1718 29.3704ZM80.3989 34.2617C80.8578 34.4021 81.2777 34.3424 81.6584 34.0824C82.0492 33.8172 82.3323 33.3976 82.5079 32.8239C82.6811 32.2578 82.6801 31.7555 82.5047 31.317C82.337 30.8809 82.0237 30.5925 81.5647 30.4521C81.098 30.3093 80.6705 30.3667 80.2821 30.6243C79.8961 30.8743 79.6153 31.2861 79.4397 31.8599L79.4257 31.9058C79.2501 32.4795 79.2511 32.9818 79.4288 33.4127C79.6089 33.8359 79.9322 34.1189 80.3989 34.2617ZM84.7159 31.5545L85.067 30.407L90.1159 31.9521L89.7647 33.0995L87.8943 32.5272L86.4546 37.2318L85.1465 36.8315L86.5862 32.1268L84.7159 31.5545ZM95.26 38.6715L94.4594 41.2878L93.1972 40.9015L93.6467 39.4327L89.5158 38.1686L89.0663 39.6373L87.8041 39.2511L88.6047 36.6348L89.0752 36.7788C89.4779 36.6929 89.8821 36.1515 90.2876 35.1545L91.387 32.3411L95.8506 33.707L94.4109 38.4117L95.26 38.6715ZM91.5128 35.5796C91.1677 36.4612 90.8218 37.0038 90.4751 37.2072L93.1028 38.0114L94.1914 34.4542L92.1948 33.8432L91.5128 35.5796ZM102.782 35.8282L100.991 41.6803L99.7058 41.287L100.896 37.3971L97.0552 40.4758L95.793 40.0896L97.5839 34.2375L98.869 34.6307L97.6751 38.5322L101.52 35.4419L102.782 35.8282ZM107.251 37.0453C107.978 37.2677 108.507 37.7266 108.838 38.4219C109.177 39.1195 109.2 39.9465 108.907 40.9027C108.614 41.8589 108.129 42.5302 107.45 42.9165C106.779 43.3051 106.076 43.387 105.342 43.1623C104.936 43.0382 104.603 42.8567 104.341 42.6177C104.09 42.3734 103.926 42.1143 103.851 41.8403L102.98 44.686L101.672 44.2857L104.134 36.2419L105.396 36.6282L105.164 37.3855C105.714 36.9012 106.41 36.7878 107.251 37.0453ZM105.478 41.9366C105.937 42.0771 106.357 42.0173 106.738 41.7574C107.129 41.4921 107.412 41.0726 107.587 40.4989C107.761 39.9328 107.759 39.4305 107.584 38.992C107.416 38.5558 107.103 38.2675 106.644 38.127C106.177 37.9842 105.75 38.0416 105.362 38.2992C104.976 38.5492 104.695 38.9611 104.519 39.5348L104.505 39.5807C104.329 40.1544 104.331 40.6567 104.508 41.0876C104.688 41.5108 105.012 41.7938 105.478 41.9366ZM113.088 38.982L118.182 40.5412L116.392 46.3933L115.083 45.9929L116.523 41.2883L114.045 40.5298L112.605 45.2345L111.297 44.8341L113.088 38.982ZM119.778 41.8075C120.487 41.4053 121.27 41.3353 122.126 41.5975C122.983 41.8597 123.589 42.3546 123.943 43.0822C124.306 43.8122 124.348 44.6323 124.069 45.5427C123.79 46.453 123.297 47.1092 122.588 47.5115C121.887 47.916 121.108 47.9872 120.251 47.725C119.394 47.4628 118.785 46.9667 118.423 46.2368C118.068 45.5092 118.03 44.6902 118.309 43.7799C118.587 42.8695 119.077 42.2121 119.778 41.8075ZM119.631 45.6906C119.807 46.1291 120.132 46.4209 120.606 46.5661C121.08 46.7112 121.509 46.65 121.892 46.3823C122.283 46.1171 122.565 45.7014 122.738 45.1353C122.911 44.5692 122.91 44.0669 122.735 43.6284C122.567 43.1922 122.246 42.9016 121.772 42.7564C121.297 42.6113 120.865 42.6714 120.474 42.9366C120.091 43.2043 119.813 43.6211 119.64 44.1872C119.466 44.7533 119.464 45.2544 119.631 45.6906ZM43.5082 30.2383L41.7173 36.0904L40.4321 35.6971L41.6225 31.8071L37.7815 34.8859L36.5192 34.4996L38.3101 28.6475L39.5953 29.0408L38.4014 32.9422L42.246 29.852L43.5082 30.2383ZM45.8947 36.2519C46.2772 36.3689 46.601 36.3634 46.8661 36.2354C47.1388 36.1097 47.3505 35.9235 47.5013 35.6768L48.775 36.0666C48.5236 36.6422 48.1013 37.0652 47.5083 37.3355C46.9152 37.6058 46.2553 37.6297 45.5286 37.4073C44.6795 37.1475 44.0814 36.6549 43.7345 35.9296C43.3899 35.1967 43.3557 34.3789 43.6319 33.4762C43.9058 32.5812 44.3868 31.9252 45.0749 31.5083C45.7707 31.0938 46.547 31.0176 47.4038 31.2798C48.1458 31.5069 48.6781 31.8999 49.0007 32.4587C49.3256 33.0099 49.4385 33.5841 49.3394 34.1813L48.0658 33.7915C48.0612 33.5056 47.9799 33.2381 47.8219 32.989C47.6739 32.7345 47.4163 32.5511 47.0491 32.4388C46.5901 32.2983 46.1691 32.3619 45.786 32.6295C45.4106 32.8994 45.1362 33.3175 44.963 33.8835C44.7874 34.4573 44.7835 34.9622 44.9512 35.3984C45.1212 35.8269 45.4357 36.1114 45.8947 36.2519ZM51.9629 38.1089C52.3454 38.2259 52.6692 38.2204 52.9342 38.0924C53.2069 37.9667 53.4187 37.7805 53.5695 37.5338L54.8432 37.9236C54.5917 38.4992 54.1695 38.9222 53.5764 39.1925C52.9834 39.4628 52.3235 39.4867 51.5967 39.2643C50.7476 39.0045 50.1496 38.5119 49.8026 37.7866C49.458 37.0537 49.4238 36.2359 49.7001 35.3332C49.974 34.4382 50.455 33.7822 51.1431 33.3653C51.8389 32.9508 52.6151 32.8746 53.4719 33.1368C54.2139 33.3639 54.7462 33.7569 55.0688 34.3157C55.3938 34.8669 55.5067 35.4411 55.4076 36.0383L54.1339 35.6485C54.1293 35.3626 54.0481 35.0951 53.8901 34.846C53.742 34.5915 53.4844 34.4081 53.1172 34.2958C52.6583 34.1553 52.2372 34.2189 51.8541 34.4865C51.4787 34.7564 51.2044 35.1745 51.0311 35.7406C50.8556 36.3143 50.8516 36.8192 51.0193 37.2554C51.1894 37.6839 51.5039 37.9684 51.9629 38.1089ZM54.5789 40.0514L54.93 38.904L55.1136 38.9601C55.4349 39.0585 55.6875 39.0396 55.8714 38.9034C56.0653 38.762 56.2504 38.4714 56.4268 38.0318L57.7882 34.6083L62.0912 35.9251L60.3003 41.7772L58.9922 41.3769L60.4319 36.6723L58.5845 36.1069L57.638 38.5028C57.331 39.2873 56.9618 39.8102 56.5305 40.0714C56.1091 40.3273 55.5772 40.3569 54.9346 40.1603L54.5789 40.0514ZM67.5747 41.2174L63.4552 39.9568L63.4482 39.9797C63.3101 40.4311 63.3407 40.8504 63.5401 41.2377C63.7395 41.625 64.0725 41.89 64.5392 42.0328C64.8605 42.1312 65.1443 42.1469 65.3906 42.0801C65.6469 42.0079 65.8253 41.9035 65.9257 41.7669L67.2108 42.1602C66.9833 42.5758 66.6014 42.894 66.0654 43.1148C65.5369 43.3379 64.9093 43.3383 64.1826 43.1159C63.3105 42.849 62.6937 42.3633 62.3321 41.6586C61.9728 40.9463 61.9371 40.1197 62.2251 39.1787C62.513 38.2378 63.0014 37.5715 63.6901 37.1799C64.3812 36.7807 65.1436 36.7087 65.9775 36.9638C66.7807 37.2096 67.3425 37.6702 67.6629 38.3455C67.9833 39.0209 68.0089 39.7984 67.7397 40.6781L67.5747 41.2174ZM65.6324 38.0504C65.2193 37.924 64.8453 37.9434 64.5102 38.1086C64.1829 38.2761 63.9357 38.5644 63.7687 38.9735L66.5685 39.8303C66.6843 39.3972 66.6561 39.0246 66.4839 38.7126C66.3217 38.3952 66.0378 38.1745 65.6324 38.0504ZM74.1657 44.7655L73.3651 47.3817L72.1029 46.9954L72.5523 45.5267L68.4214 44.2625L67.972 45.7313L66.7098 45.345L67.5104 42.7288L67.9808 42.8727C68.3836 42.7868 68.7877 42.2454 69.1932 41.2484L70.2927 38.435L74.7563 39.801L73.3166 44.5056L74.1657 44.7655ZM70.4185 41.6736C70.0734 42.5552 69.7275 43.0977 69.3808 43.3012L72.0085 44.1053L73.0971 40.5481L71.1005 39.9371L70.4185 41.6736ZM76.7196 41.1799C77.4283 40.7776 78.2111 40.7076 79.0679 40.9698C79.9246 41.232 80.5303 41.7269 80.8849 42.4546C81.2472 43.1845 81.289 44.0047 81.0104 44.915C80.7319 45.8253 80.2382 46.4816 79.5295 46.8838C78.8284 47.2883 78.0495 47.3595 77.1927 47.0973C76.3359 46.8351 75.7264 46.3391 75.3642 45.6091C75.0096 44.8815 74.9715 44.0625 75.2501 43.1522C75.5287 42.2419 76.0185 41.5844 76.7196 41.1799ZM76.5729 45.0629C76.7483 45.5014 77.0731 45.7932 77.5474 45.9384C78.0217 46.0835 78.4503 46.0223 78.8334 45.7547C79.2241 45.4894 79.5061 45.0737 79.6794 44.5076C79.8526 43.9416 79.8515 43.4393 79.6762 43.0008C79.5085 42.5646 79.1875 42.2739 78.7132 42.1288C78.2389 41.9836 77.8064 42.0437 77.4157 42.309C77.0326 42.5766 76.7544 42.9934 76.5812 43.5595C76.408 44.1256 76.4052 44.6267 76.5729 45.0629ZM81.1366 48.1537L82.9275 42.3016L85.5552 43.1057C86.1825 43.2977 86.6173 43.5855 86.8596 43.9692C87.1019 44.3529 87.1552 44.7666 87.0194 45.2103C86.9211 45.5316 86.7588 45.7748 86.5326 45.9398C86.3164 46.0995 86.0795 46.1902 85.822 46.2117C86.0945 46.3872 86.2928 46.6277 86.4168 46.9334C86.5484 47.2414 86.5569 47.5828 86.4422 47.9577C86.2924 48.4473 85.9859 48.7927 85.5227 48.994C85.0695 49.1899 84.5216 49.1896 83.879 48.9929L81.1366 48.1537ZM84.4839 46.4423L83.1873 46.0455L82.7308 47.5372L84.0274 47.934C84.3181 48.023 84.5599 48.0258 84.7526 47.9426C84.9554 47.8541 85.0931 47.6912 85.1657 47.4541C85.3155 46.9645 85.0883 46.6272 84.4839 46.4423ZM85.0855 44.0663L83.9036 43.7046L83.4893 45.0587L84.6712 45.4203C84.9236 45.4976 85.1374 45.4961 85.3126 45.4158C85.4954 45.3379 85.6195 45.1919 85.6851 44.9777C85.8209 44.534 85.621 44.2302 85.0855 44.0663ZM91.5761 47.1067C91.6767 46.7778 91.6469 46.4926 91.4865 46.2511C91.3362 46.0043 91.0889 45.8282 90.7446 45.7229C90.125 45.5332 89.6696 45.6407 89.3785 46.0452L88.1392 45.666C88.3855 45.1892 88.7694 44.8507 89.2908 44.6505C89.8222 44.445 90.4321 44.4476 91.1206 44.6583C91.8473 44.8807 92.3676 45.2449 92.6812 45.7508C93.0026 46.2591 93.0602 46.8498 92.8542 47.523L91.6743 51.3785L90.458 51.0063L90.6617 50.3407C90.0694 50.7451 89.3831 50.8279 88.6029 50.5891C88.0215 50.4112 87.586 50.0981 87.2966 49.6498C87.0171 49.1961 86.9628 48.6901 87.1337 48.1316C87.3116 47.5502 87.6563 47.1621 88.1677 46.9672C88.6891 46.7671 89.317 46.7793 90.0514 47.0041L91.4742 47.4395L91.5761 47.1067ZM89.2163 49.6098C89.6217 49.7338 90.0011 49.7244 90.3544 49.5816C90.71 49.431 90.9463 49.1645 91.0634 48.782L91.1722 48.4263L89.8412 48.019C89.4969 47.9136 89.1993 47.902 88.9483 47.9842C88.7072 48.061 88.5469 48.2295 88.4673 48.4896C88.3877 48.7497 88.4175 48.9805 88.5566 49.182C88.6981 49.3759 88.918 49.5185 89.2163 49.6098ZM94.2897 52.1788L92.9815 51.7785L94.7724 45.9264L96.0806 46.3267L95.3923 48.5758L97.9052 49.3448L98.5935 47.0958L99.9016 47.4961L98.1107 53.3482L96.8026 52.9479L97.5506 50.5038L95.0376 49.7347L94.2897 52.1788ZM106.453 49.5011L104.662 55.3532L103.377 54.9599L104.568 51.0699L100.727 54.1487L99.4643 53.7624L101.255 47.9103L102.54 48.3036L101.346 52.205L105.191 49.1148L106.453 49.5011ZM110.455 57.1259L109.158 56.7291L109.738 54.8357L108.854 54.5653L106.932 56.0478L105.464 55.5983L107.583 53.9629C107.272 53.6923 107.062 53.3685 106.951 52.9916C106.851 52.6095 106.861 52.2195 106.983 51.8217C107.159 51.248 107.49 50.8349 107.977 50.5824C108.475 50.3246 109.064 50.2999 109.744 50.5082L112.246 51.2738L110.455 57.1259ZM108.755 51.6487C108.52 51.7608 108.361 51.9546 108.276 52.23C108.192 52.5054 108.216 52.7553 108.348 52.9798C108.48 53.2043 108.703 53.3645 109.017 53.4605L110.061 53.7801L110.623 51.9441L109.578 51.6245C109.265 51.5286 108.99 51.5366 108.755 51.6487ZM113.604 51.6895L115.257 52.1952L115.816 57.0097L118.975 53.3329L120.604 53.8315L118.813 59.6836L117.551 59.2974L118.776 55.2927L115.802 58.7372L114.838 58.4422L114.298 53.9347L113.076 57.9279L111.814 57.5416L113.604 51.6895ZM125.263 60.5404C125.645 60.6575 125.969 60.652 126.234 60.524C126.507 60.3983 126.718 60.2121 126.869 59.9654L128.143 60.3552C127.891 60.9308 127.469 61.3538 126.876 61.624C126.283 61.8943 125.623 61.9183 124.896 61.6959C124.047 61.436 123.449 60.9435 123.102 60.2182C122.758 59.4853 122.723 58.6675 123 57.7648C123.274 56.8697 123.755 56.2138 124.443 55.7969C125.139 55.3824 125.915 55.3062 126.772 55.5684C127.514 55.7955 128.046 56.1884 128.368 56.7473C128.693 57.2985 128.806 57.8727 128.707 58.4698L127.434 58.08C127.429 57.7942 127.348 57.5267 127.19 57.2776C127.042 57.0231 126.784 56.8397 126.417 56.7273C125.958 56.5869 125.537 56.6504 125.154 56.9181C124.778 57.188 124.504 57.606 124.331 58.1721C124.155 58.7458 124.151 59.2508 124.319 59.687C124.489 60.1155 124.804 60.4 125.263 60.5404ZM129.374 57.7703L129.725 56.6228L134.774 58.1679L134.423 59.3154L132.552 58.743L131.113 63.4476L129.805 63.0473L131.244 58.3427L129.374 57.7703ZM139.479 59.6078L140.89 60.0397L135.273 67.1178L133.873 66.6894L135.482 64.6719L134.992 58.2348L136.404 58.6667L136.66 63.3255L139.479 59.6078ZM145.997 66.7478L145.197 69.364L143.935 68.9778L144.384 67.509L140.253 66.2448L139.804 67.7136L138.541 67.3273L139.342 64.7111L139.813 64.8551C140.215 64.7692 140.619 64.2277 141.025 63.2308L142.124 60.4173L146.588 61.7833L145.148 66.4879L145.997 66.7478ZM142.25 63.6559C141.905 64.5375 141.559 65.08 141.212 65.2835L143.84 66.0876L144.929 62.5305L142.932 61.9195L142.25 63.6559ZM153.519 63.9045L151.728 69.7566L150.443 69.3633L151.634 65.4733L147.793 68.5521L146.53 68.1658L148.321 62.3137L149.606 62.707L148.412 66.6084L152.257 63.5182L153.519 63.9045ZM160.069 65.9089L158.278 71.761L156.993 71.3677L158.184 67.4778L154.343 70.5566L153.08 70.1703L154.871 64.3182L156.156 64.7115L154.962 68.6129L158.807 65.5227L160.069 65.9089ZM35.6175 37.9383L37.3043 38.4545L37.9723 45.4983L42.4564 40.0312L44.1203 40.5403L41.6481 48.6185L40.3515 48.2217L42.1389 42.3811L37.9638 47.4534L36.8623 47.1163L36.2409 40.5762L34.4535 46.4168L33.1454 46.0165L35.6175 37.9383ZM48.0251 41.7353L49.448 42.1707L49.9822 51.169L48.5479 50.73L48.4343 48.5995L45.2444 47.6233L43.9924 49.3359L42.5581 48.897L48.0251 41.7353ZM48.2264 43.5789L46.0306 46.5714L48.3829 47.2912L48.2264 43.5789ZM55.8192 52.9553L54.7223 49.2814L51.7801 51.7192L50.2196 51.2416L54.1972 48.0038L52.7147 43.1704L54.2867 43.6515L55.3677 47.2954L58.3143 44.8841L59.8519 45.3546L55.9043 48.5765L57.4027 53.4398L55.8192 52.9553ZM60.195 53.5665C60.1389 53.7501 60.0397 53.9373 59.8977 54.1281L58.5919 55.8116L57.5936 55.5061L58.7989 53.9048C58.4815 53.657 58.3778 53.3534 58.4879 52.9939C58.5605 52.7567 58.7005 52.5862 58.9079 52.4824C59.1154 52.3786 59.3415 52.3641 59.5863 52.439C59.8311 52.5139 60.0119 52.6613 60.1287 52.8811C60.2478 53.0932 60.27 53.3217 60.195 53.5665ZM64.96 49.3524L70.0548 50.9115L68.2639 56.7636L66.9558 56.3633L68.3955 51.6587L65.917 50.9002L64.4773 55.6048L63.1691 55.2045L64.96 49.3524ZM71.6505 52.1779C72.3592 51.7757 73.1419 51.7057 73.9987 51.9679C74.8555 52.2301 75.4612 52.725 75.8158 53.4526C76.178 54.1826 76.2199 55.0027 75.9413 55.913C75.6627 56.8234 75.169 57.4796 74.4603 57.8818C73.7592 58.2864 72.9803 58.3576 72.1235 58.0954C71.2668 57.8332 70.6572 57.3371 70.295 56.6071C69.9404 55.8795 69.9024 55.0606 70.181 54.1502C70.4596 53.2399 70.9494 52.5825 71.6505 52.1779ZM71.5037 56.061C71.6791 56.4995 72.0039 56.7913 72.4782 56.9364C72.9525 57.0816 73.3812 57.0203 73.7643 56.7527C74.155 56.4875 74.437 56.0718 74.6102 55.5057C74.7834 54.9396 74.7824 54.4373 74.607 53.9988C74.4393 53.5626 74.1183 53.272 73.644 53.1268C73.1698 52.9817 72.7372 53.0417 72.3465 53.307C71.9634 53.5746 71.6853 53.9915 71.512 54.5576C71.3388 55.1237 71.336 55.6248 71.5037 56.061ZM82.3758 59.8273L81.5752 62.4436L80.313 62.0573L80.7625 60.5885L76.6316 59.3244L76.1821 60.7931L74.9199 60.4069L75.7205 57.7906L76.191 57.9346C76.5937 57.8487 76.9979 57.3073 77.4034 56.3103L78.5028 53.4968L82.9665 54.8628L81.5267 59.5675L82.3758 59.8273ZM78.6286 56.7354C78.2835 57.617 77.9376 58.1596 77.5909 58.363L80.2186 59.1671L81.3072 55.61L79.3106 54.999L78.6286 56.7354ZM87.817 56.1966C88.5438 56.419 89.0727 56.8779 89.4037 57.5732C89.7423 58.2708 89.7654 59.0978 89.4727 60.054C89.1801 61.0102 88.6944 61.6815 88.0157 62.0678C87.3446 62.4564 86.6418 62.5383 85.9074 62.3136C85.502 62.1895 85.1685 62.008 84.907 61.769C84.6555 61.5247 84.4922 61.2656 84.4171 60.9916L83.5462 63.8373L82.2381 63.437L84.6997 55.3932L85.9619 55.7795L85.7301 56.5368C86.2799 56.0525 86.9756 55.9391 87.817 56.1966ZM86.0441 61.0879C86.5031 61.2284 86.9229 61.1686 87.3037 60.9087C87.6944 60.6434 87.9776 60.2239 88.1531 59.6502C88.3264 59.0841 88.3253 58.5818 88.15 58.1433C87.9823 57.7071 87.6689 57.4188 87.2099 57.2783C86.7433 57.1355 86.3158 57.1929 85.9274 57.4506C85.5413 57.7005 85.2605 58.1124 85.0849 58.6861L85.0709 58.732C84.8953 59.3058 84.8964 59.8081 85.0741 60.2389C85.2541 60.6621 85.5775 60.9451 86.0441 61.0879ZM91.6254 58.2908C92.3341 57.8885 93.1169 57.8185 93.9737 58.0807C94.8304 58.3429 95.4361 58.8378 95.7907 59.5654C96.153 60.2954 96.1948 61.1155 95.9162 62.0259C95.6377 62.9362 95.144 63.5925 94.4353 63.9947C93.7342 64.3992 92.9553 64.4704 92.0985 64.2082C91.2417 63.946 90.6322 63.4499 90.27 62.72C89.9154 61.9924 89.8773 61.1734 90.1559 60.2631C90.4345 59.3527 90.9243 58.6953 91.6254 58.2908ZM91.4787 62.1738C91.6541 62.6123 91.9789 62.9041 92.4532 63.0493C92.9275 63.1944 93.3561 63.1332 93.7392 62.8656C94.13 62.6003 94.4119 62.1846 94.5852 61.6185C94.7584 61.0524 94.7573 60.5502 94.582 60.1116C94.4143 59.6755 94.0933 59.3848 93.619 59.2397C93.1447 59.0945 92.7122 59.1546 92.3215 59.4199C91.9384 59.6875 91.6602 60.1043 91.487 60.6704C91.3138 61.2365 91.311 61.7376 91.4787 62.1738ZM100.814 60.3749C101.587 60.6113 102.133 61.0672 102.454 61.7425C102.782 62.4202 102.808 63.2104 102.531 64.113C102.272 64.9622 101.793 65.5978 101.094 66.02C100.406 66.4369 99.6377 66.5154 98.7886 66.2556C97.84 65.9653 97.1952 65.4207 96.854 64.6219C96.5151 63.8155 96.5201 62.8423 96.8689 61.7025C97.2973 60.3026 97.8434 59.311 98.5072 58.7277C99.1733 58.1367 100.06 57.906 101.166 58.0355L103.675 58.3263L103.31 59.5197L101.021 59.2082C100.383 59.1304 99.8731 59.2126 99.4894 59.4549C99.108 59.6896 98.7907 60.1112 98.5376 60.7198C99.1679 60.2183 99.9268 60.1033 100.814 60.3749ZM99.0674 65.0985C99.5493 65.246 99.9807 65.1897 100.361 64.9298C100.752 64.6645 101.032 64.2565 101.2 63.7057C101.364 63.1702 101.356 62.6909 101.176 62.2677C101.006 61.8391 100.684 61.5523 100.21 61.4072C99.7353 61.262 99.2987 61.3083 98.8997 61.5459C98.503 61.7759 98.2204 62.1663 98.0518 62.7171C97.8786 63.2832 97.8797 63.7855 98.055 64.224C98.2404 64.6572 98.5778 64.9487 99.0674 65.0985ZM103.979 67.6934L102.671 67.293L104.462 61.4409L105.77 61.8412L105.082 64.0903L107.595 64.8593L108.283 62.6103L109.591 63.0106L107.8 68.8627L106.492 68.4624L107.24 66.0183L104.727 65.2492L103.979 67.6934ZM111.186 64.2767C111.894 63.8745 112.677 63.8045 113.534 64.0667C114.391 64.3289 114.996 64.8238 115.351 65.5514C115.713 66.2814 115.755 67.1015 115.477 68.0118C115.198 68.9222 114.704 69.5784 113.996 69.9807C113.295 70.3852 112.516 70.4564 111.659 70.1942C110.802 69.932 110.193 69.4359 109.83 68.706C109.476 67.9783 109.438 67.1594 109.716 66.249C109.995 65.3387 110.485 64.6813 111.186 64.2767ZM111.039 68.1598C111.214 68.5983 111.539 68.8901 112.014 69.0352C112.488 69.1804 112.916 69.1192 113.3 68.8515C113.69 68.5863 113.972 68.1706 114.146 67.6045C114.319 67.0384 114.318 66.5361 114.142 66.0976C113.975 65.6614 113.654 65.3708 113.179 65.2256C112.705 65.0805 112.273 65.1406 111.882 65.4058C111.499 65.6734 111.221 66.0903 111.047 66.6564C110.874 67.2225 110.871 67.7236 111.039 68.1598ZM34.4044 52.4003C35.1311 52.6227 35.66 53.0816 35.991 53.7769C36.3297 54.4745 36.3527 55.3015 36.0601 56.2577C35.7675 57.2139 35.2818 57.8852 34.603 58.2715C33.9319 58.6601 33.2292 58.742 32.4948 58.5173C32.0894 58.3932 31.7559 58.2117 31.4944 57.9727C31.2428 57.7284 31.0795 57.4693 31.0044 57.1953L30.1335 60.041L28.8254 59.6407L31.287 51.5969L32.5492 51.9832L32.3175 52.7405C32.8673 52.2562 33.5629 52.1428 34.4044 52.4003ZM32.6314 57.2916C33.0904 57.4321 33.5103 57.3724 33.891 57.1124C34.2818 56.8471 34.5649 56.4276 34.7405 55.8539C34.9137 55.2878 34.9127 54.7855 34.7373 54.347C34.5696 53.9108 34.2563 53.6225 33.7973 53.482C33.3306 53.3392 32.9031 53.3966 32.5147 53.6543C32.1287 53.9042 31.8479 54.3161 31.6723 54.8898L31.6583 54.9357C31.4827 55.5095 31.4837 56.0118 31.6614 56.4426C31.8415 56.8658 32.1648 57.1488 32.6314 57.2916ZM40.7984 56.6662C40.8991 56.3372 40.8693 56.052 40.7089 55.8105C40.5586 55.5637 40.3113 55.3876 39.967 55.2823C39.3474 55.0927 38.892 55.2001 38.6009 55.6046L37.3616 55.2254C37.6079 54.7486 37.9918 54.4101 38.5132 54.2099C39.0446 54.0044 39.6545 54.007 40.343 54.2177C41.0697 54.4401 41.5899 54.8043 41.9036 55.3102C42.2249 55.8185 42.2826 56.4092 42.0766 57.0824L40.8967 60.9379L39.6804 60.5657L39.8841 59.9002C39.2918 60.3045 38.6055 60.3873 37.8252 60.1486C37.2439 59.9706 36.8084 59.6575 36.519 59.2092C36.2395 58.7555 36.1852 58.2495 36.3561 57.6911C36.534 57.1097 36.8787 56.7215 37.3901 56.5267C37.9115 56.3265 38.5394 56.3388 39.2737 56.5635L40.6966 56.9989L40.7984 56.6662ZM38.4387 59.1692C38.8441 59.2933 39.2235 59.2839 39.5768 59.141C39.9324 58.9905 40.1687 58.724 40.2858 58.3415L40.3946 57.9858L39.0636 57.5784C38.7193 57.4731 38.4217 57.4615 38.1707 57.5436C37.9296 57.6204 37.7693 57.7889 37.6897 58.049C37.6101 58.3091 37.6399 58.5399 37.779 58.7414C37.9204 58.9353 38.1403 59.0779 38.4387 59.1692ZM43.2173 57.0425C43.4494 56.5028 43.8391 56.1451 44.3864 55.9696C44.9414 55.7964 45.5401 55.8082 46.1827 56.0048C46.81 56.1968 47.2796 56.5078 47.5914 56.9379C47.9032 57.3679 47.9818 57.8354 47.8273 58.3403C47.64 58.9523 47.227 59.2902 46.5884 59.3541C46.8527 59.502 47.0568 59.7234 47.2008 60.0184C47.3548 60.3082 47.372 60.6481 47.2526 61.0382C47.0864 61.5814 46.7261 61.9522 46.1718 62.1506C45.6251 62.3515 44.996 62.343 44.2846 62.1253C43.5961 61.9146 43.0766 61.5757 42.7259 61.1087C42.3752 60.6416 42.2506 60.1057 42.352 59.5009L43.6257 59.8907C43.6096 60.1618 43.6876 60.399 43.8597 60.6023C44.0417 60.8002 44.2934 60.9483 44.6147 61.0467C44.9513 61.1497 45.2401 61.1628 45.4811 61.0859C45.7245 61.0015 45.8848 60.833 45.9621 60.5805C46.1072 60.1063 45.8164 59.7579 45.0897 59.5355L44.2291 59.2722L44.5451 58.2394L45.3369 58.4817C45.6429 58.5754 45.8949 58.5856 46.093 58.5123C46.3011 58.4338 46.4403 58.2798 46.5105 58.0503C46.5784 57.8284 46.5431 57.6294 46.4046 57.4531C46.2738 57.2792 46.0668 57.149 45.7838 57.0624C45.4855 56.9711 45.2208 56.9612 44.9897 57.0327C44.7587 57.1042 44.5848 57.2351 44.468 57.4252L43.2173 57.0425ZM49.8 58.0404C50.5087 57.6382 51.2915 57.5682 52.1482 57.8304C53.005 58.0926 53.6107 58.5875 53.9653 59.3151C54.3276 60.0451 54.3694 60.8652 54.0908 61.7756C53.8122 62.6859 53.3186 63.3422 52.6098 63.7444C51.9088 64.1489 51.1298 64.2201 50.2731 63.9579C49.4163 63.6957 48.8068 63.1996 48.4445 62.4697C48.0899 61.7421 48.0519 60.9231 48.3305 60.0128C48.6091 59.1024 49.0989 58.445 49.8 58.0404ZM49.6533 61.9235C49.8286 62.362 50.1534 62.6538 50.6277 62.799C51.102 62.9441 51.5307 62.8829 51.9138 62.6153C52.3045 62.35 52.5865 61.9343 52.7597 61.3682C52.933 60.8021 52.9319 60.2998 52.7566 59.8613C52.5889 59.4252 52.2679 59.1345 51.7936 58.9894C51.3193 58.8442 50.8868 58.9043 50.496 59.1696C50.113 59.4372 49.8348 59.854 49.6616 60.4201C49.4883 60.9862 49.4856 61.4873 49.6533 61.9235ZM58.9887 60.1246C59.7613 60.361 60.3079 60.8169 60.6283 61.4922C60.9563 62.1699 60.9822 62.96 60.706 63.8627C60.4461 64.7119 59.9672 65.3475 59.269 65.7697C58.5809 66.1866 57.8123 66.2651 56.9632 66.0053C56.0146 65.715 55.3697 65.1704 55.0285 64.3716C54.6897 63.5652 54.6947 62.592 55.0435 61.4522C55.4719 60.0523 56.018 59.0607 56.6817 58.4774C57.3478 57.8864 58.2341 57.6557 59.3407 57.7852L61.8494 58.076L61.4842 59.2694L59.1951 58.9579C58.558 58.8801 58.0476 58.9623 57.6639 59.2046C57.2826 59.4393 56.9653 59.8609 56.7121 60.4695C57.3425 59.968 58.1013 59.853 58.9887 60.1246ZM57.242 64.8482C57.7239 64.9957 58.1553 64.9394 58.536 64.6795C58.9267 64.4142 59.2064 64.0062 59.3749 63.4554C59.5388 62.9199 59.5307 62.4405 59.3507 62.0173C59.1806 61.5888 58.8585 61.302 58.3842 61.1568C57.9099 61.0117 57.4732 61.0579 57.0742 61.2956C56.6776 61.5256 56.395 61.916 56.2264 62.4668C56.0532 63.0328 56.0542 63.5351 56.2296 63.9737C56.4149 64.4069 56.7524 64.6984 57.242 64.8482ZM65.7537 61.994C66.4804 62.2164 67.0093 62.6753 67.3403 63.3706C67.679 64.0682 67.702 64.8952 67.4094 65.8514C67.1167 66.8076 66.631 67.4789 65.9523 67.8651C65.2812 68.2538 64.5784 68.3357 63.8441 68.111C63.4386 67.9869 63.1051 67.8054 62.8436 67.5664C62.5921 67.3221 62.4288 67.063 62.3537 66.789L61.4828 69.6347L60.1747 69.2344L62.6363 61.1906L63.8985 61.5769L63.6668 62.3342C64.2165 61.8499 64.9122 61.7365 65.7537 61.994ZM63.9807 66.8853C64.4397 67.0258 64.8596 66.966 65.2403 66.7061C65.631 66.4408 65.9142 66.0213 66.0898 65.4475C66.263 64.8815 66.2619 64.3792 66.0866 63.9407C65.9189 63.5045 65.6055 63.2162 65.1465 63.0757C64.6799 62.9329 64.2524 62.9903 63.864 63.2479C63.478 63.4979 63.1971 63.9098 63.0216 64.4835L63.0075 64.5294C62.8319 65.1031 62.833 65.6054 63.0107 66.0363C63.1907 66.4595 63.5141 66.7425 63.9807 66.8853ZM72.1477 66.2598C72.2484 65.9309 72.2185 65.6457 72.0582 65.4042C71.9078 65.1574 71.6605 64.9813 71.3163 64.876C70.6967 64.6863 70.2413 64.7938 69.9502 65.1983L68.7109 64.8191C68.9572 64.3423 69.341 64.0038 69.8625 63.8036C70.3938 63.5981 71.0038 63.6007 71.6923 63.8114C72.419 64.0338 72.9392 64.398 73.2529 64.9039C73.5742 65.4122 73.6319 66.0029 73.4259 66.6761L72.246 70.5316L71.0297 70.1594L71.2333 69.4938C70.6411 69.8982 69.9548 69.981 69.1745 69.7422C68.5931 69.5643 68.1577 69.2512 67.8682 68.8029C67.5887 68.3492 67.5344 67.8432 67.7053 67.2847C67.8833 66.7034 68.2279 66.3152 68.7393 66.1203C69.2607 65.9202 69.8886 65.9324 70.623 66.1572L72.0459 66.5926L72.1477 66.2598ZM69.788 68.7629C70.1934 68.887 70.5728 68.8776 70.926 68.7347C71.2816 68.5841 71.518 68.3176 71.635 67.9352L71.7439 67.5794L70.4128 67.1721C70.0686 67.0667 69.7709 67.0551 69.5199 67.1373C69.2789 67.2141 69.1186 67.3826 69.039 67.6427C68.9594 67.9028 68.9891 68.1336 69.1283 68.3351C69.2697 68.529 69.4896 68.6716 69.788 68.7629ZM72.9265 70.765L73.2777 69.6175L73.4613 69.6737C73.7826 69.772 74.0352 69.7531 74.2191 69.6169C74.4129 69.4755 74.5981 69.1849 74.7744 68.7453L76.1358 65.3218L80.4389 66.6387L78.648 72.4908L77.3399 72.0904L78.7796 67.3858L76.9322 66.8205L75.9856 69.2163C75.6786 70.0008 75.3094 70.5237 74.8781 70.7849C74.4568 71.0408 73.9248 71.0705 73.2823 70.8738L72.9265 70.765ZM84.6314 70.0802C84.7321 69.7512 84.7022 69.466 84.5419 69.2245C84.3915 68.9777 84.1442 68.8016 83.8 68.6963C83.1803 68.5067 82.725 68.6141 82.4338 69.0186L81.1946 68.6394C81.4409 68.1626 81.8247 67.8241 82.3461 67.6239C82.8775 67.4184 83.4875 67.421 84.1759 67.6317C84.9027 67.8541 85.4229 68.2183 85.7366 68.7242C86.0579 69.2325 86.1156 69.8232 85.9095 70.4964L84.7297 74.3519L83.5133 73.9797L83.717 73.3142C83.1247 73.7185 82.4385 73.8013 81.6582 73.5626C81.0768 73.3846 80.6414 73.0715 80.3519 72.6232C80.0724 72.1695 80.0181 71.6635 80.189 71.1051C80.3669 70.5237 80.7116 70.1355 81.223 69.9407C81.7444 69.7405 82.3723 69.7528 83.1067 69.9775L84.5296 70.4129L84.6314 70.0802ZM82.2716 72.5832C82.6771 72.7073 83.0564 72.6979 83.4097 72.555C83.7653 72.4045 84.0017 72.138 84.1187 71.7555L84.2276 71.3998L82.8965 70.9924C82.5523 70.8871 82.2546 70.8755 82.0036 70.9576C81.7626 71.0344 81.6023 71.2029 81.5227 71.463C81.4431 71.7231 81.4728 71.9539 81.6119 72.1554C81.7534 72.3493 81.9733 72.4919 82.2716 72.5832ZM89.6144 75.8468L88.3063 75.4464L90.0972 69.5943L91.4053 69.9947L90.6608 72.4273L93.6543 70.6829L95.2034 71.157L91.8397 73.1269L93.4469 77.0196L91.8634 76.535L90.4501 73.1158L89.6144 75.8468ZM99.7565 76.1646L95.6371 74.9039L95.6301 74.9269C95.4919 75.3782 95.5226 75.7975 95.722 76.1848C95.9214 76.5721 96.2544 76.8372 96.721 76.98C97.0423 77.0783 97.3261 77.094 97.5725 77.0272C97.8288 76.9551 98.0072 76.8507 98.1075 76.7141L99.3927 77.1074C99.1651 77.523 98.7833 77.8412 98.2472 78.062C97.7188 78.2851 97.0912 78.2855 96.3645 78.0631C95.4924 77.7962 94.8755 77.3104 94.5139 76.6057C94.1546 75.8934 94.119 75.0668 94.4069 74.1259C94.6949 73.1849 95.1832 72.5187 95.8719 72.1271C96.563 71.7278 97.3255 71.6558 98.1593 71.911C98.9625 72.1568 99.5244 72.6174 99.8448 73.2927C100.165 73.968 100.191 74.7455 99.9216 75.6252L99.7565 76.1646ZM97.8142 72.9976C97.4012 72.8711 97.0271 72.8905 96.6921 73.0557C96.3647 73.2233 96.1176 73.5116 95.9506 73.9206L98.7504 74.7774C98.8662 74.3443 98.838 73.9718 98.6657 73.6597C98.5035 73.3424 98.2197 73.1216 97.8142 72.9976ZM106.983 74.7619L105.192 80.614L103.907 80.2207L105.098 76.3308L101.257 79.4096L99.9943 79.0233L101.785 73.1712L103.07 73.5645L101.876 77.4659L105.721 74.3757L106.983 74.7619ZM104.318 71.0473C104.233 71.3227 104.24 71.5756 104.336 71.806C104.433 72.0364 104.623 72.1949 104.906 72.2815C105.189 72.3682 105.435 72.3431 105.645 72.2063C105.854 72.0695 106 71.8634 106.085 71.588L107.14 71.9111C106.95 72.4802 106.625 72.883 106.168 73.1195C105.719 73.3584 105.203 73.3889 104.622 73.211C104.04 73.0331 103.626 72.7181 103.38 72.2662C103.141 71.8166 103.102 71.3026 103.262 70.7242L104.318 71.0473ZM109.37 80.7755C109.752 80.8926 110.076 80.8871 110.341 80.7591C110.614 80.6334 110.826 80.4472 110.976 80.2005L112.25 80.5903C111.999 81.1659 111.576 81.5889 110.983 81.8591C110.39 82.1294 109.73 82.1534 109.004 81.931C108.155 81.6711 107.557 81.1786 107.21 80.4533C106.865 79.7204 106.831 78.9025 107.107 77.9999C107.381 77.1048 107.862 76.4489 108.55 76.032C109.246 75.6175 110.022 75.5413 110.879 75.8035C111.621 76.0306 112.153 76.4235 112.476 76.9824C112.801 77.5336 112.914 78.1078 112.815 78.7049L111.541 78.3151C111.536 78.0293 111.455 77.7618 111.297 77.5127C111.149 77.2582 110.891 77.0748 110.524 76.9624C110.065 76.822 109.644 76.8855 109.261 77.1532C108.886 77.4231 108.611 77.8411 108.438 78.4072C108.263 78.9809 108.259 79.4859 108.426 79.9221C108.596 80.3506 108.911 80.6351 109.37 80.7755Z" fill="white"/>
</g>
<defs>
<linearGradient id="paint0_linear_201_737" x1="138.156" y1="-24.8848" x2="74.989" y2="185.3" gradientUnits="userSpaceOnUse">
<stop stop-color="#66BEBE"/>
<stop offset="1" stop-color="#65DEA3"/>
</linearGradient>
<clipPath id="clip0_201_737">
<rect width="190" height="120" fill="white"/>
</clipPath>
</defs>
</svg>
