<svg width="180" height="100" viewBox="0 0 180 100" fill="none" xmlns="http://www.w3.org/2000/svg">
<path fill-rule="evenodd" clip-rule="evenodd" d="M38.931 34.6183C28.4757 38.1811 22.8882 49.5451 26.451 60.0004L31.1815 73.8824C34.7443 84.3377 46.1083 89.9252 56.5636 86.3624L89.9396 74.9891C90.003 75.0262 90.0683 75.0614 90.1353 75.0943L98.1029 79.0119C99.5898 79.743 101.388 79.1303 102.119 77.6434L106.036 69.6758C106.069 69.6088 106.1 69.5411 106.127 69.473L139.221 58.1956C149.677 54.6328 155.264 43.2689 151.701 32.8136L146.971 18.9315C143.408 8.4762 132.044 2.88871 121.589 6.45151L38.931 34.6183Z" fill="url(#paint0_linear_163_816)"/>
<path d="M40.0385 59.8575L37.3136 51.8611L40.4032 50.8082C41.1831 50.5425 41.856 50.5329 42.4218 50.7796C42.9851 51.0187 43.3699 51.4412 43.5763 52.047C43.726 52.4862 43.7502 52.892 43.649 53.2646C43.5451 53.6296 43.37 53.9217 43.1235 54.1409C43.5156 54.1257 43.9021 54.2306 44.2831 54.4557C44.664 54.6809 44.9448 55.0585 45.1255 55.5886C45.3551 56.2625 45.2999 56.8941 44.9598 57.4833C44.617 58.0649 44.0406 58.4938 43.2303 58.7699L40.0385 59.8575ZM41.9205 55.2608L40.1826 55.853L40.9954 58.2383L42.6879 57.6616C43.1271 57.512 43.4405 57.291 43.6283 56.9988C43.8211 56.6965 43.853 56.356 43.724 55.9774C43.5975 55.6064 43.3695 55.3587 43.0398 55.2344C42.7176 55.1075 42.3445 55.1163 41.9205 55.2608ZM40.6049 52.0326L39.0601 52.559L39.8033 54.7399L41.4048 54.1941C41.8062 54.0574 42.0793 53.8544 42.2242 53.5853C42.3666 53.3086 42.3823 53.0074 42.2713 52.6818C42.1552 52.341 41.9513 52.1147 41.6596 52.0028C41.3654 51.8834 41.0138 51.8933 40.6049 52.0326ZM49.0836 55.647C49.4623 55.518 49.7216 55.324 49.8615 55.065C50.009 54.8034 50.0717 54.5285 50.0495 54.2402L51.3103 53.8106C51.4435 54.4245 51.3487 55.0146 51.0262 55.5809C50.7036 56.1472 50.1826 56.5529 49.4632 56.7981C48.6227 57.0845 47.8495 57.0353 47.1436 56.6504C46.4351 56.2579 45.9287 55.6149 45.6242 54.7214C45.3223 53.8354 45.3282 53.022 45.6421 52.2812C45.9635 51.5378 46.5482 51.0216 47.3963 50.7326C48.1308 50.4823 48.7924 50.4892 49.3811 50.7535C49.9673 51.0101 50.3949 51.4095 50.6642 51.9517L49.4034 52.3813C49.2324 52.1522 49.0099 51.9829 48.7359 51.8734C48.4669 51.7538 48.1507 51.7559 47.7872 51.8798C47.3329 52.0346 47.0288 52.3326 46.8749 52.7739C46.7285 53.2125 46.7508 53.712 46.9418 54.2724C47.1353 54.8403 47.4277 55.252 47.819 55.5074C48.2078 55.7553 48.6293 55.8018 49.0836 55.647ZM57.1654 51.2069L53.0876 52.5964L53.0954 52.6192C53.2476 53.0659 53.5179 53.3879 53.9063 53.5852C54.2947 53.7825 54.7199 53.8024 55.1818 53.645C55.4998 53.5366 55.7391 53.3832 55.8997 53.1848C56.0653 52.9763 56.1488 52.7873 56.1502 52.6177L57.4224 52.1842C57.4812 52.6544 57.3579 53.1359 57.0525 53.6287C56.7547 54.119 56.2462 54.4867 55.5268 54.7318C54.6635 55.026 53.879 54.9933 53.1733 54.6337C52.465 54.2665 51.9522 53.6172 51.6348 52.6858C51.3174 51.7544 51.3233 50.9284 51.6524 50.2077C51.979 49.4794 52.555 48.9747 53.3804 48.6934C54.1755 48.4225 54.9006 48.467 55.5557 48.8269C56.2108 49.1868 56.6867 49.8022 56.9835 50.673L57.1654 51.2069ZM53.7367 49.7764C53.3278 49.9157 53.0359 50.1504 52.861 50.4804C52.6937 50.8079 52.6621 51.1863 52.7661 51.6157L55.5376 50.6713C55.378 50.2524 55.137 49.9669 54.8147 49.8147C54.4974 49.6524 54.138 49.6396 53.7367 49.7764ZM50.8998 47.1807C50.9997 46.9776 51.1594 46.8387 51.379 46.7638C51.5986 46.689 51.8061 46.7028 52.0016 46.8052C52.2021 46.8975 52.3385 47.0496 52.4107 47.2616C52.483 47.4737 52.4692 47.6812 52.3693 47.8843C52.2745 48.0772 52.1173 48.211 51.8977 48.2859C51.6781 48.3607 51.468 48.352 51.2675 48.2597C51.0721 48.1573 50.9382 48.0001 50.8659 47.788C50.7937 47.576 50.805 47.3736 50.8998 47.1807ZM53.3079 46.3601C53.4077 46.157 53.5674 46.0181 53.787 45.9432C54.0066 45.8684 54.2142 45.8822 54.4097 45.9846C54.6101 46.0769 54.7465 46.229 54.8187 46.4411C54.891 46.6531 54.8772 46.8606 54.7774 47.0637C54.6825 47.2566 54.5253 47.3905 54.3057 47.4653C54.0861 47.5401 53.876 47.5314 53.6756 47.4392C53.4801 47.3367 53.3462 47.1795 53.274 46.9675C53.2017 46.7555 53.213 46.553 53.3079 46.3601ZM60.6726 52.8515L60.2855 51.7157L60.4672 51.6537C60.7853 51.5454 60.979 51.3822 61.0484 51.1641C61.1228 50.9359 61.1028 50.592 60.9884 50.1323L60.0879 46.5598L64.3474 45.1084L66.3214 50.9013L65.0265 51.3425L63.4396 46.6855L61.6109 47.3086L62.2461 49.8052C62.4564 50.6209 62.4632 51.2609 62.2665 51.7252C62.0747 52.1794 61.6608 52.5148 61.0247 52.7316L60.6726 52.8515ZM70.8446 42.8943L72.8186 48.6872L71.5465 49.1207L70.2343 45.2702L68.9226 50.0149L67.6732 50.4406L65.6992 44.6477L66.9713 44.2142L68.2873 48.0761L69.5952 43.3201L70.8446 42.8943ZM79.97 46.2503L77.9257 44.7157L77.2666 47.1715L75.8241 47.6631L76.8475 44.0815L73.8728 41.8625L75.3607 41.3554L77.4053 42.928L78.0414 40.4419L79.4726 39.9542L78.4721 43.566L81.4693 45.7394L79.97 46.2503ZM80.6978 40.3227C81.0369 39.5817 81.6306 39.0667 82.4787 38.7777C83.3268 38.4887 84.1076 38.5354 84.821 38.9177C85.542 39.2974 86.0561 39.9379 86.3631 40.839C86.6702 41.7401 86.6542 42.5611 86.3151 43.3021C85.9835 44.0405 85.3937 44.5542 84.5456 44.8432C83.6975 45.1323 82.9129 45.0869 82.1919 44.7072C81.4784 44.3248 80.9682 43.6831 80.6611 42.782C80.354 41.8809 80.3663 41.0611 80.6978 40.3227ZM82.8521 43.5567C83.251 43.8096 83.6852 43.856 84.1546 43.696C84.6241 43.536 84.9358 43.2354 85.0897 42.7942C85.2512 42.3504 85.2365 41.8483 85.0455 41.288C84.8546 40.7276 84.5597 40.321 84.1608 40.0681C83.7695 39.8127 83.3391 39.765 82.8696 39.925C82.4001 40.0849 82.0846 40.3868 81.9231 40.8306C81.7692 41.2719 81.7878 41.7727 81.9787 42.333C82.1697 42.8934 82.4608 43.3013 82.8521 43.5567ZM89.3851 36.4243C90.1044 36.1791 90.8018 36.2415 91.4773 36.6114C92.1602 36.9788 92.663 37.6357 92.9856 38.5823C93.3081 39.5288 93.3073 40.3574 92.9832 41.0679C92.6666 41.7758 92.1448 42.2537 91.4179 42.5014C91.0166 42.6382 90.6399 42.6862 90.288 42.6456C89.9411 42.5947 89.657 42.4803 89.4357 42.3021L90.3956 45.1191L89.1007 45.5603L86.3874 37.5979L87.6368 37.1721L87.8923 37.9218C88.0545 37.2073 88.5521 36.7081 89.3851 36.4243ZM90.8112 41.4277C91.2655 41.2729 91.5709 40.9787 91.7274 40.545C91.8889 40.1012 91.8729 39.5953 91.6793 39.0274C91.4884 38.467 91.1935 38.0604 90.7946 37.8076C90.4033 37.5521 89.9805 37.5018 89.5261 37.6567C89.0642 37.8141 88.7512 38.1109 88.5871 38.5471C88.4205 38.9758 88.4339 39.4741 88.6275 40.042L88.643 40.0874C88.8365 40.6554 89.1314 41.062 89.5277 41.3073C89.9214 41.545 90.3492 41.5851 90.8112 41.4277ZM93.6986 35.8925C94.0377 35.1516 94.6313 34.6366 95.4794 34.3475C96.3275 34.0585 97.1083 34.1052 97.8217 34.4875C98.5428 34.8672 99.0568 35.5077 99.3639 36.4088C99.6709 37.3099 99.6549 38.1309 99.3158 38.8719C98.9843 39.6103 98.3944 40.124 97.5463 40.4131C96.6982 40.7021 95.9136 40.6567 95.1926 40.277C94.4792 39.8947 93.9689 39.2529 93.6618 38.3518C93.3548 37.4507 93.367 36.6309 93.6986 35.8925ZM95.8528 39.1265C96.2517 39.3794 96.6859 39.4258 97.1554 39.2658C97.6249 39.1058 97.9366 38.8052 98.0905 38.364C98.252 37.9202 98.2372 37.4181 98.0463 36.8578C97.8553 36.2974 97.5604 35.8908 97.1615 35.6379C96.7702 35.3825 96.3398 35.3348 95.8703 35.4948C95.4008 35.6548 95.0854 35.9567 94.9239 36.4005C94.77 36.8417 94.7885 37.3425 94.9794 37.9028C95.1704 38.4632 95.4615 38.8711 95.8528 39.1265ZM103.886 31.635L105.473 36.292L107.381 35.6417L105.794 30.9847L107.089 30.5434L109.063 36.3363L101.362 38.9606L99.3881 33.1677L100.683 32.7265L102.27 37.3835L104.178 36.7332L102.591 32.0762L103.886 31.635ZM109.129 30.6345C109.468 29.8936 110.061 29.3786 110.909 29.0896C111.758 28.8006 112.538 28.8472 113.252 29.2295C113.973 29.6092 114.487 30.2497 114.794 31.1508C115.101 32.0519 115.085 32.873 114.746 33.6139C114.414 34.3524 113.824 34.8661 112.976 35.1551C112.128 35.4441 111.344 35.3987 110.623 35.019C109.909 34.6367 109.399 33.995 109.092 33.0938C108.785 32.1927 108.797 31.373 109.129 30.6345ZM111.283 33.8685C111.682 34.1214 112.116 34.1678 112.585 34.0078C113.055 33.8479 113.367 33.5473 113.52 33.106C113.682 32.6622 113.667 32.1601 113.476 31.5998C113.285 31.0394 112.99 30.6328 112.592 30.38C112.2 30.1245 111.77 30.0768 111.3 30.2368C110.831 30.3968 110.515 30.6987 110.354 31.1425C110.2 31.5837 110.218 32.0845 110.409 32.6448C110.6 33.2052 110.892 33.6131 111.283 33.8685ZM121.182 31.0785C121.56 30.9495 121.82 30.7555 121.959 30.4965C122.107 30.235 122.17 29.9601 122.148 29.6718L123.408 29.2422C123.541 29.856 123.447 30.4461 123.124 31.0125C122.802 31.5788 122.281 31.9845 121.561 32.2296C120.721 32.5161 119.947 32.4668 119.242 32.0819C118.533 31.6895 118.027 31.0465 117.722 30.1529C117.42 29.267 117.426 28.4536 117.74 27.7127C118.061 26.9693 118.646 26.4531 119.494 26.1641C120.229 25.9138 120.89 25.9208 121.479 26.185C122.065 26.4417 122.493 26.8411 122.762 27.3832L121.501 27.8129C121.33 27.5838 121.108 27.4145 120.834 27.305C120.565 27.1854 120.249 27.1875 119.885 27.3114C119.431 27.4662 119.127 27.7642 118.973 28.2054C118.827 28.6441 118.849 29.1436 119.04 29.7039C119.233 30.2719 119.526 30.6835 119.917 30.939C120.306 31.1868 120.727 31.2334 121.182 31.0785ZM41.7316 66.7604L41.3445 65.6245L46.3423 63.9215L46.7294 65.0573L44.8779 65.6882L46.4649 70.3453L45.17 70.7865L43.583 66.1295L41.7316 66.7604ZM49.2028 69.4123L47.2288 63.6194L49.8299 62.733C50.4509 62.5214 50.9719 62.5002 51.393 62.6694C51.8141 62.8387 52.0994 63.1429 52.2491 63.5821C52.3575 63.9001 52.3683 64.1922 52.2815 64.4585C52.1997 64.7145 52.0607 64.9267 51.8645 65.095C52.1882 65.0776 52.4898 65.1566 52.7693 65.3318C53.0563 65.5045 53.263 65.7763 53.3895 66.1473C53.5546 66.632 53.5084 67.0915 53.2507 67.5258C52.998 67.95 52.5536 68.2704 51.9175 68.4872L49.2028 69.4123ZM50.9147 66.0652L49.6312 66.5026L50.1344 67.9792L51.4179 67.5418C51.7056 67.4438 51.9033 67.3046 52.0109 67.1242C52.1235 66.9337 52.1398 66.7211 52.0598 66.4864C51.8946 66.0017 51.5129 65.8613 50.9147 66.0652ZM50.0115 63.7867L48.8416 64.1854L49.2983 65.5257L50.4682 65.1271C50.7181 65.0419 50.8906 64.9155 50.9856 64.7479C51.0882 64.5777 51.1034 64.3866 51.0311 64.1746C50.8815 63.7354 50.5416 63.6061 50.0115 63.7867ZM53.6858 62.205C54.025 61.4641 54.6186 60.9491 55.4667 60.6601C56.3148 60.371 57.0956 60.4177 57.809 60.8C58.53 61.1797 59.0441 61.8202 59.3512 62.7213C59.6582 63.6224 59.6422 64.4435 59.3031 65.1844C58.9715 65.9228 58.3817 66.4366 57.5336 66.7256C56.6855 67.0146 55.9009 66.9692 55.1799 66.5895C54.4665 66.2072 53.9562 65.5654 53.6491 64.6643C53.3421 63.7632 53.3543 62.9435 53.6858 62.205ZM55.8401 65.439C56.239 65.6919 56.6732 65.7383 57.1427 65.5783C57.6122 65.4184 57.9239 65.1177 58.0778 64.6765C58.2392 64.2327 58.2245 63.7306 58.0336 63.1703C57.8426 62.6099 57.5477 62.2033 57.1488 61.9505C56.7575 61.695 56.3271 61.6473 55.8576 61.8073C55.3881 61.9673 55.0726 62.2692 54.9112 62.713C54.7573 63.1542 54.7758 63.655 54.9667 64.2153C55.1577 64.7757 55.4488 65.1836 55.8401 65.439ZM64.5209 57.7268L66.4949 63.5197L65.2227 63.9532L63.9106 60.1027L62.5989 64.8474L61.3494 65.2731L59.3754 59.4802L60.6476 59.0467L61.9636 62.9086L63.2714 58.1526L64.5209 57.7268ZM65.8592 57.2708L67.4948 56.7134L70.767 60.2891L71.175 55.4594L72.7879 54.9097L74.7619 60.7026L73.5125 61.1284L72.1616 57.1642L71.7669 61.6979L70.8128 62.023L67.7356 58.6851L69.0826 62.6379L67.8332 63.0637L65.8592 57.2708ZM76.3752 53.6873L81.4184 51.9688L83.3924 57.7617L82.0976 58.2029L80.5106 53.5459L78.0571 54.3819L79.6441 59.039L78.3492 59.4802L76.3752 53.6873ZM83.4534 52.0613C83.7925 51.3203 84.3862 50.8053 85.2343 50.5163C86.0824 50.2273 86.8632 50.274 87.5766 50.6563C88.2976 51.036 88.8117 51.6764 89.1187 52.5775C89.4258 53.4787 89.4098 54.2997 89.0707 55.0407C88.7391 55.7791 88.1493 56.2928 87.3012 56.5818C86.4531 56.8708 85.6685 56.8255 84.9475 56.4457C84.234 56.0634 83.7238 55.4217 83.4167 54.5206C83.1096 53.6195 83.1219 52.7997 83.4534 52.0613ZM85.6077 55.2953C86.0066 55.5482 86.4408 55.5946 86.9102 55.4346C87.3797 55.2746 87.6914 54.974 87.8453 54.5328C88.0068 54.089 87.9921 53.5869 87.8011 53.0265C87.6102 52.4662 87.3153 52.0596 86.9164 51.8067C86.5251 51.5513 86.0947 51.5036 85.6252 51.6635C85.1557 51.8235 84.8402 52.1254 84.6787 52.5692C84.5248 53.0105 84.5434 53.5112 84.7343 54.0716C84.9253 54.632 85.2164 55.0399 85.6077 55.2953ZM92.1407 48.1629C92.8601 47.9177 93.5574 47.9801 94.2329 48.35C94.9159 48.7174 95.4186 49.3743 95.7412 50.3209C96.0637 51.2674 96.0629 52.0959 95.7388 52.8065C95.4222 53.5144 94.9005 53.9923 94.1735 54.24C93.7722 54.3767 93.3955 54.4248 93.0436 54.3841C92.6967 54.3333 92.4126 54.2188 92.1913 54.0407L93.1512 56.8576L91.8563 57.2989L89.143 49.3365L90.3925 48.9107L90.6479 49.6604C90.8101 48.9459 91.3077 48.4467 92.1407 48.1629ZM93.5668 53.1663C94.0211 53.0115 94.3265 52.7172 94.483 52.2836C94.6445 51.8398 94.6285 51.3339 94.4349 50.766C94.244 50.2056 93.9491 49.799 93.5502 49.5462C93.1589 49.2907 92.7361 49.2404 92.2817 49.3952C91.8198 49.5526 91.5068 49.8495 91.3427 50.2857C91.1761 50.7144 91.1896 51.2127 91.3831 51.7806L91.3986 51.826C91.5921 52.394 91.887 52.8006 92.2833 53.0458C92.677 53.2836 93.1048 53.3237 93.5668 53.1663ZM95.4818 48.4442L95.0947 47.3084L100.093 45.6053L100.48 46.7411L98.6281 47.3721L100.215 52.0291L98.9202 52.4703L97.3333 47.8133L95.4818 48.4442ZM104.701 43.8953C105.598 43.6236 106.424 43.6675 107.18 44.0267C107.937 44.386 108.465 45.0048 108.764 45.8832C109.063 46.7616 109.023 47.574 108.643 48.3203C108.264 49.0666 107.636 49.6058 106.761 49.938L107.457 51.9826L106.185 52.4161L105.488 50.3716C104.585 50.6458 103.755 50.6032 102.998 50.244C102.242 49.8847 101.714 49.2659 101.415 48.3875C101.115 47.5091 101.156 46.6967 101.535 45.9504C101.915 45.2041 102.546 44.6635 103.429 44.3288L102.698 42.182L103.97 41.7485L104.701 43.8953ZM105.105 49.2471L103.813 45.4533C103.325 45.6361 102.973 45.9547 102.756 46.409C102.537 46.8557 102.525 47.3669 102.721 47.9424C102.917 48.5179 103.24 48.9192 103.689 49.1465C104.136 49.3661 104.608 49.3996 105.105 49.2471ZM107.469 46.3244C107.273 45.7489 106.951 45.3514 106.505 45.1317C106.055 44.9045 105.582 44.8672 105.085 45.0198L106.377 48.8135C106.865 48.6307 107.217 48.3121 107.434 47.8578C107.651 47.4035 107.662 46.8924 107.469 46.3244ZM109.477 43.1934C109.816 42.4524 110.41 41.9374 111.258 41.6484C112.106 41.3594 112.887 41.406 113.6 41.7883C114.321 42.1681 114.835 42.8085 115.142 43.7096C115.449 44.6107 115.433 45.4318 115.094 46.1728C114.763 46.9112 114.173 47.4249 113.325 47.7139C112.477 48.0029 111.692 47.9575 110.971 47.5778C110.258 47.1955 109.747 46.5538 109.44 45.6527C109.133 44.7515 109.146 43.9318 109.477 43.1934ZM111.631 46.4274C112.03 46.6802 112.464 46.7266 112.934 46.5667C113.403 46.4067 113.715 46.1061 113.869 45.6648C114.03 45.221 114.016 44.719 113.825 44.1586C113.634 43.5982 113.339 43.1916 112.94 42.9388C112.549 42.6833 112.118 42.6356 111.649 42.7956C111.179 42.9556 110.864 43.2575 110.702 43.7013C110.549 44.1425 110.567 44.6433 110.758 45.2037C110.949 45.764 111.24 46.1719 111.631 46.4274ZM116.446 46.5234L116.059 45.3876L116.241 45.3256C116.559 45.2172 116.753 45.054 116.822 44.836C116.897 44.6078 116.877 44.2639 116.762 43.8042L115.862 40.2317L120.121 38.7802L122.095 44.5731L120.8 45.0144L119.213 40.3573L117.385 40.9805L118.02 43.4771C118.23 44.2928 118.237 44.9328 118.04 45.3971C117.848 45.8512 117.435 46.1867 116.798 46.4034L116.446 46.5234ZM126.618 36.5662L128.592 42.3591L127.32 42.7926L126.008 38.942L124.696 43.6867L123.447 44.1125L121.473 38.3196L122.745 37.8861L124.061 41.748L125.369 36.992L126.618 36.5662ZM128.651 36.6596C128.99 35.9186 129.584 35.4036 130.432 35.1146C131.28 34.8256 132.061 34.8722 132.774 35.2546C133.495 35.6343 134.009 36.2747 134.316 37.1758C134.623 38.0769 134.607 38.898 134.268 39.639C133.937 40.3774 133.347 40.8911 132.499 41.1801C131.651 41.4691 130.866 41.4237 130.145 41.044C129.432 40.6617 128.921 40.02 128.614 39.1189C128.307 38.2178 128.319 37.398 128.651 36.6596ZM130.805 39.8936C131.204 40.1464 131.638 40.1929 132.108 40.0329C132.577 39.8729 132.889 39.5723 133.043 39.1311C133.204 38.6873 133.19 38.1852 132.999 37.6248C132.808 37.0645 132.513 36.6579 132.114 36.405C131.723 36.1496 131.292 36.1018 130.823 36.2618C130.353 36.4218 130.038 36.7237 129.876 37.1675C129.722 37.6087 129.741 38.1095 129.932 38.6699C130.123 39.2302 130.414 39.6381 130.805 39.8936ZM137.478 32.701C137.374 32.3981 137.177 32.1907 136.885 32.0788C136.601 31.9643 136.277 31.969 135.914 32.0929C135.172 32.3457 134.829 32.8515 134.884 33.6101L133.623 34.0397C133.48 33.3702 133.576 32.746 133.911 32.1669C134.246 31.5879 134.788 31.1706 135.538 30.9152C136.303 30.6546 136.977 30.6488 137.56 30.8979C138.152 31.1444 138.552 31.5743 138.761 32.1877C138.838 32.4149 138.88 32.6372 138.886 32.8548C138.893 33.0723 138.885 33.2482 138.863 33.3824C138.849 33.514 138.787 33.6789 138.677 33.877C138.572 34.0649 138.497 34.1919 138.452 34.2579C138.404 34.3164 138.308 34.4423 138.162 34.6356C138.145 34.6584 138.107 34.7093 138.049 34.7881C137.992 34.8669 137.954 34.9178 137.937 34.9407C137.919 34.9635 137.885 35.0131 137.835 35.0893C137.79 35.1554 137.76 35.2037 137.745 35.2341C137.735 35.2544 137.716 35.2988 137.689 35.3673C137.659 35.4282 137.642 35.4764 137.637 35.5119C137.632 35.5473 137.623 35.5967 137.611 35.66C137.599 35.7234 137.594 35.7841 137.597 35.8423C137.605 35.8903 137.616 35.9459 137.629 36.009C137.642 36.0722 137.66 36.1379 137.683 36.206L137.761 36.4332L136.534 36.8512L136.418 36.5105C136.307 36.1848 136.264 35.8866 136.29 35.6157C136.321 35.3347 136.384 35.1104 136.479 34.9428C136.572 34.7676 136.73 34.5363 136.953 34.249C137.121 34.0227 137.241 33.8549 137.314 33.7456C137.391 33.6262 137.452 33.4702 137.497 33.2777C137.548 33.0825 137.542 32.8903 137.478 32.701ZM136.993 38.0511C137.106 37.8353 137.279 37.6874 137.514 37.6074C137.749 37.5274 137.973 37.5399 138.186 37.6447C138.407 37.7469 138.557 37.9154 138.637 38.1502C138.717 38.3849 138.702 38.614 138.592 38.8373C138.488 39.0506 138.318 39.1972 138.083 39.2771C137.848 39.3571 137.621 39.346 137.4 39.2438C137.184 39.1314 137.036 38.9578 136.956 38.723C136.876 38.4883 136.889 38.2643 136.993 38.0511Z" fill="#0F1414"/>
<defs>
<linearGradient id="paint0_linear_163_816" x1="78.9281" y1="8.86408" x2="98.796" y2="67.168" gradientUnits="userSpaceOnUse">
<stop stop-color="#F9F9F9"/>
<stop offset="1" stop-color="#F4F4F4"/>
</linearGradient>
</defs>
</svg>
