<svg width="190" height="120" viewBox="0 0 190 120" fill="none" xmlns="http://www.w3.org/2000/svg">
<g clip-path="url(#clip0_201_846)">
<path fill-rule="evenodd" clip-rule="evenodd" d="M138.682 42.0199C146.087 44.2453 150.286 52.0521 148.06 59.4569L140.677 84.0256C138.451 91.4304 130.644 95.6292 123.24 93.4038L94.8246 84.8642C93.5546 84.4825 92.185 84.621 91.0171 85.2491L86.3317 87.7691C84.3861 88.8155 81.9606 88.0866 80.9142 86.141L78.3942 81.4555C77.766 80.2877 76.6997 79.4171 75.4297 79.0355L52.7765 72.2275C45.3717 70.0021 41.1729 62.1953 43.3983 54.7904L50.782 30.2218C53.0074 22.817 60.8142 18.6182 68.219 20.8436L138.682 42.0199Z" fill="url(#paint0_linear_201_846)"/>
<path d="M65.471 29.7848L72.0001 31.7828L69.5279 39.861L68.1624 39.4432L70.2588 32.5928L66.4607 31.4304L64.3643 38.2808L62.9988 37.863L65.471 29.7848ZM73.0569 35.3189C73.7656 34.9167 74.5484 34.8467 75.4052 35.1089C76.2619 35.3711 76.8676 35.866 77.2222 36.5936C77.5845 37.3235 77.6263 38.1437 77.3477 39.054C77.0692 39.9643 76.5755 40.6206 75.8668 41.0228C75.1657 41.4274 74.3868 41.4986 73.53 41.2364C72.6732 40.9742 72.0637 40.4781 71.7015 39.7481C71.3469 39.0205 71.3088 38.2015 71.5874 37.2912C71.866 36.3809 72.3558 35.7234 73.0569 35.3189ZM72.9102 39.2019C73.0856 39.6404 73.4104 39.9323 73.8847 40.0774C74.359 40.2226 74.7876 40.1613 75.1707 39.8937C75.5614 39.6284 75.8434 39.2128 76.0167 38.6467C76.1899 38.0806 76.1888 37.5783 76.0135 37.1398C75.8458 36.7036 75.5248 36.4129 75.0505 36.2678C74.5762 36.1227 74.1437 36.1827 73.753 36.448C73.3699 36.7156 73.0917 37.1325 72.9185 37.6985C72.7453 38.2646 72.7425 38.7658 72.9102 39.2019ZM83.7823 42.9683L82.9817 45.5845L81.7195 45.1983L82.1689 43.7295L78.038 42.4653L77.5886 43.9341L76.3263 43.5478L77.127 40.9316L77.5974 41.0756C78.0002 40.9897 78.4043 40.4482 78.8098 39.4513L79.9093 36.6378L84.3729 38.0038L82.9332 42.7084L83.7823 42.9683ZM80.0351 39.8764C79.69 40.758 79.3441 41.3005 78.9974 41.504L81.6251 42.3081L82.7136 38.751L80.717 38.14L80.0351 39.8764ZM87.1295 44.1307C87.512 44.2477 87.8358 44.2422 88.1009 44.1142C88.3736 43.9885 88.5853 43.8023 88.7361 43.5556L90.0098 43.9454C89.7584 44.521 89.3361 44.944 88.7431 45.2143C88.15 45.4846 87.4901 45.5085 86.7634 45.2861C85.9143 45.0263 85.3162 44.5337 84.9693 43.8084C84.6247 43.0755 84.5905 42.2577 84.8667 41.355C85.1406 40.46 85.6216 39.804 86.3097 39.3871C87.0055 38.9726 87.7818 38.8964 88.6386 39.1586C89.3806 39.3857 89.9129 39.7787 90.2355 40.3375C90.5604 40.8887 90.6733 41.4629 90.5742 42.0601L89.3005 41.6703C89.296 41.3844 89.2147 41.1169 89.0567 40.8678C88.9087 40.6133 88.6511 40.4299 88.2839 40.3176C87.8249 40.1771 87.4039 40.2407 87.0208 40.5083C86.6454 40.7782 86.371 41.1963 86.1978 41.7623C86.0222 42.3361 86.0183 42.841 86.186 43.2772C86.356 43.7057 86.6705 43.9902 87.1295 44.1307ZM91.6803 46.6402L90.3722 46.2399L92.1631 40.3878L93.4712 40.7881L92.7267 43.2208L95.7202 41.4764L97.2693 41.9504L93.9056 43.9204L95.5129 47.8131L93.9293 47.3285L92.5161 43.9092L91.6803 46.6402ZM100.722 45.1655C100.823 44.8366 100.793 44.5514 100.632 44.3099C100.482 44.0631 100.235 43.887 99.8906 43.7817C99.2709 43.592 98.8156 43.6995 98.5244 44.104L97.2852 43.7247C97.5315 43.248 97.9153 42.9095 98.4367 42.7093C98.9681 42.5038 99.5781 42.5064 100.267 42.7171C100.993 42.9395 101.513 43.3036 101.827 43.8096C102.149 44.3179 102.206 44.9086 102 45.5818L100.82 49.4373L99.6039 49.0651L99.8076 48.3995C99.2154 48.8039 98.5291 48.8867 97.7488 48.6479C97.1674 48.47 96.732 48.1569 96.4425 47.7085C96.163 47.2549 96.1087 46.7489 96.2796 46.1904C96.4575 45.609 96.8022 45.2209 97.3136 45.026C97.835 44.8259 98.4629 44.8381 99.1973 45.0629L100.62 45.4983L100.722 45.1655ZM98.3622 47.6686C98.7677 47.7926 99.147 47.7832 99.5003 47.6404C99.8559 47.4898 100.092 47.2233 100.209 46.8408L100.318 46.4851L98.9871 46.0778C98.6429 45.9724 98.3452 45.9608 98.0942 46.043C97.8532 46.1198 97.6929 46.2883 97.6133 46.5484C97.5337 46.8085 97.5634 47.0393 97.7025 47.2408C97.844 47.4347 98.0639 47.5773 98.3622 47.6686ZM108.13 45.274L107.371 47.7525L110.172 45.899L111.675 46.359L108.561 48.4177L109.919 52.2217L108.381 51.7511L107.181 48.3721L106.339 51.1261L105.054 50.7328L105.896 47.9788L103.011 50.1077L101.485 49.6407L104.717 47.2792L103.299 43.7956L104.802 44.2556L106.086 47.3592L106.844 44.8807L108.13 45.274ZM116.256 51.375L112.136 50.1144L112.129 50.1373C111.991 50.5887 112.022 51.008 112.221 51.3953C112.421 51.7826 112.754 52.0476 113.22 52.1904C113.542 52.2888 113.826 52.3045 114.072 52.2377C114.328 52.1655 114.507 52.0611 114.607 51.9245L115.892 52.3178C115.665 52.7334 115.283 53.0516 114.747 53.2724C114.218 53.4956 113.591 53.4959 112.864 53.2735C111.992 53.0066 111.375 52.5209 111.013 51.8162C110.654 51.1039 110.618 50.2773 110.906 49.3363C111.194 48.3954 111.683 47.7292 112.371 47.3376C113.062 46.9383 113.825 46.8663 114.659 47.1214C115.462 47.3673 116.024 47.8278 116.344 48.5031C116.665 49.1785 116.69 49.956 116.421 50.8357L116.256 51.375ZM114.314 48.208C113.901 48.0816 113.527 48.101 113.191 48.2662C112.864 48.4337 112.617 48.722 112.45 49.1311L115.25 49.9879C115.366 49.5548 115.337 49.1823 115.165 48.8702C115.003 48.5528 114.719 48.3321 114.314 48.208ZM118.285 48.3817L119.937 48.8873L120.497 53.7018L123.655 50.0251L125.284 50.5237L123.493 56.3758L122.231 55.9895L123.457 51.9849L120.482 55.4293L119.519 55.1344L118.978 50.6268L117.756 54.62L116.494 54.2338L118.285 48.3817ZM126.704 56.6305C126.648 56.8141 126.549 57.0013 126.407 57.192L125.101 58.8756L124.102 58.5701L125.308 56.9687C124.99 56.721 124.887 56.4174 124.997 56.0578C125.069 55.8207 125.209 55.6502 125.417 55.5464C125.624 55.4425 125.85 55.4281 126.095 55.503C126.34 55.5779 126.521 55.7253 126.638 55.9451C126.757 56.1572 126.779 56.3857 126.704 56.6305ZM60.6577 49.6958L59.3496 49.2955L61.1405 43.4434L62.4486 43.8437L61.7041 46.2764L64.6976 44.532L66.2467 45.0061L62.883 46.976L64.4902 50.8687L62.9067 50.3841L61.4934 46.9649L60.6577 49.6958ZM69.6994 48.2212C69.8001 47.8922 69.7702 47.607 69.6099 47.3655C69.4595 47.1187 69.2122 46.9426 68.868 46.8373C68.2483 46.6477 67.7929 46.7551 67.5018 47.1596L66.2626 46.7804C66.5089 46.3036 66.8927 45.9651 67.4141 45.7649C67.9455 45.5594 68.5555 45.562 69.2439 45.7727C69.9707 45.9951 70.4909 46.3593 70.8046 46.8652C71.1259 47.3735 71.1835 47.9642 70.9775 48.6374L69.7976 52.4929L68.5813 52.1207L68.785 51.4551C68.1927 51.8595 67.5065 51.9423 66.7262 51.7036C66.1448 51.5256 65.7094 51.2125 65.4199 50.7642C65.1404 50.3105 65.0861 49.8045 65.257 49.2461C65.4349 48.6647 65.7796 48.2765 66.291 48.0817C66.8124 47.8815 67.4403 47.8938 68.1747 48.1185L69.5976 48.5539L69.6994 48.2212ZM67.3396 50.7242C67.7451 50.8483 68.1244 50.8389 68.4777 50.696C68.8333 50.5455 69.0696 50.279 69.1867 49.8965L69.2956 49.5408L67.9645 49.1334C67.6202 49.0281 67.3226 49.0165 67.0716 49.0986C66.8306 49.1754 66.6702 49.3439 66.5906 49.604C66.5111 49.8641 66.5408 50.0949 66.6799 50.2964C66.8214 50.4903 67.0413 50.6329 67.3396 50.7242ZM72.413 53.2933L71.1049 52.8929L72.8958 47.0408L74.2039 47.4412L73.4594 49.8738L76.4529 48.1294L78.002 48.6035L74.6383 50.5734L76.2455 54.4661L74.662 53.9815L73.2487 50.5623L72.413 53.2933ZM80.9868 49.5169L86.0815 51.076L84.2907 56.9281L82.9825 56.5278L84.4223 51.8232L81.9437 51.0647L80.504 55.7693L79.1959 55.369L80.9868 49.5169ZM90.5533 52.2939C91.28 52.5163 91.8089 52.9752 92.1399 53.6705C92.4786 54.3681 92.5016 55.195 92.209 56.1513C91.9164 57.1075 91.4307 57.7787 90.7519 58.165C90.0808 58.5537 89.3781 58.6356 88.6437 58.4109C88.2382 58.2868 87.9048 58.1053 87.6433 57.8663C87.3917 57.622 87.2284 57.3628 87.1533 57.0889L86.2824 59.9346L84.9743 59.5343L87.4359 51.4905L88.6981 51.8768L88.4664 52.6341C89.0162 52.1498 89.7118 52.0364 90.5533 52.2939ZM88.7803 57.1852C89.2393 57.3257 89.6592 57.2659 90.0399 57.0059C90.4307 56.7407 90.7138 56.3212 90.8894 55.7474C91.0626 55.1813 91.0616 54.6791 90.8862 54.2405C90.7185 53.8044 90.4052 53.5161 89.9462 53.3756C89.4795 53.2328 89.052 53.2902 88.6636 53.5478C88.2776 53.7978 87.9968 54.2097 87.8212 54.7834L87.8071 54.8293C87.6316 55.403 87.6326 55.9053 87.8103 56.3362C87.9904 56.7594 88.3137 57.0424 88.7803 57.1852ZM96.9473 56.5597C97.048 56.2308 97.0182 55.9456 96.8578 55.7041C96.7075 55.4573 96.4602 55.2812 96.1159 55.1758C95.4963 54.9862 95.0409 55.0937 94.7498 55.4982L93.5105 55.1189C93.7568 54.6421 94.1407 54.3037 94.6621 54.1035C95.1935 53.898 95.8034 53.9006 96.4919 54.1113C97.2186 54.3337 97.7388 54.6978 98.0525 55.2038C98.3738 55.7121 98.4315 56.3028 98.2255 56.976L97.0456 60.8315L95.8293 60.4592L96.033 59.7937C95.4407 60.1981 94.7544 60.2809 93.9741 60.0421C93.3928 59.8642 92.9573 59.5511 92.6679 59.1027C92.3884 58.6491 92.3341 58.1431 92.505 57.5846C92.6829 57.0032 93.0276 56.6151 93.539 56.4202C94.0604 56.22 94.6883 56.2323 95.4226 56.4571L96.8455 56.8925L96.9473 56.5597ZM94.5876 59.0628C94.993 59.1868 95.3724 59.1774 95.7257 59.0346C96.0813 58.884 96.3176 58.6175 96.4347 58.235L96.5435 57.8793L95.2124 57.472C94.8682 57.3666 94.5706 57.355 94.3195 57.4372C94.0785 57.514 93.9182 57.6825 93.8386 57.9426C93.759 58.2026 93.7888 58.4335 93.9279 58.635C94.0693 58.8289 94.2892 58.9715 94.5876 59.0628ZM98.3528 61.2315L100.144 55.3794L102.771 56.1836C103.399 56.3755 103.834 56.6634 104.076 57.0471C104.318 57.4308 104.371 57.8445 104.236 58.2882C104.137 58.6095 103.975 58.8526 103.749 59.0176C103.533 59.1774 103.296 59.268 103.038 59.2896C103.311 59.465 103.509 59.7056 103.633 60.0112C103.765 60.3193 103.773 60.6607 103.658 61.0355C103.509 61.5251 103.202 61.8705 102.739 62.0718C102.286 62.2678 101.738 62.2674 101.095 62.0708L98.3528 61.2315ZM101.7 59.5201L100.404 59.1233L99.947 60.615L101.244 61.0118C101.534 61.1008 101.776 61.1037 101.969 61.0204C102.172 60.9319 102.309 60.7691 102.382 60.5319C102.532 60.0423 102.304 59.7051 101.7 59.5201ZM102.302 57.1442L101.12 56.7825L100.706 58.1365L101.887 58.4982C102.14 58.5754 102.354 58.5739 102.529 58.4937C102.712 58.4158 102.836 58.2697 102.901 58.0555C103.037 57.6118 102.837 57.308 102.302 57.1442ZM111.163 58.7517L109.372 64.6038L108.087 64.2105L109.278 60.3206L105.437 63.3994L104.174 63.0131L105.965 57.161L107.251 57.5543L106.057 61.4557L109.901 58.3654L111.163 58.7517ZM110.098 64.8509L110.449 63.7034L110.633 63.7596C110.954 63.8579 111.206 63.839 111.39 63.7029C111.584 63.5614 111.769 63.2708 111.946 62.8312L113.307 59.4077L117.61 60.7246L115.819 66.5767L114.511 66.1764L115.951 61.4717L114.103 60.9064L113.157 63.3023C112.85 64.0868 112.481 64.6096 112.049 64.8708C111.628 65.1267 111.096 65.1564 110.454 64.9597L110.098 64.8509ZM120.272 61.5393L119.728 63.3179L120.898 63.676C121.549 63.875 122.01 64.2255 122.283 64.7273C122.559 65.2216 122.606 65.7632 122.426 66.3523C122.244 66.9489 121.894 67.3815 121.377 67.6499C120.869 67.913 120.294 67.9462 119.652 67.7496L117.185 66.9946L118.976 61.1425L120.272 61.5393ZM120.401 64.7285L119.391 64.4194L118.815 66.3013L119.825 66.6103C120.138 66.7063 120.411 66.6894 120.643 66.5597C120.883 66.4322 121.045 66.2308 121.13 65.9554C121.214 65.6801 121.19 65.4301 121.058 65.2056C120.933 64.9835 120.714 64.8244 120.401 64.7285ZM124.09 69.1079L122.782 68.7076L124.573 62.8555L125.881 63.2558L125.193 65.5048L127.706 66.2738L128.394 64.0248L129.702 64.4251L127.911 70.2772L126.603 69.8769L127.351 67.4328L124.838 66.6638L124.09 69.1079ZM131.297 65.6912C132.006 65.289 132.789 65.219 133.645 65.4812C134.502 65.7434 135.108 66.2383 135.463 66.9659C135.825 67.6959 135.867 68.516 135.588 69.4264C135.309 70.3367 134.816 70.993 134.107 71.3952C133.406 71.7997 132.627 71.8709 131.77 71.6087C130.914 71.3465 130.304 70.8504 129.942 70.1205C129.587 69.3929 129.549 68.5739 129.828 67.6636C130.106 66.7532 130.596 66.0958 131.297 65.6912ZM131.151 69.5743C131.326 70.0128 131.651 70.3046 132.125 70.4498C132.599 70.5949 133.028 70.5337 133.411 70.2661C133.802 70.0008 134.084 69.5851 134.257 69.019C134.43 68.4529 134.429 67.9506 134.254 67.5121C134.086 67.076 133.765 66.7853 133.291 66.6402C132.817 66.495 132.384 66.5551 131.993 66.8204C131.61 67.088 131.332 67.5048 131.159 68.0709C130.986 68.637 130.983 69.1381 131.151 69.5743ZM58.6635 60.518C59.046 60.6351 59.3698 60.6296 59.6348 60.5015C59.9076 60.3758 60.1193 60.1897 60.2701 59.943L61.5438 60.3328C61.2923 60.9084 60.8701 61.3313 60.277 61.6016C59.684 61.8719 59.0241 61.8958 58.2974 61.6735C57.4482 61.4136 56.8502 60.921 56.5032 60.1958C56.1586 59.4628 56.1244 58.645 56.4007 57.7423C56.6746 56.8473 57.1556 56.1914 57.8437 55.7745C58.5395 55.3599 59.3158 55.2838 60.1725 55.546C60.9146 55.773 61.4469 56.166 61.7694 56.7249C62.0944 57.2761 62.2073 57.8503 62.1082 58.4474L60.8345 58.0576C60.83 57.7718 60.7487 57.5043 60.5907 57.2551C60.4427 57.0007 60.1851 56.8173 59.8179 56.7049C59.3589 56.5644 58.9378 56.628 58.5548 56.8956C58.1793 57.1656 57.905 57.5836 57.7318 58.1497C57.5562 58.7234 57.5522 59.2284 57.7199 59.6645C57.89 60.0931 58.2045 60.3776 58.6635 60.518ZM68.293 63.3269L67.4924 65.9431L66.2302 65.5568L66.6796 64.0881L62.5487 62.8239L62.0993 64.2927L60.837 63.9064L61.6377 61.2901L62.1081 61.4341C62.5109 61.3482 62.915 60.8068 63.3205 59.8098L64.42 56.9964L68.8836 58.3624L67.4439 63.067L68.293 63.3269ZM64.5458 60.2349C64.2007 61.1166 63.8548 61.6591 63.5081 61.8625L66.1358 62.6667L67.2244 59.1095L65.2278 58.4985L64.5458 60.2349ZM74.7235 63.7637L70.6041 62.5031L70.5971 62.526C70.4589 62.9774 70.4896 63.3967 70.689 63.784C70.8884 64.1713 71.2214 64.4363 71.688 64.5791C72.0093 64.6775 72.2931 64.6932 72.5395 64.6264C72.7958 64.5542 72.9741 64.4498 73.0745 64.3132L74.3597 64.7065C74.1321 65.1221 73.7503 65.4403 73.2142 65.6611C72.6858 65.8843 72.0582 65.8846 71.3315 65.6622C70.4594 65.3953 69.8425 64.9096 69.4809 64.2049C69.1216 63.4926 69.086 62.666 69.3739 61.725C69.6619 60.7841 70.1502 60.1178 70.8389 59.7263C71.53 59.327 72.2925 59.255 73.1263 59.5101C73.9295 59.756 74.4914 60.2165 74.8118 60.8918C75.1322 61.5672 75.1578 62.3447 74.8885 63.2244L74.7235 63.7637ZM72.7812 60.5967C72.3682 60.4703 71.9941 60.4897 71.6591 60.6549C71.3317 60.8224 71.0846 61.1107 70.9176 61.5198L73.7174 62.3766C73.8332 61.9435 73.805 61.5709 73.6327 61.2589C73.4705 60.9415 73.1867 60.7208 72.7812 60.5967ZM74.2899 66.4421L74.641 65.2946L74.8246 65.3508C75.1459 65.4491 75.3985 65.4302 75.5824 65.294C75.7763 65.1526 75.9614 64.862 76.1378 64.4224L77.4992 60.9989L81.8022 62.3158L80.0113 68.1679L78.7032 67.7676L80.1429 63.0629L78.2955 62.4976L77.3489 64.8935C77.0419 65.678 76.6728 66.2008 76.2414 66.462C75.8201 66.7179 75.2882 66.7476 74.6456 66.5509L74.2899 66.4421ZM85.9947 65.7573C86.0954 65.4283 86.0655 65.1431 85.9052 64.9016C85.7548 64.6548 85.5075 64.4787 85.1633 64.3734C84.5436 64.1838 84.0883 64.2912 83.7971 64.6957L82.5579 64.3165C82.8042 63.8397 83.188 63.5012 83.7094 63.301C84.2408 63.0955 84.8508 63.0981 85.5393 63.3088C86.266 63.5312 86.7862 63.8954 87.0999 64.4013C87.4212 64.9096 87.4789 65.5003 87.2729 66.1735L86.093 70.029L84.8767 69.6568L85.0803 68.9913C84.4881 69.3957 83.8018 69.4785 83.0215 69.2397C82.4401 69.0618 82.0047 68.7486 81.7152 68.3003C81.4357 67.8466 81.3814 67.3406 81.5523 66.7822C81.7303 66.2008 82.0749 65.8127 82.5863 65.6178C83.1077 65.4176 83.7356 65.4299 84.47 65.6546L85.8929 66.09L85.9947 65.7573ZM83.6349 68.2603C84.0404 68.3844 84.4197 68.375 84.773 68.2321C85.1286 68.0816 85.365 67.8151 85.482 67.4326L85.5909 67.0769L84.2598 66.6695C83.9156 66.5642 83.6179 66.5526 83.3669 66.6347C83.1259 66.7115 82.9656 66.88 82.886 67.1401C82.8064 67.4002 82.8361 67.631 82.9753 67.8325C83.1167 68.0264 83.3366 68.169 83.6349 68.2603ZM88.2801 65.5531L88.6312 64.4056L93.6801 65.9507L93.329 67.0982L91.4586 66.5258L90.0188 71.2304L88.7107 70.8301L90.1505 66.1255L88.2801 65.5531ZM95.8723 66.6216L95.328 68.4002L96.4985 68.7584C97.1487 68.9573 97.6103 69.3078 97.8834 69.8097C98.1589 70.3039 98.2064 70.8455 98.0262 71.4346C97.8436 72.0312 97.4937 72.4638 96.9765 72.7322C96.4693 72.9953 95.8944 73.0285 95.2519 72.8319L92.7848 72.0769L94.5757 66.2248L95.8723 66.6216ZM96.0007 69.8108L94.9909 69.5017L94.415 71.3836L95.4248 71.6926C95.7384 71.7886 96.0113 71.7717 96.2435 71.642C96.4832 71.5146 96.6453 71.3131 96.7295 71.0378C96.8138 70.7624 96.7899 70.5124 96.6578 70.2879C96.5334 70.0658 96.3143 69.9067 96.0007 69.8108Z" fill="white"/>
</g>
<defs>
<linearGradient id="paint0_linear_201_846" x1="134.037" y1="-18.1081" x2="74.3383" y2="180.534" gradientUnits="userSpaceOnUse">
<stop stop-color="#66BEBE"/>
<stop offset="1" stop-color="#65DEA3"/>
</linearGradient>
<clipPath id="clip0_201_846">
<rect width="190" height="120" fill="white"/>
</clipPath>
</defs>
</svg>
