<svg width="190" height="120" viewBox="0 0 190 120" fill="none" xmlns="http://www.w3.org/2000/svg">
<path fill-rule="evenodd" clip-rule="evenodd" d="M159.025 43.5263C166.429 45.7516 170.628 53.5585 168.403 60.9633L159.337 91.1297C157.111 98.5345 149.305 102.733 141.9 100.508L87.4816 84.1535C86.4656 83.8482 85.3699 83.959 84.4356 84.4615L77.1429 88.3837C75.1973 89.4301 72.7719 88.7012 71.7254 86.7556L67.8032 79.4629C67.3007 78.5286 66.4476 77.8322 65.4317 77.5269L33.7673 68.0107C26.3625 65.7854 22.1638 57.9785 24.3891 50.5737L33.4551 20.4073C35.6805 13.0025 43.4873 8.80369 50.8921 11.0291L159.025 43.5263Z" fill="url(#paint0_linear_163_817)"/>
<path d="M51.1057 37.6568L50.2559 40.4337L48.9478 40.0334L49.4183 38.4958L43.8645 36.7962L43.394 38.3338L42.0859 37.9335L42.9357 35.1566L43.5668 35.3497C43.9007 35.2428 44.1971 34.9988 44.4559 34.6179C44.717 34.2293 44.9961 33.6454 45.2931 32.8662L46.8071 28.862L52.2117 30.5159L50.1188 37.3548L51.1057 37.6568ZM46.6012 33.2665C46.3066 34.038 46.0475 34.6113 45.8239 34.9863C45.6104 35.356 45.3591 35.6305 45.07 35.8097L48.7534 36.9369L50.4705 31.3258L47.6592 30.4655L46.6012 33.2665ZM53.6309 34.1628C54.3397 33.7606 55.1224 33.6906 55.9792 33.9528C56.836 34.215 57.4417 34.7099 57.7963 35.4375C58.1585 36.1675 58.2003 36.9876 57.9218 37.898C57.6432 38.8083 57.1495 39.4646 56.4408 39.8668C55.7397 40.2713 54.9608 40.3425 54.104 40.0803C53.2472 39.8181 52.6377 39.322 52.2755 38.5921C51.9209 37.8645 51.8829 37.0455 52.1614 36.1352C52.44 35.2248 52.9299 34.5674 53.6309 34.1628ZM53.4842 38.0459C53.6596 38.4844 53.9844 38.7762 54.4587 38.9214C54.933 39.0665 55.3617 39.0053 55.7447 38.7377C56.1355 38.4724 56.4174 38.0567 56.5907 37.4906C56.7639 36.9245 56.7629 36.4222 56.5875 35.9837C56.4198 35.5476 56.0988 35.2569 55.6245 35.1118C55.1502 34.9666 54.7177 35.0267 54.327 35.292C53.9439 35.5596 53.6657 35.9764 53.4925 36.5425C53.3193 37.1086 53.3165 37.6097 53.4842 38.0459ZM58.0479 41.1366L59.8388 35.2845L62.4665 36.0887C63.0938 36.2807 63.5286 36.5685 63.7709 36.9522C64.0132 37.3359 64.0665 37.7496 63.9307 38.1933C63.8324 38.5146 63.6702 38.7578 63.444 38.9228C63.2278 39.0825 62.9909 39.1732 62.7333 39.1947C63.0059 39.3702 63.2042 39.6107 63.3281 39.9164C63.4598 40.2244 63.4682 40.5658 63.3535 40.9406C63.2037 41.4302 62.8972 41.7757 62.434 41.9769C61.9808 42.1729 61.433 42.1726 60.7904 41.9759L58.0479 41.1366ZM61.3952 39.4253L60.0986 39.0285L59.6421 40.5202L60.9387 40.917C61.2294 41.0059 61.4712 41.0088 61.664 40.9256C61.8668 40.837 62.0044 40.6742 62.077 40.4371C62.2268 39.9475 61.9996 39.6102 61.3952 39.4253ZM61.9969 37.0493L60.815 36.6876L60.4006 38.0416L61.5825 38.4033C61.8349 38.4806 62.0487 38.4791 62.2239 38.3988C62.4067 38.3209 62.5309 38.1748 62.5964 37.9606C62.7322 37.517 62.5323 37.2132 61.9969 37.0493ZM69.7783 41.9405L65.6589 40.6798L65.6519 40.7028C65.5137 41.1541 65.5444 41.5735 65.7438 41.9608C65.9432 42.3481 66.2762 42.6131 66.7428 42.7559C67.0641 42.8542 67.3479 42.87 67.5943 42.8031C67.8506 42.731 68.0289 42.6266 68.1293 42.49L69.4145 42.8833C69.1869 43.2989 68.8051 43.6171 68.269 43.8379C67.7406 44.061 67.113 44.0614 66.3863 43.839C65.5142 43.5721 64.8973 43.0863 64.5357 42.3817C64.1764 41.6694 64.1408 40.8427 64.4287 39.9018C64.7167 38.9609 65.205 38.2946 65.8937 37.903C66.5848 37.5038 67.3473 37.4317 68.1811 37.6869C68.9843 37.9327 69.5462 38.3933 69.8666 39.0686C70.187 39.7439 70.2126 40.5215 69.9433 41.4012L69.7783 41.9405ZM67.836 38.7735C67.4229 38.6471 67.0489 38.6665 66.7139 38.8317C66.3865 38.9992 66.1393 39.2875 65.9723 39.6965L68.7722 40.5534C68.888 40.1203 68.8598 39.7477 68.6875 39.4357C68.5253 39.1183 68.2415 38.8976 67.836 38.7735ZM76.3694 45.4885L75.5687 48.1048L74.3065 47.7185L74.756 46.2497L70.6251 44.9856L70.1756 46.4544L68.9134 46.0681L69.714 43.4518L70.1845 43.5958C70.5873 43.5099 70.9914 42.9685 71.3969 41.9715L72.4963 39.1581L76.96 40.5241L75.5202 45.2287L76.3694 45.4885ZM72.6221 42.3966C72.277 43.2783 71.9311 43.8208 71.5844 44.0242L74.2121 44.8284L75.3007 41.2712L73.3041 40.6602L72.6221 42.3966ZM82.7999 45.9254L78.6804 44.6648L78.6734 44.6877C78.5353 45.1391 78.5659 45.5584 78.7653 45.9457C78.9647 46.333 79.2977 46.598 79.7644 46.7408C80.0857 46.8392 80.3695 46.8549 80.6158 46.7881C80.8721 46.7159 81.0505 46.6115 81.1509 46.4749L82.436 46.8682C82.2085 47.2838 81.8266 47.602 81.2906 47.8228C80.7621 48.0459 80.1345 48.0463 79.4078 47.8239C78.5357 47.557 77.9189 47.0713 77.5573 46.3666C77.198 45.6543 77.1623 44.8277 77.4503 43.8867C77.7382 42.9458 78.2265 42.2795 78.9153 41.8879C79.6064 41.4887 80.3688 41.4167 81.2027 41.6718C82.0059 41.9176 82.5677 42.3782 82.8881 43.0535C83.2085 43.7289 83.2341 44.5064 82.9649 45.3861L82.7999 45.9254ZM80.8576 42.7584C80.4445 42.632 80.0704 42.6514 79.7354 42.8166C79.4081 42.9841 79.1609 43.2724 78.9939 43.6815L81.7937 44.5383C81.9095 44.1052 81.8813 43.7326 81.7091 43.4206C81.5469 43.1032 81.263 42.8825 80.8576 42.7584ZM84.8286 42.9321L86.4809 43.4377L87.0406 48.2522L90.1987 44.5755L91.8281 45.0741L90.0373 50.9262L88.775 50.5399L90.0006 46.5353L87.0264 49.9797L86.0626 49.6847L85.5219 45.1772L84.2999 49.1704L83.0377 48.7842L84.8286 42.9321ZM96.4867 51.783C96.8692 51.9001 97.193 51.8946 97.458 51.7665C97.7308 51.6408 97.9425 51.4546 98.0933 51.208L99.367 51.5978C99.1155 52.1734 98.6933 52.5963 98.1002 52.8666C97.5072 53.1369 96.8473 53.1608 96.1206 52.9384C95.2714 52.6786 94.6734 52.186 94.3264 51.4607C93.9818 50.7278 93.9476 49.91 94.2239 49.0073C94.4978 48.1123 94.9788 47.4564 95.6669 47.0395C96.3627 46.6249 97.1389 46.5487 97.9957 46.8109C98.7378 47.038 99.2701 47.431 99.5926 47.9899C99.9176 48.5411 100.03 49.1152 99.9314 49.7124L98.6577 49.3226C98.6532 49.0368 98.5719 48.7693 98.4139 48.5201C98.2658 48.2657 98.0082 48.0823 97.6411 47.9699C97.1821 47.8294 96.761 47.893 96.378 48.1606C96.0025 48.4306 95.7282 48.8486 95.5549 49.4147C95.3794 49.9884 95.3754 50.4934 95.5431 50.9295C95.7132 51.3581 96.0277 51.6425 96.4867 51.783ZM102.979 49.7416L103.331 48.5942L108.38 50.1392L108.028 51.2867L106.158 50.7143L104.718 55.419L103.41 55.0186L104.85 50.314L102.979 49.7416ZM109.292 51.1966C110.001 50.7944 110.784 50.7244 111.64 50.9866C112.497 51.2488 113.103 51.7437 113.458 52.4713C113.82 53.2013 113.862 54.0214 113.583 54.9317C113.304 55.8421 112.811 56.4983 112.102 56.9006C111.401 57.3051 110.622 57.3763 109.765 57.1141C108.909 56.8519 108.299 56.3558 107.937 55.6259C107.582 54.8982 107.544 54.0793 107.823 53.1689C108.101 52.2586 108.591 51.6012 109.292 51.1966ZM109.146 55.0797C109.321 55.5182 109.646 55.81 110.12 55.9551C110.594 56.1003 111.023 56.0391 111.406 55.7714C111.797 55.5062 112.079 55.0905 112.252 54.5244C112.425 53.9583 112.424 53.456 112.249 53.0175C112.081 52.5813 111.76 52.2907 111.286 52.1455C110.812 52.0004 110.379 52.0605 109.988 52.3257C109.605 52.5933 109.327 53.0102 109.154 53.5763C108.981 54.1424 108.978 54.6435 109.146 55.0797ZM118.481 53.2807C119.254 53.5172 119.8 53.9731 120.121 54.6484C120.449 55.3261 120.474 56.1162 120.198 57.0189C119.938 57.868 119.459 58.5037 118.761 58.9259C118.073 59.3428 117.305 59.4213 116.455 59.1614C115.507 58.8711 114.862 58.3266 114.521 57.5278C114.182 56.7213 114.187 55.7482 114.536 54.6084C114.964 53.2085 115.51 52.2169 116.174 51.6335C116.84 51.0426 117.726 50.8119 118.833 50.9413L121.342 51.2322L120.976 52.4256L118.687 52.1141C118.05 52.0362 117.54 52.1185 117.156 52.3608C116.775 52.5955 116.458 53.0171 116.204 53.6256C116.835 53.1241 117.594 53.0092 118.481 53.2807ZM116.734 58.0044C117.216 58.1519 117.648 58.0956 118.028 57.8356C118.419 57.5704 118.699 57.1623 118.867 56.6116C119.031 56.0761 119.023 55.5967 118.843 55.1735C118.673 54.745 118.351 54.4582 117.876 54.313C117.402 54.1679 116.965 54.2141 116.566 54.4518C116.17 54.6818 115.887 55.0721 115.719 55.6229C115.545 56.189 115.546 56.6913 115.722 57.1298C115.907 57.563 116.245 57.8545 116.734 58.0044ZM122.37 55.1987C123.079 54.7965 123.861 54.7265 124.718 54.9887C125.575 55.2509 126.181 55.7458 126.535 56.4734C126.897 57.2033 126.939 58.0235 126.661 58.9338C126.382 59.8441 125.888 60.5004 125.18 60.9026C124.479 61.3072 123.7 61.3784 122.843 61.1162C121.986 60.854 121.377 60.3579 121.014 59.6279C120.66 58.9003 120.622 58.0813 120.9 57.171C121.179 56.2607 121.669 55.6032 122.37 55.1987ZM122.223 59.0817C122.398 59.5202 122.723 59.8121 123.198 59.9572C123.672 60.1024 124.101 60.0411 124.484 59.7735C124.874 59.5082 125.156 59.0926 125.33 58.5265C125.503 57.9604 125.502 57.4581 125.326 57.0196C125.159 56.5834 124.838 56.2928 124.363 56.1476C123.889 56.0025 123.457 56.0625 123.066 56.3278C122.683 56.5954 122.405 57.0123 122.231 57.5784C122.058 58.1444 122.055 58.6456 122.223 59.0817ZM133.776 57.9111L131.985 63.7632L130.7 63.3699L131.89 59.48L128.049 62.5588L126.787 62.1725L128.578 56.3204L129.863 56.7137L128.669 60.6151L132.514 57.5249L133.776 57.9111ZM131.11 54.1965C131.026 54.4719 131.032 54.7248 131.129 54.9552C131.226 55.1856 131.416 55.3441 131.699 55.4307C131.982 55.5174 132.228 55.4923 132.437 55.3555C132.646 55.2187 132.793 55.0126 132.877 54.7373L133.933 55.0603C133.742 55.6294 133.418 56.0322 132.961 56.2687C132.511 56.5076 131.996 56.5381 131.414 56.3602C130.833 56.1823 130.419 55.8673 130.172 55.4154C129.933 54.9658 129.894 54.4518 130.054 53.8734L131.11 54.1965ZM141.515 63.8937L137.396 62.6331L137.389 62.656C137.25 63.1074 137.281 63.5267 137.48 63.914C137.68 64.3013 138.013 64.5664 138.479 64.7092C138.801 64.8075 139.085 64.8232 139.331 64.7564C139.587 64.6842 139.766 64.5799 139.866 64.4433L141.151 64.8365C140.924 65.2521 140.542 65.5703 140.006 65.7911C139.477 66.0143 138.85 66.0146 138.123 65.7922C137.251 65.5254 136.634 65.0396 136.272 64.3349C135.913 63.6226 135.877 62.796 136.165 61.8551C136.453 60.9141 136.942 60.2479 137.63 59.8563C138.321 59.457 139.084 59.385 139.918 59.6402C140.721 59.886 141.283 60.3465 141.603 61.0219C141.924 61.6972 141.949 62.4747 141.68 63.3544L141.515 63.8937ZM139.573 60.7267C139.16 60.6003 138.786 60.6197 138.451 60.7849C138.123 60.9525 137.876 61.2407 137.709 61.6498L140.509 62.5066C140.625 62.0735 140.596 61.701 140.424 61.3889C140.262 61.0715 139.978 60.8508 139.573 60.7267ZM147.209 63.2769L144.501 62.4482L143.061 67.1528L141.753 66.7525L143.544 60.9004L147.56 62.1294L147.209 63.2769ZM148.508 63.1978C149.217 62.7956 150 62.7255 150.857 62.9877C151.713 63.2499 152.319 63.7448 152.674 64.4725C153.036 65.2024 153.078 66.0226 152.799 66.9329C152.521 67.8432 152.027 68.4995 151.318 68.9017C150.617 69.3063 149.838 69.3774 148.981 69.1152C148.125 68.853 147.515 68.357 147.153 67.627C146.798 66.8994 146.76 66.0804 147.039 65.1701C147.318 64.2598 147.807 63.6023 148.508 63.1978ZM148.362 67.0808C148.537 67.5193 148.862 67.8111 149.336 67.9563C149.81 68.1014 150.239 68.0402 150.622 67.7726C151.013 67.5073 151.295 67.0916 151.468 66.5255C151.641 65.9595 151.64 65.4572 151.465 65.0187C151.297 64.5825 150.976 64.2918 150.502 64.1467C150.028 64.0015 149.595 64.0616 149.204 64.3269C148.821 64.5945 148.543 65.0113 148.37 65.5774C148.197 66.1435 148.194 66.6446 148.362 67.0808ZM46.1087 48.7774L45.3081 51.3936L44.0459 51.0073L44.4954 49.5386L40.3645 48.2744L39.915 49.7432L38.6528 49.3569L39.4534 46.7407L39.9239 46.8846C40.3266 46.7987 40.7308 46.2573 41.1363 45.2603L42.2357 42.4469L46.6993 43.8129L45.2596 48.5175L46.1087 48.7774ZM42.3615 45.6855C42.0164 46.5671 41.6705 47.1096 41.3238 47.313L43.9515 48.1172L45.0401 44.56L43.0435 43.949L42.3615 45.6855ZM48.6626 45.1917C49.3714 44.7895 50.1541 44.7195 51.0109 44.9817C51.8677 45.2439 52.4733 45.7388 52.8279 46.4664C53.1902 47.1964 53.232 48.0165 52.9534 48.9269C52.6749 49.8372 52.1812 50.4935 51.4725 50.8957C50.7714 51.3002 49.9925 51.3714 49.1357 51.1092C48.2789 50.847 47.6694 50.3509 47.3072 49.621C46.9526 48.8934 46.9146 48.0744 47.1931 47.1641C47.4717 46.2537 47.9616 45.5963 48.6626 45.1917ZM48.5159 49.0748C48.6913 49.5133 49.0161 49.8051 49.4904 49.9503C49.9647 50.0954 50.3933 50.0342 50.7764 49.7666C51.1672 49.5013 51.4491 49.0856 51.6224 48.5195C51.7956 47.9534 51.7946 47.4511 51.6192 47.0126C51.4515 46.5765 51.1305 46.2858 50.6562 46.1407C50.1819 45.9955 49.7494 46.0556 49.3587 46.3209C48.9756 46.5885 48.6974 47.0053 48.5242 47.5714C48.351 48.1375 48.3482 48.6386 48.5159 49.0748ZM62.3379 48.5987L60.547 54.4508L59.2619 54.0575L60.4523 50.1676L56.6112 53.2463L55.349 52.86L57.1399 47.0079L58.4251 47.4012L57.2311 51.3026L61.0757 48.2124L62.3379 48.5987ZM68.2859 55.5641L67.4852 58.1804L66.223 57.7941L66.6725 56.3253L62.5416 55.0612L62.0921 56.5299L60.8299 56.1437L61.6305 53.5274L62.101 53.6714C62.5038 53.5855 62.9079 53.0441 63.3134 52.0471L64.4128 49.2336L68.8765 50.5996L67.4367 55.3043L68.2859 55.5641ZM64.5386 52.4722C64.1935 53.3538 63.8476 53.8964 63.5009 54.0998L66.1286 54.904L67.2172 51.3468L65.2206 50.7358L64.5386 52.4722ZM74.7163 56.001L70.5969 54.7403L70.5899 54.7633C70.4518 55.2146 70.4824 55.634 70.6818 56.0213C70.8812 56.4086 71.2142 56.6736 71.6809 56.8164C72.0021 56.9147 72.286 56.9305 72.5323 56.8636C72.7886 56.7915 72.967 56.6871 73.0674 56.5505L74.3525 56.9438C74.1249 57.3594 73.7431 57.6776 73.207 57.8984C72.6786 58.1215 72.051 58.1219 71.3243 57.8995C70.4522 57.6326 69.8354 57.1468 69.4738 56.4422C69.1145 55.7299 69.0788 54.9032 69.3667 53.9623C69.6547 53.0214 70.143 52.3551 70.8318 51.9635C71.5229 51.5643 72.2853 51.4922 73.1192 51.7474C73.9224 51.9932 74.4842 52.4538 74.8046 53.1291C75.125 53.8044 75.1506 54.582 74.8814 55.4617L74.7163 56.001ZM72.7741 52.834C72.361 52.7076 71.9869 52.727 71.6519 52.8922C71.3246 53.0597 71.0774 53.348 70.9104 53.757L73.7102 54.6139C73.826 54.1808 73.7978 53.8082 73.6256 53.4962C73.4634 53.1788 73.1795 52.9581 72.7741 52.834ZM79.572 56.0312C79.6727 55.7023 79.6428 55.4171 79.4825 55.1756C79.3321 54.9288 79.0848 54.7527 78.7406 54.6474C78.121 54.4577 77.6656 54.5652 77.3745 54.9697L76.1352 54.5904C76.3815 54.1137 76.7654 53.7752 77.2868 53.575C77.8181 53.3695 78.4281 53.3721 79.1166 53.5828C79.8433 53.8052 80.3635 54.1693 80.6772 54.6753C80.9985 55.1836 81.0562 55.7743 80.8502 56.4475L79.6703 60.303L78.454 59.9308L78.6576 59.2652C78.0654 59.6696 77.3791 59.7524 76.5988 59.5136C76.0174 59.3357 75.582 59.0226 75.2925 58.5742C75.013 58.1206 74.9587 57.6146 75.1296 57.0561C75.3076 56.4747 75.6522 56.0866 76.1636 55.8917C76.685 55.6916 77.3129 55.7038 78.0473 55.9286L79.4702 56.364L79.572 56.0312ZM77.2123 58.5343C77.6177 58.6583 77.9971 58.6489 78.3503 58.5061C78.7059 58.3555 78.9423 58.089 79.0593 57.7065L79.1682 57.3508L77.8371 56.9435C77.4929 56.8381 77.1952 56.8265 76.9442 56.9087C76.7032 56.9855 76.5429 57.154 76.4633 57.4141C76.3837 57.6742 76.4134 57.905 76.5526 58.1065C76.694 58.3004 76.9139 58.443 77.2123 58.5343ZM80.3508 60.5363L80.702 59.3889L80.8856 59.4451C81.2069 59.5434 81.4595 59.5245 81.6434 59.3883C81.8372 59.2469 82.0224 58.9563 82.1987 58.5167L83.5601 55.0932L87.8632 56.41L86.0723 62.2622L84.7642 61.8618L86.2039 57.1572L84.3565 56.5918L83.4099 58.9877C83.1029 59.7722 82.7337 60.2951 82.3024 60.5563C81.8811 60.8122 81.3491 60.8419 80.7066 60.6452L80.3508 60.5363ZM90.5254 57.2248L89.9811 59.0033L91.1515 59.3615C91.8018 59.5605 92.2634 59.9109 92.5365 60.4128C92.8119 60.9071 92.8595 61.4487 92.6793 62.0377C92.4967 62.6344 92.1468 63.067 91.6296 63.3354C91.1224 63.5985 90.5475 63.6317 89.9049 63.435L87.4379 62.6801L89.2287 56.828L90.5254 57.2248ZM90.6538 60.4139L89.644 60.1049L89.0681 61.9868L90.0779 62.2958C90.3915 62.3918 90.6644 62.3749 90.8965 62.2451C91.1363 62.1177 91.2983 61.9163 91.3826 61.6409C91.4669 61.3655 91.443 61.1156 91.3109 60.8911C91.1864 60.669 90.9674 60.5099 90.6538 60.4139ZM94.3435 64.7934L93.0354 64.393L94.8263 58.5409L96.1344 58.9412L95.4461 61.1903L97.9591 61.9593L98.6473 59.7103L99.9554 60.1106L98.1646 65.9627L96.8564 65.5624L97.6044 63.1183L95.0914 62.3492L94.3435 64.7934ZM101.55 61.3767C102.259 60.9745 103.042 60.9045 103.899 61.1667C104.755 61.4289 105.361 61.9238 105.716 62.6514C106.078 63.3814 106.12 64.2015 105.841 65.1118C105.563 66.0222 105.069 66.6784 104.36 67.0806C103.659 67.4852 102.88 67.5564 102.023 67.2942C101.167 67.032 100.557 66.5359 100.195 65.806C99.8402 65.0783 99.8022 64.2594 100.081 63.349C100.359 62.4387 100.849 61.7813 101.55 61.3767ZM101.404 65.2598C101.579 65.6983 101.904 65.9901 102.378 66.1352C102.852 66.2804 103.281 66.2191 103.664 65.9515C104.055 65.6863 104.337 65.2706 104.51 64.7045C104.683 64.1384 104.682 63.6361 104.507 63.1976C104.339 62.7614 104.018 62.4708 103.544 62.3256C103.07 62.1805 102.637 62.2406 102.246 62.5058C101.863 62.7734 101.585 63.1903 101.412 63.7564C101.239 64.3225 101.236 64.8236 101.404 65.2598ZM111.423 64.8749L108.715 64.0462L107.275 68.7508L105.967 68.3505L107.758 62.4984L111.774 63.7275L111.423 64.8749ZM112.723 64.7958C113.432 64.3936 114.214 64.3236 115.071 64.5858C115.928 64.848 116.534 65.3429 116.888 66.0705C117.25 66.8005 117.292 67.6206 117.014 68.5309C116.735 69.4413 116.241 70.0975 115.533 70.4998C114.832 70.9043 114.053 70.9755 113.196 70.7133C112.339 70.4511 111.73 69.955 111.367 69.2251C111.013 68.4974 110.975 67.6785 111.253 66.7681C111.532 65.8578 112.022 65.2004 112.723 64.7958ZM112.576 68.6789C112.752 69.1174 113.076 69.4092 113.551 69.5543C114.025 69.6995 114.454 69.6383 114.837 69.3706C115.227 69.1054 115.509 68.6897 115.683 68.1236C115.856 67.5575 115.855 67.0552 115.679 66.6167C115.512 66.1805 115.191 65.8899 114.716 65.7447C114.242 65.5996 113.81 65.6597 113.419 65.9249C113.036 66.1925 112.758 66.6094 112.584 67.1755C112.411 67.7416 112.408 68.2427 112.576 68.6789ZM119.409 72.4641L121.2 66.612L123.828 67.4162C124.455 67.6081 124.89 67.896 125.132 68.2797C125.375 68.6634 125.428 69.0771 125.292 69.5208C125.194 69.8421 125.032 70.0852 124.805 70.2503C124.589 70.41 124.352 70.5006 124.095 70.5222C124.367 70.6976 124.566 70.9382 124.689 71.2439C124.821 71.5519 124.83 71.8933 124.715 72.2681C124.565 72.7577 124.259 73.1031 123.795 73.3044C123.342 73.5004 122.794 73.5 122.152 73.3034L119.409 72.4641ZM122.757 70.7527L121.46 70.3559L121.003 71.8476L122.3 72.2444C122.591 72.3334 122.833 72.3363 123.025 72.253C123.228 72.1645 123.366 72.0017 123.438 71.7645C123.588 71.2749 123.361 70.9377 122.757 70.7527ZM123.358 68.3768L122.176 68.0151L121.762 69.3691L122.944 69.7308C123.196 69.808 123.41 69.8065 123.585 69.7263C123.768 69.6484 123.892 69.5023 123.958 69.2881C124.094 68.8444 123.894 68.5406 123.358 68.3768ZM132.22 69.9843L130.429 75.8364L129.144 75.4431L130.334 71.5532L126.493 74.632L125.231 74.2457L127.022 68.3936L128.307 68.7869L127.113 72.6883L130.958 69.598L132.22 69.9843ZM138.168 76.9498L137.367 79.566L136.105 79.1797L136.554 77.711L132.423 76.4468L131.974 77.9156L130.712 77.5293L131.512 74.9131L131.983 75.057C132.386 74.9711 132.79 74.4297 133.195 73.4327L134.295 70.6193L138.758 71.9853L137.319 76.6899L138.168 76.9498ZM134.42 73.8579C134.075 74.7395 133.729 75.282 133.383 75.4854L136.01 76.2896L137.099 72.7324L135.102 72.1214L134.42 73.8579ZM143.319 75.5393C143.419 75.2103 143.389 74.9251 143.229 74.6836C143.079 74.4368 142.831 74.2608 142.487 74.1554C141.867 73.9658 141.412 74.0732 141.121 74.4777L139.882 74.0985C140.128 73.6217 140.512 73.2832 141.033 73.083C141.565 72.8775 142.175 72.8801 142.863 73.0908C143.59 73.3132 144.11 73.6774 144.424 74.1833C144.745 74.6916 144.803 75.2823 144.597 75.9555L143.417 79.811L142.2 79.4388L142.404 78.7733C141.812 79.1777 141.126 79.2605 140.345 79.0217C139.764 78.8438 139.328 78.5306 139.039 78.0823C138.76 77.6287 138.705 77.1226 138.876 76.5642C139.054 75.9828 139.399 75.5947 139.91 75.3998C140.432 75.1996 141.059 75.2119 141.794 75.4366L143.217 75.8721L143.319 75.5393ZM140.959 78.0423C141.364 78.1664 141.744 78.157 142.097 78.0141C142.452 77.8636 142.689 77.5971 142.806 77.2146L142.915 76.8589L141.584 76.4515C141.239 76.3462 140.942 76.3346 140.691 76.4167C140.45 76.4936 140.289 76.662 140.21 76.9221C140.13 77.1822 140.16 77.413 140.299 77.6145C140.441 77.8084 140.66 77.951 140.959 78.0423Z" fill="white"/>
<defs>
<linearGradient id="paint0_linear_163_817" x1="111.001" y1="19.741" x2="80.0148" y2="122.846" gradientUnits="userSpaceOnUse">
<stop stop-color="#66BEBE"/>
<stop offset="1" stop-color="#65DEA3"/>
</linearGradient>
</defs>
</svg>
